<?xml version="1.0" ?>
<!DOCTYPE svg PUBLIC "-//W3C//DTD SVG 1.1//EN" "http://www.w3.org/Graphics/SVG/1.1/DTD/svg11.dtd">
<svg width="1080" height="934" version="1.1" xmlns="http://www.w3.org/2000/svg">
<path d="M627 13 L 591 18 L 582 53 L 623 44 L 612 76 L 631 105 L 625 140 L 609 173 L 562 179 L 585 143 L 585 105 L 556 82 L 548 134 L 525 108 L 515 71 L 539 45 L 554 16 L 511 18 L 485 51 L 469 17 L 438 49 L 455 78 L 486 97 L 493 135 L 456 154 L 446 115 L 417 145 L 401 113 L 416 82 L 398 50 L 432 16 L 400 15 L 370 18 L 375 81 L 359 51 L 340 15 L 307 13 L 323 41 L 331 69 L 338 96 L 308 114 L 301 87 L 294 59 L 285 35 L 269 13 L 238 19 L 252 50 L 269 80 L 271 114 L 233 116 L 244 94 L 227 73 L 209 49 L 207 15 L 176 19 L 144 22 L 112 18 L 78 17 L 44 18 L 14 17 L 18 53 L 58 50 L 98 51 L 135 62 L 173 59 L 158 95 L 198 92 L 209 131 L 176 126 L 142 137 L 124 109 L 105 85 L 73 85 L 42 82 L 14 92 L 15 127 L 22 158 L 15 190 L 15 223 L 45 229 L 79 239 L 89 269 L 83 298 L 100 324 L 122 351 L 93 365 L 59 371 L 39 349 L 67 333 L 49 302 L 52 267 L 17 257 L 16 289 L 19 321 L 12 351 L 17 382 L 44 401 L 15 415 L 20 444 L 15 473 L 13 504 L 42 504 L 48 470 L 54 432 L 78 454 L 100 474 L 75 492 L 75 515 L 113 502 L 145 506 L 142 474 L 157 442 L 148 412 L 121 446 L 95 427 L 78 400 L 114 400 L 141 376 L 165 347 L 134 321 L 125 285 L 117 250 L 147 238 L 180 240 L 166 273 L 160 305 L 192 314 L 221 337 L 199 362 L 178 389 L 190 423 L 188 456 L 174 485 L 176 512 L 176 539 L 169 539 L 162 538 L 154 539 L 147 538 L 138 538 L 129 538 L 118 538 L 107 538 L 96 537 L 84 538 L 72 538 L 60 538 L 48 538 L 37 539 L 26 539 L 16 538 L 5 539 L 10 559 L 10 579 L 29 567 L 45 563 L 60 556 L 78 558 L 96 556 L 115 555 L 130 562 L 147 558 L 163 559 L 175 553 L 184 539 L 192 539 L 200 539 L 209 540 L 218 540 L 227 539 L 235 539 L 244 540 L 252 537 L 256 544 L 261 538 L 270 539 L 279 538 L 288 539 L 296 538 L 305 539 L 313 538 L 320 539 L 327 537 L 334 538 L 342 539 L 350 539 L 358 538 L 367 538 L 376 539 L 385 539 L 393 540 L 401 539 L 409 539 L 417 539 L 424 538 L 430 540 L 438 538 L 435 512 L 460 514 L 463 505 L 466 499 L 457 497 L 463 492 L 458 486 L 458 478 L 457 470 L 458 462 L 459 454 L 465 449 L 465 440 L 470 432 L 477 426 L 484 421 L 491 417 L 491 408 L 470 402 L 447 407 L 422 417 L 438 438 L 424 461 L 436 482 L 416 492 L 407 514 L 384 520 L 385 496 L 398 472 L 371 472 L 379 445 L 405 442 L 395 413 L 366 418 L 380 387 L 401 362 L 421 387 L 439 357 L 460 378 L 485 361 L 467 337 L 442 317 L 416 333 L 385 323 L 372 354 L 345 365 L 348 395 L 317 380 L 298 355 L 281 377 L 257 395 L 260 425 L 259 455 L 291 471 L 318 484 L 318 452 L 292 439 L 289 408 L 317 409 L 334 427 L 352 446 L 341 469 L 351 491 L 363 512 L 338 511 L 314 511 L 290 504 L 264 511 L 265 484 L 237 486 L 235 512 L 206 509 L 206 481 L 225 459 L 227 431 L 219 399 L 236 370 L 261 350 L 289 327 L 276 301 L 297 282 L 298 253 L 288 225 L 318 211 L 326 180 L 298 174 L 277 191 L 258 210 L 236 227 L 257 248 L 253 276 L 250 318 L 224 298 L 207 271 L 212 238 L 219 201 L 183 202 L 147 203 L 112 213 L 76 208 L 48 189 L 62 155 L 48 120 L 84 120 L 104 145 L 91 179 L 126 173 L 160 169 L 186 159 L 212 168 L 243 177 L 243 144 L 270 158 L 288 138 L 317 148 L 339 128 L 366 114 L 380 147 L 350 159 L 355 192 L 389 184 L 424 182 L 459 197 L 491 178 L 525 166 L 531 209 L 493 220 L 429 220 L 396 225 L 362 222 L 335 241 L 335 274 L 321 307 L 323 341 L 351 327 L 364 295 L 376 261 L 406 294 L 418 258 L 445 283 L 458 241 L 479 268 L 481 301 L 499 324 L 510 350 L 533 352 L 545 369 L 538 373 L 533 380 L 528 385 L 520 380 L 510 381 L 503 385 L 496 391 L 492 399 L 502 402 L 503 416 L 513 409 L 513 394 L 526 393 L 523 403 L 531 405 L 527 413 L 542 412 L 538 425 L 552 422 L 550 435 L 545 446 L 557 447 L 565 441 L 563 429 L 570 432 L 579 426 L 568 418 L 556 409 L 568 404 L 579 410 L 584 416 L 592 414 L 599 412 L 597 407 L 596 401 L 589 400 L 582 403 L 581 392 L 581 382 L 586 374 L 571 375 L 569 390 L 556 395 L 542 397 L 546 385 L 558 379 L 552 365 L 560 363 L 567 361 L 576 362 L 584 363 L 592 364 L 598 370 L 607 367 L 621 331 L 636 355 L 635 379 L 669 371 L 663 341 L 689 317 L 719 296 L 724 263 L 693 250 L 678 280 L 651 308 L 618 296 L 638 269 L 593 264 L 560 278 L 588 302 L 588 333 L 558 337 L 556 310 L 530 324 L 521 290 L 508 255 L 540 251 L 568 230 L 591 205 L 614 236 L 656 238 L 633 202 L 667 201 L 696 219 L 723 201 L 754 194 L 780 210 L 736 230 L 765 245 L 756 281 L 761 316 L 790 340 L 800 302 L 790 271 L 803 241 L 841 239 L 828 274 L 868 273 L 878 241 L 909 265 L 912 226 L 938 203 L 959 174 L 996 156 L 973 132 L 979 89 L 949 71 L 947 108 L 934 145 L 911 177 L 872 167 L 883 205 L 849 202 L 816 208 L 800 175 L 834 168 L 820 135 L 857 130 L 895 136 L 913 104 L 875 93 L 834 98 L 844 62 L 814 45 L 801 76 L 792 106 L 784 137 L 767 164 L 730 164 L 743 133 L 752 103 L 759 73 L 778 46 L 737 46 L 717 77 L 709 112 L 697 145 L 696 180 L 656 165 L 664 126 L 676 91 L 652 65 L 689 52 L 657 23 L 685 14 L 712 22 L 741 14 L 771 16 L 805 14 L 841 19 L 875 16 L 879 51 L 911 66 L 911 18 L 936 39 L 959 13 L 977 46 L 1011 44 L 1010 75 L 1044 68 L 1065 93 L 1039 106 L 1006 112 L 1026 140 L 1057 144 L 1097 155 L 1078 122 L 1102 96 L 1116 123 L 1136 151 L 1175 160 L 1160 202 L 1129 183 L 1095 197 L 1061 209 L 1065 175 L 1030 178 L 996 191 L 975 216 L 949 242 L 945 276 L 982 309 L 1001 340 L 1034 358 L 1053 324 L 1020 300 L 1027 265 L 982 273 L 998 244 L 1024 218 L 1055 245 L 1066 284 L 1096 313 L 1114 274 L 1089 242 L 1123 226 L 1156 246 L 1157 285 L 1141 320 L 1150 360 L 1209 367 L 1209 406 L 1176 386 L 1109 348 L 1072 362 L 1111 384 L 1142 403 L 1112 425 L 1103 459 L 1126 479 L 1151 490 L 1141 449 L 1170 427 L 1174 462 L 1183 487 L 1206 437 L 1213 462 L 1218 486 L 1237 503 L 1219 515 L 1197 508 L 1172 513 L 1147 517 L 1121 508 L 1094 498 L 1062 499 L 1058 519 L 1028 503 L 1035 471 L 1070 470 L 1070 437 L 1077 402 L 1039 400 L 1033 434 L 1002 450 L 995 480 L 995 510 L 963 505 L 957 473 L 966 441 L 991 414 L 1006 382 L 971 375 L 955 344 L 948 312 L 919 302 L 887 306 L 852 305 L 827 327 L 823 365 L 832 405 L 798 399 L 779 373 L 748 357 L 725 330 L 701 356 L 694 389 L 727 387 L 757 404 L 732 432 L 708 420 L 683 414 L 664 406 L 653 391 L 642 416 L 635 414 L 632 406 L 628 411 L 624 405 L 617 407 L 614 400 L 620 399 L 615 392 L 613 384 L 608 378 L 600 377 L 594 388 L 606 387 L 605 399 L 611 412 L 618 414 L 614 420 L 608 421 L 610 426 L 615 428 L 618 433 L 604 428 L 599 431 L 593 435 L 597 421 L 590 428 L 585 435 L 577 436 L 580 442 L 577 447 L 575 453 L 568 455 L 562 459 L 555 459 L 548 460 L 553 470 L 566 471 L 557 481 L 541 479 L 535 468 L 538 456 L 527 452 L 534 439 L 525 429 L 513 424 L 517 442 L 504 436 L 495 428 L 489 439 L 478 445 L 485 457 L 484 472 L 472 464 L 471 479 L 481 488 L 491 497 L 504 496 L 496 482 L 510 479 L 500 467 L 499 450 L 512 457 L 521 467 L 525 481 L 517 495 L 532 492 L 540 501 L 547 491 L 558 496 L 568 486 L 571 498 L 563 508 L 551 510 L 541 513 L 524 509 L 507 510 L 514 521 L 520 532 L 521 544 L 531 545 L 535 536 L 530 524 L 539 526 L 547 529 L 541 546 L 553 545 L 564 543 L 575 541 L 584 537 L 595 541 L 607 540 L 590 528 L 576 528 L 561 526 L 554 525 L 567 520 L 574 514 L 587 514 L 597 521 L 602 513 L 604 505 L 607 498 L 607 490 L 606 483 L 594 498 L 583 502 L 582 489 L 593 485 L 588 473 L 577 477 L 578 465 L 584 455 L 591 459 L 597 465 L 602 470 L 602 477 L 610 476 L 608 450 L 623 454 L 635 465 L 651 476 L 655 483 L 655 489 L 653 496 L 652 503 L 655 508 L 654 514 L 647 517 L 641 513 L 636 508 L 642 505 L 648 509 L 646 500 L 641 496 L 647 492 L 641 488 L 648 485 L 643 479 L 637 482 L 633 488 L 633 495 L 636 501 L 628 503 L 620 503 L 612 505 L 623 523 L 619 540 L 630 541 L 641 540 L 650 540 L 659 539 L 667 539 L 674 540 L 681 539 L 688 540 L 695 539 L 699 514 L 676 521 L 675 502 L 690 490 L 673 477 L 684 461 L 676 457 L 670 454 L 663 451 L 658 446 L 651 446 L 648 441 L 641 441 L 638 435 L 634 439 L 630 434 L 625 432 L 621 427 L 628 421 L 637 425 L 648 421 L 648 429 L 656 427 L 663 433 L 670 437 L 674 443 L 681 445 L 687 451 L 694 455 L 692 464 L 699 469 L 702 461 L 708 469 L 713 492 L 734 468 L 758 449 L 780 431 L 811 436 L 847 441 L 858 472 L 844 504 L 873 506 L 889 479 L 890 446 L 870 416 L 906 408 L 892 373 L 858 381 L 865 343 L 910 339 L 930 374 L 948 407 L 929 439 L 921 471 L 933 503 L 904 507 L 893 536 L 886 540 L 880 535 L 875 540 L 868 538 L 860 539 L 850 538 L 841 540 L 830 539 L 820 540 L 835 555 L 852 553 L 857 567 L 842 570 L 826 570 L 820 554 L 804 554 L 811 569 L 797 567 L 788 555 L 774 541 L 779 537 L 784 541 L 792 539 L 800 540 L 810 540 L 813 517 L 816 493 L 824 467 L 790 469 L 761 479 L 759 506 L 747 504 L 732 503 L 724 520 L 734 527 L 737 515 L 750 518 L 747 530 L 758 528 L 766 518 L 773 506 L 789 504 L 782 522 L 770 530 L 767 541 L 761 539 L 754 539 L 747 541 L 741 539 L 735 541 L 728 539 L 720 539 L 713 543 L 709 537 L 703 541 L 696 558 L 709 568 L 724 555 L 726 570 L 743 564 L 756 553 L 773 558 L 759 567 L 770 580 L 783 573 L 799 582 L 787 593 L 772 600 L 755 605 L 752 624 L 734 631 L 714 632 L 709 650 L 696 667 L 694 687 L 676 685 L 671 667 L 682 648 L 692 633 L 693 615 L 700 598 L 717 612 L 735 605 L 754 586 L 737 584 L 717 588 L 692 583 L 680 571 L 677 556 L 659 552 L 659 567 L 640 563 L 627 580 L 628 601 L 648 589 L 667 584 L 673 603 L 669 627 L 649 613 L 642 637 L 658 649 L 647 668 L 656 688 L 632 685 L 626 659 L 610 642 L 623 624 L 593 624 L 570 623 L 550 614 L 538 595 L 560 590 L 580 602 L 605 606 L 604 583 L 615 561 L 591 561 L 581 580 L 566 565 L 545 570 L 524 562 L 508 574 L 526 580 L 514 598 L 525 614 L 526 632 L 546 637 L 565 646 L 586 648 L 600 665 L 610 684 L 583 685 L 570 668 L 553 686 L 546 663 L 527 654 L 511 664 L 495 672 L 478 674 L 467 658 L 487 650 L 505 641 L 503 622 L 499 589 L 485 583 L 473 602 L 492 606 L 479 624 L 468 639 L 448 646 L 451 626 L 454 609 L 455 588 L 469 582 L 473 566 L 482 553 L 491 566 L 503 555 L 512 542 L 504 538 L 496 538 L 500 524 L 491 512 L 479 502 L 469 510 L 470 517 L 477 517 L 478 524 L 485 526 L 489 532 L 486 539 L 476 539 L 466 538 L 455 538 L 446 538 L 462 553 L 454 569 L 442 555 L 435 573 L 422 559 L 403 563 L 384 562 L 414 582 L 439 592 L 424 599 L 430 616 L 429 635 L 407 626 L 402 605 L 390 586 L 376 606 L 384 626 L 391 646 L 376 660 L 362 637 L 340 632 L 336 656 L 356 664 L 361 688 L 339 683 L 315 684 L 315 660 L 296 668 L 278 677 L 264 689 L 245 692 L 229 685 L 219 673 L 210 691 L 191 691 L 197 675 L 183 663 L 193 652 L 185 637 L 195 620 L 213 619 L 200 600 L 221 602 L 241 598 L 259 598 L 275 607 L 289 594 L 312 591 L 302 612 L 285 624 L 266 631 L 253 617 L 234 617 L 226 635 L 208 639 L 210 658 L 232 656 L 245 639 L 248 671 L 260 655 L 280 650 L 298 639 L 318 637 L 324 613 L 335 591 L 351 612 L 358 590 L 370 576 L 362 557 L 345 569 L 331 555 L 322 573 L 312 558 L 297 558 L 296 576 L 273 581 L 280 560 L 264 562 L 247 559 L 251 578 L 231 582 L 213 585 L 197 577 L 234 567 L 229 553 L 216 566 L 203 557 L 188 559 L 178 573 L 182 589 L 179 605 L 177 621 L 168 652 L 171 672 L 175 691 L 160 686 L 152 670 L 144 657 L 150 641 L 164 632 L 144 620 L 160 611 L 162 592 L 160 575 L 142 578 L 143 598 L 125 602 L 124 621 L 132 638 L 121 654 L 110 635 L 98 651 L 106 669 L 114 688 L 94 687 L 74 687 L 54 688 L 39 677 L 28 664 L 48 651 L 60 668 L 83 666 L 69 650 L 82 638 L 92 624 L 106 611 L 102 592 L 124 583 L 108 573 L 89 574 L 66 577 L 49 586 L 30 592 L 10 598 L 8 616 L 26 617 L 45 611 L 63 604 L 80 591 L 82 609 L 63 627 L 41 632 L 26 644 L 9 635 L 9 658 L 10 680 L 27 692 L 9 706 L 29 710 L 48 707 L 68 708 L 87 708 L 105 707 L 123 711 L 128 672 L 140 685 L 130 697 L 143 711 L 151 699 L 164 710 L 181 709 L 197 709 L 214 709 L 232 708 L 255 710 L 278 707 L 299 703 L 324 707 L 349 708 L 374 708 L 382 683 L 399 667 L 412 649 L 430 657 L 446 667 L 460 677 L 442 686 L 421 673 L 403 689 L 396 708 L 417 710 L 424 693 L 439 708 L 458 710 L 462 694 L 485 692 L 478 709 L 498 709 L 508 689 L 529 682 L 519 707 L 538 706 L 559 707 L 579 707 L 600 706 L 622 707 L 644 707 L 666 708 L 685 707 L 706 709 L 711 688 L 721 669 L 734 654 L 753 647 L 746 676 L 730 689 L 729 709 L 749 701 L 766 709 L 789 707 L 772 687 L 764 666 L 785 657 L 793 677 L 806 693 L 815 710 L 840 710 L 829 693 L 820 675 L 811 660 L 807 645 L 816 632 L 792 634 L 771 639 L 773 619 L 791 613 L 810 616 L 806 599 L 817 585 L 835 586 L 828 602 L 830 619 L 848 621 L 835 640 L 835 657 L 843 676 L 852 693 L 866 676 L 858 658 L 858 637 L 877 647 L 901 647 L 910 625 L 896 606 L 886 627 L 869 615 L 874 596 L 850 602 L 854 585 L 870 576 L 870 558 L 882 551 L 897 550 L 899 539 L 906 538 L 912 543 L 917 537 L 925 540 L 934 539 L 943 538 L 952 540 L 961 539 L 969 541 L 941 557 L 923 560 L 907 566 L 889 564 L 888 582 L 907 587 L 924 604 L 928 581 L 949 573 L 962 560 L 979 559 L 995 566 L 976 537 L 983 540 L 991 540 L 999 540 L 1008 541 L 1016 535 L 1018 545 L 1027 540 L 1036 539 L 1046 539 L 1054 539 L 1048 551 L 1039 562 L 1024 565 L 1009 573 L 996 593 L 989 621 L 964 631 L 973 605 L 973 582 L 949 592 L 950 611 L 937 629 L 924 645 L 942 659 L 963 654 L 987 648 L 976 674 L 956 683 L 932 683 L 915 665 L 907 684 L 887 665 L 888 686 L 872 695 L 863 711 L 885 709 L 904 707 L 923 706 L 944 706 L 966 707 L 985 702 L 1008 708 L 1018 689 L 1037 705 L 1063 707 L 1055 681 L 1033 673 L 997 680 L 1010 661 L 1029 647 L 1009 635 L 1013 610 L 1023 590 L 1042 603 L 1031 624 L 1051 624 L 1063 588 L 1043 581 L 1060 566 L 1076 558 L 1080 577 L 1098 576 L 1113 574 L 1129 571 L 1143 578 L 1130 591 L 1115 591 L 1098 595 L 1081 599 L 1066 610 L 1064 638 L 1050 654 L 1073 661 L 1088 645 L 1080 625 L 1095 616 L 1111 610 L 1128 609 L 1143 611 L 1145 596 L 1157 587 L 1171 585 L 1186 581 L 1194 595 L 1212 601 L 1224 615 L 1220 636 L 1205 625 L 1193 613 L 1178 600 L 1160 605 L 1173 618 L 1186 632 L 1199 647 L 1211 664 L 1214 686 L 1192 688 L 1190 667 L 1176 651 L 1166 636 L 1154 623 L 1137 628 L 1121 627 L 1105 634 L 1126 645 L 1108 655 L 1094 670 L 1079 687 L 1090 709 L 1118 709 L 1105 692 L 1117 676 L 1133 691 L 1142 709 L 1163 710 L 1156 690 L 1146 675 L 1132 663 L 1146 643 L 1155 658 L 1170 673 L 1175 694 L 1186 710 L 1207 707 L 1229 709 L 1238 691 L 1256 706 L 1258 680 L 1257 654 L 1235 671 L 1230 653 L 1241 636 L 1260 628 L 1244 615 L 1237 597 L 1259 601 L 1261 577 L 1247 582 L 1224 585 L 1216 567 L 1205 580 L 1192 565 L 1203 555 L 1188 545 L 1175 554 L 1175 568 L 1159 571 L 1159 555 L 1145 561 L 1132 554 L 1115 558 L 1096 558 L 1063 540 L 1071 539 L 1079 539 L 1087 538 L 1095 539 L 1103 537 L 1109 541 L 1115 535 L 1118 541 L 1125 538 L 1131 539 L 1139 539 L 1146 540 L 1154 539 L 1163 539 L 1172 539 L 1180 539 L 1187 536 L 1194 539 L 1201 538 L 1208 539 L 1215 538 L 1222 539 L 1229 539 L 1217 551 L 1231 555 L 1234 571 L 1248 561 L 1261 556 L 1265 538 L 1259 538 L 1253 539 L 1247 538 L 1242 543 L 1235 539 L 1240 533 L 1258 513 L 1255 486 L 1250 460 L 1248 431 L 1247 397 L 1252 359 L 1231 330 L 1185 331 L 1202 291 L 1249 300 L 1245 256 L 1246 211 L 1201 250 L 1197 212 L 1213 177 L 1250 162 L 1251 113 L 1214 135 L 1185 110 L 1155 122 L 1178 72 L 1208 52 L 1218 90 L 1250 65 L 1254 21 L 1224 19 L 1191 16 L 1165 27 L 1146 55 L 1141 90 L 1112 66 L 1115 36 L 1135 13 L 1092 14 L 1081 71 L 1076 42 L 1052 12 L 1040 35 L 1004 13 " stroke="black" stroke-width="3" fill="none"/> 
 </svg>