<?xml version="1.0" ?>
<!DOCTYPE svg PUBLIC "-//W3C//DTD SVG 1.1//EN" "http://www.w3.org/Graphics/SVG/1.1/DTD/svg11.dtd">
<svg width="1080" height="934" version="1.1" xmlns="http://www.w3.org/2000/svg">
<path d="M786 13 L 813 18 L 839 21 L 823 53 L 806 79 L 830 97 L 855 72 L 861 109 L 856 140 L 866 170 L 851 203 L 832 167 L 823 130 L 792 141 L 788 108 L 776 73 L 784 43 L 757 19 L 728 16 L 695 17 L 663 19 L 631 22 L 599 16 L 584 48 L 548 51 L 560 16 L 522 16 L 501 43 L 519 70 L 545 92 L 566 120 L 583 150 L 614 162 L 608 123 L 586 87 L 616 62 L 650 59 L 684 55 L 716 48 L 746 57 L 750 95 L 757 130 L 767 165 L 744 188 L 778 201 L 800 172 L 816 199 L 825 230 L 795 228 L 792 260 L 824 264 L 851 244 L 876 228 L 887 195 L 905 220 L 935 222 L 956 241 L 987 221 L 992 189 L 957 193 L 924 187 L 900 162 L 893 130 L 920 108 L 934 150 L 954 121 L 950 84 L 946 46 L 920 68 L 889 89 L 895 53 L 865 43 L 864 12 L 894 17 L 923 20 L 956 13 L 979 36 L 995 13 L 1026 15 L 1012 47 L 979 65 L 982 98 L 1012 80 L 1042 69 L 1066 86 L 1092 76 L 1122 82 L 1108 49 L 1074 49 L 1044 39 L 1059 14 L 1089 17 L 1120 16 L 1151 15 L 1177 25 L 1203 14 L 1230 22 L 1256 20 L 1249 62 L 1211 54 L 1176 63 L 1141 50 L 1152 89 L 1159 131 L 1168 167 L 1130 180 L 1126 150 L 1125 118 L 1097 107 L 1070 118 L 1041 105 L 1014 114 L 988 133 L 971 159 L 1020 145 L 1018 175 L 1027 210 L 1053 174 L 1052 142 L 1090 144 L 1092 177 L 1110 211 L 1095 240 L 1068 204 L 1061 235 L 1059 269 L 1033 246 L 1006 250 L 1027 282 L 997 294 L 981 261 L 961 282 L 932 275 L 913 252 L 883 260 L 857 276 L 834 299 L 848 331 L 837 358 L 818 382 L 783 373 L 804 351 L 811 322 L 800 289 L 777 307 L 773 337 L 751 358 L 755 383 L 743 408 L 769 409 L 797 404 L 784 433 L 753 438 L 769 460 L 764 483 L 793 481 L 801 458 L 815 434 L 830 411 L 854 388 L 873 365 L 884 334 L 870 305 L 899 289 L 912 316 L 942 309 L 973 316 L 963 348 L 1001 337 L 1030 317 L 1037 351 L 1023 378 L 1067 372 L 1072 336 L 1064 304 L 1090 278 L 1108 307 L 1111 339 L 1107 368 L 1139 389 L 1151 419 L 1173 442 L 1188 465 L 1187 489 L 1223 486 L 1220 461 L 1211 435 L 1188 411 L 1173 382 L 1150 355 L 1150 320 L 1150 288 L 1121 266 L 1144 241 L 1149 205 L 1182 215 L 1218 210 L 1206 174 L 1206 135 L 1182 105 L 1213 91 L 1249 103 L 1247 141 L 1249 181 L 1252 227 L 1215 252 L 1177 260 L 1248 272 L 1247 310 L 1201 295 L 1185 334 L 1207 371 L 1221 338 L 1252 354 L 1251 391 L 1222 403 L 1250 429 L 1252 461 L 1255 488 L 1252 511 L 1225 512 L 1204 508 L 1184 517 L 1164 505 L 1156 478 L 1139 452 L 1122 480 L 1102 458 L 1115 428 L 1108 399 L 1078 404 L 1075 435 L 1071 468 L 1041 476 L 1041 442 L 1043 407 L 1007 434 L 1004 404 L 989 369 L 967 393 L 932 412 L 939 376 L 932 342 L 906 357 L 906 386 L 889 407 L 859 416 L 877 436 L 882 461 L 912 475 L 906 435 L 926 452 L 947 476 L 950 441 L 973 422 L 978 455 L 1011 464 L 1010 490 L 978 484 L 990 510 L 968 512 L 948 507 L 925 503 L 902 510 L 873 509 L 886 488 L 856 479 L 847 445 L 827 468 L 827 496 L 847 510 L 844 539 L 833 539 L 822 539 L 812 540 L 802 540 L 810 520 L 805 500 L 783 508 L 768 523 L 760 505 L 739 507 L 738 499 L 736 490 L 734 483 L 734 474 L 731 466 L 729 457 L 726 448 L 725 438 L 723 428 L 720 418 L 718 408 L 709 420 L 697 423 L 700 431 L 713 434 L 703 440 L 709 449 L 712 458 L 716 467 L 720 475 L 723 484 L 726 491 L 729 498 L 732 505 L 733 514 L 740 515 L 739 522 L 749 535 L 741 540 L 748 542 L 755 540 L 761 539 L 767 541 L 772 539 L 779 540 L 786 539 L 793 540 L 788 555 L 773 557 L 761 567 L 756 554 L 738 556 L 734 540 L 727 540 L 719 555 L 727 571 L 745 571 L 737 587 L 755 587 L 770 581 L 783 573 L 799 582 L 787 594 L 772 600 L 773 620 L 772 640 L 784 660 L 793 636 L 792 614 L 806 599 L 817 586 L 834 586 L 831 602 L 834 619 L 813 615 L 816 630 L 812 646 L 807 661 L 821 672 L 837 658 L 838 639 L 864 644 L 855 624 L 854 604 L 851 587 L 842 570 L 827 570 L 812 569 L 797 567 L 805 554 L 821 554 L 837 555 L 854 552 L 855 538 L 865 538 L 873 539 L 880 537 L 887 540 L 893 536 L 899 539 L 907 538 L 913 544 L 917 536 L 925 540 L 933 538 L 942 538 L 952 539 L 962 540 L 972 539 L 981 539 L 990 540 L 999 539 L 1008 540 L 1019 551 L 1023 568 L 1039 562 L 1048 550 L 1059 566 L 1076 558 L 1095 558 L 1115 556 L 1113 573 L 1128 572 L 1132 554 L 1146 561 L 1142 579 L 1159 572 L 1162 555 L 1160 539 L 1152 540 L 1145 539 L 1137 539 L 1131 536 L 1125 540 L 1118 538 L 1111 539 L 1103 539 L 1095 539 L 1087 537 L 1079 539 L 1071 539 L 1063 540 L 1055 539 L 1046 538 L 1037 539 L 1027 539 L 1018 539 L 1013 516 L 1036 507 L 1062 519 L 1066 498 L 1092 495 L 1111 512 L 1137 504 L 1152 523 L 1168 539 L 1176 539 L 1183 539 L 1191 540 L 1199 538 L 1207 540 L 1214 537 L 1218 544 L 1225 538 L 1233 539 L 1240 534 L 1244 541 L 1251 538 L 1259 539 L 1265 537 L 1261 557 L 1248 561 L 1233 570 L 1231 554 L 1214 563 L 1196 560 L 1180 554 L 1176 568 L 1188 579 L 1206 579 L 1195 595 L 1212 600 L 1223 584 L 1236 597 L 1246 582 L 1261 577 L 1259 601 L 1260 628 L 1244 615 L 1224 615 L 1206 625 L 1193 613 L 1178 601 L 1172 586 L 1157 588 L 1145 596 L 1130 592 L 1114 590 L 1110 609 L 1126 611 L 1143 612 L 1160 605 L 1173 618 L 1186 633 L 1199 647 L 1191 669 L 1212 664 L 1213 686 L 1235 671 L 1231 653 L 1219 637 L 1241 636 L 1257 654 L 1258 680 L 1256 706 L 1238 691 L 1229 709 L 1207 707 L 1187 709 L 1187 689 L 1170 672 L 1176 652 L 1165 637 L 1153 624 L 1134 630 L 1145 644 L 1153 658 L 1146 675 L 1161 689 L 1168 707 L 1146 709 L 1135 691 L 1120 709 L 1092 708 L 1083 685 L 1064 703 L 1038 707 L 1039 679 L 1058 672 L 1080 661 L 1102 666 L 1110 687 L 1126 669 L 1124 649 L 1114 629 L 1101 644 L 1082 637 L 1093 619 L 1069 617 L 1079 600 L 1096 596 L 1097 577 L 1079 577 L 1062 589 L 1047 605 L 1043 582 L 1025 593 L 1011 610 L 994 595 L 1007 579 L 1001 559 L 985 573 L 976 556 L 961 564 L 944 555 L 927 562 L 909 567 L 898 552 L 881 551 L 871 560 L 857 567 L 889 567 L 887 584 L 869 580 L 875 601 L 879 623 L 891 643 L 908 627 L 897 607 L 907 587 L 928 584 L 923 606 L 937 627 L 948 602 L 946 577 L 968 585 L 973 606 L 989 623 L 1030 622 L 1051 628 L 1061 646 L 1036 650 L 1014 662 L 1011 637 L 987 649 L 962 627 L 962 651 L 940 657 L 927 679 L 953 681 L 975 674 L 997 679 L 1019 688 L 1009 708 L 985 703 L 965 706 L 943 706 L 922 704 L 904 708 L 900 685 L 907 663 L 920 646 L 882 664 L 876 685 L 884 706 L 863 709 L 859 666 L 839 681 L 855 690 L 840 707 L 819 692 L 817 710 L 794 706 L 797 681 L 764 671 L 775 688 L 770 709 L 751 701 L 731 710 L 728 689 L 744 676 L 755 650 L 736 654 L 719 667 L 701 656 L 680 648 L 670 668 L 693 674 L 706 688 L 708 708 L 687 707 L 678 688 L 664 708 L 654 688 L 640 706 L 616 708 L 603 689 L 602 666 L 624 655 L 626 683 L 644 668 L 658 650 L 643 637 L 623 626 L 625 603 L 648 590 L 667 584 L 681 571 L 691 584 L 700 599 L 673 603 L 648 614 L 669 627 L 691 615 L 695 633 L 715 641 L 715 616 L 734 631 L 752 625 L 754 606 L 733 607 L 717 590 L 708 571 L 697 558 L 677 556 L 660 550 L 659 566 L 640 563 L 617 562 L 628 581 L 607 586 L 584 590 L 563 599 L 579 620 L 601 610 L 602 637 L 582 649 L 558 640 L 553 619 L 537 605 L 517 606 L 506 622 L 505 641 L 487 650 L 483 672 L 503 668 L 520 656 L 530 631 L 541 657 L 528 681 L 552 683 L 565 664 L 579 682 L 588 708 L 564 706 L 541 706 L 520 707 L 499 709 L 507 689 L 485 691 L 478 709 L 458 711 L 460 694 L 463 678 L 467 658 L 467 638 L 480 624 L 491 607 L 473 600 L 455 609 L 450 626 L 448 646 L 430 659 L 448 666 L 439 684 L 439 707 L 418 710 L 418 691 L 415 672 L 394 682 L 398 706 L 377 707 L 370 684 L 353 707 L 343 684 L 351 662 L 374 660 L 395 657 L 411 647 L 428 636 L 428 617 L 425 599 L 415 582 L 391 588 L 370 580 L 377 610 L 403 605 L 403 626 L 382 635 L 360 636 L 349 615 L 356 595 L 343 575 L 332 552 L 323 567 L 304 559 L 293 575 L 282 559 L 272 582 L 291 595 L 276 608 L 260 599 L 251 578 L 265 563 L 258 547 L 261 538 L 270 539 L 279 538 L 289 539 L 298 538 L 307 538 L 317 539 L 326 538 L 335 538 L 344 539 L 352 538 L 360 539 L 368 538 L 377 539 L 352 558 L 370 559 L 387 565 L 404 563 L 422 560 L 441 554 L 455 563 L 437 573 L 440 592 L 456 586 L 470 577 L 470 558 L 484 552 L 488 567 L 487 585 L 504 592 L 524 583 L 545 584 L 562 575 L 578 564 L 596 565 L 592 541 L 601 540 L 611 540 L 621 540 L 631 540 L 641 540 L 650 539 L 659 538 L 667 538 L 675 540 L 681 537 L 687 540 L 695 539 L 703 540 L 711 540 L 719 540 L 710 519 L 685 511 L 664 507 L 642 517 L 613 522 L 600 511 L 624 505 L 643 490 L 660 477 L 683 484 L 704 500 L 704 481 L 688 460 L 679 436 L 668 455 L 651 451 L 660 430 L 656 409 L 665 405 L 674 409 L 683 412 L 691 408 L 693 415 L 700 409 L 707 405 L 713 400 L 716 393 L 720 386 L 720 378 L 719 369 L 705 370 L 706 384 L 699 397 L 693 388 L 683 398 L 671 396 L 659 398 L 657 390 L 671 386 L 666 374 L 654 375 L 641 373 L 629 369 L 622 358 L 629 346 L 616 343 L 609 352 L 608 365 L 618 374 L 607 382 L 598 374 L 585 371 L 582 359 L 595 360 L 595 352 L 599 343 L 603 337 L 608 332 L 615 328 L 622 331 L 626 324 L 634 322 L 635 335 L 642 325 L 649 329 L 648 339 L 643 346 L 637 358 L 652 361 L 667 359 L 679 367 L 680 377 L 685 384 L 693 374 L 695 359 L 684 351 L 672 344 L 658 348 L 656 334 L 664 330 L 673 329 L 682 331 L 691 335 L 698 341 L 706 346 L 710 354 L 716 360 L 737 334 L 744 306 L 713 313 L 687 299 L 719 281 L 735 253 L 760 278 L 767 243 L 749 219 L 718 220 L 710 187 L 690 154 L 729 156 L 722 122 L 712 85 L 687 120 L 670 91 L 632 97 L 650 134 L 646 171 L 675 185 L 683 218 L 701 249 L 684 270 L 656 304 L 655 278 L 660 244 L 647 210 L 611 200 L 578 186 L 554 212 L 546 244 L 525 272 L 506 249 L 482 224 L 515 213 L 534 185 L 549 156 L 525 131 L 504 105 L 483 79 L 465 46 L 479 14 L 442 17 L 409 14 L 375 12 L 366 37 L 358 60 L 369 87 L 364 117 L 395 115 L 422 94 L 396 73 L 397 42 L 428 52 L 449 78 L 460 111 L 484 137 L 506 165 L 479 185 L 451 207 L 417 217 L 382 228 L 348 222 L 330 249 L 361 263 L 391 281 L 403 313 L 378 336 L 354 360 L 345 390 L 369 416 L 373 448 L 397 427 L 401 400 L 374 386 L 395 365 L 418 343 L 446 323 L 459 293 L 428 284 L 409 252 L 447 247 L 477 264 L 493 295 L 489 327 L 472 351 L 446 363 L 425 382 L 431 413 L 456 404 L 473 383 L 492 406 L 482 432 L 454 439 L 457 467 L 427 467 L 425 439 L 402 453 L 394 475 L 371 477 L 386 503 L 410 492 L 420 513 L 439 492 L 454 512 L 472 489 L 487 460 L 501 486 L 485 511 L 503 530 L 507 538 L 514 531 L 508 523 L 516 521 L 518 513 L 524 506 L 528 498 L 530 489 L 532 479 L 528 470 L 522 461 L 519 451 L 517 439 L 518 427 L 520 415 L 522 404 L 526 393 L 532 385 L 537 376 L 499 374 L 514 352 L 530 330 L 525 301 L 556 312 L 560 276 L 593 262 L 583 230 L 619 234 L 630 261 L 623 289 L 611 310 L 589 292 L 582 318 L 591 344 L 583 347 L 575 346 L 569 353 L 571 367 L 571 382 L 559 375 L 560 353 L 555 361 L 545 366 L 547 375 L 546 390 L 559 391 L 571 397 L 581 410 L 590 419 L 576 425 L 567 434 L 567 446 L 551 448 L 549 435 L 558 423 L 567 412 L 554 406 L 539 401 L 532 413 L 545 417 L 535 427 L 533 440 L 535 454 L 547 461 L 545 473 L 540 484 L 547 490 L 556 494 L 566 496 L 557 481 L 561 469 L 563 457 L 575 470 L 570 483 L 583 483 L 595 481 L 604 472 L 610 462 L 596 458 L 589 469 L 579 457 L 582 443 L 590 432 L 605 433 L 597 445 L 610 447 L 620 454 L 620 437 L 624 421 L 613 424 L 602 417 L 596 405 L 585 397 L 583 384 L 596 389 L 607 397 L 613 409 L 628 407 L 623 399 L 618 388 L 631 385 L 645 387 L 640 399 L 646 412 L 637 412 L 636 421 L 635 429 L 635 436 L 633 443 L 631 451 L 630 460 L 626 469 L 620 475 L 616 482 L 609 486 L 603 491 L 595 494 L 586 497 L 575 497 L 578 504 L 577 513 L 572 519 L 575 524 L 577 531 L 583 526 L 588 532 L 583 540 L 576 539 L 571 545 L 569 536 L 566 531 L 566 525 L 559 527 L 555 509 L 541 514 L 531 526 L 523 526 L 531 534 L 523 535 L 516 540 L 527 543 L 535 540 L 543 538 L 545 546 L 552 539 L 559 535 L 562 540 L 558 556 L 541 564 L 522 562 L 506 573 L 503 555 L 497 539 L 486 538 L 476 538 L 466 538 L 456 539 L 446 538 L 437 538 L 429 541 L 425 535 L 417 539 L 408 540 L 401 534 L 395 540 L 386 539 L 383 523 L 362 512 L 338 516 L 327 497 L 351 490 L 345 464 L 345 441 L 339 416 L 316 432 L 308 458 L 322 475 L 299 492 L 310 515 L 282 513 L 253 514 L 252 538 L 244 539 L 235 539 L 226 539 L 218 540 L 209 539 L 200 539 L 192 539 L 184 539 L 176 539 L 168 539 L 161 537 L 152 538 L 143 538 L 132 538 L 120 538 L 108 538 L 95 537 L 83 538 L 71 538 L 59 537 L 48 538 L 37 540 L 47 564 L 63 557 L 81 560 L 99 556 L 106 572 L 88 579 L 68 580 L 50 587 L 31 592 L 65 606 L 84 600 L 105 592 L 124 580 L 120 558 L 139 560 L 156 555 L 142 579 L 143 599 L 124 601 L 123 621 L 143 621 L 159 611 L 162 592 L 159 574 L 170 564 L 178 553 L 195 559 L 213 563 L 229 552 L 247 559 L 232 566 L 229 580 L 200 578 L 182 573 L 182 589 L 179 605 L 177 621 L 195 620 L 211 619 L 201 600 L 215 588 L 225 606 L 240 596 L 247 616 L 264 629 L 284 626 L 303 627 L 308 607 L 312 584 L 332 595 L 326 621 L 335 642 L 309 647 L 325 664 L 318 686 L 327 707 L 301 704 L 279 706 L 255 709 L 261 689 L 278 677 L 299 671 L 283 650 L 261 654 L 249 671 L 239 691 L 232 709 L 214 709 L 197 709 L 180 709 L 162 708 L 144 710 L 145 694 L 161 688 L 167 670 L 183 665 L 177 688 L 193 692 L 198 675 L 214 690 L 226 675 L 232 654 L 245 639 L 229 628 L 212 640 L 212 662 L 196 652 L 187 637 L 169 650 L 164 631 L 149 640 L 147 657 L 149 674 L 132 678 L 125 660 L 129 641 L 106 656 L 108 635 L 104 613 L 85 622 L 88 642 L 70 649 L 49 655 L 29 664 L 25 694 L 36 681 L 53 681 L 67 668 L 88 667 L 73 689 L 94 688 L 111 679 L 125 695 L 124 711 L 107 706 L 88 708 L 68 709 L 49 705 L 30 711 L 9 706 L 10 680 L 9 658 L 9 635 L 27 644 L 43 633 L 64 629 L 45 611 L 26 618 L 8 616 L 11 598 L 10 579 L 29 566 L 10 559 L 5 538 L 16 539 L 27 537 L 14 505 L 17 474 L 53 469 L 44 502 L 76 503 L 92 474 L 82 444 L 53 431 L 20 446 L 16 417 L 45 399 L 80 401 L 109 417 L 118 450 L 139 475 L 110 500 L 138 508 L 164 500 L 182 516 L 201 502 L 229 510 L 248 478 L 265 494 L 281 472 L 285 439 L 259 450 L 255 419 L 264 389 L 288 409 L 313 398 L 322 370 L 291 368 L 261 352 L 254 320 L 231 298 L 200 279 L 216 242 L 237 265 L 269 266 L 278 295 L 288 328 L 316 340 L 345 329 L 359 299 L 320 303 L 311 275 L 293 242 L 313 215 L 327 187 L 361 191 L 392 187 L 428 180 L 453 157 L 430 129 L 406 152 L 374 150 L 346 161 L 316 151 L 295 177 L 260 186 L 281 209 L 255 232 L 230 209 L 229 179 L 239 150 L 268 153 L 291 139 L 306 114 L 337 129 L 337 97 L 329 68 L 325 40 L 341 14 L 307 13 L 270 13 L 239 18 L 258 49 L 288 34 L 295 58 L 305 86 L 276 82 L 271 116 L 249 89 L 230 65 L 212 41 L 207 13 L 176 20 L 144 20 L 112 17 L 79 17 L 47 20 L 16 11 L 14 36 L 22 58 L 13 89 L 42 111 L 15 125 L 14 157 L 38 173 L 67 177 L 87 153 L 52 140 L 86 121 L 69 94 L 44 78 L 65 53 L 99 49 L 98 83 L 131 60 L 164 54 L 193 67 L 217 95 L 238 121 L 185 103 L 201 128 L 207 157 L 191 185 L 195 215 L 179 244 L 143 245 L 110 246 L 122 213 L 160 209 L 145 178 L 173 157 L 157 130 L 158 91 L 127 97 L 120 125 L 124 153 L 108 182 L 85 205 L 76 235 L 88 269 L 125 283 L 163 275 L 136 321 L 106 322 L 85 299 L 76 334 L 44 333 L 52 300 L 53 268 L 43 239 L 48 207 L 14 193 L 14 226 L 16 259 L 18 289 L 15 318 L 13 350 L 14 385 L 37 366 L 65 368 L 96 367 L 125 352 L 129 384 L 147 411 L 153 442 L 186 444 L 189 415 L 173 386 L 162 351 L 163 308 L 193 320 L 223 336 L 199 363 L 235 370 L 220 397 L 223 430 L 229 456 L 223 485 L 203 467 L 174 474 " stroke="black" stroke-width="3" fill="none"/> 
 </svg>