<?xml version="1.0" ?>
<!DOCTYPE svg PUBLIC "-//W3C//DTD SVG 1.1//EN" "http://www.w3.org/Graphics/SVG/1.1/DTD/svg11.dtd">
<svg width="1080" height="934" version="1.1" xmlns="http://www.w3.org/2000/svg">
<path d="M956 13 L 946 46 L 920 68 L 895 53 L 923 20 L 894 17 L 864 12 L 865 43 L 855 72 L 830 97 L 823 130 L 792 141 L 788 108 L 806 79 L 823 53 L 839 21 L 813 18 L 786 13 L 784 43 L 757 19 L 728 16 L 695 17 L 663 19 L 631 22 L 599 16 L 584 48 L 548 51 L 560 16 L 522 16 L 501 43 L 519 70 L 545 92 L 566 120 L 586 87 L 616 62 L 650 59 L 684 55 L 716 48 L 746 57 L 776 73 L 750 95 L 757 130 L 729 156 L 710 188 L 690 154 L 650 134 L 687 120 L 722 122 L 712 85 L 670 92 L 632 97 L 608 123 L 583 150 L 614 162 L 646 172 L 674 186 L 684 218 L 664 245 L 646 214 L 612 200 L 578 187 L 554 212 L 550 244 L 529 266 L 505 251 L 482 224 L 516 215 L 534 185 L 549 156 L 525 131 L 504 105 L 483 79 L 449 78 L 422 94 L 396 73 L 369 87 L 358 60 L 366 37 L 397 42 L 428 52 L 465 46 L 479 14 L 442 17 L 409 14 L 375 12 L 341 14 L 325 40 L 329 68 L 337 97 L 337 129 L 363 117 L 395 115 L 430 129 L 460 111 L 484 137 L 506 165 L 479 185 L 453 157 L 428 180 L 451 207 L 417 216 L 409 251 L 382 228 L 348 222 L 361 191 L 392 187 L 406 152 L 374 150 L 346 161 L 327 187 L 316 151 L 295 177 L 268 153 L 239 150 L 238 121 L 217 95 L 249 89 L 271 116 L 291 139 L 306 114 L 305 86 L 276 82 L 295 58 L 288 34 L 307 13 L 270 13 L 239 18 L 258 49 L 230 65 L 212 41 L 207 13 L 176 20 L 144 20 L 112 17 L 79 17 L 47 20 L 16 11 L 14 36 L 22 58 L 13 89 L 44 78 L 42 111 L 15 125 L 14 157 L 14 193 L 14 226 L 16 260 L 18 290 L 14 320 L 16 353 L 16 383 L 51 366 L 44 400 L 55 431 L 15 416 L 20 445 L 16 473 L 14 505 L 5 538 L 16 539 L 27 537 L 37 540 L 48 538 L 59 537 L 71 538 L 83 538 L 95 537 L 108 538 L 120 538 L 132 538 L 143 538 L 152 538 L 161 537 L 168 539 L 176 539 L 184 539 L 192 539 L 200 539 L 209 539 L 218 540 L 226 539 L 235 539 L 229 510 L 253 514 L 282 513 L 310 515 L 338 516 L 327 497 L 322 475 L 345 464 L 345 441 L 338 416 L 316 432 L 308 458 L 299 492 L 281 472 L 266 494 L 248 478 L 223 485 L 201 502 L 182 516 L 174 474 L 164 500 L 138 508 L 110 501 L 76 503 L 44 502 L 53 469 L 82 445 L 93 475 L 138 474 L 119 448 L 106 417 L 78 399 L 89 366 L 122 353 L 125 384 L 146 409 L 153 440 L 186 445 L 203 467 L 229 456 L 223 430 L 255 419 L 259 450 L 285 439 L 288 409 L 313 398 L 322 370 L 291 368 L 264 389 L 261 352 L 235 370 L 220 397 L 189 416 L 173 387 L 198 362 L 160 353 L 136 322 L 105 322 L 85 300 L 74 335 L 43 331 L 52 300 L 53 268 L 42 238 L 76 236 L 110 246 L 88 270 L 125 284 L 143 245 L 122 213 L 160 209 L 145 178 L 124 153 L 108 182 L 85 205 L 48 207 L 67 177 L 38 173 L 52 140 L 87 153 L 86 121 L 69 94 L 98 83 L 65 53 L 99 49 L 131 60 L 164 54 L 193 67 L 185 103 L 158 91 L 127 97 L 120 125 L 157 130 L 173 157 L 201 128 L 207 157 L 191 185 L 195 215 L 179 244 L 200 280 L 163 275 L 162 308 L 192 320 L 223 336 L 254 320 L 231 298 L 237 265 L 216 242 L 230 209 L 229 179 L 260 186 L 255 232 L 281 209 L 313 215 L 293 242 L 269 266 L 278 295 L 288 328 L 316 340 L 345 329 L 320 303 L 311 275 L 330 249 L 361 263 L 359 298 L 391 281 L 402 312 L 377 336 L 353 360 L 345 390 L 374 386 L 369 416 L 373 448 L 401 453 L 396 427 L 401 399 L 395 366 L 415 344 L 441 322 L 459 293 L 428 283 L 447 246 L 475 264 L 496 293 L 527 294 L 523 323 L 506 347 L 482 322 L 471 349 L 443 358 L 427 382 L 428 413 L 424 439 L 451 442 L 427 467 L 437 493 L 455 512 L 420 513 L 410 492 L 394 475 L 371 477 L 351 490 L 362 512 L 386 503 L 383 523 L 368 538 L 360 539 L 352 538 L 344 539 L 335 538 L 326 538 L 317 539 L 307 538 L 298 538 L 288 539 L 279 539 L 270 539 L 261 538 L 252 538 L 244 539 L 258 547 L 247 559 L 265 563 L 282 559 L 293 575 L 304 559 L 323 567 L 332 552 L 352 558 L 370 559 L 377 539 L 386 539 L 395 540 L 401 534 L 408 540 L 417 539 L 425 536 L 429 541 L 437 537 L 446 538 L 456 539 L 466 538 L 476 538 L 486 538 L 497 538 L 507 538 L 516 540 L 522 533 L 526 541 L 522 561 L 541 564 L 558 555 L 552 539 L 545 545 L 543 538 L 535 540 L 531 533 L 529 526 L 520 524 L 543 513 L 566 522 L 565 529 L 559 527 L 559 534 L 562 540 L 570 544 L 570 535 L 578 532 L 576 539 L 584 541 L 592 541 L 601 540 L 611 540 L 587 532 L 583 524 L 574 525 L 571 514 L 575 505 L 570 496 L 561 497 L 553 496 L 546 493 L 540 491 L 536 486 L 530 482 L 523 482 L 524 474 L 517 471 L 517 464 L 510 459 L 498 487 L 522 492 L 520 503 L 515 512 L 510 521 L 513 530 L 504 529 L 487 513 L 474 493 L 456 473 L 481 463 L 479 435 L 455 409 L 464 382 L 494 374 L 484 406 L 514 402 L 519 395 L 521 387 L 525 379 L 530 371 L 535 364 L 541 355 L 549 348 L 560 344 L 566 355 L 551 363 L 559 373 L 545 379 L 534 390 L 530 406 L 542 415 L 539 429 L 536 448 L 526 438 L 526 422 L 513 411 L 510 420 L 510 430 L 510 439 L 511 449 L 519 453 L 532 462 L 540 473 L 548 483 L 561 484 L 574 482 L 579 495 L 588 491 L 597 486 L 604 478 L 611 470 L 616 460 L 620 451 L 608 449 L 596 447 L 598 461 L 591 473 L 580 472 L 568 469 L 556 472 L 547 461 L 551 449 L 562 458 L 568 447 L 581 458 L 582 443 L 592 433 L 577 425 L 567 434 L 551 437 L 557 423 L 568 412 L 555 408 L 545 398 L 557 391 L 568 382 L 570 396 L 584 396 L 594 387 L 582 382 L 587 369 L 573 367 L 582 356 L 582 343 L 594 335 L 607 335 L 610 329 L 617 327 L 619 320 L 608 321 L 598 322 L 586 324 L 576 330 L 569 340 L 555 310 L 561 279 L 587 300 L 610 284 L 588 264 L 583 229 L 615 234 L 630 257 L 652 273 L 637 292 L 623 311 L 626 321 L 633 317 L 642 317 L 651 318 L 659 320 L 658 333 L 668 323 L 677 327 L 684 335 L 692 340 L 693 349 L 698 356 L 686 363 L 699 364 L 698 372 L 697 380 L 696 387 L 700 393 L 701 400 L 692 405 L 681 405 L 689 392 L 688 383 L 677 373 L 667 375 L 670 365 L 673 355 L 681 347 L 671 338 L 663 346 L 651 353 L 647 343 L 646 331 L 636 329 L 626 334 L 619 343 L 634 344 L 638 356 L 625 356 L 631 368 L 646 366 L 660 360 L 658 369 L 651 378 L 660 386 L 673 385 L 682 393 L 680 399 L 673 397 L 665 397 L 657 396 L 649 392 L 643 387 L 638 381 L 627 381 L 616 371 L 612 358 L 607 347 L 595 349 L 599 361 L 600 373 L 605 382 L 615 386 L 625 393 L 640 394 L 642 400 L 634 403 L 627 405 L 618 405 L 611 402 L 604 396 L 595 405 L 581 410 L 591 419 L 608 435 L 606 424 L 607 413 L 623 413 L 624 422 L 623 431 L 622 440 L 642 440 L 650 423 L 670 426 L 665 408 L 684 411 L 688 416 L 692 422 L 693 430 L 700 430 L 698 438 L 703 444 L 706 452 L 710 459 L 714 467 L 717 476 L 726 480 L 732 486 L 723 489 L 731 495 L 735 502 L 753 507 L 745 524 L 770 521 L 779 504 L 762 483 L 741 472 L 725 470 L 723 460 L 720 450 L 716 442 L 714 433 L 711 425 L 708 417 L 704 409 L 709 401 L 731 410 L 744 429 L 752 451 L 776 459 L 783 433 L 814 434 L 829 411 L 859 415 L 853 387 L 873 365 L 884 334 L 870 305 L 849 331 L 834 357 L 816 380 L 795 403 L 767 412 L 753 392 L 750 364 L 727 385 L 722 363 L 727 338 L 735 312 L 758 282 L 735 254 L 720 283 L 699 308 L 668 296 L 686 276 L 701 251 L 718 222 L 749 220 L 766 245 L 790 261 L 798 291 L 774 312 L 763 339 L 779 375 L 797 349 L 812 323 L 833 299 L 823 265 L 857 276 L 883 261 L 876 228 L 851 244 L 825 230 L 795 228 L 778 201 L 744 189 L 767 165 L 800 172 L 816 199 L 850 203 L 832 167 L 866 170 L 856 140 L 861 109 L 889 89 L 920 108 L 893 130 L 900 162 L 887 195 L 905 220 L 935 222 L 956 241 L 981 261 L 1006 250 L 1033 246 L 1061 235 L 1068 204 L 1053 174 L 1027 210 L 1018 175 L 1020 145 L 1052 142 L 1090 144 L 1092 177 L 1130 180 L 1126 150 L 1125 118 L 1097 107 L 1070 118 L 1041 105 L 1014 114 L 988 133 L 971 159 L 992 189 L 987 221 L 957 193 L 924 187 L 934 150 L 954 121 L 950 84 L 979 65 L 982 98 L 1012 80 L 1042 69 L 1066 86 L 1092 76 L 1122 82 L 1152 89 L 1141 50 L 1108 49 L 1074 49 L 1044 39 L 1012 47 L 979 36 L 995 13 L 1026 15 L 1059 14 L 1089 17 L 1120 16 L 1151 15 L 1177 25 L 1203 14 L 1230 22 L 1256 20 L 1249 62 L 1211 54 L 1176 63 L 1213 91 L 1249 103 L 1247 141 L 1249 181 L 1206 174 L 1206 135 L 1182 105 L 1159 131 L 1168 167 L 1149 205 L 1182 215 L 1218 210 L 1252 227 L 1215 252 L 1178 260 L 1248 272 L 1247 310 L 1201 295 L 1185 334 L 1221 338 L 1252 354 L 1207 371 L 1222 403 L 1251 391 L 1250 429 L 1252 461 L 1255 488 L 1252 511 L 1240 534 L 1244 541 L 1251 538 L 1259 539 L 1265 537 L 1261 556 L 1248 561 L 1261 577 L 1246 582 L 1236 597 L 1224 615 L 1212 600 L 1195 595 L 1178 601 L 1172 586 L 1157 588 L 1145 596 L 1143 612 L 1160 605 L 1173 618 L 1193 613 L 1206 625 L 1219 637 L 1241 636 L 1244 615 L 1259 601 L 1260 628 L 1257 654 L 1258 680 L 1231 653 L 1235 671 L 1238 691 L 1256 706 L 1229 709 L 1207 707 L 1187 709 L 1168 707 L 1161 689 L 1170 672 L 1191 669 L 1187 689 L 1213 686 L 1212 664 L 1199 647 L 1186 633 L 1176 652 L 1165 637 L 1153 624 L 1134 630 L 1126 611 L 1110 609 L 1114 629 L 1093 619 L 1082 637 L 1101 644 L 1124 649 L 1145 644 L 1153 658 L 1146 675 L 1126 669 L 1135 691 L 1146 709 L 1120 709 L 1110 687 L 1102 666 L 1080 661 L 1083 685 L 1092 708 L 1064 703 L 1038 707 L 1019 688 L 1009 708 L 985 703 L 965 706 L 943 706 L 922 704 L 904 708 L 884 706 L 863 709 L 840 707 L 817 710 L 819 692 L 821 672 L 839 681 L 855 690 L 876 685 L 882 664 L 891 643 L 879 623 L 875 601 L 869 580 L 887 584 L 907 587 L 897 607 L 908 627 L 920 646 L 907 663 L 900 685 L 927 679 L 940 657 L 953 681 L 975 674 L 997 679 L 1014 662 L 1036 650 L 1039 679 L 1059 672 L 1061 646 L 1051 628 L 1069 617 L 1047 605 L 1030 622 L 1011 610 L 994 595 L 1007 579 L 985 573 L 968 585 L 948 602 L 973 606 L 989 623 L 1011 637 L 987 649 L 962 651 L 962 627 L 937 627 L 923 606 L 928 584 L 946 576 L 961 564 L 944 555 L 927 562 L 909 567 L 897 552 L 889 567 L 871 560 L 881 551 L 887 540 L 893 536 L 899 539 L 907 538 L 913 544 L 917 536 L 925 540 L 933 538 L 942 538 L 952 539 L 962 540 L 972 539 L 981 539 L 990 540 L 976 556 L 1001 559 L 1019 551 L 1023 568 L 1025 593 L 1043 582 L 1039 562 L 1048 550 L 1059 566 L 1076 558 L 1095 558 L 1097 577 L 1079 577 L 1062 589 L 1079 600 L 1096 596 L 1114 590 L 1130 592 L 1142 579 L 1128 572 L 1113 573 L 1115 556 L 1111 539 L 1118 538 L 1125 540 L 1131 536 L 1137 539 L 1145 539 L 1152 540 L 1132 554 L 1146 561 L 1162 555 L 1159 572 L 1176 568 L 1180 554 L 1196 560 L 1214 563 L 1188 579 L 1206 579 L 1223 584 L 1233 570 L 1231 554 L 1233 539 L 1225 538 L 1218 544 L 1214 537 L 1207 540 L 1199 538 L 1191 540 L 1183 539 L 1176 539 L 1168 539 L 1160 539 L 1152 523 L 1164 505 L 1184 517 L 1204 508 L 1225 512 L 1223 486 L 1220 461 L 1211 435 L 1188 411 L 1173 442 L 1188 465 L 1187 489 L 1156 478 L 1139 452 L 1102 458 L 1115 428 L 1151 419 L 1139 389 L 1173 382 L 1150 355 L 1150 320 L 1150 288 L 1144 241 L 1110 211 L 1095 240 L 1121 266 L 1090 278 L 1108 307 L 1111 339 L 1107 368 L 1108 399 L 1078 404 L 1075 435 L 1043 407 L 1041 442 L 1007 434 L 1004 404 L 989 369 L 1001 337 L 1030 317 L 1037 351 L 1023 378 L 1067 372 L 1072 336 L 1064 304 L 1059 269 L 1027 282 L 997 294 L 973 316 L 942 309 L 961 282 L 932 275 L 913 252 L 899 289 L 912 316 L 932 342 L 963 348 L 939 376 L 906 357 L 906 386 L 889 406 L 906 435 L 932 412 L 967 393 L 973 422 L 950 441 L 926 452 L 947 476 L 978 484 L 978 455 L 1011 464 L 1010 490 L 1013 516 L 1036 507 L 1041 476 L 1071 468 L 1066 498 L 1062 519 L 1092 495 L 1122 480 L 1137 504 L 1111 512 L 1103 539 L 1095 539 L 1087 537 L 1079 539 L 1071 539 L 1063 540 L 1055 539 L 1046 538 L 1037 539 L 1027 539 L 1018 539 L 1008 540 L 999 539 L 990 510 L 968 512 L 948 507 L 925 503 L 902 510 L 912 475 L 886 488 L 856 479 L 882 461 L 876 436 L 846 445 L 828 468 L 803 459 L 793 481 L 802 500 L 808 519 L 826 496 L 846 510 L 873 509 L 880 537 L 873 539 L 865 538 L 855 538 L 844 539 L 833 539 L 822 539 L 812 540 L 802 540 L 793 540 L 786 539 L 779 540 L 773 539 L 767 541 L 761 539 L 754 540 L 747 540 L 740 539 L 733 541 L 727 538 L 721 547 L 718 538 L 711 541 L 703 539 L 695 539 L 688 540 L 689 513 L 714 512 L 692 489 L 684 465 L 671 446 L 653 458 L 637 473 L 618 487 L 609 510 L 635 517 L 639 496 L 664 482 L 664 509 L 681 538 L 674 540 L 667 538 L 660 547 L 659 537 L 650 540 L 641 540 L 631 541 L 621 539 L 617 561 L 596 565 L 578 564 L 562 575 L 545 584 L 524 583 L 506 573 L 503 555 L 484 551 L 470 558 L 488 567 L 487 585 L 504 592 L 517 606 L 506 622 L 491 607 L 480 624 L 467 638 L 467 658 L 463 678 L 448 666 L 430 659 L 415 672 L 418 691 L 394 682 L 370 684 L 374 660 L 395 657 L 411 647 L 428 636 L 448 646 L 450 626 L 455 609 L 473 600 L 470 577 L 456 586 L 440 592 L 438 573 L 455 563 L 441 554 L 422 560 L 404 563 L 387 565 L 370 580 L 391 588 L 415 582 L 425 599 L 428 617 L 403 626 L 403 605 L 377 610 L 349 615 L 356 595 L 343 575 L 332 595 L 312 584 L 308 607 L 291 595 L 276 608 L 264 629 L 247 616 L 260 599 L 272 582 L 251 578 L 240 596 L 225 606 L 211 619 L 201 600 L 195 620 L 187 637 L 169 650 L 149 674 L 147 657 L 149 640 L 164 631 L 177 621 L 179 605 L 182 589 L 162 592 L 159 611 L 143 621 L 123 621 L 104 613 L 124 601 L 143 599 L 142 579 L 159 574 L 182 573 L 200 578 L 215 588 L 229 580 L 232 566 L 229 552 L 213 563 L 195 559 L 178 553 L 170 564 L 156 555 L 139 560 L 120 558 L 124 580 L 105 592 L 84 600 L 65 606 L 45 611 L 31 592 L 50 587 L 68 580 L 88 579 L 106 572 L 99 556 L 81 560 L 63 557 L 47 564 L 29 566 L 10 559 L 10 579 L 11 598 L 8 616 L 26 617 L 43 633 L 64 629 L 85 622 L 88 642 L 70 649 L 49 655 L 67 668 L 88 667 L 106 656 L 108 635 L 129 641 L 125 660 L 111 679 L 94 688 L 73 689 L 53 681 L 36 681 L 29 664 L 27 644 L 9 635 L 9 658 L 10 680 L 25 694 L 9 706 L 30 711 L 49 705 L 68 709 L 88 708 L 107 706 L 124 711 L 125 695 L 132 678 L 145 694 L 144 711 L 162 708 L 180 709 L 197 709 L 193 692 L 177 688 L 161 688 L 167 670 L 183 665 L 196 652 L 212 640 L 229 628 L 245 639 L 232 654 L 212 662 L 198 675 L 226 675 L 214 690 L 214 709 L 232 709 L 239 691 L 255 709 L 279 706 L 301 704 L 327 707 L 318 686 L 299 671 L 278 677 L 261 689 L 249 671 L 261 654 L 283 650 L 284 626 L 303 627 L 309 647 L 325 664 L 335 642 L 326 621 L 360 636 L 382 635 L 351 662 L 343 684 L 353 707 L 377 707 L 398 706 L 418 710 L 439 707 L 439 684 L 460 694 L 458 711 L 478 709 L 485 691 L 499 709 L 520 707 L 541 706 L 564 706 L 588 708 L 616 708 L 640 706 L 664 708 L 687 707 L 706 688 L 708 708 L 731 710 L 728 689 L 751 701 L 770 709 L 794 706 L 775 688 L 744 676 L 764 671 L 784 660 L 797 681 L 807 661 L 812 646 L 816 630 L 813 615 L 806 599 L 817 586 L 834 586 L 831 602 L 834 619 L 838 639 L 837 658 L 859 666 L 864 644 L 855 624 L 854 604 L 851 587 L 842 570 L 857 567 L 854 552 L 837 555 L 821 554 L 805 554 L 827 570 L 812 569 L 797 567 L 799 582 L 787 594 L 772 600 L 770 581 L 783 573 L 788 555 L 773 557 L 761 568 L 756 554 L 739 554 L 744 569 L 726 566 L 709 568 L 696 558 L 677 555 L 680 571 L 692 583 L 673 603 L 669 627 L 649 614 L 648 590 L 667 584 L 659 566 L 640 563 L 628 581 L 625 603 L 623 626 L 643 637 L 658 650 L 680 648 L 695 633 L 691 615 L 701 599 L 717 588 L 736 585 L 754 587 L 753 605 L 733 606 L 715 616 L 715 641 L 734 631 L 752 625 L 773 620 L 792 614 L 793 636 L 772 640 L 755 649 L 736 654 L 719 667 L 701 656 L 693 674 L 678 688 L 670 668 L 654 688 L 644 668 L 626 683 L 603 689 L 602 666 L 624 655 L 602 637 L 582 649 L 579 620 L 601 610 L 607 586 L 583 590 L 563 599 L 537 605 L 530 631 L 553 619 L 558 640 L 541 657 L 520 656 L 505 641 L 487 650 L 483 672 L 503 668 L 507 689 L 528 681 L 552 683 L 565 664 L 579 682 " stroke="black" stroke-width="3" fill="none"/> 
 </svg>