<?xml version="1.0" ?>
<!DOCTYPE svg PUBLIC "-//W3C//DTD SVG 1.1//EN" "http://www.w3.org/Graphics/SVG/1.1/DTD/svg11.dtd">
<svg width="1080" height="934" version="1.1" xmlns="http://www.w3.org/2000/svg">
<path d="M864 12 L 894 17 L 923 20 L 956 13 L 946 46 L 950 84 L 954 121 L 934 150 L 920 108 L 893 130 L 900 162 L 924 187 L 957 193 L 935 222 L 956 241 L 987 221 L 1027 210 L 1018 175 L 1020 145 L 992 189 L 971 159 L 988 133 L 1014 114 L 1041 105 L 1012 80 L 1012 47 L 982 98 L 979 65 L 979 36 L 995 13 L 1026 15 L 1059 14 L 1089 17 L 1120 16 L 1151 15 L 1177 25 L 1203 14 L 1230 22 L 1256 20 L 1249 62 L 1211 54 L 1176 63 L 1141 50 L 1108 49 L 1074 49 L 1044 39 L 1042 69 L 1066 86 L 1092 76 L 1122 82 L 1152 89 L 1182 105 L 1213 91 L 1249 103 L 1206 135 L 1247 141 L 1249 181 L 1206 174 L 1168 167 L 1159 131 L 1125 118 L 1097 107 L 1070 118 L 1052 142 L 1053 174 L 1068 205 L 1062 235 L 1097 242 L 1109 211 L 1092 177 L 1090 144 L 1126 150 L 1130 180 L 1149 206 L 1182 215 L 1218 210 L 1252 227 L 1249 272 L 1245 312 L 1215 251 L 1177 259 L 1203 294 L 1186 329 L 1194 368 L 1222 347 L 1253 352 L 1252 391 L 1221 396 L 1190 413 L 1171 392 L 1154 366 L 1146 331 L 1155 294 L 1143 241 L 1124 270 L 1112 309 L 1096 340 L 1117 362 L 1118 393 L 1146 413 L 1112 427 L 1102 458 L 1122 480 L 1156 477 L 1139 450 L 1170 439 L 1186 462 L 1188 488 L 1204 508 L 1184 517 L 1164 504 L 1152 523 L 1137 504 L 1111 512 L 1092 495 L 1066 498 L 1062 519 L 1036 506 L 1013 516 L 1010 490 L 1011 464 L 1006 435 L 1045 405 L 1040 441 L 1041 476 L 1071 468 L 1074 435 L 1084 403 L 1071 372 L 1064 336 L 1066 304 L 1091 279 L 1060 269 L 1033 246 L 1006 250 L 981 261 L 961 282 L 942 309 L 974 316 L 997 294 L 1028 283 L 1030 317 L 1001 338 L 1037 354 L 1021 378 L 1005 405 L 973 422 L 950 441 L 932 412 L 939 377 L 967 393 L 988 369 L 963 348 L 932 342 L 912 316 L 899 289 L 932 275 L 913 252 L 883 260 L 857 276 L 834 298 L 813 323 L 800 350 L 777 373 L 768 404 L 798 401 L 817 380 L 830 411 L 854 387 L 836 357 L 849 331 L 870 305 L 884 333 L 873 365 L 906 357 L 906 386 L 889 407 L 859 416 L 876 437 L 846 445 L 855 480 L 881 462 L 906 436 L 926 452 L 947 476 L 978 456 L 978 484 L 990 510 L 968 512 L 947 506 L 924 503 L 911 475 L 886 488 L 900 510 L 870 509 L 843 510 L 844 539 L 833 539 L 837 555 L 821 554 L 822 539 L 811 540 L 801 539 L 793 539 L 785 539 L 778 541 L 774 535 L 769 542 L 765 535 L 761 541 L 754 539 L 747 540 L 740 538 L 733 541 L 727 538 L 720 541 L 712 540 L 704 540 L 695 539 L 687 541 L 681 534 L 676 540 L 667 539 L 659 538 L 650 539 L 641 540 L 639 517 L 622 502 L 595 506 L 600 491 L 616 480 L 635 477 L 653 459 L 671 479 L 649 493 L 666 511 L 689 504 L 710 517 L 716 493 L 699 478 L 691 456 L 671 448 L 676 428 L 690 415 L 695 421 L 700 427 L 706 434 L 713 441 L 723 435 L 728 443 L 720 450 L 727 458 L 732 452 L 738 462 L 729 470 L 741 471 L 743 491 L 734 512 L 757 515 L 768 493 L 766 469 L 794 485 L 784 512 L 809 514 L 822 494 L 829 468 L 814 435 L 805 460 L 782 453 L 785 427 L 757 437 L 741 414 L 745 386 L 723 373 L 705 361 L 718 338 L 745 354 L 769 340 L 777 312 L 760 282 L 799 290 L 791 260 L 824 265 L 825 230 L 851 244 L 876 228 L 905 220 L 887 195 L 851 203 L 816 199 L 800 172 L 832 167 L 866 170 L 856 140 L 861 109 L 889 89 L 920 68 L 895 53 L 865 43 L 855 72 L 830 97 L 823 130 L 792 141 L 788 108 L 806 79 L 823 53 L 839 21 L 813 18 L 786 13 L 784 43 L 757 19 L 728 16 L 695 17 L 663 19 L 631 22 L 599 16 L 584 48 L 548 51 L 560 16 L 522 16 L 501 43 L 518 70 L 545 92 L 525 130 L 504 105 L 483 79 L 449 78 L 428 52 L 465 46 L 479 14 L 442 17 L 409 14 L 397 42 L 375 12 L 341 14 L 307 13 L 325 40 L 366 37 L 358 60 L 369 87 L 396 73 L 422 94 L 395 116 L 430 130 L 460 111 L 483 137 L 506 165 L 479 184 L 452 158 L 405 154 L 423 181 L 414 215 L 450 205 L 481 223 L 513 211 L 533 183 L 549 155 L 578 185 L 613 198 L 648 212 L 685 218 L 675 186 L 710 187 L 744 189 L 729 156 L 722 122 L 712 85 L 670 91 L 687 120 L 690 154 L 650 134 L 646 171 L 615 161 L 583 149 L 566 119 L 586 87 L 608 122 L 632 97 L 616 62 L 650 59 L 684 55 L 716 48 L 746 57 L 776 73 L 750 95 L 757 130 L 767 165 L 778 201 L 795 228 L 766 244 L 749 220 L 718 221 L 736 254 L 724 284 L 741 316 L 705 310 L 676 300 L 657 278 L 689 278 L 702 251 L 665 245 L 636 259 L 611 276 L 581 284 L 591 254 L 619 234 L 583 224 L 553 208 L 543 236 L 561 260 L 548 289 L 533 315 L 508 324 L 496 348 L 526 358 L 535 350 L 547 345 L 550 355 L 556 368 L 541 371 L 518 368 L 510 378 L 504 390 L 499 401 L 497 412 L 494 423 L 495 433 L 496 442 L 499 451 L 501 460 L 510 463 L 503 470 L 512 475 L 525 461 L 532 472 L 547 476 L 544 462 L 536 449 L 516 449 L 526 438 L 524 422 L 511 435 L 509 421 L 514 407 L 516 391 L 529 381 L 527 397 L 541 394 L 552 386 L 567 395 L 580 396 L 579 409 L 566 411 L 553 404 L 543 415 L 531 409 L 538 429 L 549 437 L 552 449 L 556 423 L 566 434 L 569 445 L 576 456 L 589 463 L 596 452 L 585 447 L 583 435 L 574 423 L 587 420 L 597 428 L 598 439 L 610 445 L 613 438 L 612 431 L 616 424 L 610 422 L 600 415 L 592 407 L 594 394 L 601 390 L 602 398 L 612 406 L 613 414 L 628 415 L 641 406 L 639 382 L 647 384 L 655 383 L 663 384 L 667 378 L 673 375 L 677 369 L 667 365 L 656 370 L 651 359 L 643 370 L 632 363 L 622 353 L 610 352 L 624 337 L 634 346 L 642 354 L 646 345 L 657 346 L 661 355 L 672 352 L 669 341 L 661 332 L 650 328 L 638 333 L 640 319 L 627 322 L 613 324 L 612 338 L 599 336 L 589 328 L 581 319 L 576 335 L 584 346 L 596 349 L 598 361 L 608 368 L 619 368 L 623 375 L 631 378 L 630 386 L 624 391 L 617 395 L 610 397 L 611 382 L 596 376 L 585 364 L 589 388 L 580 380 L 566 380 L 571 368 L 571 355 L 564 344 L 551 337 L 556 330 L 560 322 L 568 324 L 563 313 L 572 316 L 578 311 L 587 312 L 593 318 L 599 322 L 604 313 L 610 307 L 619 309 L 624 301 L 632 307 L 641 305 L 650 309 L 658 314 L 666 320 L 674 326 L 678 333 L 685 338 L 683 346 L 683 353 L 684 360 L 679 362 L 684 368 L 687 375 L 692 380 L 695 386 L 700 392 L 702 400 L 712 398 L 709 408 L 715 418 L 718 427 L 709 415 L 700 408 L 689 397 L 682 386 L 685 409 L 679 403 L 674 397 L 671 388 L 666 392 L 660 409 L 655 428 L 638 434 L 630 455 L 608 453 L 605 461 L 600 468 L 595 476 L 588 482 L 581 487 L 572 477 L 577 468 L 563 457 L 560 467 L 560 479 L 553 489 L 554 495 L 563 492 L 572 490 L 570 498 L 571 507 L 568 515 L 566 522 L 566 529 L 569 535 L 574 525 L 583 525 L 588 532 L 578 532 L 576 539 L 583 541 L 592 541 L 601 540 L 608 521 L 611 540 L 621 539 L 631 541 L 640 563 L 659 566 L 660 549 L 677 556 L 680 571 L 696 558 L 710 567 L 726 564 L 740 552 L 744 568 L 760 567 L 755 554 L 773 558 L 788 555 L 805 554 L 812 569 L 827 570 L 842 570 L 857 567 L 854 552 L 855 538 L 865 538 L 873 539 L 880 536 L 886 540 L 893 537 L 899 539 L 907 538 L 913 544 L 917 536 L 925 540 L 933 538 L 942 538 L 952 539 L 962 540 L 972 539 L 981 539 L 990 540 L 999 539 L 1008 540 L 1018 539 L 1027 539 L 1037 539 L 1046 538 L 1055 539 L 1063 540 L 1071 539 L 1079 539 L 1087 537 L 1095 539 L 1103 538 L 1111 539 L 1118 538 L 1125 540 L 1131 536 L 1137 539 L 1145 539 L 1152 540 L 1160 539 L 1168 539 L 1176 539 L 1183 539 L 1191 540 L 1199 538 L 1207 539 L 1215 538 L 1225 513 L 1224 486 L 1219 461 L 1213 434 L 1250 428 L 1252 460 L 1255 488 L 1252 512 L 1224 538 L 1232 540 L 1238 536 L 1244 540 L 1251 537 L 1258 539 L 1265 537 L 1261 557 L 1246 559 L 1232 565 L 1221 552 L 1213 565 L 1196 560 L 1180 554 L 1162 555 L 1159 572 L 1176 568 L 1188 579 L 1205 580 L 1224 583 L 1236 597 L 1245 581 L 1261 577 L 1259 601 L 1244 615 L 1260 628 L 1241 636 L 1257 654 L 1258 680 L 1256 706 L 1229 709 L 1207 707 L 1187 709 L 1168 707 L 1187 689 L 1213 686 L 1238 691 L 1235 671 L 1231 653 L 1212 664 L 1191 669 L 1170 672 L 1161 689 L 1146 709 L 1135 691 L 1146 675 L 1153 658 L 1145 644 L 1134 630 L 1124 649 L 1126 669 L 1110 687 L 1120 709 L 1092 708 L 1083 685 L 1064 703 L 1038 707 L 1039 679 L 1058 672 L 1080 661 L 1102 666 L 1101 644 L 1114 629 L 1110 609 L 1126 611 L 1143 612 L 1153 624 L 1165 637 L 1176 652 L 1186 633 L 1199 647 L 1219 637 L 1206 625 L 1224 615 L 1212 600 L 1195 595 L 1193 613 L 1173 618 L 1178 601 L 1172 586 L 1157 588 L 1160 605 L 1145 596 L 1130 592 L 1114 590 L 1096 596 L 1079 600 L 1069 617 L 1093 619 L 1082 637 L 1061 646 L 1036 650 L 1011 637 L 987 649 L 962 651 L 940 657 L 937 627 L 962 627 L 973 606 L 989 623 L 1011 610 L 1030 622 L 1051 628 L 1047 605 L 1062 589 L 1079 577 L 1097 577 L 1113 573 L 1128 572 L 1142 579 L 1146 561 L 1132 554 L 1115 556 L 1095 558 L 1076 558 L 1059 566 L 1048 550 L 1039 562 L 1043 582 L 1025 593 L 994 595 L 1007 579 L 1023 568 L 1019 551 L 1000 559 L 985 573 L 976 556 L 961 564 L 944 555 L 927 562 L 909 567 L 897 552 L 881 551 L 871 560 L 889 566 L 887 584 L 869 580 L 852 587 L 854 604 L 855 624 L 864 644 L 859 666 L 882 664 L 891 643 L 879 623 L 875 601 L 897 607 L 907 587 L 928 584 L 946 576 L 968 585 L 948 602 L 923 606 L 908 627 L 920 646 L 907 663 L 927 679 L 953 681 L 975 674 L 997 679 L 1014 662 L 1019 688 L 1009 708 L 985 703 L 965 706 L 943 706 L 922 704 L 904 708 L 884 706 L 863 709 L 840 707 L 819 692 L 817 710 L 794 706 L 797 681 L 784 660 L 793 636 L 772 640 L 755 649 L 736 654 L 719 667 L 706 688 L 728 689 L 744 676 L 764 671 L 775 688 L 770 709 L 751 701 L 731 710 L 708 708 L 687 707 L 664 709 L 640 706 L 616 708 L 588 708 L 564 706 L 541 705 L 520 707 L 499 709 L 485 691 L 478 709 L 457 711 L 460 694 L 463 678 L 448 666 L 439 684 L 436 708 L 420 692 L 411 709 L 387 707 L 360 708 L 372 685 L 396 685 L 415 672 L 430 659 L 448 646 L 467 658 L 467 638 L 480 624 L 487 650 L 483 672 L 503 668 L 507 689 L 529 680 L 553 681 L 579 684 L 572 661 L 562 640 L 544 657 L 522 656 L 531 632 L 552 620 L 537 605 L 518 606 L 506 622 L 505 641 L 491 607 L 473 600 L 455 609 L 450 626 L 428 636 L 428 617 L 425 599 L 415 582 L 391 588 L 370 580 L 356 595 L 349 616 L 332 595 L 313 584 L 304 559 L 293 575 L 291 595 L 308 607 L 326 621 L 335 642 L 360 637 L 382 636 L 377 610 L 404 605 L 403 626 L 410 647 L 394 659 L 373 661 L 350 663 L 346 687 L 331 708 L 303 704 L 280 706 L 255 709 L 239 691 L 232 709 L 214 709 L 214 690 L 226 675 L 212 662 L 232 654 L 249 671 L 261 654 L 283 650 L 262 689 L 278 677 L 299 673 L 320 686 L 324 664 L 309 647 L 303 627 L 284 626 L 276 608 L 264 629 L 247 616 L 245 639 L 229 628 L 212 640 L 196 652 L 198 675 L 183 665 L 167 670 L 161 688 L 177 688 L 193 692 L 197 709 L 180 709 L 162 708 L 144 710 L 145 694 L 125 695 L 124 711 L 107 706 L 88 708 L 68 709 L 49 705 L 30 711 L 9 706 L 25 694 L 10 680 L 9 658 L 36 681 L 53 681 L 73 689 L 94 688 L 111 679 L 88 667 L 67 668 L 70 649 L 88 642 L 85 622 L 64 629 L 43 633 L 49 655 L 29 664 L 27 644 L 9 635 L 8 616 L 26 618 L 45 611 L 65 606 L 84 600 L 88 579 L 68 580 L 50 587 L 31 592 L 11 598 L 10 579 L 10 559 L 29 566 L 47 564 L 63 557 L 81 560 L 99 556 L 106 572 L 105 592 L 104 613 L 108 635 L 106 656 L 125 660 L 132 678 L 149 674 L 147 657 L 149 640 L 129 641 L 143 621 L 123 621 L 124 601 L 143 599 L 159 611 L 164 631 L 169 650 L 187 637 L 195 620 L 177 621 L 179 605 L 162 592 L 159 574 L 142 579 L 124 580 L 120 558 L 139 560 L 156 555 L 178 553 L 170 564 L 182 573 L 182 589 L 201 600 L 211 619 L 225 606 L 240 596 L 260 599 L 272 582 L 251 578 L 229 580 L 215 588 L 200 578 L 195 559 L 213 563 L 229 552 L 232 566 L 247 559 L 265 563 L 283 558 L 292 539 L 302 538 L 313 539 L 323 538 L 331 545 L 324 565 L 343 575 L 350 558 L 370 559 L 387 565 L 404 563 L 422 560 L 438 573 L 440 592 L 456 586 L 470 577 L 487 585 L 504 592 L 506 573 L 503 555 L 488 566 L 484 551 L 470 558 L 455 563 L 441 554 L 437 537 L 429 541 L 425 535 L 417 539 L 408 540 L 401 535 L 395 540 L 386 539 L 377 539 L 368 538 L 360 539 L 352 538 L 344 539 L 336 537 L 337 516 L 309 515 L 299 491 L 281 471 L 265 494 L 254 514 L 282 512 L 281 538 L 271 539 L 262 538 L 258 546 L 252 538 L 244 539 L 235 539 L 226 539 L 218 540 L 209 539 L 200 539 L 192 539 L 184 539 L 176 539 L 168 539 L 161 537 L 152 538 L 143 538 L 132 538 L 120 538 L 108 538 L 95 537 L 83 538 L 71 538 L 59 537 L 48 538 L 37 540 L 27 537 L 16 539 L 5 538 L 14 505 L 44 502 L 76 503 L 53 469 L 16 473 L 20 445 L 15 416 L 16 383 L 16 352 L 51 365 L 44 399 L 54 431 L 82 444 L 93 474 L 110 501 L 138 508 L 138 474 L 119 448 L 107 416 L 78 400 L 89 369 L 77 336 L 98 310 L 88 275 L 108 247 L 76 237 L 85 206 L 48 207 L 42 239 L 53 268 L 60 301 L 43 329 L 13 320 L 21 291 L 15 261 L 14 226 L 14 193 L 67 177 L 38 173 L 14 157 L 15 125 L 42 111 L 69 94 L 86 121 L 52 140 L 87 153 L 107 182 L 122 214 L 143 245 L 179 244 L 195 215 L 230 208 L 255 231 L 282 209 L 262 187 L 230 179 L 208 156 L 201 128 L 185 103 L 156 130 L 173 157 L 191 185 L 160 209 L 145 178 L 124 153 L 120 125 L 128 97 L 158 91 L 131 60 L 98 83 L 99 49 L 65 53 L 44 78 L 13 89 L 22 58 L 14 36 L 16 11 L 47 20 L 79 17 L 112 17 L 144 20 L 176 20 L 164 54 L 193 67 L 217 95 L 237 121 L 241 149 L 270 156 L 291 139 L 270 117 L 305 113 L 305 86 L 276 83 L 250 89 L 230 65 L 212 41 L 207 13 L 239 18 L 258 49 L 270 13 L 288 34 L 295 58 L 329 68 L 336 97 L 364 117 L 337 129 L 316 150 L 301 178 L 316 212 L 339 188 L 346 162 L 373 149 L 382 188 L 355 216 L 381 233 L 357 265 L 333 243 L 314 273 L 320 304 L 344 329 L 316 343 L 289 328 L 279 295 L 295 242 L 271 265 L 238 265 L 216 242 L 200 279 L 231 298 L 254 320 L 223 336 L 197 362 L 173 386 L 158 352 L 192 320 L 160 311 L 165 277 L 127 282 L 131 320 L 117 349 L 126 382 L 145 409 L 154 440 L 187 445 L 203 468 L 174 474 L 164 500 L 182 516 L 201 502 L 229 510 L 223 485 L 248 478 L 229 455 L 259 450 L 286 437 L 292 405 L 263 388 L 256 418 L 223 429 L 189 415 L 220 397 L 234 370 L 261 352 L 290 367 L 318 376 L 350 361 L 376 337 L 399 311 L 359 300 L 390 278 L 437 319 L 456 290 L 426 282 L 412 251 L 447 245 L 475 263 L 504 249 L 529 264 L 515 289 L 489 294 L 473 321 L 465 349 L 439 354 L 412 342 L 393 366 L 373 384 L 399 399 L 393 426 L 399 453 L 424 467 L 446 446 L 420 437 L 426 410 L 422 380 L 452 383 L 480 374 L 473 403 L 450 414 L 469 435 L 475 464 L 454 477 L 435 494 L 409 493 L 393 476 L 369 475 L 370 447 L 343 458 L 345 429 L 368 414 L 345 394 L 321 408 L 317 435 L 306 459 L 324 475 L 326 498 L 350 488 L 361 511 L 383 522 L 385 502 L 419 514 L 456 510 L 446 538 L 456 539 L 466 538 L 476 538 L 486 538 L 497 538 L 507 538 L 512 530 L 521 530 L 527 524 L 518 522 L 509 520 L 503 529 L 486 515 L 481 493 L 512 510 L 516 500 L 516 490 L 519 481 L 527 486 L 536 486 L 535 492 L 544 492 L 542 513 L 529 532 L 524 538 L 516 539 L 529 547 L 534 539 L 542 538 L 545 546 L 552 539 L 559 527 L 559 535 L 562 540 L 570 545 L 558 555 L 541 564 L 522 562 L 524 583 L 545 585 L 562 574 L 578 564 L 596 566 L 617 562 L 628 582 L 647 591 L 667 584 L 673 603 L 668 627 L 649 614 L 625 607 L 607 587 L 584 590 L 563 598 L 578 619 L 600 612 L 592 641 L 616 631 L 639 635 L 623 656 L 600 666 L 603 689 L 626 683 L 644 669 L 655 649 L 679 648 L 670 668 L 655 688 L 678 688 L 693 673 L 700 656 L 715 641 L 695 633 L 691 615 L 701 599 L 692 583 L 717 587 L 735 585 L 733 606 L 715 616 L 734 631 L 752 625 L 773 620 L 753 605 L 754 586 L 770 581 L 783 573 L 797 567 L 799 582 L 787 594 L 772 600 L 792 614 L 813 615 L 806 599 L 817 586 L 834 586 L 831 602 L 834 619 L 838 639 L 837 658 L 816 630 L 812 646 L 807 661 L 821 672 L 839 681 L 855 690 L 876 685 L 900 685 " stroke="black" stroke-width="3" fill="none"/> 
 </svg>