<?xml version="1.0" ?>
<!DOCTYPE svg PUBLIC "-//W3C//DTD SVG 1.1//EN" "http://www.w3.org/Graphics/SVG/1.1/DTD/svg11.dtd">
<svg width="1080" height="934" version="1.1" xmlns="http://www.w3.org/2000/svg">
<path d="M864 12 L 894 17 L 923 20 L 956 13 L 946 46 L 920 68 L 895 53 L 889 89 L 861 109 L 856 140 L 823 130 L 830 97 L 806 79 L 823 53 L 855 72 L 865 43 L 839 21 L 813 18 L 786 13 L 784 43 L 757 19 L 728 16 L 695 17 L 663 19 L 631 22 L 599 16 L 584 48 L 548 51 L 560 16 L 522 16 L 501 43 L 479 14 L 442 17 L 409 14 L 375 12 L 341 14 L 366 37 L 358 60 L 369 87 L 364 117 L 337 129 L 336 97 L 329 68 L 325 40 L 307 13 L 270 13 L 239 18 L 258 49 L 288 34 L 295 58 L 305 86 L 305 113 L 291 139 L 316 150 L 301 178 L 316 212 L 333 243 L 357 265 L 381 233 L 355 216 L 339 188 L 346 162 L 373 149 L 405 154 L 423 181 L 382 188 L 414 215 L 449 205 L 478 184 L 506 165 L 533 183 L 513 210 L 480 222 L 503 245 L 528 260 L 543 289 L 576 281 L 559 259 L 543 234 L 553 206 L 582 222 L 578 184 L 614 197 L 647 213 L 666 245 L 685 218 L 675 186 L 646 171 L 615 160 L 650 133 L 690 154 L 687 120 L 670 91 L 632 97 L 608 122 L 583 149 L 549 155 L 525 130 L 483 137 L 451 158 L 430 130 L 395 116 L 422 94 L 396 73 L 397 42 L 428 52 L 449 78 L 465 46 L 483 79 L 460 111 L 504 105 L 518 70 L 545 91 L 566 119 L 586 87 L 616 62 L 650 58 L 684 55 L 716 48 L 746 57 L 776 73 L 750 95 L 712 85 L 722 122 L 729 156 L 710 188 L 744 189 L 767 165 L 757 130 L 788 108 L 792 141 L 800 172 L 778 201 L 795 228 L 816 199 L 850 203 L 832 167 L 866 170 L 887 195 L 905 221 L 935 222 L 955 241 L 981 261 L 1006 250 L 987 221 L 957 193 L 924 187 L 934 150 L 900 162 L 893 130 L 920 108 L 950 84 L 954 121 L 988 133 L 971 159 L 992 189 L 1027 210 L 1018 175 L 1020 145 L 1014 114 L 1041 105 L 1012 80 L 1012 47 L 982 98 L 979 65 L 979 36 L 995 13 L 1026 15 L 1059 14 L 1089 17 L 1120 16 L 1151 15 L 1177 25 L 1203 14 L 1230 22 L 1256 20 L 1249 62 L 1211 54 L 1176 63 L 1141 50 L 1108 49 L 1074 49 L 1044 39 L 1042 69 L 1066 86 L 1092 76 L 1122 82 L 1152 89 L 1182 105 L 1206 135 L 1213 91 L 1249 103 L 1247 141 L 1249 181 L 1206 174 L 1168 167 L 1159 131 L 1125 118 L 1097 107 L 1070 118 L 1052 142 L 1053 174 L 1068 205 L 1062 235 L 1033 246 L 1060 269 L 1066 304 L 1064 336 L 1096 340 L 1117 362 L 1118 393 L 1146 413 L 1171 392 L 1194 368 L 1154 366 L 1146 331 L 1112 309 L 1091 279 L 1097 242 L 1109 211 L 1092 177 L 1090 144 L 1126 150 L 1130 180 L 1149 206 L 1182 215 L 1218 210 L 1252 227 L 1249 272 L 1245 312 L 1203 294 L 1215 251 L 1177 259 L 1143 241 L 1124 270 L 1155 294 L 1186 329 L 1222 347 L 1253 352 L 1252 391 L 1221 396 L 1190 413 L 1213 434 L 1250 428 L 1252 460 L 1255 488 L 1252 512 L 1225 513 L 1215 538 L 1207 539 L 1199 538 L 1191 540 L 1183 539 L 1176 539 L 1168 539 L 1160 539 L 1152 540 L 1145 539 L 1137 539 L 1131 536 L 1125 540 L 1118 538 L 1111 539 L 1103 539 L 1095 539 L 1087 537 L 1095 558 L 1115 556 L 1132 554 L 1146 561 L 1142 579 L 1128 572 L 1113 573 L 1130 592 L 1114 590 L 1097 577 L 1096 596 L 1079 600 L 1093 619 L 1082 637 L 1061 646 L 1036 650 L 1014 662 L 987 649 L 962 651 L 962 627 L 937 627 L 948 602 L 923 606 L 928 584 L 946 577 L 968 585 L 973 606 L 989 623 L 1011 637 L 1030 622 L 1051 628 L 1069 617 L 1047 605 L 1011 610 L 994 595 L 1007 579 L 1025 593 L 1043 582 L 1062 589 L 1079 577 L 1076 558 L 1059 566 L 1048 550 L 1039 562 L 1023 568 L 1019 551 L 1001 559 L 985 573 L 976 556 L 961 564 L 944 555 L 927 562 L 909 567 L 907 587 L 897 607 L 908 627 L 891 642 L 882 663 L 900 685 L 907 663 L 920 646 L 940 657 L 927 679 L 953 681 L 975 674 L 997 679 L 1039 679 L 1058 672 L 1080 661 L 1102 666 L 1101 644 L 1114 629 L 1110 609 L 1126 611 L 1143 612 L 1153 624 L 1165 637 L 1176 652 L 1170 672 L 1191 669 L 1187 689 L 1213 686 L 1212 664 L 1199 647 L 1186 633 L 1173 618 L 1160 605 L 1145 596 L 1157 588 L 1172 586 L 1178 601 L 1188 579 L 1176 568 L 1159 572 L 1162 555 L 1180 554 L 1196 560 L 1213 565 L 1221 552 L 1224 538 L 1232 540 L 1238 536 L 1244 540 L 1251 537 L 1258 539 L 1265 537 L 1261 557 L 1246 559 L 1232 566 L 1224 583 L 1236 597 L 1245 581 L 1261 577 L 1259 601 L 1244 615 L 1224 615 L 1212 600 L 1205 580 L 1195 595 L 1193 613 L 1206 625 L 1219 637 L 1241 636 L 1260 628 L 1257 654 L 1231 653 L 1235 671 L 1258 680 L 1256 706 L 1238 691 L 1229 709 L 1207 707 L 1187 709 L 1168 707 L 1161 689 L 1146 709 L 1135 691 L 1146 675 L 1153 658 L 1145 644 L 1134 630 L 1124 649 L 1126 669 L 1110 687 L 1120 709 L 1092 708 L 1083 685 L 1064 703 L 1038 707 L 1019 688 L 1009 708 L 985 703 L 965 706 L 943 706 L 922 704 L 904 708 L 884 706 L 863 709 L 840 707 L 876 685 L 855 689 L 839 681 L 820 671 L 807 657 L 816 640 L 793 637 L 783 661 L 798 681 L 819 692 L 817 710 L 794 706 L 770 709 L 731 710 L 751 701 L 776 688 L 763 671 L 744 676 L 728 689 L 719 667 L 715 641 L 736 654 L 756 649 L 772 640 L 752 625 L 734 631 L 754 606 L 733 606 L 715 616 L 695 633 L 691 615 L 673 603 L 667 584 L 647 591 L 628 582 L 607 587 L 584 590 L 596 566 L 617 562 L 640 563 L 659 566 L 660 547 L 651 540 L 659 537 L 668 539 L 676 540 L 681 534 L 687 540 L 695 539 L 704 540 L 712 540 L 720 542 L 727 538 L 733 541 L 740 549 L 744 568 L 726 564 L 710 567 L 696 558 L 677 556 L 680 571 L 692 583 L 701 599 L 717 587 L 735 584 L 754 586 L 772 600 L 773 620 L 792 614 L 810 619 L 809 600 L 817 585 L 800 583 L 788 594 L 783 573 L 770 581 L 760 567 L 755 553 L 754 540 L 747 540 L 740 536 L 716 516 L 717 491 L 689 484 L 692 508 L 668 508 L 649 492 L 633 473 L 611 476 L 596 498 L 608 518 L 622 500 L 641 516 L 641 540 L 631 540 L 621 539 L 611 540 L 601 540 L 592 541 L 583 540 L 576 539 L 569 535 L 565 530 L 566 523 L 574 524 L 578 532 L 588 531 L 583 524 L 570 516 L 570 508 L 570 500 L 566 494 L 568 487 L 575 484 L 580 479 L 586 474 L 589 467 L 593 460 L 596 452 L 598 444 L 623 446 L 647 455 L 667 443 L 666 474 L 686 459 L 690 434 L 709 448 L 710 468 L 733 471 L 749 451 L 778 458 L 756 476 L 769 493 L 739 502 L 758 514 L 764 531 L 762 540 L 770 540 L 776 531 L 778 541 L 773 558 L 789 555 L 798 567 L 812 568 L 827 569 L 842 572 L 834 589 L 832 606 L 830 624 L 839 641 L 837 658 L 859 665 L 864 643 L 877 623 L 875 600 L 852 623 L 855 604 L 852 587 L 869 579 L 887 584 L 889 566 L 897 552 L 881 551 L 870 560 L 855 564 L 838 555 L 822 553 L 806 553 L 786 540 L 793 538 L 800 540 L 809 539 L 819 539 L 831 539 L 842 539 L 852 545 L 855 537 L 865 539 L 873 539 L 880 536 L 886 540 L 893 537 L 899 539 L 907 538 L 913 544 L 917 536 L 925 540 L 933 538 L 942 538 L 952 539 L 962 540 L 972 539 L 981 539 L 990 540 L 999 539 L 1008 540 L 1018 539 L 1027 539 L 1037 539 L 1046 538 L 1055 539 L 1063 540 L 1071 539 L 1079 539 L 1062 519 L 1066 498 L 1092 495 L 1111 512 L 1137 504 L 1152 523 L 1156 477 L 1164 504 L 1184 517 L 1204 508 L 1188 488 L 1224 486 L 1219 461 L 1186 462 L 1170 439 L 1139 450 L 1122 480 L 1102 458 L 1112 427 L 1084 403 L 1074 435 L 1071 468 L 1041 476 L 1036 506 L 1013 516 L 1010 490 L 1011 464 L 1006 435 L 1040 441 L 1045 405 L 1071 372 L 1037 354 L 1021 378 L 1005 405 L 966 392 L 937 377 L 932 412 L 902 385 L 905 356 L 932 342 L 962 349 L 988 369 L 1001 338 L 1030 317 L 1028 283 L 997 294 L 974 316 L 943 310 L 961 282 L 930 276 L 914 253 L 883 259 L 875 227 L 851 245 L 825 231 L 825 266 L 833 301 L 807 322 L 806 353 L 830 374 L 842 339 L 865 310 L 858 279 L 895 290 L 912 316 L 883 333 L 868 363 L 861 390 L 830 408 L 858 418 L 845 447 L 828 474 L 856 479 L 881 462 L 876 437 L 892 410 L 906 437 L 927 452 L 950 441 L 973 422 L 978 456 L 978 484 L 990 510 L 968 512 L 947 507 L 924 503 L 900 510 L 947 476 L 911 475 L 886 488 L 870 509 L 842 507 L 817 504 L 790 511 L 795 484 L 805 458 L 817 434 L 791 426 L 765 432 L 765 405 L 800 395 L 781 372 L 755 378 L 734 392 L 722 366 L 744 350 L 772 340 L 773 310 L 798 290 L 792 260 L 759 281 L 740 317 L 723 285 L 735 254 L 766 244 L 749 220 L 718 222 L 702 251 L 689 276 L 678 299 L 704 311 L 713 337 L 699 356 L 679 364 L 685 372 L 691 379 L 683 385 L 673 375 L 663 382 L 669 387 L 674 392 L 680 396 L 693 395 L 696 386 L 705 386 L 703 394 L 708 399 L 713 405 L 718 411 L 724 418 L 731 423 L 736 430 L 741 437 L 743 445 L 735 444 L 728 438 L 722 432 L 715 426 L 709 421 L 703 415 L 697 410 L 691 405 L 686 401 L 671 419 L 651 404 L 645 429 L 625 417 L 628 396 L 600 405 L 599 412 L 600 420 L 601 428 L 598 435 L 583 441 L 578 454 L 574 466 L 566 476 L 559 490 L 552 494 L 540 513 L 521 488 L 528 492 L 536 492 L 543 494 L 547 486 L 554 475 L 561 465 L 561 455 L 567 445 L 565 434 L 576 428 L 588 424 L 575 415 L 565 406 L 576 401 L 587 408 L 597 398 L 598 391 L 604 388 L 610 383 L 614 378 L 619 371 L 619 359 L 612 347 L 598 348 L 604 361 L 610 368 L 597 368 L 595 378 L 591 388 L 589 394 L 581 390 L 572 388 L 578 378 L 585 369 L 587 357 L 582 346 L 579 333 L 567 327 L 571 317 L 576 322 L 582 315 L 592 320 L 604 320 L 592 333 L 604 336 L 615 332 L 618 319 L 612 310 L 613 299 L 623 299 L 633 300 L 642 304 L 630 313 L 627 327 L 639 327 L 645 317 L 652 329 L 660 340 L 644 341 L 636 339 L 627 340 L 625 347 L 632 353 L 641 355 L 647 349 L 656 357 L 633 364 L 628 374 L 638 375 L 647 373 L 655 378 L 656 371 L 664 367 L 669 359 L 675 354 L 672 348 L 676 339 L 673 331 L 670 322 L 663 322 L 660 314 L 652 308 L 656 276 L 635 255 L 616 232 L 588 251 L 609 271 L 603 300 L 595 303 L 589 306 L 582 308 L 576 312 L 568 308 L 562 313 L 554 317 L 546 320 L 541 328 L 536 337 L 532 347 L 537 358 L 545 376 L 555 364 L 551 349 L 553 334 L 566 341 L 569 354 L 571 366 L 562 378 L 557 392 L 542 394 L 532 381 L 523 370 L 515 384 L 525 395 L 533 408 L 543 419 L 551 407 L 559 421 L 550 434 L 549 447 L 534 448 L 529 461 L 545 461 L 541 474 L 531 477 L 519 474 L 516 463 L 508 453 L 520 441 L 535 433 L 526 423 L 512 426 L 504 440 L 498 428 L 501 413 L 516 409 L 507 397 L 493 390 L 498 381 L 504 372 L 511 362 L 520 352 L 501 332 L 516 311 L 511 282 L 486 296 L 455 288 L 477 264 L 448 245 L 412 250 L 425 282 L 436 317 L 412 341 L 398 311 L 389 278 L 359 299 L 320 304 L 314 273 L 295 242 L 271 265 L 279 295 L 289 328 L 316 343 L 344 329 L 375 337 L 350 361 L 318 376 L 290 367 L 263 388 L 256 418 L 286 437 L 292 405 L 321 408 L 345 394 L 373 385 L 392 365 L 419 380 L 437 357 L 458 342 L 472 320 L 484 351 L 469 372 L 448 386 L 466 409 L 481 395 L 491 400 L 487 408 L 485 417 L 484 426 L 485 435 L 485 444 L 489 450 L 460 438 L 472 456 L 489 457 L 492 465 L 502 465 L 495 473 L 502 477 L 508 482 L 513 487 L 512 495 L 513 503 L 510 511 L 507 521 L 515 523 L 524 524 L 527 531 L 518 531 L 509 531 L 500 529 L 481 515 L 488 494 L 469 477 L 463 499 L 447 515 L 448 538 L 458 539 L 470 538 L 481 538 L 493 538 L 504 539 L 515 540 L 503 555 L 506 573 L 488 567 L 484 552 L 470 557 L 455 563 L 442 554 L 438 538 L 429 541 L 425 535 L 417 539 L 408 540 L 401 536 L 395 540 L 386 539 L 377 539 L 368 538 L 360 539 L 352 538 L 344 539 L 336 537 L 331 545 L 323 538 L 313 539 L 302 538 L 292 538 L 281 538 L 271 539 L 262 538 L 258 546 L 252 538 L 244 539 L 235 539 L 229 510 L 254 514 L 265 494 L 282 512 L 299 491 L 309 515 L 337 516 L 326 498 L 324 475 L 342 458 L 370 447 L 398 453 L 392 476 L 369 475 L 350 488 L 361 511 L 384 502 L 384 522 L 416 513 L 409 492 L 436 492 L 449 468 L 422 467 L 416 435 L 438 443 L 447 415 L 425 410 L 398 400 L 391 427 L 367 414 L 345 429 L 317 435 L 306 459 L 281 471 L 259 450 L 248 478 L 223 485 L 201 502 L 182 516 L 164 500 L 174 474 L 203 468 L 229 455 L 223 429 L 220 397 L 234 370 L 261 352 L 254 320 L 231 298 L 238 265 L 216 242 L 195 215 L 191 185 L 173 157 L 156 130 L 120 125 L 124 153 L 145 178 L 160 209 L 179 245 L 200 279 L 192 320 L 223 336 L 197 362 L 158 352 L 173 386 L 189 415 L 187 445 L 154 440 L 145 409 L 126 382 L 116 349 L 131 321 L 160 311 L 165 277 L 143 245 L 127 282 L 98 310 L 77 336 L 42 331 L 59 301 L 52 269 L 88 275 L 76 238 L 108 247 L 122 214 L 107 182 L 85 206 L 48 208 L 67 177 L 87 153 L 86 121 L 69 94 L 65 53 L 99 49 L 98 83 L 128 97 L 158 91 L 131 60 L 164 54 L 193 67 L 217 95 L 185 103 L 201 128 L 208 156 L 230 179 L 230 208 L 255 231 L 282 209 L 262 187 L 270 156 L 241 149 L 237 121 L 270 117 L 276 83 L 250 89 L 230 65 L 212 41 L 207 13 L 176 20 L 144 20 L 112 17 L 79 17 L 47 20 L 16 11 L 14 36 L 22 58 L 13 89 L 44 78 L 42 111 L 52 140 L 15 125 L 14 157 L 38 173 L 14 194 L 14 227 L 42 239 L 15 262 L 20 295 L 13 329 L 17 365 L 52 365 L 89 370 L 76 400 L 107 415 L 119 448 L 138 474 L 138 508 L 110 500 L 93 474 L 82 444 L 52 468 L 53 430 L 42 398 L 13 402 L 18 436 L 17 469 L 14 502 L 43 502 L 75 502 L 71 538 L 59 537 L 48 538 L 37 540 L 27 537 L 17 539 L 5 538 L 10 559 L 10 579 L 29 566 L 47 564 L 63 557 L 68 580 L 88 579 L 106 572 L 99 556 L 81 560 L 83 538 L 95 537 L 108 538 L 120 538 L 132 538 L 143 538 L 152 538 L 161 537 L 168 539 L 176 539 L 184 539 L 192 539 L 200 539 L 209 539 L 218 540 L 226 539 L 229 552 L 232 566 L 247 559 L 265 562 L 272 581 L 251 579 L 261 599 L 242 598 L 231 611 L 229 581 L 217 593 L 201 601 L 180 605 L 178 621 L 164 631 L 160 611 L 143 621 L 143 599 L 142 579 L 159 574 L 162 592 L 183 589 L 182 574 L 202 579 L 213 563 L 195 559 L 178 553 L 170 564 L 156 555 L 139 560 L 120 558 L 124 580 L 124 601 L 123 621 L 108 635 L 106 656 L 111 679 L 94 688 L 73 689 L 88 667 L 67 668 L 70 649 L 88 642 L 85 622 L 104 613 L 105 592 L 84 600 L 65 606 L 64 629 L 43 633 L 26 617 L 45 611 L 50 587 L 31 592 L 11 598 L 8 616 L 9 635 L 27 644 L 9 658 L 29 664 L 49 655 L 53 681 L 36 681 L 25 694 L 10 680 L 9 706 L 30 711 L 49 705 L 68 709 L 88 708 L 107 706 L 124 711 L 125 695 L 132 678 L 149 674 L 125 660 L 129 641 L 149 640 L 147 657 L 169 650 L 167 670 L 183 665 L 196 652 L 187 638 L 198 621 L 216 620 L 213 640 L 213 662 L 198 675 L 214 690 L 193 692 L 177 688 L 161 688 L 145 694 L 144 710 L 162 708 L 180 709 L 197 709 L 214 709 L 232 708 L 239 690 L 227 674 L 233 654 L 236 633 L 255 622 L 277 613 L 288 597 L 309 604 L 326 621 L 306 644 L 300 622 L 280 633 L 277 654 L 256 647 L 253 669 L 262 689 L 255 709 L 279 706 L 280 679 L 298 669 L 323 663 L 335 643 L 349 663 L 319 685 L 302 703 L 330 708 L 346 687 L 360 708 L 372 685 L 373 661 L 394 659 L 410 647 L 428 636 L 428 617 L 425 599 L 415 582 L 404 605 L 403 626 L 382 636 L 359 637 L 377 610 L 391 588 L 370 580 L 356 595 L 349 616 L 332 595 L 312 583 L 293 576 L 283 559 L 304 559 L 324 565 L 343 575 L 350 558 L 370 559 L 387 565 L 404 563 L 423 560 L 437 573 L 440 592 L 456 586 L 470 577 L 486 585 L 491 607 L 472 600 L 455 609 L 450 626 L 448 646 L 467 638 L 480 624 L 506 622 L 505 641 L 531 632 L 552 620 L 537 605 L 518 606 L 504 592 L 525 584 L 521 563 L 530 553 L 524 539 L 533 539 L 542 538 L 545 546 L 557 552 L 551 539 L 558 526 L 559 534 L 562 540 L 570 545 L 577 563 L 562 574 L 543 565 L 545 585 L 563 599 L 578 619 L 600 612 L 625 607 L 649 614 L 668 627 L 639 635 L 616 631 L 592 641 L 623 656 L 655 649 L 644 669 L 655 688 L 670 668 L 679 648 L 700 656 L 693 673 L 678 688 L 706 688 L 708 708 L 687 707 L 664 709 L 640 706 L 616 708 L 626 683 L 603 689 L 600 666 L 572 661 L 562 640 L 544 657 L 522 656 L 503 668 L 507 689 L 529 680 L 553 681 L 579 684 L 588 708 L 564 706 L 541 705 L 520 707 L 499 709 L 478 709 L 485 691 L 483 672 L 487 650 L 467 658 L 463 678 L 460 694 L 457 711 L 436 708 L 411 709 L 387 707 L 396 685 L 420 692 L 415 672 L 430 659 L 448 666 L 439 684 " stroke="black" stroke-width="3" fill="none"/> 
 </svg>