<?xml version="1.0" ?>
<!DOCTYPE svg PUBLIC "-//W3C//DTD SVG 1.1//EN" "http://www.w3.org/Graphics/SVG/1.1/DTD/svg11.dtd">
<svg width="1080" height="934" version="1.1" xmlns="http://www.w3.org/2000/svg">
<path d="M864 12 L 894 17 L 923 20 L 956 13 L 946 46 L 920 68 L 895 53 L 889 89 L 920 108 L 893 130 L 900 162 L 924 187 L 957 193 L 971 159 L 988 133 L 934 150 L 954 121 L 950 84 L 982 98 L 1014 114 L 1041 105 L 1070 118 L 1096 107 L 1090 144 L 1091 177 L 1109 212 L 1095 241 L 1121 266 L 1144 241 L 1150 288 L 1150 321 L 1150 355 L 1185 334 L 1201 296 L 1177 261 L 1215 252 L 1219 212 L 1182 218 L 1149 206 L 1128 181 L 1125 151 L 1166 167 L 1201 180 L 1207 145 L 1183 117 L 1155 131 L 1124 118 L 1123 83 L 1092 76 L 1066 86 L 1042 69 L 1012 80 L 1012 47 L 979 65 L 979 36 L 995 13 L 1026 15 L 1044 39 L 1059 14 L 1089 17 L 1073 49 L 1106 49 L 1137 49 L 1121 16 L 1156 16 L 1185 34 L 1198 12 L 1227 22 L 1255 20 L 1250 61 L 1215 58 L 1190 81 L 1167 56 L 1154 90 L 1219 104 L 1252 100 L 1248 140 L 1247 180 L 1252 227 L 1248 272 L 1247 311 L 1221 338 L 1252 354 L 1251 391 L 1222 403 L 1207 371 L 1173 382 L 1188 411 L 1211 435 L 1222 460 L 1250 429 L 1252 461 L 1222 486 L 1224 512 L 1255 489 L 1250 509 L 1264 532 L 1263 540 L 1255 538 L 1247 539 L 1240 529 L 1239 540 L 1232 539 L 1223 538 L 1214 537 L 1206 540 L 1216 546 L 1214 564 L 1196 560 L 1198 539 L 1190 540 L 1181 539 L 1172 539 L 1163 539 L 1155 539 L 1146 540 L 1138 539 L 1131 537 L 1125 539 L 1118 541 L 1115 534 L 1109 541 L 1103 538 L 1095 539 L 1087 537 L 1079 540 L 1071 539 L 1063 540 L 1054 539 L 1046 539 L 1036 539 L 1027 540 L 1017 541 L 1007 540 L 997 539 L 995 556 L 989 575 L 975 561 L 957 560 L 943 547 L 929 561 L 947 576 L 928 584 L 923 607 L 938 627 L 949 601 L 969 584 L 973 605 L 962 627 L 989 622 L 996 594 L 1011 611 L 1023 591 L 1046 605 L 1030 621 L 1050 628 L 1064 643 L 1083 636 L 1101 643 L 1114 628 L 1093 618 L 1069 616 L 1079 600 L 1110 609 L 1130 592 L 1143 579 L 1129 572 L 1113 573 L 1114 591 L 1096 596 L 1097 577 L 1079 577 L 1062 589 L 1043 582 L 1008 572 L 1023 564 L 1039 563 L 1049 552 L 1060 567 L 1076 558 L 1095 558 L 1115 558 L 1132 554 L 1145 561 L 1159 571 L 1161 555 L 1178 554 L 1176 568 L 1172 585 L 1157 588 L 1145 596 L 1160 605 L 1143 611 L 1126 611 L 1134 629 L 1153 624 L 1165 637 L 1176 652 L 1170 672 L 1161 689 L 1191 668 L 1212 664 L 1199 647 L 1186 633 L 1173 618 L 1178 601 L 1194 594 L 1188 578 L 1205 579 L 1223 584 L 1236 597 L 1224 615 L 1212 600 L 1193 613 L 1206 625 L 1219 637 L 1231 653 L 1235 671 L 1238 691 L 1241 636 L 1244 615 L 1246 582 L 1233 570 L 1230 555 L 1247 560 L 1261 557 L 1261 577 L 1259 601 L 1260 628 L 1257 654 L 1258 680 L 1256 706 L 1229 709 L 1207 707 L 1213 686 L 1188 689 L 1187 709 L 1170 706 L 1150 709 L 1126 708 L 1102 707 L 1136 691 L 1146 675 L 1154 658 L 1144 644 L 1123 648 L 1128 666 L 1113 685 L 1103 664 L 1078 663 L 1088 685 L 1074 707 L 1061 686 L 1044 707 L 1022 692 L 1010 709 L 986 703 L 965 706 L 944 705 L 924 705 L 954 681 L 977 674 L 999 681 L 1011 661 L 1035 675 L 1054 662 L 1033 648 L 1010 636 L 987 649 L 963 652 L 942 656 L 922 647 L 906 662 L 930 678 L 910 685 L 903 708 L 884 706 L 863 709 L 839 708 L 819 692 L 816 710 L 794 706 L 770 709 L 751 701 L 731 710 L 728 689 L 744 676 L 764 671 L 775 688 L 797 681 L 784 660 L 793 636 L 792 614 L 773 620 L 772 640 L 755 649 L 736 654 L 719 667 L 701 656 L 715 641 L 734 631 L 752 625 L 753 605 L 733 606 L 715 616 L 701 599 L 693 583 L 680 571 L 678 556 L 696 558 L 710 567 L 717 588 L 736 584 L 754 586 L 770 581 L 783 573 L 772 600 L 787 594 L 799 582 L 817 586 L 807 599 L 813 615 L 816 630 L 812 646 L 807 661 L 820 673 L 839 679 L 851 692 L 870 685 L 890 682 L 880 661 L 890 641 L 909 628 L 897 609 L 906 590 L 910 571 L 906 555 L 891 565 L 887 583 L 876 600 L 877 622 L 855 604 L 854 623 L 863 643 L 858 665 L 836 657 L 837 639 L 834 619 L 831 602 L 834 586 L 851 587 L 868 581 L 871 561 L 883 552 L 886 539 L 879 537 L 873 540 L 865 538 L 855 538 L 844 539 L 833 539 L 822 539 L 811 521 L 802 502 L 792 481 L 799 456 L 813 433 L 829 411 L 779 427 L 769 453 L 761 476 L 754 501 L 762 514 L 773 504 L 783 519 L 772 524 L 760 528 L 749 523 L 745 513 L 735 506 L 733 481 L 707 474 L 709 494 L 720 512 L 722 526 L 734 523 L 739 538 L 747 535 L 746 543 L 754 540 L 761 540 L 767 539 L 774 541 L 780 536 L 784 541 L 792 539 L 801 540 L 811 540 L 805 554 L 821 554 L 837 555 L 854 553 L 857 568 L 842 570 L 827 570 L 812 569 L 797 567 L 788 555 L 773 558 L 760 568 L 756 554 L 743 565 L 726 564 L 734 545 L 729 538 L 721 541 L 712 541 L 704 539 L 696 539 L 688 540 L 681 539 L 674 540 L 667 539 L 659 539 L 650 540 L 641 540 L 631 541 L 622 540 L 611 540 L 601 540 L 591 541 L 588 532 L 597 525 L 627 518 L 649 518 L 669 500 L 672 519 L 694 513 L 686 486 L 671 472 L 653 457 L 644 468 L 651 470 L 652 478 L 645 476 L 639 474 L 636 469 L 631 475 L 629 482 L 638 481 L 645 484 L 643 491 L 650 493 L 643 498 L 635 496 L 636 488 L 628 490 L 619 490 L 610 489 L 611 498 L 608 508 L 604 517 L 591 514 L 578 514 L 571 505 L 569 494 L 555 497 L 559 509 L 550 511 L 541 512 L 537 501 L 525 512 L 518 498 L 530 489 L 523 477 L 537 476 L 549 472 L 545 489 L 557 483 L 569 483 L 583 489 L 584 501 L 597 500 L 596 487 L 589 475 L 577 476 L 565 470 L 569 456 L 562 458 L 554 460 L 545 459 L 532 462 L 539 447 L 526 447 L 514 440 L 504 449 L 490 453 L 480 444 L 493 434 L 507 426 L 522 429 L 534 430 L 541 414 L 550 424 L 546 436 L 553 446 L 564 446 L 575 444 L 574 451 L 581 454 L 578 465 L 588 458 L 593 463 L 599 468 L 603 474 L 607 481 L 618 466 L 610 451 L 630 453 L 629 436 L 622 435 L 616 432 L 609 430 L 603 435 L 596 438 L 589 439 L 584 435 L 579 438 L 573 437 L 570 432 L 562 432 L 565 421 L 565 407 L 554 412 L 547 400 L 558 396 L 575 404 L 582 401 L 589 403 L 595 407 L 596 413 L 587 414 L 578 412 L 578 423 L 590 427 L 599 423 L 607 415 L 615 404 L 613 394 L 604 401 L 596 391 L 585 393 L 583 384 L 571 393 L 572 380 L 561 382 L 550 383 L 540 388 L 534 400 L 529 414 L 516 416 L 506 407 L 521 404 L 523 394 L 508 388 L 500 392 L 494 399 L 492 407 L 488 414 L 493 422 L 484 425 L 475 429 L 467 436 L 464 446 L 460 455 L 458 465 L 459 474 L 461 483 L 462 492 L 465 500 L 476 497 L 479 487 L 475 476 L 470 461 L 483 465 L 493 480 L 501 466 L 517 461 L 509 481 L 504 498 L 491 496 L 482 507 L 493 512 L 504 515 L 514 521 L 527 528 L 541 526 L 551 526 L 561 525 L 569 519 L 576 528 L 580 539 L 569 541 L 559 544 L 549 545 L 539 544 L 530 544 L 521 543 L 513 540 L 505 536 L 498 539 L 494 531 L 486 527 L 479 521 L 474 515 L 469 508 L 452 517 L 432 513 L 428 493 L 439 474 L 419 465 L 397 452 L 371 448 L 344 441 L 345 465 L 321 480 L 330 503 L 310 516 L 298 497 L 277 513 L 270 487 L 291 470 L 315 455 L 314 429 L 339 416 L 367 416 L 391 425 L 416 434 L 439 441 L 428 410 L 453 408 L 474 391 L 491 366 L 473 346 L 455 376 L 426 379 L 401 399 L 373 386 L 393 367 L 414 345 L 444 348 L 434 316 L 469 313 L 455 284 L 480 266 L 449 245 L 425 281 L 391 283 L 399 314 L 376 338 L 352 360 L 345 391 L 321 372 L 314 399 L 288 408 L 286 439 L 263 453 L 255 421 L 262 389 L 290 369 L 261 353 L 234 370 L 199 363 L 162 352 L 174 387 L 220 398 L 190 417 L 178 446 L 179 477 L 163 499 L 141 474 L 117 452 L 149 440 L 148 410 L 129 385 L 126 353 L 136 321 L 163 308 L 126 284 L 164 276 L 180 245 L 200 280 L 193 320 L 223 337 L 253 322 L 231 298 L 234 264 L 214 239 L 232 210 L 238 179 L 265 185 L 280 210 L 255 233 L 266 266 L 275 297 L 286 330 L 315 343 L 343 328 L 363 302 L 336 281 L 314 307 L 301 274 L 292 241 L 313 214 L 296 176 L 328 187 L 346 161 L 317 151 L 336 129 L 337 96 L 307 113 L 291 139 L 267 153 L 237 149 L 272 115 L 242 120 L 210 124 L 178 134 L 149 143 L 116 152 L 121 122 L 85 121 L 84 153 L 66 177 L 48 207 L 43 238 L 77 234 L 84 204 L 119 215 L 106 182 L 140 181 L 174 175 L 205 156 L 207 186 L 191 211 L 156 213 L 143 247 L 110 247 L 88 270 L 92 299 L 106 325 L 77 336 L 96 368 L 80 402 L 109 417 L 82 444 L 53 470 L 91 475 L 110 500 L 138 508 L 137 538 L 128 539 L 118 537 L 106 538 L 94 537 L 82 538 L 70 538 L 63 557 L 46 563 L 29 567 L 30 592 L 49 587 L 68 580 L 80 560 L 99 556 L 106 573 L 88 580 L 105 593 L 124 580 L 120 558 L 138 560 L 142 579 L 143 599 L 124 601 L 123 621 L 143 621 L 159 611 L 162 592 L 159 575 L 170 564 L 156 556 L 146 539 L 154 538 L 161 537 L 168 540 L 176 539 L 184 539 L 181 515 L 200 504 L 215 483 L 205 456 L 223 429 L 234 455 L 246 476 L 241 498 L 224 515 L 253 516 L 243 539 L 235 539 L 226 539 L 218 540 L 209 540 L 200 539 L 192 539 L 178 553 L 195 559 L 213 563 L 228 553 L 233 567 L 229 581 L 215 588 L 201 600 L 200 578 L 182 573 L 182 589 L 179 605 L 177 621 L 195 620 L 211 619 L 225 606 L 240 596 L 247 616 L 264 630 L 309 647 L 299 672 L 325 664 L 335 643 L 303 629 L 284 625 L 276 608 L 260 599 L 251 578 L 247 559 L 265 562 L 257 546 L 252 538 L 261 538 L 270 539 L 279 539 L 288 539 L 297 538 L 306 539 L 315 538 L 324 539 L 331 533 L 336 539 L 336 555 L 345 572 L 362 559 L 370 580 L 356 593 L 333 596 L 312 589 L 323 573 L 317 556 L 300 559 L 282 560 L 273 581 L 295 576 L 290 595 L 307 609 L 326 621 L 350 615 L 359 636 L 382 635 L 377 610 L 403 626 L 403 605 L 391 587 L 415 582 L 437 573 L 455 563 L 441 555 L 422 560 L 403 563 L 384 563 L 376 540 L 368 538 L 359 538 L 351 541 L 345 537 L 354 514 L 351 490 L 370 476 L 392 474 L 403 492 L 406 515 L 379 502 L 381 523 L 385 539 L 393 540 L 401 538 L 409 540 L 416 539 L 424 537 L 430 540 L 438 538 L 447 538 L 456 539 L 465 539 L 474 539 L 483 538 L 490 539 L 483 552 L 471 560 L 470 577 L 456 586 L 440 593 L 424 599 L 428 617 L 428 636 L 411 647 L 395 657 L 394 682 L 415 672 L 430 659 L 448 666 L 448 646 L 450 626 L 455 609 L 467 638 L 467 658 L 487 650 L 480 624 L 491 607 L 473 600 L 486 584 L 490 566 L 505 555 L 524 563 L 508 574 L 503 591 L 515 605 L 507 622 L 504 641 L 503 668 L 483 672 L 485 691 L 507 689 L 528 681 L 552 683 L 581 682 L 565 664 L 541 658 L 520 656 L 531 632 L 535 608 L 555 617 L 553 592 L 528 585 L 542 569 L 561 571 L 575 559 L 596 564 L 617 562 L 627 581 L 640 563 L 659 553 L 659 568 L 667 584 L 648 590 L 625 603 L 601 611 L 604 586 L 581 581 L 577 601 L 579 625 L 556 640 L 581 649 L 603 637 L 624 627 L 643 638 L 649 614 L 669 626 L 673 602 L 691 615 L 695 633 L 681 648 L 659 649 L 624 656 L 600 662 L 608 683 L 631 684 L 646 666 L 656 687 L 671 668 L 693 674 L 706 688 L 709 708 L 688 707 L 678 688 L 666 708 L 644 707 L 622 707 L 600 706 L 579 706 L 559 706 L 539 706 L 519 707 L 498 709 L 478 709 L 463 678 L 460 694 L 458 711 L 439 707 L 439 684 L 418 691 L 418 710 L 398 706 L 377 707 L 370 684 L 374 660 L 352 662 L 343 684 L 353 707 L 327 707 L 318 686 L 301 704 L 279 706 L 255 709 L 261 689 L 278 677 L 283 650 L 261 654 L 249 671 L 226 675 L 214 690 L 239 691 L 232 709 L 214 709 L 197 709 L 180 709 L 162 708 L 144 710 L 145 694 L 161 688 L 177 688 L 193 692 L 198 675 L 212 662 L 232 654 L 245 639 L 229 628 L 212 640 L 187 637 L 196 652 L 183 665 L 167 670 L 169 650 L 164 631 L 149 640 L 147 657 L 149 674 L 132 678 L 125 695 L 124 711 L 107 706 L 88 708 L 68 709 L 49 705 L 53 681 L 73 689 L 94 688 L 111 679 L 106 656 L 125 660 L 129 641 L 108 635 L 88 642 L 88 667 L 67 668 L 70 649 L 49 655 L 29 664 L 36 681 L 25 694 L 30 711 L 9 706 L 10 680 L 9 658 L 9 635 L 27 644 L 43 633 L 64 629 L 85 622 L 104 613 L 84 600 L 65 606 L 45 611 L 26 617 L 8 616 L 10 597 L 10 578 L 10 558 L 6 538 L 20 538 L 33 539 L 46 538 L 58 537 L 75 503 L 43 503 L 13 505 L 16 474 L 20 446 L 54 432 L 46 400 L 16 418 L 14 386 L 65 368 L 37 367 L 13 352 L 15 320 L 44 332 L 62 302 L 56 266 L 36 291 L 11 289 L 17 259 L 14 225 L 14 193 L 38 173 L 14 157 L 51 141 L 42 110 L 15 125 L 13 89 L 22 58 L 14 36 L 16 11 L 47 20 L 79 17 L 113 17 L 144 20 L 176 21 L 206 13 L 215 40 L 239 17 L 257 50 L 230 65 L 194 62 L 163 59 L 131 59 L 99 49 L 65 53 L 43 78 L 69 93 L 98 84 L 129 93 L 157 102 L 187 96 L 219 93 L 250 88 L 277 84 L 306 85 L 292 60 L 284 34 L 269 13 L 304 12 L 316 40 L 329 66 L 360 65 L 372 90 L 363 118 L 374 150 L 407 152 L 430 129 L 395 116 L 422 94 L 397 73 L 346 38 L 337 12 L 371 12 L 377 40 L 405 42 L 406 13 L 441 17 L 431 53 L 450 78 L 461 111 L 484 137 L 453 156 L 427 180 L 392 186 L 361 191 L 348 222 L 328 248 L 367 259 L 383 224 L 409 250 L 418 216 L 452 206 L 482 223 L 479 184 L 507 166 L 536 185 L 516 212 L 507 247 L 528 271 L 501 293 L 496 327 L 514 351 L 517 384 L 527 385 L 532 377 L 540 372 L 548 370 L 556 368 L 564 368 L 571 368 L 580 370 L 588 374 L 597 379 L 606 386 L 595 363 L 621 360 L 644 375 L 631 413 L 623 409 L 617 415 L 614 423 L 622 425 L 630 424 L 641 430 L 635 438 L 641 440 L 648 441 L 656 444 L 664 447 L 672 450 L 681 453 L 691 457 L 699 455 L 707 457 L 695 447 L 688 449 L 685 440 L 677 438 L 670 433 L 662 430 L 655 426 L 647 422 L 639 418 L 651 397 L 675 402 L 700 400 L 717 426 L 735 455 L 747 430 L 759 400 L 794 402 L 815 380 L 835 357 L 797 348 L 776 372 L 743 364 L 729 394 L 709 363 L 677 369 L 652 344 L 685 334 L 678 303 L 676 273 L 697 245 L 713 273 L 717 303 L 724 331 L 759 335 L 776 311 L 752 287 L 737 252 L 799 291 L 812 323 L 834 298 L 822 264 L 787 264 L 767 245 L 751 219 L 779 200 L 796 229 L 826 230 L 851 244 L 876 228 L 851 203 L 816 199 L 832 167 L 800 171 L 791 141 L 823 130 L 789 108 L 806 79 L 823 53 L 785 43 L 776 73 L 748 55 L 717 47 L 685 52 L 653 57 L 618 62 L 580 81 L 543 94 L 570 118 L 582 151 L 613 133 L 612 100 L 649 96 L 685 87 L 719 83 L 752 96 L 757 130 L 720 120 L 730 155 L 767 165 L 744 189 L 709 186 L 719 219 L 682 214 L 673 181 L 692 153 L 683 120 L 651 135 L 643 168 L 611 172 L 606 208 L 643 207 L 657 243 L 622 242 L 638 277 L 643 310 L 620 330 L 593 336 L 568 343 L 542 341 L 524 320 L 540 297 L 566 314 L 600 304 L 603 272 L 568 276 L 584 239 L 546 244 L 558 214 L 576 186 L 549 154 L 526 130 L 504 105 L 483 78 L 465 46 L 479 14 L 521 16 L 501 43 L 519 70 L 548 51 L 560 16 L 586 47 L 598 15 L 630 21 L 663 18 L 696 16 L 728 16 L 757 19 L 786 12 L 813 18 L 839 21 L 865 43 L 855 72 L 830 97 L 861 109 L 856 140 L 867 170 L 887 195 L 905 220 L 935 222 L 956 241 L 981 261 L 1006 250 L 987 221 L 992 189 L 1027 210 L 1018 175 L 1020 145 L 1052 142 L 1053 174 L 1068 205 L 1061 235 L 1033 246 L 1059 269 L 1090 278 L 1108 307 L 1111 339 L 1107 368 L 1109 399 L 1139 390 L 1152 419 L 1173 443 L 1189 465 L 1187 489 L 1204 507 L 1185 518 L 1166 506 L 1157 477 L 1139 452 L 1115 428 L 1102 458 L 1121 479 L 1137 501 L 1148 519 L 1111 511 L 1091 495 L 1065 497 L 1062 518 L 1036 507 L 1016 521 L 996 510 L 979 486 L 947 476 L 978 457 L 1011 464 L 1012 491 L 1041 476 L 1071 468 L 1075 435 L 1078 404 L 1067 372 L 1072 336 L 1064 304 L 1027 282 L 997 294 L 973 316 L 1001 337 L 1030 317 L 1037 351 L 1043 407 L 1041 442 L 1007 435 L 1004 405 L 1023 378 L 989 369 L 963 348 L 932 342 L 939 377 L 967 393 L 973 423 L 950 442 L 932 412 L 906 435 L 926 452 L 912 476 L 928 504 L 953 506 L 974 515 L 986 539 L 975 540 L 964 540 L 953 539 L 943 536 L 934 539 L 925 540 L 918 536 L 913 541 L 906 538 L 899 539 L 893 541 L 892 528 L 903 508 L 873 509 L 847 510 L 826 496 L 826 467 L 846 445 L 855 479 L 885 487 L 882 461 L 876 437 L 859 416 L 889 407 L 906 386 L 906 357 L 884 334 L 899 289 L 912 316 L 942 309 L 961 282 L 932 275 L 913 252 L 883 261 L 857 276 L 870 305 L 849 331 L 873 365 L 853 387 " stroke="black" stroke-width="3" fill="none"/> 
 </svg>