<?xml version="1.0" ?>
<!DOCTYPE svg PUBLIC "-//W3C//DTD SVG 1.1//EN" "http://www.w3.org/Graphics/SVG/1.1/DTD/svg11.dtd">
<svg width="1080" height="934" version="1.1" xmlns="http://www.w3.org/2000/svg">
<path d="M786 12 L 813 18 L 839 21 L 823 53 L 785 43 L 776 73 L 752 96 L 757 130 L 720 120 L 730 155 L 745 187 L 767 164 L 792 141 L 789 108 L 806 79 L 830 97 L 855 72 L 861 109 L 893 130 L 900 162 L 920 108 L 889 89 L 920 68 L 895 53 L 865 43 L 864 12 L 894 17 L 923 20 L 946 46 L 950 84 L 982 98 L 979 65 L 979 36 L 956 13 L 995 13 L 1026 15 L 1012 47 L 1012 80 L 1042 69 L 1066 86 L 1092 76 L 1122 82 L 1141 50 L 1108 49 L 1074 49 L 1044 39 L 1059 14 L 1089 17 L 1120 16 L 1151 15 L 1177 25 L 1203 14 L 1230 22 L 1256 20 L 1249 62 L 1211 54 L 1176 63 L 1152 89 L 1159 131 L 1182 105 L 1206 135 L 1213 91 L 1249 103 L 1247 141 L 1249 181 L 1206 174 L 1168 167 L 1130 180 L 1126 150 L 1125 118 L 1097 107 L 1070 118 L 1090 144 L 1092 177 L 1110 211 L 1095 240 L 1061 235 L 1068 204 L 1053 174 L 1027 210 L 1018 175 L 1020 145 L 1052 142 L 1041 105 L 1014 114 L 988 133 L 971 159 L 954 121 L 934 150 L 924 187 L 957 193 L 992 189 L 987 221 L 1033 246 L 1006 250 L 981 261 L 956 241 L 935 222 L 913 252 L 932 275 L 961 282 L 942 309 L 912 316 L 899 289 L 883 261 L 857 276 L 834 299 L 811 323 L 801 353 L 815 383 L 828 411 L 813 435 L 782 438 L 789 406 L 777 377 L 739 392 L 733 398 L 747 400 L 755 424 L 717 423 L 697 405 L 681 421 L 690 443 L 700 466 L 725 476 L 727 447 L 756 455 L 754 484 L 779 473 L 803 464 L 800 493 L 776 503 L 771 522 L 749 513 L 730 502 L 709 513 L 693 493 L 671 508 L 683 526 L 686 540 L 695 539 L 704 540 L 712 540 L 720 542 L 727 536 L 732 542 L 739 538 L 747 540 L 754 539 L 761 539 L 767 541 L 772 539 L 779 540 L 786 539 L 793 539 L 802 540 L 805 554 L 821 554 L 837 555 L 842 570 L 827 570 L 812 569 L 797 567 L 788 555 L 773 557 L 761 567 L 755 553 L 740 552 L 744 568 L 726 564 L 710 566 L 696 558 L 677 556 L 677 540 L 668 539 L 659 536 L 660 546 L 659 565 L 640 563 L 617 561 L 596 565 L 578 563 L 563 574 L 545 585 L 525 584 L 543 565 L 547 550 L 562 552 L 568 541 L 576 540 L 578 533 L 588 531 L 584 540 L 592 541 L 601 540 L 611 539 L 621 539 L 631 540 L 641 540 L 651 540 L 642 515 L 620 505 L 595 506 L 582 525 L 573 526 L 570 534 L 565 530 L 561 536 L 556 540 L 549 538 L 541 539 L 534 539 L 531 553 L 521 563 L 506 573 L 504 592 L 537 605 L 530 631 L 517 606 L 506 622 L 505 641 L 487 650 L 503 668 L 520 656 L 541 657 L 558 640 L 553 619 L 563 599 L 584 589 L 607 586 L 628 581 L 648 590 L 649 614 L 669 627 L 673 602 L 667 584 L 680 571 L 693 583 L 701 599 L 717 587 L 735 585 L 754 586 L 770 581 L 783 573 L 799 582 L 787 594 L 772 600 L 773 620 L 792 614 L 793 636 L 772 640 L 784 660 L 797 681 L 807 661 L 812 646 L 816 630 L 813 615 L 806 599 L 817 586 L 834 586 L 831 602 L 834 619 L 838 639 L 837 658 L 859 666 L 864 644 L 855 624 L 854 604 L 851 587 L 857 567 L 854 552 L 871 560 L 881 551 L 898 552 L 889 567 L 887 584 L 869 580 L 875 601 L 897 607 L 923 606 L 937 627 L 948 602 L 946 577 L 928 584 L 907 587 L 909 567 L 927 562 L 944 555 L 961 564 L 976 556 L 985 573 L 968 585 L 973 606 L 962 627 L 962 651 L 940 657 L 927 679 L 953 681 L 975 674 L 997 679 L 1014 662 L 987 649 L 989 623 L 1011 637 L 1030 622 L 1047 605 L 1036 650 L 1058 672 L 1080 661 L 1101 644 L 1082 637 L 1061 646 L 1051 628 L 1069 617 L 1062 589 L 1043 582 L 1025 593 L 1011 610 L 994 595 L 1007 579 L 1001 559 L 1019 551 L 1023 568 L 1039 562 L 1048 550 L 1059 566 L 1076 558 L 1095 558 L 1115 556 L 1132 554 L 1113 573 L 1097 577 L 1079 577 L 1079 600 L 1096 596 L 1093 619 L 1114 629 L 1110 609 L 1126 611 L 1143 612 L 1153 624 L 1165 637 L 1176 652 L 1186 633 L 1199 647 L 1212 664 L 1231 653 L 1241 636 L 1219 637 L 1206 625 L 1193 613 L 1173 618 L 1160 605 L 1157 588 L 1145 596 L 1130 592 L 1114 590 L 1128 572 L 1142 579 L 1146 561 L 1152 540 L 1145 539 L 1137 539 L 1131 536 L 1125 540 L 1118 538 L 1111 539 L 1103 539 L 1095 539 L 1087 537 L 1079 539 L 1071 539 L 1063 540 L 1055 539 L 1046 538 L 1037 539 L 1027 539 L 1018 539 L 1008 540 L 999 539 L 990 540 L 981 539 L 971 539 L 962 540 L 952 539 L 942 538 L 933 538 L 925 540 L 917 536 L 913 544 L 907 538 L 899 539 L 893 536 L 887 540 L 880 537 L 873 539 L 865 538 L 855 538 L 844 539 L 833 539 L 822 539 L 811 540 L 806 517 L 826 497 L 846 510 L 873 509 L 886 488 L 902 510 L 925 503 L 948 507 L 968 512 L 990 510 L 978 484 L 978 456 L 947 476 L 912 475 L 926 452 L 950 441 L 973 422 L 967 393 L 939 376 L 932 412 L 906 435 L 876 436 L 882 461 L 856 479 L 829 467 L 847 445 L 859 416 L 889 406 L 906 386 L 873 365 L 853 388 L 836 358 L 849 331 L 870 305 L 884 334 L 906 357 L 932 342 L 963 348 L 989 369 L 1004 404 L 1007 434 L 1011 463 L 1010 490 L 1013 516 L 1036 507 L 1062 519 L 1066 498 L 1092 495 L 1071 468 L 1041 476 L 1041 442 L 1043 407 L 1023 378 L 1037 351 L 1030 317 L 1001 337 L 973 316 L 997 294 L 1027 282 L 1059 269 L 1064 304 L 1072 336 L 1067 372 L 1078 404 L 1075 435 L 1102 458 L 1115 428 L 1108 399 L 1107 368 L 1111 339 L 1108 307 L 1090 278 L 1121 266 L 1144 241 L 1149 205 L 1182 215 L 1218 210 L 1252 227 L 1248 272 L 1247 310 L 1252 354 L 1251 391 L 1250 429 L 1222 403 L 1188 411 L 1173 382 L 1207 371 L 1221 338 L 1185 334 L 1201 295 L 1215 252 L 1177 260 L 1150 288 L 1150 320 L 1150 355 L 1139 389 L 1151 419 L 1173 442 L 1211 435 L 1188 465 L 1156 478 L 1139 452 L 1122 480 L 1111 512 L 1137 504 L 1187 489 L 1223 486 L 1220 460 L 1252 461 L 1255 489 L 1250 510 L 1225 512 L 1204 508 L 1183 517 L 1164 505 L 1152 523 L 1160 539 L 1168 539 L 1176 539 L 1183 539 L 1191 540 L 1199 538 L 1206 540 L 1214 537 L 1217 544 L 1224 538 L 1232 539 L 1240 533 L 1264 533 L 1263 540 L 1255 538 L 1247 539 L 1240 541 L 1230 555 L 1214 563 L 1196 560 L 1206 579 L 1188 579 L 1176 568 L 1180 554 L 1162 555 L 1159 572 L 1172 586 L 1178 601 L 1195 595 L 1212 600 L 1223 584 L 1233 570 L 1247 560 L 1261 557 L 1261 577 L 1246 582 L 1259 601 L 1236 597 L 1224 615 L 1244 615 L 1260 628 L 1257 654 L 1258 680 L 1235 671 L 1238 691 L 1256 706 L 1229 709 L 1213 686 L 1207 707 L 1187 709 L 1168 707 L 1161 689 L 1187 689 L 1191 669 L 1170 672 L 1153 658 L 1145 644 L 1134 630 L 1124 649 L 1126 669 L 1102 666 L 1110 687 L 1146 675 L 1135 691 L 1146 709 L 1120 709 L 1092 708 L 1083 685 L 1064 703 L 1038 707 L 1039 679 L 1019 688 L 1009 708 L 985 703 L 965 706 L 943 706 L 922 704 L 904 708 L 900 685 L 907 663 L 920 646 L 908 627 L 879 623 L 891 643 L 882 664 L 876 685 L 884 706 L 863 709 L 840 707 L 855 690 L 839 681 L 821 672 L 819 692 L 817 710 L 794 706 L 770 709 L 751 701 L 775 688 L 764 671 L 744 676 L 728 689 L 731 710 L 708 708 L 706 688 L 693 674 L 701 656 L 719 667 L 736 654 L 755 649 L 715 641 L 734 631 L 752 625 L 753 605 L 733 606 L 715 616 L 691 615 L 695 633 L 680 648 L 658 650 L 643 637 L 623 626 L 625 603 L 601 610 L 579 620 L 602 637 L 582 649 L 565 664 L 579 682 L 603 689 L 602 666 L 624 655 L 644 668 L 654 688 L 670 668 L 678 688 L 687 707 L 664 708 L 640 706 L 626 683 L 616 708 L 588 708 L 564 706 L 552 683 L 541 706 L 520 707 L 528 681 L 507 689 L 499 709 L 478 709 L 485 691 L 483 672 L 467 658 L 467 638 L 480 624 L 491 607 L 472 600 L 455 609 L 450 626 L 448 646 L 428 636 L 429 617 L 425 599 L 440 592 L 456 586 L 470 577 L 486 585 L 488 567 L 503 555 L 484 552 L 470 558 L 455 563 L 441 554 L 438 573 L 423 560 L 404 563 L 387 565 L 386 539 L 395 540 L 401 535 L 408 540 L 417 539 L 425 535 L 429 541 L 437 538 L 446 538 L 456 539 L 466 538 L 476 537 L 486 538 L 450 513 L 438 492 L 443 464 L 463 478 L 474 504 L 492 492 L 506 494 L 506 504 L 503 513 L 511 524 L 503 522 L 496 528 L 497 538 L 507 539 L 505 531 L 516 532 L 517 540 L 525 538 L 525 529 L 520 523 L 540 514 L 558 527 L 565 524 L 567 517 L 568 510 L 567 502 L 564 495 L 561 487 L 553 488 L 549 494 L 544 488 L 537 493 L 531 490 L 523 492 L 516 488 L 508 485 L 500 480 L 499 471 L 491 473 L 493 462 L 485 464 L 485 455 L 478 451 L 480 442 L 471 437 L 447 441 L 422 440 L 399 453 L 419 470 L 408 494 L 418 513 L 385 503 L 383 523 L 377 539 L 368 538 L 360 539 L 352 538 L 345 539 L 336 538 L 333 550 L 317 556 L 302 561 L 282 559 L 279 538 L 288 539 L 298 538 L 307 539 L 316 538 L 326 538 L 338 516 L 361 512 L 351 490 L 370 476 L 392 476 L 372 448 L 368 417 L 395 427 L 398 400 L 372 387 L 390 366 L 418 379 L 424 411 L 450 414 L 446 387 L 464 365 L 490 373 L 485 380 L 484 388 L 479 394 L 478 403 L 477 413 L 475 422 L 477 431 L 492 424 L 508 426 L 499 441 L 508 453 L 512 466 L 520 476 L 532 475 L 543 471 L 546 457 L 527 458 L 519 440 L 534 444 L 548 440 L 538 428 L 523 422 L 509 410 L 494 406 L 497 389 L 510 393 L 522 403 L 535 411 L 549 412 L 555 425 L 571 423 L 576 411 L 564 410 L 555 399 L 541 395 L 528 389 L 522 377 L 507 378 L 509 365 L 494 365 L 498 357 L 506 356 L 504 347 L 508 338 L 513 330 L 519 324 L 525 317 L 534 314 L 534 327 L 526 338 L 520 350 L 526 363 L 540 377 L 554 385 L 563 389 L 570 393 L 575 388 L 566 375 L 555 365 L 541 363 L 538 350 L 541 338 L 551 333 L 550 323 L 543 315 L 553 314 L 556 305 L 563 302 L 569 297 L 576 294 L 584 294 L 592 306 L 595 318 L 607 321 L 616 330 L 624 331 L 626 338 L 619 342 L 609 341 L 608 334 L 596 333 L 585 331 L 581 319 L 577 307 L 567 318 L 596 347 L 582 345 L 573 334 L 562 334 L 555 349 L 569 351 L 573 363 L 583 371 L 587 359 L 595 364 L 604 357 L 613 353 L 625 355 L 636 348 L 638 334 L 632 321 L 620 315 L 607 308 L 617 297 L 609 294 L 600 293 L 592 293 L 612 261 L 621 232 L 644 258 L 664 241 L 686 273 L 663 287 L 636 282 L 625 301 L 633 306 L 640 311 L 647 315 L 647 323 L 650 330 L 652 338 L 649 345 L 648 353 L 653 364 L 643 360 L 635 364 L 627 368 L 619 368 L 611 368 L 602 367 L 598 373 L 594 379 L 589 384 L 582 383 L 583 391 L 581 398 L 588 399 L 587 407 L 593 412 L 589 419 L 590 427 L 577 437 L 564 437 L 574 451 L 559 451 L 565 464 L 555 473 L 568 481 L 576 476 L 580 468 L 585 461 L 588 452 L 590 444 L 591 435 L 610 431 L 608 394 L 627 387 L 624 408 L 633 427 L 631 448 L 611 461 L 605 483 L 636 473 L 651 491 L 670 471 L 658 446 L 655 418 L 669 398 L 647 392 L 662 368 L 671 372 L 680 376 L 689 373 L 689 380 L 697 382 L 704 385 L 713 389 L 722 393 L 729 386 L 721 380 L 712 374 L 703 369 L 695 363 L 687 358 L 676 363 L 678 352 L 668 349 L 661 342 L 676 318 L 705 330 L 697 302 L 724 294 L 718 266 L 741 250 L 757 280 L 742 318 L 728 347 L 752 361 L 772 338 L 775 308 L 800 290 L 790 262 L 823 264 L 826 230 L 851 244 L 876 228 L 905 220 L 887 195 L 851 203 L 866 170 L 856 140 L 823 130 L 832 167 L 800 172 L 817 199 L 779 201 L 797 228 L 769 241 L 748 217 L 711 188 L 718 222 L 695 244 L 684 213 L 648 209 L 674 181 L 693 153 L 683 121 L 651 136 L 644 170 L 611 166 L 613 131 L 612 99 L 619 62 L 653 57 L 685 52 L 649 96 L 685 87 L 719 83 L 717 47 L 748 55 L 757 19 L 728 16 L 696 16 L 663 18 L 631 21 L 598 15 L 586 47 L 580 81 L 570 118 L 582 149 L 549 154 L 526 130 L 504 105 L 484 137 L 460 111 L 422 94 L 396 73 L 369 87 L 395 115 L 364 117 L 337 129 L 317 151 L 306 114 L 291 139 L 267 153 L 237 149 L 238 178 L 265 186 L 296 177 L 328 187 L 346 161 L 374 150 L 406 152 L 430 129 L 453 156 L 427 180 L 450 205 L 478 183 L 506 165 L 534 182 L 514 211 L 480 220 L 500 245 L 525 255 L 546 236 L 553 208 L 577 184 L 614 198 L 587 219 L 578 246 L 585 269 L 553 270 L 525 286 L 497 306 L 492 280 L 472 257 L 444 242 L 416 215 L 392 187 L 361 191 L 348 222 L 381 227 L 407 250 L 389 280 L 423 280 L 453 282 L 466 308 L 482 333 L 456 336 L 435 354 L 409 342 L 431 315 L 395 312 L 375 337 L 352 360 L 345 391 L 338 416 L 345 441 L 344 464 L 315 432 L 308 458 L 322 475 L 327 497 L 310 515 L 282 513 L 299 492 L 281 472 L 248 478 L 265 494 L 253 514 L 270 539 L 261 538 L 258 547 L 252 538 L 244 539 L 235 539 L 226 539 L 218 540 L 209 539 L 213 563 L 195 559 L 200 578 L 201 600 L 215 588 L 229 580 L 232 566 L 229 552 L 247 559 L 265 563 L 251 578 L 272 582 L 260 599 L 276 608 L 290 595 L 292 576 L 311 585 L 326 571 L 346 575 L 350 557 L 369 560 L 371 581 L 356 595 L 349 616 L 360 636 L 382 635 L 377 610 L 392 587 L 415 582 L 404 605 L 403 626 L 411 647 L 395 657 L 374 660 L 370 684 L 394 682 L 415 672 L 430 659 L 448 666 L 463 678 L 460 694 L 458 711 L 439 707 L 439 684 L 418 691 L 418 710 L 398 706 L 377 707 L 353 707 L 343 684 L 351 662 L 335 642 L 326 621 L 332 596 L 307 607 L 303 628 L 309 647 L 325 664 L 318 686 L 327 707 L 301 704 L 279 706 L 255 709 L 261 689 L 278 677 L 299 671 L 283 650 L 284 626 L 264 629 L 247 616 L 240 596 L 225 606 L 229 628 L 245 639 L 261 654 L 249 671 L 232 654 L 212 640 L 211 619 L 195 620 L 187 637 L 196 652 L 183 665 L 169 650 L 167 670 L 161 688 L 177 688 L 193 692 L 198 675 L 212 662 L 226 675 L 214 690 L 239 691 L 232 709 L 214 709 L 197 709 L 180 709 L 162 708 L 145 694 L 144 710 L 124 711 L 107 706 L 88 708 L 68 709 L 49 705 L 30 711 L 9 706 L 25 694 L 10 680 L 9 658 L 27 644 L 43 633 L 64 629 L 85 622 L 88 642 L 70 649 L 49 655 L 29 664 L 36 681 L 53 681 L 67 668 L 88 667 L 73 689 L 94 688 L 111 679 L 125 695 L 132 678 L 149 674 L 147 657 L 149 640 L 164 631 L 177 621 L 179 605 L 182 589 L 182 573 L 170 564 L 178 553 L 156 555 L 139 560 L 120 558 L 124 580 L 142 579 L 159 574 L 162 592 L 159 611 L 143 621 L 143 599 L 124 601 L 123 621 L 129 641 L 125 660 L 106 656 L 108 635 L 104 613 L 105 592 L 84 600 L 65 606 L 45 611 L 26 617 L 9 635 L 8 616 L 11 598 L 10 579 L 31 592 L 50 587 L 68 580 L 88 579 L 106 572 L 99 556 L 81 560 L 63 557 L 47 564 L 29 566 L 10 559 L 5 538 L 16 539 L 27 537 L 37 540 L 48 538 L 59 537 L 71 538 L 83 538 L 95 537 L 108 538 L 120 538 L 132 538 L 143 538 L 152 538 L 161 537 L 168 539 L 176 539 L 184 539 L 192 539 L 200 539 L 182 516 L 164 500 L 174 474 L 201 502 L 229 510 L 223 485 L 203 467 L 229 456 L 223 430 L 220 397 L 235 370 L 261 352 L 291 368 L 264 389 L 255 419 L 259 450 L 285 439 L 288 409 L 313 398 L 322 370 L 315 341 L 344 328 L 356 297 L 361 262 L 330 249 L 312 275 L 319 304 L 288 328 L 279 296 L 254 320 L 232 298 L 200 280 L 236 265 L 269 267 L 293 243 L 313 214 L 279 211 L 255 234 L 233 210 L 214 240 L 191 212 L 207 187 L 205 156 L 178 134 L 149 143 L 174 175 L 140 181 L 156 213 L 143 247 L 180 245 L 165 276 L 126 284 L 163 308 L 193 320 L 223 336 L 199 363 L 173 387 L 189 415 L 186 444 L 153 442 L 139 475 L 138 508 L 110 500 L 92 474 L 76 503 L 53 469 L 44 502 L 14 505 L 16 474 L 20 446 L 16 418 L 46 400 L 53 432 L 83 444 L 118 450 L 109 417 L 80 402 L 37 367 L 14 386 L 13 352 L 15 320 L 44 332 L 77 336 L 65 368 L 96 369 L 126 353 L 129 384 L 147 411 L 162 351 L 136 321 L 106 325 L 92 299 L 62 302 L 36 291 L 11 289 L 17 259 L 14 225 L 14 193 L 38 173 L 48 207 L 43 238 L 77 234 L 56 266 L 88 270 L 110 247 L 119 215 L 84 204 L 106 182 L 116 152 L 121 122 L 85 121 L 84 153 L 66 177 L 51 141 L 14 157 L 15 125 L 42 110 L 69 93 L 98 84 L 129 93 L 157 102 L 187 96 L 219 93 L 210 124 L 242 120 L 272 115 L 250 88 L 277 82 L 305 86 L 295 58 L 288 34 L 258 49 L 230 65 L 194 62 L 163 60 L 131 59 L 99 49 L 65 53 L 43 78 L 13 89 L 22 58 L 14 36 L 16 11 L 47 20 L 79 17 L 113 17 L 144 20 L 176 21 L 206 13 L 216 40 L 240 17 L 270 13 L 307 13 L 341 14 L 325 40 L 329 68 L 337 97 L 358 60 L 366 37 L 375 12 L 409 14 L 397 42 L 428 52 L 449 78 L 483 78 L 519 70 L 543 93 L 548 51 L 560 16 L 521 16 L 501 43 L 479 14 L 465 46 L 442 17 " stroke="black" stroke-width="3" fill="none"/> 
 </svg>