<?xml version="1.0" ?>
<!DOCTYPE svg PUBLIC "-//W3C//DTD SVG 1.1//EN" "http://www.w3.org/Graphics/SVG/1.1/DTD/svg11.dtd">
<svg width="1080" height="934" version="1.1" xmlns="http://www.w3.org/2000/svg">
<path d="M864 12 L 894 17 L 923 20 L 956 13 L 946 46 L 950 84 L 954 121 L 934 150 L 924 187 L 957 193 L 935 222 L 956 241 L 987 221 L 1027 210 L 1018 175 L 1020 145 L 992 189 L 971 159 L 988 133 L 1014 114 L 1041 105 L 1012 80 L 1012 47 L 982 98 L 979 65 L 979 36 L 995 13 L 1026 15 L 1059 14 L 1089 17 L 1120 16 L 1151 15 L 1177 25 L 1203 14 L 1230 22 L 1256 20 L 1249 62 L 1211 54 L 1176 63 L 1141 50 L 1108 49 L 1074 49 L 1044 39 L 1042 69 L 1066 86 L 1092 76 L 1122 82 L 1152 89 L 1182 105 L 1206 135 L 1206 174 L 1218 210 L 1182 215 L 1149 206 L 1143 241 L 1124 270 L 1097 242 L 1109 211 L 1092 177 L 1090 144 L 1126 150 L 1130 180 L 1168 167 L 1159 131 L 1125 118 L 1097 107 L 1070 118 L 1052 142 L 1053 174 L 1068 205 L 1062 235 L 1033 246 L 1006 250 L 981 261 L 961 282 L 932 275 L 913 252 L 883 261 L 857 276 L 823 264 L 800 290 L 790 261 L 766 244 L 749 220 L 779 201 L 795 228 L 825 230 L 851 244 L 876 228 L 905 220 L 887 195 L 866 170 L 900 162 L 893 130 L 920 108 L 889 89 L 920 68 L 895 53 L 865 43 L 855 72 L 830 97 L 861 109 L 856 140 L 823 130 L 832 167 L 851 203 L 816 199 L 800 172 L 792 141 L 788 108 L 806 79 L 823 53 L 839 21 L 813 18 L 786 13 L 784 43 L 757 19 L 728 16 L 695 17 L 663 19 L 631 22 L 599 16 L 584 48 L 548 51 L 560 16 L 522 16 L 501 43 L 479 14 L 465 46 L 442 17 L 409 14 L 375 12 L 366 37 L 358 60 L 369 87 L 337 97 L 329 68 L 325 40 L 341 14 L 307 13 L 288 34 L 295 58 L 305 86 L 306 114 L 291 139 L 268 153 L 295 177 L 316 151 L 337 129 L 363 117 L 395 115 L 422 94 L 396 73 L 397 42 L 428 52 L 449 78 L 460 111 L 484 137 L 506 165 L 478 183 L 451 206 L 417 216 L 450 244 L 482 220 L 514 211 L 533 183 L 549 155 L 525 130 L 504 104 L 483 79 L 518 70 L 545 91 L 566 119 L 583 149 L 578 183 L 554 207 L 549 235 L 524 250 L 496 249 L 478 270 L 497 295 L 523 282 L 552 270 L 555 304 L 563 303 L 568 297 L 576 294 L 584 294 L 592 293 L 600 293 L 608 295 L 617 297 L 626 302 L 635 307 L 636 285 L 661 286 L 686 276 L 643 258 L 613 262 L 585 269 L 580 246 L 587 218 L 615 196 L 615 160 L 647 171 L 650 133 L 687 120 L 670 91 L 632 97 L 608 122 L 586 86 L 616 62 L 650 58 L 684 55 L 716 48 L 746 57 L 776 73 L 750 95 L 757 130 L 767 165 L 745 189 L 710 187 L 729 156 L 722 122 L 712 85 L 690 154 L 675 185 L 718 221 L 686 217 L 649 212 L 620 232 L 668 244 L 703 251 L 736 253 L 722 283 L 739 314 L 758 281 L 775 308 L 770 337 L 800 353 L 811 323 L 834 299 L 848 331 L 835 358 L 815 383 L 828 411 L 813 435 L 782 438 L 789 406 L 777 377 L 752 362 L 729 345 L 704 332 L 702 304 L 676 315 L 668 349 L 661 342 L 652 338 L 650 330 L 648 321 L 643 313 L 634 321 L 621 314 L 607 307 L 608 319 L 614 329 L 623 327 L 630 332 L 636 337 L 628 343 L 620 347 L 624 357 L 609 356 L 611 346 L 603 341 L 604 331 L 595 319 L 592 306 L 577 308 L 580 322 L 588 333 L 581 345 L 594 350 L 582 361 L 581 375 L 568 371 L 555 366 L 554 348 L 568 354 L 569 336 L 566 320 L 553 313 L 549 321 L 552 332 L 541 335 L 529 331 L 539 314 L 529 316 L 520 321 L 513 329 L 508 337 L 504 346 L 504 355 L 496 359 L 492 368 L 487 377 L 483 385 L 480 394 L 478 403 L 477 413 L 475 422 L 476 432 L 472 440 L 481 444 L 481 453 L 487 460 L 507 457 L 499 443 L 518 440 L 534 445 L 526 459 L 515 471 L 530 475 L 543 472 L 546 457 L 562 456 L 574 451 L 585 461 L 580 468 L 575 476 L 568 482 L 559 470 L 561 487 L 554 488 L 544 489 L 549 494 L 564 495 L 567 502 L 568 510 L 567 517 L 565 524 L 573 526 L 578 533 L 576 540 L 584 540 L 588 531 L 582 525 L 595 506 L 620 505 L 642 515 L 659 536 L 651 540 L 641 540 L 631 540 L 621 539 L 611 539 L 601 540 L 592 541 L 597 565 L 578 563 L 562 572 L 543 565 L 547 550 L 562 550 L 568 541 L 570 534 L 565 530 L 558 527 L 560 536 L 556 541 L 549 538 L 542 538 L 534 539 L 525 538 L 517 540 L 530 553 L 521 563 L 524 583 L 544 583 L 561 596 L 583 588 L 607 586 L 628 582 L 618 562 L 640 564 L 659 565 L 660 546 L 668 539 L 676 555 L 679 570 L 695 558 L 709 564 L 726 557 L 743 566 L 726 576 L 740 584 L 757 588 L 770 580 L 783 573 L 759 568 L 773 558 L 788 555 L 797 567 L 800 582 L 788 592 L 775 601 L 759 608 L 752 627 L 733 637 L 714 645 L 720 668 L 698 660 L 692 679 L 675 688 L 671 667 L 679 648 L 693 634 L 711 622 L 732 617 L 741 602 L 719 601 L 710 584 L 690 582 L 697 599 L 689 615 L 671 603 L 666 583 L 647 591 L 648 613 L 668 627 L 656 649 L 640 634 L 625 606 L 600 609 L 615 630 L 626 655 L 645 669 L 654 688 L 628 686 L 610 671 L 597 652 L 587 632 L 575 613 L 561 637 L 570 658 L 587 677 L 568 685 L 547 681 L 526 680 L 506 689 L 503 668 L 521 655 L 544 656 L 530 632 L 551 619 L 536 604 L 517 606 L 506 622 L 504 640 L 489 652 L 472 639 L 480 623 L 492 606 L 504 591 L 506 573 L 503 555 L 484 552 L 488 567 L 486 585 L 472 601 L 454 608 L 454 626 L 442 642 L 425 634 L 430 616 L 424 599 L 440 592 L 456 586 L 470 577 L 470 558 L 455 563 L 441 555 L 438 573 L 423 560 L 417 539 L 408 540 L 401 535 L 395 540 L 386 539 L 377 539 L 368 538 L 360 539 L 352 538 L 345 540 L 338 537 L 332 541 L 325 537 L 316 539 L 307 538 L 298 538 L 288 539 L 279 539 L 270 539 L 261 538 L 257 545 L 251 538 L 243 539 L 235 539 L 229 510 L 253 514 L 266 494 L 282 513 L 299 492 L 281 471 L 306 459 L 323 475 L 327 497 L 310 515 L 338 516 L 384 522 L 384 502 L 361 511 L 350 488 L 369 474 L 392 476 L 409 493 L 417 513 L 425 535 L 429 541 L 437 538 L 446 538 L 456 539 L 466 538 L 476 537 L 486 538 L 497 538 L 496 528 L 505 531 L 507 539 L 516 532 L 525 529 L 520 523 L 540 513 L 538 493 L 531 491 L 523 492 L 516 488 L 508 486 L 506 495 L 506 504 L 511 524 L 503 522 L 503 513 L 489 494 L 502 480 L 496 475 L 492 468 L 481 472 L 471 502 L 450 514 L 438 493 L 420 468 L 443 469 L 462 472 L 445 443 L 420 438 L 424 411 L 450 415 L 447 387 L 464 365 L 419 379 L 398 400 L 393 427 L 397 453 L 370 446 L 342 458 L 344 429 L 368 415 L 321 408 L 317 435 L 286 437 L 292 405 L 290 367 L 318 376 L 350 362 L 345 394 L 372 385 L 390 365 L 410 342 L 436 353 L 460 337 L 486 327 L 467 306 L 432 315 L 451 282 L 423 280 L 409 250 L 389 279 L 361 262 L 357 297 L 395 312 L 374 337 L 344 328 L 316 343 L 319 305 L 312 275 L 330 249 L 348 222 L 381 228 L 361 191 L 392 187 L 428 180 L 453 156 L 430 129 L 406 152 L 374 150 L 346 161 L 327 187 L 313 215 L 293 242 L 255 232 L 281 209 L 260 186 L 229 179 L 230 209 L 216 242 L 237 265 L 270 266 L 278 295 L 289 328 L 261 352 L 234 370 L 263 388 L 256 418 L 259 450 L 248 478 L 223 485 L 201 502 L 182 516 L 164 500 L 138 508 L 138 474 L 119 448 L 107 416 L 145 409 L 189 415 L 187 445 L 154 440 L 174 474 L 203 467 L 229 455 L 223 429 L 220 397 L 197 362 L 173 386 L 158 352 L 223 336 L 254 320 L 231 298 L 192 320 L 160 311 L 127 282 L 165 277 L 200 279 L 179 244 L 143 245 L 122 214 L 107 182 L 124 153 L 145 178 L 160 209 L 195 215 L 191 185 L 207 157 L 201 128 L 239 150 L 238 121 L 271 116 L 276 82 L 249 89 L 217 95 L 230 65 L 258 49 L 270 13 L 239 18 L 212 41 L 207 13 L 176 20 L 144 20 L 112 17 L 79 17 L 47 20 L 16 11 L 14 36 L 22 58 L 13 89 L 44 78 L 65 53 L 99 49 L 131 60 L 164 54 L 193 67 L 185 103 L 158 91 L 157 130 L 173 157 L 120 125 L 127 97 L 98 83 L 69 94 L 86 121 L 87 153 L 52 140 L 42 111 L 15 125 L 14 157 L 38 173 L 67 177 L 14 193 L 14 226 L 15 261 L 21 291 L 13 320 L 43 329 L 60 301 L 53 268 L 42 239 L 48 207 L 85 206 L 76 237 L 108 247 L 88 275 L 98 310 L 131 320 L 117 349 L 126 382 L 78 400 L 89 369 L 77 336 L 51 365 L 16 352 L 16 383 L 44 399 L 15 416 L 20 445 L 16 473 L 14 505 L 44 502 L 76 503 L 53 469 L 54 431 L 82 444 L 93 474 L 110 501 L 108 538 L 95 537 L 83 538 L 71 538 L 59 537 L 48 538 L 37 540 L 27 537 L 16 539 L 5 538 L 10 559 L 29 565 L 47 564 L 63 557 L 81 560 L 88 579 L 68 579 L 50 588 L 30 588 L 10 579 L 11 598 L 7 615 L 8 636 L 27 644 L 29 663 L 9 658 L 10 681 L 8 706 L 27 711 L 28 695 L 35 680 L 50 670 L 49 650 L 69 669 L 71 650 L 88 642 L 90 667 L 112 678 L 96 688 L 76 688 L 55 690 L 48 708 L 69 708 L 88 708 L 107 707 L 125 711 L 125 694 L 133 678 L 124 660 L 106 656 L 108 636 L 87 622 L 65 629 L 43 631 L 24 622 L 34 608 L 53 611 L 69 604 L 86 598 L 102 608 L 106 590 L 106 572 L 99 555 L 120 558 L 120 538 L 132 538 L 143 538 L 152 538 L 161 537 L 168 539 L 176 539 L 184 539 L 192 539 L 200 539 L 209 539 L 218 540 L 226 539 L 228 552 L 212 561 L 195 558 L 178 553 L 170 563 L 156 556 L 139 559 L 125 579 L 123 600 L 142 598 L 143 579 L 159 574 L 161 591 L 159 610 L 148 624 L 133 618 L 115 620 L 129 640 L 148 642 L 164 633 L 177 621 L 177 604 L 182 589 L 181 573 L 198 577 L 214 583 L 200 597 L 195 613 L 213 620 L 220 602 L 240 597 L 231 582 L 230 567 L 245 559 L 261 563 L 275 557 L 287 566 L 303 558 L 325 557 L 319 575 L 300 580 L 289 594 L 273 581 L 250 578 L 260 595 L 274 608 L 284 624 L 303 630 L 311 646 L 296 666 L 285 683 L 263 686 L 246 671 L 239 691 L 226 677 L 213 691 L 210 666 L 227 657 L 246 651 L 267 660 L 284 647 L 266 633 L 248 633 L 254 614 L 234 617 L 228 636 L 211 643 L 196 652 L 195 631 L 180 642 L 164 654 L 143 658 L 151 673 L 170 673 L 183 663 L 195 676 L 177 690 L 160 689 L 145 694 L 144 710 L 162 708 L 180 709 L 193 693 L 197 709 L 214 709 L 232 709 L 254 708 L 278 707 L 301 706 L 315 685 L 322 664 L 327 708 L 354 708 L 377 707 L 397 707 L 419 710 L 413 690 L 413 670 L 392 681 L 368 685 L 342 689 L 346 668 L 336 643 L 325 621 L 302 610 L 316 597 L 336 592 L 342 573 L 352 558 L 371 558 L 387 565 L 404 563 L 415 581 L 391 587 L 369 579 L 358 595 L 345 611 L 378 609 L 404 605 L 402 626 L 381 634 L 358 627 L 360 649 L 374 664 L 393 655 L 411 647 L 429 658 L 448 665 L 436 679 L 434 696 L 441 710 L 461 710 L 458 694 L 462 679 L 458 649 L 471 661 L 483 675 L 484 692 L 479 709 L 499 709 L 520 707 L 540 705 L 561 707 L 586 707 L 603 695 L 617 709 L 641 707 L 665 709 L 687 706 L 708 708 L 708 688 L 728 690 L 731 710 L 751 702 L 770 709 L 775 688 L 764 670 L 745 678 L 737 657 L 756 650 L 772 640 L 775 621 L 794 615 L 793 637 L 784 660 L 797 681 L 794 706 L 817 710 L 819 692 L 821 672 L 806 660 L 814 646 L 816 630 L 814 613 L 806 599 L 817 586 L 834 619 L 831 602 L 834 586 L 842 570 L 827 570 L 812 569 L 805 554 L 821 554 L 837 555 L 854 553 L 857 568 L 871 561 L 882 552 L 891 565 L 868 581 L 851 587 L 855 604 L 855 624 L 863 644 L 838 639 L 837 658 L 859 666 L 839 681 L 840 707 L 863 709 L 884 706 L 855 690 L 876 685 L 882 664 L 891 643 L 878 623 L 876 601 L 887 583 L 906 590 L 897 609 L 908 627 L 920 647 L 907 663 L 900 685 L 904 708 L 923 704 L 943 706 L 965 706 L 985 703 L 1009 708 L 1019 688 L 1039 680 L 1038 707 L 1064 703 L 1084 687 L 1093 708 L 1112 690 L 1121 709 L 1147 709 L 1136 692 L 1147 676 L 1154 659 L 1155 641 L 1137 649 L 1116 651 L 1127 670 L 1103 671 L 1077 667 L 1056 670 L 1094 652 L 1081 635 L 1063 646 L 1036 650 L 1014 662 L 997 679 L 975 675 L 953 681 L 927 679 L 940 657 L 962 652 L 987 649 L 1010 637 L 988 623 L 1009 611 L 991 594 L 984 574 L 966 585 L 972 607 L 962 628 L 937 628 L 923 607 L 947 602 L 945 576 L 928 585 L 910 572 L 906 555 L 926 561 L 943 555 L 960 563 L 977 556 L 997 557 L 1005 572 L 1011 589 L 1030 622 L 1051 629 L 1069 617 L 1048 606 L 1029 597 L 1044 583 L 1040 561 L 1025 571 L 1019 554 L 1018 539 L 1027 539 L 1036 539 L 1045 536 L 1046 544 L 1054 539 L 1063 539 L 1071 539 L 1079 539 L 1087 538 L 1095 538 L 1103 538 L 1111 539 L 1118 537 L 1125 540 L 1131 536 L 1137 539 L 1145 539 L 1152 540 L 1160 539 L 1168 539 L 1176 539 L 1183 539 L 1191 540 L 1199 538 L 1207 539 L 1215 538 L 1224 538 L 1232 540 L 1238 536 L 1244 540 L 1246 558 L 1232 565 L 1221 552 L 1213 565 L 1205 579 L 1188 578 L 1196 560 L 1180 554 L 1176 569 L 1162 555 L 1159 571 L 1157 587 L 1172 586 L 1161 604 L 1145 595 L 1142 610 L 1126 611 L 1110 611 L 1114 592 L 1130 591 L 1142 578 L 1146 560 L 1132 555 L 1129 571 L 1115 557 L 1113 574 L 1098 576 L 1080 579 L 1096 558 L 1078 559 L 1059 556 L 1061 573 L 1063 592 L 1080 599 L 1097 595 L 1091 616 L 1103 633 L 1121 630 L 1138 629 L 1155 622 L 1170 633 L 1174 616 L 1179 600 L 1194 612 L 1206 624 L 1220 635 L 1229 653 L 1234 673 L 1237 692 L 1212 687 L 1188 689 L 1191 669 L 1211 666 L 1201 648 L 1188 632 L 1177 651 L 1170 672 L 1162 690 L 1168 708 L 1187 709 L 1207 707 L 1229 709 L 1256 707 L 1258 683 L 1255 661 L 1259 641 L 1241 635 L 1259 619 L 1258 597 L 1242 615 L 1223 614 L 1212 599 L 1195 594 L 1224 582 L 1236 597 L 1244 580 L 1261 576 L 1261 556 L 1265 537 L 1258 539 L 1251 537 L 1252 512 L 1255 488 L 1252 460 L 1250 428 L 1252 391 L 1221 396 L 1194 368 L 1171 392 L 1190 413 L 1213 434 L 1219 461 L 1224 486 L 1225 513 L 1204 508 L 1184 517 L 1164 505 L 1152 523 L 1137 504 L 1111 512 L 1092 495 L 1064 517 L 1065 495 L 1071 467 L 1074 435 L 1040 441 L 1045 405 L 1084 403 L 1112 427 L 1102 458 L 1122 480 L 1139 450 L 1156 477 L 1188 488 L 1186 462 L 1170 439 L 1146 413 L 1118 393 L 1154 366 L 1146 331 L 1117 362 L 1096 340 L 1071 372 L 1037 354 L 1021 378 L 1005 405 L 1006 435 L 1011 463 L 1010 490 L 1041 476 L 1036 506 L 1013 516 L 1008 540 L 999 539 L 990 540 L 981 539 L 972 539 L 962 540 L 952 539 L 968 512 L 990 510 L 978 484 L 978 456 L 973 422 L 950 441 L 932 412 L 939 376 L 967 393 L 988 369 L 1001 338 L 963 348 L 932 342 L 906 357 L 906 386 L 889 406 L 906 435 L 926 452 L 912 475 L 882 461 L 886 487 L 872 509 L 892 532 L 902 509 L 925 503 L 947 476 L 948 507 L 943 538 L 933 538 L 925 540 L 918 535 L 913 541 L 906 538 L 899 539 L 893 542 L 886 539 L 879 537 L 873 540 L 865 538 L 855 538 L 844 539 L 833 539 L 822 539 L 846 510 L 826 496 L 806 517 L 811 540 L 802 540 L 793 539 L 786 539 L 779 540 L 772 539 L 767 541 L 761 539 L 754 539 L 755 553 L 741 546 L 747 540 L 740 536 L 734 541 L 727 538 L 720 540 L 712 540 L 703 540 L 695 539 L 686 540 L 677 540 L 683 526 L 671 508 L 651 491 L 636 473 L 605 483 L 611 461 L 588 453 L 590 444 L 591 435 L 610 431 L 630 448 L 633 426 L 623 408 L 647 392 L 627 387 L 608 394 L 583 397 L 588 400 L 587 407 L 592 412 L 589 419 L 590 427 L 577 436 L 563 440 L 549 441 L 538 428 L 523 422 L 507 426 L 492 427 L 494 408 L 509 410 L 508 393 L 496 388 L 505 377 L 509 364 L 525 362 L 520 346 L 536 347 L 541 360 L 539 376 L 519 378 L 528 388 L 541 395 L 522 402 L 535 411 L 549 411 L 555 425 L 571 424 L 576 411 L 564 409 L 556 396 L 554 384 L 564 388 L 571 393 L 576 387 L 583 389 L 588 384 L 594 379 L 599 374 L 592 362 L 599 366 L 606 366 L 611 369 L 618 368 L 627 368 L 635 365 L 636 351 L 650 345 L 648 352 L 644 360 L 653 364 L 662 368 L 676 363 L 678 352 L 687 358 L 695 363 L 703 369 L 712 374 L 721 380 L 729 386 L 739 392 L 747 400 L 755 424 L 733 398 L 722 393 L 713 389 L 704 385 L 697 382 L 688 381 L 689 374 L 680 376 L 671 372 L 669 398 L 655 419 L 658 446 L 670 471 L 693 493 L 709 513 L 731 502 L 725 477 L 700 466 L 689 443 L 682 420 L 697 404 L 717 423 L 727 447 L 756 455 L 779 473 L 754 483 L 750 512 L 771 522 L 776 503 L 800 493 L 803 464 L 829 467 L 856 479 L 847 445 L 876 436 L 859 416 L 853 388 L 873 365 L 884 334 L 870 305 L 899 289 L 912 316 L 942 309 L 974 316 L 997 294 L 1028 283 L 1030 317 L 1064 336 L 1066 304 L 1060 269 L 1091 279 L 1112 309 L 1155 294 L 1177 259 L 1203 294 L 1186 329 L 1222 347 L 1253 352 L 1245 312 L 1249 272 L 1215 251 L 1252 227 L 1249 181 L 1247 141 L 1249 103 L 1213 91 " stroke="black" stroke-width="3" fill="none"/> 
 </svg>