<?xml version="1.0" ?>
<!DOCTYPE svg PUBLIC "-//W3C//DTD SVG 1.1//EN" "http://www.w3.org/Graphics/SVG/1.1/DTD/svg11.dtd">
<svg width="1080" height="934" version="1.1" xmlns="http://www.w3.org/2000/svg">
<path d="M786 13 L 784 43 L 757 19 L 728 16 L 695 17 L 663 19 L 631 22 L 599 16 L 584 48 L 548 51 L 560 16 L 522 16 L 501 43 L 518 70 L 545 91 L 586 86 L 616 62 L 650 58 L 684 55 L 716 48 L 746 57 L 776 73 L 750 95 L 757 130 L 788 108 L 806 79 L 823 53 L 813 18 L 839 21 L 864 12 L 894 17 L 923 20 L 946 46 L 920 68 L 895 53 L 865 43 L 855 72 L 830 97 L 823 130 L 792 141 L 800 172 L 832 167 L 856 140 L 861 109 L 889 89 L 920 108 L 893 130 L 900 162 L 924 187 L 957 193 L 992 189 L 987 221 L 956 241 L 935 222 L 905 220 L 887 195 L 866 170 L 851 203 L 816 199 L 825 230 L 795 228 L 779 201 L 767 165 L 745 189 L 749 220 L 766 244 L 790 261 L 800 290 L 823 264 L 851 244 L 876 228 L 857 276 L 883 260 L 913 252 L 932 275 L 961 282 L 981 261 L 1006 250 L 1033 246 L 1062 235 L 1027 210 L 1018 175 L 1020 145 L 1052 142 L 1090 144 L 1092 177 L 1053 174 L 1068 205 L 1097 242 L 1109 211 L 1126 150 L 1125 118 L 1097 107 L 1070 118 L 1041 105 L 1014 114 L 988 133 L 971 159 L 934 150 L 954 121 L 950 84 L 982 98 L 979 65 L 979 36 L 956 13 L 995 13 L 1026 15 L 1012 47 L 1012 80 L 1042 69 L 1066 86 L 1092 76 L 1122 82 L 1141 50 L 1108 49 L 1074 49 L 1044 39 L 1059 14 L 1089 17 L 1120 16 L 1151 15 L 1177 25 L 1203 14 L 1230 22 L 1256 20 L 1249 62 L 1211 54 L 1176 63 L 1152 89 L 1159 131 L 1168 167 L 1130 180 L 1149 206 L 1143 241 L 1124 270 L 1091 279 L 1112 309 L 1096 340 L 1117 362 L 1118 393 L 1146 413 L 1170 439 L 1186 462 L 1188 488 L 1156 477 L 1139 450 L 1112 427 L 1102 458 L 1122 480 L 1137 505 L 1111 512 L 1092 495 L 1071 467 L 1065 495 L 1064 517 L 1036 506 L 1013 516 L 1041 476 L 1040 441 L 1045 405 L 1074 435 L 1084 403 L 1071 372 L 1064 336 L 1066 304 L 1060 269 L 1028 283 L 1030 317 L 997 294 L 974 316 L 963 348 L 939 376 L 932 412 L 950 441 L 926 452 L 906 435 L 889 406 L 906 386 L 906 357 L 932 342 L 942 309 L 912 316 L 899 289 L 870 305 L 884 334 L 873 365 L 853 388 L 859 416 L 876 436 L 882 461 L 856 479 L 847 445 L 829 467 L 803 464 L 779 473 L 782 438 L 755 424 L 747 400 L 739 392 L 733 398 L 717 423 L 727 447 L 756 455 L 754 483 L 725 477 L 700 466 L 689 443 L 697 404 L 682 420 L 655 419 L 634 426 L 611 432 L 590 444 L 590 435 L 590 427 L 589 419 L 594 412 L 587 408 L 588 400 L 583 397 L 576 410 L 564 408 L 551 415 L 558 430 L 571 423 L 574 438 L 560 450 L 548 442 L 539 428 L 536 411 L 509 410 L 494 408 L 492 427 L 507 426 L 523 422 L 518 441 L 499 443 L 507 457 L 515 471 L 530 475 L 526 459 L 533 445 L 545 458 L 545 473 L 561 468 L 568 481 L 576 476 L 580 469 L 573 454 L 587 453 L 585 461 L 605 483 L 611 461 L 631 449 L 658 446 L 670 471 L 636 473 L 651 491 L 642 515 L 620 505 L 595 506 L 582 525 L 588 531 L 579 533 L 584 540 L 592 541 L 601 540 L 611 539 L 621 539 L 631 540 L 641 540 L 651 540 L 659 536 L 668 539 L 677 540 L 660 546 L 659 565 L 640 563 L 617 561 L 597 565 L 578 562 L 562 572 L 562 552 L 568 541 L 576 540 L 570 534 L 573 526 L 565 524 L 565 530 L 558 527 L 561 536 L 556 540 L 549 538 L 547 550 L 542 539 L 534 539 L 525 538 L 517 540 L 516 532 L 511 524 L 520 523 L 525 529 L 540 513 L 567 517 L 568 510 L 567 502 L 564 494 L 561 486 L 554 488 L 549 494 L 544 489 L 538 493 L 531 491 L 523 492 L 516 488 L 508 486 L 502 480 L 496 475 L 491 468 L 486 461 L 481 453 L 481 444 L 474 440 L 476 431 L 475 422 L 477 413 L 478 403 L 480 394 L 483 385 L 496 388 L 507 394 L 522 402 L 528 388 L 519 379 L 505 376 L 508 363 L 504 355 L 505 345 L 496 359 L 492 368 L 487 377 L 464 365 L 436 353 L 410 342 L 390 365 L 419 379 L 447 387 L 450 415 L 424 411 L 398 400 L 395 427 L 368 417 L 372 448 L 399 453 L 421 439 L 447 443 L 443 469 L 461 470 L 477 479 L 490 495 L 506 495 L 506 504 L 503 513 L 471 503 L 450 514 L 438 493 L 420 469 L 393 476 L 370 476 L 351 490 L 344 464 L 345 441 L 338 416 L 345 391 L 372 387 L 352 360 L 375 336 L 396 311 L 389 279 L 361 262 L 357 297 L 344 328 L 319 304 L 312 275 L 330 249 L 348 222 L 381 228 L 409 250 L 417 216 L 450 244 L 451 206 L 478 183 L 506 165 L 533 183 L 515 211 L 482 220 L 496 249 L 524 250 L 549 235 L 554 207 L 578 183 L 587 218 L 580 246 L 613 262 L 585 269 L 552 270 L 523 282 L 497 295 L 478 270 L 451 282 L 423 280 L 432 315 L 466 306 L 460 337 L 486 327 L 510 334 L 516 325 L 526 318 L 538 314 L 538 329 L 549 320 L 554 313 L 554 303 L 563 303 L 568 297 L 576 294 L 584 294 L 577 309 L 581 322 L 566 320 L 569 336 L 551 332 L 555 348 L 569 354 L 582 345 L 589 333 L 583 361 L 581 376 L 568 371 L 554 366 L 540 359 L 538 345 L 525 335 L 521 349 L 525 364 L 539 376 L 542 396 L 555 398 L 554 384 L 563 388 L 571 392 L 576 387 L 583 389 L 588 384 L 594 379 L 599 373 L 601 366 L 592 363 L 595 349 L 604 339 L 613 329 L 622 328 L 613 341 L 611 347 L 608 357 L 622 356 L 635 350 L 622 343 L 631 339 L 630 331 L 634 321 L 620 315 L 608 310 L 604 327 L 595 319 L 592 306 L 592 293 L 600 293 L 608 295 L 617 297 L 626 302 L 635 307 L 644 313 L 648 322 L 649 330 L 652 338 L 649 344 L 661 342 L 668 349 L 676 363 L 671 372 L 662 368 L 653 364 L 648 352 L 643 360 L 635 365 L 627 368 L 618 369 L 609 368 L 608 394 L 623 408 L 627 387 L 647 392 L 669 397 L 680 376 L 689 375 L 688 381 L 697 382 L 704 385 L 713 389 L 722 393 L 729 386 L 721 380 L 712 374 L 703 369 L 695 363 L 687 358 L 678 352 L 704 332 L 739 314 L 729 345 L 752 362 L 777 377 L 789 406 L 813 435 L 828 411 L 815 383 L 835 358 L 848 331 L 834 299 L 811 323 L 800 353 L 770 337 L 775 308 L 758 281 L 736 253 L 722 283 L 702 304 L 676 315 L 636 284 L 643 257 L 668 244 L 661 286 L 686 276 L 703 251 L 718 221 L 686 217 L 649 212 L 620 232 L 615 196 L 615 160 L 647 171 L 675 185 L 690 154 L 710 187 L 729 156 L 722 122 L 712 85 L 670 91 L 687 120 L 650 133 L 632 97 L 608 122 L 583 149 L 566 119 L 549 155 L 525 130 L 504 104 L 483 79 L 465 46 L 479 14 L 442 17 L 428 52 L 397 42 L 409 14 L 375 12 L 366 37 L 358 60 L 369 87 L 396 73 L 422 94 L 449 78 L 460 111 L 484 137 L 453 156 L 428 180 L 392 187 L 361 191 L 327 187 L 313 215 L 293 242 L 270 266 L 278 295 L 288 328 L 315 341 L 322 370 L 313 398 L 288 409 L 285 439 L 315 432 L 308 458 L 322 475 L 327 497 L 310 515 L 282 513 L 299 492 L 281 472 L 259 450 L 255 419 L 264 389 L 291 368 L 261 352 L 234 370 L 220 397 L 222 429 L 229 456 L 248 478 L 265 494 L 253 514 L 229 510 L 223 485 L 201 502 L 182 516 L 164 500 L 138 508 L 138 474 L 119 448 L 107 416 L 78 400 L 89 369 L 126 382 L 145 409 L 154 440 L 174 474 L 203 467 L 186 445 L 188 415 L 173 386 L 158 352 L 197 362 L 192 320 L 223 336 L 254 320 L 231 298 L 200 279 L 165 277 L 160 311 L 117 349 L 131 320 L 127 282 L 143 245 L 179 244 L 160 209 L 145 178 L 157 130 L 173 157 L 207 157 L 191 185 L 195 215 L 216 242 L 237 265 L 255 232 L 230 209 L 229 179 L 260 186 L 281 209 L 295 177 L 316 151 L 346 161 L 374 150 L 406 152 L 430 129 L 395 115 L 363 117 L 337 129 L 337 97 L 329 68 L 325 40 L 341 14 L 307 13 L 270 13 L 239 18 L 258 49 L 288 34 L 295 58 L 305 86 L 306 114 L 291 139 L 268 153 L 239 150 L 238 121 L 271 116 L 276 82 L 249 89 L 230 65 L 217 95 L 201 128 L 185 103 L 158 91 L 127 97 L 120 125 L 124 153 L 107 182 L 87 153 L 86 121 L 69 94 L 98 83 L 99 49 L 131 60 L 164 54 L 193 67 L 212 41 L 207 13 L 176 20 L 144 20 L 112 17 L 79 17 L 47 20 L 16 11 L 14 36 L 22 58 L 65 53 L 44 78 L 13 89 L 42 111 L 15 125 L 14 157 L 38 173 L 52 140 L 67 177 L 48 207 L 14 193 L 14 226 L 15 261 L 21 291 L 13 320 L 43 329 L 60 301 L 53 268 L 42 239 L 76 237 L 85 206 L 122 214 L 108 247 L 88 275 L 98 310 L 77 336 L 51 365 L 16 352 L 16 383 L 44 399 L 15 416 L 20 445 L 16 474 L 14 505 L 44 502 L 53 469 L 54 431 L 82 444 L 93 474 L 110 501 L 76 503 L 71 538 L 59 537 L 48 538 L 37 540 L 27 537 L 17 539 L 5 538 L 10 559 L 29 565 L 47 564 L 63 556 L 81 560 L 88 579 L 68 579 L 50 588 L 30 588 L 10 579 L 11 598 L 7 615 L 8 636 L 23 622 L 34 608 L 53 611 L 69 603 L 86 598 L 87 622 L 88 642 L 71 650 L 69 669 L 50 670 L 49 650 L 65 629 L 43 631 L 27 644 L 29 663 L 9 658 L 10 681 L 8 706 L 27 711 L 28 695 L 35 680 L 48 708 L 55 690 L 76 688 L 69 708 L 88 708 L 107 707 L 125 711 L 125 694 L 133 678 L 112 678 L 96 688 L 90 667 L 106 656 L 124 660 L 129 640 L 108 636 L 115 620 L 102 608 L 106 590 L 106 572 L 99 555 L 83 538 L 95 537 L 108 538 L 120 538 L 132 538 L 143 538 L 152 538 L 161 537 L 168 539 L 176 539 L 184 539 L 192 539 L 200 539 L 209 539 L 218 540 L 226 539 L 235 539 L 243 539 L 251 538 L 257 545 L 261 538 L 270 539 L 279 538 L 288 539 L 297 538 L 306 539 L 314 538 L 321 539 L 329 538 L 335 556 L 317 558 L 299 558 L 320 576 L 301 580 L 288 594 L 274 608 L 284 624 L 303 630 L 311 646 L 322 664 L 296 666 L 285 683 L 267 660 L 284 647 L 266 633 L 248 633 L 228 636 L 234 617 L 253 614 L 260 595 L 272 581 L 286 569 L 276 556 L 261 563 L 245 558 L 228 552 L 212 562 L 195 558 L 178 553 L 170 563 L 181 573 L 198 577 L 214 583 L 231 582 L 230 567 L 250 578 L 240 597 L 220 602 L 213 620 L 195 613 L 200 597 L 182 589 L 177 604 L 159 610 L 161 591 L 159 574 L 156 555 L 139 559 L 120 558 L 125 579 L 142 579 L 142 598 L 123 600 L 133 618 L 148 624 L 177 621 L 195 631 L 211 643 L 180 642 L 164 654 L 164 633 L 149 642 L 143 658 L 151 673 L 160 689 L 145 694 L 144 710 L 162 708 L 180 709 L 197 709 L 193 693 L 177 690 L 170 673 L 183 663 L 196 652 L 210 666 L 195 676 L 213 691 L 214 709 L 232 709 L 239 691 L 226 677 L 227 657 L 246 651 L 246 671 L 263 686 L 254 708 L 278 707 L 301 706 L 315 685 L 327 708 L 342 689 L 346 668 L 336 643 L 325 621 L 302 610 L 316 598 L 336 593 L 343 574 L 354 559 L 371 558 L 387 565 L 404 563 L 422 560 L 417 539 L 408 540 L 401 535 L 395 540 L 386 540 L 377 539 L 368 538 L 360 539 L 352 538 L 345 539 L 337 538 L 338 516 L 362 512 L 384 523 L 385 503 L 409 493 L 418 513 L 425 535 L 429 541 L 437 538 L 446 538 L 456 539 L 466 538 L 470 558 L 455 563 L 441 554 L 438 573 L 415 581 L 391 587 L 369 579 L 359 595 L 345 612 L 358 627 L 360 649 L 374 664 L 392 681 L 368 685 L 354 708 L 377 707 L 397 707 L 419 710 L 413 690 L 413 670 L 394 655 L 381 635 L 378 609 L 404 605 L 403 626 L 411 647 L 425 634 L 430 616 L 424 599 L 440 592 L 456 586 L 470 577 L 486 585 L 488 567 L 484 552 L 476 537 L 486 538 L 497 538 L 496 528 L 503 522 L 505 531 L 507 539 L 503 555 L 506 573 L 504 591 L 492 606 L 472 600 L 454 608 L 454 626 L 442 642 L 429 658 L 448 665 L 436 679 L 434 696 L 441 710 L 461 710 L 458 694 L 462 679 L 471 661 L 458 649 L 473 639 L 480 623 L 489 652 L 503 639 L 506 622 L 517 606 L 524 584 L 521 564 L 530 553 L 543 565 L 543 583 L 560 595 L 583 586 L 578 609 L 601 612 L 579 632 L 587 654 L 605 638 L 624 626 L 625 603 L 606 586 L 628 580 L 647 590 L 666 583 L 672 602 L 668 627 L 648 613 L 644 636 L 658 651 L 680 648 L 693 634 L 690 615 L 697 599 L 690 582 L 679 570 L 676 555 L 695 558 L 709 565 L 726 557 L 741 546 L 747 540 L 740 536 L 734 541 L 727 538 L 720 540 L 712 540 L 703 540 L 695 539 L 686 540 L 683 527 L 671 508 L 693 493 L 709 513 L 731 502 L 750 512 L 771 522 L 776 503 L 800 493 L 806 517 L 826 496 L 846 510 L 872 509 L 886 487 L 912 475 L 947 476 L 978 484 L 978 456 L 973 422 L 967 393 L 988 369 L 1001 338 L 1037 354 L 1021 378 L 1005 405 L 1006 435 L 1011 463 L 1010 490 L 990 510 L 968 512 L 948 507 L 925 503 L 902 509 L 892 533 L 893 542 L 899 539 L 906 538 L 913 541 L 918 535 L 925 540 L 933 538 L 943 538 L 952 539 L 962 540 L 972 539 L 981 539 L 990 540 L 999 539 L 1008 540 L 1018 539 L 1027 539 L 1036 539 L 1045 536 L 1045 544 L 1054 539 L 1063 539 L 1071 539 L 1079 539 L 1087 538 L 1095 538 L 1103 538 L 1111 539 L 1118 537 L 1124 540 L 1131 536 L 1137 539 L 1145 539 L 1152 523 L 1164 505 L 1184 517 L 1203 508 L 1225 512 L 1223 486 L 1219 461 L 1213 434 L 1190 413 L 1171 392 L 1154 366 L 1145 331 L 1155 294 L 1177 259 L 1182 215 L 1218 210 L 1206 174 L 1206 135 L 1182 105 L 1213 91 L 1249 103 L 1247 141 L 1249 181 L 1252 227 L 1215 251 L 1249 272 L 1245 312 L 1203 294 L 1186 329 L 1194 368 L 1222 347 L 1253 352 L 1252 391 L 1221 396 L 1250 428 L 1252 460 L 1255 488 L 1252 511 L 1241 534 L 1244 541 L 1251 538 L 1259 539 L 1265 537 L 1261 556 L 1247 560 L 1231 554 L 1233 539 L 1225 538 L 1218 544 L 1215 537 L 1207 540 L 1199 538 L 1191 540 L 1183 539 L 1176 539 L 1168 539 L 1160 539 L 1152 540 L 1162 555 L 1159 571 L 1146 561 L 1132 554 L 1115 557 L 1096 558 L 1078 559 L 1080 579 L 1098 576 L 1113 574 L 1129 571 L 1142 578 L 1130 591 L 1114 592 L 1097 595 L 1080 599 L 1063 592 L 1061 573 L 1059 556 L 1040 562 L 1044 583 L 1025 572 L 1019 554 L 1005 572 L 997 557 L 977 556 L 960 563 L 943 555 L 926 561 L 910 572 L 906 555 L 891 566 L 882 552 L 871 561 L 857 568 L 854 553 L 885 539 L 879 537 L 873 540 L 865 538 L 855 538 L 844 539 L 833 539 L 822 539 L 811 540 L 802 540 L 793 539 L 786 539 L 779 540 L 772 539 L 767 541 L 761 539 L 754 539 L 755 553 L 773 558 L 788 555 L 783 573 L 797 567 L 812 569 L 805 554 L 821 554 L 837 555 L 842 570 L 827 570 L 834 585 L 851 587 L 855 604 L 855 624 L 838 639 L 837 658 L 821 672 L 806 660 L 814 646 L 816 630 L 834 619 L 831 602 L 814 613 L 806 599 L 817 586 L 800 582 L 788 592 L 775 601 L 759 608 L 752 627 L 775 621 L 794 615 L 793 637 L 784 660 L 764 670 L 772 640 L 756 650 L 737 657 L 733 637 L 732 617 L 741 602 L 757 588 L 770 580 L 759 568 L 743 566 L 740 584 L 726 576 L 711 584 L 719 601 L 712 622 L 714 645 L 698 660 L 692 679 L 671 668 L 675 689 L 654 688 L 627 685 L 645 669 L 627 654 L 608 667 L 587 678 L 568 687 L 547 682 L 565 661 L 555 640 L 554 618 L 537 605 L 530 631 L 519 655 L 540 658 L 526 680 L 506 689 L 503 669 L 483 675 L 484 692 L 479 709 L 499 709 L 520 707 L 540 706 L 562 708 L 587 707 L 604 692 L 617 709 L 641 707 L 664 709 L 687 707 L 708 708 L 708 688 L 720 668 L 745 678 L 728 690 L 731 710 L 751 702 L 770 709 L 775 688 L 797 681 L 794 706 L 817 710 L 819 692 L 840 707 L 863 709 L 855 690 L 839 681 L 859 666 L 863 644 L 878 623 L 876 601 L 868 581 L 887 583 L 906 590 L 897 609 L 908 627 L 923 607 L 937 628 L 962 628 L 962 652 L 987 649 L 1014 662 L 1036 650 L 1010 637 L 1030 622 L 1009 611 L 988 623 L 972 607 L 947 602 L 928 585 L 945 576 L 966 585 L 984 574 L 990 594 L 1011 589 L 1029 597 L 1048 606 L 1069 617 L 1051 629 L 1063 646 L 1081 635 L 1094 652 L 1103 671 L 1084 687 L 1077 667 L 1056 670 L 1039 680 L 1019 688 L 997 679 L 975 675 L 953 681 L 927 679 L 940 657 L 920 647 L 907 663 L 900 685 L 891 643 L 882 664 L 876 685 L 884 706 L 904 708 L 923 704 L 943 706 L 965 706 L 985 703 L 1009 708 L 1038 707 L 1064 703 L 1093 708 L 1121 709 L 1112 690 L 1127 670 L 1116 651 L 1137 649 L 1155 641 L 1154 659 L 1147 676 L 1136 692 L 1147 709 L 1168 708 L 1162 690 L 1170 672 L 1191 669 L 1177 651 L 1170 633 L 1174 616 L 1161 604 L 1155 622 L 1138 629 L 1121 630 L 1103 633 L 1091 616 L 1110 611 L 1126 611 L 1142 610 L 1145 595 L 1157 587 L 1172 586 L 1179 600 L 1195 594 L 1188 578 L 1176 568 L 1180 554 L 1196 560 L 1214 563 L 1206 579 L 1223 584 L 1232 570 L 1246 581 L 1261 576 L 1259 597 L 1236 597 L 1242 615 L 1259 619 L 1241 635 L 1259 641 L 1255 661 L 1258 683 L 1237 692 L 1234 673 L 1229 653 L 1220 635 L 1223 614 L 1212 600 L 1194 612 L 1206 624 L 1188 632 L 1201 648 L 1211 666 L 1188 689 L 1187 709 L 1207 707 L 1212 687 L 1229 709 L 1256 707 " stroke="black" stroke-width="3" fill="none"/> 
 </svg>