<?xml version="1.0" ?>
<!DOCTYPE svg PUBLIC "-//W3C//DTD SVG 1.1//EN" "http://www.w3.org/Graphics/SVG/1.1/DTD/svg11.dtd">
<svg width="1080" height="934" version="1.1" xmlns="http://www.w3.org/2000/svg">
<path d="M307 13 L 325 40 L 329 68 L 336 97 L 337 129 L 316 149 L 302 177 L 263 186 L 282 209 L 255 231 L 230 208 L 231 179 L 208 156 L 202 128 L 185 103 L 158 92 L 157 131 L 120 125 L 127 97 L 98 84 L 65 54 L 99 49 L 131 61 L 164 55 L 193 67 L 213 41 L 217 95 L 230 66 L 258 49 L 277 83 L 250 89 L 270 117 L 238 121 L 241 149 L 270 155 L 291 138 L 305 113 L 305 85 L 295 58 L 287 34 L 270 13 L 240 17 L 207 13 L 177 20 L 144 20 L 112 17 L 79 17 L 47 20 L 16 11 L 14 36 L 22 57 L 13 89 L 43 78 L 69 94 L 41 110 L 51 140 L 14 125 L 14 157 L 38 173 L 67 177 L 86 153 L 86 121 L 123 153 L 107 182 L 85 205 L 76 237 L 42 239 L 48 208 L 14 194 L 14 227 L 15 262 L 20 295 L 13 329 L 42 330 L 59 301 L 52 269 L 87 275 L 108 247 L 121 214 L 160 209 L 145 178 L 173 158 L 192 185 L 195 214 L 179 244 L 143 244 L 127 282 L 97 310 L 76 336 L 52 365 L 16 365 L 13 402 L 19 436 L 16 469 L 14 502 L 43 502 L 75 503 L 93 475 L 110 500 L 139 508 L 164 500 L 174 475 L 203 468 L 186 445 L 189 416 L 174 387 L 198 362 L 223 336 L 192 320 L 158 353 L 125 382 L 145 409 L 153 440 L 139 474 L 119 448 L 106 416 L 82 445 L 52 468 L 54 430 L 42 398 L 76 400 L 88 369 L 116 349 L 130 321 L 160 310 L 165 277 L 200 279 L 216 241 L 237 265 L 231 298 L 254 320 L 261 352 L 235 371 L 221 398 L 224 430 L 229 456 L 248 478 L 265 494 L 254 515 L 230 510 L 223 486 L 201 503 L 182 516 L 184 539 L 192 539 L 200 539 L 209 539 L 218 540 L 227 539 L 235 539 L 243 539 L 251 538 L 257 544 L 262 538 L 271 539 L 275 556 L 286 569 L 299 558 L 317 558 L 318 576 L 299 582 L 284 595 L 298 608 L 314 599 L 332 594 L 351 588 L 366 576 L 371 597 L 381 614 L 406 627 L 405 606 L 392 589 L 414 581 L 424 597 L 442 593 L 441 574 L 458 579 L 468 592 L 457 608 L 453 626 L 432 615 L 427 634 L 443 644 L 451 663 L 431 660 L 414 650 L 395 649 L 390 668 L 366 676 L 351 651 L 371 653 L 382 633 L 357 629 L 349 610 L 328 621 L 307 625 L 308 645 L 330 645 L 313 666 L 319 687 L 289 682 L 264 686 L 246 670 L 267 662 L 288 658 L 267 640 L 286 634 L 277 614 L 258 619 L 246 646 L 228 656 L 213 642 L 227 632 L 242 624 L 225 607 L 216 588 L 231 582 L 242 599 L 261 598 L 271 580 L 250 579 L 261 563 L 245 559 L 231 566 L 228 552 L 213 563 L 195 558 L 178 553 L 176 539 L 168 539 L 161 537 L 152 538 L 143 538 L 132 538 L 120 538 L 108 538 L 95 537 L 83 538 L 71 538 L 59 537 L 47 538 L 37 540 L 27 537 L 17 539 L 5 538 L 10 559 L 10 578 L 11 598 L 7 615 L 8 635 L 8 658 L 9 681 L 8 706 L 27 711 L 27 695 L 28 677 L 27 660 L 25 642 L 22 620 L 35 607 L 53 611 L 69 603 L 86 600 L 102 608 L 106 590 L 87 580 L 68 578 L 50 587 L 30 588 L 29 565 L 47 564 L 63 556 L 81 560 L 99 556 L 120 558 L 139 559 L 156 555 L 171 564 L 160 574 L 143 578 L 125 579 L 106 572 L 124 600 L 142 598 L 162 591 L 159 610 L 177 604 L 183 589 L 181 573 L 200 578 L 202 598 L 193 613 L 211 619 L 196 631 L 177 621 L 165 633 L 181 642 L 164 654 L 148 624 L 133 619 L 115 620 L 108 636 L 87 622 L 86 643 L 65 650 L 66 628 L 41 628 L 47 645 L 47 665 L 45 687 L 48 709 L 62 694 L 70 710 L 89 708 L 108 707 L 125 711 L 126 695 L 134 678 L 114 679 L 98 690 L 80 687 L 63 674 L 79 664 L 96 669 L 106 654 L 124 661 L 129 640 L 149 642 L 143 658 L 151 673 L 146 694 L 144 711 L 163 708 L 180 709 L 176 690 L 160 688 L 170 673 L 183 662 L 197 652 L 210 665 L 225 677 L 213 691 L 195 676 L 193 693 L 197 709 L 214 709 L 232 708 L 240 691 L 254 708 L 278 707 L 302 706 L 330 708 L 340 671 L 347 692 L 359 710 L 375 697 L 392 709 L 394 686 L 412 693 L 417 710 L 440 710 L 431 695 L 414 673 L 438 679 L 462 679 L 456 694 L 458 711 L 474 705 L 490 711 L 506 706 L 523 706 L 541 706 L 562 707 L 586 707 L 603 695 L 618 709 L 642 707 L 665 709 L 687 706 L 707 708 L 708 687 L 692 679 L 700 661 L 713 645 L 721 668 L 728 690 L 731 710 L 751 702 L 744 678 L 763 671 L 782 661 L 775 688 L 770 709 L 794 706 L 797 680 L 818 692 L 817 710 L 839 707 L 861 709 L 882 707 L 903 709 L 897 690 L 890 672 L 873 685 L 854 690 L 837 681 L 819 672 L 808 657 L 791 642 L 772 632 L 759 648 L 739 656 L 734 637 L 751 625 L 759 608 L 777 610 L 791 623 L 795 603 L 813 597 L 814 580 L 832 588 L 809 617 L 813 639 L 826 624 L 829 606 L 849 602 L 850 584 L 867 592 L 883 605 L 865 616 L 883 629 L 860 641 L 846 623 L 835 641 L 837 658 L 857 666 L 876 656 L 896 648 L 910 666 L 923 648 L 942 638 L 957 621 L 971 603 L 966 582 L 989 586 L 994 606 L 1010 590 L 1020 608 L 1005 623 L 1008 641 L 988 652 L 981 627 L 965 646 L 948 661 L 933 676 L 918 688 L 924 708 L 943 705 L 956 686 L 973 671 L 967 709 L 983 697 L 996 679 L 1011 664 L 1018 690 L 1003 708 L 1034 709 L 1046 692 L 1034 671 L 1031 648 L 1031 627 L 1053 628 L 1051 655 L 1068 644 L 1074 620 L 1094 616 L 1111 610 L 1127 611 L 1143 610 L 1155 621 L 1138 628 L 1121 630 L 1105 632 L 1086 637 L 1080 663 L 1062 678 L 1067 707 L 1086 687 L 1097 708 L 1124 709 L 1149 709 L 1138 692 L 1129 669 L 1115 689 L 1105 671 L 1099 652 L 1119 650 L 1138 648 L 1156 641 L 1155 659 L 1147 675 L 1171 671 L 1162 689 L 1169 707 L 1187 710 L 1206 707 L 1212 685 L 1188 689 L 1193 669 L 1214 662 L 1199 647 L 1187 632 L 1177 651 L 1170 633 L 1174 616 L 1161 604 L 1146 595 L 1131 592 L 1116 590 L 1099 594 L 1082 599 L 1083 577 L 1069 586 L 1062 604 L 1043 607 L 1031 591 L 1049 586 L 1061 571 L 1060 555 L 1078 559 L 1096 558 L 1099 576 L 1114 573 L 1129 571 L 1142 578 L 1146 561 L 1133 554 L 1115 557 L 1111 539 L 1103 538 L 1095 538 L 1087 538 L 1079 539 L 1071 539 L 1062 539 L 1054 539 L 1045 537 L 1044 547 L 1042 565 L 1026 574 L 1022 556 L 1007 571 L 998 557 L 983 569 L 975 556 L 957 560 L 946 576 L 946 598 L 931 618 L 909 629 L 903 609 L 923 597 L 926 577 L 934 557 L 912 561 L 905 584 L 887 585 L 873 573 L 892 566 L 896 550 L 882 553 L 868 556 L 857 569 L 852 554 L 836 554 L 841 569 L 827 569 L 813 564 L 805 553 L 789 556 L 774 557 L 798 569 L 796 585 L 778 591 L 782 573 L 764 575 L 759 590 L 741 601 L 720 601 L 731 617 L 712 623 L 692 633 L 683 649 L 671 668 L 676 688 L 655 688 L 646 669 L 661 648 L 642 644 L 642 622 L 655 606 L 665 584 L 677 600 L 668 626 L 691 615 L 700 598 L 692 581 L 679 571 L 677 556 L 695 558 L 710 564 L 712 583 L 727 576 L 742 583 L 759 560 L 753 549 L 744 565 L 726 557 L 727 539 L 720 540 L 712 540 L 703 540 L 695 539 L 687 540 L 682 531 L 671 509 L 641 515 L 620 505 L 651 491 L 635 473 L 629 447 L 624 427 L 625 407 L 627 387 L 608 393 L 599 413 L 589 418 L 590 426 L 571 423 L 558 430 L 574 438 L 593 434 L 590 442 L 588 451 L 610 460 L 605 483 L 595 506 L 582 525 L 588 531 L 578 532 L 573 526 L 570 534 L 565 530 L 565 524 L 567 517 L 568 510 L 567 502 L 564 494 L 561 487 L 554 488 L 549 494 L 544 489 L 538 493 L 540 513 L 558 527 L 560 536 L 555 541 L 562 547 L 569 541 L 576 540 L 584 540 L 592 541 L 601 540 L 611 539 L 621 539 L 631 540 L 641 540 L 651 540 L 659 536 L 668 539 L 676 540 L 660 547 L 659 565 L 640 562 L 645 588 L 627 580 L 617 561 L 596 564 L 577 562 L 562 573 L 583 586 L 606 584 L 625 605 L 602 605 L 598 627 L 619 633 L 623 658 L 628 686 L 608 672 L 595 652 L 586 677 L 568 686 L 548 681 L 527 681 L 506 682 L 489 693 L 482 679 L 473 662 L 462 645 L 482 643 L 476 624 L 482 605 L 500 619 L 503 639 L 496 662 L 518 656 L 527 630 L 550 640 L 540 659 L 567 660 L 575 635 L 578 611 L 561 596 L 553 619 L 537 605 L 517 606 L 501 594 L 484 582 L 504 575 L 517 563 L 530 557 L 523 583 L 543 583 L 545 564 L 546 547 L 550 538 L 541 538 L 534 539 L 525 538 L 525 530 L 520 523 L 511 524 L 503 522 L 503 513 L 506 504 L 505 494 L 507 485 L 501 481 L 496 475 L 491 468 L 486 461 L 482 453 L 481 444 L 474 440 L 476 431 L 475 422 L 477 412 L 478 403 L 480 394 L 493 408 L 504 394 L 484 385 L 487 376 L 492 368 L 496 359 L 504 355 L 508 364 L 502 379 L 518 379 L 528 388 L 522 401 L 536 411 L 523 422 L 509 410 L 508 426 L 492 427 L 500 443 L 507 457 L 514 471 L 516 488 L 523 492 L 531 491 L 530 476 L 544 473 L 546 458 L 561 468 L 568 482 L 576 476 L 580 468 L 586 460 L 574 454 L 561 450 L 549 442 L 526 459 L 519 441 L 534 445 L 539 428 L 551 414 L 564 408 L 576 410 L 588 408 L 588 401 L 583 397 L 583 389 L 576 387 L 571 392 L 564 388 L 554 384 L 556 396 L 542 396 L 539 376 L 554 366 L 569 371 L 582 377 L 589 384 L 594 378 L 599 374 L 601 367 L 607 360 L 610 369 L 618 368 L 627 368 L 624 355 L 636 348 L 648 352 L 649 344 L 652 338 L 649 330 L 648 322 L 644 314 L 635 321 L 635 308 L 622 314 L 609 319 L 607 308 L 592 306 L 596 320 L 602 332 L 610 332 L 617 329 L 625 328 L 632 333 L 626 340 L 618 343 L 612 349 L 607 341 L 596 350 L 592 363 L 583 361 L 581 346 L 569 354 L 554 348 L 567 337 L 582 331 L 593 337 L 582 319 L 576 308 L 566 321 L 551 332 L 538 330 L 525 334 L 538 345 L 540 359 L 525 364 L 521 348 L 505 345 L 510 335 L 516 325 L 526 318 L 538 314 L 549 320 L 554 313 L 555 304 L 563 303 L 569 297 L 576 294 L 584 294 L 592 293 L 600 293 L 608 295 L 617 297 L 625 302 L 635 289 L 660 287 L 685 276 L 703 252 L 736 254 L 749 220 L 766 244 L 758 280 L 773 307 L 773 338 L 752 360 L 777 377 L 794 401 L 783 431 L 760 456 L 759 484 L 728 477 L 729 446 L 717 423 L 697 403 L 713 389 L 722 393 L 732 398 L 756 422 L 746 399 L 739 391 L 729 386 L 720 379 L 712 374 L 703 369 L 704 385 L 697 382 L 688 381 L 689 375 L 695 363 L 687 358 L 704 332 L 728 346 L 739 316 L 722 284 L 702 304 L 676 316 L 661 342 L 668 349 L 678 352 L 676 363 L 680 376 L 671 372 L 662 368 L 653 364 L 643 360 L 635 365 L 647 392 L 669 397 L 653 419 L 657 446 L 671 471 L 682 419 L 689 443 L 701 466 L 693 494 L 710 513 L 733 503 L 756 509 L 764 524 L 740 532 L 735 540 L 741 544 L 747 540 L 755 539 L 762 540 L 770 540 L 776 533 L 778 541 L 787 540 L 793 534 L 799 541 L 808 539 L 819 539 L 822 550 L 831 539 L 843 539 L 854 538 L 865 538 L 873 539 L 880 536 L 886 540 L 892 536 L 898 539 L 905 539 L 912 538 L 919 540 L 926 538 L 934 538 L 943 539 L 952 539 L 962 539 L 972 539 L 981 539 L 990 540 L 999 539 L 1008 540 L 1017 539 L 1027 539 L 1036 539 L 1023 517 L 1038 504 L 1041 475 L 1071 468 L 1067 497 L 1063 518 L 1092 496 L 1111 512 L 1118 537 L 1124 540 L 1131 536 L 1137 539 L 1145 539 L 1152 541 L 1162 556 L 1179 554 L 1196 560 L 1188 578 L 1175 569 L 1159 571 L 1157 586 L 1172 586 L 1179 600 L 1194 594 L 1194 612 L 1206 625 L 1219 638 L 1236 651 L 1234 672 L 1236 692 L 1228 709 L 1256 708 L 1258 684 L 1257 662 L 1258 641 L 1260 619 L 1259 596 L 1261 575 L 1245 579 L 1236 595 L 1243 610 L 1239 630 L 1223 614 L 1212 599 L 1224 582 L 1205 579 L 1213 564 L 1221 552 L 1232 565 L 1247 558 L 1261 556 L 1265 537 L 1259 539 L 1251 537 L 1244 540 L 1238 536 L 1232 541 L 1224 538 L 1215 538 L 1207 539 L 1199 538 L 1191 540 L 1183 539 L 1176 539 L 1168 539 L 1160 539 L 1152 526 L 1164 507 L 1184 518 L 1203 508 L 1224 513 L 1250 512 L 1255 490 L 1252 462 L 1250 429 L 1212 435 L 1218 462 L 1223 487 L 1188 489 L 1185 463 L 1170 439 L 1147 414 L 1139 451 L 1156 478 L 1138 505 L 1122 481 L 1102 458 L 1113 428 L 1118 393 L 1117 363 L 1097 340 L 1083 404 L 1074 435 L 1040 441 L 1045 405 L 1071 373 L 1064 335 L 1065 304 L 1091 279 L 1111 310 L 1153 294 L 1146 332 L 1153 367 L 1171 392 L 1190 414 L 1221 397 L 1252 391 L 1253 353 L 1222 348 L 1195 369 L 1187 329 L 1202 294 L 1244 312 L 1249 272 L 1215 251 L 1177 259 L 1143 241 L 1123 269 L 1108 211 L 1091 176 L 1090 143 L 1126 150 L 1130 180 L 1148 206 L 1182 215 L 1218 210 L 1252 226 L 1248 180 L 1247 141 L 1248 102 L 1249 62 L 1256 20 L 1230 22 L 1203 14 L 1178 25 L 1151 15 L 1119 16 L 1089 17 L 1059 13 L 1074 49 L 1107 49 L 1140 50 L 1175 62 L 1210 54 L 1212 91 L 1181 105 L 1206 135 L 1205 174 L 1168 166 L 1158 130 L 1124 118 L 1096 107 L 1152 88 L 1122 83 L 1091 76 L 1066 87 L 1042 69 L 1012 80 L 1041 104 L 1070 118 L 1053 141 L 1021 145 L 1016 175 L 1026 211 L 1053 174 L 1067 204 L 1062 235 L 1096 241 L 1060 269 L 1033 247 L 1005 248 L 980 260 L 960 280 L 931 275 L 909 256 L 881 262 L 895 291 L 912 316 L 943 309 L 974 316 L 997 294 L 1027 282 L 1029 317 L 1001 338 L 1037 354 L 1021 378 L 1005 406 L 1006 435 L 1011 465 L 1010 491 L 1003 518 L 988 508 L 967 512 L 947 508 L 924 503 L 901 511 L 911 475 L 946 477 L 978 484 L 977 456 L 972 422 L 967 393 L 988 369 L 962 348 L 931 342 L 937 377 L 932 412 L 950 442 L 927 452 L 905 437 L 892 410 L 901 385 L 905 357 L 883 334 L 868 363 L 859 390 L 858 418 L 876 437 L 881 462 L 886 488 L 870 509 L 842 507 L 815 503 L 786 508 L 790 482 L 796 458 L 824 471 L 854 479 L 845 446 L 814 434 L 828 409 L 827 376 L 804 354 L 808 322 L 842 340 L 865 310 L 833 301 L 800 289 L 791 261 L 826 265 L 856 278 L 855 240 L 888 229 L 882 198 L 872 168 L 894 135 L 919 109 L 889 91 L 863 110 L 855 141 L 822 131 L 835 168 L 801 171 L 816 199 L 851 203 L 826 231 L 795 228 L 779 201 L 768 165 L 745 189 L 730 156 L 722 122 L 757 131 L 791 141 L 789 108 L 750 95 L 712 85 L 690 154 L 711 188 L 718 222 L 686 217 L 668 244 L 643 259 L 613 263 L 586 270 L 579 247 L 587 219 L 615 197 L 620 233 L 649 212 L 675 185 L 646 171 L 614 161 L 651 134 L 688 120 L 671 92 L 633 97 L 608 122 L 583 149 L 578 184 L 554 207 L 549 236 L 552 270 L 523 283 L 524 251 L 496 249 L 478 270 L 497 295 L 486 327 L 461 338 L 464 366 L 447 387 L 451 415 L 424 412 L 420 439 L 446 443 L 443 470 L 462 469 L 478 481 L 473 502 L 451 513 L 438 494 L 415 513 L 408 493 L 420 468 L 392 476 L 369 475 L 350 488 L 327 498 L 338 516 L 336 538 L 345 539 L 352 538 L 360 539 L 368 538 L 361 512 L 384 504 L 384 527 L 377 539 L 385 541 L 394 539 L 401 537 L 409 539 L 419 539 L 428 541 L 428 532 L 438 538 L 448 538 L 458 538 L 469 538 L 481 538 L 494 538 L 496 528 L 504 532 L 515 532 L 516 540 L 506 539 L 502 555 L 489 565 L 479 552 L 472 567 L 458 558 L 442 555 L 428 566 L 417 557 L 401 561 L 386 570 L 372 557 L 353 558 L 339 571 L 334 554 L 328 538 L 320 538 L 310 539 L 301 538 L 291 538 L 281 539 L 282 513 L 309 516 L 299 492 L 323 476 L 343 459 L 345 430 L 370 447 L 398 453 L 393 427 L 367 415 L 398 400 L 419 379 L 437 354 L 410 342 L 433 316 L 467 307 L 451 282 L 423 281 L 389 278 L 396 312 L 374 338 L 391 366 L 372 386 L 345 394 L 322 408 L 317 435 L 306 459 L 281 472 L 259 451 L 286 437 L 293 405 L 257 419 L 264 389 L 290 367 L 318 377 L 350 362 L 344 329 L 316 343 L 288 328 L 279 295 L 270 265 L 294 241 L 316 212 L 339 188 L 345 162 L 372 149 L 404 153 L 382 188 L 354 216 L 333 243 L 314 273 L 319 304 L 358 299 L 358 265 L 381 233 L 412 250 L 450 244 L 482 220 L 515 212 L 533 183 L 549 155 L 525 131 L 504 105 L 483 79 L 518 70 L 545 91 L 565 119 L 585 86 L 616 62 L 650 59 L 684 55 L 716 48 L 746 57 L 777 73 L 784 43 L 822 53 L 807 80 L 831 98 L 855 72 L 865 43 L 895 54 L 920 68 L 946 46 L 949 84 L 954 121 L 934 149 L 909 171 L 915 203 L 928 231 L 955 237 L 984 220 L 989 189 L 949 192 L 971 160 L 989 134 L 1014 114 L 982 98 L 979 65 L 1012 47 L 1045 39 L 1026 15 L 995 13 L 979 35 L 956 13 L 923 20 L 894 17 L 864 12 L 839 21 L 813 18 L 787 12 L 757 19 L 728 16 L 695 17 L 663 18 L 631 22 L 599 16 L 584 48 L 548 51 L 560 16 L 521 16 L 501 43 L 465 46 L 479 14 L 441 17 L 408 14 L 398 42 L 396 73 L 421 94 L 428 52 L 449 78 L 459 111 L 483 137 L 505 165 L 478 183 L 450 205 L 415 215 L 423 181 L 451 158 L 429 130 L 395 115 L 363 116 L 369 87 L 357 60 L 367 37 L 375 12 L 341 14 " stroke="black" stroke-width="3" fill="none"/> 
 </svg>