<?xml version="1.0" ?>
<!DOCTYPE svg PUBLIC "-//W3C//DTD SVG 1.1//EN" "http://www.w3.org/Graphics/SVG/1.1/DTD/svg11.dtd">
<svg width="1080" height="934" version="1.1" xmlns="http://www.w3.org/2000/svg">
<path d="M865 12 L 839 21 L 813 18 L 786 13 L 757 19 L 728 16 L 695 17 L 663 19 L 631 22 L 599 16 L 584 48 L 616 62 L 650 58 L 684 55 L 716 48 L 746 57 L 776 73 L 784 43 L 823 53 L 807 79 L 831 98 L 822 131 L 791 140 L 789 108 L 757 130 L 750 95 L 712 85 L 722 122 L 687 120 L 670 91 L 632 97 L 650 133 L 690 154 L 675 185 L 647 171 L 615 160 L 615 196 L 587 218 L 579 246 L 585 269 L 613 262 L 620 232 L 649 212 L 686 217 L 668 245 L 643 257 L 636 285 L 662 286 L 686 277 L 703 251 L 719 222 L 710 187 L 729 156 L 767 165 L 745 189 L 750 220 L 779 200 L 794 227 L 825 232 L 825 266 L 796 291 L 760 284 L 793 260 L 767 246 L 737 254 L 723 283 L 739 316 L 774 319 L 761 348 L 731 350 L 706 333 L 703 304 L 677 316 L 661 342 L 668 349 L 653 364 L 662 368 L 671 373 L 676 363 L 678 352 L 687 358 L 695 363 L 703 369 L 712 374 L 720 380 L 729 386 L 747 379 L 776 378 L 794 400 L 745 399 L 734 396 L 722 394 L 713 389 L 705 385 L 697 382 L 688 381 L 689 375 L 680 376 L 669 398 L 682 421 L 697 405 L 717 423 L 730 447 L 761 455 L 756 422 L 783 430 L 815 434 L 827 407 L 823 373 L 798 351 L 811 322 L 833 300 L 858 278 L 884 262 L 897 290 L 911 317 L 882 334 L 865 310 L 841 340 L 868 363 L 857 388 L 857 417 L 844 446 L 854 479 L 824 471 L 796 457 L 790 482 L 759 483 L 757 508 L 764 523 L 778 530 L 787 508 L 815 503 L 841 507 L 869 509 L 885 487 L 900 509 L 924 503 L 947 507 L 967 511 L 988 509 L 1005 516 L 1025 518 L 1038 503 L 1041 475 L 1071 467 L 1066 496 L 1064 517 L 1092 495 L 1111 512 L 1138 505 L 1152 525 L 1152 541 L 1145 539 L 1137 539 L 1130 536 L 1124 541 L 1118 537 L 1111 540 L 1103 538 L 1095 538 L 1087 538 L 1079 539 L 1071 539 L 1062 539 L 1054 539 L 1045 537 L 1036 539 L 1027 539 L 1017 540 L 1008 540 L 999 539 L 990 540 L 981 539 L 972 539 L 962 539 L 952 539 L 943 539 L 934 538 L 925 541 L 919 536 L 913 541 L 907 537 L 900 539 L 892 534 L 893 542 L 885 540 L 879 535 L 873 540 L 864 538 L 854 538 L 843 539 L 831 539 L 819 539 L 809 538 L 800 540 L 793 538 L 786 540 L 778 540 L 770 540 L 762 540 L 755 539 L 747 540 L 741 545 L 753 551 L 760 560 L 774 558 L 789 556 L 805 553 L 813 565 L 821 553 L 836 554 L 852 554 L 867 556 L 882 554 L 893 566 L 904 551 L 912 563 L 925 578 L 933 560 L 951 557 L 963 569 L 972 555 L 985 566 L 1000 556 L 1008 571 L 1023 556 L 1027 572 L 1042 563 L 1045 546 L 1060 555 L 1063 570 L 1067 587 L 1064 604 L 1070 623 L 1087 624 L 1105 630 L 1122 632 L 1139 629 L 1156 621 L 1175 616 L 1161 604 L 1143 610 L 1127 613 L 1113 609 L 1098 611 L 1082 601 L 1083 578 L 1079 559 L 1097 557 L 1115 557 L 1132 555 L 1129 572 L 1113 574 L 1098 575 L 1099 592 L 1116 590 L 1130 593 L 1146 595 L 1142 578 L 1146 561 L 1162 556 L 1160 539 L 1168 539 L 1176 539 L 1183 539 L 1191 540 L 1199 538 L 1207 540 L 1221 553 L 1213 565 L 1232 565 L 1246 558 L 1258 539 L 1251 537 L 1244 540 L 1238 536 L 1232 541 L 1224 538 L 1215 538 L 1225 513 L 1203 508 L 1184 518 L 1165 506 L 1156 477 L 1146 413 L 1139 450 L 1122 480 L 1102 458 L 1074 435 L 1045 405 L 1040 441 L 1006 435 L 973 422 L 967 393 L 939 376 L 932 411 L 906 437 L 927 452 L 950 441 L 978 456 L 1011 464 L 1010 490 L 978 483 L 947 476 L 911 475 L 881 462 L 875 437 L 890 409 L 902 385 L 904 356 L 931 344 L 943 314 L 970 307 L 964 345 L 987 369 L 999 337 L 1031 317 L 1036 353 L 1021 378 L 1005 405 L 1071 372 L 1084 403 L 1112 427 L 1118 393 L 1116 362 L 1097 340 L 1112 309 L 1064 336 L 1066 304 L 1059 269 L 1061 235 L 1096 242 L 1091 279 L 1124 270 L 1143 241 L 1109 211 L 1129 180 L 1126 151 L 1159 131 L 1168 167 L 1149 206 L 1182 215 L 1218 210 L 1206 174 L 1206 135 L 1182 105 L 1213 91 L 1211 54 L 1176 63 L 1152 89 L 1125 118 L 1097 107 L 1091 144 L 1091 177 L 1068 205 L 1051 175 L 1053 142 L 1070 118 L 1041 105 L 1014 114 L 1012 81 L 982 99 L 954 121 L 920 109 L 894 135 L 934 148 L 910 173 L 884 198 L 915 209 L 940 225 L 948 188 L 973 161 L 988 134 L 1021 146 L 1014 175 L 989 196 L 972 222 L 999 241 L 1027 211 L 1030 247 L 1024 280 L 1000 301 L 981 272 L 955 254 L 936 283 L 916 253 L 886 230 L 855 242 L 851 204 L 817 200 L 802 171 L 835 168 L 872 168 L 855 141 L 863 110 L 889 91 L 855 73 L 864 43 L 895 53 L 920 69 L 949 85 L 946 47 L 894 17 L 923 20 L 956 13 L 979 65 L 979 36 L 995 13 L 1026 15 L 1012 47 L 1042 69 L 1066 86 L 1092 76 L 1122 82 L 1141 50 L 1108 49 L 1074 49 L 1044 39 L 1059 14 L 1089 17 L 1120 16 L 1151 15 L 1177 25 L 1203 14 L 1230 22 L 1256 20 L 1249 62 L 1249 103 L 1247 141 L 1249 181 L 1252 227 L 1249 272 L 1245 312 L 1222 347 L 1253 352 L 1252 391 L 1221 396 L 1194 368 L 1186 329 L 1203 294 L 1215 251 L 1177 259 L 1155 294 L 1145 331 L 1153 366 L 1171 392 L 1190 413 L 1170 439 L 1186 462 L 1188 488 L 1223 487 L 1219 461 L 1213 434 L 1250 428 L 1252 460 L 1255 488 L 1252 512 L 1265 537 L 1261 556 L 1261 575 L 1245 579 L 1259 596 L 1260 619 L 1239 630 L 1258 641 L 1257 663 L 1258 684 L 1256 708 L 1234 672 L 1236 692 L 1229 709 L 1207 707 L 1212 685 L 1214 662 L 1236 651 L 1219 638 L 1223 614 L 1243 611 L 1235 595 L 1224 582 L 1212 599 L 1205 580 L 1188 578 L 1196 560 L 1180 554 L 1176 569 L 1159 571 L 1157 586 L 1172 586 L 1179 600 L 1195 594 L 1194 612 L 1206 625 L 1188 632 L 1199 648 L 1193 669 L 1188 689 L 1187 709 L 1169 707 L 1149 709 L 1138 692 L 1128 670 L 1155 659 L 1147 675 L 1162 689 L 1171 672 L 1177 652 L 1170 633 L 1156 641 L 1139 648 L 1121 652 L 1103 651 L 1086 644 L 1068 647 L 1051 658 L 1051 634 L 1047 615 L 1044 598 L 1048 581 L 1030 589 L 1023 608 L 1029 627 L 1031 649 L 1010 642 L 1005 624 L 998 606 L 1011 590 L 992 585 L 971 585 L 977 604 L 983 627 L 968 644 L 989 652 L 977 673 L 998 680 L 1012 664 L 1034 672 L 1046 692 L 1063 679 L 1081 666 L 1104 671 L 1114 689 L 1123 709 L 1097 708 L 1086 689 L 1067 707 L 1034 710 L 1019 691 L 1004 709 L 983 699 L 967 709 L 944 706 L 924 707 L 958 687 L 958 663 L 937 660 L 935 680 L 912 666 L 916 687 L 896 691 L 903 709 L 882 708 L 861 709 L 839 707 L 837 681 L 854 690 L 874 685 L 891 671 L 859 668 L 842 659 L 836 640 L 860 641 L 876 656 L 896 648 L 883 630 L 866 616 L 847 623 L 849 603 L 867 592 L 882 604 L 899 610 L 909 628 L 921 645 L 944 639 L 958 622 L 955 602 L 948 580 L 936 596 L 932 619 L 917 602 L 905 585 L 887 584 L 874 572 L 858 570 L 850 585 L 842 570 L 827 570 L 832 588 L 830 606 L 826 624 L 810 616 L 810 637 L 789 641 L 791 622 L 771 631 L 758 648 L 751 626 L 759 609 L 777 610 L 778 591 L 795 603 L 813 597 L 814 580 L 796 585 L 798 569 L 781 573 L 763 575 L 759 591 L 741 601 L 731 617 L 712 622 L 693 633 L 682 649 L 671 667 L 674 686 L 692 679 L 699 661 L 713 645 L 733 636 L 737 654 L 720 668 L 743 673 L 763 670 L 780 661 L 801 658 L 821 655 L 818 674 L 818 693 L 816 710 L 794 706 L 797 681 L 778 687 L 769 709 L 755 691 L 743 709 L 720 708 L 731 689 L 709 688 L 700 708 L 683 704 L 664 709 L 654 689 L 646 669 L 628 686 L 641 707 L 617 709 L 603 694 L 587 707 L 563 707 L 542 706 L 523 706 L 506 706 L 490 711 L 474 705 L 458 711 L 439 710 L 431 694 L 455 694 L 462 679 L 473 661 L 463 644 L 443 644 L 430 660 L 451 663 L 438 679 L 414 673 L 413 650 L 394 648 L 390 667 L 393 686 L 411 693 L 416 710 L 392 709 L 374 699 L 357 709 L 330 708 L 320 686 L 315 665 L 309 645 L 287 634 L 289 659 L 290 683 L 304 706 L 279 707 L 255 708 L 233 709 L 214 710 L 215 692 L 225 676 L 246 669 L 240 690 L 264 686 L 267 663 L 267 640 L 247 646 L 230 655 L 212 662 L 202 676 L 193 692 L 197 709 L 180 709 L 174 692 L 160 686 L 145 674 L 145 657 L 147 640 L 128 639 L 126 660 L 113 675 L 95 666 L 107 653 L 106 635 L 115 620 L 102 608 L 106 590 L 106 572 L 99 555 L 125 579 L 143 579 L 142 598 L 123 600 L 133 618 L 148 623 L 164 632 L 177 621 L 193 613 L 202 598 L 200 578 L 182 573 L 183 589 L 177 603 L 159 610 L 162 591 L 159 574 L 170 564 L 156 556 L 139 559 L 120 558 L 132 538 L 143 538 L 152 538 L 161 537 L 168 540 L 176 539 L 178 553 L 195 558 L 213 563 L 229 553 L 232 567 L 216 588 L 230 582 L 250 580 L 248 560 L 255 543 L 262 538 L 272 539 L 282 538 L 292 538 L 282 555 L 265 555 L 266 570 L 271 585 L 261 600 L 241 600 L 225 608 L 211 619 L 197 631 L 181 640 L 164 651 L 164 669 L 183 675 L 180 659 L 196 654 L 212 642 L 227 632 L 242 623 L 259 620 L 277 615 L 285 595 L 301 583 L 285 573 L 301 560 L 319 576 L 319 558 L 335 552 L 353 559 L 339 571 L 351 589 L 333 595 L 315 599 L 298 609 L 307 625 L 329 620 L 351 612 L 355 634 L 332 643 L 343 664 L 346 687 L 368 676 L 368 654 L 381 634 L 379 614 L 371 596 L 366 576 L 393 589 L 404 607 L 405 627 L 427 634 L 432 615 L 423 598 L 414 581 L 428 566 L 416 557 L 400 562 L 385 571 L 373 557 L 377 538 L 368 538 L 360 539 L 352 538 L 344 539 L 335 538 L 325 538 L 314 539 L 303 539 L 309 516 L 282 512 L 299 491 L 281 471 L 306 459 L 323 476 L 342 458 L 344 429 L 368 415 L 372 385 L 390 365 L 410 342 L 436 353 L 419 378 L 447 387 L 450 415 L 424 411 L 398 400 L 393 427 L 370 447 L 369 475 L 350 488 L 326 498 L 338 516 L 361 511 L 384 503 L 385 525 L 385 541 L 394 539 L 401 537 L 409 539 L 419 539 L 428 532 L 415 513 L 409 492 L 392 476 L 397 453 L 420 439 L 446 442 L 420 468 L 438 493 L 450 514 L 442 469 L 462 468 L 476 484 L 473 504 L 503 513 L 506 504 L 505 494 L 507 486 L 501 480 L 496 475 L 491 468 L 486 461 L 482 453 L 481 445 L 475 440 L 475 431 L 476 422 L 476 412 L 478 403 L 481 394 L 484 385 L 487 376 L 493 368 L 496 359 L 505 356 L 504 346 L 509 335 L 522 349 L 524 366 L 508 366 L 500 383 L 514 385 L 528 385 L 541 376 L 540 396 L 536 412 L 551 417 L 539 431 L 556 436 L 568 424 L 575 438 L 566 452 L 561 465 L 550 478 L 533 475 L 545 464 L 544 448 L 528 457 L 522 441 L 524 423 L 509 422 L 520 404 L 503 400 L 493 411 L 492 429 L 502 443 L 508 458 L 516 471 L 516 488 L 523 491 L 530 491 L 537 492 L 545 491 L 552 490 L 540 513 L 520 523 L 525 530 L 515 532 L 511 524 L 503 522 L 504 532 L 506 539 L 496 528 L 494 539 L 481 538 L 470 538 L 458 538 L 448 538 L 438 538 L 428 541 L 442 555 L 458 558 L 472 568 L 479 552 L 489 565 L 484 582 L 483 605 L 468 592 L 458 579 L 441 575 L 442 594 L 457 608 L 453 626 L 476 624 L 483 643 L 496 662 L 482 679 L 490 693 L 507 682 L 527 681 L 548 681 L 568 686 L 586 677 L 567 660 L 550 640 L 540 659 L 519 656 L 527 631 L 504 639 L 500 619 L 501 595 L 504 576 L 523 584 L 517 607 L 537 605 L 553 619 L 561 596 L 543 583 L 563 574 L 578 562 L 596 564 L 617 561 L 627 581 L 606 584 L 583 586 L 578 611 L 575 635 L 595 652 L 608 672 L 623 658 L 619 633 L 598 627 L 602 605 L 626 606 L 645 588 L 655 606 L 642 623 L 641 644 L 661 648 L 668 626 L 677 601 L 665 585 L 679 572 L 692 581 L 690 615 L 700 599 L 720 600 L 712 583 L 727 577 L 742 583 L 743 565 L 726 557 L 710 564 L 695 558 L 677 556 L 659 566 L 640 563 L 659 550 L 668 539 L 676 540 L 686 540 L 695 539 L 703 540 L 712 540 L 720 540 L 727 539 L 735 540 L 740 531 L 733 503 L 728 476 L 702 466 L 690 443 L 657 446 L 653 420 L 627 408 L 647 392 L 627 387 L 608 393 L 604 414 L 623 428 L 630 447 L 610 459 L 605 483 L 620 505 L 642 515 L 651 491 L 636 473 L 671 471 L 694 493 L 709 513 L 683 528 L 671 508 L 659 537 L 650 540 L 641 540 L 631 540 L 621 539 L 611 540 L 601 540 L 592 541 L 588 532 L 595 506 L 582 525 L 579 533 L 584 540 L 576 541 L 568 541 L 562 553 L 545 549 L 546 565 L 530 559 L 516 563 L 501 555 L 516 540 L 525 539 L 533 539 L 541 538 L 549 538 L 556 541 L 561 536 L 558 528 L 565 530 L 570 534 L 573 526 L 565 524 L 567 517 L 568 510 L 567 502 L 564 494 L 560 487 L 568 482 L 575 476 L 580 468 L 585 460 L 587 451 L 590 442 L 592 434 L 590 426 L 589 417 L 588 409 L 576 412 L 563 407 L 555 397 L 555 385 L 564 389 L 571 392 L 576 387 L 583 389 L 583 397 L 588 401 L 588 384 L 594 379 L 599 374 L 601 367 L 606 363 L 610 369 L 618 368 L 627 368 L 635 365 L 643 360 L 648 352 L 650 344 L 653 338 L 649 331 L 649 322 L 644 314 L 635 307 L 626 302 L 617 297 L 608 295 L 600 293 L 592 293 L 584 294 L 576 294 L 576 308 L 592 306 L 594 319 L 607 321 L 608 308 L 622 316 L 616 331 L 608 334 L 610 341 L 620 342 L 628 337 L 624 331 L 635 324 L 636 347 L 625 355 L 612 353 L 597 349 L 593 363 L 584 361 L 582 377 L 569 371 L 555 365 L 539 359 L 538 344 L 554 348 L 569 354 L 582 345 L 595 335 L 582 331 L 581 319 L 566 320 L 567 336 L 551 331 L 538 329 L 525 334 L 516 325 L 526 318 L 538 314 L 549 320 L 554 312 L 554 303 L 563 303 L 568 296 L 552 270 L 523 282 L 497 295 L 486 326 L 464 365 L 461 337 L 466 306 L 432 316 L 422 281 L 450 281 L 478 270 L 496 248 L 524 250 L 549 235 L 554 207 L 578 183 L 583 149 L 608 122 L 586 86 L 566 119 L 549 155 L 525 130 L 504 105 L 483 79 L 460 111 L 483 137 L 451 158 L 429 130 L 395 116 L 396 73 L 397 42 L 422 94 L 449 78 L 428 52 L 465 46 L 501 43 L 518 70 L 545 91 L 548 51 L 560 16 L 522 16 L 479 14 L 442 17 L 409 14 L 375 12 L 366 37 L 358 60 L 369 87 L 364 117 L 337 129 L 346 162 L 339 188 L 316 150 L 301 178 L 316 212 L 355 216 L 333 243 L 357 264 L 381 233 L 382 188 L 373 149 L 405 154 L 423 181 L 478 183 L 506 165 L 533 183 L 514 211 L 481 220 L 449 205 L 414 215 L 450 244 L 413 250 L 389 277 L 396 311 L 374 337 L 350 362 L 345 394 L 321 408 L 317 435 L 286 437 L 292 405 L 263 388 L 318 376 L 289 367 L 261 352 L 234 370 L 197 362 L 158 352 L 173 386 L 189 415 L 220 397 L 223 429 L 256 418 L 259 450 L 229 455 L 248 478 L 265 494 L 223 485 L 201 502 L 229 510 L 254 514 L 251 537 L 243 540 L 235 539 L 226 539 L 218 540 L 209 539 L 200 539 L 192 539 L 184 539 L 182 516 L 138 508 L 164 500 L 174 474 L 203 467 L 186 445 L 154 440 L 145 409 L 126 382 L 107 415 L 119 448 L 138 474 L 82 444 L 53 430 L 42 398 L 76 400 L 89 370 L 116 349 L 131 320 L 160 311 L 192 320 L 223 336 L 254 320 L 231 298 L 200 279 L 165 277 L 127 282 L 88 275 L 108 246 L 75 238 L 86 207 L 122 212 L 108 179 L 117 146 L 145 176 L 159 209 L 143 245 L 179 244 L 216 241 L 196 213 L 186 182 L 208 156 L 228 180 L 231 209 L 255 231 L 237 265 L 270 265 L 279 295 L 288 328 L 316 343 L 344 329 L 358 299 L 319 304 L 314 273 L 295 242 L 282 209 L 262 186 L 270 156 L 291 139 L 270 117 L 241 150 L 238 121 L 218 95 L 187 96 L 159 103 L 201 125 L 175 148 L 147 137 L 125 108 L 99 83 L 104 48 L 133 69 L 163 59 L 194 62 L 230 66 L 250 89 L 277 83 L 306 86 L 306 113 L 337 97 L 329 68 L 325 40 L 341 14 L 307 13 L 287 34 L 295 58 L 258 49 L 270 13 L 239 17 L 215 40 L 206 13 L 175 20 L 142 22 L 112 15 L 79 18 L 47 20 L 17 11 L 14 36 L 23 57 L 45 78 L 67 54 L 69 96 L 90 121 L 84 152 L 52 139 L 40 110 L 13 88 L 14 125 L 15 157 L 39 173 L 68 177 L 48 207 L 14 193 L 14 227 L 42 239 L 15 262 L 20 295 L 13 329 L 42 331 L 59 301 L 52 269 L 98 310 L 77 336 L 52 365 L 17 365 L 13 402 L 18 436 L 17 469 L 14 502 L 43 502 L 52 468 L 75 502 L 93 474 L 110 500 L 120 538 L 108 538 L 95 537 L 83 538 L 71 538 L 59 537 L 47 538 L 37 540 L 27 537 L 17 539 L 5 538 L 10 559 L 29 565 L 47 564 L 63 556 L 81 560 L 87 580 L 68 578 L 50 587 L 30 587 L 10 579 L 11 598 L 7 615 L 8 636 L 25 642 L 23 621 L 34 607 L 53 610 L 69 603 L 86 599 L 87 622 L 86 643 L 65 649 L 66 628 L 42 628 L 46 645 L 46 665 L 62 673 L 46 687 L 28 677 L 27 660 L 8 658 L 9 681 L 8 706 L 27 695 L 28 711 L 49 709 L 72 711 L 64 694 L 79 681 L 78 662 L 97 685 L 85 699 L 98 710 L 112 696 L 120 711 L 130 698 L 130 681 L 147 695 L 143 711 L 162 709 " stroke="black" stroke-width="3" fill="none"/> 
 </svg>