<?xml version="1.0" ?>
<!DOCTYPE svg PUBLIC "-//W3C//DTD SVG 1.1//EN" "http://www.w3.org/Graphics/SVG/1.1/DTD/svg11.dtd">
<svg width="1080" height="934" version="1.1" xmlns="http://www.w3.org/2000/svg">
<path d="M864 12 L 894 17 L 923 20 L 946 46 L 956 13 L 979 35 L 995 13 L 1026 15 L 1012 47 L 979 65 L 982 98 L 950 84 L 921 68 L 895 53 L 888 90 L 920 108 L 954 121 L 934 150 L 972 159 L 988 133 L 1020 145 L 1052 141 L 1053 174 L 1068 204 L 1062 235 L 1060 269 L 1066 304 L 1064 335 L 1097 340 L 1117 363 L 1118 393 L 1147 414 L 1139 451 L 1156 479 L 1185 463 L 1188 489 L 1202 508 L 1224 513 L 1223 487 L 1219 462 L 1212 435 L 1170 439 L 1190 414 L 1171 392 L 1153 367 L 1146 332 L 1153 294 L 1187 329 L 1202 294 L 1215 251 L 1177 259 L 1143 241 L 1123 269 L 1111 310 L 1091 279 L 1096 241 L 1108 211 L 1091 176 L 1090 143 L 1126 150 L 1130 180 L 1148 206 L 1182 215 L 1218 210 L 1205 174 L 1168 166 L 1158 130 L 1124 118 L 1096 107 L 1070 118 L 1041 104 L 1015 113 L 1012 80 L 1042 69 L 1066 87 L 1091 76 L 1122 83 L 1152 88 L 1181 105 L 1206 135 L 1212 91 L 1210 54 L 1175 62 L 1140 50 L 1107 49 L 1074 49 L 1045 39 L 1059 13 L 1089 17 L 1119 16 L 1151 15 L 1178 25 L 1203 14 L 1230 22 L 1256 20 L 1249 62 L 1248 102 L 1247 141 L 1248 180 L 1252 226 L 1249 272 L 1244 312 L 1222 348 L 1195 369 L 1253 353 L 1252 391 L 1221 397 L 1250 429 L 1252 462 L 1255 490 L 1250 512 L 1251 537 L 1259 539 L 1265 537 L 1261 556 L 1247 558 L 1261 575 L 1259 596 L 1260 619 L 1259 641 L 1257 663 L 1258 684 L 1256 708 L 1229 709 L 1237 692 L 1234 672 L 1239 650 L 1219 656 L 1205 670 L 1214 688 L 1206 708 L 1186 710 L 1189 689 L 1186 669 L 1176 651 L 1199 648 L 1187 631 L 1170 632 L 1174 616 L 1178 600 L 1172 586 L 1176 569 L 1188 578 L 1194 594 L 1194 612 L 1206 624 L 1220 635 L 1240 629 L 1243 610 L 1236 595 L 1245 579 L 1224 582 L 1223 613 L 1212 599 L 1205 579 L 1196 560 L 1213 565 L 1221 553 L 1232 565 L 1244 540 L 1238 536 L 1232 541 L 1224 538 L 1215 538 L 1207 540 L 1199 539 L 1191 540 L 1183 539 L 1184 519 L 1165 507 L 1152 528 L 1138 506 L 1111 512 L 1122 481 L 1102 458 L 1113 428 L 1083 404 L 1071 373 L 1037 354 L 1021 378 L 1045 405 L 1074 435 L 1040 442 L 1041 476 L 1071 468 L 1092 496 L 1066 497 L 1063 518 L 1095 538 L 1103 538 L 1111 540 L 1118 537 L 1124 541 L 1130 536 L 1137 539 L 1145 539 L 1152 541 L 1160 539 L 1168 539 L 1176 539 L 1179 554 L 1162 556 L 1159 571 L 1157 586 L 1142 578 L 1146 561 L 1133 554 L 1115 557 L 1129 571 L 1131 593 L 1116 590 L 1113 574 L 1099 575 L 1083 578 L 1099 592 L 1083 601 L 1064 604 L 1067 586 L 1063 570 L 1060 555 L 1079 558 L 1097 557 L 1087 538 L 1079 539 L 1071 539 L 1063 539 L 1054 539 L 1045 545 L 1045 537 L 1036 539 L 1027 539 L 1017 540 L 1024 519 L 1038 504 L 1010 491 L 1005 516 L 1008 540 L 999 539 L 990 540 L 981 539 L 972 539 L 988 509 L 968 512 L 947 508 L 962 539 L 952 539 L 942 539 L 933 538 L 925 540 L 918 536 L 913 541 L 906 537 L 899 539 L 893 542 L 892 534 L 885 539 L 879 536 L 873 540 L 865 538 L 855 538 L 844 539 L 833 539 L 822 539 L 811 540 L 820 553 L 804 553 L 788 555 L 774 557 L 759 560 L 753 550 L 747 540 L 740 534 L 741 545 L 735 541 L 727 539 L 720 540 L 712 540 L 703 540 L 695 539 L 687 540 L 682 531 L 676 540 L 668 539 L 670 509 L 640 516 L 622 499 L 609 518 L 592 500 L 606 481 L 608 459 L 623 447 L 600 429 L 615 412 L 600 395 L 592 392 L 593 400 L 585 399 L 584 405 L 587 412 L 589 420 L 585 427 L 589 435 L 588 444 L 586 454 L 583 464 L 578 472 L 576 482 L 569 478 L 567 487 L 559 490 L 563 496 L 567 503 L 568 511 L 567 518 L 566 525 L 574 525 L 583 524 L 588 531 L 579 532 L 583 540 L 592 541 L 601 540 L 611 540 L 621 539 L 631 540 L 641 540 L 651 540 L 659 537 L 660 549 L 659 566 L 677 556 L 679 571 L 692 581 L 700 598 L 691 614 L 712 622 L 720 601 L 712 583 L 727 577 L 710 564 L 695 558 L 726 557 L 744 565 L 763 575 L 760 591 L 759 609 L 743 583 L 741 601 L 732 617 L 752 626 L 755 649 L 770 639 L 776 622 L 778 604 L 780 588 L 781 572 L 797 568 L 812 566 L 815 580 L 814 595 L 797 584 L 797 601 L 795 619 L 791 639 L 811 636 L 812 615 L 827 624 L 836 641 L 841 659 L 837 681 L 854 690 L 873 685 L 890 672 L 876 656 L 859 667 L 860 641 L 866 616 L 882 630 L 895 648 L 907 629 L 898 611 L 882 603 L 866 591 L 850 602 L 847 622 L 830 606 L 832 587 L 849 584 L 841 569 L 827 569 L 836 554 L 852 554 L 857 569 L 872 571 L 867 555 L 882 553 L 890 564 L 905 554 L 908 572 L 886 582 L 903 589 L 918 602 L 939 602 L 928 580 L 922 560 L 936 555 L 947 563 L 950 583 L 963 567 L 971 554 L 985 565 L 1000 556 L 1009 570 L 1012 589 L 993 583 L 972 583 L 961 602 L 956 622 L 929 622 L 921 646 L 912 666 L 896 691 L 916 687 L 935 680 L 938 660 L 944 640 L 959 663 L 957 687 L 977 673 L 989 651 L 968 643 L 981 625 L 981 603 L 1000 606 L 1004 625 L 1010 642 L 1031 648 L 1051 657 L 1068 647 L 1051 633 L 1030 627 L 1023 608 L 1030 588 L 1027 572 L 1023 555 L 1042 563 L 1048 580 L 1044 598 L 1047 614 L 1070 623 L 1087 624 L 1098 611 L 1113 609 L 1127 613 L 1143 609 L 1146 595 L 1161 603 L 1155 621 L 1139 628 L 1122 632 L 1105 630 L 1104 651 L 1087 644 L 1081 666 L 1104 671 L 1115 689 L 1129 669 L 1122 651 L 1139 647 L 1156 641 L 1154 658 L 1168 671 L 1163 689 L 1169 707 L 1149 709 L 1147 676 L 1138 693 L 1124 709 L 1097 708 L 1086 689 L 1067 707 L 1063 678 L 1046 692 L 1034 710 L 1019 691 L 1034 672 L 1012 664 L 998 680 L 1003 709 L 983 698 L 967 709 L 944 706 L 924 707 L 903 709 L 882 708 L 862 709 L 839 707 L 817 710 L 818 693 L 818 674 L 821 655 L 801 657 L 781 660 L 764 670 L 778 687 L 798 680 L 794 706 L 769 709 L 743 709 L 755 691 L 743 672 L 735 654 L 733 635 L 713 645 L 720 668 L 699 661 L 683 648 L 692 633 L 668 626 L 677 600 L 665 584 L 655 606 L 645 588 L 640 563 L 627 580 L 607 584 L 618 561 L 597 564 L 579 563 L 563 575 L 561 596 L 583 587 L 578 611 L 575 635 L 595 652 L 608 672 L 623 658 L 619 633 L 598 627 L 602 605 L 626 605 L 642 623 L 641 644 L 661 648 L 671 667 L 675 686 L 692 679 L 709 688 L 730 689 L 720 708 L 699 709 L 683 704 L 665 709 L 655 689 L 646 669 L 628 686 L 642 707 L 618 709 L 604 695 L 586 707 L 563 707 L 542 706 L 524 706 L 506 708 L 489 710 L 487 692 L 481 676 L 471 662 L 488 652 L 503 640 L 520 655 L 502 668 L 508 688 L 526 680 L 547 682 L 568 686 L 586 677 L 568 660 L 541 659 L 551 640 L 554 619 L 529 631 L 505 622 L 517 606 L 537 605 L 543 582 L 525 585 L 504 590 L 497 573 L 486 564 L 481 550 L 470 558 L 457 562 L 443 554 L 444 574 L 429 568 L 413 581 L 439 591 L 424 599 L 431 616 L 427 634 L 443 643 L 453 626 L 454 608 L 457 588 L 470 577 L 485 585 L 472 601 L 492 606 L 480 623 L 472 639 L 458 650 L 448 665 L 461 679 L 457 694 L 474 706 L 459 711 L 440 710 L 432 695 L 437 680 L 430 659 L 414 673 L 394 686 L 412 693 L 416 710 L 392 709 L 375 697 L 359 710 L 347 692 L 340 670 L 351 651 L 371 653 L 366 676 L 390 668 L 395 649 L 413 650 L 406 627 L 405 606 L 392 589 L 386 570 L 401 561 L 417 558 L 418 539 L 427 534 L 428 542 L 437 538 L 446 538 L 456 539 L 466 538 L 476 537 L 486 538 L 497 538 L 504 555 L 512 572 L 524 562 L 544 563 L 562 557 L 558 537 L 565 540 L 574 541 L 570 533 L 563 532 L 559 527 L 548 511 L 538 521 L 542 540 L 549 538 L 554 544 L 531 551 L 534 539 L 526 538 L 525 530 L 519 523 L 515 531 L 517 540 L 507 539 L 505 531 L 496 528 L 501 521 L 510 523 L 502 511 L 503 501 L 511 494 L 519 498 L 525 493 L 529 500 L 536 497 L 544 496 L 552 495 L 548 479 L 532 478 L 515 477 L 523 459 L 524 442 L 526 424 L 544 431 L 546 448 L 541 463 L 558 464 L 571 456 L 565 442 L 564 428 L 570 415 L 553 413 L 537 409 L 518 406 L 501 402 L 492 417 L 508 426 L 489 437 L 502 448 L 501 463 L 497 478 L 503 492 L 496 487 L 488 482 L 483 474 L 478 467 L 477 458 L 472 450 L 471 441 L 470 431 L 473 424 L 472 416 L 473 408 L 478 402 L 478 393 L 484 386 L 489 377 L 497 370 L 506 364 L 515 358 L 526 356 L 525 368 L 501 386 L 515 384 L 530 389 L 545 393 L 559 392 L 568 398 L 576 401 L 574 388 L 584 379 L 581 364 L 568 357 L 569 375 L 555 373 L 540 373 L 547 356 L 559 345 L 564 336 L 553 330 L 542 336 L 532 345 L 524 315 L 500 327 L 481 349 L 465 325 L 434 315 L 412 343 L 443 349 L 463 368 L 444 384 L 419 377 L 390 365 L 372 386 L 398 399 L 422 411 L 447 409 L 445 436 L 419 439 L 399 453 L 371 447 L 392 427 L 367 415 L 345 430 L 342 459 L 368 475 L 390 476 L 418 472 L 440 461 L 458 480 L 473 507 L 447 513 L 435 492 L 416 513 L 405 495 L 382 504 L 361 512 L 350 488 L 327 498 L 323 476 L 306 459 L 317 435 L 322 408 L 345 394 L 318 377 L 290 367 L 264 389 L 257 419 L 293 405 L 286 437 L 259 451 L 281 472 L 248 478 L 223 486 L 230 510 L 254 515 L 265 494 L 282 512 L 299 492 L 309 516 L 338 516 L 345 539 L 352 538 L 360 539 L 368 538 L 384 529 L 409 539 L 401 537 L 394 539 L 385 541 L 377 539 L 372 557 L 353 558 L 339 571 L 319 576 L 301 583 L 315 599 L 333 594 L 351 588 L 366 576 L 371 597 L 381 614 L 381 633 L 357 629 L 349 610 L 329 621 L 330 645 L 308 645 L 307 625 L 298 608 L 285 596 L 276 615 L 257 617 L 248 633 L 247 651 L 228 657 L 225 677 L 246 671 L 268 640 L 287 633 L 267 663 L 264 686 L 289 683 L 289 658 L 313 666 L 319 687 L 330 708 L 302 706 L 278 707 L 254 708 L 240 691 L 232 709 L 214 710 L 214 693 L 193 693 L 197 709 L 180 709 L 162 709 L 143 711 L 148 695 L 130 698 L 120 712 L 112 696 L 98 711 L 72 711 L 85 699 L 97 685 L 113 675 L 95 666 L 78 662 L 79 682 L 62 673 L 46 665 L 46 687 L 64 694 L 49 709 L 28 711 L 27 695 L 8 706 L 9 681 L 28 678 L 27 660 L 8 658 L 8 635 L 25 642 L 41 628 L 46 645 L 65 649 L 66 628 L 87 622 L 86 643 L 107 653 L 107 635 L 115 620 L 133 618 L 148 640 L 128 640 L 126 660 L 130 681 L 146 674 L 145 657 L 164 669 L 160 686 L 174 692 L 183 675 L 202 677 L 211 663 L 195 655 L 179 659 L 164 651 L 182 641 L 165 632 L 148 623 L 159 609 L 161 591 L 142 598 L 124 600 L 142 578 L 159 574 L 170 563 L 178 553 L 195 558 L 213 562 L 229 552 L 231 567 L 231 582 L 214 583 L 198 577 L 181 573 L 182 588 L 177 604 L 177 621 L 195 612 L 200 597 L 220 602 L 213 620 L 196 631 L 210 642 L 228 636 L 235 617 L 241 598 L 260 598 L 250 579 L 247 560 L 264 555 L 266 569 L 271 585 L 285 572 L 282 555 L 301 560 L 318 557 L 334 554 L 336 538 L 328 538 L 320 538 L 310 539 L 301 538 L 291 538 L 281 538 L 271 539 L 262 538 L 255 543 L 251 537 L 243 540 L 235 539 L 227 539 L 218 540 L 209 539 L 200 539 L 192 539 L 184 539 L 176 539 L 168 539 L 156 555 L 139 559 L 120 558 L 125 579 L 106 590 L 102 608 L 86 599 L 69 603 L 53 610 L 35 607 L 22 620 L 7 615 L 11 598 L 10 579 L 30 588 L 50 587 L 68 578 L 87 580 L 106 572 L 99 555 L 81 560 L 63 556 L 47 564 L 29 565 L 10 559 L 5 538 L 17 539 L 27 537 L 37 540 L 47 538 L 59 537 L 71 538 L 83 538 L 95 537 L 108 538 L 120 538 L 132 538 L 143 538 L 152 538 L 161 537 L 182 516 L 201 503 L 164 500 L 139 508 L 110 500 L 93 475 L 75 503 L 43 502 L 14 502 L 16 469 L 19 436 L 54 430 L 52 468 L 82 445 L 106 416 L 119 448 L 139 474 L 174 475 L 203 468 L 229 456 L 224 430 L 221 398 L 235 371 L 261 352 L 254 320 L 231 298 L 237 265 L 216 241 L 255 231 L 282 209 L 294 241 L 270 265 L 279 295 L 288 328 L 316 343 L 344 329 L 350 362 L 375 337 L 398 312 L 390 279 L 358 300 L 319 304 L 314 273 L 333 243 L 358 265 L 381 233 L 354 216 L 382 188 L 415 215 L 423 181 L 452 158 L 429 130 L 459 111 L 483 137 L 506 165 L 479 184 L 450 205 L 482 222 L 516 213 L 503 248 L 478 266 L 449 245 L 412 250 L 425 281 L 454 288 L 484 300 L 512 286 L 529 261 L 547 296 L 559 268 L 549 238 L 585 227 L 620 237 L 638 264 L 664 247 L 648 212 L 613 200 L 578 186 L 554 209 L 533 184 L 549 156 L 525 131 L 504 105 L 483 79 L 518 70 L 545 92 L 566 120 L 585 87 L 616 62 L 650 59 L 684 55 L 716 48 L 746 57 L 784 43 L 822 53 L 806 80 L 776 73 L 750 95 L 712 85 L 671 92 L 632 97 L 608 123 L 583 150 L 614 162 L 646 172 L 675 186 L 684 219 L 718 222 L 702 251 L 687 277 L 664 290 L 639 297 L 612 282 L 592 259 L 580 289 L 571 315 L 567 329 L 576 326 L 583 319 L 592 317 L 598 310 L 604 316 L 613 314 L 621 318 L 615 331 L 601 335 L 588 333 L 580 346 L 594 353 L 596 368 L 596 381 L 603 386 L 612 385 L 621 385 L 631 383 L 640 378 L 646 370 L 651 378 L 659 378 L 666 382 L 673 373 L 673 385 L 680 387 L 686 390 L 692 392 L 701 379 L 709 384 L 718 389 L 727 394 L 743 407 L 733 404 L 722 404 L 712 400 L 705 397 L 698 394 L 711 434 L 732 454 L 743 430 L 763 456 L 781 434 L 768 409 L 796 405 L 829 412 L 813 435 L 796 459 L 790 482 L 757 483 L 725 480 L 702 466 L 682 447 L 689 422 L 676 406 L 658 406 L 638 406 L 632 429 L 659 430 L 652 454 L 633 473 L 651 491 L 672 475 L 694 495 L 710 513 L 734 504 L 755 510 L 780 506 L 779 528 L 763 527 L 755 539 L 762 540 L 770 540 L 777 540 L 785 540 L 793 539 L 801 540 L 806 514 L 819 494 L 842 510 L 854 480 L 825 467 L 846 446 L 876 437 L 881 462 L 885 488 L 870 509 L 901 510 L 924 503 L 911 475 L 946 477 L 978 484 L 978 456 L 1011 464 L 1006 435 L 1005 406 L 972 423 L 950 442 L 926 452 L 905 436 L 932 412 L 939 377 L 967 393 L 987 369 L 962 348 L 932 342 L 906 357 L 905 386 L 889 407 L 859 416 L 854 388 L 873 365 L 884 334 L 899 289 L 912 316 L 942 309 L 974 316 L 1001 338 L 1029 318 L 1027 283 L 997 294 L 980 261 L 961 281 L 932 274 L 913 253 L 883 261 L 857 276 L 870 305 L 849 331 L 835 357 L 817 381 L 782 375 L 753 375 L 724 364 L 694 372 L 690 379 L 686 369 L 678 364 L 671 359 L 663 356 L 653 352 L 651 361 L 635 354 L 627 359 L 629 371 L 611 373 L 618 362 L 609 358 L 609 350 L 618 347 L 627 349 L 631 337 L 630 321 L 639 325 L 646 333 L 650 342 L 672 323 L 698 308 L 703 339 L 736 343 L 736 314 L 721 285 L 758 283 L 736 255 L 749 220 L 766 245 L 791 261 L 798 291 L 774 313 L 766 343 L 799 349 L 812 322 L 833 298 L 823 265 L 851 244 L 825 230 L 816 199 L 795 228 L 778 201 L 800 172 L 767 165 L 745 189 L 730 157 L 710 188 L 690 154 L 650 134 L 687 120 L 722 122 L 757 131 L 788 108 L 792 141 L 822 130 L 832 167 L 851 203 L 886 195 L 876 228 L 905 221 L 934 223 L 956 240 L 987 221 L 1006 250 L 1033 246 L 1027 211 L 1018 175 L 992 189 L 957 193 L 924 187 L 900 163 L 893 130 L 866 170 L 856 140 L 861 109 L 830 97 L 855 72 L 865 43 L 839 21 L 813 18 L 787 12 L 757 19 L 728 16 L 695 17 L 663 18 L 631 22 L 599 16 L 584 48 L 548 51 L 560 16 L 521 16 L 501 43 L 465 46 L 479 14 L 441 17 L 428 52 L 449 78 L 421 94 L 396 73 L 398 42 L 408 14 L 375 12 L 367 37 L 357 60 L 369 87 L 363 116 L 395 115 L 404 153 L 372 149 L 345 162 L 339 188 L 316 212 L 302 177 L 263 186 L 230 208 L 231 179 L 270 155 L 291 138 L 316 149 L 337 129 L 336 97 L 329 68 L 325 40 L 341 14 L 307 13 L 295 58 L 287 34 L 270 13 L 240 17 L 258 49 L 250 89 L 277 83 L 305 85 L 305 113 L 270 117 L 241 149 L 238 121 L 217 95 L 230 66 L 213 41 L 207 13 L 177 20 L 144 20 L 112 17 L 79 17 L 47 20 L 16 11 L 14 36 L 22 57 L 43 78 L 65 54 L 99 49 L 131 61 L 164 55 L 193 67 L 185 103 L 158 92 L 157 131 L 202 128 L 208 156 L 192 185 L 195 214 L 160 209 L 145 178 L 173 158 L 123 153 L 120 125 L 127 97 L 98 84 L 69 94 L 86 121 L 51 140 L 41 110 L 13 89 L 14 125 L 14 157 L 38 173 L 67 177 L 86 153 L 107 182 L 85 205 L 76 237 L 108 247 L 121 214 L 143 244 L 179 244 L 200 279 L 165 277 L 127 282 L 130 321 L 160 310 L 192 320 L 223 336 L 198 362 L 174 387 L 189 416 L 186 445 L 153 440 L 145 409 L 125 382 L 158 353 L 116 349 L 88 369 L 76 400 L 42 398 L 13 402 L 52 365 L 76 336 L 97 310 L 42 330 L 59 301 L 87 275 L 52 269 L 42 239 L 48 208 L 14 194 L 14 227 L 15 262 L 20 295 L 13 329 L 16 365 " stroke="black" stroke-width="3" fill="none"/> 
 </svg>