<?xml version="1.0" ?>
<!DOCTYPE svg PUBLIC "-//W3C//DTD SVG 1.1//EN" "http://www.w3.org/Graphics/SVG/1.1/DTD/svg11.dtd">
<svg width="1080" height="934" version="1.1" xmlns="http://www.w3.org/2000/svg">
<path d="M797 11 L 806 34 L 776 39 L 780 67 L 821 52 L 831 78 L 860 72 L 853 43 L 832 15 L 864 13 L 885 38 L 898 13 L 929 15 L 960 13 L 948 48 L 917 45 L 920 78 L 891 64 L 887 93 L 878 122 L 851 137 L 851 104 L 819 109 L 801 81 L 786 109 L 790 140 L 820 139 L 801 170 L 816 200 L 783 197 L 783 227 L 810 235 L 839 224 L 860 247 L 888 272 L 919 256 L 894 238 L 873 216 L 851 193 L 834 168 L 871 163 L 888 190 L 911 171 L 899 142 L 917 112 L 936 147 L 952 121 L 950 84 L 979 67 L 1003 87 L 978 103 L 989 134 L 970 162 L 940 184 L 916 211 L 944 231 L 964 203 L 986 231 L 994 264 L 961 263 L 935 283 L 903 303 L 870 310 L 857 278 L 839 302 L 816 324 L 790 340 L 783 371 L 750 378 L 755 349 L 762 320 L 786 302 L 812 287 L 828 260 L 790 265 L 755 286 L 730 319 L 725 354 L 699 338 L 697 307 L 720 286 L 734 256 L 763 251 L 750 221 L 729 194 L 756 187 L 767 162 L 757 131 L 729 159 L 701 188 L 691 154 L 726 125 L 696 119 L 664 124 L 649 148 L 637 178 L 669 183 L 648 213 L 624 235 L 605 260 L 584 286 L 573 315 L 576 326 L 583 320 L 590 316 L 598 316 L 606 312 L 613 316 L 621 317 L 630 320 L 622 287 L 642 264 L 666 246 L 684 219 L 717 225 L 701 254 L 681 279 L 655 296 L 673 322 L 650 342 L 645 332 L 638 325 L 632 337 L 616 332 L 602 335 L 590 333 L 581 344 L 592 353 L 594 368 L 595 381 L 603 386 L 611 373 L 618 362 L 609 359 L 609 350 L 618 347 L 627 349 L 635 354 L 627 359 L 630 370 L 613 386 L 622 385 L 632 383 L 640 378 L 647 373 L 650 363 L 653 352 L 662 355 L 670 360 L 678 364 L 686 369 L 695 371 L 691 378 L 702 379 L 709 384 L 718 388 L 727 394 L 721 404 L 711 400 L 702 396 L 695 393 L 688 391 L 680 387 L 672 373 L 656 378 L 664 381 L 673 385 L 677 408 L 658 407 L 638 406 L 633 429 L 622 446 L 608 460 L 606 481 L 593 501 L 610 517 L 624 498 L 641 516 L 652 491 L 633 473 L 651 455 L 659 431 L 682 447 L 690 423 L 713 435 L 732 457 L 702 466 L 672 475 L 672 511 L 693 495 L 710 513 L 724 483 L 735 507 L 756 512 L 756 482 L 764 456 L 746 432 L 733 404 L 743 408 L 770 404 L 780 430 L 801 398 L 831 387 L 819 360 L 849 339 L 863 371 L 861 404 L 875 430 L 904 434 L 924 451 L 948 440 L 969 420 L 964 389 L 987 366 L 993 334 L 956 346 L 933 376 L 932 411 L 896 402 L 898 372 L 885 340 L 918 344 L 932 317 L 963 308 L 991 297 L 1024 317 L 1025 285 L 1055 268 L 1060 300 L 1057 331 L 1095 315 L 1126 335 L 1152 355 L 1187 346 L 1209 317 L 1208 284 L 1189 245 L 1161 224 L 1146 198 L 1122 183 L 1124 229 L 1150 253 L 1168 280 L 1166 315 L 1130 298 L 1120 265 L 1091 280 L 1087 244 L 1099 213 L 1085 189 L 1060 207 L 1053 236 L 1022 248 L 1023 212 L 995 195 L 1007 169 L 1039 178 L 1069 165 L 1101 163 L 1092 136 L 1096 106 L 1090 77 L 1068 91 L 1065 118 L 1051 141 L 1023 144 L 1019 115 L 1041 97 L 1026 70 L 1008 46 L 978 36 L 996 13 L 1028 14 L 1042 39 L 1057 64 L 1084 50 L 1075 29 L 1062 10 L 1104 16 L 1136 15 L 1167 17 L 1159 51 L 1131 47 L 1108 55 L 1123 83 L 1153 89 L 1186 73 L 1194 41 L 1199 12 L 1228 20 L 1255 20 L 1253 62 L 1222 58 L 1216 92 L 1184 108 L 1157 129 L 1126 117 L 1130 149 L 1163 168 L 1189 145 L 1219 130 L 1251 101 L 1251 142 L 1249 180 L 1209 172 L 1186 203 L 1220 210 L 1254 224 L 1224 248 L 1251 272 L 1249 312 L 1254 354 L 1224 351 L 1207 379 L 1173 385 L 1140 390 L 1108 401 L 1109 369 L 1085 348 L 1063 373 L 1032 351 L 1020 378 L 1000 403 L 997 437 L 1002 467 L 1008 490 L 975 485 L 972 457 L 944 475 L 910 475 L 884 487 L 880 459 L 853 479 L 825 467 L 847 445 L 833 417 L 811 433 L 797 456 L 791 480 L 780 500 L 777 522 L 779 540 L 789 539 L 800 540 L 803 515 L 818 496 L 842 509 L 869 509 L 889 530 L 900 509 L 923 501 L 938 521 L 949 502 L 968 514 L 989 510 L 1009 519 L 1028 505 L 1044 484 L 1032 460 L 1027 429 L 1043 403 L 1076 404 L 1059 440 L 1073 470 L 1091 433 L 1105 458 L 1122 480 L 1142 454 L 1126 427 L 1158 423 L 1189 415 L 1212 437 L 1223 408 L 1251 391 L 1251 430 L 1251 461 L 1256 489 L 1251 512 L 1224 513 L 1226 487 L 1216 462 L 1179 452 L 1157 478 L 1168 502 L 1189 481 L 1202 505 L 1184 518 L 1152 519 L 1138 502 L 1113 512 L 1095 495 L 1072 503 L 1055 513 L 1037 522 L 1036 540 L 1027 539 L 1018 539 L 1008 540 L 999 539 L 991 540 L 982 539 L 974 540 L 965 539 L 955 538 L 945 539 L 935 539 L 926 539 L 917 537 L 909 538 L 899 538 L 892 541 L 884 539 L 876 539 L 867 538 L 857 539 L 847 539 L 836 540 L 823 538 L 811 540 L 824 554 L 835 568 L 849 559 L 867 556 L 885 558 L 885 576 L 865 574 L 850 582 L 833 591 L 850 602 L 843 621 L 867 614 L 874 593 L 891 608 L 901 587 L 905 566 L 902 549 L 918 553 L 934 558 L 946 572 L 955 555 L 967 566 L 983 561 L 1000 558 L 1010 574 L 1020 556 L 1028 570 L 1025 587 L 1034 602 L 1053 594 L 1068 606 L 1050 614 L 1068 627 L 1084 620 L 1099 612 L 1099 592 L 1084 597 L 1070 585 L 1085 576 L 1103 574 L 1115 589 L 1121 574 L 1116 557 L 1096 557 L 1077 559 L 1059 555 L 1061 571 L 1044 579 L 1041 559 L 1045 540 L 1054 539 L 1063 539 L 1071 539 L 1079 539 L 1087 538 L 1095 538 L 1103 538 L 1111 539 L 1119 538 L 1126 540 L 1134 536 L 1143 539 L 1151 539 L 1160 540 L 1168 539 L 1176 539 L 1183 540 L 1191 540 L 1199 538 L 1207 539 L 1215 538 L 1224 538 L 1232 541 L 1237 535 L 1243 540 L 1251 538 L 1259 539 L 1265 537 L 1261 553 L 1246 556 L 1231 561 L 1217 552 L 1211 565 L 1204 580 L 1187 578 L 1194 559 L 1174 555 L 1173 570 L 1155 568 L 1153 555 L 1135 547 L 1135 562 L 1140 577 L 1130 593 L 1147 593 L 1159 583 L 1173 590 L 1161 603 L 1173 616 L 1184 607 L 1192 594 L 1205 604 L 1218 592 L 1226 578 L 1244 575 L 1260 569 L 1259 585 L 1240 592 L 1229 607 L 1245 612 L 1260 602 L 1260 623 L 1257 643 L 1237 630 L 1235 651 L 1234 672 L 1257 663 L 1258 685 L 1256 708 L 1229 709 L 1236 692 L 1213 685 L 1207 707 L 1187 709 L 1188 689 L 1194 669 L 1214 662 L 1199 647 L 1216 638 L 1218 620 L 1199 622 L 1187 633 L 1171 631 L 1162 643 L 1178 652 L 1172 672 L 1156 659 L 1147 638 L 1139 624 L 1156 621 L 1143 608 L 1127 612 L 1114 606 L 1113 626 L 1128 634 L 1137 652 L 1133 670 L 1149 677 L 1164 689 L 1170 707 L 1149 710 L 1141 694 L 1120 689 L 1124 709 L 1098 707 L 1067 708 L 1036 709 L 1047 692 L 1061 677 L 1081 667 L 1081 691 L 1100 681 L 1115 667 L 1118 648 L 1099 656 L 1099 634 L 1083 643 L 1066 650 L 1049 657 L 1034 671 L 1021 689 L 1009 708 L 998 686 L 1010 664 L 1029 648 L 1049 635 L 1030 625 L 1016 611 L 1006 595 L 993 581 L 974 584 L 957 587 L 959 606 L 956 625 L 967 645 L 978 624 L 984 603 L 999 619 L 1011 638 L 991 645 L 985 666 L 973 686 L 985 707 L 963 707 L 962 666 L 949 686 L 941 706 L 922 708 L 919 689 L 930 672 L 943 658 L 941 638 L 932 618 L 936 594 L 923 576 L 915 602 L 908 625 L 921 645 L 910 666 L 896 647 L 881 631 L 857 639 L 875 655 L 858 666 L 838 658 L 831 641 L 819 625 L 823 608 L 812 593 L 799 603 L 798 622 L 809 641 L 809 659 L 821 672 L 839 680 L 854 690 L 873 685 L 889 671 L 897 690 L 902 709 L 882 707 L 862 708 L 839 707 L 820 692 L 818 710 L 797 706 L 775 708 L 755 709 L 779 686 L 800 681 L 786 662 L 788 641 L 771 629 L 765 650 L 764 669 L 755 690 L 743 673 L 740 654 L 750 638 L 750 620 L 742 600 L 743 581 L 727 577 L 709 583 L 722 597 L 729 615 L 730 635 L 712 625 L 704 609 L 693 595 L 689 576 L 678 559 L 695 556 L 709 565 L 724 557 L 740 561 L 754 553 L 757 568 L 770 576 L 760 589 L 763 606 L 780 611 L 782 591 L 800 579 L 821 579 L 814 566 L 803 558 L 788 556 L 786 572 L 772 557 L 770 540 L 762 540 L 755 539 L 747 539 L 740 540 L 731 540 L 722 539 L 712 540 L 702 539 L 692 538 L 683 540 L 675 538 L 667 541 L 660 538 L 651 540 L 641 540 L 631 541 L 621 539 L 611 540 L 601 540 L 592 540 L 583 540 L 571 532 L 579 532 L 588 531 L 583 524 L 574 524 L 568 511 L 567 518 L 566 525 L 559 527 L 563 533 L 557 537 L 562 543 L 568 539 L 575 540 L 575 559 L 558 562 L 543 557 L 553 544 L 549 538 L 541 539 L 534 539 L 525 539 L 525 530 L 519 523 L 537 520 L 549 511 L 567 503 L 563 496 L 559 490 L 567 486 L 569 478 L 576 482 L 578 472 L 583 464 L 586 454 L 587 444 L 590 435 L 589 427 L 589 419 L 587 411 L 583 405 L 585 399 L 593 400 L 614 416 L 600 395 L 591 391 L 579 382 L 578 367 L 570 355 L 559 345 L 564 336 L 569 329 L 558 328 L 549 332 L 540 337 L 531 345 L 526 356 L 525 368 L 542 375 L 546 356 L 559 368 L 562 383 L 565 397 L 574 400 L 569 411 L 553 417 L 540 430 L 535 411 L 518 407 L 546 395 L 528 389 L 511 379 L 506 394 L 493 405 L 503 420 L 519 427 L 526 444 L 521 460 L 514 476 L 532 477 L 540 462 L 547 447 L 562 438 L 571 426 L 569 453 L 558 464 L 548 479 L 552 495 L 544 496 L 536 497 L 529 500 L 525 493 L 518 498 L 511 494 L 503 491 L 503 501 L 502 511 L 474 506 L 456 481 L 435 495 L 408 495 L 402 516 L 426 516 L 452 513 L 455 538 L 468 538 L 480 538 L 493 539 L 496 529 L 501 521 L 510 523 L 515 532 L 516 540 L 505 531 L 505 539 L 503 555 L 516 565 L 527 557 L 538 575 L 561 579 L 562 596 L 539 596 L 520 586 L 503 578 L 493 598 L 497 619 L 502 640 L 515 606 L 533 616 L 522 633 L 548 633 L 556 614 L 579 612 L 584 592 L 584 575 L 597 561 L 618 560 L 629 577 L 642 562 L 659 559 L 666 576 L 673 594 L 679 613 L 665 631 L 692 628 L 686 644 L 679 660 L 702 660 L 712 645 L 723 665 L 713 682 L 731 689 L 735 708 L 715 708 L 693 712 L 699 694 L 693 676 L 677 683 L 679 701 L 664 710 L 655 691 L 662 671 L 660 651 L 641 645 L 641 622 L 656 608 L 649 586 L 630 597 L 607 583 L 602 604 L 620 616 L 600 628 L 619 639 L 623 660 L 642 671 L 627 687 L 640 707 L 617 710 L 585 708 L 603 696 L 607 673 L 594 653 L 578 632 L 566 646 L 567 665 L 586 679 L 567 689 L 560 708 L 539 705 L 519 706 L 500 708 L 506 684 L 527 680 L 547 679 L 541 655 L 519 658 L 497 662 L 483 643 L 473 660 L 483 677 L 485 693 L 479 709 L 462 677 L 458 694 L 460 710 L 440 709 L 432 694 L 439 678 L 451 661 L 462 642 L 441 641 L 427 625 L 415 650 L 432 659 L 415 673 L 411 693 L 417 710 L 392 709 L 393 686 L 391 667 L 394 650 L 406 632 L 402 613 L 417 600 L 433 587 L 439 607 L 453 621 L 475 624 L 470 606 L 473 588 L 486 579 L 489 563 L 477 553 L 459 558 L 469 570 L 454 591 L 448 573 L 442 555 L 443 538 L 432 539 L 421 539 L 411 539 L 402 539 L 393 538 L 385 542 L 373 557 L 377 538 L 383 524 L 380 500 L 361 514 L 349 492 L 350 470 L 340 452 L 343 426 L 367 416 L 393 423 L 372 446 L 374 475 L 396 475 L 401 452 L 420 437 L 422 474 L 440 459 L 445 434 L 472 440 L 471 450 L 478 457 L 477 466 L 483 474 L 487 481 L 495 487 L 498 478 L 500 462 L 505 445 L 491 438 L 486 422 L 471 429 L 471 418 L 474 407 L 477 396 L 484 387 L 491 378 L 497 369 L 506 364 L 515 358 L 493 339 L 500 315 L 485 292 L 467 269 L 496 251 L 517 282 L 527 313 L 552 296 L 548 268 L 528 246 L 554 223 L 573 254 L 588 226 L 611 202 L 574 190 L 539 187 L 518 213 L 488 214 L 452 207 L 460 241 L 426 235 L 417 199 L 406 165 L 374 180 L 386 214 L 352 219 L 366 252 L 346 280 L 362 309 L 391 286 L 397 250 L 427 273 L 453 295 L 463 324 L 463 353 L 474 375 L 447 378 L 445 406 L 417 409 L 418 381 L 430 347 L 427 312 L 399 323 L 396 360 L 386 390 L 351 393 L 356 366 L 373 340 L 340 337 L 311 342 L 282 331 L 318 307 L 306 275 L 329 247 L 314 212 L 340 190 L 341 161 L 371 144 L 403 130 L 436 134 L 443 168 L 476 179 L 508 170 L 478 142 L 461 109 L 483 77 L 499 108 L 521 133 L 547 154 L 580 151 L 607 167 L 611 131 L 601 92 L 635 108 L 637 75 L 612 53 L 648 42 L 682 33 L 697 53 L 669 64 L 670 94 L 700 84 L 728 91 L 758 96 L 750 62 L 723 52 L 745 25 L 766 11 L 720 16 L 694 11 L 661 13 L 628 16 L 596 16 L 580 46 L 567 78 L 569 118 L 539 100 L 520 73 L 542 47 L 558 15 L 519 15 L 501 43 L 464 46 L 478 14 L 441 17 L 408 14 L 401 41 L 428 53 L 449 78 L 422 97 L 395 71 L 387 103 L 360 113 L 335 129 L 332 98 L 329 68 L 362 81 L 353 52 L 372 38 L 374 12 L 342 15 L 322 40 L 306 12 L 287 32 L 266 13 L 233 19 L 197 15 L 205 47 L 229 62 L 258 48 L 293 59 L 306 84 L 301 113 L 312 147 L 303 177 L 269 156 L 285 136 L 260 116 L 278 87 L 252 83 L 227 96 L 194 85 L 158 81 L 173 50 L 160 16 L 121 16 L 136 47 L 123 78 L 126 109 L 97 97 L 73 80 L 56 51 L 97 52 L 84 18 L 50 17 L 16 14 L 19 43 L 16 71 L 44 88 L 14 103 L 39 123 L 70 119 L 102 134 L 54 153 L 83 157 L 103 187 L 71 188 L 40 183 L 26 155 L 11 135 L 11 176 L 15 206 L 15 237 L 21 268 L 20 298 L 22 329 L 16 364 L 53 357 L 70 326 L 60 297 L 68 266 L 48 244 L 48 213 L 82 223 L 118 221 L 155 222 L 137 259 L 167 281 L 178 248 L 193 216 L 216 240 L 237 267 L 255 235 L 236 208 L 208 187 L 203 155 L 165 154 L 174 186 L 140 189 L 125 161 L 139 135 L 161 112 L 188 124 L 218 123 L 240 142 L 237 173 L 267 186 L 280 211 L 294 241 L 270 267 L 275 299 L 248 363 L 237 401 L 232 437 L 205 416 L 183 393 L 152 392 L 145 347 L 180 356 L 213 375 L 215 338 L 250 328 L 231 301 L 202 279 L 185 316 L 144 306 L 101 253 L 105 289 L 112 324 L 95 354 L 119 377 L 121 413 L 144 438 L 171 429 L 194 449 L 215 461 L 231 477 L 254 479 L 259 454 L 264 423 L 295 409 L 270 391 L 285 365 L 318 374 L 324 404 L 315 436 L 289 445 L 286 474 L 316 468 L 322 492 L 336 514 L 369 538 L 361 539 L 353 538 L 345 539 L 338 538 L 330 539 L 322 538 L 313 539 L 309 516 L 295 498 L 277 516 L 302 539 L 292 538 L 282 538 L 272 539 L 262 538 L 254 539 L 251 518 L 266 497 L 233 504 L 208 509 L 196 484 L 166 470 L 133 474 L 111 449 L 87 418 L 80 386 L 46 393 L 15 402 L 18 436 L 16 469 L 14 502 L 43 503 L 74 504 L 50 469 L 51 428 L 77 449 L 91 477 L 110 503 L 142 505 L 171 502 L 185 520 L 178 539 L 188 540 L 199 539 L 208 540 L 192 556 L 194 574 L 210 580 L 228 584 L 229 568 L 211 561 L 218 540 L 226 538 L 236 539 L 245 539 L 229 553 L 246 559 L 262 558 L 250 577 L 271 582 L 276 568 L 280 554 L 297 558 L 312 568 L 319 556 L 337 556 L 337 574 L 354 561 L 368 577 L 388 571 L 400 558 L 419 556 L 430 568 L 411 578 L 393 592 L 372 597 L 378 615 L 382 633 L 356 635 L 331 623 L 353 612 L 352 588 L 334 598 L 315 604 L 318 583 L 294 577 L 297 592 L 278 598 L 269 615 L 248 613 L 258 596 L 240 595 L 227 607 L 232 627 L 250 632 L 268 638 L 259 656 L 237 664 L 237 646 L 216 645 L 215 628 L 197 632 L 182 640 L 197 654 L 215 663 L 225 678 L 254 681 L 272 675 L 290 663 L 288 645 L 286 626 L 293 610 L 308 624 L 311 644 L 334 647 L 368 654 L 368 676 L 374 698 L 358 709 L 347 688 L 344 665 L 331 708 L 321 686 L 314 666 L 293 686 L 303 707 L 276 705 L 255 707 L 238 692 L 232 709 L 214 710 L 214 693 L 197 709 L 193 692 L 202 676 L 183 675 L 181 659 L 165 669 L 164 651 L 164 633 L 174 620 L 190 613 L 208 614 L 210 597 L 191 594 L 173 602 L 177 584 L 178 567 L 172 554 L 167 538 L 156 538 L 145 538 L 155 556 L 160 572 L 159 590 L 154 608 L 148 623 L 147 641 L 145 657 L 147 673 L 136 684 L 149 697 L 159 686 L 174 692 L 180 709 L 163 709 L 143 712 L 120 712 L 130 699 L 117 684 L 97 682 L 78 681 L 108 699 L 96 712 L 86 698 L 72 711 L 63 694 L 45 687 L 58 674 L 46 659 L 29 676 L 26 694 L 49 709 L 28 711 L 8 706 L 9 681 L 8 658 L 27 659 L 44 637 L 63 647 L 72 663 L 90 663 L 109 666 L 128 667 L 124 650 L 130 635 L 128 619 L 131 605 L 141 592 L 141 575 L 136 557 L 133 538 L 121 538 L 107 538 L 94 537 L 81 538 L 68 538 L 56 537 L 43 538 L 30 539 L 18 538 L 6 538 L 11 558 L 11 578 L 11 597 L 32 567 L 51 558 L 65 572 L 77 559 L 96 555 L 116 556 L 99 573 L 79 584 L 89 604 L 102 592 L 121 573 L 120 590 L 109 611 L 109 631 L 103 648 L 83 641 L 87 622 L 63 626 L 70 604 L 52 606 L 52 585 L 32 592 L 39 617 L 23 619 L 7 615 L 25 641 L 8 635 " stroke="black" stroke-width="3" fill="none"/> 
 </svg>