<?xml version="1.0" ?>
<!DOCTYPE svg PUBLIC "-//W3C//DTD SVG 1.1//EN" "http://www.w3.org/Graphics/SVG/1.1/DTD/svg11.dtd">
<svg width="1080" height="934" version="1.1" xmlns="http://www.w3.org/2000/svg">
<path d="M797 11 L 807 33 L 821 52 L 831 78 L 801 81 L 780 67 L 776 39 L 766 11 L 745 24 L 720 16 L 695 11 L 683 33 L 697 53 L 723 52 L 750 61 L 758 96 L 787 110 L 790 140 L 821 138 L 819 108 L 850 105 L 860 72 L 853 43 L 833 15 L 864 13 L 897 13 L 886 38 L 891 64 L 887 93 L 917 112 L 897 141 L 877 120 L 854 140 L 874 169 L 835 168 L 802 170 L 816 200 L 852 194 L 874 213 L 902 197 L 911 168 L 936 147 L 952 120 L 978 103 L 990 134 L 971 161 L 942 184 L 961 212 L 988 194 L 1008 172 L 1041 177 L 1070 165 L 1085 189 L 1099 212 L 1122 183 L 1146 198 L 1160 224 L 1189 245 L 1185 203 L 1220 210 L 1208 173 L 1219 129 L 1189 145 L 1163 168 L 1156 129 L 1125 117 L 1129 149 L 1101 162 L 1092 136 L 1096 106 L 1090 77 L 1068 91 L 1065 118 L 1051 141 L 1022 145 L 1019 115 L 1041 97 L 1002 87 L 1026 70 L 1008 46 L 978 36 L 979 66 L 950 83 L 920 78 L 918 45 L 948 47 L 928 15 L 960 13 L 996 13 L 1028 14 L 1042 40 L 1057 64 L 1084 50 L 1075 29 L 1063 10 L 1104 16 L 1137 15 L 1167 17 L 1199 12 L 1228 20 L 1255 21 L 1253 62 L 1222 58 L 1194 41 L 1185 72 L 1159 51 L 1131 47 L 1108 56 L 1123 84 L 1153 88 L 1183 108 L 1215 92 L 1250 101 L 1251 141 L 1249 179 L 1254 224 L 1224 248 L 1251 272 L 1249 313 L 1209 317 L 1208 284 L 1167 280 L 1166 315 L 1187 346 L 1153 355 L 1126 335 L 1095 316 L 1091 280 L 1130 298 L 1120 265 L 1150 252 L 1123 229 L 1087 244 L 1053 237 L 1060 207 L 1023 211 L 991 230 L 986 265 L 990 296 L 963 309 L 944 281 L 919 260 L 955 248 L 928 222 L 896 235 L 861 245 L 839 224 L 828 260 L 810 235 L 783 227 L 784 198 L 756 188 L 768 162 L 757 131 L 726 125 L 696 120 L 728 91 L 701 83 L 671 94 L 669 64 L 649 42 L 661 12 L 629 16 L 596 16 L 581 46 L 613 53 L 637 75 L 635 107 L 664 123 L 691 154 L 729 159 L 729 194 L 701 189 L 669 185 L 637 178 L 650 148 L 612 132 L 569 118 L 601 92 L 568 77 L 539 99 L 519 72 L 543 47 L 558 15 L 519 15 L 500 43 L 464 46 L 477 14 L 440 17 L 407 14 L 400 41 L 428 53 L 448 78 L 483 77 L 499 107 L 521 133 L 547 154 L 580 151 L 607 168 L 611 204 L 574 191 L 538 188 L 508 170 L 476 180 L 478 141 L 460 109 L 436 134 L 402 130 L 387 103 L 421 97 L 395 71 L 362 81 L 372 37 L 374 11 L 341 15 L 354 53 L 329 68 L 322 40 L 307 12 L 287 32 L 293 58 L 258 49 L 267 13 L 233 19 L 197 15 L 160 17 L 173 51 L 205 47 L 229 62 L 253 83 L 261 116 L 278 87 L 305 84 L 332 98 L 301 113 L 286 136 L 269 156 L 267 185 L 279 210 L 314 211 L 303 177 L 312 147 L 335 129 L 359 113 L 371 143 L 341 160 L 340 190 L 351 219 L 386 213 L 374 179 L 406 165 L 443 169 L 453 208 L 418 200 L 426 236 L 398 250 L 427 276 L 390 286 L 403 321 L 374 340 L 340 337 L 362 310 L 346 281 L 366 252 L 329 247 L 294 241 L 306 275 L 318 307 L 311 342 L 318 375 L 324 405 L 296 410 L 316 437 L 290 445 L 287 475 L 294 500 L 310 517 L 313 539 L 322 538 L 330 539 L 338 538 L 345 539 L 353 538 L 360 539 L 368 538 L 376 539 L 383 533 L 385 544 L 393 538 L 402 539 L 410 538 L 418 539 L 426 538 L 434 539 L 443 554 L 419 556 L 401 559 L 388 570 L 393 591 L 411 578 L 430 567 L 433 587 L 417 599 L 403 613 L 407 632 L 415 651 L 432 658 L 439 679 L 432 694 L 416 673 L 411 693 L 394 686 L 391 667 L 394 650 L 382 633 L 378 615 L 372 597 L 353 612 L 334 597 L 315 603 L 318 582 L 338 574 L 352 588 L 368 577 L 372 558 L 354 560 L 337 556 L 320 556 L 310 567 L 296 558 L 294 577 L 296 592 L 293 610 L 308 624 L 311 644 L 314 666 L 290 663 L 288 644 L 285 626 L 268 637 L 269 615 L 277 598 L 258 596 L 250 577 L 228 583 L 229 566 L 230 552 L 246 559 L 262 559 L 271 582 L 276 568 L 280 553 L 303 539 L 292 538 L 281 538 L 271 539 L 262 538 L 254 539 L 245 539 L 236 539 L 226 538 L 218 540 L 208 539 L 199 539 L 192 556 L 211 561 L 210 581 L 194 574 L 191 594 L 209 598 L 208 614 L 215 627 L 231 627 L 227 607 L 240 595 L 249 613 L 250 632 L 237 646 L 259 656 L 272 674 L 254 681 L 238 692 L 214 692 L 225 678 L 236 664 L 214 663 L 216 645 L 197 632 L 182 640 L 164 633 L 164 651 L 197 654 L 180 659 L 165 669 L 147 673 L 136 684 L 128 667 L 109 666 L 90 663 L 72 663 L 58 674 L 45 687 L 29 676 L 46 659 L 27 659 L 24 641 L 43 637 L 63 647 L 83 641 L 103 648 L 109 631 L 130 634 L 124 650 L 145 657 L 147 641 L 149 623 L 154 608 L 174 620 L 190 613 L 173 602 L 159 590 L 160 573 L 177 583 L 177 567 L 172 553 L 155 556 L 137 557 L 141 575 L 141 592 L 132 605 L 129 619 L 109 612 L 102 592 L 120 590 L 121 573 L 117 556 L 97 555 L 99 573 L 79 584 L 65 572 L 77 559 L 51 558 L 56 537 L 68 538 L 81 538 L 94 537 L 108 538 L 121 537 L 133 538 L 145 538 L 157 538 L 167 538 L 178 539 L 188 539 L 186 519 L 170 502 L 142 506 L 110 502 L 111 450 L 134 474 L 167 470 L 196 484 L 209 509 L 235 505 L 250 520 L 275 516 L 267 496 L 254 480 L 231 477 L 215 463 L 195 450 L 172 431 L 144 438 L 121 414 L 88 418 L 79 386 L 52 357 L 69 327 L 61 297 L 67 266 L 48 243 L 48 213 L 40 183 L 71 188 L 103 186 L 118 220 L 81 223 L 101 253 L 106 289 L 112 324 L 95 354 L 119 378 L 152 393 L 183 394 L 205 417 L 232 437 L 260 455 L 264 424 L 271 392 L 285 365 L 237 402 L 214 376 L 248 364 L 216 338 L 185 316 L 180 356 L 145 347 L 145 306 L 167 280 L 137 258 L 179 247 L 155 221 L 140 189 L 125 161 L 139 135 L 165 154 L 161 112 L 188 124 L 203 155 L 209 187 L 174 186 L 193 215 L 216 240 L 202 279 L 231 301 L 250 328 L 282 331 L 275 299 L 269 267 L 237 266 L 255 234 L 236 208 L 237 173 L 240 142 L 218 123 L 227 97 L 194 86 L 158 81 L 124 78 L 125 110 L 96 97 L 73 81 L 56 51 L 96 53 L 135 48 L 121 16 L 84 18 L 49 17 L 16 14 L 19 43 L 16 72 L 14 103 L 44 89 L 69 119 L 101 134 L 83 157 L 53 153 L 39 123 L 11 135 L 25 156 L 10 176 L 15 206 L 15 236 L 21 267 L 20 297 L 22 329 L 16 364 L 14 402 L 45 394 L 51 428 L 18 436 L 16 469 L 50 469 L 77 450 L 91 478 L 74 504 L 42 503 L 14 502 L 43 538 L 30 539 L 18 538 L 6 538 L 11 559 L 11 578 L 32 567 L 32 592 L 52 585 L 70 604 L 89 604 L 87 622 L 63 627 L 52 607 L 39 616 L 23 619 L 11 597 L 7 615 L 8 635 L 8 658 L 9 681 L 8 706 L 27 695 L 28 711 L 49 709 L 63 695 L 72 711 L 96 712 L 86 698 L 78 682 L 97 682 L 117 684 L 108 699 L 120 712 L 130 699 L 143 712 L 149 697 L 159 686 L 163 709 L 180 709 L 174 692 L 183 675 L 202 676 L 193 692 L 197 709 L 214 710 L 232 709 L 254 707 L 276 705 L 292 686 L 303 707 L 321 686 L 331 708 L 347 688 L 344 665 L 334 647 L 331 623 L 356 634 L 368 654 L 369 676 L 358 709 L 375 698 L 392 709 L 417 711 L 441 709 L 460 710 L 478 709 L 458 694 L 462 678 L 451 661 L 461 642 L 441 641 L 427 626 L 439 607 L 453 621 L 475 624 L 470 606 L 493 597 L 497 618 L 514 606 L 520 585 L 503 578 L 486 578 L 489 563 L 502 555 L 516 565 L 528 557 L 543 557 L 538 575 L 539 595 L 533 615 L 522 633 L 502 640 L 483 643 L 473 660 L 483 678 L 485 694 L 500 708 L 519 706 L 539 705 L 560 708 L 585 708 L 603 696 L 617 710 L 641 707 L 655 691 L 664 710 L 679 701 L 677 683 L 693 676 L 702 660 L 712 645 L 730 635 L 729 615 L 712 625 L 704 609 L 692 628 L 687 644 L 679 660 L 663 671 L 643 671 L 627 687 L 607 673 L 594 653 L 623 660 L 619 639 L 600 628 L 602 604 L 607 582 L 620 615 L 630 597 L 649 586 L 656 607 L 641 622 L 641 645 L 660 651 L 665 631 L 679 613 L 673 594 L 667 576 L 660 559 L 642 562 L 629 576 L 617 560 L 631 541 L 621 539 L 611 540 L 601 540 L 597 560 L 584 575 L 584 592 L 579 612 L 578 632 L 566 646 L 567 665 L 586 679 L 567 689 L 547 679 L 527 680 L 506 684 L 497 662 L 518 658 L 541 654 L 549 632 L 556 614 L 562 595 L 560 579 L 575 559 L 558 562 L 553 544 L 557 537 L 562 543 L 568 539 L 575 540 L 583 540 L 592 540 L 588 531 L 583 524 L 574 524 L 579 532 L 571 532 L 563 533 L 559 527 L 566 525 L 568 518 L 569 510 L 568 503 L 563 496 L 558 490 L 550 492 L 545 497 L 539 494 L 533 497 L 534 478 L 516 475 L 523 460 L 504 462 L 489 455 L 507 443 L 489 438 L 487 422 L 469 439 L 471 448 L 473 457 L 477 466 L 483 473 L 487 481 L 498 479 L 495 487 L 503 491 L 511 492 L 519 494 L 526 496 L 505 502 L 504 512 L 503 522 L 511 524 L 520 523 L 525 530 L 541 516 L 549 538 L 541 539 L 534 539 L 525 539 L 516 540 L 515 532 L 505 539 L 505 532 L 497 528 L 474 507 L 493 539 L 480 538 L 478 551 L 471 568 L 472 587 L 455 590 L 447 573 L 459 560 L 468 538 L 455 539 L 444 538 L 450 514 L 436 494 L 458 483 L 441 461 L 421 473 L 408 495 L 423 515 L 396 515 L 378 499 L 361 514 L 336 515 L 321 493 L 317 469 L 341 452 L 343 427 L 367 416 L 352 393 L 357 366 L 387 391 L 393 423 L 372 446 L 351 471 L 348 492 L 375 473 L 396 476 L 400 453 L 419 438 L 443 434 L 470 431 L 469 423 L 472 415 L 475 407 L 478 398 L 483 390 L 495 405 L 503 422 L 520 427 L 527 444 L 539 431 L 551 416 L 570 414 L 577 400 L 583 385 L 592 394 L 592 407 L 578 418 L 559 431 L 572 439 L 568 466 L 564 453 L 548 446 L 541 461 L 553 472 L 566 486 L 571 480 L 579 482 L 579 472 L 584 463 L 586 452 L 588 442 L 606 457 L 606 480 L 593 500 L 608 518 L 622 501 L 641 515 L 641 540 L 651 540 L 660 538 L 667 541 L 675 538 L 683 540 L 692 538 L 702 539 L 712 540 L 722 539 L 731 540 L 740 540 L 747 539 L 757 514 L 736 508 L 728 480 L 711 511 L 671 512 L 691 498 L 701 472 L 673 472 L 654 490 L 632 478 L 625 455 L 648 458 L 669 445 L 668 423 L 654 412 L 643 431 L 622 433 L 604 434 L 587 431 L 587 422 L 595 420 L 603 417 L 611 412 L 606 400 L 613 403 L 621 403 L 627 406 L 633 402 L 639 403 L 644 399 L 639 387 L 627 380 L 626 391 L 614 388 L 602 384 L 593 373 L 599 361 L 598 349 L 608 370 L 618 374 L 623 365 L 636 376 L 645 372 L 634 367 L 638 355 L 624 349 L 612 352 L 611 334 L 602 335 L 592 338 L 584 345 L 576 350 L 584 357 L 579 372 L 567 384 L 560 399 L 542 399 L 532 413 L 516 407 L 507 390 L 525 390 L 534 377 L 540 369 L 549 385 L 558 370 L 573 362 L 564 345 L 554 352 L 544 359 L 531 361 L 520 365 L 509 370 L 499 375 L 491 382 L 472 357 L 450 378 L 445 405 L 418 410 L 420 381 L 398 359 L 433 349 L 434 317 L 455 297 L 471 271 L 460 243 L 489 215 L 520 215 L 554 226 L 588 229 L 621 240 L 647 215 L 662 249 L 683 221 L 717 226 L 750 221 L 763 252 L 789 265 L 811 287 L 784 303 L 754 288 L 733 257 L 700 255 L 681 280 L 691 311 L 718 289 L 729 322 L 761 327 L 743 359 L 716 363 L 701 342 L 674 335 L 649 315 L 655 292 L 636 269 L 602 272 L 574 261 L 549 276 L 531 251 L 499 254 L 519 290 L 489 300 L 470 329 L 504 332 L 535 325 L 556 306 L 584 304 L 618 301 L 621 334 L 630 336 L 639 339 L 647 344 L 653 352 L 656 361 L 658 370 L 665 367 L 672 371 L 679 374 L 674 384 L 658 378 L 655 384 L 654 392 L 649 396 L 660 395 L 660 389 L 667 395 L 674 396 L 679 401 L 685 398 L 690 403 L 697 394 L 686 378 L 692 382 L 700 385 L 708 389 L 717 393 L 726 398 L 736 403 L 764 388 L 777 363 L 792 340 L 817 323 L 839 301 L 857 277 L 887 270 L 903 300 L 931 314 L 919 343 L 885 339 L 871 309 L 849 339 L 863 372 L 899 372 L 896 402 L 931 411 L 933 376 L 956 345 L 994 334 L 986 366 L 964 389 L 969 420 L 948 441 L 924 452 L 905 434 L 875 431 L 861 405 L 832 387 L 819 360 L 798 395 L 832 416 L 812 432 L 784 431 L 763 418 L 752 417 L 745 410 L 737 416 L 726 413 L 715 411 L 707 407 L 698 405 L 691 426 L 698 445 L 724 450 L 749 444 L 767 461 L 757 485 L 792 482 L 799 458 L 826 468 L 847 445 L 854 479 L 880 460 L 884 487 L 910 475 L 943 476 L 975 486 L 1008 492 L 1002 468 L 972 457 L 997 438 L 1000 404 L 1019 377 L 1032 351 L 1023 317 L 1023 284 L 1021 249 L 1055 269 L 1060 300 L 1057 330 L 1084 348 L 1108 369 L 1108 401 L 1140 390 L 1173 386 L 1189 416 L 1159 423 L 1126 427 L 1142 454 L 1157 480 L 1179 453 L 1189 482 L 1201 506 L 1184 519 L 1168 504 L 1152 520 L 1138 502 L 1114 513 L 1094 497 L 1122 481 L 1105 459 L 1091 433 L 1076 404 L 1063 374 L 1043 404 L 1027 429 L 1032 460 L 1043 485 L 1060 441 L 1074 471 L 1071 505 L 1050 514 L 1028 509 L 1008 519 L 989 511 L 968 514 L 949 503 L 938 523 L 924 502 L 900 509 L 890 531 L 870 510 L 842 509 L 819 498 L 802 516 L 780 502 L 776 523 L 779 540 L 770 540 L 762 540 L 755 539 L 754 552 L 740 562 L 724 557 L 709 564 L 695 556 L 678 559 L 689 576 L 694 594 L 709 583 L 722 597 L 727 576 L 744 581 L 761 588 L 762 606 L 742 600 L 750 620 L 749 638 L 739 654 L 723 665 L 712 682 L 699 695 L 693 712 L 715 708 L 735 708 L 754 709 L 731 689 L 743 673 L 755 690 L 775 708 L 797 706 L 779 686 L 799 681 L 820 692 L 818 710 L 840 707 L 862 708 L 882 707 L 897 690 L 902 709 L 922 708 L 919 688 L 930 673 L 910 666 L 889 671 L 873 685 L 854 690 L 839 680 L 821 672 L 809 659 L 809 641 L 819 625 L 831 641 L 838 658 L 858 665 L 875 655 L 857 639 L 843 621 L 849 602 L 823 608 L 832 591 L 850 582 L 865 574 L 874 593 L 867 614 L 880 631 L 896 647 L 921 645 L 907 625 L 892 608 L 901 586 L 885 575 L 885 557 L 867 556 L 849 560 L 834 567 L 823 553 L 803 557 L 814 566 L 821 578 L 800 579 L 811 592 L 799 603 L 798 621 L 788 640 L 786 661 L 764 669 L 765 649 L 771 629 L 780 610 L 782 591 L 786 571 L 770 575 L 757 567 L 772 557 L 788 555 L 789 540 L 800 540 L 811 540 L 823 538 L 836 540 L 847 539 L 858 538 L 867 538 L 876 539 L 884 539 L 892 541 L 899 538 L 909 538 L 917 537 L 926 539 L 935 539 L 945 540 L 955 538 L 965 539 L 974 540 L 982 539 L 991 540 L 1000 539 L 1009 540 L 1019 539 L 1028 539 L 1037 539 L 1046 540 L 1055 539 L 1063 539 L 1071 539 L 1079 539 L 1087 538 L 1095 538 L 1103 538 L 1111 540 L 1119 538 L 1126 540 L 1134 537 L 1143 539 L 1152 539 L 1160 540 L 1168 539 L 1176 539 L 1183 540 L 1191 540 L 1199 538 L 1207 539 L 1215 538 L 1224 538 L 1223 513 L 1225 487 L 1216 463 L 1211 438 L 1223 408 L 1206 380 L 1224 352 L 1254 354 L 1251 392 L 1251 431 L 1251 462 L 1256 490 L 1250 512 L 1237 535 L 1232 541 L 1243 540 L 1251 538 L 1259 539 L 1265 536 L 1261 553 L 1246 556 L 1231 561 L 1218 552 L 1212 565 L 1194 559 L 1174 555 L 1173 570 L 1153 555 L 1155 568 L 1159 583 L 1173 590 L 1186 578 L 1203 580 L 1218 592 L 1226 578 L 1244 575 L 1260 568 L 1259 585 L 1240 592 L 1229 607 L 1218 619 L 1198 621 L 1205 604 L 1192 594 L 1183 607 L 1161 603 L 1147 593 L 1131 592 L 1116 590 L 1140 577 L 1135 562 L 1136 548 L 1116 557 L 1121 574 L 1103 574 L 1096 557 L 1078 559 L 1085 576 L 1100 592 L 1084 597 L 1070 585 L 1061 571 L 1060 555 L 1042 559 L 1021 555 L 1028 569 L 1044 579 L 1054 593 L 1069 606 L 1050 613 L 1034 602 L 1026 586 L 1007 594 L 1016 611 L 1030 625 L 999 619 L 978 624 L 984 602 L 959 606 L 957 587 L 975 583 L 993 581 L 1010 572 L 1000 558 L 983 561 L 967 565 L 955 554 L 946 572 L 934 558 L 917 552 L 903 547 L 905 565 L 923 575 L 936 593 L 915 601 L 932 618 L 956 625 L 941 638 L 943 658 L 962 666 L 967 645 L 985 666 L 991 645 L 1011 638 L 1010 664 L 998 686 L 973 686 L 949 686 L 941 706 L 963 707 L 985 707 L 1009 708 L 1021 689 L 1034 671 L 1029 648 L 1050 634 L 1068 627 L 1085 619 L 1099 612 L 1114 606 L 1127 612 L 1143 608 L 1155 621 L 1173 616 L 1171 631 L 1162 642 L 1156 659 L 1138 651 L 1147 638 L 1139 624 L 1128 634 L 1113 626 L 1099 634 L 1083 643 L 1066 650 L 1049 657 L 1061 677 L 1047 692 L 1036 709 L 1067 708 L 1081 691 L 1098 707 L 1100 681 L 1081 667 L 1100 655 L 1118 648 L 1115 667 L 1133 669 L 1149 677 L 1141 694 L 1120 689 L 1124 709 L 1150 710 L 1170 707 L 1187 710 L 1206 707 L 1212 685 L 1214 662 L 1193 669 L 1188 689 L 1164 689 L 1172 672 L 1178 652 L 1186 633 L 1198 647 L 1216 638 L 1237 630 L 1245 612 L 1260 602 L 1260 623 L 1257 643 L 1257 663 L 1258 685 L 1256 708 L 1229 709 L 1236 692 L 1234 672 L 1235 651 " stroke="black" stroke-width="3" fill="none"/> 
 </svg>