<?xml version="1.0" ?>
<!DOCTYPE svg PUBLIC "-//W3C//DTD SVG 1.1//EN" "http://www.w3.org/Graphics/SVG/1.1/DTD/svg11.dtd">
<svg width="1080" height="934" version="1.1" xmlns="http://www.w3.org/2000/svg">
<path d="M689 10 L 688 33 L 691 59 L 701 85 L 728 90 L 759 98 L 788 111 L 790 142 L 799 171 L 813 199 L 837 224 L 861 243 L 829 260 L 857 277 L 887 269 L 918 260 L 896 234 L 876 209 L 849 196 L 834 169 L 822 138 L 821 108 L 832 79 L 821 53 L 801 82 L 780 67 L 749 62 L 721 51 L 718 15 L 743 24 L 765 11 L 776 39 L 796 11 L 807 33 L 832 15 L 864 14 L 854 43 L 860 73 L 890 65 L 886 38 L 897 13 L 928 15 L 918 46 L 948 47 L 959 13 L 978 36 L 996 13 L 1028 14 L 1042 40 L 1057 64 L 1026 70 L 1008 46 L 979 66 L 950 83 L 920 80 L 918 115 L 885 129 L 887 96 L 854 108 L 855 141 L 873 171 L 905 156 L 937 148 L 952 120 L 978 103 L 1002 87 L 1041 97 L 1019 115 L 989 134 L 970 163 L 938 183 L 905 192 L 928 222 L 960 209 L 990 194 L 1008 171 L 1023 211 L 1041 177 L 1070 165 L 1022 145 L 1051 141 L 1065 118 L 1068 91 L 1090 77 L 1096 106 L 1092 136 L 1101 162 L 1122 183 L 1146 198 L 1160 224 L 1189 246 L 1185 203 L 1220 210 L 1208 173 L 1219 129 L 1189 145 L 1163 168 L 1129 149 L 1125 117 L 1156 129 L 1183 108 L 1153 88 L 1159 51 L 1131 47 L 1123 84 L 1108 56 L 1084 50 L 1075 29 L 1063 10 L 1104 16 L 1137 15 L 1167 17 L 1199 12 L 1228 20 L 1255 21 L 1253 62 L 1222 58 L 1194 41 L 1185 72 L 1215 92 L 1250 101 L 1251 141 L 1249 179 L 1254 224 L 1224 248 L 1251 272 L 1249 314 L 1208 284 L 1207 317 L 1187 349 L 1151 356 L 1125 335 L 1095 316 L 1058 332 L 1030 352 L 1023 382 L 1000 403 L 998 438 L 1001 468 L 1008 491 L 1027 505 L 1044 484 L 1077 472 L 1105 454 L 1120 479 L 1154 480 L 1141 452 L 1161 424 L 1122 423 L 1092 398 L 1084 429 L 1058 446 L 1029 459 L 1028 426 L 1052 407 L 1062 375 L 1086 350 L 1112 370 L 1137 393 L 1173 386 L 1194 411 L 1214 382 L 1224 348 L 1253 359 L 1252 398 L 1254 440 L 1227 421 L 1198 442 L 1176 459 L 1187 486 L 1216 482 L 1225 457 L 1252 476 L 1255 506 L 1228 508 L 1204 509 L 1184 518 L 1166 505 L 1151 520 L 1137 502 L 1114 512 L 1094 498 L 1071 502 L 1057 514 L 1038 520 L 1045 540 L 1054 539 L 1063 539 L 1071 539 L 1079 539 L 1087 538 L 1095 538 L 1103 538 L 1111 540 L 1119 538 L 1126 540 L 1134 537 L 1143 539 L 1151 539 L 1160 540 L 1168 539 L 1176 539 L 1183 540 L 1191 540 L 1199 538 L 1207 540 L 1215 538 L 1224 538 L 1233 540 L 1238 533 L 1243 540 L 1251 537 L 1259 539 L 1265 537 L 1261 553 L 1260 567 L 1260 582 L 1259 597 L 1261 613 L 1258 629 L 1257 646 L 1256 665 L 1258 686 L 1256 708 L 1236 692 L 1228 709 L 1206 707 L 1187 710 L 1170 707 L 1164 689 L 1172 672 L 1188 689 L 1212 685 L 1193 669 L 1178 652 L 1162 642 L 1171 631 L 1173 616 L 1183 606 L 1193 594 L 1203 579 L 1226 579 L 1215 591 L 1206 605 L 1198 621 L 1187 633 L 1198 648 L 1219 619 L 1215 638 L 1213 662 L 1233 672 L 1234 651 L 1236 631 L 1243 613 L 1228 604 L 1241 592 L 1244 574 L 1246 556 L 1231 561 L 1218 552 L 1212 566 L 1194 559 L 1174 555 L 1173 570 L 1186 578 L 1173 590 L 1159 583 L 1155 568 L 1153 555 L 1136 549 L 1135 563 L 1121 574 L 1116 557 L 1097 557 L 1103 574 L 1085 576 L 1078 558 L 1060 555 L 1045 561 L 1044 580 L 1062 571 L 1071 585 L 1085 597 L 1100 592 L 1116 590 L 1131 593 L 1140 577 L 1147 593 L 1161 603 L 1155 621 L 1143 608 L 1127 612 L 1114 606 L 1099 612 L 1085 619 L 1069 606 L 1054 594 L 1050 613 L 1033 602 L 1025 587 L 1027 570 L 1031 554 L 1036 539 L 1027 539 L 1018 539 L 1015 557 L 998 559 L 984 562 L 967 564 L 973 581 L 992 583 L 1008 575 L 1007 596 L 982 602 L 977 623 L 997 620 L 1015 613 L 1030 625 L 1050 634 L 1068 627 L 1066 650 L 1083 643 L 1099 634 L 1113 626 L 1128 634 L 1139 624 L 1147 638 L 1138 651 L 1156 659 L 1149 677 L 1133 669 L 1115 667 L 1118 648 L 1100 655 L 1081 667 L 1100 681 L 1120 689 L 1141 694 L 1150 710 L 1124 709 L 1098 707 L 1081 691 L 1067 708 L 1047 692 L 1036 709 L 1021 689 L 1009 708 L 985 707 L 963 707 L 941 707 L 922 706 L 903 710 L 884 705 L 865 710 L 854 695 L 872 686 L 852 675 L 844 656 L 831 643 L 827 668 L 808 660 L 784 661 L 789 641 L 798 621 L 809 641 L 820 625 L 822 608 L 832 591 L 822 578 L 849 582 L 850 601 L 841 620 L 855 634 L 865 652 L 877 664 L 891 676 L 904 690 L 926 682 L 949 684 L 972 684 L 997 686 L 1010 663 L 1033 671 L 1061 677 L 1049 657 L 1029 647 L 1010 638 L 988 645 L 986 666 L 962 661 L 938 661 L 921 645 L 911 665 L 894 648 L 880 631 L 867 613 L 875 593 L 865 574 L 866 556 L 849 560 L 834 566 L 823 553 L 814 566 L 803 557 L 788 555 L 772 557 L 757 567 L 754 552 L 741 562 L 724 556 L 709 564 L 695 556 L 678 560 L 659 560 L 640 560 L 651 540 L 641 540 L 631 540 L 621 539 L 611 540 L 601 540 L 592 540 L 583 541 L 575 540 L 579 532 L 588 531 L 583 524 L 574 524 L 571 532 L 567 539 L 562 544 L 553 544 L 558 537 L 563 532 L 559 527 L 566 525 L 568 518 L 569 510 L 568 502 L 563 496 L 559 490 L 567 485 L 574 480 L 580 472 L 584 463 L 587 452 L 588 442 L 587 431 L 587 422 L 578 418 L 570 414 L 577 400 L 560 399 L 567 384 L 582 385 L 592 394 L 592 407 L 595 420 L 603 417 L 604 435 L 622 433 L 643 431 L 654 412 L 668 423 L 691 426 L 669 445 L 648 458 L 632 478 L 625 455 L 606 458 L 606 480 L 592 498 L 608 517 L 622 501 L 641 515 L 654 490 L 673 472 L 698 445 L 724 450 L 701 472 L 728 480 L 757 485 L 767 461 L 749 444 L 763 418 L 752 417 L 745 410 L 737 416 L 726 413 L 715 411 L 707 407 L 698 405 L 697 394 L 700 385 L 692 382 L 686 378 L 679 374 L 672 371 L 665 367 L 658 370 L 656 361 L 653 352 L 647 344 L 638 355 L 624 349 L 612 352 L 598 349 L 599 361 L 608 370 L 618 374 L 623 365 L 634 367 L 645 372 L 658 378 L 674 384 L 685 398 L 690 403 L 679 401 L 674 396 L 667 395 L 660 395 L 660 389 L 655 384 L 636 376 L 627 379 L 614 388 L 626 391 L 639 387 L 654 392 L 649 396 L 644 399 L 639 403 L 633 402 L 627 405 L 621 403 L 613 404 L 611 412 L 606 400 L 602 384 L 593 373 L 579 372 L 573 363 L 582 356 L 575 350 L 584 345 L 592 338 L 602 335 L 611 334 L 621 334 L 630 336 L 639 339 L 649 315 L 655 292 L 682 280 L 700 255 L 734 257 L 754 288 L 718 289 L 691 311 L 674 335 L 701 342 L 716 363 L 708 389 L 717 393 L 726 398 L 736 403 L 764 388 L 798 395 L 819 360 L 832 387 L 832 416 L 812 432 L 784 431 L 799 458 L 826 468 L 847 445 L 875 431 L 861 405 L 863 372 L 849 339 L 885 339 L 919 343 L 956 346 L 933 376 L 932 411 L 899 372 L 896 402 L 905 434 L 924 452 L 910 475 L 881 460 L 854 479 L 884 487 L 870 510 L 842 509 L 819 498 L 802 516 L 792 482 L 780 502 L 776 523 L 757 514 L 736 508 L 711 511 L 691 498 L 670 512 L 660 538 L 667 541 L 675 538 L 683 540 L 692 538 L 702 539 L 712 540 L 722 539 L 731 540 L 740 540 L 747 539 L 755 539 L 762 540 L 770 540 L 779 540 L 789 540 L 800 540 L 811 540 L 823 538 L 836 540 L 847 539 L 858 538 L 867 538 L 876 539 L 884 539 L 890 532 L 900 509 L 923 502 L 943 476 L 949 503 L 938 523 L 935 539 L 926 539 L 917 537 L 908 538 L 899 538 L 892 542 L 903 548 L 917 553 L 935 558 L 923 575 L 905 565 L 885 558 L 885 575 L 901 586 L 915 601 L 892 609 L 906 627 L 930 618 L 943 637 L 964 639 L 955 614 L 959 593 L 937 594 L 948 574 L 954 555 L 945 540 L 955 538 L 965 539 L 974 540 L 982 539 L 991 540 L 999 540 L 1008 540 L 1008 520 L 989 511 L 969 514 L 974 486 L 972 457 L 948 440 L 969 420 L 964 388 L 989 366 L 993 333 L 1024 317 L 1023 284 L 1060 300 L 1055 269 L 1087 244 L 1091 280 L 1121 265 L 1130 299 L 1165 316 L 1168 281 L 1150 252 L 1123 229 L 1099 212 L 1085 189 L 1060 207 L 1053 237 L 1021 249 L 990 229 L 956 247 L 944 281 L 986 265 L 990 296 L 963 309 L 931 314 L 903 300 L 871 309 L 839 301 L 817 323 L 792 340 L 777 363 L 743 359 L 729 322 L 761 327 L 784 303 L 811 287 L 789 265 L 764 250 L 809 236 L 784 223 L 774 196 L 763 167 L 758 134 L 727 125 L 727 159 L 691 154 L 704 189 L 738 192 L 750 222 L 717 224 L 683 221 L 662 249 L 636 269 L 621 240 L 647 215 L 670 185 L 638 178 L 650 148 L 665 121 L 696 119 L 670 88 L 635 105 L 612 132 L 607 168 L 580 151 L 547 154 L 521 133 L 499 107 L 539 99 L 569 118 L 569 77 L 601 93 L 612 55 L 638 72 L 659 50 L 658 15 L 630 22 L 598 15 L 580 44 L 559 15 L 543 47 L 519 72 L 519 15 L 500 43 L 464 46 L 478 14 L 442 17 L 410 15 L 378 15 L 350 17 L 361 48 L 394 42 L 427 51 L 483 77 L 448 77 L 421 97 L 397 72 L 362 79 L 359 112 L 386 103 L 402 130 L 436 134 L 460 109 L 478 141 L 476 180 L 508 170 L 538 188 L 574 191 L 611 204 L 588 229 L 554 226 L 531 251 L 520 215 L 489 215 L 499 254 L 460 243 L 426 236 L 427 276 L 390 286 L 402 321 L 434 317 L 455 297 L 471 271 L 489 300 L 519 290 L 549 276 L 574 261 L 602 272 L 618 301 L 584 304 L 556 306 L 534 325 L 504 332 L 470 329 L 472 357 L 491 382 L 483 390 L 478 398 L 475 407 L 472 415 L 469 423 L 470 431 L 469 439 L 471 448 L 473 457 L 477 466 L 483 473 L 487 481 L 498 479 L 495 488 L 503 491 L 511 492 L 516 475 L 534 478 L 541 461 L 550 447 L 540 431 L 527 444 L 523 460 L 503 462 L 489 455 L 507 443 L 490 438 L 487 422 L 495 405 L 503 422 L 520 427 L 532 413 L 516 407 L 525 390 L 507 390 L 499 375 L 509 370 L 520 365 L 531 361 L 544 359 L 554 352 L 564 345 L 558 370 L 540 369 L 535 377 L 549 385 L 542 399 L 551 416 L 559 430 L 571 439 L 568 453 L 564 465 L 552 474 L 551 492 L 545 497 L 539 494 L 533 497 L 526 496 L 519 494 L 505 502 L 504 512 L 503 522 L 511 524 L 520 523 L 541 516 L 549 538 L 541 539 L 534 539 L 525 539 L 525 530 L 515 532 L 516 540 L 505 539 L 505 532 L 497 528 L 493 539 L 480 538 L 468 538 L 455 539 L 444 538 L 434 539 L 426 538 L 423 515 L 450 514 L 474 507 L 458 483 L 436 494 L 441 461 L 421 473 L 408 496 L 396 515 L 378 499 L 361 514 L 348 492 L 319 470 L 292 485 L 302 513 L 321 495 L 334 515 L 337 537 L 345 538 L 353 538 L 361 538 L 368 538 L 376 539 L 383 534 L 393 538 L 401 539 L 410 538 L 418 539 L 420 556 L 431 567 L 444 554 L 459 561 L 472 566 L 479 551 L 489 563 L 502 555 L 516 564 L 528 557 L 543 557 L 558 562 L 575 559 L 582 577 L 596 562 L 616 560 L 627 576 L 607 583 L 591 595 L 583 612 L 577 631 L 599 629 L 610 609 L 629 597 L 636 618 L 619 634 L 642 640 L 661 672 L 679 681 L 678 661 L 658 653 L 668 635 L 660 618 L 652 599 L 647 580 L 667 578 L 674 596 L 682 614 L 691 629 L 687 646 L 711 626 L 703 607 L 693 593 L 689 575 L 709 583 L 725 593 L 726 574 L 743 582 L 742 602 L 722 610 L 734 622 L 754 621 L 763 605 L 760 588 L 770 575 L 786 571 L 800 579 L 811 592 L 799 603 L 782 591 L 780 610 L 773 628 L 765 647 L 763 668 L 760 689 L 780 685 L 799 680 L 816 687 L 834 691 L 841 710 L 818 709 L 797 706 L 775 708 L 751 710 L 724 711 L 723 693 L 716 678 L 723 661 L 740 696 L 740 676 L 744 657 L 747 638 L 727 641 L 708 645 L 701 663 L 696 681 L 705 697 L 697 712 L 683 701 L 666 711 L 662 693 L 642 707 L 619 709 L 602 699 L 584 708 L 559 708 L 539 705 L 519 706 L 501 694 L 499 711 L 479 710 L 483 694 L 486 677 L 510 679 L 529 680 L 548 679 L 567 689 L 586 679 L 606 674 L 624 686 L 645 685 L 638 665 L 619 656 L 593 653 L 567 665 L 566 646 L 542 654 L 520 657 L 497 660 L 503 640 L 523 633 L 549 632 L 558 613 L 567 595 L 558 579 L 538 575 L 541 595 L 534 615 L 516 605 L 520 585 L 503 577 L 486 579 L 471 585 L 455 592 L 447 574 L 433 587 L 413 577 L 398 588 L 381 597 L 376 616 L 383 633 L 369 654 L 358 636 L 336 645 L 345 665 L 368 676 L 393 686 L 391 667 L 394 650 L 414 651 L 431 657 L 426 626 L 406 632 L 401 612 L 419 601 L 441 606 L 447 623 L 441 641 L 460 644 L 465 622 L 474 605 L 495 596 L 500 616 L 485 626 L 480 644 L 473 662 L 450 662 L 461 677 L 467 693 L 459 710 L 448 694 L 438 711 L 429 694 L 437 677 L 415 673 L 410 693 L 415 710 L 390 709 L 375 697 L 358 709 L 347 688 L 331 708 L 320 687 L 318 667 L 304 652 L 317 640 L 306 624 L 294 609 L 294 593 L 294 577 L 274 581 L 274 596 L 273 613 L 284 626 L 288 644 L 289 665 L 271 675 L 253 681 L 293 687 L 303 708 L 275 705 L 254 707 L 232 709 L 238 692 L 226 678 L 235 662 L 241 643 L 257 657 L 269 643 L 258 627 L 241 620 L 229 631 L 215 626 L 207 614 L 224 606 L 239 598 L 256 606 L 255 588 L 249 573 L 245 557 L 261 557 L 272 568 L 279 553 L 292 559 L 308 562 L 324 557 L 331 574 L 351 580 L 335 597 L 315 583 L 315 603 L 330 621 L 350 616 L 359 599 L 372 579 L 388 568 L 402 559 L 385 545 L 369 560 L 356 552 L 345 563 L 340 548 L 330 539 L 322 537 L 313 539 L 303 539 L 292 538 L 281 538 L 271 539 L 262 538 L 254 539 L 245 539 L 236 539 L 229 551 L 228 566 L 230 583 L 211 581 L 207 597 L 190 594 L 177 584 L 173 602 L 154 608 L 149 623 L 147 641 L 145 657 L 147 673 L 136 684 L 149 697 L 159 686 L 174 692 L 183 675 L 180 659 L 165 669 L 164 651 L 164 633 L 174 620 L 190 613 L 197 632 L 182 640 L 197 654 L 216 645 L 214 663 L 202 676 L 193 692 L 214 692 L 213 710 L 197 709 L 180 709 L 163 709 L 143 712 L 130 699 L 120 712 L 108 699 L 117 684 L 97 682 L 78 681 L 86 698 L 97 712 L 73 711 L 51 709 L 64 694 L 58 673 L 46 659 L 30 675 L 46 686 L 29 695 L 30 711 L 10 709 L 10 690 L 9 671 L 7 651 L 6 621 L 16 636 L 26 655 L 40 638 L 62 648 L 73 663 L 90 663 L 109 666 L 128 667 L 124 650 L 130 634 L 129 619 L 131 605 L 120 590 L 122 573 L 116 556 L 97 555 L 99 573 L 102 592 L 109 612 L 109 631 L 102 648 L 83 641 L 87 622 L 89 604 L 79 585 L 65 572 L 77 559 L 51 558 L 32 567 L 32 592 L 52 585 L 70 605 L 62 627 L 52 606 L 40 618 L 23 615 L 10 599 L 11 579 L 11 559 L 6 538 L 18 538 L 30 539 L 43 538 L 56 537 L 68 538 L 81 538 L 94 537 L 108 538 L 121 538 L 133 538 L 137 557 L 155 556 L 142 575 L 141 592 L 159 590 L 160 573 L 177 567 L 173 554 L 192 556 L 195 574 L 210 561 L 226 538 L 218 540 L 208 539 L 199 539 L 188 539 L 178 539 L 167 538 L 157 538 L 145 538 L 142 506 L 170 502 L 185 519 L 208 510 L 195 483 L 225 488 L 238 508 L 252 522 L 276 513 L 264 492 L 247 471 L 269 460 L 293 451 L 316 437 L 342 427 L 367 416 L 371 446 L 340 452 L 353 470 L 375 473 L 396 476 L 400 452 L 419 438 L 443 434 L 445 405 L 450 378 L 433 349 L 420 381 L 418 410 L 393 423 L 386 391 L 397 359 L 374 340 L 357 366 L 351 393 L 322 404 L 295 413 L 272 393 L 286 366 L 318 374 L 308 339 L 339 337 L 362 309 L 344 280 L 318 306 L 301 274 L 326 248 L 288 243 L 253 226 L 220 243 L 207 277 L 189 314 L 147 304 L 171 278 L 140 255 L 105 250 L 87 221 L 123 213 L 156 213 L 180 243 L 196 210 L 228 203 L 237 173 L 240 141 L 261 116 L 286 136 L 269 157 L 265 188 L 283 210 L 314 214 L 351 220 L 365 252 L 397 249 L 386 213 L 418 200 L 453 208 L 443 169 L 406 165 L 374 179 L 371 143 L 341 161 L 339 190 L 302 178 L 312 147 L 335 129 L 331 97 L 331 67 L 324 40 L 322 12 L 294 19 L 266 14 L 233 19 L 260 47 L 292 53 L 305 81 L 301 112 L 279 85 L 253 82 L 230 62 L 205 48 L 198 15 L 173 51 L 158 82 L 195 88 L 228 99 L 215 126 L 162 114 L 188 131 L 205 166 L 175 185 L 166 155 L 135 174 L 104 181 L 137 140 L 103 138 L 70 119 L 53 153 L 80 155 L 72 187 L 41 185 L 53 214 L 48 243 L 71 263 L 107 287 L 112 323 L 95 353 L 80 386 L 88 418 L 121 413 L 144 438 L 172 430 L 207 418 L 183 394 L 152 392 L 119 377 L 146 346 L 180 355 L 215 340 L 244 324 L 235 294 L 256 263 L 276 298 L 277 333 L 249 363 L 214 378 L 239 403 L 266 428 L 236 438 L 220 461 L 196 450 L 166 470 L 134 474 L 111 450 L 91 478 L 110 502 L 74 504 L 42 503 L 14 502 L 16 469 L 50 469 L 77 450 L 51 428 L 18 436 L 14 402 L 45 394 L 53 357 L 70 326 L 61 295 L 16 364 L 22 329 L 19 298 L 22 268 L 15 237 L 17 208 L 11 178 L 25 157 L 11 135 L 39 123 L 14 103 L 16 72 L 19 43 L 16 14 L 49 17 L 84 18 L 96 53 L 56 51 L 44 89 L 73 81 L 97 98 L 127 110 L 123 78 L 136 48 L 160 17 L 121 16 " stroke="black" stroke-width="3" fill="none"/> 
 </svg>