<?xml version="1.0" ?>
<!DOCTYPE svg PUBLIC "-//W3C//DTD SVG 1.1//EN" "http://www.w3.org/Graphics/SVG/1.1/DTD/svg11.dtd">
<svg width="1080" height="934" version="1.1" xmlns="http://www.w3.org/2000/svg">
<path d="M688 10 L 688 34 L 690 60 L 701 86 L 729 90 L 759 98 L 788 111 L 821 109 L 855 108 L 887 96 L 916 116 L 885 130 L 855 142 L 822 138 L 834 169 L 849 196 L 837 224 L 813 200 L 799 171 L 790 142 L 758 133 L 763 166 L 774 195 L 784 223 L 808 237 L 829 260 L 811 287 L 788 266 L 763 251 L 732 258 L 698 258 L 676 285 L 683 317 L 652 332 L 692 346 L 707 368 L 730 381 L 735 350 L 722 322 L 714 292 L 752 288 L 758 323 L 784 304 L 817 322 L 839 301 L 871 309 L 903 300 L 857 277 L 862 243 L 887 269 L 919 260 L 896 234 L 928 222 L 956 246 L 986 265 L 945 281 L 931 314 L 919 343 L 886 339 L 850 338 L 825 357 L 832 387 L 864 371 L 899 371 L 897 402 L 932 411 L 933 376 L 956 346 L 963 310 L 990 296 L 1023 284 L 1021 249 L 990 229 L 990 191 L 961 208 L 940 182 L 906 192 L 876 209 L 874 171 L 906 156 L 938 147 L 972 159 L 1002 140 L 1013 169 L 1023 210 L 1042 179 L 1068 160 L 1083 188 L 1060 208 L 1098 212 L 1123 229 L 1087 244 L 1053 236 L 1055 268 L 1060 300 L 1058 333 L 1062 374 L 1092 397 L 1113 370 L 1138 393 L 1121 422 L 1141 451 L 1154 479 L 1161 423 L 1173 385 L 1187 349 L 1207 316 L 1209 283 L 1224 248 L 1189 246 L 1168 281 L 1166 317 L 1130 298 L 1125 335 L 1151 356 L 1086 351 L 1095 316 L 1091 281 L 1120 265 L 1150 253 L 1160 224 L 1146 198 L 1122 184 L 1100 163 L 1092 136 L 1096 106 L 1090 78 L 1067 93 L 1063 123 L 1039 143 L 1020 115 L 1040 97 L 1023 71 L 1009 45 L 981 66 L 998 91 L 979 117 L 948 116 L 956 84 L 923 81 L 948 49 L 918 46 L 886 38 L 892 66 L 861 73 L 833 79 L 821 53 L 801 82 L 780 68 L 749 62 L 721 51 L 718 15 L 743 24 L 765 11 L 775 39 L 806 34 L 797 11 L 832 15 L 853 43 L 864 14 L 898 13 L 928 16 L 960 13 L 978 36 L 996 13 L 1028 14 L 1042 40 L 1056 65 L 1083 50 L 1075 29 L 1062 10 L 1104 16 L 1136 15 L 1131 47 L 1108 55 L 1123 84 L 1153 89 L 1159 51 L 1185 73 L 1194 41 L 1167 17 L 1199 12 L 1228 20 L 1255 20 L 1222 58 L 1253 62 L 1251 101 L 1216 92 L 1183 109 L 1156 129 L 1125 117 L 1130 149 L 1163 168 L 1189 145 L 1219 130 L 1251 142 L 1209 172 L 1186 203 L 1220 210 L 1249 180 L 1254 224 L 1251 272 L 1249 314 L 1224 347 L 1253 358 L 1252 397 L 1255 439 L 1227 420 L 1214 382 L 1194 411 L 1198 442 L 1176 458 L 1187 485 L 1216 481 L 1226 456 L 1252 476 L 1255 506 L 1229 506 L 1204 509 L 1184 517 L 1166 503 L 1151 520 L 1137 501 L 1119 479 L 1105 454 L 1084 429 L 1058 446 L 1077 471 L 1045 483 L 1029 459 L 1001 467 L 1008 490 L 1027 504 L 1038 519 L 1057 514 L 1072 501 L 1095 498 L 1114 512 L 1118 538 L 1126 540 L 1134 537 L 1143 539 L 1151 539 L 1160 540 L 1168 539 L 1176 539 L 1183 540 L 1191 540 L 1199 538 L 1207 540 L 1215 538 L 1224 538 L 1233 540 L 1238 532 L 1243 540 L 1251 537 L 1258 539 L 1265 537 L 1261 553 L 1246 556 L 1260 567 L 1260 582 L 1258 597 L 1261 613 L 1258 630 L 1257 647 L 1256 667 L 1256 688 L 1256 708 L 1233 705 L 1212 708 L 1212 686 L 1234 679 L 1215 664 L 1235 654 L 1236 633 L 1219 620 L 1216 639 L 1199 649 L 1187 633 L 1199 622 L 1206 605 L 1215 591 L 1227 604 L 1243 613 L 1241 592 L 1244 574 L 1226 579 L 1231 561 L 1217 553 L 1212 566 L 1194 559 L 1174 555 L 1173 570 L 1186 578 L 1203 579 L 1193 594 L 1184 606 L 1173 590 L 1159 583 L 1155 568 L 1153 555 L 1135 550 L 1135 563 L 1140 578 L 1130 593 L 1147 593 L 1161 603 L 1156 621 L 1174 617 L 1171 631 L 1162 643 L 1147 638 L 1137 652 L 1133 670 L 1150 677 L 1156 659 L 1172 672 L 1178 653 L 1194 670 L 1188 690 L 1191 709 L 1171 708 L 1165 691 L 1150 710 L 1141 693 L 1124 709 L 1120 689 L 1115 667 L 1100 681 L 1098 707 L 1081 691 L 1067 708 L 1036 709 L 1047 692 L 1061 677 L 1081 667 L 1099 656 L 1118 648 L 1083 643 L 1066 650 L 1049 657 L 1033 671 L 1010 663 L 986 666 L 988 645 L 1010 638 L 1029 648 L 1030 625 L 1049 635 L 1068 627 L 1084 620 L 1099 612 L 1099 634 L 1113 626 L 1128 634 L 1139 624 L 1143 608 L 1127 612 L 1114 606 L 1084 598 L 1069 606 L 1071 586 L 1085 576 L 1062 572 L 1043 580 L 1053 594 L 1050 614 L 1033 602 L 1025 587 L 1006 596 L 1015 613 L 997 620 L 976 623 L 964 639 L 943 637 L 930 619 L 954 614 L 959 593 L 973 581 L 981 602 L 992 583 L 1008 575 L 1027 570 L 1031 554 L 1045 561 L 1061 555 L 1078 558 L 1097 557 L 1103 574 L 1099 592 L 1115 589 L 1121 574 L 1116 557 L 1111 540 L 1103 538 L 1095 538 L 1087 538 L 1079 539 L 1071 539 L 1063 539 L 1054 539 L 1045 540 L 1036 539 L 1027 539 L 1018 540 L 1014 557 L 998 559 L 983 562 L 967 564 L 954 555 L 935 559 L 924 576 L 948 575 L 937 595 L 915 602 L 902 587 L 906 566 L 918 554 L 935 539 L 926 539 L 917 538 L 909 538 L 904 545 L 899 538 L 893 542 L 890 558 L 874 559 L 859 555 L 847 562 L 833 566 L 823 553 L 814 567 L 822 579 L 812 592 L 798 602 L 780 610 L 763 606 L 754 621 L 747 638 L 744 657 L 740 676 L 740 697 L 760 690 L 780 685 L 799 680 L 815 687 L 834 690 L 854 695 L 872 686 L 852 674 L 845 656 L 827 668 L 808 660 L 784 662 L 763 669 L 766 648 L 773 628 L 789 641 L 798 622 L 809 641 L 831 643 L 820 625 L 822 608 L 833 592 L 849 582 L 865 575 L 886 577 L 874 594 L 892 609 L 906 626 L 921 644 L 911 665 L 894 649 L 880 631 L 867 614 L 850 602 L 841 620 L 855 634 L 865 651 L 877 664 L 891 676 L 904 690 L 927 683 L 949 684 L 938 661 L 962 661 L 972 685 L 997 686 L 1021 689 L 1009 708 L 985 707 L 963 707 L 942 707 L 922 706 L 903 710 L 884 705 L 865 710 L 841 710 L 818 709 L 797 706 L 775 708 L 751 710 L 724 711 L 723 693 L 716 678 L 723 661 L 727 641 L 734 623 L 722 610 L 703 608 L 711 626 L 708 645 L 700 663 L 696 681 L 705 697 L 697 712 L 683 701 L 666 711 L 662 693 L 678 681 L 678 661 L 687 646 L 691 629 L 682 614 L 668 635 L 659 618 L 652 599 L 636 618 L 642 640 L 658 653 L 660 672 L 638 665 L 618 656 L 619 634 L 599 630 L 592 653 L 568 665 L 566 647 L 576 631 L 583 612 L 591 595 L 582 578 L 567 595 L 558 579 L 559 562 L 576 559 L 596 562 L 616 560 L 627 576 L 607 583 L 610 609 L 629 597 L 639 560 L 647 580 L 667 579 L 673 596 L 693 593 L 689 575 L 709 584 L 725 593 L 743 602 L 761 589 L 765 574 L 781 590 L 784 572 L 799 579 L 803 558 L 788 556 L 773 558 L 757 558 L 742 562 L 744 581 L 727 574 L 725 556 L 709 564 L 695 556 L 677 560 L 659 560 L 667 541 L 675 538 L 683 540 L 692 538 L 702 539 L 712 540 L 722 540 L 731 540 L 740 540 L 747 540 L 755 540 L 762 540 L 770 540 L 779 540 L 789 540 L 800 540 L 811 540 L 823 538 L 835 540 L 847 539 L 857 538 L 867 539 L 876 539 L 884 540 L 890 533 L 900 509 L 870 510 L 843 509 L 821 499 L 856 480 L 881 459 L 885 487 L 910 475 L 923 501 L 938 521 L 945 539 L 955 539 L 965 539 L 974 540 L 982 539 L 991 540 L 999 540 L 1008 540 L 1009 519 L 989 510 L 968 514 L 949 502 L 944 475 L 975 485 L 972 456 L 998 437 L 999 403 L 1028 425 L 1053 407 L 1024 383 L 1029 352 L 1024 317 L 993 333 L 990 366 L 964 388 L 969 420 L 948 440 L 924 452 L 905 434 L 876 430 L 862 404 L 849 445 L 831 470 L 807 467 L 796 445 L 819 439 L 834 416 L 803 411 L 778 397 L 799 378 L 793 341 L 770 355 L 759 376 L 751 398 L 738 415 L 729 411 L 719 407 L 709 403 L 699 399 L 690 395 L 683 380 L 681 392 L 686 406 L 674 414 L 685 417 L 695 418 L 704 421 L 713 422 L 721 424 L 730 426 L 748 419 L 757 423 L 766 424 L 778 430 L 770 432 L 762 432 L 755 432 L 749 428 L 744 432 L 738 427 L 730 449 L 709 453 L 684 449 L 664 438 L 656 462 L 673 479 L 697 475 L 719 487 L 736 472 L 754 458 L 774 449 L 777 470 L 757 488 L 795 488 L 803 516 L 778 503 L 777 523 L 756 515 L 736 508 L 712 515 L 692 502 L 669 512 L 652 493 L 635 478 L 623 498 L 608 481 L 589 492 L 598 508 L 616 520 L 642 516 L 660 538 L 651 540 L 641 540 L 631 540 L 621 540 L 610 540 L 601 540 L 592 542 L 591 533 L 588 526 L 580 524 L 573 524 L 571 515 L 570 506 L 564 498 L 567 486 L 573 480 L 578 474 L 582 466 L 586 458 L 562 465 L 543 463 L 547 447 L 538 432 L 537 414 L 520 411 L 529 394 L 546 400 L 559 408 L 553 426 L 569 425 L 567 446 L 581 432 L 590 438 L 589 448 L 605 460 L 625 459 L 638 445 L 643 425 L 647 420 L 655 418 L 662 414 L 666 407 L 670 398 L 671 388 L 667 378 L 663 369 L 656 362 L 646 360 L 635 358 L 625 359 L 617 360 L 610 365 L 615 377 L 629 371 L 645 372 L 656 381 L 657 395 L 649 406 L 636 410 L 637 422 L 630 423 L 619 429 L 612 431 L 607 436 L 599 437 L 596 425 L 588 414 L 576 408 L 587 396 L 601 403 L 608 416 L 615 421 L 622 423 L 624 411 L 615 404 L 626 397 L 635 398 L 644 395 L 645 387 L 638 383 L 631 385 L 625 389 L 613 392 L 602 387 L 592 379 L 597 374 L 602 368 L 595 362 L 586 363 L 578 360 L 573 366 L 578 381 L 568 392 L 552 385 L 558 377 L 564 370 L 550 373 L 539 376 L 531 373 L 525 377 L 517 379 L 509 381 L 488 362 L 473 329 L 461 354 L 453 379 L 450 403 L 435 420 L 474 416 L 479 406 L 484 397 L 493 391 L 501 386 L 509 399 L 494 412 L 505 423 L 521 428 L 524 446 L 526 462 L 508 461 L 504 443 L 488 431 L 470 425 L 466 435 L 483 447 L 489 462 L 496 478 L 513 480 L 525 489 L 532 477 L 548 480 L 559 491 L 552 495 L 543 498 L 534 500 L 524 502 L 514 502 L 510 512 L 505 522 L 513 523 L 514 531 L 521 525 L 529 527 L 524 533 L 526 540 L 534 539 L 541 516 L 555 517 L 565 526 L 563 533 L 571 532 L 580 532 L 584 540 L 576 540 L 568 540 L 561 542 L 555 538 L 548 537 L 541 539 L 550 545 L 543 559 L 537 575 L 520 585 L 503 577 L 486 579 L 471 586 L 455 592 L 441 606 L 447 623 L 465 622 L 474 605 L 495 596 L 516 605 L 535 615 L 541 596 L 558 613 L 548 632 L 542 655 L 520 657 L 523 633 L 503 640 L 501 617 L 485 626 L 497 660 L 486 677 L 510 678 L 529 681 L 548 680 L 568 689 L 586 679 L 606 674 L 624 686 L 644 686 L 642 707 L 619 709 L 602 699 L 584 708 L 560 708 L 539 705 L 519 706 L 502 693 L 499 711 L 479 710 L 483 694 L 467 693 L 461 677 L 473 662 L 481 644 L 461 643 L 451 661 L 415 673 L 437 677 L 448 694 L 459 710 L 438 710 L 428 694 L 414 710 L 409 693 L 393 686 L 390 667 L 394 650 L 414 651 L 431 657 L 440 641 L 425 625 L 406 632 L 383 633 L 375 616 L 359 599 L 351 580 L 331 575 L 315 583 L 315 604 L 335 597 L 330 621 L 350 617 L 358 636 L 369 654 L 368 676 L 374 697 L 390 709 L 358 709 L 331 708 L 346 688 L 345 665 L 337 645 L 318 640 L 306 625 L 288 644 L 284 627 L 294 610 L 295 593 L 294 577 L 274 581 L 274 597 L 273 614 L 256 607 L 255 588 L 249 573 L 230 584 L 240 598 L 224 606 L 207 614 L 190 613 L 215 626 L 229 631 L 241 619 L 258 628 L 269 644 L 257 658 L 242 643 L 236 662 L 226 678 L 214 692 L 238 692 L 253 681 L 271 676 L 289 665 L 304 653 L 318 667 L 320 688 L 303 708 L 293 687 L 276 705 L 254 707 L 232 709 L 214 710 L 197 709 L 193 692 L 202 676 L 214 663 L 216 645 L 197 632 L 182 640 L 197 654 L 180 659 L 183 675 L 174 692 L 180 709 L 163 709 L 143 712 L 120 712 L 130 699 L 149 697 L 159 686 L 165 669 L 164 651 L 164 633 L 174 620 L 173 602 L 154 608 L 149 623 L 147 641 L 145 657 L 147 673 L 136 684 L 117 683 L 108 699 L 96 712 L 86 698 L 97 682 L 78 681 L 58 673 L 73 662 L 90 663 L 109 666 L 128 667 L 124 650 L 130 635 L 129 619 L 130 604 L 120 588 L 122 571 L 112 557 L 98 574 L 102 592 L 89 603 L 109 611 L 109 631 L 102 648 L 82 641 L 87 622 L 70 605 L 78 584 L 54 582 L 33 592 L 32 567 L 51 559 L 72 563 L 91 556 L 94 537 L 107 538 L 121 538 L 133 538 L 136 557 L 141 575 L 141 592 L 159 590 L 160 573 L 155 556 L 173 554 L 178 567 L 177 584 L 191 594 L 208 597 L 212 581 L 195 575 L 193 556 L 210 560 L 228 567 L 228 552 L 245 557 L 261 557 L 272 568 L 279 553 L 292 559 L 309 562 L 324 557 L 322 537 L 330 539 L 337 537 L 340 550 L 345 564 L 357 553 L 345 538 L 353 538 L 361 538 L 369 538 L 370 561 L 372 580 L 388 569 L 413 577 L 398 589 L 381 598 L 401 612 L 419 601 L 433 587 L 448 574 L 459 560 L 471 568 L 478 552 L 490 563 L 502 555 L 516 565 L 527 557 L 516 540 L 505 539 L 503 531 L 496 526 L 493 539 L 480 538 L 468 538 L 456 539 L 443 554 L 431 567 L 420 556 L 402 559 L 385 546 L 376 539 L 383 534 L 392 538 L 401 539 L 410 538 L 418 539 L 426 538 L 435 539 L 444 538 L 453 516 L 471 506 L 505 499 L 494 496 L 484 489 L 475 479 L 470 467 L 465 456 L 465 445 L 435 447 L 424 472 L 449 477 L 439 497 L 424 516 L 410 495 L 397 515 L 379 498 L 361 514 L 348 492 L 334 515 L 320 495 L 292 484 L 303 513 L 313 539 L 303 539 L 292 538 L 282 538 L 272 539 L 263 538 L 254 539 L 245 539 L 236 539 L 226 538 L 217 540 L 208 540 L 199 539 L 188 539 L 178 539 L 167 538 L 156 538 L 145 538 L 142 506 L 169 501 L 185 518 L 209 510 L 195 483 L 225 487 L 237 507 L 253 520 L 277 512 L 263 491 L 246 470 L 269 460 L 293 450 L 315 436 L 342 426 L 340 452 L 319 470 L 353 470 L 377 472 L 398 475 L 404 449 L 371 446 L 366 415 L 388 424 L 411 419 L 387 391 L 420 386 L 430 351 L 436 318 L 454 294 L 426 277 L 389 286 L 404 320 L 399 360 L 375 339 L 362 309 L 344 280 L 365 253 L 397 249 L 426 236 L 459 245 L 475 271 L 486 299 L 506 320 L 516 346 L 542 359 L 557 337 L 536 317 L 518 286 L 532 251 L 499 251 L 488 215 L 453 208 L 418 199 L 386 214 L 352 220 L 339 190 L 341 161 L 371 144 L 374 180 L 406 165 L 402 130 L 436 135 L 443 169 L 476 180 L 508 170 L 478 142 L 461 109 L 483 77 L 499 108 L 521 133 L 547 154 L 580 151 L 569 118 L 612 132 L 607 169 L 612 205 L 574 191 L 539 189 L 520 216 L 555 227 L 588 228 L 646 217 L 619 244 L 608 283 L 580 262 L 551 276 L 565 301 L 591 307 L 590 335 L 619 322 L 645 302 L 640 272 L 662 250 L 683 221 L 716 225 L 749 222 L 737 192 L 704 190 L 670 185 L 638 179 L 649 148 L 690 154 L 727 159 L 727 125 L 696 119 L 665 121 L 669 88 L 635 106 L 601 93 L 637 73 L 658 50 L 658 15 L 630 21 L 598 15 L 559 15 L 580 45 L 611 55 L 568 77 L 539 99 L 520 73 L 542 47 L 520 15 L 501 43 L 479 14 L 464 46 L 443 17 L 411 15 L 379 15 L 394 42 L 427 51 L 448 77 L 422 98 L 387 103 L 359 113 L 335 129 L 311 148 L 302 178 L 315 214 L 326 248 L 288 243 L 283 210 L 264 188 L 269 158 L 285 136 L 301 112 L 331 98 L 362 79 L 397 72 L 361 48 L 350 17 L 321 12 L 324 40 L 332 66 L 306 81 L 279 85 L 252 82 L 261 116 L 240 141 L 214 126 L 228 99 L 194 88 L 188 131 L 162 114 L 158 81 L 173 51 L 205 48 L 229 62 L 260 47 L 292 52 L 294 19 L 265 14 L 233 19 L 197 15 L 160 17 L 121 16 L 136 47 L 97 52 L 84 18 L 56 51 L 50 17 L 16 14 L 19 43 L 16 72 L 14 103 L 44 89 L 74 80 L 97 99 L 123 78 L 128 110 L 104 138 L 81 155 L 53 153 L 71 119 L 40 123 L 11 135 L 25 156 L 11 178 L 17 208 L 15 238 L 22 268 L 19 298 L 23 329 L 16 364 L 53 357 L 70 325 L 60 295 L 72 263 L 48 244 L 53 215 L 41 185 L 73 188 L 104 181 L 136 175 L 137 140 L 166 155 L 205 166 L 237 173 L 228 203 L 196 211 L 174 185 L 156 214 L 123 214 L 87 221 L 106 250 L 140 255 L 107 287 L 112 323 L 95 353 L 119 377 L 152 391 L 183 394 L 207 418 L 214 377 L 215 340 L 189 314 L 180 355 L 145 346 L 147 304 L 170 278 L 180 243 L 220 243 L 253 226 L 256 263 L 207 277 L 234 294 L 244 324 L 276 332 L 276 298 L 301 274 L 317 306 L 340 337 L 358 366 L 351 392 L 322 403 L 295 412 L 271 393 L 286 366 L 319 373 L 308 339 L 248 363 L 239 402 L 266 427 L 236 437 L 220 460 L 195 450 L 172 429 L 121 413 L 144 438 L 166 469 L 133 474 L 111 449 L 87 418 L 80 386 L 46 393 L 15 401 L 18 436 L 16 469 L 14 502 L 43 503 L 50 469 L 51 428 L 77 449 L 91 477 L 110 503 L 74 504 L 81 538 L 68 538 L 56 537 L 43 538 L 31 539 L 18 538 L 6 538 L 11 559 L 11 579 L 10 599 L 24 614 L 40 618 L 52 604 L 62 627 L 62 647 L 40 638 L 17 636 L 6 621 L 7 651 L 26 655 L 46 659 L 30 675 L 46 686 L 64 694 L 73 711 L 50 709 L 30 711 L 29 694 L 10 709 L 10 689 L 9 670 " stroke="black" stroke-width="3" fill="none"/> 
 </svg>