<?xml version="1.0" ?>
<!DOCTYPE svg PUBLIC "-//W3C//DTD SVG 1.1//EN" "http://www.w3.org/Graphics/SVG/1.1/DTD/svg11.dtd">
<svg width="1080" height="934" version="1.1" xmlns="http://www.w3.org/2000/svg">
<path d="M321 12 L 324 40 L 332 66 L 362 79 L 397 72 L 394 42 L 361 48 L 350 17 L 378 15 L 410 15 L 441 17 L 475 15 L 464 47 L 427 52 L 449 77 L 422 98 L 387 103 L 359 112 L 335 129 L 311 148 L 302 178 L 315 214 L 283 210 L 264 188 L 269 158 L 240 141 L 261 116 L 285 136 L 301 112 L 331 98 L 306 81 L 279 85 L 252 82 L 228 99 L 194 88 L 158 81 L 173 51 L 205 48 L 229 62 L 260 47 L 292 52 L 294 19 L 265 14 L 233 19 L 197 15 L 160 17 L 121 16 L 136 47 L 123 78 L 128 110 L 162 114 L 188 131 L 214 126 L 205 166 L 237 173 L 228 203 L 196 211 L 180 243 L 220 243 L 253 226 L 256 263 L 288 243 L 301 274 L 326 248 L 344 280 L 365 253 L 397 249 L 426 236 L 426 277 L 389 286 L 404 320 L 399 360 L 431 351 L 436 318 L 454 294 L 486 299 L 475 271 L 459 245 L 499 251 L 532 251 L 520 216 L 488 214 L 453 208 L 418 199 L 386 214 L 352 220 L 339 190 L 341 161 L 371 144 L 374 180 L 406 165 L 403 130 L 437 134 L 443 168 L 476 179 L 508 169 L 547 155 L 523 131 L 505 103 L 480 140 L 463 109 L 486 77 L 501 45 L 511 14 L 542 23 L 575 19 L 606 15 L 632 26 L 658 14 L 660 51 L 633 68 L 630 101 L 612 130 L 592 91 L 603 53 L 566 59 L 528 64 L 546 94 L 567 120 L 580 152 L 608 168 L 574 191 L 538 189 L 555 227 L 588 228 L 580 262 L 608 283 L 591 307 L 565 301 L 551 276 L 518 286 L 536 317 L 558 337 L 542 358 L 539 376 L 531 373 L 525 377 L 517 380 L 509 381 L 501 386 L 493 392 L 484 397 L 487 362 L 515 346 L 506 320 L 473 329 L 461 354 L 453 379 L 420 386 L 387 391 L 366 415 L 342 426 L 340 452 L 353 470 L 348 491 L 334 515 L 360 514 L 379 498 L 377 472 L 398 475 L 410 495 L 398 514 L 381 527 L 424 516 L 439 497 L 449 477 L 424 472 L 435 447 L 404 449 L 371 446 L 388 424 L 411 419 L 435 420 L 450 403 L 479 406 L 474 416 L 470 426 L 466 435 L 465 445 L 465 456 L 470 467 L 475 479 L 484 489 L 471 506 L 453 516 L 468 538 L 481 538 L 493 539 L 505 539 L 503 531 L 496 526 L 505 522 L 510 512 L 513 523 L 513 531 L 516 540 L 524 533 L 521 525 L 529 527 L 541 516 L 555 517 L 526 540 L 534 539 L 541 539 L 548 537 L 550 545 L 555 539 L 561 542 L 568 540 L 576 540 L 584 540 L 592 542 L 591 533 L 588 526 L 580 532 L 571 532 L 563 533 L 565 526 L 573 524 L 580 524 L 571 515 L 570 506 L 564 498 L 559 491 L 552 495 L 543 498 L 534 500 L 524 502 L 514 502 L 505 499 L 494 496 L 513 480 L 525 489 L 532 477 L 548 480 L 567 486 L 589 492 L 598 508 L 608 481 L 623 498 L 635 478 L 652 493 L 673 480 L 692 503 L 670 512 L 642 516 L 616 520 L 601 540 L 610 540 L 621 540 L 631 540 L 641 540 L 651 540 L 660 538 L 667 541 L 675 538 L 683 540 L 692 538 L 702 539 L 714 515 L 737 507 L 757 514 L 758 489 L 774 472 L 788 453 L 777 431 L 770 434 L 756 455 L 738 473 L 719 487 L 697 475 L 731 450 L 709 453 L 684 449 L 656 462 L 664 438 L 685 417 L 695 418 L 704 421 L 713 422 L 721 424 L 730 426 L 738 427 L 744 431 L 749 428 L 755 431 L 762 431 L 767 424 L 757 423 L 748 419 L 751 398 L 738 415 L 729 411 L 719 407 L 709 403 L 699 399 L 690 395 L 683 379 L 681 392 L 686 406 L 674 414 L 666 407 L 670 398 L 671 388 L 667 378 L 663 369 L 656 362 L 646 360 L 635 358 L 625 359 L 629 372 L 645 372 L 656 381 L 657 395 L 649 406 L 662 414 L 655 418 L 647 420 L 636 410 L 635 398 L 644 395 L 645 387 L 638 383 L 631 385 L 624 389 L 615 377 L 617 360 L 610 365 L 602 368 L 595 362 L 597 374 L 592 379 L 602 388 L 613 392 L 626 397 L 615 404 L 624 411 L 622 423 L 615 421 L 608 416 L 600 403 L 587 396 L 576 408 L 588 414 L 596 425 L 599 437 L 607 436 L 612 431 L 619 429 L 630 423 L 637 422 L 643 425 L 638 445 L 625 459 L 605 460 L 586 458 L 582 466 L 578 474 L 573 480 L 562 465 L 589 448 L 590 438 L 581 432 L 569 425 L 567 446 L 547 447 L 543 463 L 526 462 L 524 446 L 521 428 L 504 443 L 508 461 L 496 478 L 489 462 L 483 447 L 488 431 L 505 423 L 494 412 L 509 400 L 530 394 L 546 400 L 537 414 L 520 411 L 538 432 L 553 426 L 560 408 L 568 393 L 578 381 L 558 377 L 552 385 L 550 373 L 564 370 L 573 366 L 578 359 L 586 363 L 590 335 L 619 322 L 645 302 L 652 332 L 683 317 L 692 346 L 707 368 L 730 381 L 735 350 L 722 322 L 714 292 L 752 288 L 758 324 L 784 304 L 817 322 L 839 302 L 857 277 L 829 260 L 811 287 L 788 266 L 763 251 L 732 258 L 698 258 L 676 285 L 640 272 L 619 244 L 612 204 L 646 217 L 662 250 L 683 221 L 716 225 L 749 222 L 774 195 L 763 166 L 737 192 L 704 190 L 670 185 L 638 179 L 649 148 L 660 120 L 667 87 L 700 86 L 694 119 L 690 154 L 727 159 L 757 133 L 726 125 L 728 90 L 759 98 L 788 111 L 790 142 L 799 171 L 813 200 L 784 223 L 808 237 L 837 224 L 862 243 L 896 234 L 928 222 L 956 246 L 986 265 L 990 296 L 963 310 L 945 281 L 919 260 L 887 269 L 903 300 L 931 314 L 919 343 L 886 339 L 871 309 L 850 338 L 825 357 L 800 378 L 793 341 L 771 356 L 757 375 L 776 395 L 799 408 L 803 432 L 801 477 L 784 498 L 777 521 L 802 517 L 817 501 L 842 508 L 869 510 L 884 487 L 910 475 L 881 459 L 856 479 L 829 475 L 819 450 L 848 445 L 875 430 L 859 406 L 829 418 L 832 388 L 864 372 L 899 371 L 895 402 L 905 434 L 924 452 L 944 475 L 975 485 L 972 456 L 948 440 L 931 410 L 933 376 L 956 346 L 993 333 L 990 366 L 964 388 L 969 420 L 999 403 L 1024 383 L 1029 352 L 1024 317 L 1023 284 L 1021 249 L 991 229 L 961 208 L 940 182 L 939 147 L 948 116 L 916 116 L 923 81 L 956 84 L 948 49 L 918 46 L 886 38 L 892 66 L 887 96 L 855 108 L 855 141 L 885 130 L 906 156 L 874 171 L 906 192 L 876 209 L 849 196 L 834 169 L 822 138 L 821 109 L 801 82 L 780 68 L 775 39 L 749 62 L 721 51 L 691 60 L 688 34 L 688 10 L 718 15 L 743 24 L 765 11 L 797 11 L 806 34 L 821 53 L 833 79 L 861 73 L 853 43 L 832 15 L 864 14 L 898 13 L 929 16 L 960 13 L 978 37 L 981 66 L 998 91 L 979 117 L 972 159 L 990 191 L 1023 210 L 1061 207 L 1085 188 L 1067 163 L 1041 142 L 1041 179 L 1013 169 L 1002 140 L 1019 115 L 1042 97 L 1024 72 L 1009 45 L 996 13 L 1028 14 L 1042 40 L 1063 11 L 1075 32 L 1090 53 L 1058 65 L 1071 91 L 1095 84 L 1118 69 L 1127 44 L 1103 16 L 1137 15 L 1168 16 L 1159 49 L 1152 83 L 1186 73 L 1194 41 L 1199 12 L 1228 20 L 1255 20 L 1253 62 L 1222 58 L 1215 93 L 1250 101 L 1251 141 L 1249 180 L 1219 130 L 1182 108 L 1154 126 L 1128 101 L 1101 115 L 1064 120 L 1086 139 L 1101 162 L 1126 141 L 1124 178 L 1145 198 L 1161 166 L 1187 144 L 1208 172 L 1185 202 L 1220 209 L 1254 224 L 1224 248 L 1189 245 L 1160 224 L 1151 253 L 1168 281 L 1165 317 L 1130 299 L 1126 335 L 1152 358 L 1186 348 L 1207 317 L 1209 283 L 1251 272 L 1249 313 L 1224 348 L 1254 356 L 1248 394 L 1251 429 L 1230 451 L 1254 468 L 1256 501 L 1238 520 L 1233 540 L 1224 538 L 1215 538 L 1207 540 L 1199 538 L 1191 540 L 1183 539 L 1176 539 L 1168 539 L 1160 540 L 1151 539 L 1143 539 L 1134 537 L 1126 540 L 1119 538 L 1111 540 L 1103 538 L 1095 538 L 1087 538 L 1079 539 L 1071 539 L 1063 539 L 1054 539 L 1045 540 L 1036 539 L 1027 539 L 1018 540 L 1014 557 L 998 559 L 983 562 L 968 563 L 954 555 L 936 558 L 918 554 L 922 572 L 903 566 L 903 549 L 892 541 L 899 538 L 909 538 L 917 538 L 926 539 L 935 539 L 945 539 L 955 539 L 965 539 L 974 540 L 982 539 L 991 540 L 1000 540 L 1008 540 L 1009 519 L 1027 504 L 1038 520 L 1057 514 L 1072 501 L 1095 498 L 1114 512 L 1137 501 L 1150 520 L 1165 504 L 1185 516 L 1207 508 L 1230 498 L 1213 476 L 1186 486 L 1200 442 L 1211 413 L 1210 380 L 1175 389 L 1166 423 L 1177 458 L 1154 478 L 1142 450 L 1119 478 L 1105 453 L 1123 422 L 1138 393 L 1113 370 L 1087 351 L 1095 316 L 1091 280 L 1120 265 L 1123 230 L 1101 210 L 1087 243 L 1052 236 L 1055 268 L 1060 300 L 1058 333 L 1062 374 L 1093 397 L 1085 429 L 1053 407 L 1028 425 L 998 437 L 1001 467 L 1029 459 L 1058 446 L 1077 471 L 1045 483 L 1008 490 L 989 510 L 968 514 L 949 501 L 937 521 L 923 501 L 900 509 L 890 531 L 884 539 L 876 539 L 867 538 L 857 539 L 847 539 L 836 540 L 823 539 L 811 540 L 800 540 L 789 540 L 779 540 L 770 540 L 762 540 L 755 540 L 747 540 L 740 540 L 731 540 L 722 540 L 712 540 L 725 556 L 709 564 L 709 582 L 692 590 L 688 574 L 695 556 L 677 559 L 658 560 L 639 560 L 627 576 L 616 560 L 596 562 L 576 560 L 559 562 L 558 579 L 567 595 L 582 578 L 607 583 L 591 595 L 583 612 L 576 631 L 566 647 L 568 665 L 548 680 L 568 689 L 586 679 L 602 698 L 624 686 L 638 665 L 619 634 L 618 656 L 606 674 L 592 653 L 599 630 L 610 609 L 629 597 L 636 618 L 641 640 L 656 652 L 667 635 L 660 617 L 652 599 L 647 580 L 667 579 L 674 597 L 703 602 L 705 618 L 709 634 L 721 646 L 707 659 L 694 647 L 687 631 L 682 614 L 676 655 L 692 670 L 678 680 L 661 671 L 644 685 L 661 692 L 677 700 L 696 692 L 709 680 L 719 696 L 730 681 L 724 665 L 741 656 L 743 639 L 752 623 L 763 608 L 743 603 L 730 626 L 725 611 L 724 593 L 727 575 L 742 562 L 744 581 L 761 590 L 765 574 L 757 558 L 773 558 L 788 556 L 803 558 L 814 567 L 823 554 L 834 566 L 849 559 L 866 556 L 884 558 L 886 576 L 903 587 L 915 604 L 932 589 L 948 574 L 955 594 L 959 615 L 938 611 L 922 626 L 919 647 L 910 667 L 890 677 L 904 690 L 926 683 L 949 684 L 971 685 L 960 662 L 938 662 L 943 637 L 964 638 L 979 624 L 980 601 L 972 582 L 991 582 L 1008 575 L 1006 595 L 998 615 L 1018 611 L 1033 626 L 1044 647 L 1064 643 L 1082 646 L 1098 635 L 1100 655 L 1118 648 L 1114 667 L 1133 670 L 1150 677 L 1156 659 L 1138 652 L 1147 638 L 1156 621 L 1161 603 L 1173 590 L 1159 583 L 1147 593 L 1143 608 L 1139 624 L 1127 634 L 1113 626 L 1127 612 L 1114 606 L 1099 612 L 1085 621 L 1070 624 L 1052 628 L 1050 611 L 1035 601 L 1024 587 L 1027 570 L 1031 554 L 1045 561 L 1061 555 L 1078 559 L 1097 557 L 1103 574 L 1086 576 L 1071 585 L 1062 572 L 1043 580 L 1054 592 L 1069 605 L 1085 598 L 1099 592 L 1115 589 L 1121 574 L 1116 557 L 1135 551 L 1135 563 L 1130 593 L 1140 578 L 1155 568 L 1153 555 L 1174 555 L 1173 570 L 1186 578 L 1203 579 L 1194 559 L 1212 566 L 1218 553 L 1231 561 L 1246 556 L 1242 539 L 1251 538 L 1258 539 L 1265 536 L 1261 553 L 1260 567 L 1260 583 L 1259 598 L 1261 613 L 1243 614 L 1258 630 L 1257 647 L 1256 667 L 1256 688 L 1256 708 L 1233 705 L 1212 708 L 1191 709 L 1188 690 L 1212 686 L 1234 679 L 1215 664 L 1235 654 L 1236 633 L 1216 639 L 1219 620 L 1227 604 L 1241 592 L 1244 575 L 1226 579 L 1215 591 L 1206 605 L 1199 622 L 1193 594 L 1184 607 L 1174 617 L 1171 631 L 1162 643 L 1178 653 L 1187 633 L 1199 649 L 1194 670 L 1172 672 L 1165 690 L 1171 708 L 1150 710 L 1141 694 L 1121 689 L 1124 709 L 1098 708 L 1083 692 L 1101 682 L 1082 668 L 1067 708 L 1037 709 L 1010 708 L 1021 688 L 1045 691 L 1063 683 L 1059 663 L 1036 669 L 1009 664 L 1024 649 L 1013 632 L 996 640 L 981 652 L 987 670 L 998 688 L 985 707 L 963 707 L 942 707 L 922 706 L 903 710 L 884 705 L 864 709 L 853 694 L 851 673 L 872 686 L 875 664 L 862 652 L 854 633 L 877 633 L 893 650 L 901 629 L 891 608 L 875 593 L 865 575 L 847 581 L 853 599 L 868 614 L 842 617 L 830 635 L 838 653 L 811 656 L 811 635 L 797 621 L 798 602 L 812 594 L 819 614 L 832 596 L 824 580 L 800 580 L 784 572 L 781 591 L 780 611 L 773 630 L 791 641 L 786 659 L 763 647 L 767 667 L 748 672 L 762 689 L 782 685 L 800 676 L 814 688 L 827 670 L 834 691 L 841 710 L 818 709 L 797 705 L 776 708 L 755 710 L 742 694 L 731 711 L 708 710 L 688 711 L 662 711 L 640 707 L 618 709 L 584 708 L 560 708 L 539 705 L 519 706 L 529 681 L 510 678 L 502 693 L 499 711 L 479 710 L 483 694 L 486 677 L 497 660 L 520 657 L 542 655 L 548 632 L 558 613 L 541 596 L 535 615 L 523 633 L 503 640 L 481 644 L 485 626 L 501 617 L 517 605 L 495 597 L 474 605 L 472 586 L 486 579 L 503 577 L 520 585 L 538 576 L 543 559 L 528 558 L 515 564 L 502 555 L 489 563 L 478 552 L 470 569 L 459 559 L 456 539 L 444 538 L 435 539 L 426 538 L 418 539 L 410 538 L 402 539 L 393 538 L 385 541 L 377 539 L 369 538 L 361 538 L 353 538 L 345 538 L 337 537 L 330 539 L 322 537 L 313 539 L 303 539 L 292 538 L 282 538 L 272 539 L 262 538 L 254 539 L 245 539 L 236 539 L 226 538 L 218 540 L 209 539 L 205 511 L 195 482 L 173 505 L 143 506 L 110 503 L 112 450 L 134 475 L 166 470 L 195 449 L 219 461 L 224 488 L 236 508 L 253 520 L 277 512 L 302 513 L 320 495 L 319 470 L 292 484 L 263 491 L 246 470 L 269 460 L 293 450 L 315 436 L 295 412 L 322 403 L 351 392 L 358 366 L 375 339 L 362 309 L 340 337 L 317 306 L 308 339 L 319 373 L 286 366 L 271 393 L 248 363 L 276 332 L 276 298 L 244 324 L 234 294 L 207 277 L 189 314 L 215 340 L 180 355 L 145 346 L 147 304 L 170 278 L 140 255 L 106 250 L 107 287 L 112 323 L 95 353 L 119 377 L 152 392 L 183 393 L 214 377 L 239 402 L 266 427 L 236 437 L 207 418 L 172 428 L 144 439 L 122 413 L 88 418 L 80 386 L 70 325 L 60 295 L 72 263 L 48 244 L 53 215 L 87 221 L 123 214 L 156 214 L 174 185 L 166 155 L 137 140 L 136 175 L 104 181 L 104 138 L 81 155 L 53 153 L 71 119 L 97 99 L 74 80 L 56 51 L 97 52 L 84 18 L 50 17 L 16 14 L 19 43 L 16 72 L 14 103 L 44 89 L 40 123 L 11 135 L 25 156 L 11 178 L 41 185 L 73 188 L 17 208 L 15 238 L 22 268 L 19 298 L 22 329 L 16 364 L 53 357 L 46 393 L 15 402 L 51 428 L 18 437 L 16 470 L 50 468 L 77 449 L 91 477 L 74 503 L 43 502 L 13 504 L 5 540 L 18 538 L 30 538 L 43 539 L 56 537 L 68 538 L 81 538 L 94 537 L 107 538 L 120 537 L 133 538 L 144 538 L 155 539 L 164 537 L 173 540 L 182 538 L 191 538 L 200 540 L 190 555 L 177 565 L 163 555 L 159 571 L 159 589 L 154 607 L 149 623 L 165 633 L 174 620 L 173 602 L 190 612 L 197 631 L 182 640 L 169 652 L 184 661 L 197 651 L 214 644 L 229 633 L 216 625 L 206 613 L 208 597 L 191 593 L 177 583 L 194 574 L 211 580 L 210 560 L 228 567 L 228 552 L 245 557 L 261 557 L 249 573 L 255 588 L 240 598 L 229 584 L 224 606 L 240 620 L 256 607 L 258 628 L 272 643 L 256 652 L 241 644 L 228 658 L 210 665 L 197 676 L 175 675 L 172 693 L 191 691 L 213 691 L 225 678 L 247 670 L 269 668 L 289 666 L 290 643 L 284 626 L 273 614 L 274 597 L 274 581 L 272 568 L 279 553 L 292 559 L 309 563 L 323 556 L 340 548 L 343 564 L 358 555 L 375 559 L 392 568 L 403 557 L 421 556 L 443 554 L 431 568 L 413 578 L 399 591 L 420 602 L 434 587 L 448 574 L 456 591 L 443 606 L 447 623 L 465 622 L 461 643 L 451 661 L 473 662 L 461 677 L 467 693 L 459 710 L 448 694 L 438 710 L 428 694 L 437 677 L 415 673 L 414 651 L 431 657 L 440 641 L 425 626 L 406 632 L 401 613 L 375 617 L 381 600 L 378 581 L 362 574 L 346 583 L 329 575 L 314 584 L 294 577 L 294 593 L 293 609 L 306 624 L 330 622 L 314 604 L 334 599 L 360 598 L 350 616 L 357 636 L 368 676 L 369 654 L 383 634 L 394 650 L 391 667 L 393 686 L 409 693 L 414 710 L 390 709 L 374 697 L 359 709 L 347 688 L 345 665 L 336 646 L 317 640 L 304 654 L 318 667 L 321 687 L 332 708 L 306 707 L 293 686 L 279 707 L 265 688 L 255 708 L 240 691 L 232 708 L 214 710 L 197 709 L 180 710 L 163 710 L 151 696 L 143 711 L 120 712 L 130 698 L 136 683 L 143 670 L 158 681 L 157 662 L 151 644 L 136 653 L 124 664 L 108 664 L 88 663 L 78 679 L 98 682 L 117 683 L 108 699 L 96 711 L 86 697 L 73 711 L 64 694 L 50 708 L 30 711 L 29 695 L 29 675 L 46 686 L 59 674 L 68 658 L 81 642 L 74 623 L 88 608 L 67 600 L 57 579 L 82 585 L 102 595 L 120 588 L 111 614 L 97 627 L 100 647 L 117 640 L 135 636 L 128 622 L 131 605 L 141 592 L 142 576 L 142 557 L 125 569 L 115 556 L 102 574 L 92 556 L 76 567 L 61 556 L 41 563 L 22 560 L 8 571 L 10 595 L 29 585 L 47 597 L 55 619 L 37 612 L 22 614 L 6 619 L 15 635 L 37 635 L 58 640 L 46 659 L 27 655 L 7 651 L 9 671 L 10 689 L 10 709 " stroke="black" stroke-width="3" fill="none"/> 
 </svg>