<?xml version="1.0" ?>
<!DOCTYPE svg PUBLIC "-//W3C//DTD SVG 1.1//EN" "http://www.w3.org/Graphics/SVG/1.1/DTD/svg11.dtd">
<svg width="1080" height="934" version="1.1" xmlns="http://www.w3.org/2000/svg">
<path d="M337 12 L 346 38 L 360 65 L 372 90 L 397 73 L 422 94 L 450 78 L 460 110 L 482 136 L 506 106 L 484 79 L 465 46 L 430 53 L 405 42 L 377 40 L 371 12 L 405 13 L 440 17 L 478 14 L 500 44 L 519 15 L 561 16 L 543 44 L 521 71 L 545 95 L 553 126 L 522 139 L 501 168 L 477 185 L 451 207 L 418 216 L 409 250 L 424 281 L 454 284 L 436 317 L 472 310 L 469 344 L 441 351 L 413 344 L 393 366 L 373 386 L 345 391 L 339 416 L 314 399 L 288 408 L 255 421 L 263 453 L 286 439 L 315 429 L 315 455 L 321 480 L 291 470 L 270 487 L 277 513 L 298 497 L 310 516 L 330 503 L 354 514 L 351 490 L 345 465 L 344 441 L 372 448 L 367 416 L 392 427 L 399 399 L 424 411 L 423 379 L 453 377 L 481 375 L 502 359 L 498 329 L 526 320 L 529 350 L 547 373 L 538 377 L 528 382 L 536 392 L 546 396 L 552 384 L 555 370 L 563 373 L 566 384 L 582 386 L 572 394 L 559 397 L 551 409 L 563 414 L 570 405 L 578 405 L 578 418 L 569 425 L 571 436 L 563 434 L 557 446 L 542 447 L 545 460 L 533 464 L 518 463 L 507 452 L 491 454 L 482 442 L 475 456 L 466 467 L 471 479 L 484 470 L 501 467 L 496 483 L 511 481 L 525 478 L 539 479 L 546 492 L 556 498 L 559 509 L 547 514 L 536 506 L 532 492 L 519 496 L 506 500 L 492 498 L 480 505 L 483 487 L 471 494 L 463 503 L 458 496 L 457 486 L 456 475 L 456 463 L 460 453 L 465 443 L 469 433 L 477 427 L 485 423 L 492 411 L 492 421 L 493 432 L 504 437 L 518 441 L 528 450 L 533 435 L 548 434 L 555 423 L 541 420 L 535 407 L 527 424 L 514 427 L 505 418 L 509 406 L 522 412 L 521 401 L 523 391 L 516 390 L 507 390 L 501 396 L 495 403 L 470 401 L 448 408 L 440 438 L 416 435 L 400 453 L 424 465 L 441 482 L 426 492 L 403 492 L 394 474 L 371 476 L 379 502 L 381 522 L 406 515 L 430 513 L 450 518 L 467 510 L 471 517 L 477 522 L 483 528 L 486 538 L 492 530 L 492 514 L 507 518 L 522 512 L 518 528 L 532 526 L 545 530 L 556 528 L 566 524 L 574 536 L 569 543 L 582 540 L 588 532 L 596 526 L 603 518 L 591 515 L 575 519 L 580 512 L 585 502 L 571 501 L 567 487 L 581 490 L 576 478 L 587 475 L 594 486 L 596 499 L 609 498 L 607 508 L 635 515 L 642 489 L 633 489 L 634 481 L 642 481 L 646 474 L 650 469 L 649 462 L 645 458 L 642 462 L 643 468 L 639 473 L 633 474 L 627 476 L 626 483 L 617 485 L 608 488 L 604 479 L 600 471 L 594 464 L 587 459 L 580 454 L 577 465 L 564 471 L 556 481 L 549 471 L 555 461 L 562 458 L 568 455 L 572 450 L 574 443 L 579 439 L 581 431 L 589 425 L 590 414 L 586 407 L 584 397 L 593 393 L 600 402 L 603 411 L 599 423 L 608 430 L 615 432 L 602 434 L 595 437 L 588 439 L 602 451 L 613 464 L 619 449 L 631 461 L 627 469 L 632 467 L 637 464 L 638 457 L 650 450 L 658 443 L 650 440 L 642 438 L 634 439 L 636 433 L 644 429 L 651 422 L 657 427 L 665 430 L 673 434 L 681 436 L 690 441 L 699 446 L 704 454 L 692 452 L 685 458 L 679 449 L 668 446 L 668 465 L 662 483 L 661 502 L 666 518 L 692 509 L 682 485 L 705 482 L 724 493 L 717 517 L 731 526 L 735 511 L 747 518 L 746 530 L 759 527 L 773 525 L 783 518 L 771 503 L 763 514 L 751 502 L 739 472 L 725 455 L 720 423 L 699 399 L 673 400 L 678 368 L 709 362 L 743 364 L 729 392 L 757 403 L 747 436 L 779 429 L 770 455 L 761 478 L 789 480 L 802 498 L 812 519 L 826 495 L 846 510 L 855 479 L 846 445 L 826 467 L 800 458 L 812 434 L 829 411 L 854 388 L 872 365 L 904 386 L 905 357 L 933 345 L 960 336 L 974 311 L 940 307 L 912 319 L 883 333 L 870 305 L 849 331 L 834 357 L 815 381 L 793 402 L 776 373 L 796 349 L 812 323 L 834 298 L 856 276 L 883 262 L 912 251 L 876 228 L 851 203 L 816 199 L 831 167 L 800 172 L 779 201 L 796 230 L 826 230 L 851 244 L 822 264 L 799 291 L 787 264 L 767 245 L 751 220 L 737 252 L 752 287 L 776 311 L 759 335 L 725 330 L 714 302 L 714 273 L 674 305 L 684 334 L 649 344 L 616 330 L 614 358 L 626 380 L 649 375 L 647 399 L 643 420 L 635 416 L 628 413 L 629 423 L 629 434 L 623 433 L 620 428 L 614 425 L 610 420 L 616 416 L 622 409 L 615 406 L 612 397 L 605 388 L 596 382 L 588 376 L 578 375 L 571 369 L 586 341 L 558 333 L 549 301 L 569 274 L 584 239 L 605 278 L 588 308 L 637 309 L 641 277 L 678 273 L 658 243 L 621 244 L 611 208 L 645 209 L 682 214 L 697 244 L 719 219 L 709 186 L 672 179 L 694 153 L 686 119 L 656 137 L 639 172 L 603 170 L 578 194 L 553 212 L 545 244 L 508 248 L 530 274 L 504 294 L 481 267 L 449 245 L 482 223 L 516 211 L 533 180 L 560 163 L 586 138 L 620 138 L 621 105 L 653 95 L 685 85 L 718 86 L 722 121 L 757 131 L 731 156 L 744 189 L 767 165 L 791 141 L 821 130 L 852 141 L 866 169 L 886 195 L 901 163 L 924 188 L 905 220 L 934 222 L 956 241 L 959 195 L 994 192 L 987 223 L 1006 251 L 1033 247 L 1028 212 L 1022 177 L 1017 146 L 1050 141 L 1055 173 L 1090 144 L 1092 177 L 1067 204 L 1061 235 L 1094 240 L 1108 212 L 1146 208 L 1129 181 L 1125 151 L 1124 118 L 1096 107 L 1070 118 L 1041 104 L 1014 114 L 1012 81 L 1042 69 L 1066 86 L 1092 76 L 1123 83 L 1154 90 L 1167 56 L 1137 49 L 1106 49 L 1074 49 L 1044 39 L 1012 47 L 980 65 L 981 97 L 984 131 L 981 162 L 945 157 L 919 133 L 885 130 L 857 109 L 829 96 L 806 79 L 777 73 L 789 108 L 753 98 L 747 63 L 745 34 L 714 49 L 682 52 L 649 57 L 615 69 L 586 101 L 570 68 L 591 43 L 598 13 L 628 24 L 658 17 L 690 17 L 721 14 L 759 12 L 789 13 L 783 42 L 822 52 L 815 18 L 840 22 L 853 71 L 866 42 L 865 12 L 895 19 L 924 19 L 957 13 L 921 60 L 893 58 L 885 92 L 917 98 L 951 119 L 949 82 L 949 45 L 980 35 L 995 13 L 1026 15 L 1059 14 L 1089 17 L 1121 16 L 1156 16 L 1185 34 L 1198 12 L 1227 22 L 1255 20 L 1250 61 L 1215 58 L 1190 81 L 1183 116 L 1155 131 L 1166 168 L 1203 180 L 1206 144 L 1219 104 L 1252 99 L 1248 139 L 1246 177 L 1251 218 L 1216 216 L 1179 214 L 1144 242 L 1120 264 L 1107 307 L 1110 339 L 1154 355 L 1150 322 L 1146 287 L 1193 328 L 1190 293 L 1178 256 L 1215 256 L 1252 260 L 1237 296 L 1252 325 L 1251 366 L 1223 346 L 1196 368 L 1170 388 L 1139 390 L 1151 420 L 1115 428 L 1108 398 L 1111 368 L 1071 371 L 1079 404 L 1076 436 L 1071 468 L 1102 458 L 1139 452 L 1157 477 L 1173 443 L 1189 465 L 1187 489 L 1204 507 L 1185 518 L 1166 506 L 1148 519 L 1137 501 L 1121 480 L 1092 495 L 1112 511 L 1115 534 L 1118 541 L 1125 539 L 1131 537 L 1138 539 L 1146 540 L 1155 539 L 1163 539 L 1172 539 L 1181 539 L 1190 540 L 1198 539 L 1206 540 L 1224 512 L 1222 486 L 1221 460 L 1212 433 L 1189 412 L 1221 397 L 1253 401 L 1249 433 L 1252 463 L 1255 489 L 1249 509 L 1240 529 L 1264 532 L 1263 540 L 1255 538 L 1247 539 L 1239 540 L 1232 539 L 1223 538 L 1214 537 L 1216 546 L 1214 563 L 1196 560 L 1205 579 L 1223 584 L 1233 570 L 1230 555 L 1247 560 L 1261 557 L 1261 577 L 1246 582 L 1236 597 L 1259 601 L 1244 615 L 1224 615 L 1212 600 L 1194 594 L 1188 578 L 1176 568 L 1178 554 L 1161 555 L 1159 571 L 1145 561 L 1132 554 L 1115 558 L 1113 573 L 1129 572 L 1143 579 L 1130 592 L 1114 591 L 1110 609 L 1126 611 L 1143 611 L 1153 624 L 1165 637 L 1176 652 L 1170 672 L 1191 668 L 1188 689 L 1213 686 L 1212 664 L 1199 647 L 1186 633 L 1173 618 L 1160 605 L 1145 596 L 1157 588 L 1172 585 L 1178 601 L 1193 613 L 1206 625 L 1219 637 L 1241 636 L 1260 628 L 1257 654 L 1231 653 L 1235 671 L 1258 680 L 1256 706 L 1238 691 L 1229 709 L 1207 707 L 1187 709 L 1170 706 L 1161 689 L 1150 709 L 1136 691 L 1146 675 L 1154 658 L 1144 644 L 1134 629 L 1123 648 L 1128 666 L 1113 685 L 1103 664 L 1078 663 L 1088 685 L 1126 708 L 1102 707 L 1074 707 L 1061 686 L 1044 707 L 1035 675 L 1054 662 L 1064 643 L 1083 636 L 1101 643 L 1114 628 L 1093 618 L 1069 616 L 1050 628 L 1033 648 L 1011 661 L 999 681 L 1022 692 L 1010 709 L 986 703 L 965 706 L 944 705 L 924 705 L 903 708 L 884 706 L 863 709 L 839 708 L 820 692 L 816 710 L 794 706 L 797 681 L 784 660 L 793 636 L 772 640 L 755 649 L 764 671 L 775 688 L 770 709 L 751 701 L 731 710 L 728 689 L 744 676 L 736 654 L 719 667 L 715 641 L 734 631 L 752 625 L 773 620 L 792 614 L 772 600 L 753 605 L 733 606 L 715 616 L 691 615 L 695 633 L 681 648 L 701 656 L 693 674 L 706 688 L 709 708 L 688 707 L 667 708 L 644 707 L 622 707 L 600 706 L 632 685 L 647 667 L 656 688 L 678 688 L 671 667 L 659 649 L 641 638 L 623 625 L 608 643 L 625 659 L 598 664 L 609 684 L 581 684 L 579 707 L 559 706 L 539 706 L 519 707 L 498 709 L 478 709 L 485 691 L 482 672 L 507 689 L 528 682 L 502 669 L 519 658 L 507 640 L 502 622 L 488 649 L 468 658 L 463 678 L 439 684 L 460 694 L 458 711 L 439 707 L 418 691 L 418 710 L 398 706 L 377 707 L 394 682 L 415 672 L 430 659 L 448 666 L 428 636 L 428 617 L 425 600 L 415 582 L 422 560 L 403 563 L 384 563 L 362 559 L 345 572 L 336 555 L 317 556 L 300 559 L 295 576 L 312 589 L 323 573 L 333 596 L 356 593 L 370 580 L 391 587 L 403 605 L 403 626 L 411 647 L 395 657 L 374 660 L 359 636 L 382 635 L 377 610 L 350 615 L 326 621 L 307 609 L 303 629 L 309 647 L 325 664 L 335 643 L 352 662 L 370 684 L 343 684 L 353 707 L 327 707 L 318 686 L 299 672 L 278 677 L 301 704 L 279 706 L 255 709 L 261 689 L 239 691 L 232 709 L 214 709 L 214 690 L 226 675 L 212 662 L 198 675 L 183 665 L 167 670 L 145 694 L 161 688 L 177 688 L 193 692 L 197 709 L 180 709 L 162 708 L 144 711 L 124 711 L 125 695 L 107 706 L 88 708 L 68 709 L 49 705 L 30 711 L 9 706 L 25 694 L 10 680 L 9 658 L 29 664 L 36 681 L 53 681 L 67 668 L 73 689 L 94 688 L 111 679 L 132 678 L 149 674 L 147 657 L 149 640 L 129 641 L 125 660 L 106 657 L 88 667 L 69 648 L 49 655 L 27 644 L 9 635 L 44 633 L 65 627 L 64 603 L 48 586 L 30 593 L 45 611 L 26 618 L 8 616 L 10 598 L 10 578 L 10 558 L 29 567 L 45 562 L 62 556 L 80 557 L 88 573 L 66 577 L 82 590 L 83 608 L 88 625 L 88 644 L 109 636 L 105 612 L 103 592 L 107 573 L 124 581 L 142 579 L 143 599 L 124 601 L 124 621 L 143 621 L 159 611 L 162 592 L 159 575 L 156 556 L 139 560 L 121 559 L 100 555 L 106 538 L 94 537 L 82 538 L 70 538 L 58 537 L 46 538 L 33 539 L 20 538 L 6 538 L 13 505 L 43 503 L 75 503 L 91 475 L 53 470 L 16 474 L 20 446 L 16 418 L 14 386 L 37 367 L 13 352 L 15 320 L 44 332 L 77 336 L 62 302 L 36 291 L 11 289 L 17 259 L 14 225 L 14 193 L 38 173 L 51 141 L 69 93 L 42 110 L 14 157 L 15 125 L 13 89 L 43 78 L 22 58 L 14 36 L 16 11 L 47 20 L 79 17 L 113 17 L 144 20 L 176 21 L 206 13 L 215 40 L 239 17 L 269 13 L 284 34 L 304 12 L 316 40 L 329 66 L 337 96 L 336 129 L 317 151 L 296 176 L 267 153 L 291 139 L 307 113 L 306 85 L 292 60 L 257 50 L 230 65 L 194 62 L 163 59 L 131 59 L 99 49 L 65 53 L 98 84 L 129 93 L 157 102 L 187 96 L 210 124 L 219 93 L 250 88 L 277 84 L 272 115 L 242 120 L 237 149 L 205 156 L 207 186 L 191 211 L 156 213 L 140 181 L 174 175 L 178 134 L 149 143 L 116 152 L 121 122 L 85 121 L 84 153 L 66 177 L 48 207 L 43 238 L 56 266 L 88 270 L 77 234 L 84 204 L 106 182 L 119 215 L 110 247 L 143 247 L 126 284 L 92 299 L 106 325 L 136 321 L 163 308 L 164 276 L 180 245 L 214 239 L 234 264 L 231 298 L 200 280 L 193 320 L 223 337 L 253 322 L 275 297 L 266 266 L 255 233 L 232 210 L 238 179 L 265 185 L 280 210 L 292 241 L 313 214 L 328 187 L 346 161 L 374 150 L 363 118 L 396 116 L 407 152 L 431 129 L 452 157 L 427 181 L 392 186 L 361 191 L 383 224 L 348 222 L 328 248 L 367 259 L 391 282 L 400 314 L 376 338 L 352 360 L 343 328 L 363 302 L 336 281 L 301 274 L 314 307 L 286 330 L 315 343 L 321 372 L 290 369 L 262 389 L 261 353 L 234 370 L 220 398 L 223 429 L 234 455 L 246 476 L 241 498 L 253 516 L 252 538 L 243 539 L 235 539 L 226 539 L 218 540 L 209 540 L 200 539 L 192 539 L 184 539 L 224 515 L 215 483 L 200 504 L 181 515 L 163 499 L 179 477 L 205 456 L 178 446 L 149 440 L 148 410 L 190 417 L 174 387 L 199 363 L 162 352 L 126 353 L 129 385 L 109 417 L 96 368 L 65 368 L 80 402 L 46 400 L 54 432 L 82 444 L 117 452 L 141 474 L 138 508 L 110 500 L 118 538 L 128 539 L 137 538 L 146 539 L 154 538 L 161 537 L 168 540 L 176 539 L 178 553 L 170 564 L 182 573 L 182 589 L 201 600 L 200 578 L 195 559 L 213 563 L 228 553 L 233 567 L 229 581 L 215 588 L 240 596 L 225 606 L 211 619 L 195 620 L 179 605 L 177 621 L 164 631 L 169 650 L 187 637 L 196 652 L 212 640 L 229 628 L 245 639 L 232 654 L 249 671 L 261 654 L 283 650 L 284 625 L 264 630 L 247 616 L 260 599 L 276 608 L 290 595 L 273 581 L 282 560 L 265 562 L 251 578 L 247 559 L 257 546 L 261 538 L 270 539 L 279 539 L 288 539 L 297 538 L 306 539 L 315 538 L 324 539 L 331 533 L 336 539 L 345 537 L 351 541 L 359 538 L 368 538 L 376 540 L 385 539 L 393 540 L 401 538 L 409 540 L 416 539 L 423 538 L 430 540 L 438 538 L 447 538 L 456 539 L 465 539 L 475 539 L 483 552 L 470 559 L 455 563 L 441 555 L 437 573 L 440 592 L 456 586 L 469 577 L 488 567 L 484 583 L 472 600 L 454 608 L 450 626 L 448 646 L 467 639 L 478 624 L 490 607 L 499 591 L 506 575 L 518 562 L 501 555 L 496 538 L 504 538 L 513 542 L 522 544 L 531 545 L 540 545 L 550 546 L 559 544 L 537 563 L 548 577 L 561 595 L 566 565 L 590 562 L 581 581 L 582 603 L 570 623 L 549 617 L 538 598 L 525 581 L 514 600 L 524 618 L 532 638 L 542 661 L 553 684 L 567 665 L 556 642 L 582 646 L 594 624 L 606 605 L 628 602 L 648 590 L 649 614 L 669 627 L 673 603 L 668 584 L 681 571 L 692 583 L 701 599 L 717 589 L 737 586 L 754 586 L 771 581 L 783 573 L 787 594 L 799 582 L 812 569 L 827 570 L 842 570 L 868 581 L 851 587 L 855 604 L 854 623 L 834 619 L 831 602 L 834 586 L 817 586 L 807 599 L 813 615 L 816 630 L 812 646 L 807 661 L 837 639 L 836 657 L 820 673 L 839 679 L 851 692 L 870 685 L 890 682 L 910 685 L 906 662 L 922 647 L 890 641 L 880 661 L 858 665 L 863 643 L 877 622 L 876 600 L 887 583 L 906 590 L 897 609 L 909 628 L 923 607 L 928 584 L 949 601 L 938 627 L 962 627 L 963 652 L 942 656 L 930 678 L 954 681 L 977 674 L 987 649 L 1010 636 L 989 622 L 973 605 L 969 584 L 989 575 L 996 594 L 1011 611 L 1030 621 L 1046 605 L 1023 591 L 1043 582 L 1062 589 L 1079 600 L 1096 596 L 1097 577 L 1079 577 L 1060 567 L 1076 558 L 1095 558 L 1109 541 L 1103 538 L 1095 539 L 1087 537 L 1079 540 L 1071 539 L 1063 540 L 1049 552 L 1039 563 L 1023 564 L 1008 572 L 995 556 L 975 561 L 957 560 L 947 576 L 943 547 L 929 561 L 910 571 L 906 555 L 891 565 L 883 552 L 871 561 L 857 568 L 854 553 L 837 555 L 821 554 L 805 554 L 797 567 L 788 555 L 773 558 L 759 568 L 756 553 L 742 564 L 726 571 L 722 555 L 708 569 L 697 558 L 677 556 L 659 553 L 659 568 L 639 563 L 627 580 L 604 583 L 615 561 L 592 540 L 601 541 L 611 540 L 621 539 L 631 541 L 641 540 L 650 539 L 659 539 L 667 539 L 674 540 L 681 538 L 688 540 L 695 539 L 703 539 L 712 541 L 720 539 L 728 539 L 735 542 L 741 538 L 747 542 L 754 539 L 760 540 L 767 539 L 773 541 L 779 538 L 785 540 L 792 539 L 801 540 L 811 540 L 822 539 L 833 539 L 844 539 L 855 538 L 865 538 L 873 540 L 879 537 L 886 539 L 893 541 L 899 539 L 906 538 L 913 541 L 918 536 L 925 540 L 934 539 L 943 536 L 953 539 L 964 540 L 975 540 L 986 540 L 997 539 L 1007 540 L 1017 541 L 1027 540 L 1036 539 L 1046 539 L 1055 539 L 1062 518 L 1065 498 L 1041 477 L 1040 444 L 1046 413 L 1035 383 L 1034 351 L 1008 407 L 1005 437 L 1010 465 L 1012 491 L 1036 507 L 1016 521 L 996 510 L 974 516 L 953 506 L 928 504 L 903 508 L 892 527 L 873 509 L 885 487 L 912 476 L 947 477 L 979 486 L 977 458 L 973 424 L 950 442 L 926 453 L 882 461 L 876 437 L 859 416 L 890 408 L 906 436 L 932 413 L 937 379 L 970 395 L 968 364 L 1001 372 L 998 336 L 1029 317 L 1070 336 L 1064 303 L 1091 278 L 1060 269 L 1028 282 L 998 293 L 981 261 L 961 280 L 932 273 L 900 289 " stroke="black" stroke-width="3" fill="none"/> 
 </svg>