<?xml version="1.0" ?>
<!DOCTYPE svg PUBLIC "-//W3C//DTD SVG 1.1//EN" "http://www.w3.org/Graphics/SVG/1.1/DTD/svg11.dtd">
<svg width="1080" height="934" version="1.1" xmlns="http://www.w3.org/2000/svg">
<path d="M864 12 L 894 17 L 923 20 L 956 13 L 946 46 L 950 84 L 982 98 L 979 65 L 979 35 L 995 13 L 1026 15 L 1012 47 L 1012 80 L 1042 69 L 1066 86 L 1041 104 L 1015 113 L 1020 145 L 1018 174 L 992 189 L 957 193 L 972 159 L 988 133 L 954 121 L 920 108 L 888 90 L 921 68 L 895 53 L 865 43 L 855 72 L 830 97 L 806 80 L 822 53 L 839 22 L 814 18 L 787 12 L 785 42 L 777 72 L 789 108 L 792 141 L 822 130 L 856 140 L 861 109 L 893 130 L 900 163 L 933 150 L 924 187 L 886 195 L 866 170 L 832 167 L 800 172 L 817 199 L 779 201 L 796 229 L 826 230 L 851 244 L 851 203 L 876 228 L 905 221 L 934 223 L 956 240 L 987 221 L 1027 211 L 980 261 L 1005 250 L 1033 246 L 1061 235 L 1067 204 L 1053 174 L 1052 141 L 1070 118 L 1090 143 L 1090 176 L 1125 151 L 1123 118 L 1096 107 L 1123 83 L 1154 90 L 1190 81 L 1214 58 L 1167 56 L 1137 49 L 1106 50 L 1092 76 L 1074 49 L 1045 39 L 1059 13 L 1089 17 L 1120 16 L 1155 15 L 1184 33 L 1199 12 L 1228 22 L 1255 20 L 1250 61 L 1252 99 L 1219 104 L 1183 116 L 1155 130 L 1166 167 L 1201 180 L 1206 145 L 1248 140 L 1247 180 L 1252 226 L 1219 211 L 1181 218 L 1148 206 L 1128 181 L 1108 211 L 1094 240 L 1120 265 L 1144 242 L 1177 261 L 1149 288 L 1150 321 L 1151 356 L 1186 334 L 1200 296 L 1215 252 L 1248 272 L 1246 311 L 1221 339 L 1206 372 L 1252 354 L 1251 391 L 1222 404 L 1250 430 L 1252 462 L 1256 490 L 1248 510 L 1240 531 L 1264 532 L 1263 540 L 1254 538 L 1247 539 L 1240 541 L 1232 539 L 1224 538 L 1217 545 L 1214 537 L 1206 540 L 1198 539 L 1190 540 L 1185 519 L 1166 507 L 1148 520 L 1137 502 L 1157 479 L 1140 453 L 1152 420 L 1173 443 L 1188 466 L 1187 490 L 1203 508 L 1223 513 L 1222 486 L 1221 460 L 1211 436 L 1188 412 L 1173 383 L 1139 390 L 1108 368 L 1110 339 L 1107 307 L 1090 278 L 1070 336 L 1064 303 L 1059 269 L 1027 282 L 997 294 L 973 316 L 1000 337 L 1030 318 L 1036 351 L 1067 372 L 1043 407 L 1022 378 L 1004 405 L 1006 435 L 1041 442 L 1075 436 L 1079 404 L 1109 399 L 1115 429 L 1102 458 L 1121 480 L 1112 511 L 1092 496 L 1071 469 L 1041 477 L 1065 499 L 1061 519 L 1063 540 L 1055 539 L 1046 538 L 1037 539 L 1027 540 L 1017 541 L 1007 541 L 997 539 L 986 539 L 975 540 L 964 539 L 953 539 L 954 506 L 974 516 L 996 511 L 1016 523 L 1035 508 L 1011 491 L 1011 465 L 978 458 L 979 487 L 947 477 L 928 504 L 903 509 L 892 531 L 893 541 L 886 539 L 879 537 L 873 540 L 865 538 L 855 538 L 844 539 L 833 539 L 822 539 L 811 540 L 801 540 L 792 539 L 785 540 L 779 537 L 773 526 L 782 517 L 810 520 L 802 498 L 786 481 L 801 461 L 811 434 L 829 412 L 853 388 L 873 365 L 890 407 L 859 416 L 876 437 L 882 462 L 855 479 L 846 445 L 827 467 L 826 497 L 847 510 L 873 509 L 886 488 L 912 476 L 926 453 L 906 436 L 932 412 L 950 442 L 972 423 L 967 393 L 988 369 L 962 348 L 932 342 L 939 377 L 905 386 L 906 357 L 884 334 L 870 305 L 899 289 L 912 316 L 942 309 L 961 281 L 932 274 L 913 253 L 883 261 L 857 276 L 823 264 L 799 290 L 788 264 L 768 244 L 737 252 L 752 287 L 714 273 L 715 302 L 726 330 L 775 311 L 760 337 L 776 373 L 797 349 L 812 323 L 834 298 L 849 331 L 835 357 L 816 381 L 793 403 L 757 402 L 778 428 L 771 454 L 757 475 L 769 502 L 763 514 L 760 527 L 748 530 L 748 517 L 748 501 L 734 511 L 735 526 L 721 523 L 694 513 L 719 499 L 702 487 L 688 469 L 713 466 L 734 473 L 744 437 L 725 403 L 742 368 L 710 364 L 695 398 L 664 392 L 640 374 L 618 355 L 650 341 L 677 365 L 687 333 L 675 304 L 677 273 L 658 243 L 645 209 L 611 207 L 620 244 L 584 239 L 545 244 L 568 274 L 604 279 L 640 276 L 638 308 L 614 325 L 584 306 L 584 335 L 592 356 L 595 377 L 603 382 L 610 388 L 615 397 L 616 406 L 615 413 L 619 417 L 614 425 L 610 421 L 599 424 L 589 427 L 580 419 L 568 423 L 577 432 L 569 437 L 562 434 L 558 446 L 545 449 L 546 436 L 552 423 L 564 412 L 569 404 L 575 407 L 581 405 L 587 409 L 593 414 L 604 411 L 605 399 L 595 402 L 596 390 L 586 395 L 582 384 L 573 393 L 567 383 L 586 374 L 576 372 L 570 364 L 564 372 L 555 370 L 546 372 L 537 376 L 529 383 L 523 391 L 516 385 L 508 389 L 499 391 L 496 399 L 508 405 L 522 401 L 535 399 L 545 393 L 553 383 L 559 396 L 551 408 L 540 414 L 527 413 L 520 411 L 534 429 L 520 428 L 508 420 L 509 438 L 521 444 L 532 447 L 537 461 L 546 463 L 555 462 L 562 459 L 569 455 L 572 448 L 575 442 L 583 440 L 590 440 L 597 438 L 603 435 L 608 430 L 615 432 L 620 429 L 623 433 L 627 428 L 630 434 L 637 430 L 638 436 L 645 435 L 646 425 L 633 418 L 628 410 L 623 405 L 637 408 L 642 415 L 651 417 L 659 422 L 669 425 L 679 429 L 689 434 L 701 435 L 717 444 L 706 446 L 695 445 L 684 444 L 673 441 L 663 439 L 654 437 L 650 456 L 669 459 L 664 478 L 678 493 L 667 516 L 652 502 L 644 480 L 643 473 L 637 478 L 630 478 L 631 472 L 637 470 L 642 465 L 643 459 L 642 454 L 642 449 L 636 449 L 630 450 L 636 455 L 630 458 L 636 462 L 631 465 L 623 474 L 624 467 L 623 460 L 625 454 L 619 444 L 609 449 L 598 451 L 594 462 L 587 458 L 580 453 L 577 465 L 577 477 L 588 474 L 595 485 L 594 498 L 582 489 L 569 494 L 566 484 L 565 471 L 554 479 L 541 477 L 525 478 L 520 463 L 507 454 L 492 452 L 498 434 L 490 432 L 494 424 L 492 415 L 493 407 L 485 421 L 476 426 L 469 433 L 481 442 L 465 442 L 439 441 L 460 452 L 461 462 L 453 466 L 459 474 L 460 483 L 462 492 L 465 500 L 469 508 L 474 515 L 479 521 L 485 526 L 492 532 L 498 538 L 507 537 L 501 522 L 491 511 L 479 502 L 478 488 L 473 475 L 475 456 L 484 468 L 501 468 L 510 482 L 494 482 L 491 497 L 505 500 L 519 497 L 528 513 L 513 517 L 525 527 L 540 527 L 552 527 L 547 513 L 538 503 L 533 491 L 550 493 L 556 511 L 561 503 L 570 507 L 579 512 L 582 503 L 591 511 L 600 518 L 604 509 L 607 501 L 607 493 L 608 485 L 606 479 L 602 474 L 599 468 L 610 463 L 615 478 L 630 498 L 632 518 L 630 541 L 641 540 L 650 539 L 659 539 L 667 539 L 674 540 L 681 538 L 688 540 L 696 539 L 704 539 L 712 541 L 721 541 L 729 538 L 735 544 L 740 539 L 747 541 L 754 539 L 760 540 L 767 540 L 773 541 L 773 557 L 760 567 L 756 553 L 743 565 L 726 564 L 710 566 L 696 558 L 678 555 L 660 551 L 659 567 L 641 563 L 628 580 L 627 602 L 623 625 L 607 642 L 625 658 L 632 685 L 609 684 L 598 665 L 581 683 L 552 683 L 566 664 L 581 647 L 594 624 L 604 605 L 577 602 L 581 581 L 575 559 L 596 563 L 605 583 L 617 561 L 619 539 L 607 540 L 596 540 L 585 541 L 584 532 L 593 525 L 581 523 L 571 519 L 562 524 L 567 532 L 576 538 L 567 541 L 557 543 L 547 544 L 537 544 L 527 542 L 517 541 L 504 554 L 508 573 L 524 562 L 542 569 L 560 570 L 554 592 L 527 585 L 534 606 L 515 605 L 506 622 L 504 641 L 487 650 L 467 658 L 467 639 L 480 625 L 491 607 L 503 590 L 486 583 L 490 566 L 484 552 L 486 539 L 476 538 L 466 539 L 456 539 L 453 518 L 434 512 L 422 494 L 439 483 L 421 465 L 393 474 L 399 452 L 372 448 L 391 426 L 415 433 L 430 413 L 451 403 L 474 398 L 464 375 L 443 354 L 426 380 L 402 400 L 394 367 L 374 387 L 345 391 L 367 416 L 339 417 L 315 429 L 344 441 L 345 465 L 370 476 L 351 490 L 354 514 L 378 504 L 401 493 L 406 515 L 381 525 L 385 539 L 394 540 L 401 538 L 409 540 L 416 539 L 424 537 L 430 540 L 438 538 L 446 538 L 441 554 L 456 562 L 471 559 L 470 577 L 473 599 L 455 609 L 450 626 L 448 646 L 428 636 L 429 617 L 425 599 L 440 592 L 456 585 L 438 573 L 422 560 L 403 563 L 384 563 L 370 579 L 356 593 L 350 615 L 377 609 L 391 586 L 416 581 L 404 605 L 404 626 L 382 635 L 359 636 L 335 643 L 326 621 L 307 608 L 302 628 L 309 647 L 284 625 L 264 629 L 247 616 L 240 595 L 225 606 L 215 588 L 229 580 L 232 566 L 213 563 L 195 559 L 178 553 L 171 564 L 181 573 L 200 578 L 200 600 L 211 619 L 195 619 L 187 637 L 169 650 L 149 640 L 164 631 L 177 621 L 179 605 L 182 589 L 162 591 L 159 611 L 143 621 L 123 621 L 124 601 L 143 598 L 142 579 L 159 574 L 156 556 L 139 560 L 124 580 L 120 558 L 128 539 L 138 538 L 146 539 L 154 538 L 161 537 L 168 540 L 176 539 L 184 539 L 192 539 L 200 539 L 209 540 L 218 540 L 226 539 L 229 552 L 235 539 L 243 540 L 251 538 L 257 545 L 281 559 L 264 562 L 247 559 L 251 578 L 273 581 L 260 598 L 276 608 L 290 595 L 295 576 L 300 559 L 317 556 L 323 573 L 312 588 L 333 595 L 345 571 L 335 554 L 362 559 L 376 540 L 368 538 L 359 538 L 351 541 L 345 537 L 337 539 L 331 534 L 324 539 L 315 538 L 306 539 L 297 538 L 288 539 L 279 539 L 270 539 L 261 538 L 252 517 L 276 513 L 298 498 L 310 516 L 330 503 L 321 479 L 314 455 L 291 471 L 270 487 L 246 477 L 234 456 L 224 430 L 190 417 L 221 398 L 235 371 L 261 353 L 290 369 L 263 390 L 256 421 L 263 454 L 286 440 L 289 409 L 314 399 L 321 372 L 315 344 L 343 329 L 352 361 L 376 339 L 400 315 L 414 345 L 437 318 L 472 311 L 470 343 L 496 362 L 525 351 L 555 334 L 548 301 L 527 321 L 499 330 L 504 295 L 529 273 L 507 248 L 481 268 L 454 285 L 425 282 L 409 250 L 418 216 L 427 180 L 452 157 L 482 136 L 460 110 L 484 79 L 506 106 L 521 139 L 553 126 L 545 95 L 586 101 L 622 105 L 620 138 L 585 138 L 559 163 L 532 180 L 501 168 L 477 185 L 451 207 L 450 246 L 483 223 L 516 211 L 554 212 L 579 194 L 603 170 L 639 172 L 672 180 L 682 214 L 697 244 L 719 219 L 751 219 L 745 189 L 767 165 L 757 130 L 753 96 L 720 83 L 721 120 L 731 156 L 710 186 L 695 153 L 656 137 L 686 120 L 686 87 L 653 95 L 651 56 L 685 52 L 717 47 L 748 55 L 758 18 L 729 16 L 696 16 L 663 17 L 631 23 L 616 68 L 570 68 L 592 43 L 599 13 L 561 16 L 542 44 L 521 71 L 500 44 L 519 14 L 477 14 L 464 46 L 440 17 L 405 13 L 405 42 L 430 53 L 449 78 L 421 94 L 397 72 L 371 89 L 360 64 L 346 38 L 377 40 L 371 12 L 337 12 L 305 12 L 316 40 L 329 67 L 337 96 L 336 129 L 363 117 L 395 116 L 430 129 L 406 152 L 374 149 L 391 186 L 360 191 L 383 224 L 367 259 L 392 283 L 362 302 L 336 281 L 329 248 L 348 222 L 313 213 L 292 241 L 301 274 L 314 308 L 286 330 L 253 322 L 275 297 L 266 266 L 234 264 L 214 239 L 180 245 L 165 276 L 200 280 L 231 298 L 193 320 L 223 337 L 199 363 L 174 387 L 162 352 L 125 353 L 96 368 L 64 368 L 44 332 L 76 336 L 106 325 L 136 321 L 162 308 L 126 284 L 143 247 L 119 215 L 106 182 L 84 203 L 77 234 L 42 238 L 48 207 L 66 177 L 84 153 L 116 152 L 149 143 L 179 134 L 174 175 L 140 181 L 156 213 L 191 211 L 207 186 L 205 156 L 238 179 L 232 210 L 255 232 L 279 209 L 266 185 L 297 176 L 327 186 L 346 161 L 316 150 L 267 152 L 237 149 L 242 120 L 272 116 L 291 139 L 306 113 L 306 85 L 292 59 L 277 84 L 251 89 L 219 94 L 210 124 L 187 96 L 157 102 L 121 122 L 129 94 L 98 85 L 85 121 L 69 93 L 65 53 L 100 50 L 132 60 L 163 59 L 194 62 L 230 65 L 257 50 L 284 34 L 269 13 L 239 17 L 216 40 L 206 13 L 176 21 L 144 20 L 112 17 L 79 17 L 47 20 L 16 11 L 14 36 L 22 57 L 43 78 L 13 89 L 41 110 L 51 140 L 14 125 L 14 157 L 38 173 L 14 193 L 14 226 L 17 259 L 56 265 L 109 247 L 88 270 L 92 299 L 61 302 L 36 291 L 11 290 L 15 320 L 13 352 L 37 367 L 13 386 L 16 418 L 21 445 L 16 473 L 13 504 L 43 504 L 52 470 L 75 503 L 111 500 L 91 476 L 82 445 L 54 432 L 45 400 L 80 401 L 108 418 L 128 385 L 147 410 L 150 440 L 118 452 L 142 474 L 179 477 L 179 447 L 205 457 L 216 484 L 242 499 L 224 515 L 201 505 L 181 516 L 164 500 L 138 508 L 118 537 L 106 538 L 94 537 L 82 538 L 70 538 L 58 537 L 46 538 L 33 539 L 20 538 L 6 538 L 10 558 L 10 578 L 29 567 L 47 563 L 63 557 L 80 560 L 99 556 L 106 573 L 88 580 L 68 580 L 50 587 L 31 592 L 11 597 L 8 616 L 26 617 L 45 611 L 65 606 L 83 600 L 105 592 L 104 612 L 85 622 L 64 629 L 42 633 L 26 644 L 9 635 L 9 658 L 10 680 L 29 664 L 49 654 L 67 668 L 70 649 L 88 642 L 88 667 L 106 656 L 108 635 L 129 641 L 125 660 L 147 657 L 149 674 L 132 678 L 111 679 L 94 688 L 73 689 L 53 681 L 36 681 L 25 694 L 9 706 L 30 711 L 49 705 L 68 709 L 88 708 L 107 706 L 124 711 L 125 695 L 145 694 L 144 711 L 163 708 L 180 709 L 197 709 L 193 692 L 177 688 L 161 688 L 167 670 L 183 665 L 196 652 L 212 640 L 229 628 L 232 654 L 212 662 L 198 675 L 214 690 L 214 709 L 232 709 L 254 709 L 238 691 L 226 675 L 249 671 L 245 639 L 260 654 L 282 649 L 298 671 L 278 677 L 261 689 L 278 706 L 301 704 L 327 707 L 318 686 L 324 664 L 352 662 L 375 660 L 395 657 L 412 647 L 395 682 L 371 684 L 344 684 L 353 707 L 377 707 L 398 706 L 419 710 L 419 692 L 415 672 L 430 659 L 448 666 L 439 684 L 439 707 L 458 711 L 460 694 L 463 678 L 482 673 L 485 691 L 478 709 L 498 709 L 507 689 L 503 669 L 519 656 L 529 632 L 552 616 L 571 625 L 554 641 L 540 659 L 527 681 L 519 707 L 538 706 L 559 706 L 579 707 L 600 706 L 622 707 L 644 707 L 667 708 L 688 706 L 708 708 L 707 688 L 693 674 L 678 688 L 657 688 L 647 668 L 642 638 L 659 649 L 672 667 L 681 648 L 695 633 L 669 627 L 673 602 L 649 614 L 648 590 L 667 583 L 681 571 L 693 582 L 691 614 L 701 599 L 717 587 L 736 584 L 754 586 L 770 580 L 783 573 L 797 567 L 788 555 L 805 554 L 820 554 L 826 569 L 812 569 L 799 582 L 787 593 L 772 600 L 754 605 L 752 625 L 734 631 L 733 605 L 716 616 L 715 640 L 701 656 L 720 667 L 736 654 L 756 649 L 772 639 L 773 619 L 792 614 L 792 636 L 784 660 L 798 681 L 776 688 L 764 671 L 744 676 L 728 689 L 731 710 L 751 701 L 770 709 L 794 706 L 817 710 L 820 692 L 820 673 L 808 660 L 811 645 L 816 630 L 812 614 L 807 599 L 817 586 L 834 585 L 842 570 L 837 555 L 854 552 L 857 567 L 871 560 L 882 552 L 891 565 L 886 582 L 868 580 L 851 586 L 855 604 L 831 602 L 834 619 L 837 639 L 836 657 L 839 679 L 851 692 L 840 708 L 863 709 L 869 685 L 884 706 L 903 708 L 924 705 L 943 705 L 965 706 L 985 703 L 999 681 L 976 674 L 954 682 L 930 678 L 909 685 L 889 682 L 906 661 L 922 647 L 942 656 L 962 651 L 962 627 L 938 626 L 949 601 L 970 583 L 947 575 L 928 584 L 923 606 L 909 628 L 890 641 L 880 661 L 858 665 L 862 643 L 854 623 L 877 622 L 876 600 L 897 609 L 905 589 L 910 571 L 906 554 L 899 539 L 906 538 L 913 541 L 918 536 L 925 540 L 934 539 L 943 536 L 943 546 L 928 560 L 957 560 L 975 561 L 994 555 L 1023 565 L 1008 571 L 990 574 L 996 594 L 973 605 L 989 622 L 987 648 L 1011 661 L 1033 647 L 1010 636 L 1030 621 L 1012 610 L 1024 591 L 1043 582 L 1039 562 L 1049 551 L 1059 566 L 1076 558 L 1080 577 L 1098 577 L 1113 573 L 1129 572 L 1143 578 L 1157 587 L 1159 571 L 1160 555 L 1145 561 L 1132 554 L 1115 558 L 1096 558 L 1071 539 L 1079 539 L 1087 537 L 1095 539 L 1103 538 L 1110 541 L 1115 535 L 1118 541 L 1125 539 L 1131 537 L 1138 539 L 1146 540 L 1155 539 L 1163 539 L 1172 539 L 1181 539 L 1178 553 L 1176 567 L 1187 579 L 1172 585 L 1160 605 L 1173 618 L 1178 600 L 1194 594 L 1193 612 L 1205 625 L 1219 636 L 1224 615 L 1212 600 L 1223 584 L 1205 579 L 1196 560 L 1214 563 L 1230 554 L 1233 570 L 1247 560 L 1261 557 L 1261 577 L 1246 582 L 1237 597 L 1259 601 L 1244 615 L 1260 628 L 1241 636 L 1230 653 L 1212 664 L 1213 686 L 1235 671 L 1257 654 L 1258 680 L 1256 706 L 1237 691 L 1229 709 L 1206 707 L 1188 689 L 1191 668 L 1199 647 L 1186 632 L 1165 636 L 1153 624 L 1145 644 L 1134 629 L 1143 611 L 1145 596 L 1130 592 L 1114 590 L 1097 596 L 1079 599 L 1063 589 L 1046 604 L 1050 628 L 1069 616 L 1094 618 L 1111 609 L 1127 611 L 1115 628 L 1101 642 L 1083 636 L 1065 642 L 1054 661 L 1035 675 L 1022 692 L 1009 709 L 1044 707 L 1061 686 L 1075 707 L 1088 685 L 1078 662 L 1103 663 L 1123 647 L 1128 666 L 1114 684 L 1103 707 L 1126 709 L 1136 691 L 1146 675 L 1154 658 L 1176 651 L 1170 672 L 1161 689 L 1186 710 L 1170 706 L 1150 709 " stroke="black" stroke-width="3" fill="none"/> 
 </svg>