<?xml version="1.0" ?>
<!DOCTYPE svg PUBLIC "-//W3C//DTD SVG 1.1//EN" "http://www.w3.org/Graphics/SVG/1.1/DTD/svg11.dtd">
<svg width="1080" height="934" version="1.1" xmlns="http://www.w3.org/2000/svg">
<path d="M864 12 L 894 17 L 895 53 L 920 68 L 950 84 L 946 46 L 923 20 L 956 13 L 979 36 L 995 13 L 1026 15 L 1059 14 L 1089 17 L 1120 16 L 1151 15 L 1177 25 L 1203 14 L 1230 22 L 1256 20 L 1249 62 L 1211 54 L 1176 63 L 1141 50 L 1108 49 L 1074 49 L 1044 39 L 1012 47 L 1012 80 L 979 65 L 982 98 L 988 133 L 971 159 L 934 150 L 954 121 L 920 108 L 889 89 L 893 130 L 900 162 L 924 187 L 935 222 L 956 241 L 957 193 L 992 189 L 987 221 L 1027 210 L 1018 175 L 1020 145 L 1014 114 L 1041 105 L 1042 69 L 1066 86 L 1092 76 L 1097 107 L 1122 82 L 1152 89 L 1182 105 L 1213 91 L 1249 103 L 1206 135 L 1168 167 L 1159 131 L 1125 118 L 1126 150 L 1130 180 L 1109 211 L 1097 242 L 1092 177 L 1090 144 L 1070 118 L 1052 142 L 1053 174 L 1068 205 L 1062 235 L 1033 246 L 1006 250 L 981 261 L 961 282 L 932 275 L 913 252 L 883 261 L 856 276 L 832 299 L 822 265 L 789 263 L 796 292 L 811 324 L 793 351 L 767 375 L 791 400 L 814 380 L 833 357 L 849 331 L 870 305 L 899 289 L 912 316 L 884 333 L 872 365 L 852 387 L 828 410 L 812 434 L 801 460 L 783 480 L 802 495 L 812 518 L 811 540 L 801 540 L 793 540 L 785 539 L 779 539 L 773 540 L 767 539 L 761 540 L 754 539 L 747 541 L 740 539 L 734 545 L 729 538 L 721 541 L 719 522 L 712 540 L 704 539 L 696 558 L 710 567 L 726 564 L 743 565 L 756 553 L 760 568 L 773 558 L 788 555 L 805 554 L 812 569 L 827 570 L 842 570 L 837 555 L 821 554 L 822 539 L 833 539 L 844 539 L 854 552 L 855 538 L 865 538 L 873 509 L 847 510 L 827 496 L 827 467 L 846 444 L 859 415 L 876 436 L 882 461 L 855 479 L 886 487 L 912 475 L 947 476 L 926 452 L 906 435 L 889 406 L 906 386 L 906 357 L 932 342 L 942 309 L 974 316 L 997 294 L 1028 283 L 1030 317 L 1001 338 L 1037 354 L 1064 336 L 1066 304 L 1060 269 L 1091 279 L 1124 270 L 1143 241 L 1149 206 L 1182 215 L 1218 210 L 1206 174 L 1247 141 L 1249 181 L 1252 227 L 1249 272 L 1245 312 L 1215 251 L 1177 259 L 1155 294 L 1203 294 L 1186 329 L 1222 347 L 1253 352 L 1252 391 L 1221 396 L 1194 368 L 1154 366 L 1146 331 L 1112 309 L 1096 340 L 1117 362 L 1118 393 L 1112 427 L 1139 450 L 1156 477 L 1188 488 L 1186 462 L 1170 439 L 1146 413 L 1171 392 L 1190 413 L 1213 434 L 1219 461 L 1250 428 L 1252 460 L 1255 488 L 1252 511 L 1225 512 L 1224 486 L 1204 508 L 1183 517 L 1164 504 L 1152 523 L 1152 540 L 1145 539 L 1137 539 L 1131 536 L 1124 540 L 1118 537 L 1111 539 L 1103 538 L 1095 539 L 1087 537 L 1079 539 L 1071 539 L 1063 540 L 1055 539 L 1046 538 L 1037 539 L 1027 539 L 1018 539 L 1008 540 L 999 539 L 990 540 L 981 539 L 1013 516 L 1036 506 L 1062 519 L 1066 498 L 1092 495 L 1111 512 L 1137 504 L 1122 480 L 1102 458 L 1084 403 L 1071 372 L 1045 405 L 1040 441 L 1074 435 L 1071 468 L 1041 476 L 1010 490 L 1011 464 L 1006 435 L 1005 405 L 1021 378 L 988 369 L 963 348 L 939 376 L 932 412 L 950 441 L 967 393 L 973 422 L 978 456 L 978 484 L 990 510 L 968 512 L 948 506 L 925 503 L 902 509 L 892 532 L 893 542 L 899 539 L 906 538 L 913 541 L 918 535 L 925 540 L 933 538 L 943 538 L 952 539 L 962 540 L 971 539 L 976 556 L 961 564 L 944 555 L 926 561 L 906 555 L 910 572 L 906 590 L 887 583 L 890 565 L 882 552 L 885 539 L 879 537 L 873 540 L 871 561 L 857 567 L 868 581 L 851 587 L 855 604 L 855 624 L 863 644 L 859 666 L 837 658 L 837 639 L 834 619 L 831 602 L 834 586 L 817 586 L 807 599 L 813 615 L 817 630 L 812 646 L 807 661 L 821 672 L 797 681 L 784 660 L 775 688 L 764 671 L 744 676 L 728 689 L 719 667 L 736 654 L 755 649 L 772 640 L 793 636 L 792 614 L 773 620 L 752 625 L 734 631 L 715 641 L 701 656 L 670 668 L 644 668 L 626 683 L 624 655 L 602 666 L 603 689 L 579 682 L 552 683 L 528 681 L 507 689 L 503 668 L 505 641 L 506 622 L 517 606 L 524 583 L 544 583 L 544 561 L 524 561 L 517 539 L 526 539 L 534 540 L 542 539 L 549 541 L 556 538 L 562 540 L 570 540 L 577 537 L 575 529 L 581 526 L 590 527 L 595 534 L 604 536 L 598 543 L 589 541 L 585 534 L 581 544 L 567 558 L 564 577 L 563 599 L 584 592 L 585 568 L 604 564 L 623 562 L 643 564 L 660 565 L 629 582 L 607 586 L 601 611 L 579 621 L 552 619 L 537 604 L 530 631 L 520 656 L 541 657 L 558 640 L 565 664 L 582 649 L 602 637 L 623 627 L 626 604 L 648 591 L 667 583 L 673 602 L 669 627 L 649 614 L 643 638 L 658 650 L 680 648 L 695 633 L 691 615 L 715 616 L 733 606 L 753 605 L 772 600 L 787 594 L 799 582 L 797 567 L 783 573 L 770 581 L 754 586 L 736 584 L 717 588 L 701 599 L 692 583 L 681 571 L 677 555 L 660 548 L 668 539 L 676 540 L 687 540 L 695 538 L 682 533 L 691 503 L 714 496 L 733 510 L 735 525 L 747 531 L 759 526 L 773 526 L 783 516 L 769 502 L 763 513 L 748 516 L 748 501 L 754 475 L 728 472 L 699 471 L 675 475 L 655 490 L 670 509 L 647 514 L 660 537 L 651 540 L 642 540 L 633 540 L 623 540 L 612 542 L 612 534 L 608 527 L 600 527 L 597 520 L 598 512 L 624 517 L 627 497 L 633 477 L 626 457 L 608 440 L 625 436 L 645 445 L 652 465 L 671 450 L 692 439 L 715 443 L 705 439 L 698 430 L 688 425 L 680 433 L 669 429 L 659 426 L 650 424 L 642 424 L 643 418 L 635 419 L 628 417 L 621 415 L 616 409 L 624 406 L 619 402 L 621 396 L 621 389 L 617 383 L 614 376 L 641 366 L 667 355 L 652 403 L 644 401 L 636 397 L 629 394 L 635 408 L 651 411 L 660 410 L 669 415 L 678 419 L 674 384 L 704 392 L 724 417 L 744 443 L 771 453 L 781 429 L 756 411 L 736 387 L 726 358 L 696 358 L 685 324 L 673 291 L 713 291 L 725 322 L 755 343 L 771 316 L 754 287 L 764 247 L 732 258 L 696 259 L 661 252 L 636 276 L 637 306 L 648 333 L 616 334 L 596 304 L 600 273 L 565 279 L 531 270 L 526 297 L 531 332 L 557 314 L 582 330 L 579 357 L 567 356 L 555 357 L 544 360 L 533 363 L 527 371 L 532 382 L 535 393 L 524 400 L 520 395 L 520 387 L 521 380 L 519 373 L 511 372 L 503 374 L 497 379 L 508 383 L 509 394 L 503 402 L 504 414 L 516 411 L 531 411 L 542 416 L 550 427 L 555 443 L 563 432 L 573 422 L 565 419 L 554 411 L 543 401 L 554 394 L 547 383 L 541 373 L 555 370 L 563 382 L 570 369 L 583 370 L 577 381 L 585 390 L 592 383 L 595 372 L 591 359 L 601 363 L 610 368 L 604 379 L 607 389 L 609 400 L 599 401 L 597 395 L 591 395 L 584 397 L 579 393 L 573 394 L 567 394 L 563 404 L 571 411 L 579 406 L 585 416 L 592 409 L 602 411 L 612 416 L 606 421 L 599 423 L 592 425 L 584 425 L 578 428 L 577 435 L 572 442 L 581 441 L 589 444 L 587 456 L 595 449 L 601 455 L 605 462 L 595 469 L 583 467 L 586 478 L 596 483 L 608 471 L 608 480 L 605 489 L 601 497 L 595 503 L 589 508 L 582 512 L 574 516 L 565 519 L 555 520 L 546 522 L 536 523 L 536 513 L 544 505 L 558 504 L 569 502 L 579 499 L 588 493 L 579 488 L 574 478 L 567 485 L 558 487 L 547 492 L 532 493 L 525 505 L 514 506 L 526 522 L 516 520 L 505 518 L 509 527 L 500 529 L 489 525 L 496 521 L 495 513 L 486 517 L 486 508 L 479 505 L 478 496 L 471 499 L 468 493 L 466 487 L 461 482 L 447 499 L 436 478 L 413 476 L 425 458 L 435 441 L 455 443 L 455 451 L 454 458 L 456 466 L 458 474 L 471 474 L 482 481 L 484 467 L 500 464 L 492 453 L 479 453 L 468 460 L 470 445 L 461 436 L 455 435 L 459 428 L 464 422 L 436 418 L 413 432 L 416 405 L 394 397 L 371 385 L 389 363 L 417 373 L 437 388 L 454 403 L 474 411 L 469 417 L 474 432 L 483 424 L 488 439 L 504 444 L 520 441 L 529 452 L 526 466 L 513 460 L 498 478 L 504 486 L 489 493 L 495 500 L 504 504 L 516 494 L 511 481 L 519 483 L 531 479 L 542 478 L 543 464 L 554 476 L 562 469 L 572 464 L 574 453 L 564 445 L 558 457 L 544 452 L 539 440 L 534 429 L 523 424 L 510 429 L 498 425 L 492 416 L 490 408 L 482 408 L 487 400 L 488 392 L 496 389 L 489 383 L 461 379 L 443 352 L 474 357 L 501 346 L 502 319 L 469 326 L 435 317 L 412 341 L 399 311 L 390 280 L 361 262 L 330 249 L 311 275 L 293 242 L 270 266 L 255 232 L 230 209 L 229 179 L 260 186 L 281 209 L 313 215 L 348 222 L 381 228 L 409 251 L 426 281 L 457 290 L 490 292 L 476 262 L 507 252 L 517 215 L 535 186 L 549 156 L 578 187 L 558 213 L 548 244 L 585 238 L 622 242 L 610 205 L 647 213 L 683 222 L 716 225 L 748 220 L 745 189 L 778 201 L 794 229 L 825 230 L 851 244 L 876 228 L 905 220 L 887 195 L 850 203 L 816 199 L 800 172 L 767 165 L 792 141 L 788 108 L 823 130 L 832 167 L 866 170 L 856 140 L 861 109 L 830 97 L 855 72 L 865 43 L 839 21 L 813 18 L 823 53 L 806 79 L 776 73 L 784 43 L 786 13 L 757 19 L 728 16 L 695 17 L 663 19 L 631 22 L 599 16 L 584 48 L 548 51 L 560 16 L 522 16 L 501 43 L 519 70 L 545 92 L 586 87 L 616 62 L 650 59 L 684 55 L 716 48 L 746 57 L 750 95 L 757 130 L 722 122 L 729 157 L 710 189 L 675 187 L 646 173 L 614 164 L 650 134 L 690 154 L 687 120 L 712 85 L 670 92 L 632 97 L 608 123 L 583 150 L 566 120 L 525 131 L 504 105 L 483 79 L 465 46 L 479 14 L 442 17 L 428 52 L 397 42 L 409 14 L 375 12 L 366 37 L 358 60 L 369 87 L 396 73 L 422 94 L 449 78 L 460 111 L 484 137 L 453 157 L 428 180 L 480 185 L 507 166 L 483 224 L 452 207 L 447 245 L 417 216 L 392 187 L 361 191 L 327 187 L 295 177 L 316 151 L 346 161 L 374 150 L 406 152 L 430 129 L 395 115 L 364 117 L 337 129 L 337 97 L 329 68 L 325 40 L 341 14 L 307 13 L 288 34 L 295 58 L 258 49 L 270 13 L 239 18 L 212 41 L 207 13 L 176 20 L 144 20 L 112 17 L 79 17 L 47 20 L 16 11 L 14 36 L 22 58 L 44 78 L 13 89 L 15 125 L 42 111 L 52 140 L 14 157 L 38 173 L 67 177 L 87 153 L 86 121 L 69 94 L 65 53 L 99 49 L 98 83 L 131 60 L 164 54 L 193 67 L 230 65 L 249 89 L 276 82 L 305 86 L 306 114 L 291 139 L 268 153 L 271 116 L 238 121 L 239 150 L 207 157 L 201 128 L 217 95 L 185 103 L 158 91 L 127 97 L 120 125 L 124 153 L 157 130 L 173 157 L 191 185 L 195 215 L 216 242 L 237 265 L 231 298 L 254 320 L 223 336 L 197 362 L 173 386 L 158 352 L 126 382 L 107 416 L 145 409 L 154 440 L 119 448 L 138 474 L 138 508 L 110 501 L 93 474 L 76 503 L 44 502 L 53 469 L 82 444 L 54 431 L 78 400 L 89 369 L 117 349 L 131 320 L 160 311 L 192 320 L 200 279 L 165 277 L 179 244 L 143 245 L 127 282 L 98 310 L 77 336 L 43 329 L 60 301 L 53 268 L 88 275 L 108 247 L 122 214 L 160 209 L 145 178 L 107 182 L 85 206 L 76 237 L 48 207 L 14 193 L 14 226 L 42 239 L 15 261 L 21 291 L 13 320 L 16 352 L 16 383 L 51 365 L 44 399 L 15 416 L 20 445 L 16 473 L 14 505 L 27 537 L 16 539 L 5 538 L 10 559 L 29 566 L 10 579 L 11 598 L 8 616 L 26 618 L 45 611 L 64 629 L 43 633 L 27 644 L 9 635 L 9 658 L 29 664 L 49 655 L 70 649 L 88 642 L 85 622 L 104 613 L 108 635 L 106 656 L 125 660 L 129 641 L 123 621 L 124 601 L 143 599 L 142 579 L 159 574 L 162 592 L 159 611 L 143 621 L 149 640 L 147 657 L 149 674 L 132 678 L 111 679 L 94 688 L 73 689 L 88 667 L 67 668 L 53 681 L 36 681 L 25 694 L 10 680 L 9 706 L 30 711 L 49 705 L 68 709 L 88 708 L 107 706 L 124 711 L 125 695 L 145 694 L 144 710 L 162 708 L 180 709 L 197 709 L 214 709 L 232 709 L 239 691 L 214 690 L 226 675 L 212 662 L 198 675 L 193 692 L 177 688 L 161 688 L 167 670 L 183 665 L 169 650 L 164 631 L 177 621 L 179 605 L 182 589 L 181 573 L 200 578 L 215 588 L 201 600 L 195 620 L 187 637 L 196 652 L 212 640 L 211 619 L 225 606 L 240 596 L 229 580 L 232 566 L 229 552 L 213 563 L 195 559 L 178 553 L 170 564 L 156 555 L 139 560 L 120 558 L 124 580 L 105 592 L 84 600 L 65 606 L 31 592 L 50 587 L 68 580 L 88 579 L 106 572 L 99 556 L 81 560 L 63 557 L 47 564 L 37 540 L 48 538 L 59 537 L 71 538 L 83 538 L 95 537 L 108 538 L 120 538 L 132 538 L 143 538 L 152 538 L 161 537 L 168 539 L 176 539 L 184 539 L 192 539 L 200 539 L 209 539 L 218 540 L 226 539 L 235 539 L 244 539 L 252 538 L 253 514 L 229 510 L 223 485 L 203 467 L 201 502 L 182 516 L 164 500 L 174 474 L 186 445 L 188 415 L 220 397 L 234 370 L 261 352 L 290 368 L 321 370 L 315 340 L 288 328 L 278 295 L 320 304 L 357 297 L 344 328 L 375 334 L 352 359 L 344 390 L 313 398 L 288 410 L 264 389 L 255 419 L 222 429 L 229 456 L 259 450 L 248 478 L 266 494 L 282 513 L 310 515 L 299 492 L 281 472 L 285 439 L 308 458 L 315 432 L 337 416 L 345 440 L 366 416 L 390 426 L 371 448 L 399 452 L 389 474 L 368 476 L 343 464 L 322 476 L 327 497 L 337 516 L 350 490 L 360 513 L 379 503 L 381 528 L 406 517 L 400 495 L 423 498 L 434 517 L 460 518 L 447 538 L 456 539 L 466 539 L 476 538 L 487 538 L 497 539 L 507 538 L 505 555 L 507 573 L 504 591 L 487 584 L 489 567 L 485 552 L 471 558 L 456 563 L 470 577 L 491 607 L 473 600 L 455 609 L 450 626 L 480 624 L 467 638 L 448 646 L 448 666 L 430 659 L 415 672 L 394 682 L 370 684 L 374 660 L 395 657 L 411 647 L 428 636 L 428 617 L 424 599 L 440 592 L 456 586 L 437 573 L 415 582 L 391 587 L 370 580 L 356 593 L 377 610 L 403 605 L 403 626 L 382 635 L 359 636 L 350 615 L 332 594 L 312 584 L 323 566 L 332 550 L 344 571 L 361 559 L 384 563 L 403 563 L 422 560 L 441 555 L 438 538 L 430 540 L 424 537 L 417 539 L 409 539 L 401 538 L 394 539 L 385 539 L 376 540 L 369 538 L 360 539 L 352 538 L 345 541 L 337 538 L 326 538 L 317 539 L 307 538 L 298 538 L 288 539 L 279 539 L 270 539 L 261 538 L 258 547 L 247 559 L 265 563 L 282 559 L 304 559 L 293 575 L 273 582 L 251 578 L 260 599 L 276 608 L 291 595 L 308 607 L 303 627 L 284 626 L 264 629 L 247 616 L 229 628 L 245 639 L 232 654 L 249 671 L 261 654 L 283 650 L 309 647 L 299 671 L 278 677 L 261 689 L 255 709 L 279 706 L 301 704 L 327 707 L 318 686 L 325 664 L 327 621 L 335 642 L 351 662 L 343 684 L 353 707 L 377 707 L 398 706 L 418 710 L 418 691 L 439 684 L 439 707 L 458 711 L 460 694 L 463 678 L 467 658 L 487 650 L 483 672 L 485 691 L 478 709 L 499 709 L 520 707 L 541 706 L 564 706 L 588 708 L 616 708 L 640 706 L 654 688 L 664 708 L 687 707 L 678 688 L 693 674 L 706 688 L 708 708 L 731 710 L 751 701 L 770 709 L 794 706 L 817 710 L 819 692 L 839 681 L 855 690 L 840 707 L 863 709 L 884 706 L 904 708 L 922 704 L 943 706 L 965 706 L 985 703 L 1009 708 L 1019 688 L 997 679 L 1014 662 L 987 649 L 962 651 L 975 674 L 953 681 L 927 679 L 940 657 L 920 646 L 907 663 L 900 685 L 876 685 L 882 664 L 891 643 L 878 623 L 876 601 L 897 609 L 909 627 L 923 607 L 928 585 L 946 576 L 948 602 L 938 628 L 962 627 L 968 585 L 985 573 L 1001 559 L 1019 551 L 1023 568 L 1039 562 L 1048 550 L 1059 566 L 1043 582 L 1062 589 L 1079 600 L 1096 596 L 1114 590 L 1130 592 L 1145 596 L 1157 587 L 1142 579 L 1128 572 L 1113 573 L 1097 577 L 1079 577 L 1076 558 L 1095 558 L 1115 556 L 1132 554 L 1146 561 L 1159 572 L 1162 555 L 1160 539 L 1168 539 L 1176 539 L 1183 539 L 1191 540 L 1199 538 L 1207 540 L 1214 537 L 1218 544 L 1225 538 L 1233 539 L 1241 534 L 1244 541 L 1251 538 L 1259 539 L 1265 537 L 1261 557 L 1248 561 L 1233 570 L 1231 554 L 1214 563 L 1196 560 L 1180 554 L 1176 568 L 1172 586 L 1178 601 L 1160 605 L 1173 618 L 1186 633 L 1199 647 L 1191 669 L 1212 664 L 1213 686 L 1235 671 L 1231 653 L 1241 636 L 1244 615 L 1224 615 L 1219 637 L 1206 625 L 1193 613 L 1212 600 L 1195 595 L 1188 579 L 1206 579 L 1223 584 L 1236 597 L 1246 582 L 1261 577 L 1259 601 L 1260 628 L 1257 654 L 1258 680 L 1256 706 L 1238 691 L 1229 709 L 1207 707 L 1187 709 L 1187 689 L 1168 707 L 1146 709 L 1135 691 L 1146 675 L 1124 649 L 1126 669 L 1110 687 L 1120 709 L 1092 708 L 1083 685 L 1064 703 L 1038 707 L 1039 679 L 1058 672 L 1080 661 L 1102 666 L 1101 644 L 1114 629 L 1134 630 L 1145 644 L 1153 658 L 1161 689 L 1170 672 L 1176 652 L 1165 637 L 1153 624 L 1143 612 L 1126 611 L 1110 609 L 1093 619 L 1082 637 L 1061 646 L 1051 628 L 1069 617 L 1047 605 L 1030 622 L 1011 610 L 1025 593 L 1007 579 L 994 595 L 973 606 L 989 623 L 1011 637 L 1036 650 " stroke="black" stroke-width="3" fill="none"/> 
 </svg>