<?xml version="1.0" ?>
<!DOCTYPE svg PUBLIC "-//W3C//DTD SVG 1.1//EN" "http://www.w3.org/Graphics/SVG/1.1/DTD/svg11.dtd">
<svg width="1080" height="934" version="1.1" xmlns="http://www.w3.org/2000/svg">
<path d="M787 12 L 814 18 L 822 53 L 839 22 L 864 12 L 894 17 L 923 20 L 956 13 L 979 35 L 995 13 L 1026 15 L 1012 47 L 979 65 L 982 98 L 950 84 L 946 46 L 921 68 L 895 53 L 865 43 L 855 72 L 830 97 L 806 80 L 789 108 L 822 130 L 792 141 L 768 165 L 746 187 L 730 156 L 757 130 L 752 96 L 777 72 L 785 43 L 748 56 L 758 18 L 729 16 L 717 47 L 686 52 L 696 16 L 663 18 L 653 57 L 631 22 L 599 15 L 586 47 L 548 51 L 560 16 L 521 16 L 501 43 L 518 70 L 543 93 L 570 119 L 580 82 L 619 63 L 613 100 L 613 132 L 651 136 L 649 96 L 685 88 L 719 83 L 720 120 L 683 122 L 693 154 L 674 183 L 643 172 L 611 169 L 582 151 L 577 188 L 556 212 L 553 243 L 531 259 L 517 216 L 483 223 L 452 207 L 448 245 L 475 263 L 504 254 L 522 288 L 545 313 L 562 278 L 580 308 L 613 310 L 618 337 L 650 361 L 646 334 L 650 307 L 676 287 L 688 324 L 712 298 L 716 269 L 690 253 L 657 251 L 634 279 L 597 274 L 586 236 L 621 243 L 611 206 L 646 212 L 682 218 L 711 190 L 715 227 L 746 218 L 779 201 L 796 229 L 826 230 L 851 244 L 876 228 L 905 221 L 934 223 L 956 240 L 980 261 L 961 281 L 942 309 L 973 316 L 997 294 L 1005 250 L 1027 282 L 1064 303 L 1070 336 L 1107 307 L 1059 269 L 1061 235 L 1033 246 L 1027 210 L 987 221 L 957 193 L 924 187 L 886 195 L 851 203 L 817 199 L 800 172 L 832 167 L 866 170 L 856 140 L 861 109 L 888 90 L 920 108 L 893 130 L 900 163 L 934 150 L 954 121 L 988 133 L 972 159 L 992 189 L 1018 175 L 1020 145 L 1052 141 L 1053 174 L 1090 143 L 1091 176 L 1068 204 L 1109 211 L 1094 240 L 1090 278 L 1120 265 L 1144 241 L 1177 260 L 1215 252 L 1218 210 L 1182 215 L 1148 206 L 1130 180 L 1126 150 L 1124 118 L 1096 107 L 1070 118 L 1041 104 L 1015 113 L 1012 80 L 1042 69 L 1066 87 L 1091 76 L 1122 83 L 1152 88 L 1175 62 L 1140 50 L 1107 49 L 1074 49 L 1045 39 L 1059 13 L 1089 17 L 1119 16 L 1151 15 L 1178 25 L 1203 14 L 1230 22 L 1256 20 L 1249 62 L 1210 54 L 1212 91 L 1248 102 L 1247 141 L 1206 135 L 1181 105 L 1158 130 L 1168 166 L 1205 174 L 1248 180 L 1252 226 L 1248 272 L 1246 311 L 1252 354 L 1251 391 L 1222 404 L 1250 430 L 1252 462 L 1255 490 L 1250 511 L 1224 513 L 1223 487 L 1219 461 L 1211 436 L 1188 412 L 1206 372 L 1221 339 L 1186 333 L 1200 295 L 1149 288 L 1150 321 L 1151 356 L 1173 383 L 1139 390 L 1110 339 L 1108 368 L 1109 399 L 1115 428 L 1140 453 L 1156 479 L 1152 420 L 1173 443 L 1187 466 L 1187 490 L 1203 508 L 1184 518 L 1164 507 L 1152 525 L 1138 505 L 1122 481 L 1102 458 L 1071 469 L 1075 436 L 1079 404 L 1067 372 L 1043 407 L 1022 378 L 1036 351 L 1030 318 L 1000 337 L 988 369 L 962 348 L 932 342 L 906 357 L 912 316 L 899 289 L 932 274 L 913 253 L 883 261 L 857 276 L 822 265 L 788 262 L 768 242 L 740 253 L 754 285 L 732 320 L 718 350 L 677 351 L 677 378 L 704 375 L 725 399 L 742 375 L 757 345 L 772 316 L 796 292 L 833 298 L 812 323 L 795 349 L 776 374 L 760 403 L 748 427 L 743 455 L 729 481 L 716 462 L 693 478 L 662 471 L 664 494 L 666 516 L 690 508 L 712 499 L 733 510 L 721 523 L 735 526 L 748 532 L 759 527 L 773 526 L 782 517 L 769 503 L 763 514 L 748 517 L 749 502 L 758 478 L 772 453 L 781 429 L 794 402 L 815 380 L 834 357 L 849 331 L 870 305 L 884 333 L 872 365 L 853 387 L 829 411 L 812 435 L 846 445 L 828 467 L 802 462 L 785 480 L 802 497 L 810 519 L 811 540 L 801 540 L 792 539 L 785 539 L 779 538 L 773 540 L 767 540 L 761 540 L 754 539 L 747 542 L 740 539 L 734 544 L 728 538 L 721 541 L 712 540 L 704 539 L 696 539 L 688 540 L 681 537 L 675 540 L 667 539 L 659 538 L 651 539 L 641 540 L 631 540 L 621 539 L 611 540 L 601 540 L 592 540 L 584 540 L 576 539 L 578 531 L 588 531 L 583 525 L 576 522 L 569 523 L 568 528 L 571 534 L 564 533 L 559 528 L 557 537 L 562 540 L 570 543 L 557 555 L 547 542 L 550 537 L 540 540 L 533 537 L 527 540 L 518 539 L 508 538 L 498 538 L 504 555 L 522 560 L 540 563 L 562 574 L 577 563 L 596 565 L 617 561 L 641 563 L 659 566 L 660 551 L 678 555 L 696 558 L 710 566 L 726 564 L 743 565 L 760 567 L 756 553 L 773 557 L 788 554 L 805 554 L 820 554 L 822 539 L 833 539 L 844 539 L 855 538 L 865 538 L 873 540 L 879 536 L 886 539 L 892 533 L 893 542 L 899 539 L 906 538 L 902 509 L 925 503 L 948 507 L 968 512 L 990 511 L 1012 516 L 1010 490 L 978 484 L 978 456 L 972 423 L 950 442 L 932 412 L 906 436 L 926 452 L 946 476 L 912 476 L 886 488 L 873 509 L 847 510 L 826 497 L 856 479 L 882 462 L 876 437 L 859 416 L 889 407 L 905 386 L 939 377 L 967 393 L 1004 405 L 1006 435 L 1011 464 L 1041 443 L 1041 477 L 1036 507 L 1061 520 L 1066 499 L 1092 495 L 1111 512 L 1103 539 L 1111 539 L 1118 538 L 1124 540 L 1131 537 L 1137 539 L 1145 539 L 1152 540 L 1160 539 L 1168 539 L 1176 539 L 1183 539 L 1191 540 L 1199 538 L 1207 540 L 1214 537 L 1218 544 L 1225 538 L 1234 539 L 1241 534 L 1244 541 L 1251 537 L 1259 539 L 1265 537 L 1262 556 L 1248 560 L 1233 570 L 1231 554 L 1214 563 L 1196 560 L 1179 554 L 1176 568 L 1162 555 L 1146 561 L 1133 554 L 1129 571 L 1142 579 L 1159 572 L 1157 587 L 1145 596 L 1130 592 L 1114 590 L 1096 596 L 1079 600 L 1070 617 L 1051 627 L 1062 645 L 1082 637 L 1094 619 L 1110 609 L 1127 611 L 1134 629 L 1115 629 L 1101 643 L 1124 649 L 1126 669 L 1110 687 L 1103 665 L 1080 662 L 1058 671 L 1039 679 L 1036 650 L 1014 662 L 997 679 L 975 674 L 953 682 L 927 679 L 900 685 L 907 663 L 920 647 L 937 627 L 940 657 L 962 651 L 962 627 L 989 623 L 987 649 L 1011 637 L 1030 622 L 1047 604 L 1063 588 L 1043 582 L 1025 592 L 1011 610 L 994 595 L 973 606 L 969 585 L 948 601 L 923 606 L 928 584 L 946 575 L 961 564 L 976 555 L 985 572 L 1001 558 L 1007 578 L 1023 567 L 1019 548 L 1039 562 L 1047 548 L 1059 565 L 1076 558 L 1080 577 L 1098 577 L 1113 573 L 1115 556 L 1096 558 L 1095 538 L 1087 537 L 1079 539 L 1071 539 L 1063 540 L 1055 539 L 1046 538 L 1037 539 L 1027 539 L 1018 538 L 1008 540 L 999 539 L 990 540 L 981 539 L 972 539 L 962 539 L 952 539 L 942 538 L 933 538 L 925 540 L 918 536 L 913 541 L 943 554 L 926 561 L 906 554 L 910 571 L 905 589 L 897 608 L 908 627 L 890 643 L 878 623 L 876 600 L 855 604 L 854 623 L 863 643 L 837 639 L 837 658 L 859 666 L 882 664 L 875 685 L 855 690 L 839 680 L 821 673 L 808 660 L 811 645 L 792 636 L 792 614 L 773 619 L 772 600 L 787 593 L 799 582 L 817 586 L 807 599 L 812 614 L 816 630 L 834 619 L 831 602 L 834 585 L 851 586 L 868 580 L 886 582 L 890 565 L 882 551 L 871 560 L 856 566 L 854 552 L 837 555 L 842 570 L 826 569 L 812 569 L 797 567 L 783 573 L 770 580 L 754 586 L 754 605 L 752 625 L 734 631 L 715 640 L 716 616 L 733 605 L 736 584 L 717 587 L 693 583 L 701 599 L 691 614 L 695 633 L 680 648 L 669 627 L 649 614 L 623 626 L 602 666 L 582 649 L 602 637 L 578 620 L 601 610 L 626 603 L 673 602 L 681 571 L 667 583 L 648 590 L 629 580 L 607 585 L 583 589 L 563 598 L 552 619 L 544 584 L 524 583 L 507 572 L 503 591 L 537 604 L 517 606 L 506 622 L 491 607 L 480 624 L 467 639 L 448 646 L 450 626 L 428 617 L 425 599 L 440 592 L 456 585 L 470 577 L 455 608 L 473 600 L 486 584 L 489 566 L 485 552 L 471 558 L 456 562 L 441 554 L 438 573 L 422 560 L 403 563 L 384 563 L 361 559 L 343 570 L 370 579 L 357 593 L 349 614 L 332 594 L 312 584 L 293 575 L 303 559 L 323 565 L 332 547 L 326 537 L 317 539 L 307 538 L 298 538 L 310 516 L 282 513 L 299 493 L 327 498 L 350 490 L 369 476 L 391 473 L 401 494 L 379 503 L 360 514 L 337 516 L 337 537 L 345 541 L 352 538 L 360 539 L 369 538 L 376 542 L 379 532 L 385 539 L 394 539 L 402 539 L 410 539 L 418 540 L 424 533 L 429 540 L 437 538 L 446 538 L 456 539 L 466 539 L 476 538 L 487 538 L 469 522 L 463 507 L 453 494 L 441 490 L 443 516 L 423 505 L 402 517 L 418 477 L 428 456 L 402 452 L 373 448 L 367 417 L 392 427 L 419 431 L 426 406 L 398 399 L 372 387 L 389 365 L 418 374 L 444 385 L 462 363 L 482 380 L 480 390 L 484 399 L 494 392 L 505 387 L 516 381 L 527 378 L 521 395 L 508 399 L 513 413 L 522 423 L 532 431 L 543 439 L 532 451 L 541 463 L 541 477 L 554 474 L 563 466 L 558 457 L 548 451 L 560 443 L 571 453 L 577 442 L 583 432 L 589 435 L 593 442 L 598 448 L 611 430 L 635 430 L 625 449 L 609 468 L 602 458 L 595 455 L 584 451 L 582 462 L 574 470 L 567 479 L 551 486 L 551 495 L 535 491 L 521 491 L 504 487 L 486 481 L 471 471 L 469 455 L 471 442 L 466 428 L 481 425 L 490 436 L 488 452 L 481 465 L 489 470 L 498 474 L 505 467 L 515 477 L 528 474 L 520 460 L 519 442 L 504 448 L 506 430 L 498 417 L 499 409 L 490 407 L 477 413 L 472 399 L 464 406 L 458 414 L 453 422 L 448 430 L 451 437 L 450 447 L 452 456 L 452 466 L 459 465 L 460 474 L 466 480 L 472 484 L 477 489 L 482 493 L 488 493 L 495 497 L 489 502 L 483 504 L 487 512 L 493 518 L 495 507 L 499 513 L 504 520 L 514 517 L 509 512 L 504 507 L 502 500 L 511 502 L 518 507 L 526 506 L 534 508 L 541 504 L 542 512 L 549 507 L 553 512 L 557 506 L 563 508 L 564 502 L 566 491 L 571 505 L 579 513 L 578 502 L 585 498 L 579 486 L 585 475 L 592 478 L 598 466 L 600 474 L 600 482 L 594 486 L 591 493 L 608 515 L 639 515 L 621 496 L 634 493 L 634 470 L 653 446 L 666 417 L 678 420 L 690 424 L 679 451 L 702 447 L 723 433 L 713 428 L 702 428 L 707 420 L 698 415 L 690 411 L 682 406 L 672 403 L 663 398 L 655 392 L 646 388 L 638 384 L 645 399 L 655 413 L 645 411 L 636 408 L 629 405 L 629 395 L 622 398 L 622 405 L 615 406 L 608 397 L 614 387 L 625 389 L 630 385 L 630 378 L 623 379 L 624 371 L 621 364 L 615 359 L 607 355 L 599 350 L 590 346 L 579 345 L 567 343 L 554 345 L 543 351 L 558 357 L 571 357 L 571 371 L 583 361 L 593 361 L 602 368 L 612 373 L 604 384 L 598 386 L 597 379 L 589 376 L 580 376 L 578 386 L 590 390 L 596 399 L 608 409 L 601 410 L 593 410 L 586 415 L 585 422 L 580 425 L 574 428 L 569 433 L 563 429 L 554 430 L 555 421 L 547 424 L 540 413 L 528 407 L 535 390 L 544 397 L 554 388 L 555 406 L 568 416 L 585 407 L 582 397 L 577 406 L 570 403 L 567 393 L 563 380 L 555 368 L 542 374 L 532 358 L 526 368 L 509 369 L 497 377 L 486 371 L 492 364 L 499 357 L 509 356 L 520 356 L 516 332 L 506 313 L 473 329 L 486 295 L 456 291 L 435 315 L 442 347 L 412 342 L 398 312 L 375 336 L 344 329 L 352 361 L 344 391 L 338 416 L 346 441 L 343 464 L 322 476 L 308 458 L 316 433 L 313 399 L 289 410 L 256 419 L 221 398 L 235 371 L 265 389 L 291 368 L 321 370 L 315 341 L 261 352 L 254 320 L 288 328 L 278 296 L 269 267 L 236 264 L 232 298 L 201 279 L 214 240 L 233 210 L 255 233 L 279 210 L 313 214 L 293 242 L 312 275 L 320 304 L 357 298 L 391 281 L 426 280 L 408 250 L 417 216 L 381 228 L 361 262 L 330 249 L 348 222 L 327 187 L 346 161 L 361 191 L 391 187 L 374 149 L 406 152 L 427 180 L 430 129 L 460 111 L 484 137 L 453 157 L 479 185 L 506 166 L 534 185 L 549 155 L 526 131 L 504 105 L 483 79 L 465 46 L 478 14 L 441 17 L 408 14 L 398 42 L 375 12 L 367 37 L 357 60 L 369 87 L 396 73 L 428 52 L 449 78 L 421 94 L 395 115 L 363 117 L 337 129 L 316 150 L 297 176 L 266 185 L 238 179 L 207 186 L 191 211 L 180 245 L 165 276 L 125 284 L 143 248 L 156 213 L 140 181 L 106 182 L 119 215 L 109 247 L 87 270 L 85 300 L 105 323 L 136 321 L 162 308 L 193 320 L 223 336 L 199 363 L 174 387 L 162 352 L 125 352 L 75 335 L 43 332 L 51 300 L 53 268 L 42 239 L 48 207 L 76 235 L 84 204 L 66 177 L 38 173 L 83 153 L 85 121 L 121 122 L 116 152 L 149 143 L 179 134 L 174 175 L 205 156 L 210 124 L 219 93 L 187 96 L 157 102 L 129 94 L 98 85 L 69 93 L 65 53 L 100 50 L 132 60 L 163 59 L 194 62 L 231 65 L 251 89 L 277 82 L 272 115 L 243 120 L 237 149 L 267 153 L 291 139 L 306 113 L 336 97 L 329 68 L 325 40 L 341 14 L 308 13 L 288 34 L 295 58 L 305 86 L 258 49 L 270 13 L 240 17 L 216 40 L 206 13 L 176 21 L 144 20 L 112 17 L 79 17 L 47 20 L 16 11 L 14 36 L 22 57 L 43 78 L 13 89 L 41 110 L 51 140 L 14 125 L 14 157 L 14 193 L 14 226 L 15 259 L 18 289 L 15 318 L 13 350 L 37 366 L 64 367 L 96 367 L 128 385 L 147 411 L 153 441 L 108 417 L 80 401 L 82 444 L 53 469 L 54 431 L 45 399 L 13 385 L 16 417 L 20 445 L 16 474 L 14 505 L 43 503 L 75 503 L 111 500 L 92 475 L 118 450 L 140 475 L 139 508 L 164 500 L 175 475 L 203 468 L 186 445 L 190 416 L 224 430 L 229 456 L 259 451 L 285 440 L 282 473 L 248 478 L 265 495 L 254 515 L 230 510 L 223 486 L 201 503 L 182 516 L 184 539 L 192 539 L 200 539 L 209 539 L 218 540 L 227 539 L 235 539 L 244 539 L 252 538 L 257 546 L 261 538 L 270 539 L 279 539 L 288 539 L 282 559 L 265 562 L 247 559 L 251 578 L 240 595 L 225 606 L 215 588 L 229 580 L 232 566 L 229 552 L 213 563 L 195 558 L 178 553 L 176 539 L 168 539 L 161 537 L 152 538 L 143 538 L 132 538 L 120 538 L 108 538 L 95 537 L 83 538 L 71 538 L 59 537 L 48 538 L 37 540 L 27 537 L 17 539 L 5 538 L 10 559 L 10 579 L 29 567 L 47 564 L 63 557 L 81 560 L 99 556 L 106 572 L 88 579 L 68 580 L 50 587 L 31 592 L 11 598 L 8 616 L 26 617 L 45 611 L 65 606 L 84 600 L 85 622 L 64 629 L 70 649 L 88 642 L 108 635 L 106 656 L 88 667 L 67 668 L 53 681 L 36 681 L 29 664 L 49 654 L 42 633 L 26 644 L 9 635 L 9 658 L 10 680 L 25 694 L 9 706 L 30 711 L 49 705 L 68 709 L 73 689 L 94 688 L 111 679 L 88 708 L 107 706 L 124 711 L 125 695 L 145 694 L 144 711 L 163 708 L 180 709 L 197 709 L 193 692 L 177 688 L 161 688 L 167 670 L 169 650 L 149 674 L 132 678 L 125 660 L 147 657 L 129 641 L 123 621 L 104 612 L 105 592 L 124 601 L 143 598 L 142 579 L 124 580 L 121 558 L 139 560 L 156 555 L 171 563 L 159 574 L 162 591 L 159 611 L 143 621 L 149 640 L 164 631 L 177 621 L 179 605 L 182 589 L 181 573 L 200 578 L 200 600 L 211 619 L 195 619 L 187 637 L 196 652 L 183 665 L 198 675 L 212 662 L 226 675 L 214 690 L 214 709 L 232 709 L 238 691 L 249 671 L 232 654 L 212 640 L 229 628 L 245 639 L 264 629 L 261 654 L 282 649 L 298 671 L 278 677 L 261 689 L 254 709 L 278 706 L 301 704 L 327 707 L 318 686 L 324 664 L 309 646 L 303 627 L 284 625 L 276 608 L 247 616 L 260 599 L 272 582 L 291 594 L 308 607 L 326 621 L 335 643 L 359 636 L 377 610 L 391 586 L 416 581 L 404 605 L 403 626 L 428 636 L 412 647 L 382 635 L 395 657 L 395 682 L 370 684 L 375 660 L 352 662 L 344 684 L 353 707 L 377 707 L 398 706 L 419 710 L 419 692 L 415 672 L 430 659 L 439 684 L 439 707 L 458 711 L 460 694 L 463 678 L 448 666 L 467 658 L 487 650 L 504 641 L 530 631 L 558 640 L 565 664 L 579 682 L 552 683 L 528 681 L 541 657 L 520 656 L 503 669 L 507 689 L 482 673 L 485 691 L 478 709 L 499 709 L 520 707 L 541 706 L 564 706 L 588 708 L 603 690 L 626 683 L 616 708 L 641 706 L 665 709 L 655 688 L 644 669 L 624 655 L 643 638 L 658 651 L 671 668 L 678 688 L 687 707 L 708 708 L 706 688 L 693 674 L 701 656 L 720 667 L 736 654 L 756 649 L 772 639 L 784 660 L 764 671 L 744 676 L 728 689 L 731 710 L 751 701 L 770 709 L 794 706 L 776 688 L 798 681 L 819 692 L 817 710 L 840 707 L 863 709 L 884 706 L 904 708 L 922 704 L 943 706 L 965 706 L 985 702 L 1008 708 L 1019 689 L 1038 707 L 1064 703 L 1083 685 L 1093 708 L 1120 709 L 1147 709 L 1135 692 L 1146 675 L 1153 658 L 1145 644 L 1165 636 L 1153 624 L 1143 611 L 1160 605 L 1173 618 L 1186 632 L 1175 651 L 1170 671 L 1161 689 L 1168 707 L 1186 709 L 1187 689 L 1191 668 L 1212 664 L 1199 647 L 1219 636 L 1205 625 L 1193 613 L 1194 595 L 1178 601 L 1172 586 L 1188 579 L 1205 579 L 1223 583 L 1212 600 L 1224 615 L 1237 597 L 1246 582 L 1261 577 L 1259 601 L 1244 615 L 1260 628 L 1241 636 L 1230 653 L 1257 654 L 1258 680 L 1235 671 L 1213 686 L 1206 707 L 1229 709 L 1237 691 L 1256 706 " stroke="black" stroke-width="3" fill="none"/> 
 </svg>