<?xml version="1.0" ?>
<!DOCTYPE svg PUBLIC "-//W3C//DTD SVG 1.1//EN" "http://www.w3.org/Graphics/SVG/1.1/DTD/svg11.dtd">
<svg width="1080" height="934" version="1.1" xmlns="http://www.w3.org/2000/svg">
<path d="M956 13 L 946 46 L 923 20 L 894 17 L 864 12 L 839 22 L 814 18 L 787 12 L 758 18 L 785 43 L 748 56 L 717 47 L 729 16 L 696 16 L 663 18 L 686 52 L 653 57 L 631 22 L 599 15 L 560 16 L 521 16 L 548 51 L 518 70 L 501 43 L 465 46 L 478 14 L 441 17 L 408 14 L 375 12 L 367 37 L 341 14 L 325 40 L 308 13 L 270 13 L 240 17 L 288 34 L 295 58 L 258 49 L 231 65 L 216 40 L 206 13 L 176 21 L 144 20 L 112 17 L 79 17 L 47 20 L 16 11 L 14 36 L 22 57 L 13 89 L 41 110 L 14 125 L 14 157 L 14 193 L 48 207 L 84 203 L 106 182 L 66 177 L 38 173 L 51 140 L 85 121 L 84 153 L 116 152 L 121 122 L 129 94 L 98 85 L 69 93 L 43 78 L 65 53 L 100 50 L 132 60 L 163 59 L 194 62 L 157 102 L 149 143 L 140 181 L 174 175 L 179 134 L 187 96 L 219 93 L 210 124 L 205 156 L 207 186 L 191 211 L 156 213 L 143 247 L 119 215 L 109 247 L 77 234 L 42 238 L 14 226 L 17 259 L 56 265 L 88 270 L 126 284 L 165 276 L 180 245 L 214 240 L 236 264 L 255 233 L 233 210 L 238 179 L 266 185 L 297 176 L 291 139 L 267 153 L 237 149 L 243 120 L 272 115 L 251 89 L 277 82 L 305 86 L 306 113 L 336 97 L 329 68 L 357 60 L 369 87 L 396 73 L 398 42 L 428 52 L 449 78 L 421 94 L 395 115 L 363 117 L 337 129 L 316 150 L 346 161 L 373 149 L 406 152 L 430 129 L 452 156 L 427 180 L 391 187 L 361 191 L 327 187 L 313 214 L 279 210 L 293 242 L 269 267 L 278 296 L 288 328 L 254 320 L 232 298 L 201 279 L 193 320 L 223 336 L 199 363 L 174 387 L 162 352 L 162 308 L 136 321 L 106 325 L 92 299 L 61 302 L 36 291 L 11 290 L 15 320 L 13 352 L 44 332 L 76 336 L 64 368 L 37 367 L 13 386 L 16 418 L 20 446 L 16 474 L 14 505 L 43 503 L 53 469 L 82 445 L 54 432 L 45 400 L 80 401 L 96 368 L 125 353 L 128 385 L 147 411 L 153 441 L 108 417 L 118 450 L 92 475 L 75 503 L 111 500 L 140 475 L 139 508 L 132 538 L 143 538 L 152 538 L 161 537 L 168 539 L 176 539 L 184 539 L 192 539 L 200 539 L 209 539 L 218 540 L 227 539 L 235 539 L 244 539 L 252 538 L 261 538 L 257 546 L 247 559 L 251 578 L 272 582 L 265 562 L 282 559 L 292 576 L 290 595 L 276 608 L 259 599 L 240 595 L 225 606 L 215 588 L 229 580 L 232 566 L 229 552 L 213 563 L 195 558 L 178 553 L 171 563 L 181 573 L 200 578 L 200 600 L 211 619 L 195 619 L 187 637 L 169 650 L 149 640 L 164 631 L 177 621 L 179 604 L 182 589 L 162 591 L 159 611 L 143 621 L 123 621 L 124 601 L 143 598 L 142 579 L 159 574 L 156 555 L 139 560 L 124 580 L 121 558 L 120 538 L 108 538 L 95 537 L 83 538 L 71 538 L 59 537 L 48 538 L 37 540 L 27 537 L 17 539 L 5 538 L 10 559 L 10 579 L 29 567 L 47 564 L 63 557 L 81 560 L 99 556 L 106 572 L 88 579 L 68 580 L 50 587 L 31 592 L 11 598 L 8 616 L 26 617 L 45 611 L 65 606 L 84 600 L 105 592 L 104 612 L 85 622 L 64 629 L 42 633 L 26 644 L 9 635 L 9 658 L 10 680 L 29 664 L 49 654 L 67 668 L 70 649 L 88 642 L 88 667 L 106 656 L 108 635 L 129 641 L 125 660 L 147 657 L 149 674 L 132 678 L 111 679 L 94 688 L 73 689 L 53 681 L 36 681 L 25 694 L 9 706 L 30 711 L 49 705 L 68 709 L 88 708 L 107 706 L 124 711 L 125 695 L 145 694 L 144 711 L 163 708 L 180 709 L 197 709 L 193 692 L 177 688 L 161 688 L 167 670 L 183 665 L 196 652 L 198 675 L 212 662 L 226 675 L 214 690 L 214 709 L 232 709 L 238 691 L 249 671 L 261 654 L 232 654 L 212 640 L 229 628 L 245 639 L 247 616 L 264 629 L 284 625 L 282 649 L 298 671 L 278 677 L 261 689 L 254 709 L 278 706 L 301 704 L 327 707 L 318 686 L 324 664 L 309 646 L 303 627 L 307 607 L 326 621 L 335 643 L 359 636 L 382 635 L 377 610 L 404 626 L 404 605 L 391 587 L 357 593 L 350 615 L 333 595 L 311 586 L 302 561 L 319 555 L 325 571 L 345 570 L 362 559 L 370 579 L 384 563 L 403 563 L 422 560 L 416 581 L 425 599 L 429 617 L 428 636 L 412 647 L 395 657 L 375 660 L 352 662 L 344 684 L 353 707 L 370 684 L 377 707 L 398 706 L 395 682 L 415 672 L 430 659 L 448 666 L 439 684 L 419 692 L 419 710 L 439 707 L 458 711 L 460 694 L 463 678 L 482 673 L 485 691 L 478 709 L 499 709 L 520 707 L 541 706 L 564 706 L 588 708 L 603 690 L 626 683 L 616 708 L 641 706 L 665 709 L 655 688 L 644 669 L 658 651 L 643 638 L 649 614 L 669 627 L 680 648 L 671 668 L 678 688 L 687 707 L 708 708 L 706 688 L 693 674 L 701 656 L 720 667 L 736 654 L 756 649 L 772 639 L 792 636 L 784 660 L 764 670 L 744 676 L 728 689 L 731 710 L 751 701 L 770 709 L 776 688 L 794 706 L 798 681 L 819 692 L 817 710 L 840 707 L 863 709 L 884 706 L 904 708 L 922 704 L 943 706 L 965 706 L 985 702 L 997 679 L 975 674 L 953 682 L 927 679 L 940 657 L 962 651 L 987 649 L 989 623 L 962 627 L 937 627 L 923 606 L 948 601 L 969 585 L 973 606 L 994 595 L 1007 578 L 1001 558 L 985 572 L 976 556 L 961 564 L 946 575 L 943 554 L 927 561 L 928 583 L 909 566 L 897 551 L 889 565 L 887 583 L 906 587 L 897 607 L 908 627 L 920 646 L 907 663 L 900 685 L 875 685 L 855 690 L 839 680 L 821 673 L 808 660 L 837 658 L 837 639 L 811 645 L 816 630 L 812 614 L 807 599 L 792 614 L 773 619 L 772 600 L 787 593 L 799 582 L 817 586 L 834 585 L 831 602 L 834 619 L 854 623 L 863 643 L 859 666 L 882 664 L 890 643 L 878 623 L 875 600 L 854 604 L 851 586 L 868 580 L 871 560 L 881 549 L 887 540 L 893 536 L 899 539 L 907 538 L 912 544 L 917 536 L 925 540 L 933 538 L 942 538 L 952 539 L 962 539 L 972 539 L 981 539 L 990 540 L 999 539 L 1008 540 L 1018 538 L 1019 548 L 1023 567 L 1025 592 L 1043 582 L 1063 588 L 1047 604 L 1030 622 L 1011 610 L 1011 637 L 1014 661 L 1036 650 L 1062 645 L 1051 627 L 1070 617 L 1079 600 L 1096 596 L 1098 577 L 1080 577 L 1076 558 L 1059 565 L 1039 562 L 1047 548 L 1027 539 L 1037 539 L 1046 538 L 1055 539 L 1063 540 L 1071 539 L 1079 539 L 1087 537 L 1095 538 L 1103 539 L 1111 539 L 1118 538 L 1124 540 L 1131 537 L 1137 539 L 1145 539 L 1152 540 L 1160 539 L 1168 539 L 1176 539 L 1183 539 L 1191 540 L 1199 538 L 1206 540 L 1214 537 L 1217 545 L 1214 563 L 1196 560 L 1179 554 L 1176 568 L 1157 587 L 1159 572 L 1162 556 L 1146 561 L 1133 554 L 1115 556 L 1096 558 L 1113 573 L 1129 571 L 1142 579 L 1145 596 L 1130 592 L 1114 590 L 1110 609 L 1127 611 L 1134 629 L 1115 629 L 1094 619 L 1082 637 L 1101 643 L 1103 665 L 1080 662 L 1058 671 L 1039 679 L 1019 689 L 1008 708 L 1038 707 L 1064 703 L 1083 685 L 1093 708 L 1120 709 L 1110 687 L 1126 669 L 1124 649 L 1145 644 L 1153 658 L 1175 651 L 1170 671 L 1146 675 L 1135 692 L 1147 709 L 1161 689 L 1168 707 L 1186 709 L 1187 689 L 1191 668 L 1212 664 L 1199 647 L 1186 632 L 1165 636 L 1153 624 L 1143 611 L 1160 605 L 1173 618 L 1178 601 L 1172 586 L 1188 579 L 1194 595 L 1193 613 L 1205 625 L 1219 636 L 1230 653 L 1213 686 L 1206 707 L 1229 709 L 1256 706 L 1237 691 L 1235 671 L 1258 680 L 1257 654 L 1260 628 L 1259 601 L 1261 577 L 1247 582 L 1237 597 L 1244 615 L 1241 636 L 1224 615 L 1212 600 L 1205 579 L 1223 584 L 1233 570 L 1247 560 L 1261 557 L 1262 540 L 1265 533 L 1254 537 L 1247 539 L 1240 541 L 1230 554 L 1224 538 L 1232 539 L 1240 533 L 1249 510 L 1256 490 L 1252 462 L 1250 430 L 1220 461 L 1223 487 L 1224 513 L 1203 508 L 1184 518 L 1164 507 L 1152 525 L 1138 505 L 1111 512 L 1092 495 L 1066 499 L 1061 519 L 1036 507 L 1041 477 L 1071 469 L 1075 436 L 1079 404 L 1115 428 L 1102 458 L 1122 481 L 1140 453 L 1156 479 L 1187 490 L 1187 466 L 1173 443 L 1152 420 L 1139 390 L 1109 399 L 1108 368 L 1110 339 L 1107 307 L 1090 278 L 1059 269 L 1064 303 L 1070 336 L 1067 372 L 1043 407 L 1041 443 L 1006 435 L 1011 464 L 1010 490 L 1012 516 L 990 511 L 968 512 L 948 507 L 925 503 L 902 510 L 912 476 L 906 436 L 932 412 L 906 357 L 905 386 L 889 407 L 859 416 L 876 437 L 881 462 L 855 479 L 846 445 L 828 468 L 824 497 L 846 510 L 886 488 L 873 509 L 880 536 L 873 539 L 865 538 L 855 538 L 844 539 L 833 539 L 822 538 L 811 540 L 805 534 L 799 541 L 791 539 L 784 539 L 777 539 L 772 530 L 759 527 L 748 528 L 751 514 L 748 501 L 768 504 L 767 517 L 782 519 L 803 507 L 790 483 L 802 460 L 812 434 L 828 411 L 853 387 L 872 365 L 884 334 L 870 305 L 899 289 L 912 316 L 942 309 L 973 316 L 1000 337 L 988 369 L 962 348 L 932 342 L 939 377 L 967 393 L 972 423 L 950 442 L 926 452 L 946 476 L 978 484 L 978 456 L 1004 405 L 1022 378 L 1036 351 L 1030 318 L 997 294 L 1027 282 L 1033 246 L 1005 250 L 980 261 L 961 281 L 932 274 L 913 253 L 883 261 L 857 276 L 851 244 L 822 265 L 789 262 L 796 292 L 754 285 L 772 316 L 757 346 L 742 376 L 725 401 L 757 407 L 776 376 L 795 349 L 812 323 L 833 298 L 849 331 L 834 357 L 815 381 L 793 403 L 780 429 L 774 455 L 760 479 L 746 459 L 747 434 L 722 432 L 714 436 L 717 458 L 728 479 L 734 511 L 736 525 L 721 522 L 715 499 L 692 510 L 695 481 L 690 457 L 669 445 L 686 425 L 695 429 L 704 433 L 711 426 L 702 421 L 693 414 L 684 409 L 675 403 L 676 420 L 665 416 L 656 411 L 646 407 L 636 403 L 639 392 L 627 399 L 617 398 L 611 402 L 604 405 L 597 407 L 590 406 L 588 392 L 598 397 L 602 389 L 594 380 L 603 379 L 613 385 L 622 391 L 626 383 L 627 373 L 635 375 L 642 380 L 650 385 L 657 392 L 666 397 L 677 376 L 705 378 L 718 350 L 733 320 L 713 298 L 716 269 L 740 252 L 768 242 L 746 218 L 715 226 L 682 217 L 690 252 L 677 286 L 689 323 L 678 350 L 647 342 L 651 312 L 616 307 L 637 278 L 658 249 L 622 242 L 585 234 L 556 212 L 577 188 L 611 205 L 646 212 L 674 182 L 643 172 L 611 169 L 582 151 L 549 155 L 535 184 L 516 211 L 482 221 L 505 246 L 528 266 L 546 241 L 565 270 L 600 270 L 582 299 L 555 309 L 537 291 L 526 317 L 500 286 L 477 263 L 448 244 L 453 283 L 469 308 L 501 315 L 486 335 L 461 339 L 456 369 L 435 349 L 409 342 L 432 314 L 424 280 L 390 280 L 361 262 L 356 298 L 395 312 L 374 337 L 351 361 L 344 391 L 371 387 L 389 366 L 418 375 L 395 400 L 367 417 L 338 417 L 347 441 L 345 464 L 322 475 L 316 434 L 307 459 L 282 473 L 300 493 L 310 516 L 327 497 L 337 516 L 360 513 L 401 516 L 380 503 L 351 490 L 371 477 L 374 450 L 389 430 L 411 431 L 419 406 L 438 419 L 441 391 L 464 405 L 462 413 L 459 421 L 469 425 L 480 422 L 489 413 L 478 406 L 468 398 L 473 391 L 479 385 L 488 388 L 491 396 L 497 404 L 507 398 L 511 412 L 510 428 L 497 424 L 489 436 L 475 438 L 461 436 L 458 429 L 455 440 L 461 445 L 460 452 L 476 452 L 491 452 L 484 465 L 494 474 L 475 479 L 471 473 L 466 465 L 463 459 L 460 472 L 439 462 L 431 442 L 410 458 L 393 472 L 403 492 L 428 487 L 424 510 L 445 517 L 450 497 L 465 499 L 481 486 L 488 490 L 491 497 L 497 493 L 499 501 L 507 497 L 505 483 L 519 485 L 528 494 L 537 486 L 529 473 L 521 458 L 513 471 L 504 459 L 504 442 L 519 441 L 534 448 L 539 461 L 550 450 L 546 436 L 552 422 L 561 421 L 569 424 L 571 416 L 555 389 L 542 396 L 555 406 L 540 416 L 534 431 L 524 422 L 530 408 L 522 399 L 515 389 L 515 378 L 514 363 L 504 371 L 501 384 L 487 379 L 489 372 L 490 363 L 498 358 L 506 352 L 516 348 L 526 349 L 532 354 L 526 362 L 525 372 L 531 386 L 541 375 L 555 372 L 567 378 L 567 364 L 564 348 L 549 357 L 539 343 L 549 336 L 562 332 L 575 332 L 586 333 L 581 345 L 581 357 L 596 350 L 597 337 L 607 341 L 613 347 L 620 354 L 625 363 L 614 372 L 610 360 L 601 370 L 597 362 L 591 366 L 583 369 L 587 376 L 579 383 L 569 392 L 569 400 L 578 400 L 576 406 L 584 407 L 580 414 L 579 422 L 586 423 L 589 430 L 598 434 L 591 438 L 595 445 L 595 453 L 593 460 L 591 467 L 587 473 L 577 460 L 582 448 L 576 436 L 560 436 L 568 447 L 562 457 L 555 467 L 544 474 L 551 485 L 562 480 L 571 470 L 577 481 L 585 480 L 579 488 L 571 490 L 569 497 L 560 497 L 553 502 L 549 496 L 543 502 L 535 503 L 526 503 L 518 501 L 512 504 L 504 507 L 495 509 L 491 504 L 483 505 L 486 513 L 492 519 L 501 522 L 501 515 L 509 519 L 511 512 L 528 521 L 546 519 L 560 528 L 567 522 L 573 525 L 574 515 L 574 505 L 598 496 L 601 478 L 609 468 L 626 465 L 620 445 L 609 421 L 627 424 L 646 434 L 646 459 L 665 472 L 668 493 L 666 515 L 639 517 L 639 495 L 624 484 L 618 503 L 602 517 L 588 532 L 582 526 L 578 532 L 576 540 L 583 540 L 592 541 L 601 540 L 611 540 L 617 561 L 621 539 L 631 541 L 641 540 L 651 539 L 659 538 L 667 539 L 675 540 L 681 537 L 688 540 L 696 539 L 704 539 L 712 540 L 721 541 L 729 538 L 735 544 L 740 539 L 748 541 L 755 539 L 763 540 L 770 541 L 773 557 L 788 555 L 805 554 L 821 554 L 837 555 L 854 552 L 856 566 L 842 570 L 826 569 L 811 569 L 797 567 L 783 572 L 770 581 L 760 567 L 755 553 L 743 565 L 726 564 L 710 566 L 696 558 L 678 555 L 681 571 L 693 583 L 701 599 L 716 616 L 733 605 L 717 587 L 736 584 L 754 586 L 754 605 L 752 625 L 734 631 L 715 640 L 695 633 L 691 614 L 673 602 L 667 583 L 648 590 L 659 566 L 660 550 L 641 563 L 629 580 L 626 603 L 623 626 L 624 655 L 602 666 L 579 682 L 552 683 L 528 681 L 507 689 L 503 669 L 520 656 L 541 657 L 530 631 L 504 641 L 487 650 L 467 658 L 467 639 L 448 646 L 450 626 L 455 609 L 473 600 L 491 607 L 480 624 L 506 622 L 517 606 L 537 604 L 552 619 L 558 640 L 565 664 L 582 649 L 602 637 L 601 610 L 578 620 L 563 598 L 583 589 L 607 585 L 596 565 L 577 563 L 562 573 L 544 583 L 524 583 L 503 591 L 486 584 L 470 577 L 456 585 L 440 592 L 438 573 L 442 554 L 456 562 L 471 558 L 485 552 L 489 566 L 504 555 L 507 572 L 523 560 L 541 562 L 557 552 L 569 545 L 569 535 L 566 530 L 562 540 L 558 535 L 551 538 L 547 542 L 541 539 L 534 539 L 526 540 L 518 539 L 508 538 L 498 538 L 487 538 L 476 538 L 467 520 L 466 539 L 456 539 L 446 538 L 437 538 L 429 540 L 424 536 L 417 540 L 410 539 L 401 539 L 394 539 L 385 539 L 379 532 L 376 541 L 369 538 L 360 539 L 352 537 L 345 542 L 338 537 L 333 545 L 326 537 L 316 538 L 307 539 L 298 538 L 288 539 L 279 538 L 270 539 L 282 513 L 254 515 L 265 495 L 248 478 L 223 486 L 230 510 L 201 503 L 182 516 L 164 500 L 175 475 L 203 468 L 186 445 L 190 416 L 221 398 L 235 371 L 261 352 L 291 368 L 265 389 L 256 419 L 224 430 L 229 456 L 259 451 L 285 440 L 289 410 L 313 399 L 321 371 L 315 341 L 344 329 L 319 304 L 312 275 L 330 249 L 348 222 L 381 228 L 408 250 L 417 216 L 451 206 L 478 183 L 506 166 L 484 137 L 460 111 L 483 79 L 504 105 L 526 131 L 543 93 L 570 119 L 580 82 L 586 47 L 619 63 L 613 100 L 613 132 L 651 136 L 683 121 L 693 154 L 711 190 L 730 156 L 720 120 L 649 96 L 685 88 L 719 83 L 752 96 L 757 130 L 768 165 L 746 187 L 779 201 L 796 229 L 826 230 L 817 199 L 800 172 L 792 141 L 822 130 L 789 108 L 777 72 L 806 80 L 822 53 L 830 97 L 855 72 L 865 43 L 895 53 L 921 68 L 888 90 L 861 109 L 856 140 L 832 167 L 866 170 L 886 195 L 851 203 L 876 228 L 905 221 L 934 223 L 956 240 L 987 221 L 992 189 L 957 193 L 924 187 L 900 163 L 893 130 L 920 108 L 950 84 L 954 121 L 934 150 L 972 159 L 988 133 L 982 98 L 979 65 L 979 35 L 995 13 L 1026 15 L 1012 47 L 1012 80 L 1042 69 L 1045 39 L 1059 13 L 1089 17 L 1119 16 L 1151 15 L 1178 25 L 1203 14 L 1230 22 L 1256 20 L 1249 62 L 1248 102 L 1212 91 L 1210 54 L 1175 62 L 1152 88 L 1181 105 L 1158 130 L 1168 166 L 1205 174 L 1218 210 L 1182 215 L 1148 206 L 1130 180 L 1126 150 L 1090 143 L 1091 176 L 1053 174 L 1052 141 L 1070 118 L 1096 107 L 1124 118 L 1122 83 L 1140 50 L 1107 49 L 1074 49 L 1091 76 L 1066 87 L 1041 104 L 1015 113 L 1020 145 L 1018 175 L 1027 210 L 1061 235 L 1068 204 L 1109 211 L 1094 240 L 1120 265 L 1144 241 L 1177 260 L 1149 288 L 1150 321 L 1186 333 L 1151 356 L 1173 383 L 1206 372 L 1188 412 L 1211 436 L 1222 404 L 1251 391 L 1252 354 L 1221 339 L 1246 311 L 1200 295 L 1215 252 L 1248 272 L 1252 226 L 1248 180 L 1247 141 L 1206 135 " stroke="black" stroke-width="3" fill="none"/> 
 </svg>