<?xml version="1.0" ?>
<!DOCTYPE svg PUBLIC "-//W3C//DTD SVG 1.1//EN" "http://www.w3.org/Graphics/SVG/1.1/DTD/svg11.dtd">
<svg width="1080" height="934" version="1.1" xmlns="http://www.w3.org/2000/svg">
<path d="M786 12 L 813 18 L 839 21 L 823 53 L 806 79 L 789 108 L 752 96 L 756 130 L 720 120 L 730 156 L 692 154 L 683 121 L 685 87 L 719 83 L 685 52 L 717 47 L 748 55 L 776 73 L 785 43 L 757 19 L 728 16 L 696 16 L 663 18 L 631 22 L 598 15 L 586 47 L 619 62 L 653 57 L 649 97 L 651 137 L 613 133 L 612 100 L 580 82 L 570 119 L 543 94 L 519 70 L 548 51 L 560 16 L 521 16 L 501 43 L 479 14 L 465 46 L 442 17 L 409 14 L 397 42 L 428 52 L 449 78 L 483 78 L 504 105 L 526 131 L 549 155 L 534 186 L 555 214 L 576 188 L 582 151 L 611 169 L 643 172 L 674 182 L 681 217 L 646 212 L 657 249 L 634 276 L 621 242 L 611 205 L 587 233 L 557 248 L 593 269 L 565 288 L 534 262 L 514 285 L 511 316 L 540 307 L 550 336 L 539 343 L 550 357 L 564 349 L 577 344 L 562 332 L 574 327 L 584 332 L 593 324 L 607 299 L 630 321 L 654 303 L 679 285 L 690 251 L 715 226 L 711 190 L 745 187 L 767 164 L 792 141 L 823 130 L 830 97 L 855 72 L 861 109 L 856 140 L 832 167 L 800 172 L 779 201 L 796 229 L 768 242 L 746 217 L 740 252 L 754 285 L 716 268 L 713 298 L 692 324 L 660 331 L 645 352 L 625 358 L 620 350 L 614 344 L 607 339 L 597 336 L 594 347 L 606 353 L 603 364 L 596 364 L 585 356 L 574 363 L 561 369 L 563 382 L 550 384 L 543 370 L 532 383 L 541 395 L 554 401 L 565 392 L 572 388 L 574 396 L 566 405 L 568 417 L 577 417 L 577 410 L 582 406 L 581 398 L 588 400 L 595 399 L 595 405 L 601 402 L 607 400 L 614 397 L 612 422 L 633 428 L 650 443 L 609 447 L 626 452 L 637 471 L 620 477 L 610 477 L 610 494 L 620 504 L 595 509 L 593 490 L 573 489 L 579 482 L 585 475 L 589 467 L 592 460 L 592 451 L 593 443 L 591 435 L 591 427 L 585 426 L 584 419 L 572 427 L 581 438 L 577 448 L 577 460 L 571 470 L 564 480 L 553 484 L 543 475 L 555 468 L 562 458 L 549 450 L 540 462 L 533 449 L 518 443 L 503 443 L 488 437 L 495 425 L 508 427 L 499 412 L 515 411 L 521 425 L 531 434 L 544 435 L 563 446 L 568 437 L 556 432 L 559 418 L 550 418 L 545 412 L 534 420 L 531 406 L 523 397 L 520 376 L 525 365 L 530 357 L 528 350 L 517 348 L 507 352 L 499 357 L 514 362 L 505 372 L 501 384 L 515 387 L 507 399 L 493 397 L 483 408 L 481 421 L 473 428 L 460 425 L 462 417 L 466 410 L 468 402 L 474 395 L 479 387 L 488 389 L 487 380 L 490 372 L 492 363 L 466 359 L 447 377 L 441 399 L 419 406 L 413 430 L 388 425 L 395 398 L 371 385 L 365 415 L 337 416 L 344 390 L 352 360 L 374 335 L 389 364 L 417 376 L 437 349 L 410 341 L 432 314 L 460 328 L 487 333 L 481 301 L 454 286 L 480 267 L 505 248 L 518 216 L 483 222 L 450 246 L 451 207 L 479 185 L 507 166 L 484 137 L 460 111 L 453 157 L 430 129 L 406 152 L 374 150 L 392 187 L 428 180 L 418 216 L 409 250 L 424 279 L 390 279 L 396 311 L 357 297 L 361 262 L 330 249 L 348 222 L 382 228 L 361 191 L 346 161 L 328 187 L 296 177 L 265 186 L 238 178 L 233 210 L 255 234 L 279 211 L 313 214 L 293 243 L 312 275 L 319 304 L 344 328 L 315 341 L 288 328 L 279 296 L 269 267 L 236 265 L 214 240 L 191 212 L 180 245 L 164 276 L 143 248 L 109 247 L 87 270 L 85 299 L 106 323 L 75 335 L 44 333 L 51 300 L 53 268 L 42 239 L 48 207 L 76 235 L 84 205 L 119 215 L 156 213 L 140 181 L 106 182 L 116 152 L 121 122 L 149 143 L 178 134 L 174 175 L 207 187 L 205 156 L 210 124 L 219 93 L 250 88 L 277 82 L 272 115 L 242 120 L 237 149 L 267 153 L 291 139 L 317 151 L 337 129 L 364 117 L 395 115 L 422 94 L 396 73 L 369 87 L 358 60 L 366 37 L 375 12 L 341 14 L 325 40 L 329 68 L 337 97 L 306 114 L 305 86 L 295 58 L 288 34 L 307 13 L 270 13 L 240 17 L 258 49 L 230 65 L 216 40 L 206 13 L 176 21 L 144 20 L 113 17 L 79 17 L 47 20 L 16 11 L 14 36 L 22 58 L 13 89 L 43 78 L 65 53 L 99 49 L 131 59 L 163 60 L 194 62 L 187 96 L 157 102 L 129 93 L 98 84 L 69 93 L 85 121 L 84 153 L 67 177 L 38 173 L 51 141 L 42 111 L 15 125 L 14 157 L 14 193 L 14 226 L 16 259 L 18 289 L 15 318 L 13 350 L 37 366 L 65 368 L 14 385 L 45 399 L 80 401 L 109 417 L 118 450 L 139 475 L 153 442 L 147 411 L 129 384 L 96 367 L 125 352 L 136 321 L 125 284 L 163 308 L 162 351 L 199 363 L 173 386 L 189 415 L 186 444 L 174 474 L 164 500 L 138 508 L 110 500 L 92 474 L 82 444 L 53 469 L 53 431 L 16 417 L 20 446 L 17 474 L 14 505 L 44 502 L 76 503 L 71 538 L 59 537 L 48 538 L 37 540 L 27 537 L 16 539 L 5 538 L 10 559 L 10 579 L 11 598 L 8 616 L 26 618 L 9 635 L 9 658 L 29 664 L 49 655 L 27 644 L 43 633 L 64 629 L 85 622 L 104 613 L 84 600 L 88 579 L 68 580 L 65 606 L 45 611 L 50 587 L 31 592 L 29 566 L 47 564 L 63 557 L 81 560 L 83 538 L 95 537 L 108 538 L 120 538 L 132 538 L 143 538 L 152 538 L 161 537 L 168 539 L 176 539 L 178 553 L 170 564 L 156 555 L 139 560 L 120 558 L 99 556 L 106 572 L 105 592 L 124 580 L 142 579 L 159 574 L 162 592 L 159 611 L 143 599 L 124 601 L 123 621 L 143 621 L 149 640 L 147 657 L 149 674 L 132 678 L 111 679 L 94 688 L 73 689 L 88 667 L 106 656 L 125 660 L 129 641 L 108 635 L 88 642 L 70 649 L 67 668 L 53 681 L 36 681 L 25 694 L 10 680 L 9 706 L 30 711 L 49 705 L 68 709 L 88 708 L 107 706 L 124 711 L 125 695 L 145 694 L 144 710 L 162 708 L 180 709 L 197 709 L 193 692 L 177 688 L 161 688 L 167 670 L 183 665 L 169 650 L 164 631 L 177 621 L 179 605 L 182 589 L 181 573 L 200 578 L 195 559 L 213 563 L 229 552 L 232 566 L 229 580 L 215 588 L 201 600 L 195 620 L 187 637 L 196 652 L 212 640 L 229 628 L 211 619 L 225 606 L 240 596 L 247 616 L 245 639 L 232 654 L 212 662 L 198 675 L 226 675 L 214 690 L 214 709 L 232 709 L 239 691 L 249 671 L 261 654 L 283 650 L 264 629 L 284 626 L 303 627 L 309 647 L 325 664 L 318 686 L 299 671 L 278 677 L 261 689 L 255 709 L 279 706 L 301 704 L 327 707 L 353 707 L 343 684 L 351 662 L 335 642 L 327 621 L 350 615 L 359 636 L 382 635 L 403 626 L 403 605 L 391 587 L 377 610 L 356 593 L 370 580 L 384 563 L 403 563 L 415 582 L 424 599 L 428 617 L 428 636 L 411 647 L 395 657 L 374 660 L 370 684 L 377 707 L 394 682 L 415 672 L 430 659 L 418 691 L 398 706 L 418 710 L 439 707 L 439 684 L 448 666 L 448 646 L 450 626 L 455 609 L 440 592 L 456 586 L 470 577 L 472 600 L 491 607 L 480 624 L 467 638 L 467 658 L 487 650 L 503 668 L 483 672 L 463 678 L 460 694 L 458 711 L 478 709 L 485 691 L 499 709 L 520 707 L 507 689 L 528 681 L 541 706 L 564 706 L 588 708 L 579 682 L 552 683 L 565 664 L 582 649 L 602 637 L 602 666 L 624 655 L 623 626 L 601 610 L 579 620 L 558 640 L 541 657 L 520 656 L 530 631 L 505 641 L 506 622 L 517 606 L 537 605 L 553 619 L 563 598 L 583 590 L 606 586 L 625 603 L 648 590 L 667 584 L 673 603 L 669 627 L 649 614 L 643 637 L 658 650 L 644 668 L 654 688 L 626 683 L 603 689 L 616 708 L 640 706 L 664 708 L 687 707 L 708 708 L 706 688 L 693 674 L 678 688 L 670 668 L 680 648 L 695 633 L 691 615 L 715 616 L 733 606 L 753 605 L 752 625 L 734 631 L 715 641 L 701 656 L 719 667 L 728 689 L 731 710 L 744 676 L 736 654 L 755 649 L 772 640 L 784 660 L 797 681 L 764 671 L 751 701 L 770 709 L 775 688 L 794 706 L 817 710 L 819 692 L 821 673 L 807 661 L 812 646 L 793 636 L 792 614 L 773 620 L 772 600 L 787 594 L 799 582 L 797 567 L 782 573 L 770 582 L 754 586 L 736 584 L 717 588 L 701 599 L 693 583 L 681 571 L 677 555 L 696 558 L 710 567 L 726 564 L 743 565 L 755 553 L 760 568 L 773 557 L 788 555 L 805 554 L 821 554 L 812 569 L 827 570 L 834 586 L 831 602 L 817 586 L 806 599 L 813 615 L 817 630 L 834 619 L 838 639 L 837 658 L 859 666 L 839 681 L 840 707 L 863 709 L 884 706 L 855 690 L 876 685 L 882 664 L 907 663 L 920 646 L 940 657 L 962 651 L 962 627 L 937 627 L 948 602 L 923 606 L 908 627 L 897 607 L 875 601 L 879 623 L 891 643 L 864 644 L 855 624 L 854 604 L 851 587 L 869 580 L 871 560 L 857 567 L 842 570 L 837 555 L 854 552 L 855 538 L 844 539 L 833 539 L 822 538 L 811 540 L 805 533 L 800 541 L 791 539 L 784 539 L 777 540 L 770 540 L 763 539 L 755 539 L 748 540 L 740 539 L 734 544 L 729 538 L 721 541 L 712 540 L 704 539 L 696 539 L 688 540 L 681 537 L 675 540 L 667 539 L 659 538 L 659 552 L 659 567 L 640 563 L 628 581 L 617 562 L 596 565 L 577 564 L 562 573 L 545 584 L 525 583 L 507 573 L 504 591 L 487 585 L 489 567 L 485 552 L 470 558 L 455 563 L 441 555 L 437 573 L 422 560 L 409 539 L 401 539 L 394 538 L 387 540 L 379 537 L 374 546 L 369 537 L 360 539 L 360 560 L 343 571 L 332 550 L 323 566 L 312 584 L 332 594 L 308 607 L 291 595 L 276 608 L 260 599 L 273 582 L 293 575 L 304 559 L 282 559 L 265 563 L 251 579 L 247 559 L 258 547 L 252 538 L 244 539 L 235 539 L 226 539 L 218 540 L 209 539 L 200 539 L 192 539 L 184 539 L 182 516 L 201 502 L 229 510 L 253 514 L 266 494 L 248 478 L 223 485 L 203 467 L 229 456 L 223 430 L 220 397 L 235 370 L 223 336 L 193 320 L 200 280 L 231 298 L 254 320 L 261 352 L 290 368 L 321 370 L 312 398 L 288 409 L 264 389 L 255 419 L 259 450 L 282 472 L 285 440 L 315 432 L 308 458 L 320 477 L 340 463 L 344 440 L 369 446 L 366 470 L 350 489 L 327 498 L 336 517 L 309 515 L 298 493 L 282 513 L 261 538 L 270 539 L 279 539 L 288 539 L 298 538 L 307 538 L 317 539 L 326 538 L 337 538 L 345 541 L 352 537 L 357 512 L 378 515 L 377 493 L 391 470 L 395 449 L 419 456 L 421 474 L 411 494 L 402 490 L 400 514 L 423 515 L 417 539 L 424 538 L 431 540 L 438 538 L 447 538 L 456 539 L 465 538 L 476 538 L 487 538 L 486 525 L 478 519 L 486 517 L 483 510 L 463 501 L 448 519 L 443 500 L 435 493 L 449 473 L 437 448 L 438 424 L 460 432 L 459 439 L 462 446 L 475 441 L 477 455 L 460 453 L 464 460 L 467 468 L 471 477 L 478 484 L 485 491 L 494 496 L 506 488 L 496 478 L 485 468 L 491 453 L 504 461 L 520 459 L 528 472 L 512 474 L 520 488 L 533 487 L 544 491 L 541 504 L 534 503 L 526 504 L 518 503 L 510 501 L 502 502 L 500 511 L 492 509 L 493 516 L 494 523 L 495 529 L 504 528 L 502 520 L 508 514 L 511 522 L 532 521 L 552 516 L 549 502 L 557 499 L 564 495 L 572 498 L 575 506 L 574 515 L 573 525 L 578 532 L 576 539 L 570 535 L 565 531 L 566 524 L 559 528 L 549 537 L 548 542 L 540 540 L 534 539 L 526 539 L 518 539 L 508 539 L 498 539 L 504 555 L 523 560 L 542 562 L 556 550 L 557 536 L 563 540 L 570 545 L 584 541 L 582 526 L 588 532 L 592 540 L 601 540 L 610 521 L 611 540 L 621 539 L 631 540 L 641 540 L 650 539 L 640 518 L 646 497 L 668 514 L 693 509 L 695 477 L 672 490 L 665 467 L 673 446 L 694 451 L 689 428 L 677 422 L 666 417 L 656 411 L 647 406 L 637 404 L 636 396 L 627 399 L 621 393 L 625 386 L 617 378 L 610 388 L 597 389 L 585 389 L 578 377 L 591 370 L 594 378 L 602 380 L 608 375 L 608 369 L 616 364 L 627 368 L 627 377 L 635 376 L 648 375 L 641 384 L 650 387 L 657 392 L 665 399 L 675 405 L 684 410 L 692 416 L 702 422 L 702 432 L 711 433 L 719 438 L 716 460 L 731 476 L 715 496 L 734 510 L 721 522 L 735 525 L 747 527 L 759 526 L 751 514 L 748 500 L 769 503 L 767 516 L 773 529 L 783 519 L 803 507 L 824 496 L 845 510 L 855 479 L 882 461 L 876 436 L 859 415 L 889 406 L 872 365 L 852 387 L 828 411 L 813 434 L 846 445 L 827 467 L 801 459 L 790 483 L 758 476 L 747 445 L 733 414 L 713 391 L 682 380 L 674 354 L 702 361 L 725 350 L 734 320 L 743 380 L 760 409 L 773 455 L 781 430 L 793 403 L 776 376 L 759 346 L 773 316 L 796 292 L 788 263 L 822 265 L 833 298 L 812 323 L 795 349 L 814 380 L 834 357 L 849 331 L 884 333 L 870 305 L 899 289 L 912 316 L 942 309 L 973 316 L 997 294 L 1027 282 L 1030 317 L 1001 337 L 989 369 L 963 348 L 932 342 L 906 357 L 906 386 L 939 376 L 967 393 L 932 412 L 906 435 L 926 452 L 950 441 L 947 476 L 912 475 L 886 488 L 872 509 L 901 510 L 925 503 L 948 507 L 968 512 L 990 510 L 978 484 L 978 455 L 973 422 L 1011 464 L 1010 490 L 1013 516 L 1036 507 L 1062 519 L 1066 498 L 1092 495 L 1111 512 L 1137 504 L 1156 478 L 1139 452 L 1122 480 L 1102 458 L 1115 428 L 1108 399 L 1078 404 L 1075 435 L 1071 468 L 1041 476 L 1041 442 L 1043 407 L 1007 434 L 1004 404 L 1023 378 L 1037 351 L 1067 372 L 1072 336 L 1064 304 L 1108 307 L 1111 339 L 1107 368 L 1139 389 L 1151 419 L 1173 442 L 1188 465 L 1187 489 L 1164 505 L 1152 523 L 1184 517 L 1204 508 L 1225 512 L 1223 486 L 1220 461 L 1211 435 L 1188 411 L 1173 382 L 1150 355 L 1150 320 L 1150 288 L 1121 266 L 1090 278 L 1059 269 L 1033 246 L 1006 250 L 981 261 L 961 282 L 932 275 L 913 252 L 883 261 L 856 276 L 851 244 L 826 230 L 816 199 L 851 203 L 866 170 L 887 195 L 876 228 L 905 220 L 935 222 L 956 241 L 987 221 L 992 189 L 957 193 L 924 187 L 900 162 L 893 130 L 920 108 L 889 89 L 920 68 L 950 84 L 946 46 L 895 53 L 865 43 L 864 12 L 894 17 L 923 20 L 956 13 L 979 36 L 995 13 L 1026 15 L 1044 39 L 1059 14 L 1089 17 L 1120 16 L 1151 15 L 1177 25 L 1203 14 L 1230 22 L 1256 20 L 1249 62 L 1211 54 L 1176 63 L 1213 91 L 1249 103 L 1247 141 L 1249 181 L 1206 174 L 1206 135 L 1182 105 L 1159 131 L 1168 167 L 1130 180 L 1126 150 L 1125 118 L 1097 107 L 1122 82 L 1152 89 L 1141 50 L 1108 49 L 1074 49 L 1042 69 L 1066 86 L 1092 76 L 1070 118 L 1041 105 L 1012 80 L 1012 47 L 979 65 L 982 98 L 954 121 L 934 150 L 971 159 L 988 133 L 1014 114 L 1020 145 L 1018 175 L 1027 210 L 1053 174 L 1052 142 L 1090 144 L 1092 177 L 1068 204 L 1061 235 L 1095 240 L 1110 211 L 1144 241 L 1149 205 L 1182 215 L 1218 210 L 1252 227 L 1248 272 L 1215 252 L 1178 260 L 1201 295 L 1185 334 L 1221 338 L 1247 310 L 1252 354 L 1207 371 L 1222 403 L 1251 391 L 1250 429 L 1252 461 L 1255 488 L 1252 511 L 1240 534 L 1244 541 L 1251 538 L 1258 539 L 1265 537 L 1261 556 L 1248 561 L 1233 570 L 1223 584 L 1206 579 L 1188 579 L 1176 568 L 1159 572 L 1162 555 L 1180 554 L 1197 560 L 1214 563 L 1231 554 L 1233 539 L 1225 538 L 1218 544 L 1214 537 L 1207 540 L 1199 538 L 1191 540 L 1183 539 L 1176 539 L 1168 539 L 1160 539 L 1152 540 L 1145 539 L 1137 539 L 1131 536 L 1125 540 L 1118 538 L 1111 539 L 1103 539 L 1095 539 L 1087 537 L 1079 539 L 1071 539 L 1063 540 L 1055 539 L 1046 538 L 1037 539 L 1027 539 L 1018 539 L 1008 540 L 999 539 L 990 540 L 981 539 L 971 539 L 962 540 L 976 556 L 961 564 L 952 539 L 942 538 L 933 538 L 925 540 L 917 536 L 913 544 L 907 538 L 899 539 L 893 536 L 887 540 L 880 536 L 873 539 L 865 538 L 881 551 L 898 552 L 889 566 L 887 584 L 907 587 L 909 567 L 927 562 L 944 555 L 928 584 L 946 577 L 968 585 L 985 573 L 1007 579 L 1001 559 L 1019 551 L 1023 568 L 1039 562 L 1048 550 L 1059 566 L 1076 558 L 1095 558 L 1115 556 L 1132 554 L 1146 561 L 1142 579 L 1128 572 L 1113 573 L 1097 577 L 1079 577 L 1079 600 L 1096 596 L 1114 590 L 1130 592 L 1145 596 L 1157 588 L 1172 586 L 1178 601 L 1160 605 L 1143 612 L 1126 611 L 1110 609 L 1114 629 L 1093 619 L 1069 617 L 1051 628 L 1030 622 L 1047 605 L 1062 589 L 1043 582 L 1025 593 L 1011 610 L 994 595 L 973 606 L 989 623 L 987 649 L 1011 637 L 1014 662 L 1036 650 L 1061 646 L 1082 637 L 1101 644 L 1134 630 L 1124 649 L 1126 669 L 1110 687 L 1102 666 L 1080 661 L 1058 672 L 1039 679 L 997 679 L 975 674 L 953 681 L 927 679 L 900 685 L 904 708 L 922 704 L 943 706 L 965 706 L 985 703 L 1009 708 L 1019 688 L 1038 707 L 1064 703 L 1083 685 L 1092 708 L 1120 709 L 1146 709 L 1135 691 L 1146 675 L 1153 658 L 1145 644 L 1165 637 L 1153 624 L 1173 618 L 1195 595 L 1212 600 L 1236 597 L 1246 582 L 1261 577 L 1259 601 L 1244 615 L 1260 628 L 1241 636 L 1219 637 L 1224 615 L 1206 625 L 1193 613 L 1186 633 L 1199 647 L 1212 664 L 1213 686 L 1187 689 L 1191 669 L 1176 652 L 1170 672 L 1161 689 L 1168 707 L 1187 709 L 1207 707 L 1229 709 L 1238 691 L 1235 671 L 1231 653 L 1257 654 L 1258 680 L 1256 706 " stroke="black" stroke-width="3" fill="none"/> 
 </svg>