<?xml version="1.0" ?>
<!DOCTYPE svg PUBLIC "-//W3C//DTD SVG 1.1//EN" "http://www.w3.org/Graphics/SVG/1.1/DTD/svg11.dtd">
<svg width="1080" height="934" version="1.1" xmlns="http://www.w3.org/2000/svg">
<path d="M864 12 L 894 17 L 923 20 L 956 13 L 946 46 L 950 84 L 979 65 L 982 98 L 988 133 L 972 159 L 934 150 L 954 121 L 920 108 L 893 130 L 861 109 L 856 140 L 822 130 L 792 141 L 800 172 L 832 167 L 817 199 L 779 201 L 796 229 L 768 242 L 747 218 L 746 187 L 768 165 L 730 156 L 720 120 L 719 83 L 685 88 L 649 96 L 683 121 L 651 136 L 613 132 L 613 100 L 619 63 L 653 57 L 686 52 L 717 47 L 748 56 L 752 96 L 757 130 L 789 108 L 777 72 L 785 43 L 822 53 L 806 80 L 830 97 L 855 72 L 888 90 L 921 68 L 895 53 L 865 43 L 839 22 L 814 18 L 787 12 L 758 18 L 729 16 L 696 16 L 663 18 L 631 22 L 599 15 L 586 47 L 580 82 L 570 118 L 543 93 L 548 51 L 560 16 L 521 16 L 518 70 L 501 43 L 465 46 L 478 14 L 441 17 L 428 52 L 398 42 L 408 14 L 375 12 L 367 37 L 357 60 L 329 68 L 336 97 L 305 85 L 277 82 L 251 89 L 243 120 L 272 115 L 306 113 L 291 139 L 267 152 L 237 149 L 238 179 L 266 185 L 297 176 L 316 150 L 337 129 L 363 116 L 395 115 L 369 87 L 396 73 L 421 94 L 449 78 L 483 79 L 504 105 L 460 111 L 484 137 L 526 131 L 549 155 L 582 151 L 611 168 L 643 172 L 674 182 L 693 154 L 711 190 L 715 226 L 682 217 L 647 211 L 612 204 L 577 187 L 555 210 L 543 238 L 563 264 L 585 231 L 622 241 L 598 266 L 575 293 L 587 322 L 597 326 L 607 330 L 603 341 L 595 348 L 586 336 L 582 348 L 573 357 L 575 368 L 582 378 L 569 382 L 575 387 L 584 390 L 594 384 L 596 374 L 591 369 L 592 361 L 600 360 L 607 356 L 616 350 L 616 335 L 624 342 L 630 351 L 620 364 L 609 364 L 609 372 L 603 377 L 615 380 L 627 377 L 632 371 L 631 362 L 640 372 L 642 381 L 650 381 L 656 389 L 664 396 L 673 402 L 681 407 L 688 414 L 696 421 L 705 428 L 715 442 L 705 439 L 692 433 L 680 426 L 670 419 L 660 412 L 651 407 L 644 401 L 636 400 L 628 397 L 634 392 L 626 383 L 624 391 L 618 389 L 612 393 L 608 399 L 603 393 L 599 398 L 593 394 L 587 397 L 579 395 L 582 403 L 576 408 L 575 417 L 583 417 L 586 425 L 590 432 L 604 420 L 621 426 L 623 453 L 641 431 L 657 446 L 645 471 L 639 493 L 618 481 L 606 489 L 589 488 L 585 476 L 590 469 L 594 463 L 593 455 L 594 448 L 594 440 L 582 439 L 580 449 L 578 461 L 571 471 L 579 482 L 573 487 L 561 479 L 550 484 L 543 473 L 540 460 L 533 447 L 523 458 L 529 472 L 536 485 L 522 484 L 509 482 L 512 495 L 519 498 L 526 498 L 534 499 L 541 498 L 550 497 L 558 495 L 566 492 L 572 498 L 597 507 L 621 511 L 640 519 L 657 506 L 672 486 L 678 460 L 700 472 L 718 496 L 696 504 L 678 516 L 659 537 L 651 540 L 641 540 L 631 540 L 621 539 L 617 561 L 610 540 L 601 540 L 592 541 L 593 527 L 583 525 L 579 532 L 588 533 L 583 541 L 576 540 L 568 541 L 560 554 L 542 562 L 523 560 L 540 540 L 547 544 L 548 537 L 555 540 L 561 537 L 570 534 L 567 530 L 567 523 L 574 525 L 571 515 L 572 507 L 560 528 L 548 515 L 528 518 L 534 538 L 527 540 L 519 539 L 509 539 L 505 531 L 497 529 L 491 532 L 485 539 L 475 538 L 465 538 L 455 538 L 446 538 L 437 538 L 430 541 L 424 536 L 417 539 L 409 540 L 401 537 L 394 540 L 386 539 L 379 536 L 375 544 L 362 559 L 344 570 L 325 571 L 311 586 L 292 576 L 282 559 L 265 562 L 247 559 L 251 578 L 272 582 L 290 595 L 276 608 L 259 599 L 240 595 L 225 606 L 211 619 L 200 600 L 195 619 L 187 637 L 169 650 L 149 640 L 147 657 L 149 674 L 132 678 L 111 679 L 94 688 L 73 689 L 88 667 L 106 656 L 125 660 L 129 641 L 108 635 L 88 642 L 70 649 L 67 668 L 49 654 L 64 629 L 85 622 L 45 611 L 65 606 L 84 600 L 105 592 L 104 612 L 123 621 L 143 621 L 124 601 L 143 598 L 142 579 L 159 574 L 162 591 L 159 611 L 164 631 L 177 621 L 179 605 L 182 589 L 181 574 L 200 578 L 215 588 L 229 580 L 232 566 L 229 552 L 213 563 L 195 559 L 178 553 L 171 564 L 156 555 L 139 560 L 124 580 L 121 558 L 120 538 L 132 538 L 143 538 L 152 538 L 161 537 L 168 539 L 176 539 L 184 539 L 192 539 L 200 539 L 209 539 L 218 540 L 227 539 L 235 539 L 244 539 L 252 538 L 257 546 L 261 538 L 270 539 L 279 538 L 288 539 L 298 538 L 302 561 L 319 555 L 307 539 L 316 538 L 326 538 L 333 544 L 338 537 L 345 542 L 352 537 L 360 539 L 369 537 L 360 512 L 353 491 L 370 474 L 389 493 L 383 513 L 411 515 L 412 495 L 436 499 L 441 518 L 457 487 L 463 506 L 477 519 L 482 526 L 489 523 L 484 514 L 493 511 L 494 518 L 501 522 L 509 522 L 503 514 L 503 504 L 504 496 L 498 491 L 490 488 L 483 483 L 477 476 L 472 468 L 468 460 L 465 452 L 464 443 L 471 430 L 480 420 L 476 408 L 489 406 L 498 413 L 508 427 L 493 426 L 482 438 L 485 451 L 487 464 L 498 473 L 513 469 L 504 457 L 500 441 L 516 444 L 522 430 L 522 416 L 511 410 L 504 398 L 515 387 L 521 399 L 534 404 L 537 419 L 536 432 L 547 437 L 561 435 L 551 450 L 555 466 L 564 457 L 567 445 L 572 430 L 554 424 L 549 409 L 558 412 L 567 412 L 563 398 L 556 386 L 544 394 L 531 386 L 520 374 L 533 370 L 545 377 L 559 368 L 546 358 L 551 342 L 561 351 L 569 338 L 576 323 L 565 323 L 554 325 L 544 329 L 536 338 L 530 346 L 529 357 L 512 361 L 506 375 L 493 367 L 497 356 L 506 347 L 518 342 L 493 321 L 468 307 L 466 336 L 470 360 L 486 375 L 493 379 L 497 387 L 490 391 L 478 382 L 471 388 L 480 396 L 467 396 L 464 404 L 462 411 L 463 419 L 460 426 L 461 435 L 434 417 L 412 419 L 397 398 L 418 376 L 437 394 L 448 371 L 438 347 L 432 314 L 397 315 L 410 343 L 389 365 L 371 385 L 350 361 L 374 338 L 343 328 L 362 301 L 336 281 L 314 308 L 301 274 L 292 241 L 329 248 L 367 259 L 392 283 L 424 278 L 408 250 L 448 243 L 452 283 L 477 264 L 500 287 L 520 311 L 541 292 L 526 266 L 504 246 L 482 221 L 515 210 L 535 184 L 506 165 L 478 183 L 451 205 L 418 216 L 383 224 L 348 222 L 360 191 L 391 185 L 427 180 L 452 156 L 430 129 L 406 152 L 373 149 L 346 161 L 327 186 L 313 213 L 279 209 L 255 232 L 232 210 L 214 239 L 234 264 L 266 266 L 275 297 L 286 330 L 315 344 L 321 372 L 290 369 L 261 353 L 253 322 L 231 298 L 200 280 L 165 276 L 180 245 L 143 247 L 156 213 L 191 211 L 207 186 L 174 175 L 140 181 L 119 215 L 109 247 L 88 270 L 61 302 L 36 291 L 56 265 L 42 238 L 77 234 L 84 203 L 106 182 L 116 152 L 84 153 L 66 177 L 38 173 L 51 140 L 41 110 L 43 78 L 69 93 L 98 85 L 65 53 L 100 50 L 132 60 L 163 59 L 194 62 L 187 96 L 157 102 L 129 94 L 85 121 L 121 122 L 149 143 L 179 134 L 205 156 L 210 124 L 219 93 L 231 65 L 258 49 L 288 34 L 295 58 L 325 40 L 341 14 L 308 13 L 270 13 L 240 17 L 216 40 L 206 13 L 176 21 L 144 20 L 112 17 L 79 17 L 47 20 L 16 11 L 14 36 L 22 57 L 13 89 L 14 125 L 14 157 L 14 193 L 48 207 L 14 226 L 17 259 L 11 290 L 15 320 L 44 332 L 76 336 L 64 368 L 37 367 L 13 352 L 13 386 L 16 418 L 20 446 L 16 474 L 14 505 L 43 503 L 53 469 L 75 503 L 111 500 L 92 475 L 82 445 L 54 432 L 45 400 L 80 401 L 108 417 L 118 450 L 140 475 L 153 441 L 147 411 L 128 385 L 162 352 L 125 353 L 96 368 L 106 325 L 92 299 L 126 284 L 136 321 L 162 308 L 193 320 L 223 337 L 199 363 L 174 387 L 190 416 L 186 445 L 175 475 L 203 468 L 229 456 L 223 430 L 221 398 L 235 371 L 264 389 L 256 419 L 289 410 L 313 400 L 344 391 L 339 417 L 366 414 L 388 427 L 406 444 L 411 456 L 427 447 L 443 440 L 445 469 L 425 476 L 398 475 L 386 455 L 365 444 L 344 466 L 339 443 L 314 432 L 308 458 L 322 476 L 328 497 L 337 516 L 310 515 L 282 513 L 299 493 L 282 473 L 285 440 L 259 451 L 248 478 L 265 494 L 254 515 L 230 510 L 223 486 L 201 503 L 182 516 L 164 500 L 139 508 L 108 538 L 95 537 L 83 538 L 71 538 L 59 537 L 48 538 L 37 540 L 27 537 L 17 539 L 5 538 L 10 559 L 10 579 L 29 567 L 47 564 L 63 557 L 81 560 L 99 556 L 106 572 L 88 579 L 68 580 L 50 587 L 31 592 L 11 598 L 8 616 L 26 617 L 42 633 L 26 644 L 9 635 L 9 658 L 29 664 L 53 681 L 36 681 L 25 694 L 10 680 L 9 706 L 30 711 L 49 705 L 68 709 L 88 708 L 107 706 L 124 711 L 125 695 L 145 694 L 144 711 L 163 708 L 180 709 L 197 709 L 193 692 L 177 688 L 161 688 L 167 670 L 183 665 L 196 652 L 198 675 L 212 662 L 226 675 L 214 690 L 214 709 L 232 709 L 238 691 L 249 671 L 261 654 L 232 654 L 212 640 L 229 628 L 245 639 L 247 616 L 264 629 L 284 625 L 282 649 L 298 671 L 278 677 L 261 689 L 254 709 L 278 706 L 301 704 L 327 707 L 318 686 L 324 664 L 309 646 L 303 627 L 335 643 L 326 621 L 307 607 L 333 595 L 350 615 L 359 636 L 382 635 L 404 626 L 404 605 L 416 582 L 391 587 L 377 610 L 357 593 L 370 579 L 384 563 L 403 563 L 422 560 L 438 573 L 442 554 L 456 562 L 471 558 L 485 552 L 498 539 L 504 555 L 489 567 L 486 584 L 470 577 L 456 585 L 440 592 L 425 599 L 428 617 L 428 636 L 412 647 L 395 657 L 375 660 L 352 662 L 344 684 L 353 707 L 370 684 L 395 682 L 377 707 L 398 706 L 419 710 L 419 692 L 415 672 L 430 659 L 439 684 L 439 707 L 458 711 L 460 694 L 463 678 L 448 666 L 448 646 L 450 626 L 455 609 L 473 600 L 491 607 L 480 624 L 467 639 L 467 658 L 487 650 L 504 641 L 505 622 L 517 606 L 503 591 L 507 573 L 524 583 L 544 583 L 562 574 L 578 563 L 596 565 L 607 585 L 583 589 L 563 598 L 537 604 L 530 631 L 520 656 L 541 657 L 558 640 L 552 619 L 578 620 L 601 610 L 623 626 L 626 603 L 628 580 L 641 563 L 659 565 L 660 547 L 667 539 L 674 540 L 681 539 L 688 540 L 696 539 L 704 539 L 712 540 L 721 541 L 729 538 L 735 544 L 740 539 L 748 541 L 755 539 L 763 540 L 770 541 L 773 557 L 788 554 L 805 554 L 821 554 L 837 555 L 854 552 L 856 566 L 842 570 L 834 585 L 826 569 L 811 569 L 797 567 L 783 572 L 770 581 L 760 567 L 755 553 L 743 565 L 726 564 L 710 566 L 696 558 L 677 555 L 681 571 L 693 582 L 701 599 L 691 614 L 716 616 L 733 605 L 717 587 L 736 584 L 754 586 L 754 605 L 752 625 L 734 631 L 715 640 L 695 633 L 673 602 L 667 583 L 648 590 L 649 614 L 643 638 L 624 655 L 602 637 L 582 649 L 602 666 L 579 682 L 565 664 L 552 683 L 528 681 L 507 689 L 503 669 L 482 673 L 485 691 L 478 709 L 499 709 L 520 707 L 541 706 L 564 706 L 588 708 L 603 690 L 616 708 L 641 706 L 626 683 L 644 669 L 655 688 L 665 709 L 687 707 L 708 708 L 706 688 L 693 674 L 678 688 L 671 668 L 658 651 L 669 627 L 680 648 L 701 656 L 720 667 L 736 654 L 756 649 L 772 639 L 773 619 L 772 600 L 787 593 L 799 582 L 817 586 L 806 599 L 812 614 L 831 602 L 834 619 L 816 630 L 837 639 L 837 658 L 821 673 L 808 660 L 811 645 L 792 614 L 792 636 L 784 660 L 764 671 L 744 676 L 728 689 L 731 710 L 751 701 L 770 709 L 776 688 L 798 681 L 794 706 L 817 710 L 819 692 L 840 707 L 839 680 L 855 690 L 863 709 L 884 706 L 904 708 L 922 704 L 943 706 L 965 706 L 985 702 L 1008 708 L 1019 689 L 1039 679 L 1038 707 L 1064 703 L 1083 685 L 1093 708 L 1110 687 L 1120 709 L 1135 692 L 1147 709 L 1168 707 L 1161 689 L 1170 671 L 1191 668 L 1187 689 L 1186 709 L 1206 707 L 1229 709 L 1256 706 L 1258 680 L 1257 654 L 1260 628 L 1259 601 L 1261 577 L 1246 582 L 1237 597 L 1244 615 L 1241 636 L 1230 653 L 1235 671 L 1237 691 L 1213 686 L 1212 664 L 1199 647 L 1219 636 L 1205 625 L 1193 613 L 1224 615 L 1212 600 L 1223 584 L 1233 570 L 1247 560 L 1261 557 L 1262 540 L 1265 533 L 1254 537 L 1247 539 L 1240 541 L 1240 533 L 1232 539 L 1224 538 L 1217 544 L 1230 554 L 1214 563 L 1196 560 L 1179 554 L 1176 568 L 1188 579 L 1205 579 L 1194 595 L 1178 601 L 1172 586 L 1157 587 L 1159 572 L 1162 556 L 1146 561 L 1133 554 L 1129 571 L 1142 579 L 1145 596 L 1160 605 L 1173 618 L 1186 632 L 1175 651 L 1165 636 L 1153 624 L 1143 611 L 1127 611 L 1110 609 L 1130 592 L 1114 590 L 1113 573 L 1098 577 L 1080 577 L 1076 558 L 1059 565 L 1063 588 L 1047 604 L 1043 582 L 1025 592 L 1011 610 L 1030 622 L 1051 627 L 1070 617 L 1079 600 L 1096 596 L 1094 619 L 1082 637 L 1101 643 L 1115 629 L 1134 629 L 1145 644 L 1153 658 L 1146 675 L 1126 669 L 1124 649 L 1103 665 L 1080 661 L 1058 671 L 1062 645 L 1036 650 L 1014 662 L 997 679 L 975 674 L 953 682 L 927 679 L 900 685 L 907 663 L 920 647 L 940 657 L 962 651 L 987 649 L 1011 637 L 989 623 L 962 627 L 937 627 L 923 606 L 948 601 L 946 575 L 928 584 L 926 561 L 943 554 L 961 564 L 976 556 L 985 572 L 969 585 L 973 606 L 994 595 L 1007 578 L 1001 558 L 1023 567 L 1039 562 L 1048 548 L 1046 538 L 1055 539 L 1063 540 L 1071 539 L 1079 539 L 1087 537 L 1095 538 L 1096 558 L 1115 556 L 1103 539 L 1111 539 L 1118 538 L 1124 540 L 1131 537 L 1137 539 L 1145 539 L 1152 540 L 1160 539 L 1168 539 L 1176 539 L 1183 539 L 1191 540 L 1199 538 L 1206 540 L 1214 537 L 1224 513 L 1249 510 L 1256 490 L 1252 462 L 1250 430 L 1222 404 L 1251 391 L 1252 354 L 1221 339 L 1246 311 L 1248 272 L 1252 226 L 1218 210 L 1182 215 L 1215 252 L 1177 260 L 1149 288 L 1150 321 L 1151 356 L 1186 333 L 1200 295 L 1206 372 L 1173 383 L 1188 412 L 1211 436 L 1220 461 L 1223 487 L 1203 508 L 1184 518 L 1164 507 L 1152 525 L 1138 505 L 1111 512 L 1092 495 L 1066 499 L 1061 519 L 1036 507 L 1037 539 L 1027 539 L 1019 548 L 1018 538 L 1008 540 L 999 539 L 990 540 L 981 539 L 972 539 L 962 539 L 952 539 L 942 538 L 933 538 L 925 540 L 918 536 L 913 541 L 906 554 L 910 571 L 905 589 L 897 608 L 908 627 L 890 643 L 882 664 L 875 685 L 859 666 L 863 643 L 854 623 L 878 623 L 876 600 L 855 604 L 851 586 L 868 580 L 886 582 L 890 564 L 871 560 L 882 551 L 893 542 L 899 539 L 906 538 L 892 533 L 885 539 L 879 536 L 873 540 L 865 538 L 855 538 L 844 539 L 833 539 L 822 538 L 811 540 L 805 531 L 800 540 L 791 539 L 784 539 L 777 540 L 772 530 L 759 527 L 747 528 L 735 525 L 721 522 L 734 511 L 747 500 L 751 514 L 768 503 L 767 516 L 782 519 L 802 506 L 824 497 L 846 510 L 872 509 L 886 488 L 902 509 L 925 503 L 948 507 L 968 512 L 990 511 L 1012 516 L 1010 490 L 1041 477 L 1071 469 L 1075 436 L 1079 404 L 1109 399 L 1115 428 L 1102 458 L 1122 481 L 1140 453 L 1156 479 L 1187 490 L 1187 466 L 1173 443 L 1152 420 L 1139 390 L 1108 368 L 1110 339 L 1107 307 L 1090 278 L 1059 269 L 1064 303 L 1070 336 L 1067 372 L 1043 407 L 1041 443 L 1006 435 L 1011 464 L 978 456 L 978 484 L 946 476 L 912 476 L 881 462 L 876 437 L 859 416 L 889 407 L 905 386 L 906 357 L 872 365 L 853 387 L 829 411 L 813 434 L 846 445 L 855 479 L 827 468 L 801 459 L 789 482 L 772 455 L 757 476 L 728 472 L 745 445 L 733 417 L 760 410 L 781 430 L 793 403 L 815 381 L 834 357 L 849 331 L 870 305 L 884 334 L 912 316 L 942 309 L 973 316 L 1000 337 L 962 348 L 932 342 L 939 377 L 932 412 L 906 436 L 926 452 L 950 442 L 972 423 L 967 393 L 988 369 L 1004 405 L 1022 378 L 1036 351 L 1030 318 L 1027 282 L 997 294 L 961 281 L 932 274 L 913 253 L 899 289 L 883 261 L 857 276 L 833 298 L 812 323 L 795 349 L 776 376 L 743 380 L 713 392 L 696 365 L 675 375 L 665 345 L 650 314 L 613 298 L 638 277 L 658 249 L 690 252 L 677 287 L 691 325 L 713 298 L 716 269 L 740 252 L 754 285 L 733 321 L 722 353 L 757 346 L 772 316 L 796 292 L 789 262 L 822 265 L 851 244 L 826 230 L 851 203 L 876 228 L 886 195 L 866 170 L 900 163 L 924 187 L 905 221 L 934 223 L 956 240 L 980 261 L 1005 250 L 1033 246 L 1061 235 L 1068 204 L 1053 174 L 1091 176 L 1090 143 L 1096 107 L 1124 118 L 1126 150 L 1109 211 L 1094 240 L 1120 265 L 1144 241 L 1148 206 L 1130 180 L 1168 166 L 1205 174 L 1248 180 L 1247 141 L 1248 102 L 1212 91 L 1206 135 L 1181 105 L 1158 130 L 1152 88 L 1122 83 L 1140 50 L 1175 62 L 1210 54 L 1249 62 L 1256 20 L 1230 22 L 1203 14 L 1178 25 L 1151 15 L 1119 16 L 1089 17 L 1059 13 L 1026 15 L 995 13 L 979 35 L 1012 47 L 1012 80 L 1042 69 L 1045 39 L 1074 49 L 1107 49 L 1091 76 L 1066 87 L 1070 118 L 1052 141 L 1041 104 L 1015 113 L 1020 145 L 1018 175 L 992 189 L 957 193 L 987 221 L 1027 210 " stroke="black" stroke-width="3" fill="none"/> 
 </svg>