<?xml version="1.0" ?>
<!DOCTYPE svg PUBLIC "-//W3C//DTD SVG 1.1//EN" "http://www.w3.org/Graphics/SVG/1.1/DTD/svg11.dtd">
<svg width="1080" height="934" version="1.1" xmlns="http://www.w3.org/2000/svg">
<path d="M864 12 L 894 17 L 923 20 L 956 13 L 946 46 L 921 68 L 895 53 L 888 90 L 861 109 L 856 140 L 866 170 L 900 163 L 893 130 L 920 108 L 950 84 L 954 121 L 933 150 L 924 187 L 957 193 L 972 159 L 988 133 L 1015 113 L 1020 145 L 1018 175 L 992 189 L 987 221 L 1027 210 L 1033 246 L 1005 250 L 980 261 L 956 240 L 934 223 L 905 221 L 886 195 L 850 203 L 876 228 L 851 244 L 825 230 L 823 265 L 790 261 L 765 245 L 756 285 L 734 257 L 700 255 L 664 249 L 640 268 L 624 237 L 600 257 L 585 227 L 613 201 L 579 185 L 555 208 L 545 234 L 563 258 L 580 280 L 605 286 L 630 294 L 641 319 L 662 301 L 683 283 L 717 289 L 733 319 L 757 345 L 773 316 L 796 291 L 812 323 L 795 349 L 776 375 L 743 379 L 720 352 L 695 322 L 662 337 L 681 356 L 698 376 L 717 394 L 693 406 L 681 410 L 676 403 L 669 397 L 663 391 L 657 384 L 649 393 L 644 404 L 638 398 L 631 394 L 625 408 L 625 430 L 608 414 L 584 416 L 590 425 L 593 434 L 595 445 L 619 454 L 642 455 L 650 434 L 652 407 L 660 412 L 669 418 L 678 425 L 688 417 L 695 421 L 700 427 L 706 434 L 715 442 L 706 443 L 697 437 L 688 431 L 674 454 L 676 483 L 653 475 L 647 507 L 627 513 L 607 517 L 613 496 L 628 482 L 608 476 L 593 499 L 571 498 L 571 507 L 567 515 L 565 524 L 572 525 L 580 524 L 588 525 L 593 532 L 585 533 L 577 533 L 569 532 L 561 531 L 557 521 L 538 519 L 523 511 L 511 524 L 504 518 L 502 524 L 507 532 L 498 531 L 498 539 L 490 534 L 485 538 L 475 538 L 465 539 L 455 538 L 446 538 L 437 538 L 430 541 L 424 536 L 414 517 L 443 514 L 426 498 L 418 477 L 440 463 L 449 483 L 462 501 L 482 510 L 485 518 L 476 519 L 482 527 L 490 526 L 495 520 L 494 513 L 501 507 L 504 499 L 505 491 L 514 492 L 522 493 L 531 495 L 538 488 L 541 496 L 549 494 L 557 492 L 565 491 L 573 487 L 580 481 L 586 474 L 591 465 L 594 456 L 583 451 L 576 461 L 571 472 L 558 479 L 556 466 L 541 462 L 544 477 L 527 476 L 510 477 L 498 487 L 489 484 L 489 476 L 479 479 L 480 470 L 473 466 L 469 458 L 466 449 L 462 441 L 463 432 L 481 439 L 494 429 L 514 411 L 522 398 L 531 407 L 541 417 L 534 431 L 524 423 L 509 428 L 519 442 L 502 445 L 486 453 L 498 464 L 512 462 L 525 459 L 534 447 L 546 438 L 551 450 L 562 455 L 571 448 L 580 438 L 581 428 L 569 424 L 564 437 L 553 429 L 556 419 L 553 408 L 564 410 L 574 409 L 581 406 L 586 401 L 588 395 L 575 396 L 566 387 L 560 397 L 543 396 L 542 375 L 553 383 L 563 372 L 568 354 L 576 362 L 586 371 L 574 376 L 578 382 L 584 385 L 591 384 L 591 390 L 598 390 L 604 387 L 609 391 L 612 384 L 618 387 L 623 392 L 627 387 L 638 383 L 649 377 L 642 370 L 633 365 L 628 373 L 622 379 L 608 371 L 598 378 L 601 369 L 596 366 L 593 359 L 600 355 L 584 349 L 586 333 L 597 341 L 611 342 L 609 354 L 613 359 L 613 366 L 625 358 L 633 354 L 628 346 L 624 339 L 618 333 L 612 328 L 609 315 L 604 327 L 597 322 L 591 317 L 583 319 L 581 312 L 564 295 L 565 315 L 573 315 L 572 327 L 572 340 L 559 333 L 547 339 L 554 350 L 553 364 L 536 363 L 535 348 L 522 355 L 510 359 L 520 373 L 531 385 L 515 386 L 502 382 L 496 377 L 490 393 L 504 398 L 497 412 L 483 407 L 479 422 L 459 425 L 463 418 L 464 411 L 467 403 L 470 395 L 475 388 L 479 381 L 483 374 L 491 369 L 500 368 L 496 360 L 500 351 L 503 342 L 513 340 L 523 336 L 533 337 L 538 328 L 548 321 L 556 316 L 536 315 L 542 286 L 527 257 L 514 284 L 504 310 L 474 311 L 468 340 L 455 369 L 439 348 L 436 316 L 454 285 L 424 281 L 411 250 L 418 217 L 451 207 L 482 220 L 452 247 L 482 275 L 497 247 L 515 212 L 534 183 L 549 156 L 583 150 L 614 162 L 646 171 L 650 134 L 608 123 L 633 97 L 616 62 L 650 59 L 684 55 L 716 48 L 746 57 L 776 73 L 750 95 L 712 85 L 671 92 L 687 120 L 722 122 L 730 157 L 757 131 L 767 165 L 745 189 L 711 189 L 690 154 L 675 186 L 648 212 L 684 220 L 717 224 L 748 220 L 778 201 L 795 228 L 816 199 L 832 167 L 800 172 L 792 141 L 788 108 L 822 130 L 830 97 L 806 80 L 822 53 L 855 72 L 865 43 L 839 21 L 813 18 L 787 12 L 784 43 L 757 19 L 728 16 L 695 17 L 663 18 L 631 22 L 599 16 L 584 48 L 548 51 L 560 16 L 521 16 L 501 43 L 518 70 L 545 91 L 585 87 L 566 119 L 525 131 L 504 104 L 483 79 L 465 46 L 479 14 L 441 17 L 428 52 L 398 42 L 408 14 L 375 12 L 367 37 L 357 60 L 369 87 L 396 73 L 421 94 L 449 78 L 460 111 L 483 136 L 505 165 L 477 183 L 452 156 L 427 180 L 391 187 L 382 228 L 348 222 L 361 191 L 327 186 L 295 176 L 316 151 L 346 161 L 374 149 L 406 152 L 430 129 L 395 115 L 363 117 L 337 129 L 336 97 L 329 68 L 325 40 L 341 14 L 307 13 L 295 58 L 287 34 L 270 13 L 240 17 L 258 49 L 250 89 L 276 82 L 305 85 L 306 113 L 291 139 L 268 153 L 239 150 L 271 116 L 239 121 L 217 95 L 230 66 L 213 41 L 207 13 L 177 20 L 144 20 L 112 17 L 79 17 L 47 20 L 16 11 L 14 36 L 22 57 L 43 78 L 13 89 L 41 110 L 14 125 L 14 157 L 14 193 L 14 226 L 16 260 L 18 290 L 14 320 L 42 331 L 73 335 L 51 366 L 16 353 L 16 384 L 44 400 L 15 416 L 21 445 L 16 473 L 14 504 L 5 538 L 17 539 L 27 537 L 37 540 L 48 538 L 59 537 L 71 538 L 83 538 L 95 537 L 108 538 L 120 538 L 132 538 L 111 500 L 93 475 L 75 503 L 43 503 L 53 469 L 55 431 L 82 446 L 106 417 L 78 398 L 89 366 L 124 384 L 146 409 L 153 440 L 119 449 L 139 474 L 139 508 L 164 500 L 174 475 L 182 516 L 201 503 L 223 486 L 230 510 L 235 539 L 244 539 L 252 538 L 261 538 L 270 539 L 279 539 L 288 539 L 298 538 L 307 538 L 317 539 L 326 537 L 332 548 L 323 566 L 304 559 L 293 575 L 282 559 L 265 562 L 257 546 L 247 559 L 232 566 L 229 580 L 215 588 L 200 578 L 181 574 L 182 589 L 179 605 L 177 621 L 164 631 L 149 640 L 147 657 L 125 660 L 111 679 L 94 688 L 73 689 L 53 681 L 67 668 L 88 667 L 106 656 L 108 635 L 129 641 L 143 621 L 159 611 L 162 591 L 159 574 L 171 564 L 178 553 L 195 559 L 213 563 L 229 552 L 227 539 L 218 540 L 209 539 L 200 539 L 192 539 L 184 539 L 176 539 L 168 539 L 161 537 L 152 538 L 143 538 L 156 555 L 139 560 L 121 558 L 124 580 L 142 579 L 143 598 L 124 601 L 123 621 L 104 612 L 105 592 L 106 572 L 99 556 L 81 560 L 63 557 L 47 564 L 50 587 L 68 580 L 88 579 L 84 600 L 65 606 L 45 611 L 26 617 L 31 592 L 29 567 L 10 559 L 10 579 L 11 598 L 8 616 L 9 635 L 9 658 L 26 644 L 42 633 L 64 629 L 85 622 L 88 642 L 70 649 L 49 654 L 29 664 L 36 681 L 25 694 L 10 680 L 9 706 L 30 711 L 49 705 L 68 709 L 88 708 L 107 706 L 124 711 L 125 695 L 132 678 L 149 674 L 167 670 L 169 650 L 183 665 L 196 652 L 187 637 L 195 619 L 200 600 L 211 619 L 225 606 L 240 595 L 251 578 L 272 582 L 291 594 L 308 607 L 312 584 L 332 593 L 344 570 L 362 559 L 345 541 L 337 537 L 338 516 L 326 498 L 321 477 L 299 493 L 310 516 L 282 513 L 254 515 L 265 495 L 248 478 L 259 451 L 285 440 L 282 473 L 308 458 L 315 433 L 344 441 L 342 463 L 367 471 L 370 445 L 388 422 L 363 416 L 336 416 L 313 398 L 289 410 L 265 389 L 256 419 L 223 430 L 229 456 L 203 468 L 186 445 L 189 416 L 174 387 L 198 362 L 160 353 L 121 353 L 136 322 L 162 308 L 192 320 L 200 279 L 164 275 L 179 244 L 143 245 L 109 246 L 88 270 L 125 284 L 105 322 L 85 300 L 52 299 L 53 267 L 76 235 L 42 238 L 48 207 L 67 176 L 38 173 L 51 140 L 86 153 L 86 121 L 69 94 L 98 84 L 65 54 L 99 49 L 131 61 L 164 55 L 193 67 L 185 103 L 158 92 L 127 97 L 120 125 L 123 153 L 107 181 L 85 204 L 121 213 L 160 209 L 145 178 L 173 158 L 157 131 L 202 128 L 207 156 L 192 185 L 195 214 L 216 241 L 237 265 L 231 298 L 254 320 L 223 336 L 221 398 L 235 371 L 261 352 L 291 368 L 288 328 L 278 295 L 269 266 L 255 231 L 230 208 L 229 179 L 261 186 L 281 209 L 313 214 L 293 242 L 330 249 L 311 274 L 320 304 L 357 298 L 361 262 L 390 280 L 398 312 L 411 342 L 390 365 L 375 336 L 352 361 L 344 329 L 315 341 L 321 370 L 344 390 L 373 388 L 401 398 L 420 375 L 442 392 L 429 410 L 413 427 L 438 437 L 419 454 L 401 447 L 391 463 L 394 481 L 401 500 L 385 517 L 375 496 L 349 489 L 361 513 L 352 538 L 360 539 L 368 538 L 376 539 L 385 539 L 393 540 L 401 538 L 409 539 L 417 539 L 422 560 L 403 563 L 384 562 L 370 579 L 357 593 L 377 610 L 403 626 L 404 605 L 391 586 L 416 582 L 425 599 L 428 617 L 428 636 L 412 647 L 395 682 L 370 684 L 352 662 L 375 660 L 395 657 L 382 635 L 359 636 L 349 614 L 326 621 L 335 643 L 309 646 L 303 627 L 284 625 L 276 608 L 260 599 L 247 616 L 264 629 L 282 649 L 261 654 L 249 671 L 232 654 L 245 639 L 229 628 L 212 640 L 212 662 L 198 675 L 177 688 L 161 688 L 145 694 L 144 711 L 163 708 L 180 709 L 193 692 L 197 709 L 214 709 L 214 690 L 226 675 L 238 691 L 232 709 L 254 709 L 261 689 L 278 677 L 298 671 L 278 706 L 301 704 L 327 707 L 318 686 L 324 664 L 344 684 L 353 707 L 377 707 L 398 706 L 419 710 L 419 692 L 415 672 L 430 659 L 439 684 L 439 707 L 458 711 L 460 694 L 463 678 L 448 666 L 448 646 L 450 626 L 455 609 L 473 600 L 491 607 L 480 624 L 467 639 L 467 658 L 487 650 L 504 641 L 505 622 L 530 631 L 520 656 L 541 657 L 565 664 L 552 683 L 528 681 L 507 689 L 503 669 L 482 673 L 485 691 L 478 709 L 499 709 L 520 707 L 541 706 L 564 706 L 588 708 L 579 682 L 602 666 L 582 649 L 602 637 L 623 626 L 643 638 L 658 651 L 671 668 L 680 648 L 669 627 L 673 602 L 667 583 L 681 571 L 693 583 L 701 599 L 691 614 L 695 633 L 701 656 L 693 674 L 678 688 L 655 688 L 644 669 L 624 655 L 626 683 L 603 690 L 616 708 L 641 706 L 665 709 L 687 707 L 708 708 L 706 688 L 720 667 L 736 654 L 756 649 L 772 639 L 792 636 L 784 660 L 764 671 L 744 676 L 728 689 L 731 710 L 751 701 L 770 709 L 794 706 L 776 688 L 798 681 L 819 692 L 817 710 L 840 707 L 863 709 L 884 706 L 904 708 L 922 704 L 943 706 L 965 706 L 985 702 L 1008 708 L 1019 689 L 997 679 L 1014 662 L 1011 637 L 1030 622 L 1011 610 L 994 595 L 969 585 L 973 606 L 989 623 L 987 649 L 975 674 L 953 682 L 927 679 L 900 685 L 907 663 L 920 647 L 940 657 L 962 651 L 962 627 L 937 627 L 948 601 L 923 606 L 908 627 L 897 608 L 876 600 L 886 582 L 890 564 L 882 551 L 871 560 L 856 566 L 854 552 L 837 555 L 842 570 L 834 585 L 851 586 L 868 580 L 855 604 L 831 602 L 834 619 L 854 623 L 837 639 L 837 658 L 859 666 L 863 643 L 878 623 L 890 643 L 882 664 L 875 685 L 855 690 L 839 680 L 821 673 L 808 660 L 811 645 L 816 630 L 812 614 L 807 599 L 817 586 L 799 582 L 787 593 L 792 614 L 773 619 L 772 600 L 754 605 L 752 625 L 734 631 L 715 640 L 716 616 L 733 605 L 736 584 L 717 587 L 710 566 L 726 564 L 743 565 L 754 586 L 770 581 L 783 572 L 797 567 L 811 569 L 826 569 L 821 554 L 805 554 L 788 554 L 773 557 L 761 567 L 755 553 L 748 541 L 740 539 L 735 544 L 729 538 L 721 541 L 712 540 L 704 539 L 696 539 L 688 540 L 681 539 L 696 558 L 678 555 L 660 551 L 659 566 L 641 563 L 618 561 L 597 565 L 578 564 L 560 557 L 563 576 L 563 599 L 584 590 L 607 586 L 629 580 L 648 590 L 649 614 L 626 603 L 601 610 L 579 620 L 558 640 L 552 619 L 537 604 L 517 606 L 503 591 L 486 584 L 470 577 L 456 585 L 440 592 L 438 573 L 442 554 L 456 562 L 471 558 L 484 552 L 489 567 L 507 573 L 524 583 L 544 583 L 541 563 L 522 560 L 503 555 L 510 539 L 520 539 L 529 539 L 538 539 L 546 543 L 549 537 L 557 540 L 565 540 L 573 541 L 582 541 L 591 541 L 600 541 L 610 540 L 621 539 L 631 540 L 641 539 L 650 539 L 659 538 L 667 539 L 674 540 L 675 521 L 667 507 L 694 507 L 698 476 L 717 462 L 732 477 L 758 476 L 772 456 L 746 445 L 733 417 L 760 409 L 780 431 L 794 403 L 815 381 L 834 357 L 849 331 L 833 298 L 857 276 L 883 261 L 913 253 L 932 274 L 961 281 L 942 309 L 912 316 L 899 289 L 870 305 L 884 334 L 906 357 L 905 386 L 872 365 L 853 387 L 829 411 L 813 434 L 801 459 L 790 483 L 802 507 L 782 519 L 767 516 L 768 503 L 748 501 L 751 514 L 734 511 L 715 497 L 721 522 L 736 525 L 748 528 L 759 526 L 772 529 L 755 539 L 763 539 L 770 541 L 777 540 L 784 539 L 791 539 L 800 541 L 805 533 L 811 540 L 822 538 L 833 539 L 844 539 L 855 538 L 865 538 L 873 540 L 879 536 L 886 539 L 892 533 L 893 542 L 899 539 L 906 538 L 913 541 L 918 536 L 925 540 L 933 538 L 942 538 L 943 554 L 926 561 L 906 554 L 910 571 L 905 589 L 928 584 L 946 575 L 961 564 L 976 556 L 985 572 L 1001 558 L 1007 578 L 1023 567 L 1019 548 L 1037 539 L 1027 539 L 1018 538 L 1008 540 L 999 539 L 990 540 L 981 539 L 972 539 L 962 539 L 952 539 L 948 507 L 946 476 L 912 476 L 925 503 L 902 509 L 886 488 L 872 509 L 846 510 L 824 497 L 827 468 L 855 479 L 881 462 L 876 437 L 846 445 L 859 416 L 889 407 L 906 436 L 932 412 L 939 377 L 932 342 L 962 348 L 1000 337 L 973 316 L 997 294 L 1027 282 L 1030 318 L 1036 351 L 988 369 L 967 393 L 972 423 L 950 442 L 926 452 L 978 456 L 978 484 L 968 512 L 990 511 L 1012 516 L 1010 490 L 1011 464 L 1006 435 L 1004 405 L 1022 378 L 1043 407 L 1041 443 L 1075 436 L 1071 469 L 1041 477 L 1036 507 L 1061 519 L 1066 499 L 1092 495 L 1111 512 L 1138 505 L 1156 479 L 1140 453 L 1122 481 L 1102 458 L 1115 428 L 1109 399 L 1079 404 L 1067 372 L 1070 336 L 1064 303 L 1059 269 L 1090 278 L 1107 307 L 1110 339 L 1108 368 L 1139 390 L 1152 420 L 1173 443 L 1187 466 L 1187 490 L 1219 461 L 1211 436 L 1188 412 L 1173 383 L 1151 356 L 1150 321 L 1149 288 L 1177 260 L 1120 265 L 1144 241 L 1148 206 L 1130 180 L 1126 150 L 1124 118 L 1096 107 L 1090 143 L 1091 176 L 1109 211 L 1094 240 L 1061 235 L 1068 204 L 1053 174 L 1052 141 L 1070 118 L 1041 104 L 1066 87 L 1091 76 L 1122 83 L 1152 88 L 1158 130 L 1168 166 L 1182 215 L 1218 210 L 1205 174 L 1206 135 L 1181 105 L 1212 91 L 1210 54 L 1175 62 L 1140 50 L 1107 49 L 1074 49 L 1042 69 L 1012 47 L 1012 80 L 982 98 L 979 65 L 979 35 L 995 13 L 1026 15 L 1045 39 L 1059 13 L 1089 17 L 1119 16 L 1151 15 L 1178 25 L 1203 14 L 1230 22 L 1256 20 L 1249 62 L 1248 102 L 1247 141 L 1248 180 L 1252 226 L 1215 252 L 1248 272 L 1246 311 L 1200 295 L 1186 333 L 1206 372 L 1221 339 L 1252 354 L 1251 391 L 1222 404 L 1250 430 L 1252 462 L 1255 490 L 1250 511 L 1224 513 L 1223 487 L 1203 508 L 1184 518 L 1164 507 L 1152 525 L 1152 540 L 1145 539 L 1137 539 L 1131 537 L 1124 540 L 1118 538 L 1111 539 L 1103 539 L 1095 538 L 1087 537 L 1079 539 L 1071 539 L 1063 540 L 1055 539 L 1046 538 L 1048 548 L 1039 562 L 1059 565 L 1076 558 L 1096 558 L 1115 556 L 1133 554 L 1146 561 L 1142 579 L 1129 571 L 1113 573 L 1098 577 L 1080 577 L 1063 588 L 1043 582 L 1025 592 L 1047 604 L 1070 617 L 1051 627 L 1062 645 L 1036 650 L 1058 671 L 1039 679 L 1038 707 L 1064 703 L 1083 685 L 1080 662 L 1103 665 L 1101 643 L 1082 637 L 1094 619 L 1079 600 L 1096 596 L 1114 590 L 1130 592 L 1110 609 L 1127 611 L 1145 596 L 1143 611 L 1134 629 L 1115 629 L 1124 649 L 1126 669 L 1110 687 L 1093 708 L 1120 709 L 1135 692 L 1147 709 L 1168 707 L 1186 709 L 1187 689 L 1191 668 L 1170 671 L 1161 689 L 1146 675 L 1153 658 L 1145 644 L 1175 651 L 1165 636 L 1153 624 L 1160 605 L 1173 618 L 1186 632 L 1199 647 L 1205 625 L 1193 613 L 1194 595 L 1178 601 L 1172 586 L 1157 587 L 1159 572 L 1162 556 L 1160 539 L 1168 539 L 1176 539 L 1183 539 L 1191 540 L 1199 538 L 1207 540 L 1214 537 L 1218 544 L 1225 538 L 1234 539 L 1241 534 L 1244 541 L 1251 538 L 1259 539 L 1265 537 L 1262 556 L 1248 560 L 1231 554 L 1233 570 L 1223 583 L 1205 579 L 1214 562 L 1196 560 L 1179 554 L 1176 568 L 1188 579 L 1212 600 L 1224 615 L 1244 615 L 1237 597 L 1246 582 L 1261 577 L 1259 601 L 1260 628 L 1257 654 L 1241 636 L 1219 636 L 1230 653 L 1212 664 L 1213 686 L 1206 707 L 1229 709 L 1237 691 L 1235 671 L 1258 680 L 1256 706 " stroke="black" stroke-width="3" fill="none"/> 
 </svg>