<?xml version="1.0" ?>
<!DOCTYPE svg PUBLIC "-//W3C//DTD SVG 1.1//EN" "http://www.w3.org/Graphics/SVG/1.1/DTD/svg11.dtd">
<svg width="1080" height="934" version="1.1" xmlns="http://www.w3.org/2000/svg">
<path d="M864 12 L 894 17 L 923 20 L 956 13 L 979 35 L 995 13 L 1026 15 L 1045 39 L 1059 13 L 1089 17 L 1119 16 L 1151 15 L 1178 25 L 1203 14 L 1230 22 L 1256 20 L 1249 62 L 1248 102 L 1247 141 L 1248 180 L 1205 174 L 1206 135 L 1168 166 L 1158 130 L 1124 118 L 1096 107 L 1070 118 L 1052 141 L 1053 174 L 1091 176 L 1090 143 L 1126 150 L 1130 180 L 1108 211 L 1096 241 L 1123 269 L 1143 241 L 1148 206 L 1182 215 L 1218 210 L 1252 226 L 1215 251 L 1249 272 L 1244 312 L 1222 348 L 1253 353 L 1252 391 L 1221 397 L 1195 369 L 1187 329 L 1202 294 L 1177 259 L 1153 294 L 1146 332 L 1153 367 L 1171 392 L 1190 414 L 1170 439 L 1185 463 L 1188 489 L 1184 518 L 1203 508 L 1224 513 L 1223 487 L 1219 462 L 1212 435 L 1250 429 L 1252 462 L 1255 490 L 1250 511 L 1240 534 L 1244 541 L 1251 537 L 1259 539 L 1265 537 L 1262 556 L 1248 560 L 1233 570 L 1223 583 L 1246 582 L 1261 577 L 1259 601 L 1237 597 L 1244 615 L 1260 628 L 1241 636 L 1257 654 L 1258 680 L 1256 706 L 1229 709 L 1237 691 L 1235 671 L 1230 653 L 1219 636 L 1199 647 L 1186 632 L 1173 618 L 1160 605 L 1193 613 L 1205 625 L 1224 615 L 1212 600 L 1194 595 L 1178 601 L 1172 586 L 1157 587 L 1159 572 L 1162 556 L 1179 554 L 1176 568 L 1188 579 L 1205 579 L 1196 560 L 1214 562 L 1231 554 L 1234 539 L 1225 538 L 1218 544 L 1214 537 L 1207 540 L 1199 538 L 1191 540 L 1183 539 L 1176 539 L 1168 539 L 1160 539 L 1152 540 L 1145 539 L 1137 539 L 1131 537 L 1124 540 L 1118 538 L 1111 539 L 1103 539 L 1111 512 L 1092 495 L 1122 481 L 1138 505 L 1152 525 L 1164 506 L 1155 478 L 1139 451 L 1147 414 L 1118 393 L 1113 428 L 1102 458 L 1071 469 L 1066 499 L 1061 519 L 1036 507 L 1010 490 L 1011 464 L 1041 477 L 1040 442 L 1045 405 L 1074 436 L 1083 404 L 1071 373 L 1117 363 L 1097 340 L 1111 310 L 1091 279 L 1060 269 L 1066 304 L 1064 335 L 1037 354 L 1021 378 L 1005 406 L 1006 435 L 972 423 L 967 393 L 939 377 L 932 412 L 906 436 L 926 452 L 950 442 L 978 456 L 946 476 L 912 476 L 886 488 L 873 509 L 846 510 L 825 497 L 804 509 L 793 482 L 826 468 L 846 445 L 855 479 L 882 462 L 876 437 L 859 416 L 889 407 L 905 386 L 906 357 L 932 342 L 962 348 L 987 369 L 1001 338 L 1029 318 L 1027 283 L 997 294 L 974 316 L 942 309 L 961 281 L 932 274 L 913 253 L 934 223 L 905 221 L 876 228 L 851 244 L 823 265 L 833 298 L 812 324 L 795 351 L 772 376 L 757 346 L 722 352 L 739 383 L 757 411 L 792 401 L 814 381 L 834 357 L 849 331 L 870 305 L 857 276 L 883 261 L 899 289 L 912 316 L 884 334 L 872 365 L 853 387 L 829 411 L 813 433 L 800 457 L 781 429 L 772 454 L 759 477 L 727 474 L 744 448 L 729 426 L 713 405 L 705 379 L 695 322 L 733 319 L 717 289 L 683 284 L 660 306 L 661 336 L 685 353 L 678 378 L 662 396 L 669 401 L 672 408 L 679 412 L 684 421 L 692 429 L 687 437 L 698 441 L 706 448 L 682 465 L 699 482 L 710 504 L 722 521 L 734 525 L 740 514 L 734 503 L 753 502 L 753 516 L 767 515 L 773 503 L 783 520 L 772 529 L 759 527 L 747 528 L 740 538 L 735 544 L 728 538 L 721 541 L 712 540 L 704 539 L 696 558 L 710 566 L 726 564 L 743 565 L 760 567 L 736 584 L 717 587 L 733 605 L 716 616 L 715 640 L 734 631 L 752 625 L 754 605 L 754 586 L 770 581 L 772 600 L 787 593 L 799 582 L 797 567 L 783 572 L 788 555 L 773 557 L 755 553 L 748 541 L 755 539 L 763 540 L 770 540 L 777 539 L 784 539 L 791 539 L 798 541 L 804 537 L 812 540 L 822 538 L 833 539 L 844 539 L 855 538 L 865 538 L 873 540 L 854 552 L 837 555 L 821 554 L 805 554 L 811 569 L 826 569 L 842 570 L 856 566 L 871 560 L 882 551 L 879 536 L 885 539 L 893 542 L 899 539 L 892 533 L 902 509 L 925 503 L 948 507 L 968 512 L 978 484 L 990 511 L 1012 516 L 1018 538 L 1027 539 L 1037 539 L 1019 548 L 1008 540 L 999 539 L 990 540 L 981 539 L 972 539 L 962 539 L 952 539 L 942 538 L 933 538 L 925 540 L 918 536 L 913 541 L 906 538 L 906 554 L 910 571 L 926 561 L 943 554 L 946 575 L 928 584 L 923 606 L 905 589 L 890 564 L 886 582 L 868 580 L 851 586 L 834 585 L 817 586 L 806 599 L 812 614 L 816 630 L 811 645 L 808 660 L 821 673 L 839 680 L 855 690 L 859 666 L 837 658 L 837 639 L 834 619 L 831 602 L 855 604 L 854 623 L 863 643 L 878 623 L 876 600 L 897 608 L 908 627 L 890 643 L 882 664 L 875 685 L 900 685 L 907 663 L 920 647 L 937 627 L 948 601 L 973 606 L 969 585 L 961 564 L 976 556 L 985 572 L 1001 558 L 1023 567 L 1039 562 L 1047 548 L 1046 538 L 1055 539 L 1063 540 L 1071 539 L 1079 539 L 1087 537 L 1095 538 L 1076 558 L 1059 565 L 1080 577 L 1098 577 L 1096 558 L 1115 556 L 1133 554 L 1146 561 L 1142 579 L 1129 571 L 1113 573 L 1114 590 L 1130 592 L 1145 596 L 1143 611 L 1153 624 L 1165 636 L 1175 651 L 1170 671 L 1161 689 L 1187 689 L 1191 668 L 1212 664 L 1213 686 L 1206 707 L 1186 709 L 1168 707 L 1147 709 L 1120 709 L 1110 687 L 1103 665 L 1101 643 L 1082 637 L 1094 619 L 1115 629 L 1124 649 L 1126 669 L 1135 692 L 1146 675 L 1153 658 L 1145 644 L 1134 629 L 1127 611 L 1110 609 L 1096 596 L 1079 600 L 1063 588 L 1047 604 L 1070 617 L 1051 627 L 1030 622 L 1011 610 L 1025 592 L 1043 582 L 1007 578 L 994 595 L 989 623 L 962 627 L 962 651 L 940 657 L 927 679 L 953 682 L 975 674 L 997 679 L 987 649 L 1011 637 L 1014 662 L 1036 650 L 1062 645 L 1039 679 L 1058 671 L 1080 662 L 1083 685 L 1093 708 L 1064 703 L 1038 707 L 1019 689 L 1008 708 L 985 702 L 965 706 L 943 706 L 922 704 L 904 708 L 884 706 L 863 709 L 840 707 L 819 692 L 817 710 L 794 706 L 798 681 L 784 660 L 792 636 L 792 614 L 773 619 L 772 639 L 756 649 L 736 654 L 720 667 L 744 676 L 764 671 L 776 688 L 770 709 L 751 701 L 728 689 L 731 710 L 708 708 L 706 688 L 693 674 L 701 656 L 680 648 L 695 633 L 691 614 L 701 599 L 692 582 L 681 570 L 677 555 L 679 539 L 687 539 L 695 539 L 687 508 L 662 511 L 672 529 L 670 540 L 661 538 L 660 547 L 651 539 L 642 540 L 637 518 L 663 487 L 658 456 L 636 472 L 645 495 L 626 498 L 610 513 L 590 499 L 607 483 L 610 460 L 589 452 L 586 460 L 583 468 L 578 475 L 572 481 L 566 487 L 557 476 L 547 482 L 534 486 L 526 476 L 513 480 L 499 472 L 513 464 L 525 459 L 539 472 L 542 460 L 552 450 L 547 438 L 554 427 L 551 416 L 539 415 L 529 406 L 514 411 L 504 398 L 498 413 L 510 427 L 524 423 L 535 430 L 534 447 L 520 442 L 504 444 L 501 458 L 488 454 L 485 439 L 496 428 L 482 425 L 482 412 L 488 401 L 488 389 L 498 383 L 500 372 L 511 371 L 514 385 L 520 397 L 530 385 L 540 395 L 553 402 L 553 387 L 543 375 L 525 371 L 515 357 L 525 348 L 536 361 L 554 363 L 560 376 L 568 388 L 576 397 L 570 403 L 562 403 L 565 415 L 572 425 L 562 436 L 567 446 L 564 456 L 555 465 L 570 466 L 577 452 L 578 437 L 590 444 L 593 438 L 590 431 L 593 422 L 585 424 L 586 416 L 586 408 L 578 410 L 581 402 L 583 394 L 584 388 L 613 407 L 621 426 L 627 448 L 645 433 L 677 429 L 668 421 L 658 413 L 649 406 L 641 400 L 635 393 L 627 388 L 639 381 L 648 392 L 657 388 L 652 380 L 646 373 L 641 365 L 633 358 L 633 349 L 621 348 L 629 340 L 627 330 L 618 335 L 616 325 L 608 319 L 600 315 L 591 311 L 583 308 L 575 308 L 567 308 L 559 308 L 553 313 L 546 317 L 541 323 L 556 332 L 566 322 L 581 322 L 590 331 L 602 334 L 608 348 L 613 355 L 613 362 L 607 367 L 601 363 L 597 365 L 597 357 L 599 350 L 584 344 L 573 335 L 583 357 L 586 367 L 600 374 L 614 373 L 622 362 L 632 367 L 627 373 L 626 380 L 620 380 L 614 384 L 608 384 L 603 386 L 598 382 L 596 387 L 590 383 L 588 378 L 582 380 L 576 375 L 570 366 L 570 354 L 561 346 L 547 349 L 536 340 L 542 333 L 534 329 L 524 329 L 515 332 L 509 340 L 502 345 L 500 354 L 497 362 L 488 367 L 481 375 L 476 384 L 472 393 L 469 402 L 466 410 L 468 418 L 464 424 L 468 432 L 467 441 L 471 448 L 469 455 L 475 461 L 479 468 L 483 475 L 489 482 L 497 486 L 504 491 L 511 494 L 519 495 L 526 496 L 534 497 L 542 496 L 551 494 L 558 491 L 564 496 L 567 503 L 567 511 L 566 518 L 552 519 L 534 516 L 517 529 L 511 522 L 502 521 L 505 502 L 501 510 L 493 515 L 492 523 L 483 525 L 483 516 L 461 515 L 468 494 L 459 475 L 442 495 L 438 516 L 438 538 L 430 540 L 424 537 L 417 539 L 409 539 L 401 538 L 393 539 L 385 539 L 379 531 L 376 541 L 368 538 L 360 539 L 352 538 L 361 559 L 343 570 L 323 565 L 312 584 L 332 594 L 349 614 L 357 593 L 370 579 L 384 562 L 403 563 L 422 560 L 416 581 L 438 573 L 440 592 L 456 585 L 470 577 L 486 584 L 503 591 L 491 607 L 473 600 L 455 609 L 450 626 L 448 646 L 467 639 L 467 658 L 487 650 L 504 641 L 480 624 L 505 622 L 517 606 L 524 583 L 507 573 L 503 555 L 489 567 L 485 552 L 471 558 L 456 563 L 442 554 L 446 538 L 455 539 L 465 539 L 475 538 L 486 539 L 490 532 L 498 539 L 499 530 L 507 531 L 509 539 L 518 539 L 527 539 L 534 539 L 541 540 L 547 536 L 549 543 L 557 539 L 565 540 L 573 541 L 582 541 L 578 533 L 570 533 L 562 532 L 565 526 L 573 525 L 581 524 L 589 525 L 586 533 L 594 532 L 591 541 L 600 541 L 610 540 L 621 539 L 631 541 L 618 561 L 641 563 L 659 565 L 667 583 L 673 602 L 669 627 L 649 614 L 648 590 L 629 580 L 626 603 L 623 626 L 643 638 L 658 651 L 671 668 L 678 688 L 687 707 L 665 709 L 655 688 L 644 669 L 624 655 L 602 666 L 582 649 L 602 637 L 579 620 L 601 610 L 584 590 L 607 585 L 597 565 L 578 564 L 560 557 L 541 562 L 522 560 L 544 583 L 563 576 L 563 599 L 552 619 L 537 604 L 530 631 L 558 640 L 541 657 L 520 656 L 503 669 L 507 689 L 528 681 L 552 683 L 565 664 L 579 682 L 626 683 L 641 706 L 616 708 L 603 690 L 588 708 L 564 706 L 541 706 L 520 707 L 499 709 L 478 709 L 485 691 L 482 673 L 463 678 L 460 694 L 458 711 L 439 707 L 439 684 L 448 666 L 430 659 L 415 672 L 419 692 L 419 710 L 398 706 L 377 707 L 353 707 L 370 684 L 395 682 L 375 660 L 395 657 L 412 647 L 428 636 L 428 617 L 425 599 L 403 626 L 404 605 L 391 586 L 377 609 L 382 635 L 359 636 L 352 662 L 344 684 L 318 686 L 327 707 L 301 704 L 278 706 L 254 709 L 261 689 L 278 677 L 298 671 L 282 649 L 261 654 L 264 629 L 247 616 L 245 639 L 229 628 L 212 640 L 232 654 L 249 671 L 238 691 L 232 709 L 214 709 L 214 690 L 226 675 L 212 662 L 198 675 L 193 692 L 197 709 L 180 709 L 177 688 L 161 688 L 167 670 L 169 650 L 183 665 L 196 652 L 187 637 L 195 619 L 200 600 L 211 619 L 225 606 L 240 595 L 260 599 L 276 608 L 284 625 L 303 627 L 309 646 L 324 664 L 335 643 L 326 621 L 308 607 L 291 594 L 272 582 L 251 578 L 247 559 L 265 562 L 293 575 L 303 559 L 282 559 L 288 539 L 298 538 L 307 538 L 317 539 L 326 537 L 332 547 L 345 541 L 337 537 L 336 516 L 357 514 L 374 502 L 394 511 L 413 518 L 419 498 L 420 476 L 417 452 L 441 466 L 441 440 L 431 413 L 442 395 L 450 370 L 442 344 L 471 346 L 466 317 L 494 319 L 490 292 L 476 266 L 497 247 L 526 247 L 517 276 L 519 304 L 542 290 L 552 265 L 572 281 L 599 286 L 618 269 L 630 299 L 648 271 L 665 247 L 700 255 L 685 219 L 717 224 L 734 257 L 756 285 L 773 316 L 796 291 L 790 262 L 765 246 L 748 220 L 745 189 L 778 201 L 795 229 L 825 230 L 816 199 L 850 203 L 886 195 L 866 170 L 832 167 L 800 172 L 767 165 L 757 131 L 722 122 L 730 157 L 711 189 L 675 186 L 690 154 L 687 120 L 671 92 L 633 97 L 608 123 L 650 134 L 646 171 L 614 162 L 583 150 L 578 185 L 614 200 L 648 212 L 623 238 L 587 254 L 587 223 L 554 237 L 553 208 L 549 155 L 533 183 L 516 212 L 482 219 L 477 183 L 505 166 L 525 131 L 504 104 L 483 79 L 501 43 L 518 70 L 545 91 L 566 119 L 585 87 L 616 62 L 650 59 L 684 55 L 712 85 L 716 48 L 746 57 L 784 43 L 776 73 L 750 95 L 788 108 L 792 141 L 822 130 L 856 140 L 861 109 L 888 90 L 920 108 L 893 130 L 900 163 L 924 187 L 957 193 L 992 189 L 987 221 L 956 240 L 980 261 L 1006 250 L 1033 246 L 1062 235 L 1068 204 L 1027 211 L 1018 175 L 1020 145 L 1015 113 L 1041 104 L 1066 87 L 1091 76 L 1122 83 L 1152 88 L 1181 105 L 1212 91 L 1210 54 L 1175 62 L 1140 50 L 1107 49 L 1074 49 L 1042 69 L 1012 80 L 1012 47 L 979 65 L 982 98 L 988 133 L 972 159 L 934 150 L 954 121 L 950 84 L 946 46 L 921 68 L 895 53 L 865 43 L 855 72 L 830 97 L 806 80 L 822 53 L 839 21 L 813 18 L 787 12 L 757 19 L 728 16 L 695 17 L 663 18 L 631 22 L 599 16 L 584 48 L 548 51 L 560 16 L 521 16 L 479 14 L 465 46 L 441 17 L 408 14 L 375 12 L 367 37 L 357 60 L 369 87 L 396 73 L 398 42 L 428 52 L 449 78 L 421 94 L 395 115 L 363 117 L 337 129 L 316 151 L 295 176 L 261 186 L 229 179 L 239 150 L 268 153 L 291 139 L 306 113 L 305 85 L 336 97 L 329 68 L 325 40 L 341 14 L 307 13 L 295 58 L 287 34 L 270 13 L 240 17 L 258 49 L 276 82 L 250 89 L 271 116 L 239 121 L 217 95 L 202 128 L 207 156 L 192 185 L 160 209 L 145 178 L 173 158 L 157 131 L 185 103 L 158 92 L 127 97 L 120 125 L 123 153 L 107 182 L 85 205 L 67 177 L 38 173 L 86 153 L 86 121 L 98 84 L 65 54 L 99 49 L 131 61 L 164 55 L 193 67 L 230 66 L 213 41 L 207 13 L 177 20 L 144 20 L 112 17 L 79 17 L 47 20 L 16 11 L 14 36 L 22 57 L 43 78 L 69 94 L 51 140 L 41 110 L 13 89 L 14 125 L 14 157 L 14 193 L 14 226 L 15 261 L 21 291 L 13 320 L 43 329 L 60 300 L 53 268 L 42 239 L 48 207 L 76 237 L 108 247 L 121 214 L 143 244 L 179 244 L 165 277 L 200 279 L 231 298 L 254 320 L 278 295 L 269 266 L 237 265 L 216 241 L 195 214 L 230 208 L 255 231 L 281 209 L 293 242 L 313 214 L 327 186 L 346 161 L 374 149 L 406 152 L 430 129 L 460 111 L 484 136 L 452 156 L 427 180 L 391 187 L 361 191 L 348 222 L 381 228 L 409 250 L 417 216 L 451 207 L 450 245 L 425 279 L 455 287 L 432 314 L 412 343 L 419 377 L 400 402 L 414 428 L 391 434 L 369 417 L 371 449 L 397 468 L 395 488 L 372 476 L 350 490 L 346 465 L 343 442 L 339 417 L 315 432 L 307 458 L 323 474 L 327 497 L 310 516 L 300 492 L 282 473 L 282 513 L 279 538 L 270 539 L 261 538 L 257 546 L 252 538 L 244 539 L 235 539 L 227 539 L 218 540 L 209 539 L 200 539 L 192 539 L 184 539 L 176 539 L 168 539 L 161 537 L 152 538 L 143 538 L 156 555 L 139 560 L 121 558 L 124 580 L 142 579 L 159 574 L 171 564 L 178 553 L 195 558 L 213 563 L 229 552 L 232 566 L 229 580 L 215 588 L 200 578 L 181 574 L 182 589 L 179 605 L 177 621 L 164 631 L 149 640 L 147 657 L 149 674 L 132 678 L 145 694 L 163 708 L 144 711 L 124 711 L 107 706 L 125 695 L 111 679 L 94 688 L 73 689 L 88 708 L 68 709 L 49 705 L 30 711 L 9 706 L 10 680 L 25 694 L 36 681 L 53 681 L 49 654 L 29 664 L 9 658 L 9 635 L 26 644 L 42 633 L 64 629 L 85 622 L 88 642 L 70 649 L 67 668 L 88 667 L 106 656 L 108 635 L 125 660 L 129 641 L 143 621 L 159 611 L 162 591 L 143 598 L 124 601 L 123 621 L 104 612 L 105 592 L 106 572 L 99 556 L 81 560 L 63 557 L 47 564 L 29 567 L 31 592 L 50 587 L 68 580 L 88 579 L 84 600 L 65 606 L 45 611 L 26 617 L 8 616 L 11 598 L 10 579 L 10 559 L 5 538 L 17 539 L 27 537 L 37 540 L 48 538 L 59 537 L 71 538 L 83 538 L 95 537 L 108 538 L 120 538 L 132 538 L 139 508 L 164 500 L 182 516 L 201 503 L 223 486 L 230 510 L 254 515 L 265 495 L 248 478 L 229 456 L 223 430 L 221 398 L 235 371 L 264 389 L 256 419 L 259 451 L 285 440 L 289 410 L 314 399 L 321 370 L 315 341 L 344 329 L 352 361 L 345 391 L 373 387 L 390 365 L 375 336 L 397 313 L 390 281 L 357 298 L 361 262 L 330 249 L 311 274 L 320 304 L 288 328 L 291 368 L 261 352 L 223 336 L 192 320 L 160 310 L 130 321 L 158 352 L 198 362 L 174 387 L 189 416 L 186 445 L 203 468 L 174 475 L 153 440 L 145 409 L 125 382 L 117 349 L 88 369 L 78 399 L 106 417 L 119 449 L 139 474 L 111 500 L 93 475 L 75 503 L 43 503 L 14 504 L 16 473 L 53 469 L 82 446 L 55 431 L 21 444 L 15 416 L 44 400 L 16 383 L 16 352 L 51 365 L 76 336 L 98 310 L 88 275 L 127 282 " stroke="black" stroke-width="3" fill="none"/> 
 </svg>