<?xml version="1.0" ?>
<!DOCTYPE svg PUBLIC "-//W3C//DTD SVG 1.1//EN" "http://www.w3.org/Graphics/SVG/1.1/DTD/svg11.dtd">
<svg width="1080" height="934" version="1.1" xmlns="http://www.w3.org/2000/svg">
<path d="M375 12 L 366 37 L 358 60 L 369 87 L 396 73 L 397 42 L 409 14 L 442 17 L 479 14 L 465 46 L 428 52 L 449 78 L 422 94 L 395 116 L 430 130 L 451 158 L 483 137 L 460 111 L 483 79 L 504 105 L 525 130 L 549 155 L 533 183 L 506 165 L 478 183 L 449 205 L 481 220 L 514 211 L 554 207 L 549 235 L 554 268 L 524 278 L 525 248 L 497 249 L 475 267 L 449 244 L 452 284 L 423 281 L 434 314 L 412 344 L 442 344 L 462 361 L 443 378 L 418 378 L 398 400 L 392 427 L 367 415 L 344 429 L 370 446 L 369 472 L 350 488 L 327 498 L 338 516 L 360 512 L 379 499 L 393 477 L 410 493 L 399 515 L 394 539 L 385 539 L 379 531 L 376 542 L 369 538 L 360 539 L 352 537 L 345 541 L 337 538 L 326 538 L 317 539 L 307 538 L 298 538 L 289 539 L 279 538 L 270 539 L 282 559 L 304 559 L 323 566 L 332 550 L 344 571 L 361 559 L 384 563 L 403 563 L 415 582 L 403 605 L 403 626 L 382 635 L 359 636 L 350 615 L 377 610 L 391 587 L 370 580 L 356 593 L 332 594 L 312 584 L 293 575 L 273 582 L 265 563 L 247 559 L 258 547 L 261 538 L 252 538 L 244 539 L 235 539 L 226 539 L 218 540 L 209 539 L 200 539 L 192 539 L 184 539 L 182 516 L 164 500 L 201 502 L 229 510 L 253 514 L 266 494 L 282 513 L 310 516 L 299 492 L 322 476 L 342 458 L 306 459 L 281 472 L 259 450 L 256 418 L 263 388 L 292 405 L 286 437 L 316 435 L 321 407 L 345 394 L 373 386 L 390 365 L 375 336 L 397 312 L 389 278 L 358 299 L 319 304 L 314 273 L 357 264 L 333 243 L 355 216 L 381 233 L 412 250 L 414 215 L 423 181 L 405 153 L 382 188 L 373 149 L 346 162 L 339 188 L 316 212 L 295 242 L 271 265 L 279 295 L 289 328 L 316 343 L 344 329 L 350 361 L 318 376 L 289 367 L 261 352 L 234 370 L 220 397 L 223 429 L 229 455 L 248 478 L 223 485 L 203 467 L 187 445 L 189 415 L 173 386 L 197 362 L 158 352 L 126 382 L 145 409 L 154 440 L 174 474 L 138 474 L 119 448 L 107 416 L 78 400 L 89 369 L 117 349 L 160 311 L 192 320 L 223 336 L 254 320 L 231 298 L 238 265 L 216 242 L 255 231 L 282 209 L 262 187 L 301 178 L 270 156 L 291 139 L 270 117 L 276 83 L 305 86 L 305 113 L 316 150 L 337 129 L 364 117 L 336 97 L 329 68 L 325 40 L 341 14 L 307 13 L 270 13 L 239 18 L 258 49 L 288 34 L 295 58 L 250 89 L 230 65 L 217 95 L 237 121 L 241 149 L 230 179 L 230 208 L 208 156 L 201 128 L 185 103 L 158 91 L 128 97 L 98 83 L 69 94 L 86 121 L 87 153 L 67 177 L 38 173 L 52 140 L 42 111 L 44 78 L 65 53 L 99 49 L 131 60 L 164 54 L 193 67 L 212 41 L 207 13 L 176 20 L 144 20 L 112 17 L 79 17 L 47 20 L 16 11 L 14 36 L 22 58 L 13 89 L 15 125 L 14 157 L 14 193 L 14 226 L 48 207 L 76 237 L 88 275 L 108 247 L 85 206 L 107 182 L 122 214 L 160 209 L 145 178 L 124 153 L 120 125 L 156 130 L 173 157 L 191 185 L 195 215 L 179 244 L 143 245 L 200 279 L 165 277 L 127 282 L 131 320 L 98 310 L 77 336 L 43 329 L 60 301 L 53 268 L 42 239 L 15 261 L 21 291 L 13 320 L 16 352 L 16 383 L 51 365 L 44 399 L 15 416 L 20 445 L 16 473 L 53 469 L 54 431 L 82 444 L 93 474 L 138 508 L 110 501 L 76 503 L 44 502 L 14 505 L 5 538 L 17 539 L 27 537 L 37 540 L 48 538 L 59 537 L 71 538 L 83 538 L 95 537 L 108 538 L 120 538 L 132 538 L 143 538 L 152 538 L 161 537 L 168 539 L 176 539 L 178 553 L 195 559 L 213 563 L 229 552 L 232 566 L 251 578 L 229 580 L 215 588 L 200 578 L 182 573 L 182 589 L 179 605 L 177 621 L 195 620 L 187 637 L 169 650 L 164 631 L 149 640 L 147 657 L 149 674 L 132 678 L 111 679 L 94 688 L 73 689 L 67 668 L 88 667 L 106 656 L 125 660 L 129 641 L 108 635 L 88 642 L 85 622 L 104 613 L 123 621 L 143 621 L 159 611 L 162 592 L 159 574 L 170 564 L 156 555 L 139 560 L 120 558 L 124 580 L 142 579 L 143 599 L 124 601 L 105 592 L 84 600 L 65 606 L 45 611 L 31 592 L 50 587 L 68 580 L 88 579 L 106 572 L 99 556 L 81 560 L 63 557 L 47 564 L 29 566 L 10 559 L 10 579 L 11 598 L 8 616 L 26 618 L 9 635 L 27 644 L 43 633 L 64 629 L 70 649 L 49 655 L 29 664 L 9 658 L 10 680 L 36 681 L 53 681 L 25 694 L 9 706 L 30 711 L 49 705 L 68 709 L 88 708 L 107 706 L 124 711 L 125 695 L 145 694 L 144 710 L 162 708 L 180 709 L 197 709 L 193 692 L 177 688 L 161 688 L 167 670 L 183 665 L 198 675 L 196 652 L 212 640 L 211 619 L 201 600 L 225 606 L 240 596 L 260 599 L 276 608 L 291 595 L 308 607 L 327 621 L 335 642 L 309 647 L 303 627 L 284 626 L 264 629 L 247 616 L 229 628 L 245 639 L 232 654 L 212 662 L 226 675 L 214 690 L 214 709 L 232 709 L 239 691 L 249 671 L 261 654 L 283 650 L 299 671 L 278 677 L 261 689 L 255 709 L 279 706 L 301 704 L 318 686 L 325 664 L 327 707 L 353 707 L 343 684 L 351 662 L 374 660 L 395 657 L 411 647 L 428 636 L 428 617 L 424 599 L 440 592 L 456 586 L 470 577 L 486 585 L 488 567 L 484 551 L 470 558 L 455 563 L 441 554 L 437 573 L 422 559 L 402 539 L 411 539 L 419 539 L 428 539 L 437 538 L 446 538 L 455 539 L 466 538 L 476 537 L 486 538 L 496 538 L 498 530 L 506 539 L 506 532 L 510 525 L 517 532 L 516 540 L 503 555 L 531 552 L 521 563 L 506 573 L 525 584 L 504 592 L 517 606 L 506 622 L 505 641 L 487 650 L 483 672 L 460 694 L 463 678 L 467 658 L 467 638 L 480 624 L 491 607 L 473 600 L 455 609 L 450 626 L 448 646 L 448 666 L 430 659 L 415 672 L 394 682 L 370 684 L 377 707 L 398 706 L 418 710 L 418 691 L 439 684 L 439 707 L 458 711 L 478 709 L 485 691 L 499 709 L 521 707 L 541 705 L 564 706 L 588 708 L 603 689 L 600 666 L 623 656 L 626 683 L 616 708 L 640 706 L 664 709 L 655 688 L 644 669 L 655 649 L 639 635 L 616 631 L 625 607 L 600 612 L 578 619 L 592 641 L 572 661 L 579 684 L 553 681 L 529 680 L 508 689 L 503 668 L 522 656 L 544 657 L 562 640 L 552 620 L 531 632 L 537 605 L 545 585 L 563 598 L 584 590 L 607 587 L 628 582 L 640 564 L 659 567 L 657 552 L 650 539 L 641 540 L 631 541 L 617 562 L 596 566 L 577 563 L 562 574 L 543 565 L 548 551 L 555 540 L 549 538 L 541 539 L 533 539 L 525 538 L 527 530 L 520 524 L 537 512 L 551 519 L 545 493 L 538 492 L 531 493 L 524 495 L 518 490 L 510 488 L 505 495 L 507 504 L 505 513 L 502 521 L 476 500 L 455 511 L 426 515 L 436 493 L 455 475 L 425 467 L 398 454 L 418 439 L 423 414 L 445 407 L 444 443 L 472 440 L 474 449 L 482 454 L 480 462 L 486 470 L 493 478 L 501 484 L 505 471 L 518 474 L 530 478 L 541 475 L 550 487 L 553 493 L 559 487 L 565 491 L 567 498 L 569 505 L 569 512 L 569 519 L 565 524 L 562 529 L 560 536 L 562 547 L 569 542 L 583 542 L 576 539 L 569 534 L 572 526 L 580 523 L 588 525 L 579 531 L 586 534 L 595 532 L 592 541 L 601 541 L 610 540 L 621 539 L 636 517 L 653 500 L 682 504 L 666 524 L 658 539 L 666 538 L 670 543 L 675 539 L 682 537 L 688 541 L 696 538 L 704 540 L 712 540 L 721 541 L 729 538 L 734 545 L 739 538 L 746 543 L 747 535 L 754 540 L 761 540 L 767 539 L 774 541 L 779 537 L 785 540 L 793 539 L 801 540 L 811 540 L 822 539 L 812 520 L 801 500 L 792 480 L 800 455 L 813 432 L 829 410 L 853 387 L 872 365 L 906 357 L 906 386 L 889 406 L 859 415 L 876 436 L 846 445 L 855 478 L 826 467 L 826 496 L 833 539 L 844 539 L 855 538 L 865 538 L 873 540 L 879 537 L 886 539 L 892 532 L 899 539 L 893 542 L 882 552 L 871 561 L 857 567 L 854 552 L 837 555 L 821 554 L 805 554 L 788 555 L 773 558 L 760 568 L 756 553 L 743 565 L 726 564 L 710 567 L 697 558 L 678 556 L 680 571 L 692 583 L 701 599 L 717 588 L 736 584 L 754 586 L 770 581 L 783 573 L 797 567 L 812 569 L 827 570 L 842 570 L 834 586 L 831 602 L 834 619 L 855 624 L 863 644 L 859 666 L 837 658 L 837 639 L 812 646 L 817 630 L 813 615 L 807 599 L 817 586 L 799 582 L 787 594 L 772 600 L 753 605 L 733 606 L 715 616 L 691 615 L 673 603 L 667 584 L 647 591 L 649 614 L 668 627 L 679 648 L 670 668 L 678 688 L 687 707 L 708 708 L 706 688 L 693 673 L 700 656 L 695 633 L 715 641 L 734 631 L 752 625 L 773 620 L 792 614 L 793 636 L 772 640 L 755 649 L 736 654 L 719 667 L 728 689 L 731 710 L 751 701 L 770 709 L 775 688 L 744 676 L 764 671 L 784 660 L 807 661 L 797 681 L 794 706 L 817 710 L 840 707 L 819 692 L 821 672 L 839 681 L 855 690 L 863 709 L 884 706 L 904 708 L 922 704 L 943 706 L 965 706 L 985 703 L 997 679 L 1014 662 L 1036 650 L 1061 646 L 1051 628 L 1069 617 L 1093 619 L 1082 637 L 1101 644 L 1114 629 L 1110 609 L 1126 611 L 1143 612 L 1153 624 L 1165 637 L 1176 652 L 1170 672 L 1161 689 L 1146 675 L 1153 658 L 1145 644 L 1134 630 L 1124 649 L 1126 669 L 1110 687 L 1102 666 L 1080 661 L 1059 672 L 1039 679 L 1019 688 L 1009 708 L 1038 707 L 1064 703 L 1083 685 L 1092 708 L 1120 709 L 1135 691 L 1146 709 L 1168 707 L 1187 709 L 1187 689 L 1191 669 L 1212 664 L 1213 686 L 1207 707 L 1229 709 L 1238 691 L 1256 706 L 1258 680 L 1257 654 L 1235 671 L 1231 653 L 1241 636 L 1260 628 L 1244 615 L 1224 615 L 1212 600 L 1206 625 L 1219 637 L 1199 647 L 1186 633 L 1173 618 L 1160 605 L 1145 596 L 1130 592 L 1114 590 L 1096 596 L 1079 600 L 1062 589 L 1047 605 L 1030 622 L 1011 610 L 1011 637 L 989 623 L 973 606 L 968 585 L 948 602 L 938 628 L 962 627 L 962 651 L 987 649 L 975 674 L 953 681 L 927 679 L 940 657 L 920 646 L 907 663 L 900 685 L 876 685 L 882 664 L 891 643 L 878 623 L 876 601 L 855 604 L 851 587 L 868 581 L 887 583 L 891 565 L 906 555 L 910 572 L 906 590 L 897 609 L 909 627 L 923 607 L 928 585 L 946 576 L 961 564 L 976 556 L 985 573 L 1001 559 L 1019 551 L 1023 568 L 1007 579 L 994 595 L 1025 593 L 1043 582 L 1039 562 L 1048 550 L 1059 566 L 1076 558 L 1079 577 L 1097 577 L 1095 558 L 1113 573 L 1128 572 L 1142 579 L 1157 588 L 1172 586 L 1178 601 L 1193 613 L 1195 595 L 1188 579 L 1205 580 L 1224 583 L 1236 597 L 1259 601 L 1261 577 L 1245 581 L 1232 566 L 1246 559 L 1261 557 L 1265 537 L 1258 539 L 1251 537 L 1244 540 L 1238 536 L 1252 512 L 1255 488 L 1252 460 L 1250 428 L 1213 434 L 1219 461 L 1224 486 L 1225 513 L 1204 508 L 1184 517 L 1188 488 L 1186 462 L 1170 439 L 1146 413 L 1190 413 L 1171 392 L 1154 366 L 1146 331 L 1155 294 L 1112 309 L 1091 279 L 1060 269 L 1066 304 L 1064 336 L 1096 340 L 1117 362 L 1118 393 L 1112 427 L 1139 450 L 1156 477 L 1164 504 L 1152 523 L 1137 504 L 1122 480 L 1102 458 L 1071 468 L 1041 476 L 1011 464 L 1010 490 L 1013 516 L 1036 506 L 1062 519 L 1066 498 L 1092 495 L 1111 512 L 1118 538 L 1125 540 L 1131 536 L 1137 539 L 1145 539 L 1152 540 L 1160 539 L 1168 539 L 1176 539 L 1183 539 L 1191 540 L 1199 538 L 1207 539 L 1215 538 L 1224 538 L 1232 540 L 1221 552 L 1213 565 L 1196 560 L 1180 554 L 1176 568 L 1159 572 L 1162 555 L 1146 561 L 1132 554 L 1115 556 L 1111 539 L 1103 539 L 1095 539 L 1087 537 L 1079 539 L 1071 539 L 1063 540 L 1055 539 L 1045 538 L 1037 539 L 1027 539 L 1018 539 L 1008 540 L 999 539 L 990 540 L 981 539 L 971 539 L 962 540 L 952 539 L 942 538 L 944 555 L 926 561 L 933 538 L 925 540 L 918 535 L 913 541 L 906 538 L 925 503 L 902 509 L 873 509 L 847 510 L 886 487 L 882 461 L 912 475 L 947 476 L 948 506 L 968 512 L 990 510 L 978 484 L 978 456 L 1006 435 L 1005 405 L 1045 405 L 1040 441 L 1074 435 L 1084 403 L 1071 372 L 1037 354 L 1021 378 L 967 393 L 973 422 L 950 441 L 926 452 L 906 435 L 932 412 L 939 376 L 932 342 L 963 348 L 988 369 L 1001 338 L 1030 317 L 1028 283 L 997 294 L 974 316 L 942 309 L 912 316 L 899 289 L 883 261 L 870 305 L 884 333 L 849 331 L 834 356 L 815 380 L 792 400 L 782 428 L 756 409 L 736 386 L 724 355 L 758 345 L 769 375 L 794 352 L 812 324 L 833 299 L 856 276 L 823 265 L 790 262 L 797 292 L 774 316 L 758 285 L 766 246 L 735 256 L 701 255 L 667 248 L 649 213 L 685 219 L 718 223 L 749 220 L 745 189 L 778 201 L 795 228 L 825 230 L 851 244 L 876 228 L 850 203 L 816 199 L 832 167 L 800 172 L 767 165 L 792 141 L 788 108 L 757 130 L 722 122 L 729 156 L 710 188 L 675 186 L 647 171 L 615 160 L 616 197 L 623 234 L 615 264 L 644 267 L 658 292 L 687 286 L 720 289 L 736 319 L 703 324 L 675 322 L 686 356 L 700 382 L 713 407 L 724 429 L 730 458 L 750 439 L 771 454 L 760 476 L 732 483 L 732 507 L 745 512 L 753 501 L 773 504 L 783 519 L 772 524 L 762 514 L 760 528 L 749 523 L 735 524 L 723 523 L 706 510 L 705 486 L 679 475 L 658 479 L 655 454 L 642 431 L 628 451 L 633 475 L 624 497 L 609 514 L 590 497 L 605 482 L 609 461 L 601 440 L 617 430 L 608 408 L 628 411 L 648 404 L 654 410 L 660 417 L 666 424 L 672 432 L 679 440 L 686 449 L 695 456 L 703 461 L 698 446 L 691 435 L 684 424 L 677 413 L 670 403 L 665 392 L 657 385 L 655 375 L 646 368 L 647 359 L 651 350 L 650 341 L 644 333 L 648 325 L 639 324 L 636 315 L 629 311 L 626 325 L 629 336 L 638 347 L 635 361 L 625 370 L 639 375 L 642 398 L 638 391 L 631 388 L 630 380 L 622 381 L 614 385 L 606 381 L 613 378 L 608 368 L 615 361 L 624 358 L 625 349 L 617 344 L 609 347 L 608 355 L 596 359 L 592 348 L 579 345 L 562 346 L 570 357 L 582 363 L 588 368 L 591 376 L 596 371 L 600 377 L 597 383 L 593 388 L 593 394 L 586 392 L 586 399 L 578 397 L 580 403 L 586 408 L 588 413 L 588 419 L 591 425 L 579 425 L 574 434 L 589 432 L 588 440 L 588 447 L 586 454 L 583 462 L 579 469 L 574 476 L 568 481 L 554 474 L 561 466 L 567 456 L 574 447 L 561 438 L 553 451 L 543 461 L 528 461 L 513 458 L 497 458 L 488 440 L 503 443 L 519 442 L 534 448 L 546 439 L 534 431 L 540 416 L 553 411 L 552 426 L 566 421 L 573 413 L 571 402 L 563 401 L 554 397 L 541 396 L 531 386 L 526 373 L 520 362 L 519 349 L 529 337 L 534 349 L 537 362 L 543 376 L 555 382 L 568 388 L 579 379 L 567 372 L 554 363 L 548 349 L 548 335 L 561 330 L 574 331 L 588 332 L 600 336 L 612 330 L 617 317 L 607 310 L 624 304 L 616 300 L 608 296 L 600 293 L 592 292 L 593 307 L 599 321 L 583 319 L 578 306 L 568 317 L 550 320 L 544 326 L 535 323 L 526 323 L 517 328 L 506 327 L 508 338 L 504 348 L 505 358 L 508 368 L 514 383 L 498 381 L 490 394 L 486 407 L 499 412 L 505 397 L 521 397 L 530 408 L 514 411 L 523 424 L 509 428 L 496 427 L 483 422 L 471 431 L 469 422 L 471 413 L 471 404 L 473 395 L 476 386 L 482 379 L 485 371 L 492 367 L 496 360 L 474 336 L 470 309 L 494 291 L 517 302 L 536 308 L 550 298 L 554 312 L 562 304 L 568 297 L 576 293 L 584 292 L 587 268 L 580 246 L 588 219 L 579 183 L 583 149 L 608 122 L 632 97 L 650 133 L 690 154 L 687 120 L 670 91 L 712 85 L 750 95 L 746 57 L 716 48 L 684 55 L 650 58 L 616 62 L 586 87 L 566 119 L 545 91 L 518 70 L 501 43 L 522 16 L 560 16 L 548 51 L 584 48 L 599 16 L 631 22 L 663 19 L 695 17 L 728 16 L 757 19 L 784 43 L 776 73 L 806 79 L 823 53 L 786 13 L 813 18 L 839 21 L 864 12 L 894 17 L 923 20 L 956 13 L 946 46 L 920 68 L 895 53 L 865 43 L 855 72 L 830 97 L 823 130 L 856 140 L 861 109 L 889 89 L 920 108 L 893 130 L 900 162 L 866 170 L 887 195 L 905 220 L 924 187 L 957 193 L 987 221 L 956 241 L 935 222 L 913 252 L 932 275 L 961 282 L 981 261 L 1006 250 L 1033 246 L 1062 235 L 1068 205 L 1053 174 L 1052 142 L 1020 145 L 1018 175 L 1027 210 L 992 189 L 971 159 L 934 150 L 954 121 L 950 84 L 979 65 L 979 36 L 995 13 L 1026 15 L 1012 47 L 1012 80 L 982 98 L 988 133 L 1014 114 L 1041 105 L 1066 86 L 1092 76 L 1122 82 L 1097 107 L 1070 118 L 1090 144 L 1092 177 L 1109 211 L 1097 242 L 1124 270 L 1143 241 L 1130 180 L 1126 150 L 1125 118 L 1159 131 L 1168 167 L 1149 206 L 1182 215 L 1218 210 L 1206 174 L 1206 135 L 1182 105 L 1213 91 L 1211 54 L 1176 63 L 1152 89 L 1141 50 L 1108 49 L 1074 49 L 1042 69 L 1044 39 L 1059 14 L 1089 17 L 1120 16 L 1151 15 L 1177 25 L 1203 14 L 1230 22 L 1256 20 L 1249 62 L 1249 103 L 1247 141 L 1249 181 L 1252 227 L 1215 251 L 1177 259 L 1203 294 L 1186 329 L 1194 368 L 1221 396 L 1252 391 L 1253 352 L 1222 347 L 1245 312 L 1249 272 " stroke="black" stroke-width="3" fill="none"/> 
 </svg>