<?xml version="1.0" ?>
<!DOCTYPE svg PUBLIC "-//W3C//DTD SVG 1.1//EN" "http://www.w3.org/Graphics/SVG/1.1/DTD/svg11.dtd">
<svg width="1080" height="934" version="1.1" xmlns="http://www.w3.org/2000/svg">
<path d="M400 13 L 400 42 L 370 18 L 341 15 L 307 12 L 325 40 L 334 68 L 363 51 L 370 84 L 401 73 L 424 95 L 459 81 L 492 97 L 515 131 L 481 135 L 449 119 L 452 159 L 417 145 L 422 185 L 388 185 L 354 192 L 362 222 L 374 260 L 396 226 L 420 256 L 403 285 L 404 314 L 417 341 L 378 333 L 366 363 L 350 392 L 338 421 L 319 405 L 290 409 L 263 390 L 254 422 L 221 432 L 188 414 L 172 385 L 162 350 L 199 364 L 221 399 L 235 371 L 258 350 L 286 366 L 311 379 L 338 364 L 315 344 L 287 330 L 277 302 L 250 317 L 221 337 L 190 319 L 159 308 L 131 320 L 127 354 L 125 385 L 147 410 L 153 441 L 140 475 L 175 475 L 186 445 L 207 467 L 238 457 L 264 454 L 286 440 L 313 439 L 320 467 L 294 472 L 266 482 L 248 501 L 230 484 L 228 515 L 204 499 L 186 514 L 164 501 L 138 508 L 110 500 L 92 475 L 75 503 L 43 503 L 53 470 L 54 432 L 82 444 L 118 451 L 110 419 L 82 401 L 46 401 L 59 372 L 92 365 L 98 332 L 97 301 L 129 281 L 145 248 L 110 245 L 89 269 L 55 266 L 43 238 L 49 207 L 77 233 L 88 200 L 121 211 L 158 211 L 193 206 L 142 180 L 110 170 L 137 143 L 171 134 L 204 133 L 175 170 L 209 171 L 244 180 L 279 192 L 257 213 L 226 207 L 220 239 L 182 242 L 174 278 L 210 271 L 221 299 L 254 276 L 256 245 L 298 282 L 320 308 L 346 330 L 364 298 L 336 275 L 334 242 L 297 254 L 289 224 L 319 211 L 325 181 L 297 172 L 317 148 L 350 159 L 381 149 L 396 114 L 364 118 L 337 128 L 337 97 L 307 84 L 305 113 L 289 139 L 266 156 L 236 149 L 239 120 L 269 117 L 278 84 L 250 87 L 219 96 L 191 91 L 161 99 L 130 107 L 103 86 L 109 48 L 138 67 L 170 58 L 203 50 L 229 62 L 260 50 L 295 58 L 288 33 L 268 13 L 237 21 L 207 15 L 175 18 L 143 23 L 112 14 L 80 20 L 77 62 L 46 78 L 49 45 L 48 14 L 15 11 L 16 35 L 16 62 L 14 93 L 15 127 L 51 139 L 40 110 L 72 105 L 101 126 L 82 150 L 67 176 L 38 173 L 14 158 L 15 194 L 14 227 L 17 261 L 11 293 L 20 323 L 38 295 L 65 300 L 63 333 L 39 352 L 11 353 L 17 383 L 15 416 L 20 445 L 16 473 L 13 505 L 6 538 L 20 539 L 33 539 L 46 538 L 58 537 L 70 538 L 82 538 L 94 537 L 106 538 L 117 537 L 128 538 L 138 538 L 146 539 L 154 537 L 161 538 L 169 539 L 176 539 L 184 539 L 192 540 L 200 539 L 189 559 L 205 557 L 209 539 L 218 540 L 226 539 L 227 553 L 216 569 L 199 578 L 200 600 L 216 590 L 231 582 L 234 567 L 247 558 L 264 562 L 280 561 L 273 581 L 252 578 L 259 598 L 274 608 L 284 625 L 289 594 L 297 576 L 296 556 L 312 559 L 323 574 L 312 592 L 324 613 L 302 613 L 299 640 L 280 651 L 260 655 L 249 671 L 239 691 L 214 690 L 226 675 L 212 662 L 196 652 L 212 640 L 229 628 L 232 654 L 245 639 L 264 630 L 248 616 L 241 597 L 225 607 L 211 619 L 195 620 L 187 638 L 169 650 L 164 632 L 177 622 L 179 605 L 182 589 L 181 574 L 168 564 L 174 552 L 157 553 L 160 577 L 145 562 L 129 562 L 114 555 L 96 556 L 89 574 L 78 558 L 60 556 L 45 563 L 66 576 L 49 586 L 63 604 L 45 611 L 26 618 L 30 593 L 29 567 L 10 558 L 10 578 L 10 598 L 8 616 L 9 635 L 27 644 L 44 633 L 65 627 L 89 625 L 88 644 L 88 667 L 111 679 L 94 688 L 73 689 L 25 694 L 36 681 L 53 681 L 67 668 L 69 648 L 49 655 L 29 664 L 9 658 L 10 680 L 9 706 L 30 711 L 49 705 L 68 709 L 88 708 L 107 706 L 124 711 L 125 695 L 132 678 L 125 660 L 106 657 L 109 636 L 130 641 L 123 622 L 124 603 L 105 612 L 83 608 L 80 590 L 102 592 L 108 573 L 123 584 L 142 580 L 143 599 L 162 593 L 159 612 L 143 621 L 149 640 L 147 657 L 149 674 L 167 670 L 183 665 L 198 675 L 177 688 L 161 688 L 145 694 L 144 711 L 162 708 L 180 709 L 193 692 L 197 709 L 214 709 L 232 709 L 254 709 L 261 689 L 278 678 L 296 671 L 314 660 L 318 684 L 279 706 L 301 703 L 327 707 L 353 707 L 343 684 L 370 684 L 377 707 L 398 706 L 394 683 L 415 672 L 430 659 L 448 666 L 439 684 L 419 692 L 418 710 L 439 707 L 458 711 L 460 694 L 463 678 L 482 673 L 485 691 L 478 709 L 498 709 L 519 707 L 539 706 L 559 706 L 552 684 L 542 660 L 528 682 L 507 689 L 502 669 L 519 659 L 503 641 L 487 650 L 467 658 L 467 639 L 479 624 L 473 602 L 454 609 L 451 626 L 448 646 L 429 636 L 412 647 L 396 658 L 377 660 L 356 662 L 336 658 L 318 637 L 340 633 L 362 636 L 385 634 L 406 626 L 377 610 L 351 612 L 336 592 L 359 592 L 370 577 L 390 587 L 402 605 L 429 616 L 423 599 L 414 582 L 435 574 L 439 593 L 455 588 L 469 582 L 485 584 L 500 590 L 515 600 L 492 606 L 504 622 L 527 617 L 525 638 L 546 636 L 564 645 L 567 667 L 585 649 L 600 665 L 582 684 L 579 707 L 600 706 L 609 685 L 632 685 L 622 707 L 644 707 L 656 688 L 647 667 L 626 659 L 610 642 L 623 624 L 641 638 L 659 649 L 669 627 L 649 614 L 648 590 L 628 602 L 627 580 L 639 563 L 615 561 L 607 540 L 595 541 L 584 537 L 576 528 L 575 541 L 564 543 L 553 545 L 542 546 L 532 535 L 529 524 L 516 527 L 501 524 L 496 538 L 504 539 L 513 542 L 522 543 L 531 546 L 524 562 L 545 570 L 560 590 L 581 602 L 581 580 L 566 565 L 591 561 L 604 583 L 605 606 L 593 625 L 570 623 L 551 613 L 538 595 L 526 581 L 508 574 L 503 556 L 491 567 L 482 553 L 473 566 L 462 554 L 454 569 L 442 555 L 422 559 L 403 563 L 384 562 L 363 558 L 346 569 L 331 555 L 334 539 L 327 538 L 320 539 L 313 538 L 305 539 L 296 537 L 288 538 L 279 539 L 270 539 L 256 544 L 244 540 L 235 539 L 252 536 L 261 538 L 270 512 L 295 501 L 316 514 L 328 493 L 357 490 L 348 469 L 346 445 L 366 418 L 376 444 L 375 470 L 400 473 L 385 495 L 381 517 L 356 511 L 340 522 L 342 539 L 350 540 L 359 538 L 367 538 L 376 539 L 385 539 L 393 540 L 401 538 L 409 540 L 416 539 L 424 537 L 430 540 L 438 538 L 447 539 L 456 539 L 465 538 L 475 539 L 485 539 L 490 532 L 484 526 L 477 524 L 478 516 L 470 518 L 468 511 L 479 501 L 492 511 L 509 512 L 524 509 L 518 495 L 504 497 L 491 497 L 481 487 L 471 479 L 473 464 L 485 470 L 496 482 L 510 480 L 517 464 L 501 467 L 505 452 L 505 436 L 495 428 L 490 440 L 489 456 L 479 447 L 467 451 L 460 452 L 458 461 L 458 469 L 458 478 L 458 486 L 463 492 L 456 497 L 465 499 L 463 505 L 451 519 L 432 511 L 407 513 L 416 492 L 436 481 L 425 460 L 404 444 L 396 416 L 384 391 L 399 364 L 421 386 L 439 359 L 461 377 L 468 402 L 445 407 L 421 417 L 437 437 L 465 441 L 470 433 L 477 426 L 484 421 L 491 417 L 491 408 L 492 399 L 495 391 L 503 385 L 510 380 L 520 380 L 527 385 L 533 380 L 538 374 L 546 369 L 552 364 L 561 363 L 567 358 L 575 362 L 583 363 L 591 365 L 599 370 L 601 376 L 608 377 L 609 385 L 614 390 L 618 381 L 645 383 L 671 373 L 698 352 L 700 385 L 726 397 L 708 422 L 684 410 L 662 402 L 648 421 L 642 416 L 635 413 L 633 406 L 624 405 L 628 411 L 627 421 L 637 425 L 649 429 L 657 427 L 663 433 L 671 437 L 674 444 L 682 445 L 688 451 L 696 458 L 690 464 L 682 460 L 674 456 L 666 453 L 660 448 L 653 446 L 647 442 L 672 477 L 651 476 L 637 463 L 641 441 L 638 435 L 634 439 L 630 434 L 624 433 L 621 428 L 616 432 L 607 449 L 622 455 L 604 470 L 599 467 L 594 462 L 589 457 L 582 454 L 578 465 L 566 471 L 554 465 L 546 460 L 553 456 L 561 459 L 568 456 L 573 452 L 578 447 L 582 440 L 575 438 L 580 433 L 587 434 L 594 434 L 600 431 L 605 427 L 610 427 L 615 424 L 610 420 L 617 416 L 617 409 L 617 402 L 617 396 L 606 399 L 609 412 L 596 422 L 573 420 L 568 406 L 557 412 L 556 396 L 569 391 L 582 392 L 588 400 L 581 404 L 581 411 L 588 416 L 595 413 L 598 407 L 596 400 L 595 388 L 587 375 L 581 382 L 571 375 L 558 380 L 546 385 L 542 397 L 543 411 L 550 424 L 562 427 L 570 432 L 562 438 L 560 447 L 549 438 L 542 449 L 534 438 L 537 425 L 527 413 L 531 405 L 524 403 L 526 394 L 513 394 L 502 402 L 513 409 L 503 416 L 513 423 L 523 430 L 518 444 L 528 453 L 533 465 L 541 476 L 555 479 L 567 486 L 582 489 L 577 477 L 588 474 L 594 485 L 594 498 L 583 502 L 571 498 L 563 508 L 551 510 L 557 496 L 546 490 L 525 478 L 531 490 L 538 501 L 541 513 L 538 526 L 546 529 L 553 525 L 561 526 L 567 520 L 574 514 L 587 514 L 590 528 L 597 521 L 602 513 L 604 506 L 607 498 L 607 490 L 606 483 L 603 476 L 615 476 L 633 489 L 633 495 L 636 501 L 640 496 L 646 499 L 647 492 L 641 488 L 637 482 L 643 479 L 648 484 L 655 483 L 656 489 L 653 496 L 652 503 L 656 508 L 654 514 L 648 509 L 647 517 L 641 513 L 642 505 L 636 508 L 628 503 L 620 503 L 612 505 L 623 523 L 619 540 L 630 541 L 641 540 L 650 540 L 659 539 L 667 539 L 674 540 L 681 539 L 688 540 L 696 540 L 704 540 L 712 540 L 720 539 L 728 538 L 735 542 L 740 538 L 746 543 L 748 535 L 754 540 L 761 540 L 767 539 L 774 540 L 773 558 L 757 553 L 759 568 L 742 564 L 727 571 L 722 555 L 709 569 L 697 558 L 692 583 L 681 571 L 677 556 L 659 553 L 659 568 L 668 584 L 673 603 L 691 615 L 695 633 L 681 648 L 671 667 L 678 688 L 667 708 L 688 707 L 708 708 L 706 688 L 693 674 L 701 656 L 716 641 L 715 616 L 734 631 L 752 624 L 753 605 L 733 606 L 701 599 L 717 589 L 737 586 L 754 586 L 770 581 L 783 573 L 799 583 L 787 593 L 772 600 L 773 619 L 792 613 L 792 634 L 772 640 L 754 646 L 736 654 L 720 667 L 727 689 L 731 710 L 749 700 L 766 709 L 772 687 L 745 676 L 764 666 L 785 657 L 793 677 L 805 693 L 789 707 L 815 710 L 829 693 L 820 676 L 810 661 L 807 645 L 818 633 L 839 639 L 833 657 L 842 676 L 852 693 L 840 710 L 864 710 L 886 708 L 905 708 L 925 705 L 944 705 L 965 706 L 986 703 L 1009 709 L 1022 692 L 1034 676 L 1011 661 L 999 681 L 977 674 L 954 681 L 930 678 L 909 686 L 890 681 L 874 693 L 865 676 L 857 658 L 864 640 L 881 660 L 906 661 L 890 641 L 909 628 L 922 646 L 942 656 L 962 651 L 987 648 L 1010 636 L 989 622 L 963 627 L 938 627 L 949 602 L 923 607 L 928 585 L 947 577 L 970 584 L 973 605 L 996 595 L 989 575 L 995 556 L 975 561 L 959 561 L 942 556 L 926 562 L 910 572 L 887 583 L 906 590 L 897 609 L 878 621 L 876 600 L 868 581 L 851 587 L 855 604 L 854 622 L 834 619 L 831 602 L 812 616 L 807 599 L 817 586 L 834 586 L 842 570 L 827 570 L 812 569 L 797 567 L 788 555 L 805 554 L 821 554 L 837 555 L 854 553 L 857 568 L 871 561 L 882 552 L 891 565 L 906 555 L 893 542 L 899 539 L 906 538 L 913 541 L 918 536 L 925 540 L 934 539 L 943 538 L 953 539 L 964 539 L 975 540 L 987 540 L 998 539 L 1008 540 L 1017 540 L 1027 540 L 1037 539 L 1046 539 L 1055 539 L 1049 553 L 1060 567 L 1062 589 L 1079 577 L 1076 558 L 1095 558 L 1097 577 L 1114 592 L 1098 595 L 1081 598 L 1068 610 L 1052 621 L 1041 603 L 1043 581 L 1038 564 L 1022 562 L 1008 573 L 1022 589 L 1013 610 L 1031 625 L 1033 648 L 1058 641 L 1077 629 L 1092 617 L 1110 611 L 1104 634 L 1088 646 L 1073 662 L 1052 663 L 1059 687 L 1095 669 L 1109 656 L 1127 646 L 1120 627 L 1137 628 L 1147 643 L 1154 658 L 1170 672 L 1188 689 L 1191 668 L 1176 652 L 1166 637 L 1155 624 L 1143 611 L 1127 609 L 1130 590 L 1144 596 L 1157 588 L 1171 586 L 1161 605 L 1174 618 L 1186 633 L 1199 647 L 1212 664 L 1213 686 L 1235 671 L 1231 653 L 1219 637 L 1206 625 L 1193 613 L 1178 601 L 1195 595 L 1187 581 L 1193 565 L 1202 554 L 1190 540 L 1181 539 L 1179 554 L 1174 568 L 1159 571 L 1143 578 L 1129 571 L 1113 574 L 1115 558 L 1132 554 L 1145 561 L 1161 555 L 1172 539 L 1163 539 L 1155 539 L 1146 540 L 1139 539 L 1132 538 L 1125 539 L 1118 541 L 1114 534 L 1109 541 L 1103 537 L 1095 539 L 1087 537 L 1079 540 L 1071 539 L 1063 540 L 1066 519 L 1069 497 L 1095 496 L 1119 508 L 1144 515 L 1168 510 L 1152 486 L 1125 479 L 1103 459 L 1069 468 L 1038 478 L 1042 508 L 1018 511 L 1003 494 L 984 515 L 956 509 L 929 504 L 904 507 L 892 532 L 886 539 L 879 538 L 872 539 L 864 538 L 855 539 L 844 539 L 833 539 L 822 539 L 811 540 L 800 540 L 791 539 L 783 541 L 781 533 L 772 524 L 760 528 L 761 514 L 746 513 L 749 524 L 735 525 L 723 520 L 735 508 L 729 488 L 708 494 L 699 515 L 676 521 L 676 502 L 689 489 L 700 466 L 707 469 L 719 448 L 741 430 L 764 452 L 740 467 L 768 480 L 753 501 L 772 506 L 784 519 L 807 523 L 799 495 L 792 466 L 822 469 L 825 502 L 849 509 L 874 510 L 884 487 L 913 472 L 947 477 L 977 486 L 974 456 L 960 429 L 936 448 L 909 434 L 891 406 L 906 381 L 877 363 L 855 386 L 858 415 L 877 436 L 881 461 L 853 478 L 843 446 L 827 413 L 807 438 L 776 427 L 793 401 L 818 380 L 838 354 L 862 332 L 867 305 L 866 272 L 835 298 L 817 325 L 799 350 L 773 371 L 756 400 L 737 364 L 727 331 L 719 299 L 716 268 L 696 244 L 752 269 L 758 301 L 767 334 L 795 299 L 789 265 L 826 266 L 826 231 L 798 230 L 767 235 L 737 236 L 721 211 L 747 195 L 780 201 L 816 199 L 802 168 L 836 168 L 823 132 L 793 74 L 775 44 L 752 70 L 761 100 L 795 107 L 785 137 L 767 166 L 732 160 L 748 132 L 723 107 L 699 147 L 704 179 L 690 205 L 669 224 L 610 234 L 591 266 L 560 284 L 600 301 L 623 328 L 647 305 L 627 276 L 651 252 L 677 280 L 687 316 L 662 339 L 637 357 L 612 357 L 591 334 L 566 317 L 544 338 L 530 359 L 513 344 L 487 360 L 466 339 L 442 317 L 444 284 L 477 267 L 480 299 L 496 323 L 531 313 L 518 286 L 506 250 L 540 253 L 569 237 L 576 204 L 534 212 L 495 216 L 459 239 L 429 220 L 460 198 L 490 174 L 524 173 L 558 169 L 594 171 L 618 194 L 641 214 L 662 178 L 627 154 L 658 138 L 687 117 L 654 96 L 652 58 L 616 72 L 622 113 L 589 136 L 583 100 L 569 69 L 552 131 L 538 94 L 513 65 L 481 50 L 438 52 L 434 17 L 471 17 L 512 18 L 542 46 L 557 16 L 591 44 L 597 13 L 628 25 L 658 18 L 688 47 L 689 83 L 719 64 L 689 15 L 721 17 L 742 37 L 763 13 L 800 13 L 838 17 L 808 42 L 831 59 L 861 75 L 828 95 L 860 111 L 858 142 L 875 171 L 913 178 L 895 137 L 920 110 L 890 94 L 895 52 L 863 42 L 876 14 L 911 18 L 948 12 L 938 45 L 919 73 L 950 82 L 978 63 L 973 32 L 993 13 L 1010 47 L 1026 15 L 1060 14 L 1044 41 L 1044 71 L 1012 81 L 981 100 L 954 119 L 981 145 L 935 148 L 958 176 L 940 204 L 913 224 L 884 205 L 850 201 L 854 238 L 883 240 L 905 261 L 896 297 L 901 339 L 923 317 L 949 307 L 957 340 L 962 373 L 930 362 L 934 404 L 977 402 L 1000 432 L 1009 464 L 1038 440 L 1075 435 L 1084 404 L 1049 401 L 1016 400 L 997 370 L 1034 360 L 1074 366 L 1112 385 L 1117 352 L 1098 325 L 1062 328 L 1029 317 L 999 337 L 982 309 L 1008 285 L 1049 284 L 1082 286 L 1119 292 L 1151 319 L 1155 358 L 1197 327 L 1198 290 L 1155 278 L 1147 242 L 1108 249 L 1098 208 L 1059 208 L 1068 244 L 1032 253 L 1003 240 L 981 259 L 962 279 L 930 277 L 946 242 L 977 216 L 995 184 L 1024 214 L 1029 178 L 1067 176 L 1094 157 L 1081 124 L 1053 143 L 1018 146 L 1008 116 L 1040 109 L 1067 95 L 1083 72 L 1076 45 L 1093 17 L 1124 17 L 1158 17 L 1190 20 L 1223 20 L 1253 23 L 1250 69 L 1211 60 L 1174 60 L 1142 49 L 1111 55 L 1142 88 L 1105 93 L 1118 121 L 1133 148 L 1123 179 L 1140 206 L 1178 210 L 1167 166 L 1160 125 L 1183 98 L 1220 99 L 1250 119 L 1205 137 L 1206 177 L 1247 164 L 1252 209 L 1218 215 L 1194 251 L 1244 253 L 1244 292 L 1248 329 L 1224 359 L 1255 373 L 1238 401 L 1251 429 L 1249 460 L 1256 488 L 1249 510 L 1221 513 L 1226 485 L 1212 463 L 1210 435 L 1203 404 L 1193 367 L 1171 392 L 1141 402 L 1115 426 L 1142 450 L 1169 428 L 1176 459 L 1184 485 L 1202 499 L 1190 518 L 1198 539 L 1206 539 L 1215 538 L 1223 538 L 1232 539 L 1239 541 L 1239 533 L 1247 539 L 1254 537 L 1265 535 L 1261 541 L 1261 557 L 1247 560 L 1234 570 L 1230 555 L 1217 549 L 1215 566 L 1205 580 L 1212 601 L 1223 584 L 1237 598 L 1246 582 L 1261 577 L 1259 601 L 1244 615 L 1224 615 L 1241 636 L 1260 628 L 1257 654 L 1258 680 L 1256 706 L 1238 691 L 1229 709 L 1207 707 L 1187 709 L 1170 706 L 1161 689 L 1150 709 L 1136 691 L 1146 675 L 1128 667 L 1113 684 L 1125 708 L 1101 707 L 1085 687 L 1073 708 L 1043 707 " stroke="black" stroke-width="3" fill="none"/> 
 </svg>