<?xml version="1.0" ?>
<!DOCTYPE svg PUBLIC "-//W3C//DTD SVG 1.1//EN" "http://www.w3.org/Graphics/SVG/1.1/DTD/svg11.dtd">
<svg width="1080" height="934" version="1.1" xmlns="http://www.w3.org/2000/svg">
<path d="M864 12 L 894 17 L 923 20 L 956 13 L 946 46 L 920 68 L 895 53 L 865 43 L 855 72 L 830 97 L 823 130 L 792 141 L 832 167 L 816 199 L 800 172 L 767 165 L 745 189 L 749 220 L 778 201 L 794 228 L 791 261 L 766 246 L 735 257 L 758 284 L 774 315 L 797 291 L 824 266 L 832 301 L 808 324 L 797 355 L 828 372 L 841 339 L 868 362 L 860 389 L 857 417 L 844 446 L 824 470 L 854 479 L 870 509 L 885 487 L 880 462 L 876 437 L 892 410 L 902 385 L 905 356 L 883 333 L 865 311 L 858 279 L 895 290 L 912 316 L 943 310 L 974 316 L 961 282 L 930 276 L 914 253 L 883 260 L 851 245 L 825 231 L 850 203 L 875 227 L 887 195 L 866 170 L 856 140 L 861 109 L 889 89 L 920 108 L 893 130 L 900 162 L 924 187 L 905 221 L 935 222 L 955 241 L 981 261 L 1006 250 L 1033 246 L 1062 235 L 1068 205 L 1053 174 L 1052 142 L 1041 105 L 1014 114 L 1020 145 L 1018 175 L 1027 210 L 987 221 L 992 189 L 957 193 L 971 159 L 988 133 L 934 150 L 954 121 L 950 84 L 982 98 L 1012 80 L 979 65 L 979 36 L 995 13 L 1012 47 L 1026 15 L 1059 14 L 1089 17 L 1120 16 L 1151 15 L 1177 25 L 1203 14 L 1230 22 L 1256 20 L 1249 62 L 1211 54 L 1176 63 L 1141 50 L 1108 49 L 1074 49 L 1044 39 L 1042 69 L 1066 86 L 1092 76 L 1122 82 L 1152 89 L 1159 131 L 1168 167 L 1206 135 L 1182 105 L 1213 91 L 1249 103 L 1247 141 L 1249 181 L 1206 174 L 1218 210 L 1182 215 L 1149 206 L 1130 180 L 1126 150 L 1125 118 L 1097 107 L 1070 118 L 1090 144 L 1092 177 L 1109 211 L 1097 242 L 1060 269 L 1091 279 L 1112 309 L 1124 270 L 1143 241 L 1155 294 L 1146 331 L 1154 366 L 1117 362 L 1118 393 L 1146 413 L 1112 427 L 1102 458 L 1122 480 L 1156 477 L 1164 504 L 1152 523 L 1137 504 L 1111 512 L 1092 495 L 1066 498 L 1062 519 L 1036 506 L 1013 516 L 1010 490 L 1011 464 L 1006 435 L 1041 476 L 1071 468 L 1074 435 L 1040 441 L 1045 405 L 1084 403 L 1071 372 L 1096 340 L 1064 336 L 1066 304 L 1028 283 L 997 294 L 1030 317 L 1001 338 L 1037 354 L 1021 378 L 1005 405 L 966 392 L 988 369 L 962 349 L 932 342 L 937 377 L 932 412 L 973 422 L 950 441 L 927 452 L 906 437 L 911 475 L 947 476 L 978 456 L 978 484 L 990 510 L 968 512 L 948 506 L 925 503 L 901 509 L 892 532 L 885 539 L 879 536 L 873 540 L 864 539 L 855 537 L 852 545 L 838 555 L 822 553 L 806 553 L 798 567 L 813 567 L 827 569 L 842 572 L 855 564 L 870 560 L 882 552 L 890 565 L 887 583 L 868 580 L 852 587 L 855 604 L 852 623 L 830 624 L 832 606 L 834 589 L 817 585 L 809 600 L 810 619 L 792 614 L 788 594 L 800 583 L 783 573 L 771 581 L 754 586 L 760 568 L 743 565 L 756 553 L 773 558 L 789 555 L 783 541 L 775 540 L 768 539 L 761 540 L 754 539 L 746 542 L 739 538 L 747 534 L 744 512 L 732 505 L 735 523 L 723 523 L 708 508 L 686 505 L 664 511 L 642 496 L 638 518 L 617 507 L 594 499 L 609 483 L 633 475 L 611 460 L 629 449 L 615 431 L 616 410 L 629 401 L 641 428 L 655 454 L 660 482 L 680 475 L 708 483 L 697 458 L 686 450 L 694 443 L 724 452 L 737 476 L 742 430 L 715 419 L 704 388 L 692 361 L 678 337 L 680 308 L 707 328 L 729 359 L 735 393 L 762 407 L 783 427 L 762 451 L 767 477 L 753 501 L 761 513 L 750 523 L 762 528 L 774 522 L 773 505 L 790 516 L 782 532 L 791 539 L 799 540 L 809 539 L 819 539 L 831 539 L 842 539 L 843 507 L 817 504 L 795 486 L 795 457 L 814 433 L 828 407 L 796 394 L 766 375 L 762 344 L 738 320 L 720 292 L 691 280 L 662 281 L 635 279 L 618 297 L 611 292 L 602 291 L 593 289 L 585 291 L 576 291 L 569 296 L 563 301 L 557 308 L 568 318 L 570 335 L 582 345 L 588 332 L 582 320 L 580 306 L 594 303 L 608 307 L 596 317 L 607 323 L 616 332 L 602 335 L 597 347 L 589 360 L 587 373 L 596 368 L 601 375 L 608 368 L 603 357 L 621 367 L 642 370 L 642 353 L 631 358 L 622 356 L 615 354 L 616 346 L 624 343 L 631 349 L 640 337 L 630 334 L 628 323 L 618 315 L 626 302 L 632 309 L 643 309 L 640 319 L 648 325 L 650 334 L 652 344 L 653 354 L 651 364 L 659 375 L 656 391 L 667 388 L 673 401 L 680 415 L 687 429 L 678 439 L 671 429 L 664 420 L 659 412 L 653 407 L 648 400 L 643 394 L 641 387 L 635 382 L 633 375 L 625 379 L 616 378 L 609 377 L 605 384 L 600 388 L 597 393 L 592 385 L 580 380 L 570 384 L 564 374 L 575 366 L 571 353 L 558 349 L 544 345 L 540 330 L 554 334 L 551 325 L 554 317 L 548 313 L 540 312 L 532 314 L 523 299 L 540 286 L 551 266 L 578 255 L 607 259 L 641 252 L 670 247 L 703 253 L 718 222 L 686 218 L 649 212 L 619 230 L 586 222 L 615 196 L 615 160 L 608 122 L 632 97 L 670 91 L 687 120 L 690 154 L 650 133 L 647 171 L 675 186 L 710 188 L 729 156 L 722 122 L 712 85 L 684 55 L 716 48 L 746 57 L 784 43 L 776 73 L 750 95 L 757 130 L 788 108 L 806 79 L 823 53 L 839 21 L 813 18 L 786 13 L 757 19 L 728 16 L 695 17 L 663 19 L 650 58 L 631 22 L 599 16 L 584 48 L 616 62 L 586 86 L 548 51 L 560 16 L 522 16 L 501 43 L 518 70 L 545 91 L 525 130 L 504 105 L 483 79 L 465 46 L 479 14 L 442 17 L 428 52 L 449 78 L 422 94 L 396 73 L 397 42 L 409 14 L 375 12 L 366 37 L 358 60 L 369 87 L 364 117 L 395 116 L 405 153 L 423 181 L 451 158 L 429 130 L 460 111 L 483 137 L 506 165 L 478 182 L 449 205 L 414 215 L 412 249 L 381 233 L 355 216 L 339 188 L 382 188 L 373 149 L 346 162 L 316 150 L 301 178 L 316 212 L 333 243 L 357 264 L 389 277 L 357 299 L 314 273 L 319 304 L 316 343 L 344 329 L 350 362 L 374 337 L 395 311 L 408 342 L 434 352 L 461 363 L 459 336 L 431 315 L 464 307 L 451 281 L 422 280 L 450 243 L 481 218 L 515 210 L 534 182 L 549 155 L 566 119 L 583 149 L 579 184 L 554 206 L 551 235 L 524 246 L 513 275 L 494 245 L 477 268 L 490 293 L 504 308 L 484 328 L 507 338 L 515 335 L 510 329 L 517 324 L 524 318 L 528 328 L 527 341 L 533 351 L 540 362 L 555 364 L 543 377 L 554 385 L 564 392 L 573 395 L 581 395 L 589 395 L 587 401 L 590 408 L 592 415 L 590 422 L 591 429 L 592 437 L 591 445 L 581 451 L 590 453 L 588 461 L 581 463 L 584 470 L 574 470 L 577 478 L 568 478 L 569 485 L 569 492 L 571 500 L 571 508 L 569 517 L 565 524 L 572 525 L 579 521 L 585 524 L 593 523 L 594 531 L 587 533 L 579 532 L 570 533 L 562 532 L 547 520 L 552 506 L 532 507 L 530 524 L 524 528 L 516 530 L 521 521 L 512 522 L 508 514 L 509 506 L 508 498 L 506 490 L 513 486 L 521 488 L 529 490 L 537 490 L 545 490 L 553 489 L 560 486 L 555 475 L 544 476 L 533 473 L 522 474 L 526 458 L 535 447 L 534 431 L 524 423 L 541 417 L 555 422 L 547 436 L 553 450 L 542 461 L 557 464 L 567 457 L 569 445 L 562 435 L 578 435 L 571 423 L 578 411 L 565 409 L 552 406 L 544 396 L 531 406 L 532 388 L 527 373 L 514 383 L 520 397 L 505 397 L 502 412 L 515 411 L 509 428 L 519 442 L 501 442 L 507 454 L 513 463 L 510 474 L 493 458 L 489 436 L 494 425 L 485 414 L 491 403 L 491 391 L 498 382 L 502 372 L 508 361 L 514 368 L 523 357 L 509 353 L 509 345 L 501 351 L 495 357 L 489 363 L 485 371 L 481 378 L 477 386 L 470 394 L 477 397 L 473 405 L 471 415 L 474 423 L 470 430 L 476 437 L 474 445 L 481 450 L 483 459 L 490 469 L 497 475 L 504 482 L 486 491 L 482 512 L 464 497 L 472 474 L 452 470 L 445 443 L 419 438 L 422 411 L 447 413 L 442 385 L 416 378 L 389 365 L 372 386 L 397 400 L 392 427 L 370 447 L 342 458 L 350 488 L 369 475 L 393 476 L 398 454 L 424 467 L 436 492 L 416 513 L 409 492 L 384 501 L 384 522 L 361 511 L 337 516 L 326 498 L 324 476 L 306 459 L 299 491 L 281 471 L 248 478 L 265 494 L 282 512 L 309 515 L 313 539 L 323 538 L 331 545 L 336 537 L 344 539 L 352 538 L 360 539 L 368 538 L 377 539 L 386 539 L 395 540 L 401 536 L 408 540 L 417 539 L 425 535 L 429 541 L 438 538 L 449 515 L 448 538 L 458 539 L 469 538 L 481 538 L 503 523 L 509 531 L 500 531 L 492 538 L 484 551 L 470 557 L 455 563 L 442 554 L 437 573 L 440 592 L 428 617 L 425 599 L 415 582 L 423 560 L 404 563 L 387 565 L 369 580 L 370 559 L 350 558 L 343 575 L 324 565 L 304 559 L 302 538 L 292 539 L 281 538 L 271 539 L 262 538 L 258 546 L 252 538 L 253 514 L 229 510 L 223 485 L 229 455 L 223 429 L 263 388 L 256 418 L 259 450 L 286 437 L 292 405 L 321 408 L 317 435 L 344 430 L 367 415 L 345 394 L 318 376 L 289 367 L 261 352 L 234 370 L 220 397 L 189 415 L 187 445 L 174 474 L 203 468 L 201 502 L 182 516 L 164 500 L 138 508 L 138 474 L 119 448 L 154 440 L 145 409 L 126 382 L 158 352 L 173 386 L 197 362 L 223 336 L 192 320 L 160 311 L 131 321 L 116 349 L 98 310 L 127 282 L 143 245 L 179 245 L 165 277 L 200 279 L 231 298 L 254 320 L 288 328 L 279 295 L 271 265 L 295 242 L 282 209 L 262 187 L 230 179 L 230 208 L 255 231 L 238 265 L 216 242 L 195 215 L 191 185 L 173 157 L 208 156 L 241 149 L 270 156 L 291 139 L 305 113 L 337 129 L 336 97 L 329 68 L 325 40 L 341 14 L 307 13 L 295 58 L 288 34 L 270 13 L 239 18 L 258 49 L 250 89 L 276 83 L 305 86 L 270 117 L 237 121 L 217 95 L 201 128 L 185 103 L 156 130 L 158 91 L 128 97 L 98 83 L 69 94 L 86 121 L 120 125 L 124 153 L 145 178 L 160 209 L 122 214 L 107 182 L 85 206 L 76 238 L 108 247 L 88 275 L 52 269 L 42 239 L 48 208 L 67 177 L 87 153 L 52 140 L 42 111 L 44 78 L 65 53 L 99 49 L 131 60 L 164 54 L 193 67 L 230 65 L 212 41 L 207 13 L 176 20 L 144 20 L 112 17 L 79 17 L 47 20 L 16 11 L 14 36 L 22 58 L 13 89 L 15 125 L 14 157 L 38 173 L 14 194 L 14 227 L 15 262 L 20 295 L 59 301 L 42 331 L 13 329 L 17 365 L 52 365 L 77 336 L 89 370 L 107 415 L 76 400 L 42 398 L 13 402 L 18 436 L 53 430 L 52 468 L 82 444 L 93 474 L 110 500 L 75 502 L 43 502 L 17 469 L 14 502 L 5 538 L 17 539 L 27 537 L 37 540 L 48 538 L 59 537 L 71 538 L 83 538 L 95 537 L 108 538 L 120 538 L 132 538 L 143 538 L 152 538 L 161 537 L 168 539 L 176 539 L 184 539 L 192 539 L 200 539 L 209 539 L 218 540 L 226 539 L 235 539 L 244 539 L 229 552 L 232 566 L 213 563 L 202 579 L 195 559 L 182 574 L 183 589 L 180 605 L 178 621 L 187 638 L 160 611 L 162 592 L 159 574 L 171 564 L 178 553 L 156 555 L 139 560 L 120 558 L 124 580 L 142 579 L 143 599 L 124 601 L 123 621 L 143 621 L 129 641 L 125 660 L 108 635 L 106 656 L 111 679 L 94 688 L 88 667 L 67 668 L 70 649 L 88 642 L 85 622 L 104 613 L 105 592 L 84 600 L 65 606 L 68 580 L 88 579 L 106 572 L 99 556 L 81 560 L 63 557 L 47 564 L 29 566 L 10 559 L 10 579 L 50 587 L 31 592 L 11 598 L 8 616 L 26 617 L 45 611 L 64 629 L 49 655 L 29 664 L 27 644 L 43 633 L 9 635 L 9 658 L 10 680 L 36 681 L 53 681 L 73 689 L 25 694 L 9 706 L 30 711 L 49 705 L 68 709 L 88 708 L 107 706 L 124 711 L 125 695 L 132 678 L 149 674 L 147 657 L 149 640 L 164 631 L 169 650 L 167 670 L 183 665 L 196 652 L 213 640 L 198 621 L 201 601 L 217 593 L 229 581 L 216 620 L 231 611 L 242 598 L 261 599 L 251 579 L 247 559 L 265 562 L 272 581 L 283 559 L 293 576 L 288 597 L 277 613 L 280 633 L 255 622 L 236 633 L 233 654 L 213 662 L 227 674 L 214 690 L 198 675 L 193 692 L 177 688 L 161 688 L 145 694 L 144 710 L 162 708 L 180 709 L 197 709 L 214 709 L 232 708 L 255 709 L 279 706 L 302 703 L 319 685 L 323 663 L 306 644 L 298 669 L 280 679 L 262 689 L 239 690 L 253 669 L 256 647 L 277 654 L 300 622 L 309 604 L 312 583 L 332 595 L 326 621 L 349 616 L 356 595 L 377 610 L 391 588 L 404 605 L 403 626 L 382 636 L 359 637 L 335 643 L 349 663 L 346 687 L 330 708 L 360 708 L 372 685 L 373 661 L 394 659 L 410 647 L 428 636 L 448 646 L 450 626 L 455 609 L 472 600 L 456 586 L 470 577 L 488 567 L 487 585 L 504 592 L 506 573 L 503 555 L 504 539 L 514 540 L 523 537 L 531 533 L 535 539 L 528 544 L 522 562 L 541 564 L 548 548 L 542 539 L 550 538 L 557 539 L 565 540 L 574 541 L 582 541 L 591 541 L 600 541 L 610 540 L 621 539 L 631 541 L 641 540 L 650 539 L 659 538 L 667 539 L 675 540 L 681 536 L 687 540 L 696 538 L 704 539 L 712 540 L 721 541 L 729 538 L 734 545 L 726 564 L 710 567 L 696 558 L 677 556 L 680 571 L 692 583 L 701 599 L 717 588 L 736 584 L 733 606 L 715 616 L 691 615 L 673 603 L 667 584 L 659 567 L 659 551 L 640 564 L 618 562 L 597 566 L 579 564 L 561 558 L 563 577 L 544 584 L 524 583 L 518 606 L 537 605 L 531 632 L 522 656 L 544 657 L 562 640 L 572 661 L 579 684 L 553 681 L 529 680 L 503 668 L 507 689 L 485 691 L 483 672 L 487 650 L 505 641 L 506 622 L 491 607 L 480 624 L 467 638 L 467 658 L 463 678 L 439 684 L 448 666 L 430 659 L 415 672 L 396 685 L 387 707 L 411 709 L 420 692 L 436 708 L 457 711 L 460 694 L 478 709 L 499 709 L 520 707 L 541 705 L 564 706 L 588 708 L 603 689 L 600 666 L 626 683 L 616 708 L 640 706 L 664 709 L 655 688 L 644 669 L 623 656 L 616 631 L 625 607 L 600 612 L 592 641 L 578 619 L 552 620 L 563 600 L 584 590 L 607 587 L 628 582 L 647 591 L 649 614 L 639 635 L 655 649 L 668 627 L 695 633 L 679 648 L 670 668 L 678 688 L 687 707 L 708 708 L 706 688 L 693 673 L 700 656 L 715 641 L 734 631 L 752 625 L 754 605 L 772 600 L 773 620 L 772 640 L 756 649 L 736 654 L 719 667 L 728 689 L 731 710 L 751 701 L 770 709 L 776 688 L 744 676 L 763 671 L 783 661 L 793 637 L 798 681 L 794 706 L 817 710 L 819 692 L 820 671 L 807 657 L 816 640 L 839 641 L 837 658 L 859 665 L 864 643 L 877 623 L 876 600 L 897 609 L 906 590 L 928 585 L 946 576 L 968 585 L 948 602 L 923 607 L 937 628 L 940 657 L 962 651 L 962 627 L 973 606 L 989 623 L 987 649 L 975 674 L 953 681 L 927 679 L 900 685 L 907 663 L 920 646 L 909 627 L 891 642 L 882 663 L 876 685 L 855 689 L 839 681 L 840 707 L 863 709 L 884 706 L 904 708 L 922 704 L 943 706 L 965 706 L 985 703 L 1009 708 L 1019 688 L 997 679 L 1014 662 L 1011 637 L 1030 622 L 1047 605 L 1011 610 L 994 595 L 1007 579 L 1025 593 L 1043 582 L 1062 589 L 1079 577 L 1097 577 L 1113 573 L 1128 572 L 1142 579 L 1146 561 L 1132 554 L 1115 556 L 1095 558 L 1076 558 L 1059 566 L 1048 550 L 1039 562 L 1023 568 L 1019 551 L 1001 559 L 985 573 L 976 556 L 961 564 L 944 555 L 926 561 L 910 572 L 906 555 L 893 541 L 899 539 L 906 538 L 913 541 L 918 535 L 925 540 L 933 538 L 942 538 L 952 539 L 962 540 L 972 539 L 981 539 L 990 540 L 999 539 L 1008 540 L 1018 539 L 1027 539 L 1037 539 L 1046 538 L 1055 539 L 1063 540 L 1071 539 L 1079 539 L 1087 537 L 1095 539 L 1103 539 L 1111 539 L 1118 538 L 1125 540 L 1131 536 L 1137 539 L 1145 539 L 1152 540 L 1160 539 L 1168 539 L 1180 554 L 1196 560 L 1188 579 L 1176 568 L 1162 555 L 1159 572 L 1172 586 L 1157 588 L 1145 596 L 1130 592 L 1114 590 L 1096 596 L 1079 600 L 1069 617 L 1051 628 L 1061 646 L 1036 650 L 1058 672 L 1039 679 L 1038 707 L 1064 703 L 1092 708 L 1083 685 L 1080 661 L 1102 666 L 1110 687 L 1126 669 L 1124 649 L 1101 644 L 1082 637 L 1093 619 L 1114 629 L 1110 609 L 1126 611 L 1143 612 L 1160 605 L 1173 618 L 1178 601 L 1195 595 L 1212 600 L 1193 613 L 1206 625 L 1219 637 L 1231 653 L 1235 671 L 1213 686 L 1187 689 L 1161 689 L 1170 672 L 1191 669 L 1212 664 L 1199 647 L 1186 633 L 1176 652 L 1165 637 L 1153 624 L 1134 630 L 1145 644 L 1153 658 L 1146 675 L 1135 691 L 1120 709 L 1146 709 L 1168 707 L 1187 709 L 1207 707 L 1229 709 L 1238 691 L 1256 706 L 1258 680 L 1257 654 L 1260 628 L 1259 601 L 1261 577 L 1245 581 L 1236 597 L 1244 615 L 1241 636 L 1224 615 L 1224 583 L 1205 580 L 1213 565 L 1221 552 L 1232 566 L 1246 559 L 1261 557 L 1265 537 L 1258 539 L 1251 537 L 1244 540 L 1238 536 L 1232 540 L 1224 538 L 1215 538 L 1207 539 L 1199 538 L 1191 540 L 1183 539 L 1176 539 L 1184 517 L 1204 508 L 1225 513 L 1252 512 L 1255 488 L 1252 460 L 1250 428 L 1213 434 L 1219 461 L 1224 486 L 1188 488 L 1186 462 L 1139 450 L 1170 439 L 1190 413 L 1171 392 L 1194 368 L 1221 396 L 1252 391 L 1253 352 L 1222 347 L 1186 329 L 1203 294 L 1177 259 L 1215 251 L 1252 227 L 1249 272 L 1245 312 " stroke="black" stroke-width="3" fill="none"/> 
 </svg>