<?xml version="1.0" ?>
<!DOCTYPE svg PUBLIC "-//W3C//DTD SVG 1.1//EN" "http://www.w3.org/Graphics/SVG/1.1/DTD/svg11.dtd">
<svg width="1080" height="934" version="1.1" xmlns="http://www.w3.org/2000/svg">
<path d="M375 12 L 366 37 L 358 60 L 369 87 L 364 117 L 395 115 L 422 94 L 396 73 L 397 42 L 409 14 L 442 17 L 428 52 L 449 78 L 460 111 L 483 137 L 506 165 L 477 182 L 451 157 L 429 130 L 405 153 L 423 181 L 414 215 L 381 233 L 355 216 L 382 188 L 373 149 L 346 162 L 339 188 L 316 212 L 301 178 L 262 187 L 282 209 L 295 242 L 271 265 L 279 295 L 254 320 L 231 298 L 200 279 L 165 277 L 160 311 L 192 320 L 223 336 L 197 362 L 173 386 L 189 415 L 187 445 L 203 468 L 229 455 L 223 429 L 220 397 L 234 370 L 261 352 L 289 367 L 263 388 L 256 418 L 292 405 L 286 437 L 259 450 L 281 471 L 299 491 L 326 498 L 337 516 L 309 515 L 282 512 L 254 514 L 229 510 L 265 494 L 248 478 L 223 485 L 201 502 L 174 474 L 138 474 L 119 448 L 154 440 L 145 409 L 107 415 L 82 444 L 52 468 L 53 430 L 76 400 L 89 370 L 116 349 L 126 382 L 158 352 L 131 321 L 98 310 L 127 282 L 143 245 L 179 245 L 216 242 L 238 265 L 255 231 L 230 208 L 230 179 L 208 156 L 191 185 L 195 215 L 160 209 L 122 214 L 107 182 L 85 206 L 76 238 L 108 247 L 88 275 L 52 269 L 42 239 L 48 208 L 67 177 L 87 153 L 124 153 L 145 178 L 173 157 L 156 130 L 120 125 L 158 91 L 128 97 L 98 83 L 65 53 L 99 49 L 131 60 L 164 54 L 193 67 L 185 103 L 201 128 L 217 95 L 237 121 L 241 149 L 270 156 L 291 139 L 316 150 L 337 129 L 336 97 L 329 68 L 325 40 L 341 14 L 307 13 L 288 34 L 295 58 L 305 86 L 305 113 L 270 117 L 250 89 L 276 83 L 258 49 L 270 13 L 239 18 L 230 65 L 212 41 L 207 13 L 176 20 L 144 20 L 112 17 L 79 17 L 47 20 L 16 11 L 14 36 L 22 58 L 44 78 L 69 94 L 86 121 L 52 140 L 42 111 L 13 89 L 15 125 L 14 157 L 38 173 L 14 194 L 14 227 L 15 262 L 20 295 L 13 329 L 42 331 L 59 301 L 77 336 L 52 365 L 17 365 L 42 398 L 13 402 L 18 436 L 17 469 L 14 502 L 43 502 L 75 502 L 93 474 L 110 500 L 138 508 L 164 500 L 182 516 L 184 539 L 192 539 L 200 539 L 209 539 L 218 540 L 226 539 L 235 539 L 244 539 L 252 538 L 258 546 L 262 538 L 271 539 L 281 538 L 292 538 L 302 538 L 313 539 L 323 538 L 331 545 L 336 537 L 344 539 L 352 538 L 360 539 L 368 538 L 377 539 L 386 539 L 395 540 L 401 536 L 408 540 L 417 539 L 425 535 L 429 541 L 437 538 L 446 538 L 456 539 L 466 538 L 476 538 L 486 538 L 450 512 L 437 492 L 417 513 L 384 522 L 384 502 L 361 511 L 350 488 L 369 475 L 392 476 L 409 493 L 421 468 L 447 467 L 465 485 L 467 459 L 457 437 L 437 443 L 398 453 L 416 435 L 425 410 L 451 413 L 447 387 L 419 378 L 464 365 L 465 335 L 471 303 L 435 316 L 438 352 L 410 342 L 390 365 L 372 385 L 345 394 L 398 400 L 391 427 L 367 415 L 344 429 L 370 447 L 342 458 L 324 475 L 306 459 L 317 435 L 321 408 L 318 376 L 350 362 L 375 337 L 397 311 L 358 299 L 344 329 L 316 343 L 288 328 L 319 304 L 314 273 L 333 243 L 357 264 L 389 277 L 413 250 L 422 282 L 450 282 L 475 266 L 449 243 L 449 205 L 481 217 L 496 244 L 522 253 L 551 262 L 554 287 L 556 307 L 564 309 L 578 276 L 579 249 L 587 221 L 554 207 L 547 234 L 515 211 L 534 183 L 549 155 L 525 131 L 504 105 L 483 79 L 465 46 L 479 14 L 522 16 L 560 16 L 548 51 L 501 43 L 518 70 L 545 92 L 586 87 L 566 119 L 583 149 L 579 184 L 615 197 L 647 171 L 650 133 L 615 160 L 608 122 L 632 97 L 670 91 L 687 120 L 690 154 L 675 186 L 710 188 L 729 156 L 722 122 L 712 85 L 750 95 L 757 130 L 767 165 L 745 189 L 778 201 L 794 229 L 765 246 L 748 220 L 717 224 L 685 219 L 650 213 L 622 232 L 608 260 L 619 285 L 640 259 L 669 249 L 658 284 L 686 291 L 701 257 L 734 257 L 756 285 L 718 291 L 734 319 L 698 329 L 671 317 L 649 319 L 656 334 L 644 332 L 629 331 L 635 320 L 641 309 L 632 301 L 621 298 L 609 295 L 600 293 L 591 296 L 584 300 L 577 304 L 573 310 L 569 317 L 566 325 L 566 340 L 558 353 L 553 365 L 537 366 L 538 353 L 549 343 L 556 331 L 558 318 L 546 325 L 536 326 L 535 338 L 523 346 L 520 337 L 521 329 L 525 321 L 531 315 L 539 311 L 547 308 L 528 283 L 499 280 L 507 304 L 491 325 L 511 344 L 504 351 L 500 359 L 492 363 L 492 372 L 487 379 L 484 387 L 480 395 L 479 404 L 478 414 L 478 424 L 480 434 L 482 444 L 485 454 L 494 459 L 490 465 L 498 469 L 501 477 L 488 483 L 477 508 L 505 513 L 509 505 L 507 496 L 507 487 L 508 480 L 515 485 L 521 488 L 528 490 L 534 496 L 544 513 L 529 525 L 522 528 L 520 521 L 512 523 L 504 522 L 498 529 L 496 538 L 506 539 L 507 531 L 515 531 L 515 540 L 503 555 L 506 573 L 522 562 L 524 583 L 544 584 L 542 563 L 528 544 L 523 537 L 530 533 L 535 539 L 542 539 L 549 538 L 553 545 L 558 538 L 559 528 L 564 533 L 566 540 L 574 541 L 572 533 L 580 532 L 583 540 L 591 542 L 591 533 L 588 526 L 580 523 L 573 524 L 566 525 L 567 518 L 567 510 L 567 502 L 566 494 L 566 486 L 574 481 L 568 478 L 556 475 L 559 489 L 550 487 L 551 493 L 543 491 L 535 487 L 543 475 L 531 470 L 524 479 L 515 468 L 510 455 L 525 457 L 540 461 L 550 451 L 554 464 L 564 455 L 568 467 L 577 458 L 577 446 L 581 435 L 581 423 L 568 420 L 567 433 L 562 443 L 549 437 L 554 424 L 541 417 L 553 409 L 566 407 L 579 410 L 590 402 L 595 406 L 592 412 L 595 419 L 595 426 L 595 434 L 593 443 L 591 452 L 589 460 L 584 468 L 579 475 L 591 486 L 604 498 L 590 509 L 614 518 L 639 517 L 665 510 L 688 510 L 711 503 L 694 486 L 664 481 L 676 464 L 653 447 L 638 470 L 646 495 L 624 495 L 611 473 L 620 450 L 629 431 L 640 412 L 618 407 L 605 383 L 600 388 L 594 390 L 590 395 L 584 393 L 576 395 L 570 389 L 564 394 L 552 393 L 540 398 L 530 408 L 515 411 L 509 425 L 524 423 L 536 431 L 535 446 L 522 440 L 509 440 L 497 447 L 495 433 L 492 420 L 501 412 L 492 401 L 499 385 L 507 398 L 522 397 L 515 384 L 508 371 L 519 360 L 525 373 L 532 386 L 545 379 L 559 382 L 567 373 L 572 363 L 574 352 L 584 367 L 579 379 L 591 380 L 596 372 L 600 364 L 607 370 L 609 377 L 617 375 L 611 357 L 593 358 L 598 346 L 584 345 L 578 331 L 590 331 L 586 317 L 601 320 L 597 307 L 611 310 L 623 314 L 615 326 L 602 333 L 611 342 L 621 349 L 625 342 L 634 344 L 642 350 L 635 358 L 626 356 L 625 367 L 626 379 L 636 376 L 641 385 L 649 391 L 654 399 L 660 406 L 665 415 L 672 422 L 678 430 L 684 438 L 691 446 L 699 451 L 707 455 L 701 461 L 710 465 L 730 484 L 736 460 L 751 438 L 722 436 L 700 440 L 695 430 L 689 420 L 684 411 L 678 405 L 676 396 L 669 387 L 661 376 L 646 371 L 654 363 L 656 349 L 677 358 L 700 366 L 710 394 L 731 413 L 741 382 L 727 353 L 759 345 L 774 316 L 797 292 L 790 262 L 823 265 L 833 299 L 812 324 L 796 350 L 773 375 L 761 408 L 782 430 L 773 457 L 759 477 L 769 502 L 762 513 L 760 527 L 773 523 L 783 532 L 784 514 L 792 486 L 800 459 L 826 467 L 821 492 L 810 514 L 843 509 L 854 479 L 846 445 L 813 434 L 828 410 L 793 402 L 814 380 L 834 357 L 849 331 L 853 387 L 859 416 L 876 437 L 881 462 L 885 487 L 870 509 L 901 509 L 925 503 L 948 506 L 968 512 L 990 510 L 978 484 L 978 456 L 1006 435 L 1011 464 L 1010 490 L 1013 516 L 1036 506 L 1062 519 L 1066 498 L 1092 495 L 1111 512 L 1137 504 L 1152 523 L 1164 504 L 1183 517 L 1204 508 L 1225 513 L 1224 486 L 1219 461 L 1213 434 L 1221 396 L 1194 368 L 1222 347 L 1186 329 L 1203 294 L 1215 251 L 1177 259 L 1155 294 L 1146 331 L 1154 366 L 1171 392 L 1190 413 L 1118 393 L 1117 362 L 1096 340 L 1112 309 L 1091 279 L 1060 269 L 1066 304 L 1064 336 L 1071 372 L 1084 403 L 1112 427 L 1146 413 L 1170 439 L 1186 462 L 1188 488 L 1156 477 L 1139 450 L 1122 480 L 1102 458 L 1071 468 L 1041 476 L 1040 441 L 1074 435 L 1045 405 L 1005 405 L 1021 378 L 1037 354 L 1001 338 L 1030 317 L 1028 283 L 997 294 L 974 316 L 942 309 L 899 289 L 912 316 L 932 342 L 962 348 L 988 369 L 967 393 L 939 377 L 932 412 L 973 422 L 950 441 L 946 476 L 911 475 L 926 452 L 905 435 L 889 406 L 906 386 L 906 357 L 872 365 L 884 333 L 870 305 L 856 276 L 883 261 L 913 252 L 932 275 L 961 282 L 981 261 L 1006 250 L 1033 246 L 1062 235 L 1068 205 L 1053 174 L 1052 142 L 1041 105 L 1014 114 L 988 133 L 971 159 L 1020 145 L 1018 175 L 1027 210 L 992 189 L 987 221 L 956 241 L 935 222 L 905 220 L 876 228 L 851 244 L 825 230 L 816 199 L 800 172 L 792 141 L 788 108 L 806 79 L 823 53 L 776 73 L 746 57 L 716 48 L 684 55 L 650 58 L 616 62 L 584 48 L 599 16 L 631 22 L 663 19 L 695 17 L 728 16 L 757 19 L 784 43 L 786 13 L 813 18 L 839 21 L 864 12 L 865 43 L 855 72 L 861 109 L 830 97 L 823 130 L 856 140 L 866 170 L 832 167 L 850 203 L 887 195 L 924 187 L 957 193 L 934 150 L 900 162 L 893 130 L 920 108 L 889 89 L 895 53 L 894 17 L 923 20 L 956 13 L 946 46 L 920 68 L 950 84 L 954 121 L 982 98 L 979 65 L 979 36 L 995 13 L 1026 15 L 1059 14 L 1089 17 L 1120 16 L 1151 15 L 1177 25 L 1203 14 L 1230 22 L 1256 20 L 1249 62 L 1211 54 L 1176 63 L 1141 50 L 1108 49 L 1074 49 L 1044 39 L 1012 47 L 1012 80 L 1042 69 L 1066 86 L 1092 76 L 1122 82 L 1097 107 L 1070 118 L 1090 144 L 1125 118 L 1126 150 L 1130 180 L 1092 177 L 1109 211 L 1097 242 L 1124 270 L 1143 241 L 1149 206 L 1182 215 L 1218 210 L 1206 174 L 1168 167 L 1159 131 L 1152 89 L 1182 105 L 1206 135 L 1213 91 L 1249 103 L 1247 141 L 1249 181 L 1252 227 L 1249 272 L 1245 312 L 1253 352 L 1252 391 L 1250 428 L 1252 460 L 1255 488 L 1252 512 L 1265 537 L 1258 539 L 1251 537 L 1244 540 L 1238 536 L 1232 540 L 1224 538 L 1215 538 L 1207 539 L 1199 538 L 1191 540 L 1183 539 L 1176 539 L 1168 539 L 1160 539 L 1152 540 L 1145 539 L 1137 539 L 1131 536 L 1125 540 L 1118 538 L 1111 539 L 1103 539 L 1095 539 L 1087 537 L 1079 539 L 1071 539 L 1063 540 L 1055 539 L 1046 538 L 1037 539 L 1027 539 L 1018 539 L 1008 540 L 999 539 L 990 540 L 981 539 L 971 539 L 962 540 L 952 539 L 942 538 L 933 538 L 925 540 L 918 535 L 913 541 L 906 538 L 899 539 L 893 541 L 892 532 L 885 539 L 879 536 L 873 540 L 865 538 L 855 538 L 844 539 L 833 539 L 822 539 L 811 540 L 801 539 L 792 539 L 784 541 L 775 540 L 768 539 L 761 540 L 754 539 L 748 531 L 748 517 L 749 502 L 734 510 L 735 525 L 722 523 L 721 541 L 729 538 L 734 544 L 740 539 L 747 542 L 756 553 L 760 568 L 743 565 L 726 564 L 710 567 L 717 588 L 736 584 L 754 586 L 770 581 L 783 573 L 773 558 L 788 555 L 797 567 L 805 554 L 821 554 L 812 569 L 827 570 L 842 570 L 837 555 L 854 552 L 857 567 L 871 561 L 882 552 L 891 565 L 906 555 L 910 572 L 926 561 L 944 555 L 961 564 L 976 556 L 985 573 L 1001 559 L 1019 551 L 1023 568 L 1039 562 L 1048 550 L 1059 566 L 1076 558 L 1095 558 L 1115 556 L 1132 554 L 1146 561 L 1142 579 L 1128 572 L 1113 573 L 1114 590 L 1130 592 L 1145 596 L 1157 588 L 1159 572 L 1162 555 L 1176 568 L 1180 554 L 1196 560 L 1221 552 L 1213 565 L 1205 580 L 1188 579 L 1195 595 L 1212 600 L 1224 615 L 1224 583 L 1232 566 L 1246 559 L 1261 557 L 1261 577 L 1245 581 L 1236 597 L 1259 601 L 1244 615 L 1260 628 L 1257 654 L 1258 680 L 1256 706 L 1238 691 L 1229 709 L 1213 686 L 1235 671 L 1231 653 L 1241 636 L 1219 637 L 1206 625 L 1193 613 L 1178 601 L 1172 586 L 1160 605 L 1173 618 L 1165 637 L 1176 652 L 1186 633 L 1199 647 L 1212 664 L 1191 669 L 1187 689 L 1207 707 L 1187 709 L 1168 707 L 1161 689 L 1170 672 L 1146 675 L 1153 658 L 1145 644 L 1134 630 L 1153 624 L 1143 612 L 1126 611 L 1124 649 L 1126 669 L 1135 691 L 1146 709 L 1120 709 L 1110 687 L 1092 708 L 1083 685 L 1064 703 L 1038 707 L 1039 679 L 1058 672 L 1080 661 L 1102 666 L 1101 644 L 1114 629 L 1110 609 L 1093 619 L 1082 637 L 1061 646 L 1036 650 L 1014 662 L 1011 637 L 1051 628 L 1069 617 L 1079 600 L 1096 596 L 1097 577 L 1079 577 L 1062 589 L 1043 582 L 1025 593 L 1047 605 L 1030 622 L 1011 610 L 1007 579 L 994 595 L 989 623 L 987 649 L 962 651 L 962 627 L 938 628 L 909 627 L 923 607 L 948 602 L 973 606 L 968 585 L 946 576 L 928 585 L 906 590 L 897 609 L 887 583 L 868 581 L 851 587 L 834 586 L 831 602 L 834 619 L 837 639 L 837 658 L 859 666 L 863 644 L 855 624 L 855 604 L 876 601 L 878 623 L 891 643 L 882 664 L 876 685 L 900 685 L 907 663 L 920 646 L 940 657 L 927 679 L 953 681 L 975 674 L 997 679 L 1019 688 L 1009 708 L 985 703 L 965 706 L 943 706 L 922 704 L 904 708 L 884 706 L 863 709 L 855 690 L 839 681 L 821 672 L 807 661 L 812 646 L 817 630 L 813 615 L 807 599 L 817 586 L 799 582 L 787 594 L 772 600 L 773 620 L 792 614 L 793 636 L 772 640 L 755 649 L 736 654 L 719 667 L 706 688 L 693 673 L 701 656 L 715 641 L 734 631 L 752 625 L 753 605 L 733 606 L 715 616 L 701 599 L 692 583 L 680 571 L 677 556 L 696 558 L 712 541 L 704 539 L 696 539 L 688 540 L 681 537 L 675 540 L 667 539 L 659 538 L 650 539 L 641 540 L 631 540 L 621 540 L 610 540 L 600 540 L 597 566 L 579 564 L 561 558 L 563 577 L 562 599 L 552 620 L 537 605 L 518 606 L 531 632 L 522 656 L 544 657 L 553 681 L 529 680 L 503 668 L 507 689 L 485 691 L 483 672 L 487 650 L 505 641 L 506 622 L 480 624 L 467 638 L 467 658 L 463 678 L 439 684 L 420 692 L 415 672 L 430 659 L 448 666 L 448 646 L 450 626 L 455 609 L 473 600 L 491 607 L 504 592 L 487 585 L 488 567 L 484 552 L 470 558 L 455 563 L 441 554 L 422 560 L 404 563 L 387 565 L 370 559 L 350 558 L 343 575 L 324 565 L 304 559 L 312 583 L 293 576 L 283 559 L 265 562 L 272 580 L 251 579 L 262 598 L 243 600 L 226 606 L 212 619 L 195 620 L 201 600 L 215 589 L 230 582 L 232 567 L 247 559 L 229 552 L 213 563 L 195 559 L 178 553 L 176 539 L 168 539 L 161 537 L 152 538 L 143 538 L 132 538 L 120 538 L 108 538 L 95 537 L 83 538 L 71 538 L 59 537 L 48 538 L 37 540 L 27 537 L 17 539 L 5 538 L 10 559 L 10 579 L 29 567 L 47 564 L 63 557 L 81 560 L 99 556 L 106 572 L 88 579 L 68 580 L 50 587 L 31 592 L 11 598 L 8 616 L 26 618 L 45 611 L 65 606 L 64 629 L 43 633 L 27 644 L 9 635 L 9 658 L 29 664 L 49 655 L 70 649 L 88 642 L 85 622 L 104 613 L 84 600 L 105 592 L 124 580 L 120 558 L 139 560 L 156 555 L 170 564 L 182 574 L 200 578 L 182 589 L 179 605 L 177 621 L 164 631 L 149 640 L 143 621 L 159 611 L 162 592 L 159 574 L 142 579 L 143 599 L 124 601 L 123 621 L 108 635 L 106 656 L 111 679 L 94 688 L 73 689 L 88 667 L 67 668 L 53 681 L 36 681 L 25 694 L 10 680 L 9 706 L 30 711 L 49 705 L 68 709 L 88 708 L 107 706 L 124 711 L 125 695 L 132 678 L 125 660 L 129 641 L 147 657 L 149 674 L 167 670 L 169 650 L 183 665 L 198 675 L 193 692 L 177 688 L 161 688 L 145 694 L 144 710 L 162 708 L 180 709 L 197 709 L 214 709 L 214 690 L 226 675 L 212 662 L 196 652 L 187 637 L 213 640 L 232 627 L 232 653 L 250 641 L 255 621 L 277 613 L 288 597 L 310 604 L 300 622 L 282 632 L 307 643 L 322 664 L 296 665 L 275 648 L 262 661 L 246 671 L 239 691 L 232 709 L 255 708 L 262 687 L 283 680 L 279 707 L 303 704 L 317 685 L 330 708 L 345 686 L 349 663 L 335 643 L 326 621 L 332 595 L 369 580 L 391 588 L 377 610 L 356 595 L 349 616 L 359 637 L 382 636 L 403 626 L 404 605 L 415 582 L 437 573 L 470 577 L 456 586 L 440 592 L 425 599 L 428 617 L 428 636 L 410 647 L 394 659 L 373 661 L 372 685 L 360 708 L 387 707 L 396 685 L 411 709 L 436 708 L 457 711 L 460 694 L 478 709 L 499 709 L 520 707 L 541 705 L 564 706 L 588 708 L 579 684 L 572 661 L 562 640 L 578 619 L 584 590 L 607 587 L 625 607 L 600 612 L 616 631 L 592 641 L 600 666 L 603 689 L 626 683 L 616 708 L 640 706 L 664 709 L 655 688 L 644 669 L 623 656 L 655 649 L 639 635 L 649 614 L 648 591 L 628 582 L 618 562 L 640 563 L 659 551 L 659 567 L 667 584 L 673 603 L 691 615 L 695 633 L 668 627 L 679 648 L 670 668 L 678 688 L 687 707 L 708 708 L 731 710 L 728 689 L 751 701 L 770 709 L 775 688 L 744 676 L 764 671 L 784 660 L 797 681 L 794 706 L 817 710 L 819 692 L 840 707 " stroke="black" stroke-width="3" fill="none"/> 
 </svg>