<?xml version="1.0" ?>
<!DOCTYPE svg PUBLIC "-//W3C//DTD SVG 1.1//EN" "http://www.w3.org/Graphics/SVG/1.1/DTD/svg11.dtd">
<svg width="1080" height="934" version="1.1" xmlns="http://www.w3.org/2000/svg">
<path d="M786 13 L 813 18 L 839 21 L 865 12 L 894 17 L 923 20 L 956 13 L 946 47 L 920 69 L 895 53 L 864 43 L 855 73 L 889 91 L 863 110 L 855 141 L 835 168 L 802 171 L 791 140 L 789 108 L 757 130 L 750 95 L 746 57 L 716 48 L 684 55 L 712 85 L 670 91 L 650 58 L 616 62 L 584 48 L 586 87 L 608 122 L 632 97 L 650 133 L 690 154 L 687 120 L 722 122 L 729 156 L 710 188 L 744 189 L 767 165 L 779 200 L 817 200 L 851 204 L 883 198 L 872 168 L 894 135 L 910 173 L 934 148 L 954 121 L 920 109 L 949 85 L 979 65 L 982 99 L 988 134 L 973 161 L 948 188 L 972 222 L 989 196 L 1014 175 L 1021 146 L 1053 142 L 1091 144 L 1091 177 L 1051 175 L 1027 211 L 999 241 L 1030 247 L 1024 280 L 1066 304 L 1064 336 L 1071 372 L 1084 403 L 1074 435 L 1102 458 L 1122 480 L 1156 477 L 1139 450 L 1112 427 L 1146 413 L 1118 393 L 1116 362 L 1096 340 L 1112 309 L 1091 279 L 1059 269 L 1061 235 L 1068 205 L 1096 242 L 1109 211 L 1149 206 L 1129 180 L 1126 151 L 1125 118 L 1097 107 L 1070 118 L 1041 105 L 1014 114 L 1012 81 L 1042 69 L 1066 86 L 1092 76 L 1122 82 L 1152 89 L 1176 63 L 1141 50 L 1108 49 L 1074 49 L 1044 39 L 1012 47 L 979 36 L 995 13 L 1026 15 L 1059 14 L 1089 17 L 1120 16 L 1151 15 L 1177 25 L 1203 14 L 1230 22 L 1256 20 L 1211 54 L 1249 62 L 1249 103 L 1247 141 L 1249 181 L 1206 174 L 1206 135 L 1213 91 L 1182 105 L 1159 131 L 1168 167 L 1182 215 L 1218 210 L 1252 227 L 1215 251 L 1249 272 L 1245 312 L 1253 352 L 1252 391 L 1221 396 L 1194 368 L 1222 347 L 1186 329 L 1203 294 L 1177 259 L 1143 241 L 1124 270 L 1155 294 L 1145 331 L 1154 366 L 1171 392 L 1190 413 L 1170 439 L 1186 462 L 1188 488 L 1224 486 L 1219 461 L 1213 434 L 1250 428 L 1252 460 L 1255 488 L 1252 512 L 1225 513 L 1204 508 L 1184 517 L 1164 504 L 1152 523 L 1137 504 L 1111 512 L 1092 495 L 1062 519 L 1066 498 L 1071 468 L 1041 476 L 1040 441 L 1045 405 L 1005 405 L 1021 378 L 1036 353 L 1031 317 L 999 337 L 987 369 L 964 345 L 931 344 L 904 356 L 903 385 L 891 409 L 906 437 L 927 452 L 950 441 L 932 411 L 939 376 L 967 393 L 973 422 L 1006 435 L 1011 464 L 978 456 L 978 484 L 947 476 L 911 475 L 881 462 L 875 437 L 844 446 L 826 472 L 854 478 L 885 487 L 870 509 L 843 507 L 817 503 L 793 484 L 801 457 L 815 432 L 825 406 L 856 417 L 859 389 L 869 363 L 842 339 L 865 310 L 882 334 L 911 317 L 897 290 L 884 262 L 916 253 L 936 283 L 943 314 L 970 307 L 1000 301 L 981 272 L 955 254 L 940 225 L 915 209 L 886 230 L 855 242 L 825 232 L 794 227 L 750 221 L 766 247 L 793 261 L 825 266 L 857 278 L 832 301 L 810 323 L 801 353 L 827 373 L 792 391 L 786 424 L 761 414 L 752 387 L 738 352 L 739 321 L 770 360 L 773 324 L 795 293 L 760 287 L 724 290 L 737 257 L 719 222 L 706 252 L 692 278 L 672 247 L 654 275 L 641 248 L 614 262 L 616 230 L 584 223 L 579 184 L 614 197 L 649 212 L 685 218 L 675 186 L 647 171 L 615 160 L 583 149 L 566 119 L 545 92 L 518 70 L 501 43 L 465 46 L 428 52 L 449 78 L 422 94 L 396 73 L 369 88 L 364 117 L 395 116 L 429 130 L 451 157 L 483 137 L 460 111 L 483 79 L 504 105 L 525 131 L 549 155 L 534 182 L 505 165 L 477 183 L 481 217 L 497 244 L 515 211 L 554 206 L 548 235 L 524 253 L 533 283 L 557 266 L 584 257 L 584 294 L 592 297 L 598 291 L 607 292 L 617 292 L 627 294 L 636 299 L 644 305 L 642 318 L 639 331 L 651 330 L 654 341 L 655 354 L 667 351 L 666 341 L 668 332 L 662 325 L 657 318 L 652 310 L 677 299 L 703 317 L 703 347 L 699 376 L 724 377 L 721 403 L 716 428 L 738 428 L 744 452 L 772 451 L 762 477 L 733 480 L 707 452 L 701 441 L 697 432 L 694 424 L 690 417 L 686 410 L 688 403 L 682 399 L 680 392 L 678 386 L 675 380 L 671 374 L 670 367 L 663 361 L 655 369 L 647 375 L 661 380 L 652 386 L 659 397 L 668 392 L 675 405 L 666 408 L 674 420 L 682 431 L 689 442 L 697 451 L 702 460 L 711 462 L 710 470 L 713 501 L 693 489 L 681 470 L 666 449 L 645 453 L 662 480 L 646 496 L 636 476 L 621 455 L 626 430 L 649 425 L 630 405 L 610 388 L 616 382 L 618 373 L 626 376 L 636 376 L 628 365 L 629 354 L 636 358 L 644 358 L 644 349 L 639 343 L 632 342 L 625 346 L 622 334 L 610 331 L 598 347 L 612 346 L 616 359 L 610 369 L 600 379 L 602 391 L 596 396 L 594 389 L 588 394 L 581 389 L 572 389 L 575 379 L 586 374 L 596 368 L 604 362 L 587 359 L 584 346 L 586 334 L 599 333 L 590 321 L 602 317 L 616 318 L 628 323 L 630 311 L 619 305 L 606 305 L 590 306 L 580 304 L 572 302 L 565 297 L 557 301 L 549 304 L 543 309 L 534 314 L 530 326 L 537 323 L 549 322 L 558 317 L 566 313 L 578 312 L 577 320 L 573 328 L 570 341 L 560 332 L 547 336 L 554 349 L 570 354 L 572 367 L 556 364 L 540 361 L 545 378 L 561 378 L 557 392 L 543 396 L 534 387 L 529 375 L 523 364 L 527 353 L 536 345 L 532 336 L 523 339 L 516 346 L 510 353 L 504 360 L 513 372 L 517 385 L 504 382 L 500 394 L 511 398 L 524 397 L 533 408 L 543 418 L 536 432 L 526 423 L 512 424 L 517 411 L 502 409 L 498 421 L 502 434 L 510 446 L 496 447 L 488 454 L 486 445 L 486 436 L 485 428 L 484 420 L 486 412 L 485 405 L 488 399 L 489 391 L 492 383 L 496 375 L 500 367 L 483 364 L 469 349 L 440 350 L 420 376 L 397 398 L 417 436 L 439 447 L 443 420 L 421 409 L 443 390 L 459 372 L 469 392 L 463 413 L 462 443 L 467 474 L 484 483 L 475 504 L 451 513 L 437 493 L 447 472 L 421 468 L 408 493 L 417 513 L 384 522 L 384 502 L 361 511 L 338 517 L 327 499 L 349 488 L 369 475 L 392 476 L 397 453 L 370 447 L 392 426 L 367 414 L 345 430 L 342 458 L 323 476 L 306 459 L 317 435 L 322 408 L 345 393 L 371 384 L 392 366 L 411 340 L 433 315 L 391 308 L 417 284 L 448 282 L 474 300 L 464 326 L 493 338 L 502 315 L 505 285 L 477 267 L 452 243 L 448 206 L 417 249 L 412 214 L 423 180 L 404 154 L 372 150 L 344 162 L 341 189 L 381 189 L 353 219 L 343 253 L 381 234 L 383 271 L 352 289 L 350 323 L 376 340 L 349 360 L 319 342 L 317 306 L 312 274 L 301 242 L 318 214 L 302 179 L 316 150 L 337 129 L 337 97 L 329 68 L 306 86 L 306 113 L 291 139 L 270 156 L 262 187 L 284 211 L 256 231 L 231 209 L 228 180 L 208 156 L 187 182 L 196 213 L 216 242 L 239 266 L 273 262 L 276 294 L 288 328 L 318 377 L 290 366 L 260 352 L 234 370 L 220 397 L 223 429 L 230 455 L 256 419 L 263 388 L 292 405 L 286 437 L 260 450 L 282 472 L 299 493 L 282 513 L 309 516 L 317 539 L 327 538 L 336 540 L 344 539 L 352 538 L 360 539 L 368 538 L 377 539 L 386 539 L 395 540 L 401 536 L 408 540 L 418 539 L 425 535 L 429 541 L 438 538 L 448 538 L 458 539 L 470 538 L 481 537 L 493 539 L 504 539 L 501 531 L 509 533 L 516 530 L 523 530 L 528 525 L 519 522 L 510 523 L 501 522 L 506 513 L 507 504 L 506 495 L 505 486 L 504 476 L 498 469 L 493 462 L 505 459 L 518 457 L 521 439 L 534 447 L 530 460 L 545 461 L 549 448 L 551 435 L 558 422 L 552 408 L 566 406 L 578 399 L 577 411 L 588 408 L 598 402 L 601 408 L 601 414 L 602 422 L 601 429 L 601 438 L 599 446 L 597 454 L 594 461 L 590 467 L 612 478 L 594 492 L 597 509 L 614 520 L 621 499 L 639 518 L 666 509 L 690 513 L 688 540 L 681 537 L 674 540 L 667 539 L 659 538 L 650 539 L 641 540 L 631 540 L 621 540 L 610 540 L 600 540 L 591 542 L 591 533 L 588 526 L 580 523 L 573 524 L 567 520 L 568 512 L 570 505 L 569 498 L 548 495 L 544 488 L 552 489 L 560 488 L 566 492 L 568 485 L 574 483 L 580 478 L 586 473 L 574 467 L 578 456 L 582 445 L 586 434 L 588 421 L 573 423 L 568 434 L 566 445 L 561 455 L 560 465 L 566 475 L 553 475 L 542 475 L 530 473 L 518 471 L 511 481 L 517 485 L 524 486 L 528 492 L 533 487 L 537 492 L 533 509 L 549 517 L 564 527 L 571 532 L 580 532 L 583 540 L 575 541 L 566 540 L 563 534 L 557 539 L 549 538 L 547 546 L 543 564 L 524 560 L 533 541 L 541 538 L 530 533 L 524 539 L 515 540 L 505 555 L 491 565 L 482 552 L 471 564 L 457 565 L 443 555 L 437 573 L 423 561 L 405 563 L 387 565 L 370 558 L 368 580 L 356 595 L 350 558 L 325 562 L 342 576 L 332 596 L 327 624 L 308 644 L 300 622 L 311 605 L 313 583 L 293 577 L 289 597 L 277 613 L 280 633 L 278 654 L 256 647 L 253 669 L 262 689 L 280 679 L 298 670 L 322 663 L 339 649 L 360 637 L 350 617 L 377 610 L 384 635 L 407 625 L 402 605 L 390 588 L 415 583 L 424 608 L 436 593 L 453 587 L 469 586 L 486 582 L 501 593 L 507 573 L 524 583 L 544 584 L 563 576 L 561 556 L 579 563 L 597 566 L 617 562 L 640 563 L 659 567 L 659 551 L 677 556 L 696 558 L 696 539 L 704 539 L 712 541 L 721 541 L 729 538 L 734 545 L 740 539 L 747 542 L 756 553 L 760 568 L 743 565 L 726 564 L 710 567 L 717 587 L 736 584 L 733 606 L 715 617 L 701 599 L 692 583 L 680 571 L 667 584 L 673 603 L 668 627 L 691 615 L 695 633 L 716 641 L 734 631 L 752 624 L 752 605 L 755 587 L 770 607 L 805 602 L 808 620 L 788 616 L 792 639 L 772 631 L 759 648 L 738 654 L 720 667 L 728 689 L 744 676 L 763 671 L 782 660 L 775 688 L 797 680 L 818 692 L 839 681 L 855 689 L 876 685 L 859 665 L 864 643 L 882 663 L 891 642 L 878 622 L 874 601 L 888 586 L 907 585 L 928 580 L 914 564 L 892 567 L 883 553 L 870 559 L 838 555 L 822 553 L 806 554 L 798 567 L 812 569 L 827 570 L 842 572 L 856 565 L 871 578 L 854 586 L 853 604 L 852 623 L 839 640 L 837 658 L 820 671 L 806 657 L 816 640 L 829 623 L 829 606 L 835 589 L 817 587 L 799 583 L 785 594 L 770 582 L 783 573 L 789 555 L 773 558 L 775 540 L 768 539 L 761 540 L 754 539 L 761 527 L 748 531 L 735 525 L 722 523 L 734 510 L 750 502 L 748 517 L 761 513 L 771 503 L 790 514 L 775 521 L 782 533 L 784 541 L 792 539 L 800 540 L 809 539 L 819 539 L 831 539 L 843 539 L 852 547 L 855 537 L 864 538 L 873 540 L 879 536 L 885 539 L 892 533 L 900 509 L 924 503 L 947 508 L 968 511 L 990 511 L 1010 490 L 1036 506 L 1013 516 L 1008 540 L 1018 539 L 1027 539 L 1037 539 L 1046 538 L 1055 539 L 1063 540 L 1071 539 L 1079 539 L 1087 537 L 1095 539 L 1103 539 L 1111 539 L 1118 537 L 1125 540 L 1131 536 L 1137 539 L 1145 539 L 1152 540 L 1160 539 L 1168 539 L 1176 539 L 1183 539 L 1191 540 L 1199 538 L 1207 539 L 1215 538 L 1224 538 L 1232 540 L 1238 536 L 1244 540 L 1251 537 L 1258 539 L 1265 537 L 1261 557 L 1247 559 L 1221 553 L 1213 565 L 1232 566 L 1224 583 L 1205 580 L 1188 579 L 1196 560 L 1180 554 L 1176 569 L 1159 572 L 1162 555 L 1146 561 L 1132 554 L 1115 556 L 1095 558 L 1076 558 L 1059 566 L 1048 550 L 1039 562 L 1043 582 L 1047 605 L 1062 589 L 1079 577 L 1097 577 L 1113 573 L 1128 572 L 1142 579 L 1130 592 L 1114 590 L 1096 596 L 1079 600 L 1093 619 L 1069 617 L 1051 628 L 1061 646 L 1082 637 L 1101 644 L 1114 629 L 1110 609 L 1126 611 L 1143 612 L 1153 624 L 1165 637 L 1176 652 L 1186 633 L 1174 618 L 1161 605 L 1145 596 L 1157 588 L 1172 586 L 1179 601 L 1195 595 L 1213 600 L 1195 613 L 1206 627 L 1224 617 L 1236 598 L 1245 581 L 1261 578 L 1259 601 L 1243 617 L 1260 628 L 1258 654 L 1258 680 L 1256 706 L 1230 708 L 1207 706 L 1213 684 L 1236 688 L 1236 665 L 1241 640 L 1222 640 L 1215 661 L 1198 648 L 1193 669 L 1188 689 L 1187 709 L 1168 707 L 1161 689 L 1171 672 L 1154 658 L 1145 644 L 1134 630 L 1124 649 L 1126 669 L 1146 675 L 1135 691 L 1147 709 L 1120 709 L 1110 687 L 1103 666 L 1080 661 L 1083 685 L 1092 708 L 1064 703 L 1038 707 L 1039 679 L 1058 672 L 1036 650 L 1014 661 L 1010 637 L 1030 622 L 1011 610 L 1025 593 L 1007 580 L 1022 568 L 1019 551 L 1001 559 L 999 539 L 990 540 L 981 539 L 972 539 L 962 539 L 952 539 L 943 539 L 934 538 L 926 540 L 919 537 L 912 540 L 907 536 L 900 539 L 893 542 L 904 552 L 935 559 L 948 578 L 959 562 L 977 557 L 986 573 L 969 584 L 993 596 L 988 623 L 987 649 L 963 652 L 936 626 L 961 628 L 971 606 L 948 601 L 923 604 L 898 607 L 909 626 L 920 646 L 907 663 L 901 685 L 927 679 L 941 656 L 953 681 L 975 674 L 997 679 L 1019 688 L 1009 708 L 985 703 L 965 706 L 943 706 L 923 704 L 904 708 L 884 706 L 863 709 L 840 707 L 817 710 L 794 706 L 770 709 L 751 701 L 731 710 L 708 708 L 706 688 L 693 673 L 700 656 L 679 648 L 670 668 L 655 649 L 639 635 L 649 614 L 647 591 L 628 582 L 607 587 L 584 590 L 562 600 L 577 619 L 600 612 L 625 607 L 616 631 L 592 641 L 572 661 L 578 684 L 602 689 L 600 666 L 623 656 L 644 669 L 655 688 L 678 688 L 687 707 L 664 709 L 640 706 L 626 683 L 616 708 L 588 708 L 564 706 L 541 705 L 520 706 L 499 708 L 478 709 L 484 692 L 507 684 L 529 680 L 553 681 L 543 655 L 562 640 L 550 621 L 537 605 L 527 631 L 520 657 L 499 662 L 501 640 L 502 619 L 517 606 L 482 605 L 459 608 L 441 620 L 429 636 L 409 647 L 391 661 L 367 660 L 347 678 L 374 685 L 398 686 L 415 671 L 431 659 L 450 646 L 461 631 L 480 627 L 476 651 L 484 674 L 466 674 L 451 665 L 460 692 L 457 710 L 436 707 L 440 683 L 421 691 L 411 709 L 386 707 L 359 706 L 332 706 L 320 685 L 304 704 L 280 706 L 255 709 L 233 708 L 214 709 L 214 690 L 239 690 L 227 674 L 213 662 L 233 654 L 236 633 L 255 622 L 261 599 L 242 598 L 231 611 L 217 593 L 229 581 L 232 566 L 229 552 L 247 559 L 251 579 L 272 581 L 265 562 L 283 559 L 304 559 L 306 538 L 294 538 L 283 538 L 272 539 L 262 538 L 258 546 L 252 538 L 244 539 L 235 539 L 226 539 L 218 540 L 209 539 L 200 539 L 192 539 L 184 539 L 176 539 L 168 539 L 161 537 L 152 538 L 143 538 L 132 538 L 120 538 L 108 538 L 95 537 L 83 538 L 71 538 L 47 564 L 63 557 L 81 560 L 99 556 L 106 572 L 88 579 L 68 580 L 50 587 L 31 592 L 45 611 L 65 606 L 84 600 L 105 592 L 124 601 L 143 599 L 142 579 L 124 580 L 120 558 L 139 560 L 156 555 L 170 564 L 178 553 L 195 559 L 213 563 L 202 579 L 201 601 L 198 621 L 216 620 L 213 640 L 196 652 L 187 638 L 169 650 L 183 665 L 198 675 L 193 692 L 197 709 L 180 709 L 162 708 L 177 688 L 167 670 L 161 688 L 145 694 L 144 710 L 124 711 L 107 706 L 88 708 L 73 689 L 68 709 L 49 705 L 53 681 L 36 681 L 25 694 L 30 711 L 9 706 L 10 680 L 9 658 L 29 664 L 49 655 L 67 668 L 88 667 L 106 656 L 108 635 L 129 641 L 125 660 L 111 679 L 94 688 L 125 695 L 132 678 L 149 674 L 147 657 L 149 640 L 164 631 L 178 621 L 180 605 L 183 589 L 182 574 L 159 574 L 162 592 L 160 611 L 143 621 L 123 621 L 104 613 L 85 622 L 88 642 L 70 649 L 64 629 L 43 633 L 27 644 L 9 635 L 26 617 L 8 616 L 11 598 L 10 579 L 29 566 L 10 559 L 5 538 L 17 539 L 27 537 L 37 540 L 48 538 L 59 537 L 75 502 L 93 474 L 110 500 L 138 508 L 138 474 L 119 448 L 107 415 L 126 382 L 145 409 L 154 440 L 174 474 L 164 500 L 182 516 L 201 502 L 229 510 L 253 514 L 265 494 L 248 478 L 223 485 L 203 467 L 186 445 L 189 415 L 173 386 L 197 362 L 223 336 L 254 320 L 230 299 L 200 279 L 192 320 L 160 311 L 131 320 L 158 352 L 116 349 L 89 370 L 76 400 L 53 430 L 82 444 L 52 468 L 43 502 L 14 502 L 17 469 L 18 436 L 13 402 L 42 398 L 17 365 L 52 365 L 77 336 L 98 310 L 127 282 L 165 277 L 180 244 L 143 245 L 108 247 L 88 275 L 59 301 L 42 331 L 13 329 L 20 295 L 15 262 L 14 227 L 14 193 L 15 157 L 14 125 L 40 110 L 13 88 L 23 57 L 14 36 L 17 11 L 47 20 L 79 18 L 112 15 L 142 22 L 175 20 L 206 13 L 215 40 L 194 62 L 163 59 L 133 69 L 99 83 L 104 48 L 67 54 L 45 78 L 69 96 L 52 139 L 39 173 L 68 177 L 84 152 L 90 121 L 117 146 L 108 179 L 48 207 L 42 239 L 52 269 L 75 238 L 86 207 L 122 212 L 159 209 L 145 176 L 175 148 L 147 137 L 125 108 L 159 103 L 187 96 L 201 125 L 241 150 L 238 121 L 270 117 L 277 83 L 250 89 L 218 95 L 230 66 L 258 49 L 239 17 L 270 13 L 287 34 L 295 58 L 307 13 L 341 14 L 325 40 L 358 60 L 366 37 L 375 12 L 397 42 L 409 14 L 442 17 L 479 14 L 522 16 L 548 51 L 560 16 L 599 16 L 631 22 L 663 19 L 695 17 L 728 16 L 757 19 L 784 43 L 776 73 L 807 79 L 823 53 L 831 98 L 822 131 " stroke="black" stroke-width="3" fill="none"/> 
 </svg>