<?xml version="1.0" ?>
<!DOCTYPE svg PUBLIC "-//W3C//DTD SVG 1.1//EN" "http://www.w3.org/Graphics/SVG/1.1/DTD/svg11.dtd">
<svg width="1080" height="934" version="1.1" xmlns="http://www.w3.org/2000/svg">
<path d="M864 12 L 894 17 L 923 20 L 956 13 L 946 46 L 921 68 L 895 53 L 888 90 L 861 109 L 856 140 L 893 130 L 920 108 L 954 121 L 934 150 L 900 163 L 924 187 L 957 193 L 972 159 L 988 133 L 1015 113 L 1041 104 L 1066 87 L 1091 76 L 1122 83 L 1152 88 L 1175 62 L 1140 50 L 1107 49 L 1074 49 L 1042 69 L 1012 47 L 1012 80 L 982 98 L 950 84 L 979 65 L 979 35 L 995 13 L 1026 15 L 1045 39 L 1059 13 L 1089 17 L 1119 16 L 1151 15 L 1178 25 L 1203 14 L 1230 22 L 1256 20 L 1249 62 L 1210 54 L 1212 91 L 1248 102 L 1206 135 L 1181 105 L 1158 130 L 1168 166 L 1205 174 L 1247 141 L 1248 180 L 1252 226 L 1218 210 L 1182 215 L 1148 206 L 1108 211 L 1096 241 L 1123 269 L 1143 241 L 1177 259 L 1153 294 L 1146 332 L 1153 367 L 1171 392 L 1147 414 L 1118 393 L 1117 363 L 1097 340 L 1111 310 L 1091 279 L 1060 269 L 1066 304 L 1064 335 L 1071 373 L 1045 405 L 1083 404 L 1074 436 L 1071 469 L 1066 499 L 1061 519 L 1036 507 L 1041 477 L 1040 442 L 1006 435 L 1005 406 L 1021 378 L 1037 354 L 1001 338 L 1029 318 L 1027 283 L 997 294 L 974 316 L 942 309 L 961 281 L 980 261 L 1006 250 L 1033 246 L 1027 211 L 1062 235 L 1068 204 L 1053 174 L 1090 143 L 1091 176 L 1130 180 L 1126 150 L 1124 118 L 1096 107 L 1070 118 L 1052 141 L 1020 145 L 1018 175 L 992 189 L 987 221 L 956 240 L 934 223 L 905 221 L 876 228 L 851 244 L 825 230 L 823 265 L 833 299 L 812 324 L 798 291 L 791 261 L 766 245 L 748 220 L 717 223 L 735 256 L 758 283 L 775 314 L 765 343 L 737 356 L 722 382 L 701 379 L 683 388 L 680 380 L 677 372 L 674 363 L 666 360 L 659 369 L 667 378 L 672 389 L 670 404 L 665 396 L 660 389 L 655 380 L 648 375 L 638 377 L 636 366 L 627 373 L 627 380 L 621 385 L 614 390 L 607 392 L 600 394 L 593 394 L 587 390 L 581 386 L 573 379 L 570 366 L 570 353 L 558 348 L 549 337 L 537 340 L 540 350 L 524 346 L 516 355 L 508 364 L 505 374 L 475 369 L 470 342 L 488 328 L 514 316 L 516 286 L 483 299 L 454 288 L 478 267 L 500 248 L 526 255 L 551 239 L 553 208 L 533 183 L 505 165 L 478 184 L 516 213 L 482 221 L 449 246 L 451 207 L 417 216 L 391 187 L 361 191 L 327 186 L 313 214 L 293 242 L 311 275 L 320 304 L 358 299 L 361 263 L 330 249 L 348 222 L 382 228 L 410 251 L 390 281 L 425 283 L 442 319 L 444 354 L 414 342 L 400 313 L 376 338 L 373 385 L 393 366 L 422 378 L 450 387 L 474 397 L 458 418 L 430 411 L 401 401 L 392 427 L 367 415 L 345 430 L 323 476 L 306 459 L 317 435 L 322 408 L 345 394 L 350 362 L 344 329 L 316 343 L 289 328 L 278 295 L 269 266 L 255 231 L 230 208 L 229 179 L 261 186 L 281 209 L 295 176 L 316 151 L 291 139 L 268 153 L 239 150 L 239 121 L 271 116 L 250 89 L 276 82 L 258 49 L 287 34 L 295 58 L 305 85 L 306 113 L 336 97 L 329 68 L 367 37 L 357 60 L 369 87 L 396 73 L 428 52 L 449 78 L 421 94 L 395 115 L 363 117 L 337 129 L 346 161 L 374 149 L 406 152 L 430 129 L 427 180 L 452 156 L 483 136 L 460 111 L 483 79 L 504 104 L 525 131 L 549 155 L 578 184 L 615 198 L 585 221 L 582 251 L 582 278 L 551 275 L 545 308 L 541 330 L 547 321 L 557 312 L 563 306 L 571 303 L 579 304 L 588 305 L 590 312 L 591 321 L 583 320 L 573 315 L 565 323 L 560 333 L 573 336 L 587 334 L 584 348 L 598 345 L 601 333 L 612 330 L 616 343 L 609 353 L 596 357 L 584 363 L 588 376 L 596 386 L 599 370 L 607 379 L 618 371 L 612 365 L 623 358 L 631 348 L 625 332 L 619 319 L 613 308 L 604 318 L 598 303 L 607 297 L 618 295 L 630 295 L 642 298 L 653 302 L 661 310 L 664 320 L 671 326 L 673 337 L 660 338 L 651 327 L 645 314 L 629 308 L 632 320 L 639 329 L 636 341 L 645 342 L 638 355 L 648 358 L 652 350 L 672 349 L 706 352 L 704 320 L 738 319 L 719 289 L 683 285 L 702 256 L 670 248 L 645 262 L 613 265 L 619 235 L 648 215 L 685 219 L 675 186 L 646 172 L 651 134 L 690 154 L 711 188 L 730 157 L 722 122 L 687 120 L 671 92 L 633 97 L 616 62 L 650 59 L 684 55 L 712 85 L 716 48 L 746 57 L 776 73 L 750 95 L 788 108 L 757 131 L 767 165 L 745 189 L 778 201 L 795 228 L 817 199 L 851 203 L 886 195 L 866 170 L 832 167 L 800 172 L 792 141 L 822 130 L 830 97 L 806 80 L 822 53 L 855 72 L 865 43 L 839 21 L 813 18 L 787 12 L 784 43 L 757 19 L 728 16 L 695 17 L 663 18 L 631 22 L 599 16 L 584 48 L 585 86 L 608 123 L 614 161 L 583 149 L 566 119 L 545 91 L 548 51 L 560 16 L 521 16 L 518 70 L 501 43 L 479 14 L 465 46 L 441 17 L 408 14 L 398 42 L 375 12 L 341 14 L 325 40 L 307 13 L 270 13 L 240 17 L 207 13 L 213 41 L 230 66 L 217 95 L 193 67 L 164 55 L 177 20 L 144 20 L 112 17 L 79 17 L 47 20 L 16 11 L 14 36 L 22 57 L 13 89 L 43 78 L 65 54 L 99 49 L 131 61 L 127 97 L 158 92 L 185 103 L 202 128 L 207 156 L 173 158 L 157 131 L 120 125 L 123 153 L 145 178 L 192 185 L 195 214 L 160 209 L 121 214 L 143 244 L 127 282 L 165 277 L 200 279 L 179 244 L 216 241 L 237 265 L 231 298 L 254 320 L 223 336 L 192 320 L 160 310 L 130 321 L 117 349 L 98 310 L 76 336 L 43 329 L 60 300 L 88 275 L 108 247 L 76 237 L 85 205 L 107 182 L 67 177 L 86 153 L 86 121 L 98 84 L 69 94 L 41 110 L 51 140 L 14 125 L 14 157 L 38 173 L 48 207 L 14 193 L 14 226 L 42 239 L 53 268 L 15 261 L 21 291 L 13 320 L 16 352 L 16 383 L 15 416 L 21 444 L 16 473 L 14 504 L 43 503 L 53 469 L 55 431 L 44 400 L 51 365 L 88 369 L 78 399 L 106 417 L 82 446 L 93 475 L 75 503 L 111 500 L 139 474 L 119 449 L 154 440 L 145 409 L 125 383 L 158 352 L 198 362 L 174 387 L 189 416 L 186 445 L 174 475 L 203 468 L 224 430 L 221 398 L 235 371 L 261 352 L 290 367 L 318 377 L 264 389 L 257 419 L 293 405 L 286 437 L 260 451 L 229 456 L 248 478 L 282 473 L 299 493 L 282 513 L 265 494 L 254 515 L 230 510 L 223 486 L 201 503 L 182 516 L 164 500 L 139 508 L 132 538 L 143 538 L 152 538 L 161 537 L 168 539 L 176 539 L 184 539 L 192 539 L 200 539 L 209 539 L 218 540 L 227 539 L 235 539 L 244 539 L 252 538 L 257 546 L 261 538 L 270 539 L 279 539 L 288 539 L 298 538 L 304 559 L 282 559 L 265 562 L 247 559 L 251 578 L 240 595 L 225 606 L 211 619 L 200 600 L 195 619 L 187 637 L 169 650 L 149 640 L 147 657 L 149 674 L 132 678 L 111 679 L 94 688 L 73 689 L 88 667 L 106 656 L 125 660 L 129 641 L 108 635 L 88 642 L 70 649 L 67 668 L 49 654 L 64 629 L 85 622 L 45 611 L 65 606 L 84 600 L 105 592 L 104 612 L 123 621 L 143 621 L 124 601 L 143 598 L 142 579 L 159 574 L 162 591 L 159 611 L 164 631 L 177 621 L 179 605 L 182 589 L 181 573 L 200 578 L 215 588 L 229 580 L 232 566 L 229 552 L 213 563 L 195 559 L 178 553 L 171 563 L 156 555 L 139 560 L 124 580 L 121 558 L 120 538 L 108 538 L 95 537 L 83 538 L 71 538 L 59 537 L 48 538 L 37 540 L 27 537 L 17 539 L 5 538 L 10 559 L 10 579 L 29 567 L 47 564 L 63 557 L 81 560 L 99 556 L 106 572 L 88 579 L 68 580 L 50 587 L 31 592 L 11 598 L 8 616 L 26 617 L 42 633 L 26 644 L 9 635 L 9 658 L 29 664 L 53 681 L 36 681 L 25 694 L 10 680 L 9 706 L 30 711 L 49 705 L 68 709 L 88 708 L 107 706 L 124 711 L 125 695 L 145 694 L 144 711 L 163 708 L 180 709 L 197 709 L 193 692 L 177 688 L 161 688 L 167 670 L 183 665 L 196 652 L 198 675 L 212 662 L 226 675 L 214 690 L 214 709 L 232 709 L 238 691 L 249 671 L 261 689 L 254 709 L 278 706 L 278 677 L 298 671 L 318 686 L 301 704 L 327 707 L 353 707 L 344 684 L 352 662 L 324 664 L 309 646 L 282 649 L 261 654 L 232 654 L 212 640 L 229 628 L 245 639 L 264 629 L 247 616 L 260 599 L 276 608 L 284 625 L 303 627 L 307 607 L 291 594 L 272 582 L 293 575 L 312 584 L 332 594 L 356 594 L 370 580 L 377 610 L 349 615 L 326 621 L 335 643 L 359 636 L 382 635 L 404 626 L 404 605 L 392 587 L 416 582 L 425 599 L 429 617 L 428 636 L 412 647 L 395 657 L 375 660 L 395 682 L 370 684 L 377 707 L 398 706 L 419 710 L 419 692 L 415 672 L 430 659 L 439 684 L 439 707 L 458 711 L 460 694 L 463 678 L 448 666 L 448 646 L 450 626 L 455 609 L 473 600 L 491 607 L 503 591 L 506 573 L 503 555 L 483 551 L 470 558 L 488 566 L 486 584 L 470 577 L 456 585 L 440 592 L 438 573 L 456 563 L 442 554 L 423 560 L 405 563 L 387 565 L 377 539 L 368 538 L 360 539 L 352 538 L 370 559 L 352 558 L 343 574 L 323 566 L 332 550 L 344 539 L 336 538 L 326 538 L 317 539 L 307 538 L 310 516 L 327 498 L 338 516 L 361 511 L 385 503 L 382 525 L 386 539 L 395 540 L 401 534 L 408 540 L 417 539 L 425 535 L 429 541 L 437 538 L 446 538 L 456 539 L 466 539 L 476 537 L 486 538 L 496 520 L 501 529 L 496 538 L 506 539 L 515 540 L 523 537 L 530 532 L 528 524 L 523 529 L 516 530 L 509 532 L 509 523 L 519 521 L 535 493 L 541 512 L 556 523 L 565 525 L 563 532 L 570 532 L 578 532 L 586 533 L 593 531 L 588 525 L 580 524 L 573 525 L 568 517 L 569 508 L 569 499 L 565 491 L 559 490 L 552 494 L 550 488 L 545 493 L 541 488 L 534 485 L 529 490 L 524 486 L 518 483 L 512 487 L 512 496 L 510 505 L 507 514 L 487 495 L 468 491 L 460 469 L 439 492 L 456 513 L 420 513 L 409 493 L 393 476 L 370 475 L 351 488 L 343 459 L 371 447 L 400 453 L 418 435 L 426 467 L 443 444 L 469 444 L 496 456 L 499 465 L 506 470 L 508 478 L 516 475 L 530 471 L 523 460 L 511 452 L 523 441 L 535 448 L 543 461 L 543 474 L 555 476 L 559 465 L 563 456 L 568 445 L 551 449 L 550 436 L 557 423 L 567 434 L 575 424 L 566 410 L 553 407 L 542 417 L 530 409 L 525 396 L 512 391 L 513 408 L 508 421 L 523 423 L 536 431 L 509 436 L 495 446 L 493 437 L 492 428 L 491 419 L 495 411 L 496 401 L 498 392 L 501 383 L 520 376 L 532 364 L 553 362 L 560 377 L 545 377 L 533 383 L 541 397 L 554 391 L 567 394 L 579 400 L 579 412 L 591 406 L 591 418 L 592 429 L 584 437 L 586 449 L 578 457 L 577 468 L 568 476 L 571 488 L 577 484 L 585 485 L 584 478 L 591 473 L 594 465 L 599 458 L 601 449 L 603 441 L 605 432 L 605 424 L 606 416 L 604 409 L 604 402 L 629 404 L 646 410 L 630 430 L 656 428 L 668 445 L 646 452 L 623 455 L 635 476 L 612 480 L 595 501 L 611 517 L 624 499 L 639 517 L 650 495 L 661 474 L 682 464 L 685 487 L 714 492 L 734 510 L 749 502 L 748 517 L 762 514 L 770 504 L 782 518 L 773 526 L 759 527 L 748 532 L 736 526 L 723 525 L 714 511 L 692 512 L 667 511 L 659 537 L 651 540 L 641 540 L 631 540 L 621 539 L 610 540 L 600 541 L 591 541 L 582 541 L 574 540 L 566 540 L 557 539 L 549 538 L 548 548 L 542 539 L 535 539 L 529 544 L 522 561 L 541 564 L 544 584 L 524 583 L 517 606 L 506 622 L 480 625 L 467 639 L 467 658 L 487 650 L 505 641 L 521 656 L 544 657 L 531 632 L 537 605 L 552 620 L 562 640 L 572 661 L 553 681 L 529 680 L 507 689 L 503 668 L 483 673 L 485 691 L 478 709 L 499 709 L 520 707 L 541 705 L 563 706 L 588 708 L 579 684 L 600 666 L 603 690 L 616 708 L 626 684 L 641 706 L 665 709 L 655 688 L 644 670 L 623 656 L 592 641 L 578 619 L 600 612 L 616 631 L 640 635 L 656 650 L 670 667 L 678 688 L 687 707 L 708 708 L 706 688 L 693 674 L 701 656 L 719 667 L 736 654 L 756 649 L 772 639 L 792 636 L 792 614 L 773 619 L 754 605 L 752 625 L 734 631 L 715 640 L 716 616 L 733 605 L 736 584 L 754 586 L 770 580 L 783 573 L 772 600 L 787 593 L 799 582 L 797 567 L 788 555 L 773 557 L 756 553 L 760 567 L 743 565 L 726 564 L 710 567 L 696 558 L 677 555 L 680 571 L 692 583 L 717 587 L 701 599 L 691 615 L 694 633 L 680 648 L 668 627 L 673 602 L 667 583 L 648 591 L 649 613 L 625 606 L 607 587 L 584 590 L 563 598 L 562 575 L 561 556 L 578 564 L 596 566 L 617 562 L 628 581 L 641 563 L 659 565 L 660 548 L 667 539 L 674 540 L 681 537 L 688 540 L 696 539 L 704 539 L 712 540 L 721 541 L 729 538 L 735 544 L 740 539 L 747 542 L 754 539 L 761 540 L 767 540 L 773 540 L 779 537 L 785 540 L 792 539 L 801 540 L 805 554 L 820 554 L 812 569 L 826 569 L 837 555 L 842 570 L 834 585 L 817 586 L 807 599 L 812 614 L 816 630 L 811 645 L 808 660 L 821 673 L 784 660 L 764 671 L 744 676 L 728 689 L 731 710 L 751 701 L 770 709 L 794 706 L 776 688 L 798 681 L 819 692 L 817 710 L 840 707 L 863 709 L 884 706 L 904 708 L 922 704 L 927 679 L 953 682 L 943 706 L 965 706 L 985 702 L 1008 708 L 975 674 L 987 649 L 989 623 L 1011 637 L 997 679 L 1014 662 L 1036 650 L 1062 645 L 1058 671 L 1039 679 L 1019 689 L 1038 707 L 1064 703 L 1093 708 L 1083 685 L 1080 662 L 1103 665 L 1110 687 L 1120 709 L 1147 709 L 1135 692 L 1146 675 L 1126 669 L 1124 649 L 1101 643 L 1082 637 L 1094 619 L 1070 617 L 1079 600 L 1096 596 L 1110 609 L 1115 629 L 1145 644 L 1153 658 L 1170 671 L 1161 689 L 1168 707 L 1186 709 L 1206 707 L 1229 709 L 1256 706 L 1258 680 L 1257 654 L 1241 636 L 1260 628 L 1244 615 L 1259 601 L 1261 577 L 1246 582 L 1237 597 L 1223 583 L 1233 570 L 1231 554 L 1248 560 L 1262 556 L 1265 537 L 1259 539 L 1251 538 L 1244 541 L 1240 534 L 1250 511 L 1255 490 L 1252 462 L 1250 429 L 1252 391 L 1253 353 L 1222 348 L 1244 312 L 1249 272 L 1215 251 L 1202 294 L 1187 329 L 1195 369 L 1221 397 L 1190 414 L 1212 435 L 1219 462 L 1223 487 L 1224 513 L 1203 508 L 1184 518 L 1164 506 L 1152 525 L 1138 505 L 1155 478 L 1188 489 L 1185 463 L 1170 439 L 1139 451 L 1113 428 L 1102 458 L 1122 481 L 1092 495 L 1111 512 L 1103 539 L 1111 539 L 1118 537 L 1124 540 L 1131 537 L 1137 539 L 1145 539 L 1152 540 L 1160 539 L 1168 539 L 1176 539 L 1183 539 L 1191 540 L 1199 538 L 1207 540 L 1214 537 L 1225 538 L 1234 539 L 1218 544 L 1214 562 L 1196 560 L 1205 579 L 1212 600 L 1224 615 L 1219 636 L 1230 653 L 1235 671 L 1237 691 L 1213 686 L 1212 664 L 1187 689 L 1191 668 L 1199 647 L 1205 625 L 1193 613 L 1194 595 L 1188 579 L 1176 568 L 1179 554 L 1162 556 L 1159 572 L 1157 587 L 1172 586 L 1178 601 L 1160 605 L 1173 618 L 1186 632 L 1175 651 L 1165 636 L 1153 624 L 1134 629 L 1127 611 L 1143 611 L 1145 596 L 1130 592 L 1114 590 L 1113 573 L 1129 571 L 1142 579 L 1146 561 L 1133 554 L 1115 556 L 1096 558 L 1098 577 L 1080 577 L 1076 558 L 1059 565 L 1039 562 L 1048 548 L 1095 538 L 1087 537 L 1079 539 L 1071 539 L 1063 540 L 1055 539 L 1046 538 L 1037 539 L 1027 539 L 1019 548 L 1023 567 L 1025 592 L 1043 582 L 1063 588 L 1047 604 L 1051 627 L 1030 622 L 1011 610 L 994 595 L 1007 578 L 1001 558 L 985 572 L 976 556 L 961 564 L 969 585 L 973 606 L 948 601 L 928 584 L 946 575 L 943 554 L 926 561 L 906 554 L 910 571 L 905 589 L 897 608 L 908 627 L 923 606 L 937 627 L 962 627 L 962 651 L 940 657 L 920 647 L 907 663 L 900 685 L 875 685 L 855 690 L 839 680 L 837 658 L 837 639 L 834 619 L 831 602 L 854 623 L 863 643 L 859 666 L 882 664 L 890 643 L 878 623 L 876 600 L 855 604 L 851 586 L 868 580 L 886 582 L 890 565 L 882 551 L 871 560 L 856 566 L 854 552 L 865 538 L 873 540 L 879 536 L 886 539 L 892 533 L 893 542 L 899 539 L 906 538 L 913 541 L 918 536 L 925 540 L 933 538 L 942 538 L 952 539 L 962 539 L 972 539 L 981 539 L 990 540 L 999 539 L 1008 540 L 1018 538 L 1012 516 L 1010 490 L 1011 464 L 978 456 L 978 484 L 990 511 L 968 512 L 948 507 L 925 503 L 902 509 L 873 509 L 886 488 L 912 476 L 946 476 L 950 442 L 926 452 L 906 436 L 932 412 L 972 423 L 967 393 L 939 377 L 987 369 L 962 348 L 932 342 L 912 316 L 899 289 L 932 274 L 913 253 L 883 261 L 857 276 L 870 305 L 884 334 L 906 357 L 906 386 L 889 407 L 876 437 L 882 462 L 855 479 L 827 468 L 846 445 L 859 416 L 853 388 L 872 365 L 849 331 L 835 357 L 798 351 L 773 375 L 746 390 L 761 413 L 746 445 L 733 424 L 717 407 L 702 433 L 696 423 L 692 413 L 690 404 L 687 396 L 679 402 L 676 412 L 681 421 L 687 429 L 692 438 L 698 445 L 707 446 L 704 456 L 714 456 L 710 465 L 715 472 L 740 474 L 764 479 L 771 455 L 782 431 L 793 402 L 815 381 L 829 411 L 813 434 L 801 458 L 792 481 L 801 500 L 826 496 L 847 510 L 855 538 L 844 539 L 833 539 L 822 539 L 811 540 L 811 520 " stroke="black" stroke-width="3" fill="none"/> 
 </svg>