<?xml version="1.0" ?>
<!DOCTYPE svg PUBLIC "-//W3C//DTD SVG 1.1//EN" "http://www.w3.org/Graphics/SVG/1.1/DTD/svg11.dtd">
<svg width="1080" height="934" version="1.1" xmlns="http://www.w3.org/2000/svg">
<path d="M375 12 L 366 37 L 358 60 L 396 73 L 369 87 L 363 117 L 337 129 L 316 151 L 295 177 L 260 186 L 229 179 L 230 209 L 255 232 L 281 209 L 293 242 L 269 266 L 278 295 L 288 328 L 316 340 L 322 370 L 313 398 L 288 409 L 285 439 L 259 450 L 281 472 L 322 475 L 308 458 L 316 432 L 338 416 L 345 441 L 344 464 L 351 490 L 370 477 L 373 448 L 400 453 L 425 467 L 394 476 L 409 492 L 386 503 L 383 523 L 362 512 L 338 516 L 327 497 L 310 515 L 299 492 L 282 513 L 279 539 L 270 539 L 261 538 L 252 538 L 244 539 L 235 539 L 226 539 L 218 540 L 209 539 L 200 539 L 192 539 L 184 539 L 176 539 L 168 539 L 156 555 L 139 560 L 120 558 L 124 580 L 105 592 L 84 600 L 65 606 L 45 611 L 31 592 L 50 587 L 68 580 L 88 579 L 106 572 L 99 556 L 81 560 L 63 557 L 47 564 L 29 566 L 16 539 L 27 537 L 37 540 L 48 538 L 59 537 L 71 538 L 83 538 L 95 537 L 108 538 L 120 538 L 132 538 L 143 538 L 152 538 L 161 537 L 138 508 L 164 500 L 182 516 L 201 502 L 174 474 L 154 440 L 145 409 L 126 382 L 117 349 L 131 320 L 127 282 L 143 245 L 179 244 L 165 277 L 200 279 L 192 320 L 160 311 L 158 352 L 197 362 L 173 386 L 188 415 L 186 445 L 203 467 L 223 485 L 229 510 L 253 514 L 265 494 L 248 478 L 229 456 L 222 429 L 255 419 L 264 389 L 291 368 L 261 352 L 234 370 L 220 397 L 223 336 L 254 320 L 231 298 L 237 265 L 216 242 L 195 215 L 191 185 L 173 157 L 157 130 L 207 157 L 201 128 L 185 103 L 217 95 L 238 121 L 239 150 L 268 153 L 291 139 L 271 116 L 249 89 L 276 82 L 305 86 L 306 114 L 337 97 L 329 68 L 325 40 L 341 14 L 307 13 L 288 34 L 295 58 L 258 49 L 270 13 L 239 18 L 207 13 L 212 41 L 230 65 L 193 67 L 164 54 L 176 20 L 144 20 L 112 17 L 79 17 L 47 20 L 16 11 L 14 36 L 22 58 L 44 78 L 65 53 L 99 49 L 131 60 L 158 91 L 127 97 L 120 125 L 124 153 L 145 178 L 160 209 L 122 214 L 107 182 L 85 206 L 48 207 L 67 177 L 87 153 L 86 121 L 98 83 L 69 94 L 13 89 L 15 125 L 14 157 L 42 111 L 52 140 L 38 173 L 14 193 L 14 226 L 15 261 L 21 291 L 13 320 L 43 329 L 60 301 L 53 268 L 42 239 L 76 237 L 108 247 L 88 275 L 98 310 L 77 336 L 89 369 L 78 400 L 107 416 L 119 448 L 138 474 L 110 501 L 93 474 L 82 444 L 54 431 L 44 399 L 51 365 L 16 352 L 16 383 L 15 416 L 20 445 L 16 473 L 53 469 L 76 503 L 44 502 L 14 505 L 5 538 L 10 559 L 10 579 L 11 598 L 8 616 L 26 617 L 64 629 L 43 633 L 27 644 L 9 635 L 9 658 L 29 664 L 49 655 L 70 649 L 88 642 L 85 622 L 104 613 L 108 635 L 129 641 L 125 660 L 106 656 L 111 679 L 94 688 L 73 689 L 88 667 L 67 668 L 53 681 L 36 681 L 25 694 L 10 680 L 9 706 L 30 711 L 49 705 L 68 709 L 88 708 L 107 706 L 124 711 L 125 695 L 132 678 L 149 674 L 147 657 L 149 640 L 169 650 L 183 665 L 167 670 L 177 688 L 161 688 L 145 694 L 144 710 L 162 708 L 180 709 L 197 709 L 193 692 L 198 675 L 196 652 L 212 640 L 187 637 L 195 620 L 211 619 L 201 600 L 215 588 L 200 578 L 182 573 L 182 589 L 179 605 L 177 621 L 164 631 L 159 611 L 162 592 L 143 621 L 123 621 L 124 601 L 143 599 L 142 579 L 159 574 L 170 564 L 178 553 L 195 559 L 213 563 L 229 552 L 232 566 L 229 580 L 225 606 L 240 596 L 260 599 L 272 582 L 251 578 L 247 559 L 258 547 L 265 563 L 282 559 L 288 539 L 298 538 L 307 538 L 317 539 L 326 538 L 336 538 L 344 539 L 352 538 L 360 539 L 368 538 L 377 539 L 386 539 L 395 540 L 401 534 L 408 540 L 417 539 L 418 513 L 437 493 L 453 471 L 476 467 L 489 491 L 469 500 L 451 515 L 425 535 L 429 541 L 437 538 L 446 538 L 456 539 L 466 538 L 476 537 L 486 538 L 496 538 L 501 529 L 494 518 L 507 514 L 508 523 L 518 521 L 522 529 L 515 530 L 508 532 L 506 539 L 515 540 L 524 538 L 529 532 L 527 524 L 544 514 L 552 495 L 553 488 L 544 492 L 537 487 L 534 495 L 529 487 L 522 484 L 510 505 L 513 496 L 514 487 L 519 476 L 512 478 L 510 470 L 504 464 L 501 455 L 498 445 L 497 435 L 496 425 L 497 415 L 474 405 L 450 413 L 470 437 L 445 443 L 420 437 L 426 411 L 400 399 L 394 426 L 368 416 L 373 386 L 345 390 L 353 360 L 345 329 L 377 336 L 401 312 L 414 343 L 394 366 L 425 379 L 456 382 L 444 352 L 440 319 L 455 289 L 426 283 L 390 280 L 358 298 L 320 304 L 311 275 L 330 249 L 360 262 L 382 228 L 361 191 L 348 222 L 313 215 L 327 187 L 346 161 L 374 150 L 406 152 L 392 187 L 428 180 L 453 156 L 430 129 L 395 115 L 422 94 L 449 78 L 428 52 L 397 42 L 409 14 L 442 17 L 479 14 L 465 46 L 501 43 L 522 16 L 560 16 L 548 51 L 518 70 L 545 91 L 566 119 L 583 149 L 615 161 L 646 171 L 675 185 L 690 154 L 650 133 L 687 120 L 670 91 L 712 85 L 722 122 L 757 130 L 767 165 L 744 189 L 729 156 L 710 187 L 685 217 L 647 212 L 613 198 L 578 184 L 581 223 L 553 207 L 533 183 L 549 155 L 525 130 L 504 105 L 483 79 L 460 111 L 484 137 L 506 165 L 478 184 L 451 207 L 417 217 L 409 251 L 448 246 L 477 265 L 484 301 L 510 286 L 528 261 L 503 246 L 481 223 L 513 210 L 543 235 L 560 260 L 580 283 L 588 253 L 614 232 L 637 250 L 614 271 L 655 275 L 668 244 L 688 271 L 686 296 L 711 311 L 741 318 L 760 283 L 723 284 L 737 254 L 705 249 L 719 220 L 750 220 L 767 245 L 791 261 L 798 291 L 777 314 L 765 343 L 740 359 L 776 376 L 798 351 L 813 324 L 849 331 L 835 357 L 815 381 L 794 403 L 829 411 L 853 387 L 873 365 L 884 334 L 870 305 L 857 276 L 833 299 L 824 265 L 851 244 L 876 228 L 851 203 L 825 230 L 795 228 L 778 201 L 816 199 L 800 172 L 792 141 L 788 108 L 823 130 L 832 167 L 866 170 L 856 140 L 861 109 L 889 89 L 895 53 L 865 43 L 855 72 L 830 97 L 806 79 L 823 53 L 784 43 L 776 73 L 750 95 L 746 57 L 716 48 L 684 55 L 650 59 L 616 62 L 632 97 L 608 122 L 586 87 L 584 48 L 599 16 L 631 22 L 663 19 L 695 17 L 728 16 L 757 19 L 786 13 L 813 18 L 839 21 L 864 12 L 894 17 L 923 20 L 946 46 L 920 68 L 950 84 L 982 98 L 979 65 L 979 36 L 956 13 L 995 13 L 1026 15 L 1012 47 L 1012 80 L 1042 69 L 1066 86 L 1092 76 L 1122 82 L 1141 50 L 1108 49 L 1074 49 L 1044 39 L 1059 14 L 1089 17 L 1120 16 L 1151 15 L 1177 25 L 1203 14 L 1230 22 L 1256 20 L 1249 62 L 1211 54 L 1176 63 L 1152 89 L 1159 131 L 1168 167 L 1130 180 L 1149 206 L 1182 215 L 1218 210 L 1206 174 L 1206 135 L 1182 105 L 1213 91 L 1249 103 L 1247 141 L 1249 181 L 1252 227 L 1249 272 L 1245 312 L 1222 347 L 1194 368 L 1253 352 L 1252 391 L 1221 396 L 1190 413 L 1171 392 L 1154 366 L 1146 331 L 1186 329 L 1203 294 L 1215 251 L 1177 259 L 1155 294 L 1124 270 L 1143 241 L 1097 242 L 1109 211 L 1092 177 L 1090 144 L 1126 150 L 1125 118 L 1097 107 L 1070 118 L 1041 105 L 1014 114 L 988 133 L 971 159 L 957 193 L 924 187 L 934 150 L 954 121 L 920 108 L 893 130 L 900 162 L 887 195 L 905 220 L 935 222 L 956 241 L 987 221 L 992 189 L 1027 210 L 1018 175 L 1020 145 L 1052 142 L 1053 174 L 1068 205 L 1062 235 L 1033 246 L 1006 250 L 981 261 L 961 282 L 932 275 L 913 252 L 883 260 L 899 289 L 912 316 L 942 309 L 974 316 L 997 294 L 1028 283 L 1060 269 L 1091 279 L 1112 309 L 1096 340 L 1117 362 L 1118 393 L 1146 413 L 1170 439 L 1186 462 L 1188 488 L 1204 508 L 1183 517 L 1152 523 L 1164 505 L 1156 477 L 1139 450 L 1112 427 L 1102 458 L 1122 480 L 1137 504 L 1111 512 L 1092 495 L 1066 498 L 1062 519 L 1036 506 L 1013 516 L 1010 490 L 1011 464 L 1006 435 L 1005 405 L 1021 378 L 1037 354 L 1045 405 L 1040 441 L 1041 476 L 1071 468 L 1074 435 L 1084 403 L 1071 372 L 1064 336 L 1066 304 L 1030 317 L 1001 338 L 988 369 L 967 393 L 973 422 L 950 441 L 926 452 L 906 435 L 932 412 L 939 376 L 963 348 L 932 342 L 906 357 L 906 386 L 889 406 L 859 415 L 876 436 L 882 461 L 856 479 L 828 467 L 846 445 L 814 435 L 802 462 L 782 480 L 802 495 L 812 518 L 827 496 L 847 510 L 873 509 L 886 487 L 912 475 L 947 476 L 978 456 L 978 484 L 990 510 L 968 512 L 948 506 L 925 503 L 902 509 L 892 532 L 893 542 L 886 539 L 879 537 L 873 540 L 882 552 L 891 565 L 887 583 L 906 590 L 897 609 L 876 601 L 878 623 L 891 643 L 859 666 L 863 644 L 855 624 L 855 604 L 851 587 L 868 581 L 871 561 L 857 567 L 842 570 L 827 570 L 812 569 L 799 582 L 787 594 L 783 573 L 770 581 L 754 586 L 736 584 L 717 588 L 701 599 L 692 583 L 680 571 L 677 556 L 696 558 L 710 567 L 726 564 L 743 565 L 756 553 L 760 568 L 773 558 L 788 555 L 797 567 L 805 554 L 821 554 L 837 555 L 854 552 L 865 538 L 855 538 L 844 539 L 833 539 L 822 539 L 811 540 L 801 540 L 792 539 L 785 540 L 780 536 L 774 541 L 767 539 L 773 526 L 783 517 L 760 527 L 763 514 L 769 502 L 749 502 L 748 517 L 748 531 L 761 540 L 754 539 L 747 541 L 740 539 L 734 545 L 729 538 L 721 541 L 712 540 L 704 539 L 696 539 L 688 540 L 681 537 L 675 540 L 667 539 L 667 510 L 651 490 L 632 476 L 632 454 L 634 431 L 641 408 L 658 425 L 660 448 L 667 468 L 684 485 L 692 510 L 712 508 L 723 524 L 736 525 L 734 510 L 722 488 L 714 482 L 722 477 L 713 472 L 716 463 L 705 464 L 699 454 L 694 442 L 688 431 L 682 419 L 675 408 L 668 399 L 675 390 L 662 388 L 650 383 L 645 374 L 634 365 L 642 356 L 649 362 L 659 378 L 668 375 L 675 368 L 681 374 L 684 382 L 688 391 L 690 399 L 694 407 L 697 416 L 701 425 L 704 434 L 708 444 L 712 454 L 744 447 L 752 475 L 771 454 L 784 431 L 762 414 L 747 389 L 733 422 L 720 398 L 712 372 L 716 343 L 695 328 L 681 341 L 677 333 L 675 325 L 671 317 L 664 311 L 656 305 L 648 316 L 646 303 L 636 300 L 625 300 L 615 302 L 606 306 L 598 314 L 589 313 L 590 306 L 580 311 L 572 312 L 561 312 L 546 287 L 530 311 L 506 328 L 475 328 L 474 352 L 485 372 L 505 385 L 501 394 L 499 405 L 514 404 L 512 417 L 512 431 L 511 444 L 516 456 L 527 460 L 533 472 L 546 476 L 559 475 L 569 469 L 579 474 L 585 462 L 574 457 L 559 460 L 552 449 L 545 462 L 537 449 L 525 441 L 526 424 L 538 431 L 551 436 L 557 423 L 569 435 L 567 446 L 585 448 L 589 437 L 597 428 L 588 420 L 576 425 L 566 411 L 553 406 L 543 416 L 530 410 L 527 397 L 541 395 L 554 391 L 567 395 L 580 396 L 578 410 L 592 407 L 592 395 L 593 389 L 587 384 L 576 381 L 562 379 L 546 376 L 529 381 L 517 389 L 510 375 L 515 365 L 523 356 L 534 366 L 532 347 L 547 352 L 543 342 L 549 335 L 553 327 L 558 321 L 567 320 L 580 324 L 595 324 L 609 321 L 620 314 L 634 312 L 629 323 L 640 326 L 650 330 L 660 324 L 662 336 L 668 346 L 682 351 L 680 360 L 667 359 L 656 360 L 655 350 L 650 343 L 642 341 L 639 348 L 629 352 L 620 359 L 610 368 L 600 361 L 593 350 L 608 350 L 619 344 L 631 337 L 620 330 L 610 334 L 599 338 L 586 335 L 581 346 L 569 335 L 560 346 L 557 363 L 572 355 L 572 368 L 585 364 L 595 373 L 604 380 L 617 382 L 623 373 L 631 378 L 639 382 L 631 388 L 625 393 L 616 396 L 607 393 L 600 396 L 608 401 L 609 409 L 601 415 L 610 420 L 609 430 L 607 440 L 604 449 L 601 458 L 597 467 L 591 475 L 585 482 L 576 486 L 569 489 L 561 491 L 570 498 L 571 507 L 569 516 L 560 526 L 566 524 L 573 524 L 579 532 L 580 523 L 586 525 L 598 522 L 596 503 L 610 484 L 621 505 L 640 516 L 641 540 L 650 539 L 659 538 L 659 550 L 659 566 L 667 584 L 673 603 L 669 627 L 649 614 L 648 590 L 626 603 L 623 626 L 643 637 L 658 650 L 680 648 L 695 633 L 691 615 L 715 616 L 733 606 L 753 605 L 772 600 L 792 614 L 793 636 L 784 660 L 797 681 L 819 692 L 821 672 L 807 661 L 812 646 L 817 630 L 813 615 L 807 599 L 817 586 L 834 586 L 831 602 L 834 619 L 837 639 L 837 658 L 839 681 L 855 690 L 876 685 L 882 664 L 900 685 L 907 663 L 920 646 L 909 627 L 923 607 L 928 585 L 946 576 L 948 602 L 938 628 L 962 627 L 962 651 L 940 657 L 927 679 L 953 681 L 975 674 L 997 679 L 1019 688 L 1039 679 L 1058 672 L 1080 661 L 1102 666 L 1101 644 L 1114 629 L 1093 619 L 1082 637 L 1061 646 L 1036 650 L 1014 662 L 1011 637 L 987 649 L 989 623 L 973 606 L 968 585 L 994 595 L 1007 579 L 1011 610 L 1030 622 L 1051 628 L 1069 617 L 1047 605 L 1025 593 L 1043 582 L 1062 589 L 1079 600 L 1079 577 L 1097 577 L 1096 596 L 1110 609 L 1126 611 L 1143 612 L 1145 596 L 1130 592 L 1114 590 L 1113 573 L 1128 572 L 1142 579 L 1146 561 L 1132 554 L 1115 556 L 1095 558 L 1076 558 L 1059 566 L 1048 550 L 1039 562 L 1023 568 L 1019 551 L 1001 559 L 985 573 L 976 556 L 961 564 L 944 555 L 926 561 L 910 572 L 906 555 L 899 539 L 906 538 L 913 541 L 918 535 L 925 540 L 933 538 L 942 538 L 952 539 L 962 540 L 971 539 L 981 539 L 990 540 L 999 539 L 1008 540 L 1018 539 L 1027 539 L 1037 539 L 1046 538 L 1055 539 L 1063 540 L 1071 539 L 1079 539 L 1087 537 L 1095 539 L 1103 539 L 1111 539 L 1118 538 L 1125 540 L 1131 536 L 1137 539 L 1145 539 L 1152 540 L 1160 539 L 1168 539 L 1176 539 L 1183 539 L 1191 540 L 1199 538 L 1207 540 L 1214 537 L 1218 544 L 1231 554 L 1233 539 L 1225 538 L 1225 512 L 1224 486 L 1219 461 L 1213 434 L 1250 428 L 1252 460 L 1255 488 L 1252 511 L 1240 534 L 1244 541 L 1251 538 L 1259 539 L 1265 537 L 1261 556 L 1248 561 L 1233 570 L 1214 563 L 1206 579 L 1196 560 L 1180 554 L 1162 555 L 1159 572 L 1176 568 L 1188 579 L 1172 586 L 1157 588 L 1160 605 L 1153 624 L 1165 637 L 1186 633 L 1173 618 L 1178 601 L 1193 613 L 1195 595 L 1212 600 L 1223 584 L 1236 597 L 1246 582 L 1261 577 L 1259 601 L 1244 615 L 1224 615 L 1206 625 L 1219 637 L 1241 636 L 1260 628 L 1257 654 L 1231 653 L 1235 671 L 1258 680 L 1256 706 L 1238 691 L 1229 709 L 1213 686 L 1207 707 L 1187 709 L 1187 689 L 1212 664 L 1199 647 L 1191 669 L 1176 652 L 1170 672 L 1161 689 L 1168 707 L 1146 709 L 1120 709 L 1135 691 L 1146 675 L 1153 658 L 1145 644 L 1134 630 L 1124 649 L 1126 669 L 1110 687 L 1092 708 L 1083 685 L 1064 703 L 1038 707 L 1009 708 L 985 703 L 965 706 L 943 706 L 922 704 L 904 708 L 884 706 L 863 709 L 840 707 L 817 710 L 794 706 L 770 709 L 731 710 L 751 701 L 775 688 L 764 671 L 744 676 L 728 689 L 719 667 L 736 654 L 755 649 L 772 640 L 773 620 L 752 625 L 734 631 L 715 641 L 701 656 L 693 674 L 706 688 L 708 708 L 687 707 L 664 708 L 678 688 L 670 668 L 644 668 L 624 655 L 626 683 L 654 688 L 640 706 L 616 708 L 603 689 L 602 666 L 582 649 L 602 637 L 601 610 L 607 586 L 584 590 L 563 577 L 545 585 L 541 565 L 548 546 L 561 558 L 579 564 L 597 565 L 618 561 L 628 581 L 640 563 L 631 540 L 621 539 L 610 540 L 601 541 L 591 541 L 593 532 L 586 534 L 582 541 L 574 541 L 566 540 L 570 533 L 563 533 L 557 539 L 549 537 L 541 539 L 533 539 L 530 551 L 521 563 L 503 555 L 506 573 L 524 584 L 517 606 L 537 605 L 552 619 L 563 600 L 579 621 L 558 640 L 530 631 L 506 622 L 491 607 L 504 592 L 487 585 L 488 567 L 484 551 L 470 558 L 455 563 L 441 554 L 422 560 L 404 563 L 387 565 L 370 559 L 352 558 L 332 552 L 323 567 L 304 559 L 293 575 L 312 584 L 291 595 L 276 608 L 247 616 L 229 628 L 245 639 L 232 654 L 212 662 L 226 675 L 214 690 L 214 709 L 232 709 L 239 691 L 255 709 L 279 706 L 301 704 L 327 707 L 353 707 L 343 684 L 351 662 L 335 642 L 309 647 L 325 664 L 318 686 L 299 671 L 278 677 L 261 689 L 249 671 L 261 654 L 283 650 L 264 629 L 284 626 L 303 627 L 308 607 L 326 621 L 332 595 L 343 575 L 370 580 L 356 595 L 377 610 L 349 615 L 360 636 L 382 635 L 403 626 L 403 605 L 391 588 L 415 582 L 438 573 L 456 586 L 470 577 L 472 600 L 455 609 L 480 624 L 467 638 L 450 626 L 440 592 L 425 599 L 428 617 L 428 636 L 430 659 L 415 672 L 418 691 L 394 682 L 411 647 L 395 657 L 374 660 L 370 684 L 377 707 L 398 706 L 418 710 L 439 707 L 439 684 L 460 694 L 458 711 L 478 709 L 485 691 L 499 709 L 520 707 L 541 706 L 552 683 L 528 681 L 507 689 L 503 668 L 483 672 L 463 678 L 448 666 L 448 646 L 467 658 L 487 650 L 505 641 L 520 656 L 541 657 L 565 664 L 564 706 L 588 708 L 579 682 " stroke="black" stroke-width="3" fill="none"/> 
 </svg>