<?xml version="1.0" ?>
<!DOCTYPE svg PUBLIC "-//W3C//DTD SVG 1.1//EN" "http://www.w3.org/Graphics/SVG/1.1/DTD/svg11.dtd">
<svg width="1080" height="934" version="1.1" xmlns="http://www.w3.org/2000/svg">
<path d="M864 12 L 894 17 L 923 20 L 956 13 L 979 35 L 995 13 L 1026 15 L 1045 39 L 1059 13 L 1089 17 L 1119 16 L 1151 15 L 1178 25 L 1203 14 L 1230 22 L 1256 20 L 1249 62 L 1248 102 L 1212 91 L 1210 54 L 1175 62 L 1140 50 L 1107 49 L 1074 49 L 1091 76 L 1122 83 L 1152 88 L 1158 130 L 1181 105 L 1206 135 L 1247 141 L 1248 180 L 1205 174 L 1168 166 L 1130 180 L 1126 150 L 1124 118 L 1096 107 L 1070 118 L 1090 143 L 1091 176 L 1109 211 L 1148 206 L 1182 215 L 1218 210 L 1252 226 L 1248 272 L 1246 311 L 1221 339 L 1252 354 L 1251 391 L 1222 404 L 1206 372 L 1151 356 L 1139 390 L 1173 383 L 1188 412 L 1152 420 L 1173 443 L 1187 466 L 1187 490 L 1156 479 L 1140 453 L 1122 481 L 1102 458 L 1115 428 L 1109 399 L 1108 368 L 1110 339 L 1107 307 L 1149 288 L 1150 321 L 1186 333 L 1200 295 L 1215 252 L 1177 260 L 1144 241 L 1120 265 L 1094 240 L 1061 235 L 1068 204 L 1053 174 L 1052 141 L 1018 175 L 1020 145 L 1015 113 L 1041 104 L 1066 87 L 1042 69 L 1012 80 L 1012 47 L 979 65 L 982 98 L 988 133 L 972 159 L 992 189 L 957 193 L 924 187 L 934 150 L 954 121 L 950 84 L 946 46 L 921 68 L 895 53 L 888 90 L 920 108 L 893 130 L 900 163 L 886 195 L 851 203 L 866 170 L 832 167 L 856 140 L 822 130 L 791 141 L 789 108 L 777 72 L 806 80 L 822 53 L 830 97 L 861 109 L 855 72 L 865 43 L 839 22 L 814 18 L 787 12 L 785 42 L 758 18 L 729 16 L 696 16 L 663 18 L 631 22 L 599 15 L 586 47 L 619 62 L 653 57 L 686 52 L 717 47 L 748 56 L 752 96 L 719 83 L 685 87 L 649 96 L 684 121 L 720 120 L 731 156 L 757 130 L 767 165 L 745 188 L 800 172 L 817 199 L 826 230 L 797 227 L 779 200 L 751 218 L 719 218 L 710 186 L 692 153 L 673 181 L 684 213 L 697 244 L 700 278 L 684 295 L 710 312 L 722 341 L 745 322 L 775 339 L 750 358 L 777 376 L 795 403 L 817 383 L 803 354 L 811 323 L 800 290 L 774 307 L 761 277 L 734 293 L 722 266 L 739 248 L 769 242 L 793 260 L 824 264 L 851 244 L 876 228 L 905 221 L 934 223 L 956 240 L 987 221 L 1027 210 L 1033 246 L 1005 250 L 980 261 L 961 281 L 932 274 L 913 253 L 883 261 L 857 276 L 834 299 L 848 331 L 837 358 L 873 365 L 854 388 L 830 412 L 860 416 L 890 407 L 906 386 L 939 377 L 906 357 L 884 334 L 870 305 L 899 289 L 912 316 L 942 309 L 973 316 L 932 342 L 962 348 L 988 369 L 967 393 L 972 423 L 950 442 L 932 412 L 906 436 L 926 452 L 946 476 L 978 456 L 978 484 L 1010 490 L 1011 464 L 1006 435 L 1004 405 L 1041 442 L 1043 407 L 1022 378 L 1036 351 L 1030 318 L 1000 337 L 997 294 L 1027 282 L 1059 269 L 1090 278 L 1064 303 L 1070 336 L 1067 372 L 1079 404 L 1075 436 L 1071 469 L 1041 477 L 1036 507 L 1012 516 L 990 511 L 968 512 L 948 507 L 925 503 L 902 510 L 873 509 L 848 510 L 855 479 L 886 488 L 912 476 L 882 462 L 876 437 L 846 445 L 827 468 L 826 497 L 802 503 L 810 521 L 811 540 L 801 540 L 793 540 L 785 539 L 779 539 L 773 540 L 767 540 L 761 540 L 754 540 L 747 542 L 747 534 L 739 538 L 735 544 L 729 538 L 721 541 L 712 540 L 704 539 L 696 539 L 688 540 L 681 537 L 674 540 L 667 538 L 667 510 L 691 512 L 712 508 L 722 525 L 734 523 L 734 507 L 744 513 L 750 522 L 760 528 L 772 525 L 783 520 L 773 505 L 763 514 L 753 502 L 768 479 L 745 474 L 747 444 L 773 455 L 795 481 L 801 457 L 813 434 L 781 430 L 763 409 L 734 421 L 741 393 L 726 375 L 708 366 L 686 365 L 689 357 L 690 347 L 689 337 L 684 329 L 680 321 L 673 315 L 666 310 L 657 304 L 647 304 L 637 303 L 627 306 L 620 312 L 629 325 L 636 316 L 647 321 L 659 319 L 668 330 L 675 344 L 656 334 L 641 335 L 628 342 L 618 332 L 611 343 L 611 355 L 614 369 L 624 357 L 637 354 L 650 357 L 650 348 L 661 350 L 668 358 L 671 368 L 658 364 L 643 368 L 651 379 L 654 388 L 665 388 L 663 379 L 672 382 L 679 377 L 686 373 L 689 381 L 693 389 L 681 392 L 670 397 L 675 407 L 686 405 L 695 399 L 703 405 L 697 413 L 704 419 L 706 429 L 710 439 L 693 438 L 687 428 L 681 417 L 660 427 L 640 417 L 635 447 L 656 451 L 678 459 L 698 448 L 703 457 L 714 450 L 718 461 L 707 466 L 713 472 L 721 474 L 724 485 L 715 481 L 688 487 L 662 478 L 634 474 L 646 496 L 637 518 L 622 502 L 601 509 L 612 484 L 601 471 L 589 469 L 596 478 L 589 484 L 582 489 L 572 490 L 572 497 L 575 506 L 572 515 L 574 525 L 567 524 L 559 528 L 564 532 L 571 532 L 579 532 L 583 525 L 593 530 L 587 533 L 591 541 L 600 540 L 610 540 L 621 539 L 631 541 L 641 540 L 651 539 L 659 537 L 618 561 L 597 565 L 607 585 L 584 590 L 563 599 L 563 576 L 543 565 L 544 584 L 524 583 L 521 563 L 532 552 L 551 547 L 562 557 L 579 564 L 582 541 L 574 541 L 566 540 L 558 538 L 549 538 L 542 539 L 534 539 L 525 539 L 526 532 L 530 526 L 543 512 L 523 524 L 516 531 L 516 539 L 507 539 L 507 531 L 516 522 L 507 521 L 500 528 L 498 518 L 511 509 L 517 498 L 482 495 L 456 511 L 437 493 L 427 467 L 456 473 L 482 464 L 509 457 L 513 468 L 519 477 L 522 487 L 531 486 L 538 491 L 546 491 L 553 494 L 562 494 L 548 477 L 534 473 L 527 461 L 536 449 L 544 462 L 550 449 L 559 457 L 562 468 L 560 481 L 574 478 L 577 467 L 573 456 L 586 455 L 598 457 L 607 463 L 610 455 L 612 447 L 615 440 L 615 432 L 616 425 L 616 417 L 616 408 L 602 410 L 590 416 L 601 424 L 602 436 L 595 445 L 580 442 L 588 432 L 576 424 L 567 433 L 564 445 L 549 436 L 557 423 L 566 411 L 579 409 L 586 399 L 571 396 L 556 390 L 541 395 L 554 405 L 543 414 L 531 410 L 517 404 L 525 395 L 528 382 L 540 377 L 556 374 L 560 357 L 568 345 L 583 342 L 578 355 L 572 368 L 569 381 L 587 367 L 583 381 L 593 389 L 599 395 L 607 396 L 616 398 L 625 395 L 634 391 L 643 385 L 635 379 L 628 372 L 621 383 L 608 383 L 598 375 L 600 363 L 594 351 L 597 339 L 605 328 L 610 321 L 612 315 L 604 311 L 592 308 L 596 314 L 589 327 L 575 332 L 561 331 L 556 338 L 551 346 L 538 348 L 544 362 L 528 358 L 520 369 L 513 380 L 509 391 L 505 401 L 502 412 L 502 423 L 515 417 L 523 426 L 538 427 L 526 437 L 519 448 L 505 445 L 504 434 L 475 429 L 451 442 L 454 403 L 475 389 L 483 362 L 452 355 L 429 380 L 430 414 L 423 439 L 401 453 L 373 448 L 369 417 L 396 427 L 402 400 L 374 386 L 395 367 L 417 346 L 436 319 L 400 316 L 376 339 L 352 361 L 343 329 L 314 308 L 336 281 L 362 302 L 392 284 L 367 259 L 329 248 L 348 222 L 383 224 L 391 186 L 427 180 L 452 156 L 483 136 L 460 111 L 430 129 L 406 152 L 373 149 L 346 161 L 361 191 L 327 186 L 297 176 L 266 185 L 238 179 L 207 186 L 191 211 L 156 213 L 119 215 L 109 247 L 143 247 L 126 284 L 88 270 L 56 265 L 42 238 L 48 207 L 77 234 L 84 203 L 106 182 L 140 181 L 174 175 L 205 156 L 210 124 L 219 93 L 187 96 L 157 102 L 179 134 L 149 143 L 116 152 L 121 122 L 129 94 L 98 85 L 69 93 L 43 78 L 65 53 L 100 50 L 132 60 L 163 59 L 194 62 L 216 40 L 231 65 L 251 89 L 277 82 L 272 115 L 243 120 L 237 149 L 267 152 L 291 139 L 316 150 L 337 129 L 363 116 L 395 115 L 421 94 L 449 78 L 483 79 L 504 105 L 525 130 L 506 165 L 478 183 L 451 206 L 418 216 L 409 251 L 425 282 L 449 245 L 481 222 L 514 210 L 541 237 L 559 261 L 554 289 L 526 293 L 524 266 L 503 246 L 479 266 L 455 287 L 495 295 L 469 318 L 492 337 L 515 325 L 540 316 L 564 323 L 571 318 L 579 317 L 585 312 L 574 309 L 583 283 L 591 256 L 582 226 L 612 277 L 639 267 L 670 268 L 658 237 L 645 206 L 620 237 L 610 202 L 576 186 L 553 209 L 534 183 L 549 154 L 582 150 L 611 168 L 643 168 L 651 135 L 613 132 L 613 100 L 580 82 L 570 118 L 543 93 L 518 70 L 548 51 L 560 16 L 521 16 L 501 43 L 465 46 L 478 14 L 441 17 L 408 14 L 398 42 L 428 52 L 396 73 L 369 87 L 357 60 L 367 37 L 375 12 L 341 14 L 325 40 L 329 68 L 336 97 L 306 113 L 305 85 L 295 58 L 258 49 L 288 34 L 308 13 L 270 13 L 240 17 L 206 13 L 176 21 L 144 20 L 112 17 L 79 17 L 47 20 L 16 11 L 14 36 L 22 57 L 13 89 L 14 125 L 41 110 L 51 140 L 85 121 L 84 153 L 66 177 L 38 173 L 14 157 L 14 193 L 14 226 L 17 259 L 11 290 L 36 291 L 61 302 L 92 299 L 106 325 L 136 321 L 162 352 L 125 353 L 128 385 L 147 411 L 153 441 L 140 475 L 118 450 L 82 445 L 53 469 L 54 432 L 45 400 L 80 401 L 108 417 L 96 368 L 64 368 L 37 367 L 76 336 L 44 332 L 15 320 L 13 352 L 13 386 L 16 418 L 20 446 L 16 474 L 14 505 L 43 503 L 75 503 L 92 475 L 111 500 L 139 508 L 165 500 L 174 475 L 186 445 L 190 416 L 174 387 L 199 363 L 223 337 L 193 320 L 162 308 L 165 276 L 200 280 L 180 245 L 214 239 L 232 210 L 255 232 L 279 209 L 313 213 L 292 241 L 301 274 L 275 297 L 266 266 L 234 264 L 231 298 L 253 322 L 287 330 L 315 344 L 321 372 L 346 391 L 339 417 L 346 441 L 345 464 L 351 490 L 362 512 L 371 477 L 394 476 L 409 493 L 419 513 L 385 504 L 382 526 L 386 540 L 395 540 L 401 534 L 408 540 L 417 539 L 425 535 L 429 541 L 437 537 L 446 538 L 456 539 L 466 538 L 476 537 L 486 538 L 497 538 L 503 555 L 506 573 L 503 591 L 486 584 L 488 566 L 483 551 L 470 558 L 470 577 L 456 585 L 440 592 L 438 573 L 456 563 L 442 554 L 423 560 L 405 563 L 387 565 L 369 559 L 377 539 L 368 538 L 360 539 L 353 538 L 350 556 L 345 539 L 336 538 L 338 516 L 327 497 L 322 475 L 307 459 L 316 433 L 314 400 L 289 410 L 285 440 L 282 473 L 299 493 L 310 516 L 282 513 L 265 495 L 254 515 L 230 510 L 248 478 L 259 451 L 256 419 L 264 389 L 290 369 L 261 353 L 235 371 L 221 398 L 224 430 L 229 456 L 203 468 L 223 486 L 201 503 L 182 516 L 176 539 L 168 539 L 161 537 L 154 538 L 146 539 L 138 537 L 128 539 L 118 537 L 106 538 L 94 537 L 82 538 L 70 538 L 59 537 L 48 538 L 37 540 L 27 537 L 17 539 L 5 538 L 10 559 L 10 579 L 29 567 L 47 564 L 63 557 L 80 560 L 99 556 L 106 573 L 120 558 L 139 559 L 156 556 L 178 553 L 171 564 L 160 574 L 142 579 L 124 580 L 124 601 L 143 598 L 143 621 L 159 611 L 162 591 L 182 589 L 181 573 L 200 578 L 215 588 L 229 580 L 232 566 L 229 552 L 213 563 L 195 559 L 184 539 L 192 539 L 200 539 L 209 539 L 218 540 L 227 539 L 235 539 L 244 539 L 252 538 L 261 538 L 257 546 L 247 559 L 265 562 L 282 559 L 270 539 L 279 539 L 288 539 L 298 538 L 307 539 L 316 538 L 326 538 L 333 547 L 318 555 L 302 561 L 292 576 L 290 595 L 276 608 L 284 625 L 282 649 L 261 654 L 249 671 L 232 654 L 212 662 L 198 675 L 193 692 L 177 688 L 161 688 L 167 670 L 183 665 L 169 650 L 187 637 L 196 652 L 212 640 L 229 628 L 245 639 L 264 629 L 247 616 L 259 599 L 272 582 L 251 578 L 240 595 L 225 606 L 211 619 L 195 619 L 200 600 L 179 605 L 177 621 L 164 631 L 149 640 L 147 657 L 129 641 L 125 660 L 111 679 L 94 688 L 73 689 L 53 681 L 36 681 L 29 664 L 49 654 L 42 633 L 64 629 L 85 622 L 88 642 L 70 649 L 67 668 L 88 667 L 106 656 L 108 635 L 123 621 L 104 612 L 105 592 L 88 580 L 68 580 L 83 600 L 65 606 L 50 587 L 31 592 L 11 598 L 8 616 L 26 617 L 45 611 L 26 644 L 9 635 L 9 658 L 10 680 L 25 694 L 9 706 L 30 711 L 49 705 L 68 709 L 88 708 L 107 706 L 124 711 L 125 695 L 132 678 L 149 674 L 145 694 L 144 711 L 163 708 L 180 709 L 197 709 L 214 709 L 214 690 L 226 675 L 238 691 L 232 709 L 254 709 L 278 706 L 261 689 L 278 677 L 298 671 L 301 704 L 327 707 L 318 686 L 324 664 L 309 646 L 303 627 L 335 643 L 360 636 L 382 635 L 404 626 L 404 605 L 377 610 L 349 615 L 326 621 L 307 607 L 311 585 L 332 595 L 326 570 L 346 574 L 356 594 L 371 581 L 392 587 L 416 582 L 425 599 L 429 617 L 428 636 L 412 647 L 395 657 L 375 660 L 352 662 L 344 684 L 353 707 L 370 684 L 377 707 L 398 706 L 395 682 L 415 672 L 430 659 L 450 626 L 455 609 L 473 600 L 491 607 L 480 624 L 467 639 L 448 646 L 448 666 L 439 684 L 419 692 L 419 710 L 439 707 L 458 711 L 460 694 L 463 678 L 467 658 L 482 673 L 485 691 L 478 709 L 498 709 L 519 707 L 538 705 L 552 683 L 528 680 L 507 689 L 503 668 L 520 656 L 541 658 L 557 640 L 530 631 L 504 641 L 487 650 L 505 622 L 517 606 L 537 604 L 552 619 L 578 619 L 601 609 L 626 603 L 623 627 L 602 635 L 581 646 L 566 664 L 581 682 L 559 706 L 579 707 L 600 706 L 622 707 L 644 707 L 656 688 L 631 684 L 609 683 L 599 662 L 623 656 L 646 667 L 659 649 L 643 638 L 649 614 L 669 626 L 673 602 L 667 583 L 648 590 L 629 580 L 641 563 L 659 565 L 660 548 L 677 555 L 681 571 L 696 558 L 710 566 L 726 564 L 743 565 L 756 553 L 760 567 L 773 557 L 788 555 L 797 567 L 799 582 L 783 573 L 770 580 L 754 586 L 736 584 L 717 587 L 693 583 L 701 599 L 691 614 L 695 633 L 681 648 L 671 667 L 678 688 L 693 674 L 701 656 L 720 667 L 728 689 L 744 676 L 736 654 L 756 649 L 764 671 L 776 688 L 798 681 L 784 660 L 772 639 L 792 636 L 792 614 L 773 619 L 752 625 L 734 631 L 715 640 L 716 616 L 733 605 L 754 605 L 772 600 L 787 593 L 807 599 L 812 614 L 816 630 L 811 645 L 808 660 L 821 673 L 839 680 L 855 690 L 875 685 L 882 664 L 890 643 L 878 623 L 875 600 L 854 604 L 854 623 L 863 643 L 859 666 L 837 658 L 837 639 L 834 619 L 831 602 L 817 586 L 834 585 L 851 586 L 868 580 L 857 567 L 854 552 L 837 555 L 842 570 L 826 569 L 812 569 L 805 554 L 820 554 L 822 539 L 833 539 L 844 539 L 855 538 L 865 538 L 873 539 L 880 536 L 887 540 L 893 536 L 899 539 L 907 538 L 912 544 L 917 536 L 925 540 L 933 538 L 942 538 L 952 539 L 962 539 L 972 539 L 981 539 L 990 540 L 999 539 L 1008 540 L 1018 538 L 1027 539 L 1037 539 L 1046 538 L 1048 548 L 1039 562 L 1019 548 L 1023 567 L 1025 592 L 1043 582 L 1059 566 L 1076 558 L 1080 577 L 1063 588 L 1047 604 L 1051 627 L 1070 617 L 1079 600 L 1096 596 L 1098 577 L 1113 574 L 1114 590 L 1130 592 L 1142 579 L 1129 572 L 1096 558 L 1115 558 L 1132 554 L 1146 561 L 1162 556 L 1159 571 L 1157 587 L 1172 586 L 1178 601 L 1194 595 L 1212 600 L 1223 584 L 1205 579 L 1188 579 L 1176 568 L 1179 554 L 1196 560 L 1214 563 L 1230 554 L 1240 541 L 1232 539 L 1224 538 L 1217 544 L 1214 537 L 1206 540 L 1199 538 L 1191 540 L 1183 539 L 1176 539 L 1168 539 L 1160 539 L 1152 541 L 1145 539 L 1138 539 L 1131 537 L 1125 539 L 1118 541 L 1115 535 L 1110 541 L 1103 538 L 1095 539 L 1087 537 L 1079 539 L 1071 539 L 1063 540 L 1055 539 L 1061 519 L 1066 499 L 1092 495 L 1111 511 L 1138 506 L 1152 526 L 1164 507 L 1184 518 L 1203 508 L 1224 513 L 1223 487 L 1220 461 L 1211 436 L 1250 430 L 1252 462 L 1256 490 L 1249 510 L 1240 533 L 1247 539 L 1254 537 L 1265 533 L 1262 540 L 1261 557 L 1247 560 L 1233 570 L 1247 582 L 1261 577 L 1259 601 L 1237 597 L 1244 615 L 1260 628 L 1241 636 L 1257 654 L 1258 680 L 1256 706 L 1229 709 L 1206 707 L 1213 686 L 1237 691 L 1235 671 L 1230 653 L 1219 636 L 1224 615 L 1205 625 L 1193 613 L 1186 632 L 1199 647 L 1212 664 L 1191 668 L 1187 689 L 1186 709 L 1168 707 L 1147 709 L 1135 692 L 1120 709 L 1093 708 L 1083 685 L 1064 703 L 1038 707 L 1039 679 L 1058 671 L 1080 662 L 1103 665 L 1110 687 L 1126 669 L 1124 649 L 1101 643 L 1115 629 L 1134 629 L 1145 644 L 1153 658 L 1146 675 L 1161 689 L 1170 671 L 1175 651 L 1165 636 L 1153 624 L 1173 618 L 1160 605 L 1145 596 L 1143 611 L 1127 611 L 1110 609 L 1094 619 L 1082 637 L 1062 645 L 1036 650 L 1014 662 L 1011 637 L 1030 622 L 1012 610 L 994 595 L 1007 578 L 1001 558 L 985 572 L 976 556 L 961 564 L 946 575 L 943 554 L 927 561 L 928 583 L 909 566 L 897 551 L 881 550 L 871 560 L 889 566 L 887 583 L 906 587 L 897 607 L 908 627 L 920 646 L 937 627 L 923 606 L 948 601 L 969 585 L 973 606 L 962 627 L 989 623 L 987 649 L 962 651 L 940 657 L 927 679 L 953 682 L 975 674 L 997 679 L 1019 689 L 1008 708 L 985 702 L 965 706 L 943 706 L 922 704 L 907 664 L 900 685 L 904 708 L 884 706 L 863 709 L 840 707 L 819 692 L 817 710 L 794 706 L 770 709 L 751 701 L 731 710 L 708 708 L 707 688 L 688 706 L 667 708 " stroke="black" stroke-width="3" fill="none"/> 
 </svg>