<?xml version="1.0" ?>
<!DOCTYPE svg PUBLIC "-//W3C//DTD SVG 1.1//EN" "http://www.w3.org/Graphics/SVG/1.1/DTD/svg11.dtd">
<svg width="1080" height="934" version="1.1" xmlns="http://www.w3.org/2000/svg">
<path d="M865 12 L 894 17 L 923 20 L 956 13 L 946 47 L 949 84 L 982 99 L 1012 81 L 1042 69 L 1066 86 L 1092 76 L 1122 82 L 1152 89 L 1141 50 L 1108 49 L 1074 49 L 1044 39 L 1012 47 L 979 65 L 979 36 L 995 13 L 1026 15 L 1059 14 L 1089 17 L 1120 16 L 1151 15 L 1177 25 L 1203 14 L 1230 22 L 1256 20 L 1249 62 L 1211 54 L 1176 63 L 1213 91 L 1249 103 L 1247 141 L 1249 181 L 1206 174 L 1206 135 L 1182 105 L 1159 131 L 1168 167 L 1130 180 L 1126 150 L 1125 118 L 1097 107 L 1070 118 L 1041 105 L 1014 114 L 988 134 L 971 160 L 954 121 L 934 149 L 910 171 L 894 135 L 920 109 L 889 90 L 920 69 L 895 53 L 864 43 L 839 21 L 813 18 L 823 53 L 807 79 L 831 98 L 855 73 L 863 110 L 855 140 L 822 131 L 791 140 L 789 108 L 757 130 L 750 95 L 776 73 L 784 43 L 786 13 L 757 19 L 728 16 L 746 57 L 716 48 L 695 17 L 663 19 L 684 55 L 650 59 L 631 22 L 599 16 L 584 48 L 616 62 L 586 87 L 608 122 L 583 149 L 566 119 L 545 92 L 548 51 L 560 16 L 522 16 L 501 43 L 518 70 L 483 79 L 460 111 L 504 105 L 525 130 L 549 156 L 533 184 L 515 213 L 481 223 L 503 250 L 527 261 L 547 239 L 553 275 L 580 286 L 550 307 L 522 322 L 519 290 L 491 296 L 483 324 L 466 346 L 440 356 L 414 342 L 441 320 L 458 293 L 475 265 L 448 245 L 414 216 L 382 188 L 373 149 L 405 154 L 423 181 L 450 205 L 480 185 L 506 165 L 483 137 L 452 158 L 430 130 L 395 116 L 364 117 L 336 97 L 329 68 L 366 37 L 358 60 L 369 87 L 396 73 L 422 94 L 449 78 L 428 52 L 465 46 L 479 14 L 442 17 L 409 14 L 397 42 L 375 12 L 341 14 L 325 40 L 307 13 L 270 13 L 239 18 L 207 13 L 212 41 L 230 65 L 258 49 L 288 34 L 295 58 L 305 86 L 305 113 L 276 83 L 250 89 L 270 117 L 237 121 L 217 95 L 193 67 L 164 54 L 176 20 L 144 20 L 112 17 L 79 17 L 47 20 L 16 11 L 14 36 L 22 58 L 13 89 L 15 125 L 42 111 L 52 140 L 87 153 L 86 121 L 69 94 L 44 78 L 65 53 L 99 49 L 131 60 L 98 83 L 128 97 L 158 91 L 185 103 L 201 128 L 208 156 L 241 149 L 270 156 L 291 139 L 316 150 L 337 129 L 346 162 L 339 188 L 301 178 L 316 212 L 355 216 L 382 233 L 412 251 L 427 283 L 390 279 L 401 312 L 377 338 L 359 300 L 357 265 L 333 243 L 314 273 L 320 304 L 344 329 L 350 361 L 346 394 L 373 384 L 395 366 L 426 382 L 400 399 L 394 426 L 368 414 L 345 429 L 343 458 L 324 475 L 306 459 L 317 435 L 322 407 L 292 405 L 286 437 L 299 491 L 281 471 L 259 450 L 256 418 L 263 388 L 290 367 L 318 376 L 316 343 L 289 328 L 279 295 L 271 265 L 295 242 L 282 209 L 262 187 L 230 179 L 230 208 L 255 231 L 238 265 L 216 242 L 195 215 L 191 185 L 173 157 L 156 130 L 120 125 L 124 153 L 145 178 L 160 209 L 122 214 L 107 182 L 85 206 L 76 238 L 108 247 L 88 275 L 98 310 L 127 282 L 143 245 L 179 245 L 165 277 L 200 279 L 231 298 L 254 320 L 261 352 L 234 370 L 220 397 L 197 362 L 223 336 L 192 320 L 160 311 L 131 321 L 158 352 L 173 386 L 189 415 L 223 429 L 229 455 L 223 485 L 248 478 L 265 494 L 282 512 L 253 514 L 229 510 L 201 502 L 182 516 L 164 500 L 174 474 L 203 468 L 187 445 L 154 440 L 145 409 L 126 382 L 116 349 L 77 336 L 42 331 L 59 301 L 52 269 L 42 239 L 48 208 L 67 177 L 38 173 L 14 157 L 14 194 L 14 227 L 15 262 L 20 295 L 13 329 L 17 365 L 52 365 L 89 370 L 76 400 L 107 415 L 119 448 L 138 474 L 82 444 L 53 430 L 42 398 L 13 402 L 18 436 L 17 469 L 14 502 L 43 502 L 52 468 L 75 502 L 93 474 L 110 500 L 138 508 L 132 538 L 120 538 L 108 538 L 95 537 L 83 538 L 71 538 L 59 537 L 48 538 L 37 540 L 27 537 L 17 539 L 5 538 L 10 559 L 29 566 L 47 564 L 63 557 L 68 580 L 88 579 L 81 560 L 99 556 L 106 572 L 120 558 L 124 580 L 142 579 L 143 599 L 124 601 L 123 621 L 143 621 L 160 611 L 162 592 L 159 574 L 156 555 L 139 560 L 143 538 L 152 538 L 161 537 L 168 539 L 176 539 L 184 539 L 192 539 L 200 539 L 209 539 L 218 540 L 226 539 L 235 539 L 244 539 L 252 538 L 258 546 L 262 538 L 271 539 L 281 538 L 292 539 L 283 559 L 265 562 L 247 559 L 251 579 L 272 581 L 261 599 L 242 598 L 231 611 L 216 620 L 198 621 L 201 601 L 217 593 L 229 581 L 232 566 L 229 552 L 213 563 L 195 559 L 178 553 L 170 564 L 182 574 L 202 579 L 183 589 L 180 605 L 178 621 L 187 638 L 213 640 L 233 654 L 236 633 L 255 622 L 280 633 L 277 613 L 288 597 L 300 622 L 309 604 L 312 583 L 293 576 L 304 559 L 324 565 L 350 558 L 343 575 L 332 595 L 356 595 L 349 616 L 326 621 L 306 644 L 277 654 L 256 647 L 253 669 L 239 690 L 214 690 L 227 674 L 213 662 L 196 652 L 198 675 L 193 692 L 177 688 L 167 670 L 183 665 L 169 650 L 164 631 L 149 640 L 147 657 L 125 660 L 129 641 L 108 635 L 106 656 L 111 679 L 94 688 L 88 667 L 73 689 L 53 681 L 67 668 L 70 649 L 88 642 L 85 622 L 104 613 L 105 592 L 84 600 L 50 587 L 31 592 L 10 579 L 11 598 L 8 616 L 26 618 L 45 611 L 65 606 L 64 629 L 43 633 L 27 644 L 9 635 L 9 658 L 29 664 L 49 655 L 36 681 L 25 694 L 10 680 L 9 706 L 30 711 L 49 705 L 68 709 L 88 708 L 107 706 L 124 711 L 125 695 L 132 678 L 149 674 L 161 688 L 145 694 L 144 710 L 162 708 L 180 709 L 197 709 L 214 709 L 232 708 L 255 709 L 279 706 L 262 689 L 280 679 L 298 669 L 323 663 L 319 685 L 302 703 L 330 708 L 346 687 L 349 663 L 335 643 L 359 637 L 382 636 L 403 626 L 404 605 L 415 582 L 391 588 L 377 610 L 370 580 L 370 559 L 387 565 L 404 563 L 422 560 L 442 555 L 457 560 L 437 573 L 455 581 L 470 589 L 481 605 L 479 625 L 451 625 L 457 607 L 441 593 L 425 599 L 429 616 L 428 636 L 411 647 L 394 659 L 430 659 L 448 666 L 439 684 L 415 672 L 396 685 L 373 661 L 372 685 L 360 708 L 387 707 L 411 709 L 420 692 L 436 708 L 457 711 L 459 694 L 463 678 L 448 646 L 468 639 L 468 658 L 489 650 L 506 636 L 500 617 L 501 594 L 486 582 L 490 564 L 471 568 L 479 552 L 492 539 L 481 537 L 469 538 L 458 539 L 448 538 L 438 537 L 430 541 L 425 535 L 417 539 L 408 540 L 401 534 L 395 540 L 386 539 L 377 539 L 368 538 L 360 539 L 352 538 L 344 539 L 336 537 L 331 545 L 323 538 L 313 539 L 302 538 L 309 515 L 326 498 L 337 516 L 361 511 L 350 488 L 371 446 L 399 453 L 393 475 L 369 475 L 385 502 L 383 522 L 420 513 L 409 492 L 438 492 L 456 511 L 480 498 L 485 471 L 457 472 L 426 467 L 422 439 L 427 413 L 449 441 L 477 445 L 478 418 L 453 408 L 460 380 L 485 392 L 489 365 L 508 346 L 530 365 L 537 357 L 545 350 L 553 343 L 565 343 L 568 334 L 574 328 L 578 321 L 587 322 L 583 314 L 593 313 L 600 307 L 608 311 L 616 312 L 622 317 L 628 310 L 637 306 L 647 305 L 657 307 L 666 309 L 673 313 L 690 289 L 676 268 L 701 251 L 724 277 L 715 301 L 699 315 L 688 328 L 683 323 L 680 317 L 674 322 L 662 323 L 650 321 L 639 318 L 632 326 L 643 333 L 656 336 L 669 333 L 668 344 L 671 356 L 659 352 L 660 363 L 668 369 L 677 365 L 683 371 L 694 371 L 687 359 L 683 348 L 680 337 L 693 333 L 695 339 L 698 347 L 699 355 L 698 363 L 702 371 L 697 379 L 691 378 L 692 384 L 686 384 L 681 388 L 687 394 L 692 402 L 675 398 L 672 406 L 680 405 L 685 410 L 683 415 L 695 415 L 689 421 L 692 428 L 699 430 L 698 438 L 703 444 L 707 453 L 712 462 L 725 462 L 727 473 L 733 482 L 730 491 L 723 483 L 718 472 L 692 482 L 678 457 L 667 435 L 648 455 L 634 475 L 621 496 L 639 517 L 647 495 L 665 480 L 668 509 L 693 508 L 715 511 L 735 508 L 743 515 L 752 520 L 762 528 L 776 522 L 791 516 L 773 504 L 763 514 L 753 502 L 762 476 L 776 453 L 749 446 L 736 418 L 721 452 L 718 442 L 714 433 L 711 424 L 708 417 L 706 409 L 702 402 L 700 395 L 698 388 L 727 389 L 725 360 L 721 329 L 745 338 L 775 341 L 752 366 L 755 393 L 765 416 L 787 427 L 798 397 L 780 375 L 829 374 L 805 354 L 809 323 L 833 302 L 842 339 L 868 363 L 860 390 L 858 418 L 829 408 L 816 433 L 802 458 L 794 485 L 826 472 L 845 446 L 855 479 L 817 504 L 843 507 L 870 509 L 900 510 L 924 503 L 947 506 L 968 512 L 990 510 L 1013 516 L 1010 490 L 1011 464 L 1006 435 L 1005 405 L 1022 378 L 1037 354 L 1001 338 L 1030 317 L 1064 336 L 1066 304 L 1060 269 L 1062 235 L 1068 205 L 1053 174 L 1026 210 L 1033 247 L 1027 282 L 997 294 L 974 316 L 943 309 L 895 291 L 912 316 L 932 342 L 962 349 L 988 369 L 966 392 L 973 422 L 978 456 L 978 484 L 947 476 L 911 475 L 886 488 L 881 462 L 876 437 L 892 410 L 906 437 L 927 452 L 950 441 L 932 412 L 937 377 L 902 385 L 905 356 L 883 334 L 865 310 L 857 278 L 826 265 L 794 259 L 800 289 L 776 309 L 745 307 L 761 278 L 737 251 L 767 243 L 749 219 L 744 188 L 710 187 L 718 220 L 685 217 L 665 240 L 647 211 L 620 236 L 643 260 L 657 287 L 626 284 L 607 268 L 580 253 L 586 222 L 553 209 L 578 185 L 614 198 L 614 161 L 646 171 L 675 185 L 690 154 L 650 133 L 632 97 L 670 91 L 687 120 L 712 85 L 722 122 L 729 156 L 767 165 L 779 200 L 795 227 L 826 232 L 851 203 L 816 199 L 802 171 L 835 168 L 872 168 L 883 198 L 888 229 L 856 240 L 881 262 L 909 256 L 931 275 L 961 281 L 981 260 L 1005 247 L 984 220 L 955 238 L 928 230 L 916 203 L 949 192 L 988 189 L 1016 175 L 1020 145 L 1053 142 L 1090 144 L 1091 177 L 1109 211 L 1097 242 L 1124 270 L 1091 279 L 1112 309 L 1096 340 L 1117 362 L 1118 393 L 1071 372 L 1045 405 L 1040 441 L 1074 435 L 1084 403 L 1112 427 L 1146 413 L 1139 450 L 1156 477 L 1188 488 L 1186 462 L 1170 439 L 1190 413 L 1171 392 L 1154 366 L 1194 368 L 1222 347 L 1186 329 L 1145 331 L 1155 294 L 1203 294 L 1215 251 L 1177 259 L 1143 241 L 1149 206 L 1182 215 L 1218 210 L 1252 227 L 1249 272 L 1245 312 L 1253 352 L 1252 391 L 1221 396 L 1213 434 L 1219 461 L 1224 486 L 1250 428 L 1252 460 L 1255 488 L 1252 512 L 1225 513 L 1204 508 L 1184 517 L 1164 504 L 1152 523 L 1137 504 L 1122 480 L 1102 458 L 1071 468 L 1041 476 L 1036 506 L 1062 519 L 1066 498 L 1092 495 L 1111 512 L 1103 539 L 1111 539 L 1118 538 L 1125 540 L 1131 536 L 1137 539 L 1145 539 L 1152 540 L 1160 539 L 1168 539 L 1176 539 L 1183 539 L 1191 540 L 1199 538 L 1207 539 L 1215 538 L 1224 538 L 1232 540 L 1238 536 L 1244 540 L 1251 537 L 1258 539 L 1265 537 L 1261 557 L 1246 559 L 1232 566 L 1261 577 L 1245 581 L 1224 583 L 1236 597 L 1259 601 L 1244 615 L 1224 615 L 1212 600 L 1195 595 L 1205 580 L 1213 565 L 1221 552 L 1196 560 L 1180 554 L 1176 568 L 1188 579 L 1172 586 L 1178 601 L 1193 613 L 1173 618 L 1160 605 L 1157 588 L 1159 572 L 1162 555 L 1146 561 L 1132 554 L 1115 556 L 1113 573 L 1128 572 L 1142 579 L 1145 596 L 1130 592 L 1114 590 L 1096 596 L 1097 577 L 1095 558 L 1095 539 L 1087 537 L 1079 539 L 1071 539 L 1063 540 L 1055 539 L 1046 538 L 1037 539 L 1027 539 L 1018 539 L 1008 540 L 999 539 L 990 540 L 981 539 L 972 539 L 962 540 L 952 539 L 942 538 L 933 538 L 925 540 L 917 536 L 913 544 L 907 538 L 899 539 L 893 536 L 886 540 L 880 536 L 873 539 L 865 539 L 855 537 L 852 546 L 843 539 L 831 539 L 819 539 L 809 539 L 800 540 L 792 539 L 784 541 L 781 534 L 774 540 L 767 539 L 761 540 L 754 539 L 746 531 L 746 542 L 739 538 L 735 545 L 729 539 L 731 523 L 721 530 L 721 542 L 713 540 L 704 539 L 695 539 L 687 540 L 681 535 L 675 540 L 667 539 L 660 549 L 659 537 L 650 539 L 641 540 L 631 540 L 621 540 L 610 540 L 600 540 L 615 519 L 598 507 L 602 478 L 594 487 L 584 492 L 582 481 L 570 484 L 574 470 L 589 471 L 599 464 L 609 469 L 614 459 L 618 449 L 620 440 L 622 430 L 643 431 L 653 413 L 622 412 L 621 421 L 611 412 L 602 425 L 611 429 L 604 439 L 602 450 L 590 455 L 577 457 L 582 443 L 590 434 L 589 419 L 601 413 L 594 404 L 580 409 L 576 424 L 568 434 L 567 446 L 562 456 L 559 466 L 561 476 L 555 485 L 546 476 L 534 472 L 544 462 L 551 449 L 551 436 L 557 423 L 567 411 L 554 406 L 556 389 L 566 379 L 570 395 L 583 396 L 581 382 L 594 388 L 598 373 L 614 370 L 611 357 L 599 361 L 597 348 L 602 337 L 614 343 L 624 352 L 628 364 L 637 373 L 638 381 L 626 379 L 616 386 L 605 382 L 604 395 L 613 398 L 620 404 L 624 398 L 631 394 L 637 397 L 642 391 L 646 384 L 653 388 L 660 390 L 668 392 L 674 390 L 675 378 L 665 382 L 653 374 L 646 361 L 648 346 L 637 352 L 631 340 L 622 332 L 613 329 L 616 322 L 601 323 L 589 335 L 580 344 L 584 356 L 586 369 L 572 366 L 566 352 L 555 365 L 545 376 L 533 385 L 544 395 L 536 406 L 542 418 L 537 431 L 536 448 L 526 460 L 522 442 L 524 427 L 524 414 L 526 398 L 524 372 L 519 380 L 515 388 L 512 395 L 512 403 L 508 409 L 508 417 L 507 425 L 507 434 L 507 444 L 508 453 L 511 463 L 515 473 L 522 479 L 522 488 L 533 487 L 542 491 L 552 495 L 562 495 L 573 496 L 575 506 L 572 516 L 573 525 L 580 523 L 588 526 L 591 533 L 591 542 L 583 540 L 580 532 L 571 533 L 566 524 L 557 522 L 546 513 L 532 505 L 517 499 L 511 509 L 508 521 L 498 519 L 501 529 L 509 531 L 516 530 L 518 522 L 524 527 L 530 525 L 530 533 L 523 536 L 528 544 L 535 540 L 542 539 L 550 538 L 557 539 L 563 532 L 566 540 L 574 541 L 561 558 L 548 547 L 541 564 L 522 562 L 514 540 L 503 539 L 504 555 L 506 575 L 523 585 L 544 584 L 538 604 L 518 609 L 530 631 L 520 655 L 543 656 L 552 620 L 562 640 L 572 661 L 579 684 L 553 681 L 529 680 L 508 689 L 504 669 L 483 672 L 485 691 L 478 709 L 499 709 L 521 707 L 541 705 L 564 706 L 588 708 L 603 689 L 600 666 L 592 641 L 578 619 L 600 612 L 625 607 L 616 631 L 623 656 L 626 683 L 616 708 L 640 706 L 664 709 L 655 688 L 644 669 L 655 649 L 639 635 L 649 614 L 668 627 L 673 603 L 667 584 L 648 591 L 628 582 L 607 588 L 584 590 L 562 599 L 563 577 L 579 564 L 597 566 L 618 562 L 640 563 L 659 566 L 677 556 L 680 571 L 692 583 L 701 599 L 691 615 L 695 633 L 679 648 L 670 668 L 678 688 L 687 707 L 708 708 L 706 688 L 693 673 L 700 656 L 719 667 L 736 654 L 756 649 L 772 640 L 793 637 L 816 640 L 807 657 L 783 661 L 798 681 L 776 688 L 763 671 L 744 676 L 728 689 L 731 710 L 751 701 L 770 709 L 794 706 L 817 710 L 819 692 L 820 671 L 837 658 L 839 641 L 830 624 L 832 606 L 834 589 L 817 585 L 809 600 L 810 619 L 792 614 L 773 620 L 752 625 L 734 631 L 715 641 L 715 616 L 733 606 L 754 605 L 772 600 L 788 594 L 800 583 L 783 573 L 771 581 L 754 586 L 736 584 L 717 588 L 710 567 L 696 558 L 726 564 L 743 565 L 756 553 L 760 568 L 773 558 L 789 555 L 798 567 L 806 553 L 822 552 L 838 555 L 813 567 L 827 569 L 842 572 L 855 564 L 870 560 L 881 551 L 897 552 L 889 566 L 887 584 L 869 579 L 852 587 L 855 604 L 852 623 L 864 643 L 877 623 L 875 600 L 897 607 L 907 587 L 909 567 L 927 562 L 944 555 L 961 564 L 977 556 L 1001 559 L 1019 551 L 1023 568 L 1007 579 L 994 595 L 985 573 L 968 585 L 973 606 L 948 602 L 946 576 L 928 584 L 923 606 L 937 627 L 908 627 L 891 642 L 920 646 L 907 663 L 882 663 L 859 665 L 876 685 L 855 689 L 839 681 L 840 707 L 863 709 L 884 706 L 900 685 L 904 708 L 922 704 L 943 706 L 965 706 L 985 703 L 1009 708 L 1038 707 L 1064 703 L 1083 685 L 1092 708 L 1120 709 L 1146 709 L 1135 691 L 1146 675 L 1153 658 L 1145 644 L 1134 630 L 1124 649 L 1126 669 L 1110 687 L 1102 666 L 1080 661 L 1058 672 L 1039 679 L 1019 688 L 997 679 L 975 674 L 953 681 L 927 679 L 940 657 L 962 651 L 962 627 L 989 623 L 987 649 L 1011 637 L 1014 662 L 1036 650 L 1061 646 L 1051 628 L 1069 617 L 1047 605 L 1030 622 L 1011 610 L 1025 593 L 1043 582 L 1039 562 L 1048 550 L 1059 566 L 1076 558 L 1079 577 L 1062 589 L 1079 600 L 1093 619 L 1082 637 L 1101 644 L 1114 629 L 1110 609 L 1126 611 L 1143 612 L 1153 624 L 1165 637 L 1176 652 L 1186 633 L 1206 625 L 1219 637 L 1199 647 L 1212 664 L 1231 653 L 1241 636 L 1260 628 L 1257 654 L 1258 680 L 1235 671 L 1213 686 L 1187 689 L 1191 669 L 1170 672 L 1161 689 L 1168 707 L 1187 709 L 1207 707 L 1229 709 L 1238 691 L 1256 706 " stroke="black" stroke-width="3" fill="none"/> 
 </svg>