<?xml version="1.0" ?>
<!DOCTYPE svg PUBLIC "-//W3C//DTD SVG 1.1//EN" "http://www.w3.org/Graphics/SVG/1.1/DTD/svg11.dtd">
<svg width="1080" height="934" version="1.1" xmlns="http://www.w3.org/2000/svg">
<path d="M375 12 L 366 37 L 358 60 L 329 68 L 337 97 L 363 117 L 369 87 L 396 73 L 397 42 L 409 14 L 442 17 L 428 52 L 465 46 L 483 79 L 504 105 L 525 131 L 549 156 L 534 185 L 515 213 L 482 224 L 504 250 L 545 241 L 556 211 L 578 186 L 581 233 L 614 233 L 633 252 L 626 280 L 596 291 L 594 264 L 562 274 L 558 308 L 528 266 L 529 292 L 521 318 L 531 340 L 502 346 L 470 349 L 481 321 L 496 292 L 474 264 L 447 245 L 409 251 L 428 283 L 459 293 L 441 321 L 443 358 L 426 382 L 401 399 L 394 426 L 369 414 L 345 429 L 317 435 L 286 437 L 292 405 L 322 407 L 346 394 L 373 384 L 395 366 L 415 344 L 377 337 L 401 313 L 391 281 L 361 263 L 358 298 L 320 304 L 312 275 L 330 249 L 293 242 L 313 215 L 327 187 L 348 222 L 382 228 L 417 216 L 451 207 L 479 185 L 506 165 L 484 137 L 460 111 L 449 78 L 422 94 L 395 115 L 430 129 L 453 157 L 428 180 L 406 152 L 374 150 L 392 187 L 361 191 L 346 161 L 337 129 L 316 151 L 295 177 L 268 153 L 239 150 L 238 121 L 271 116 L 291 139 L 306 114 L 305 86 L 276 82 L 249 89 L 217 95 L 201 128 L 207 157 L 173 157 L 157 130 L 185 103 L 158 91 L 127 97 L 120 125 L 124 153 L 145 178 L 122 214 L 107 182 L 85 206 L 76 237 L 108 247 L 88 275 L 98 310 L 131 320 L 160 311 L 192 320 L 223 336 L 254 320 L 231 298 L 237 265 L 216 242 L 200 279 L 165 277 L 127 282 L 143 245 L 179 244 L 160 209 L 191 185 L 195 215 L 230 209 L 229 179 L 260 186 L 281 209 L 255 232 L 270 266 L 278 295 L 289 328 L 317 343 L 345 329 L 350 361 L 318 376 L 290 367 L 261 352 L 263 388 L 256 418 L 259 450 L 229 455 L 223 429 L 220 397 L 234 370 L 197 362 L 173 386 L 189 415 L 187 445 L 203 467 L 201 502 L 223 485 L 248 478 L 229 510 L 253 514 L 266 494 L 282 513 L 310 515 L 299 492 L 281 472 L 306 459 L 323 475 L 342 458 L 371 446 L 399 453 L 394 476 L 370 475 L 350 488 L 327 497 L 338 516 L 361 511 L 383 522 L 385 502 L 410 492 L 420 513 L 439 492 L 425 467 L 422 439 L 428 413 L 454 408 L 464 381 L 493 375 L 484 406 L 478 435 L 450 440 L 455 468 L 483 463 L 476 487 L 487 505 L 456 511 L 466 538 L 476 537 L 486 538 L 497 538 L 484 551 L 470 558 L 455 563 L 441 554 L 456 539 L 446 538 L 437 537 L 429 541 L 425 536 L 417 539 L 408 540 L 401 534 L 395 540 L 386 539 L 377 539 L 368 538 L 360 539 L 352 538 L 344 539 L 336 538 L 326 538 L 317 539 L 307 538 L 298 538 L 288 539 L 279 538 L 270 539 L 261 538 L 252 538 L 244 539 L 235 539 L 226 539 L 218 540 L 209 539 L 200 539 L 192 539 L 184 539 L 182 516 L 164 500 L 174 474 L 154 440 L 145 409 L 126 382 L 158 352 L 117 349 L 89 369 L 78 400 L 107 416 L 119 448 L 138 474 L 138 508 L 110 501 L 93 474 L 82 444 L 54 431 L 44 399 L 51 365 L 77 336 L 43 329 L 60 301 L 53 268 L 42 239 L 48 207 L 67 177 L 38 173 L 52 140 L 87 153 L 86 121 L 42 111 L 44 78 L 65 53 L 69 94 L 98 83 L 99 49 L 131 60 L 164 54 L 193 67 L 212 41 L 230 65 L 258 49 L 295 58 L 325 40 L 341 14 L 307 13 L 288 34 L 270 13 L 239 18 L 207 13 L 176 20 L 144 20 L 112 17 L 79 17 L 47 20 L 16 11 L 14 36 L 22 58 L 13 89 L 15 125 L 14 157 L 14 193 L 14 226 L 15 261 L 21 291 L 13 320 L 16 352 L 16 383 L 15 416 L 20 445 L 16 473 L 53 469 L 76 503 L 44 502 L 14 505 L 5 538 L 16 539 L 27 537 L 37 540 L 48 538 L 59 537 L 71 538 L 83 538 L 95 537 L 108 538 L 120 538 L 132 538 L 143 538 L 152 538 L 161 537 L 168 539 L 176 539 L 178 553 L 195 559 L 213 563 L 229 552 L 232 566 L 229 580 L 215 588 L 200 578 L 182 573 L 182 589 L 179 605 L 159 611 L 162 592 L 159 574 L 170 564 L 156 555 L 139 560 L 120 558 L 124 580 L 142 579 L 143 599 L 124 601 L 123 621 L 143 621 L 129 641 L 125 660 L 108 635 L 106 656 L 111 679 L 94 688 L 88 667 L 67 668 L 70 649 L 88 642 L 85 622 L 104 613 L 105 592 L 84 600 L 65 606 L 68 580 L 88 579 L 106 572 L 99 556 L 81 560 L 63 557 L 47 564 L 29 566 L 10 559 L 10 579 L 50 587 L 31 592 L 11 598 L 8 616 L 26 617 L 45 611 L 64 629 L 49 655 L 29 664 L 27 644 L 43 633 L 9 635 L 9 658 L 10 680 L 36 681 L 53 681 L 73 689 L 25 694 L 9 706 L 30 711 L 49 705 L 68 709 L 88 708 L 107 706 L 124 711 L 125 695 L 132 678 L 149 674 L 147 657 L 149 640 L 164 631 L 177 621 L 195 620 L 201 600 L 211 619 L 225 606 L 240 596 L 247 616 L 229 628 L 212 640 L 245 639 L 232 654 L 226 675 L 214 690 L 212 662 L 196 652 L 187 637 L 169 650 L 167 670 L 183 665 L 198 675 L 177 688 L 161 688 L 145 694 L 144 711 L 162 708 L 180 709 L 193 692 L 197 709 L 214 709 L 232 709 L 239 691 L 249 671 L 261 654 L 264 629 L 283 650 L 299 671 L 278 677 L 261 689 L 255 709 L 279 706 L 301 704 L 318 686 L 327 707 L 353 707 L 343 684 L 351 662 L 325 664 L 309 647 L 335 642 L 326 621 L 349 615 L 360 636 L 374 660 L 395 657 L 411 647 L 428 636 L 429 617 L 403 626 L 382 635 L 377 610 L 403 605 L 415 582 L 391 588 L 370 580 L 356 595 L 332 595 L 312 584 L 291 595 L 308 607 L 303 627 L 284 626 L 276 608 L 260 599 L 272 582 L 251 578 L 247 559 L 258 547 L 265 563 L 282 559 L 293 575 L 304 559 L 323 567 L 332 552 L 343 575 L 352 558 L 370 559 L 387 565 L 404 563 L 422 560 L 438 573 L 425 599 L 440 592 L 456 586 L 470 577 L 473 600 L 455 609 L 450 626 L 448 646 L 448 666 L 430 659 L 415 672 L 394 682 L 370 684 L 377 707 L 398 706 L 418 710 L 418 691 L 439 684 L 439 707 L 458 711 L 460 694 L 463 678 L 467 658 L 467 638 L 480 624 L 491 607 L 506 622 L 487 650 L 505 641 L 531 632 L 522 656 L 544 657 L 553 681 L 529 680 L 503 668 L 483 672 L 485 691 L 478 709 L 499 709 L 508 689 L 521 707 L 541 705 L 564 706 L 588 708 L 616 708 L 626 683 L 640 706 L 664 709 L 655 688 L 644 669 L 623 656 L 600 666 L 603 689 L 579 684 L 572 661 L 562 640 L 552 620 L 537 605 L 518 606 L 504 592 L 487 585 L 488 567 L 503 555 L 506 573 L 525 583 L 545 584 L 562 575 L 578 563 L 596 566 L 617 562 L 640 563 L 659 566 L 667 584 L 673 603 L 668 627 L 649 614 L 647 591 L 628 582 L 607 587 L 584 590 L 563 598 L 578 619 L 600 612 L 625 607 L 592 641 L 616 631 L 639 635 L 655 649 L 670 668 L 678 688 L 687 707 L 708 708 L 706 688 L 693 673 L 679 648 L 695 633 L 691 615 L 715 616 L 733 606 L 753 605 L 752 625 L 773 620 L 772 600 L 792 614 L 793 636 L 772 640 L 755 649 L 736 654 L 734 631 L 715 641 L 701 656 L 719 667 L 728 689 L 731 710 L 751 701 L 770 709 L 794 706 L 775 688 L 744 676 L 764 671 L 784 660 L 797 681 L 807 661 L 812 646 L 816 630 L 813 615 L 807 599 L 787 594 L 799 582 L 783 573 L 770 581 L 754 586 L 736 584 L 717 588 L 701 599 L 692 583 L 680 571 L 677 556 L 696 558 L 710 567 L 726 564 L 743 565 L 756 553 L 760 568 L 773 558 L 788 555 L 797 567 L 812 569 L 805 554 L 821 554 L 837 555 L 842 570 L 827 570 L 817 586 L 834 586 L 831 602 L 834 619 L 838 639 L 837 658 L 859 666 L 864 644 L 855 624 L 854 604 L 852 587 L 869 580 L 857 567 L 854 552 L 871 560 L 881 551 L 898 552 L 889 567 L 887 584 L 907 587 L 909 567 L 928 584 L 946 576 L 927 562 L 944 555 L 961 564 L 977 556 L 981 539 L 990 540 L 999 539 L 1001 559 L 985 573 L 968 585 L 948 602 L 962 627 L 937 627 L 923 606 L 908 627 L 897 607 L 875 601 L 879 623 L 891 643 L 882 664 L 876 685 L 855 690 L 839 681 L 821 672 L 819 692 L 817 710 L 840 707 L 863 709 L 884 706 L 900 685 L 907 663 L 920 646 L 940 657 L 962 651 L 987 649 L 975 674 L 953 681 L 927 679 L 904 708 L 922 704 L 943 706 L 965 706 L 985 703 L 1009 708 L 1019 688 L 997 679 L 1014 662 L 1039 679 L 1058 672 L 1038 707 L 1064 703 L 1092 708 L 1083 685 L 1080 661 L 1102 666 L 1126 669 L 1124 649 L 1114 629 L 1101 644 L 1082 637 L 1093 619 L 1110 609 L 1126 611 L 1134 630 L 1145 644 L 1153 658 L 1146 675 L 1135 691 L 1110 687 L 1120 709 L 1146 709 L 1168 707 L 1161 689 L 1170 672 L 1191 669 L 1187 689 L 1187 709 L 1207 707 L 1213 686 L 1212 664 L 1199 647 L 1186 633 L 1173 618 L 1160 605 L 1176 652 L 1165 637 L 1153 624 L 1143 612 L 1145 596 L 1130 592 L 1114 590 L 1096 596 L 1079 577 L 1097 577 L 1095 558 L 1076 558 L 1059 566 L 1048 550 L 1039 562 L 1043 582 L 1062 589 L 1079 600 L 1069 617 L 1051 628 L 1061 646 L 1036 650 L 1011 637 L 989 623 L 973 606 L 994 595 L 1011 610 L 1030 622 L 1047 605 L 1025 593 L 1007 579 L 1023 568 L 1019 551 L 1008 540 L 1018 539 L 1027 539 L 1037 539 L 1046 538 L 1055 539 L 1063 540 L 1071 539 L 1079 539 L 1087 537 L 1095 539 L 1103 539 L 1111 539 L 1118 538 L 1125 540 L 1131 536 L 1137 539 L 1145 539 L 1152 540 L 1160 539 L 1168 539 L 1176 539 L 1183 539 L 1191 540 L 1199 538 L 1207 539 L 1215 538 L 1224 538 L 1232 540 L 1238 536 L 1244 540 L 1246 559 L 1232 565 L 1221 552 L 1213 565 L 1205 580 L 1188 579 L 1196 560 L 1180 554 L 1176 568 L 1162 555 L 1146 561 L 1132 554 L 1115 556 L 1113 573 L 1128 572 L 1142 579 L 1159 572 L 1157 587 L 1172 586 L 1178 601 L 1195 595 L 1212 600 L 1193 613 L 1206 625 L 1219 637 L 1241 636 L 1231 653 L 1235 671 L 1238 691 L 1229 709 L 1256 706 L 1258 680 L 1257 654 L 1260 628 L 1244 615 L 1224 615 L 1236 597 L 1224 583 L 1245 581 L 1259 601 L 1261 577 L 1261 557 L 1265 537 L 1258 539 L 1251 537 L 1252 512 L 1255 488 L 1252 460 L 1250 428 L 1213 434 L 1219 461 L 1224 486 L 1225 513 L 1204 508 L 1184 517 L 1188 488 L 1186 462 L 1170 439 L 1146 413 L 1112 427 L 1139 450 L 1156 477 L 1164 504 L 1152 523 L 1137 504 L 1111 512 L 1092 495 L 1122 480 L 1102 458 L 1084 403 L 1074 435 L 1040 441 L 1045 405 L 1071 372 L 1118 393 L 1117 362 L 1096 340 L 1112 309 L 1091 279 L 1060 269 L 1066 304 L 1064 336 L 1037 354 L 1021 378 L 1005 405 L 1006 435 L 978 456 L 978 484 L 1010 490 L 1011 464 L 1041 476 L 1071 468 L 1066 498 L 1062 519 L 1036 506 L 1013 516 L 990 510 L 968 512 L 972 539 L 962 540 L 952 539 L 942 538 L 933 538 L 925 540 L 917 536 L 913 544 L 907 538 L 899 539 L 893 536 L 887 540 L 880 537 L 873 539 L 865 538 L 855 538 L 844 539 L 833 539 L 822 539 L 811 540 L 801 540 L 792 539 L 784 541 L 780 535 L 774 541 L 767 539 L 761 540 L 754 539 L 747 533 L 746 542 L 739 538 L 734 545 L 729 538 L 721 541 L 712 540 L 704 539 L 696 539 L 688 540 L 681 537 L 675 540 L 667 539 L 660 548 L 659 537 L 650 539 L 641 540 L 637 516 L 631 541 L 621 539 L 611 540 L 601 540 L 592 540 L 584 540 L 579 532 L 583 524 L 589 531 L 601 514 L 618 503 L 603 479 L 605 471 L 611 466 L 616 457 L 620 448 L 623 439 L 625 430 L 627 422 L 648 417 L 664 412 L 669 430 L 672 451 L 689 465 L 695 488 L 668 480 L 648 439 L 646 462 L 630 480 L 647 494 L 666 509 L 690 512 L 711 507 L 722 524 L 735 524 L 733 510 L 733 494 L 733 484 L 725 482 L 730 473 L 761 476 L 777 455 L 751 445 L 751 416 L 780 428 L 792 402 L 816 382 L 836 357 L 802 350 L 780 371 L 760 389 L 733 387 L 705 380 L 698 381 L 695 389 L 704 390 L 708 399 L 711 408 L 709 419 L 718 417 L 717 428 L 708 432 L 720 439 L 723 450 L 727 462 L 720 472 L 715 462 L 710 453 L 705 444 L 699 437 L 697 429 L 690 426 L 695 421 L 689 416 L 699 410 L 696 400 L 688 394 L 686 410 L 681 406 L 685 403 L 680 399 L 681 393 L 673 396 L 666 395 L 660 394 L 654 390 L 660 381 L 655 370 L 640 372 L 637 381 L 644 380 L 647 386 L 648 394 L 641 395 L 633 397 L 624 398 L 627 405 L 627 413 L 615 408 L 604 412 L 595 405 L 585 396 L 583 383 L 587 371 L 573 367 L 558 366 L 547 379 L 534 389 L 544 398 L 557 391 L 567 380 L 571 395 L 568 411 L 555 408 L 557 423 L 567 434 L 567 446 L 564 458 L 560 469 L 560 480 L 550 483 L 542 473 L 547 461 L 551 449 L 550 437 L 542 415 L 529 406 L 525 422 L 538 430 L 524 439 L 534 449 L 530 463 L 526 481 L 531 485 L 538 488 L 546 492 L 554 494 L 563 494 L 574 482 L 575 469 L 580 457 L 582 443 L 577 425 L 581 409 L 591 419 L 592 432 L 596 444 L 605 424 L 617 421 L 609 436 L 607 450 L 595 458 L 588 472 L 596 484 L 589 489 L 580 493 L 572 497 L 574 506 L 574 515 L 574 525 L 566 523 L 559 527 L 566 530 L 570 534 L 576 539 L 570 544 L 562 540 L 559 535 L 552 539 L 545 546 L 558 555 L 541 564 L 522 561 L 528 544 L 535 539 L 543 538 L 547 514 L 533 505 L 529 525 L 530 533 L 523 537 L 515 539 L 507 540 L 504 532 L 503 524 L 513 530 L 522 528 L 516 523 L 510 515 L 517 504 L 521 493 L 519 477 L 518 468 L 511 464 L 513 454 L 509 444 L 509 432 L 509 421 L 512 411 L 514 401 L 518 392 L 522 383 L 528 373 L 537 364 L 547 356 L 558 347 L 571 343 L 573 352 L 587 357 L 587 344 L 578 335 L 585 326 L 591 318 L 600 316 L 610 313 L 620 313 L 630 316 L 626 322 L 620 328 L 608 329 L 596 332 L 602 345 L 601 358 L 600 370 L 601 380 L 599 391 L 607 395 L 615 397 L 614 383 L 614 368 L 627 388 L 625 376 L 628 364 L 625 352 L 613 353 L 616 340 L 630 339 L 641 337 L 641 325 L 637 313 L 641 298 L 646 312 L 654 309 L 655 317 L 665 326 L 654 332 L 649 346 L 638 354 L 651 359 L 669 373 L 673 384 L 685 380 L 685 368 L 675 366 L 668 360 L 662 348 L 670 338 L 678 329 L 684 339 L 679 352 L 692 349 L 695 362 L 707 372 L 710 363 L 708 354 L 705 345 L 701 336 L 696 329 L 690 324 L 685 319 L 678 317 L 671 314 L 663 312 L 668 289 L 656 270 L 690 270 L 694 295 L 716 307 L 726 280 L 761 280 L 747 312 L 729 333 L 745 358 L 769 340 L 779 312 L 813 323 L 834 298 L 857 276 L 883 260 L 899 289 L 912 316 L 932 342 L 963 348 L 939 376 L 932 412 L 926 452 L 912 475 L 906 435 L 889 406 L 906 386 L 906 357 L 884 334 L 870 305 L 849 331 L 873 365 L 853 387 L 829 411 L 859 416 L 876 437 L 882 461 L 886 487 L 856 479 L 827 468 L 846 445 L 812 432 L 803 456 L 794 481 L 773 504 L 763 514 L 753 502 L 745 513 L 750 522 L 760 528 L 772 525 L 783 519 L 811 521 L 802 503 L 826 497 L 847 510 L 873 509 L 902 510 L 925 503 L 948 507 L 947 476 L 950 441 L 973 422 L 967 393 L 988 369 L 1001 338 L 1030 317 L 1028 283 L 997 294 L 974 316 L 942 309 L 961 282 L 932 275 L 913 252 L 905 220 L 887 195 L 935 222 L 956 241 L 981 261 L 1006 250 L 1033 246 L 1062 235 L 1068 205 L 1097 242 L 1109 211 L 1092 177 L 1053 174 L 1052 142 L 1020 145 L 1018 175 L 1027 210 L 987 221 L 992 189 L 957 193 L 924 187 L 900 162 L 893 130 L 920 108 L 889 89 L 895 53 L 920 68 L 946 46 L 950 84 L 979 65 L 982 98 L 954 121 L 934 150 L 971 159 L 988 133 L 1014 114 L 1041 105 L 1070 118 L 1097 107 L 1090 144 L 1126 150 L 1130 180 L 1143 241 L 1124 270 L 1155 294 L 1146 331 L 1154 366 L 1194 368 L 1171 392 L 1190 413 L 1221 396 L 1252 391 L 1253 352 L 1222 347 L 1186 329 L 1203 294 L 1245 312 L 1249 272 L 1177 259 L 1215 251 L 1252 227 L 1249 181 L 1247 141 L 1249 103 L 1213 91 L 1182 105 L 1206 135 L 1206 174 L 1218 210 L 1182 215 L 1149 206 L 1168 167 L 1159 131 L 1125 118 L 1122 82 L 1092 76 L 1108 49 L 1141 50 L 1152 89 L 1176 63 L 1211 54 L 1249 62 L 1256 20 L 1230 22 L 1203 14 L 1177 25 L 1151 15 L 1120 16 L 1089 17 L 1059 14 L 1044 39 L 1074 49 L 1066 86 L 1042 69 L 1012 80 L 1012 47 L 1026 15 L 995 13 L 979 36 L 956 13 L 923 20 L 894 17 L 864 12 L 865 43 L 855 72 L 839 21 L 813 18 L 786 13 L 784 43 L 757 19 L 728 16 L 695 17 L 663 19 L 631 22 L 599 16 L 560 16 L 548 51 L 522 16 L 479 14 L 501 43 L 519 70 L 545 92 L 566 120 L 583 150 L 614 162 L 611 200 L 646 212 L 666 242 L 685 216 L 674 185 L 646 171 L 650 134 L 690 154 L 687 120 L 670 92 L 632 97 L 608 123 L 586 87 L 584 48 L 616 62 L 650 59 L 684 55 L 716 48 L 746 57 L 776 73 L 806 79 L 823 53 L 830 97 L 861 109 L 856 140 L 866 170 L 832 167 L 800 172 L 817 199 L 851 203 L 876 228 L 851 244 L 824 265 L 800 290 L 792 260 L 825 230 L 795 227 L 778 200 L 767 165 L 744 188 L 750 219 L 767 244 L 736 252 L 703 247 L 718 220 L 710 187 L 729 156 L 722 122 L 757 130 L 792 141 L 823 130 L 788 108 L 750 95 L 712 85 " stroke="black" stroke-width="3" fill="none"/> 
 </svg>