<?xml version="1.0" ?>
<!DOCTYPE svg PUBLIC "-//W3C//DTD SVG 1.1//EN" "http://www.w3.org/Graphics/SVG/1.1/DTD/svg11.dtd">
<svg width="1080" height="934" version="1.1" xmlns="http://www.w3.org/2000/svg">
<path d="M787 12 L 813 18 L 839 21 L 864 12 L 894 17 L 923 20 L 946 46 L 956 13 L 995 13 L 979 35 L 979 65 L 982 98 L 1012 80 L 1042 69 L 1045 39 L 1012 47 L 1026 15 L 1059 13 L 1089 17 L 1119 16 L 1151 15 L 1178 25 L 1203 14 L 1230 22 L 1256 20 L 1249 62 L 1248 102 L 1247 141 L 1248 180 L 1205 174 L 1168 166 L 1158 130 L 1152 88 L 1122 83 L 1096 107 L 1124 118 L 1126 150 L 1130 180 L 1148 206 L 1182 215 L 1218 210 L 1252 226 L 1215 251 L 1177 259 L 1143 241 L 1123 269 L 1091 279 L 1153 294 L 1187 329 L 1202 294 L 1249 272 L 1244 312 L 1253 353 L 1222 348 L 1195 369 L 1221 397 L 1252 391 L 1250 429 L 1252 462 L 1255 490 L 1250 512 L 1224 513 L 1203 508 L 1223 487 L 1218 462 L 1212 435 L 1190 414 L 1171 392 L 1153 367 L 1146 332 L 1111 310 L 1097 340 L 1117 363 L 1118 393 L 1147 414 L 1170 439 L 1185 463 L 1188 489 L 1184 518 L 1183 539 L 1191 540 L 1199 538 L 1207 539 L 1215 538 L 1224 538 L 1232 540 L 1238 536 L 1244 540 L 1251 537 L 1259 539 L 1265 537 L 1261 557 L 1247 559 L 1232 565 L 1221 552 L 1213 564 L 1205 579 L 1224 583 L 1237 597 L 1245 580 L 1261 577 L 1259 600 L 1244 615 L 1224 615 L 1212 600 L 1194 595 L 1178 601 L 1172 586 L 1157 587 L 1160 605 L 1173 618 L 1193 613 L 1205 625 L 1241 636 L 1260 627 L 1257 654 L 1258 680 L 1256 706 L 1237 691 L 1229 709 L 1206 707 L 1186 709 L 1187 689 L 1191 668 L 1212 664 L 1213 686 L 1235 671 L 1230 653 L 1219 636 L 1199 647 L 1186 632 L 1165 636 L 1175 651 L 1170 671 L 1161 689 L 1168 707 L 1147 709 L 1135 692 L 1120 709 L 1110 687 L 1093 708 L 1083 685 L 1064 703 L 1038 707 L 1008 708 L 1019 689 L 1039 679 L 1058 671 L 1080 662 L 1103 665 L 1101 643 L 1115 629 L 1127 611 L 1134 629 L 1124 649 L 1126 669 L 1146 675 L 1153 658 L 1145 644 L 1153 624 L 1143 611 L 1145 596 L 1130 592 L 1114 590 L 1113 573 L 1098 577 L 1096 558 L 1115 556 L 1129 571 L 1133 554 L 1146 561 L 1142 579 L 1159 572 L 1162 556 L 1176 568 L 1188 579 L 1196 560 L 1179 554 L 1176 539 L 1168 539 L 1160 539 L 1152 525 L 1152 540 L 1145 539 L 1137 539 L 1131 536 L 1125 540 L 1118 538 L 1111 539 L 1103 539 L 1095 538 L 1087 537 L 1079 539 L 1071 539 L 1076 558 L 1080 577 L 1063 588 L 1047 604 L 1043 582 L 1025 592 L 1011 610 L 994 595 L 1007 578 L 1023 567 L 1039 562 L 1059 565 L 1048 548 L 1019 548 L 1001 558 L 985 572 L 976 556 L 961 564 L 946 575 L 928 583 L 943 554 L 927 561 L 909 566 L 906 587 L 897 607 L 875 600 L 877 622 L 863 643 L 859 665 L 837 658 L 839 640 L 852 623 L 855 604 L 852 586 L 868 579 L 887 583 L 889 566 L 897 551 L 881 550 L 871 559 L 855 564 L 842 572 L 838 555 L 822 550 L 819 539 L 831 539 L 843 539 L 852 546 L 855 537 L 865 539 L 873 539 L 880 536 L 886 540 L 893 536 L 899 539 L 907 538 L 912 544 L 917 536 L 925 540 L 933 538 L 942 538 L 952 539 L 962 540 L 972 539 L 981 539 L 990 540 L 999 539 L 1008 540 L 1018 538 L 1027 539 L 1037 539 L 1046 538 L 1055 539 L 1063 540 L 1061 519 L 1066 499 L 1092 495 L 1111 512 L 1122 481 L 1138 505 L 1164 506 L 1155 478 L 1139 451 L 1102 458 L 1113 428 L 1083 404 L 1071 373 L 1045 405 L 1074 436 L 1071 469 L 1041 477 L 1040 442 L 1005 406 L 1006 435 L 1011 464 L 1010 490 L 1036 507 L 1012 516 L 990 511 L 968 512 L 948 507 L 925 503 L 901 510 L 886 488 L 872 509 L 846 508 L 822 504 L 798 510 L 801 483 L 775 487 L 756 509 L 741 494 L 737 487 L 731 491 L 735 499 L 742 502 L 740 508 L 742 518 L 751 523 L 764 519 L 772 511 L 781 523 L 770 530 L 759 529 L 747 535 L 747 543 L 754 540 L 761 539 L 767 541 L 773 540 L 779 538 L 785 540 L 793 539 L 800 540 L 809 539 L 806 553 L 813 567 L 827 569 L 817 584 L 833 588 L 831 606 L 830 624 L 815 639 L 807 657 L 820 671 L 839 680 L 855 690 L 875 685 L 882 664 L 890 643 L 908 627 L 920 646 L 907 663 L 900 685 L 927 679 L 940 657 L 962 651 L 962 627 L 937 627 L 923 606 L 948 601 L 969 585 L 973 606 L 989 623 L 987 649 L 1011 637 L 1030 622 L 1051 627 L 1070 617 L 1079 600 L 1096 596 L 1110 609 L 1094 619 L 1082 637 L 1062 645 L 1036 650 L 1014 662 L 997 679 L 985 702 L 965 706 L 975 674 L 953 682 L 943 706 L 922 704 L 904 708 L 884 706 L 863 709 L 840 707 L 819 692 L 817 710 L 794 706 L 798 680 L 776 688 L 770 709 L 751 701 L 731 710 L 728 689 L 744 676 L 763 671 L 783 660 L 793 637 L 772 639 L 756 649 L 736 653 L 734 631 L 752 625 L 774 620 L 792 614 L 810 619 L 809 600 L 800 582 L 788 593 L 772 600 L 754 605 L 733 605 L 715 640 L 719 667 L 701 656 L 694 633 L 691 615 L 716 616 L 701 599 L 692 583 L 717 587 L 736 584 L 754 586 L 770 580 L 783 573 L 798 567 L 789 554 L 774 558 L 760 567 L 756 553 L 743 565 L 726 564 L 710 566 L 696 558 L 677 555 L 680 571 L 667 583 L 648 591 L 628 581 L 607 587 L 625 606 L 649 613 L 673 602 L 668 627 L 680 648 L 670 667 L 678 688 L 693 674 L 706 688 L 708 708 L 687 707 L 665 709 L 641 706 L 655 688 L 644 670 L 656 650 L 640 635 L 616 631 L 600 612 L 578 619 L 592 641 L 600 666 L 623 656 L 626 684 L 616 708 L 603 690 L 588 708 L 563 706 L 541 705 L 520 707 L 499 709 L 478 709 L 485 691 L 483 673 L 503 669 L 508 689 L 528 680 L 553 681 L 579 684 L 572 661 L 561 640 L 543 656 L 519 655 L 530 631 L 552 620 L 562 598 L 583 589 L 596 565 L 617 562 L 641 563 L 659 565 L 660 549 L 641 540 L 651 539 L 659 538 L 667 539 L 675 540 L 681 536 L 687 540 L 695 539 L 704 540 L 712 540 L 721 541 L 729 538 L 734 544 L 740 539 L 736 528 L 728 516 L 722 527 L 705 515 L 685 505 L 664 514 L 650 495 L 631 488 L 612 478 L 606 484 L 598 490 L 589 494 L 579 495 L 578 503 L 577 511 L 573 518 L 566 523 L 559 528 L 551 538 L 556 547 L 563 543 L 560 536 L 566 530 L 570 535 L 570 542 L 576 540 L 584 540 L 579 532 L 574 526 L 583 525 L 589 531 L 602 516 L 619 508 L 639 517 L 631 541 L 621 539 L 610 540 L 601 540 L 592 541 L 577 563 L 562 573 L 544 583 L 542 563 L 545 545 L 542 538 L 535 540 L 531 533 L 523 535 L 515 540 L 527 543 L 522 562 L 504 555 L 490 564 L 480 552 L 471 567 L 486 581 L 501 594 L 506 574 L 523 584 L 537 604 L 518 608 L 500 617 L 505 637 L 489 650 L 468 658 L 463 678 L 460 694 L 457 711 L 437 708 L 439 684 L 448 666 L 429 636 L 430 659 L 415 672 L 421 692 L 412 709 L 387 707 L 397 685 L 373 685 L 360 708 L 346 687 L 350 664 L 373 661 L 395 659 L 411 647 L 403 626 L 377 610 L 382 636 L 359 637 L 335 643 L 322 663 L 319 685 L 330 708 L 302 703 L 279 706 L 254 709 L 232 708 L 214 709 L 214 690 L 239 690 L 227 675 L 232 654 L 255 623 L 236 633 L 212 662 L 198 675 L 183 664 L 169 650 L 167 670 L 161 688 L 177 688 L 193 692 L 197 709 L 180 709 L 163 708 L 144 711 L 145 694 L 149 674 L 147 657 L 129 641 L 108 635 L 88 642 L 70 649 L 88 667 L 67 668 L 53 681 L 73 689 L 94 688 L 111 679 L 106 656 L 125 660 L 132 678 L 125 695 L 124 711 L 107 706 L 88 708 L 68 709 L 49 705 L 30 711 L 9 706 L 10 680 L 25 694 L 36 681 L 29 664 L 49 654 L 26 644 L 9 658 L 9 635 L 42 633 L 64 629 L 85 622 L 104 612 L 123 621 L 124 601 L 143 598 L 142 579 L 159 574 L 171 564 L 156 555 L 139 560 L 121 558 L 124 580 L 105 592 L 84 600 L 65 606 L 45 611 L 26 617 L 8 616 L 11 598 L 31 592 L 50 587 L 68 580 L 88 579 L 106 572 L 99 556 L 81 560 L 63 557 L 47 564 L 29 567 L 10 579 L 10 559 L 5 538 L 17 539 L 27 537 L 37 540 L 48 538 L 59 537 L 71 538 L 83 538 L 95 537 L 108 538 L 120 538 L 132 538 L 143 538 L 152 538 L 161 537 L 168 539 L 176 539 L 178 553 L 195 559 L 213 563 L 229 552 L 232 566 L 229 580 L 217 592 L 202 601 L 197 621 L 178 621 L 180 605 L 183 589 L 201 579 L 182 574 L 162 591 L 160 611 L 143 621 L 149 640 L 164 631 L 187 637 L 196 652 L 213 640 L 216 620 L 230 611 L 242 598 L 261 599 L 272 581 L 251 579 L 247 559 L 265 562 L 282 559 L 292 576 L 288 596 L 277 613 L 280 633 L 277 653 L 255 648 L 252 670 L 262 689 L 279 679 L 297 668 L 306 643 L 300 622 L 309 604 L 312 583 L 332 594 L 326 621 L 349 615 L 356 594 L 370 580 L 391 587 L 404 605 L 416 582 L 425 599 L 429 616 L 441 592 L 457 606 L 451 625 L 448 646 L 468 639 L 479 625 L 481 605 L 470 588 L 456 581 L 457 560 L 442 554 L 438 572 L 423 560 L 405 563 L 387 565 L 370 559 L 350 558 L 343 574 L 324 564 L 304 559 L 331 544 L 323 538 L 313 539 L 302 538 L 292 538 L 281 538 L 271 539 L 262 538 L 257 545 L 252 538 L 244 539 L 235 539 L 227 539 L 218 540 L 209 539 L 200 539 L 192 539 L 184 539 L 182 516 L 164 500 L 139 508 L 110 500 L 93 475 L 75 503 L 52 468 L 43 502 L 14 502 L 16 469 L 19 436 L 13 402 L 42 398 L 54 430 L 82 445 L 119 448 L 139 474 L 174 475 L 201 503 L 230 510 L 254 515 L 265 494 L 248 478 L 223 486 L 203 468 L 229 456 L 224 430 L 221 398 L 235 371 L 261 352 L 254 320 L 231 298 L 223 336 L 192 320 L 160 310 L 130 321 L 116 349 L 158 353 L 198 362 L 174 387 L 189 416 L 186 445 L 153 440 L 145 409 L 125 382 L 106 416 L 76 400 L 88 369 L 76 336 L 97 310 L 42 330 L 52 365 L 16 365 L 13 329 L 59 301 L 87 275 L 127 282 L 165 277 L 200 279 L 179 244 L 143 244 L 121 214 L 160 209 L 145 178 L 173 158 L 157 131 L 123 153 L 107 182 L 85 205 L 108 247 L 76 237 L 52 269 L 20 295 L 15 262 L 42 239 L 14 227 L 14 194 L 48 208 L 67 177 L 38 173 L 14 157 L 14 125 L 41 110 L 13 89 L 43 78 L 22 57 L 14 36 L 16 11 L 47 20 L 79 17 L 112 17 L 144 20 L 177 20 L 207 13 L 213 41 L 240 17 L 270 13 L 287 34 L 307 13 L 341 14 L 325 40 L 329 68 L 336 97 L 369 87 L 357 60 L 367 37 L 375 12 L 408 14 L 398 42 L 396 73 L 421 94 L 449 78 L 428 52 L 441 17 L 465 46 L 479 14 L 501 43 L 521 16 L 560 16 L 599 16 L 631 22 L 663 18 L 695 17 L 728 16 L 757 19 L 784 43 L 776 73 L 746 57 L 716 48 L 684 55 L 650 59 L 616 62 L 584 48 L 548 51 L 585 87 L 566 120 L 545 92 L 518 70 L 483 79 L 504 105 L 525 131 L 549 156 L 506 165 L 534 185 L 516 213 L 482 223 L 506 250 L 525 271 L 524 301 L 492 296 L 477 265 L 458 293 L 428 285 L 448 246 L 412 252 L 415 216 L 382 188 L 339 188 L 355 216 L 382 233 L 358 265 L 333 243 L 316 212 L 282 209 L 255 231 L 230 208 L 231 179 L 263 186 L 302 178 L 345 162 L 372 149 L 404 153 L 423 181 L 450 206 L 479 185 L 452 158 L 483 137 L 459 111 L 429 130 L 395 115 L 363 116 L 337 129 L 316 149 L 291 138 L 305 113 L 270 117 L 270 155 L 241 149 L 238 121 L 250 89 L 277 83 L 305 85 L 295 58 L 258 49 L 230 66 L 193 67 L 164 55 L 131 61 L 99 49 L 65 54 L 69 94 L 51 140 L 86 153 L 86 121 L 120 125 L 98 84 L 127 97 L 158 92 L 185 103 L 217 95 L 202 128 L 208 156 L 192 185 L 195 214 L 216 241 L 237 265 L 279 295 L 270 265 L 295 241 L 314 273 L 320 304 L 344 329 L 360 300 L 390 280 L 402 313 L 417 343 L 395 366 L 374 385 L 346 394 L 351 362 L 377 338 L 316 343 L 289 328 L 290 367 L 318 376 L 293 405 L 264 389 L 257 419 L 286 437 L 259 451 L 281 472 L 300 492 L 282 512 L 309 516 L 327 498 L 323 476 L 306 459 L 317 435 L 322 408 L 368 415 L 345 430 L 343 459 L 371 447 L 370 475 L 350 488 L 361 511 L 337 517 L 336 537 L 344 539 L 352 538 L 360 539 L 368 538 L 377 539 L 386 540 L 395 540 L 382 525 L 385 503 L 401 534 L 408 540 L 417 539 L 425 535 L 429 541 L 438 538 L 448 538 L 458 539 L 469 538 L 481 538 L 493 538 L 505 538 L 503 530 L 513 531 L 523 526 L 530 526 L 542 514 L 557 511 L 569 497 L 562 492 L 556 496 L 546 494 L 549 487 L 557 477 L 570 482 L 583 482 L 595 479 L 589 468 L 577 470 L 565 468 L 564 457 L 568 446 L 568 434 L 575 424 L 589 432 L 583 444 L 579 457 L 595 457 L 598 445 L 612 445 L 610 457 L 603 468 L 617 471 L 621 465 L 625 458 L 626 452 L 632 447 L 626 443 L 632 438 L 636 431 L 629 431 L 617 433 L 612 423 L 603 432 L 601 419 L 589 419 L 580 409 L 567 410 L 554 410 L 557 424 L 549 435 L 552 448 L 550 462 L 536 465 L 537 450 L 531 438 L 537 425 L 541 414 L 546 399 L 558 392 L 571 396 L 585 396 L 594 388 L 606 383 L 617 385 L 599 373 L 601 361 L 604 347 L 616 338 L 625 350 L 614 357 L 615 371 L 628 366 L 638 355 L 649 361 L 660 367 L 667 376 L 673 387 L 685 383 L 692 381 L 682 375 L 678 366 L 670 358 L 661 350 L 671 340 L 684 340 L 682 352 L 695 357 L 694 368 L 705 377 L 701 387 L 693 394 L 682 395 L 685 406 L 677 405 L 669 406 L 669 399 L 661 398 L 655 394 L 661 389 L 653 385 L 651 376 L 639 373 L 628 382 L 640 389 L 630 398 L 627 407 L 621 402 L 616 397 L 604 396 L 595 406 L 611 409 L 623 419 L 635 423 L 635 415 L 635 407 L 642 404 L 651 401 L 649 409 L 662 429 L 681 430 L 687 451 L 668 459 L 652 446 L 647 470 L 670 484 L 692 474 L 706 492 L 712 451 L 717 461 L 733 466 L 722 472 L 727 481 L 737 480 L 735 473 L 757 470 L 778 457 L 755 438 L 732 458 L 730 450 L 727 442 L 727 434 L 724 424 L 722 415 L 718 407 L 717 398 L 710 418 L 716 433 L 708 442 L 704 432 L 700 424 L 697 416 L 694 410 L 695 404 L 703 404 L 707 397 L 713 390 L 716 382 L 718 373 L 718 363 L 709 366 L 711 355 L 708 346 L 700 344 L 698 336 L 691 331 L 682 327 L 674 325 L 664 324 L 655 322 L 647 325 L 657 336 L 649 346 L 639 341 L 631 336 L 639 331 L 635 323 L 627 323 L 620 319 L 612 322 L 604 325 L 601 333 L 592 328 L 593 339 L 576 344 L 571 351 L 584 345 L 590 349 L 586 356 L 587 369 L 583 382 L 571 381 L 559 376 L 572 366 L 561 353 L 555 362 L 547 369 L 539 376 L 544 385 L 533 387 L 527 395 L 532 401 L 519 403 L 524 411 L 517 418 L 518 427 L 516 438 L 519 448 L 513 457 L 522 459 L 523 468 L 527 476 L 533 482 L 545 474 L 539 488 L 530 490 L 528 498 L 523 506 L 517 513 L 516 521 L 508 521 L 481 513 L 500 497 L 496 476 L 482 454 L 484 425 L 455 436 L 454 466 L 471 488 L 452 512 L 419 513 L 409 492 L 393 475 L 400 453 L 438 491 L 425 467 L 424 438 L 394 427 L 402 401 L 433 413 L 457 396 L 425 381 L 446 361 L 446 324 L 489 329 L 473 357 L 485 396 L 500 374 L 516 352 L 531 330 L 557 314 L 585 299 L 611 285 L 632 305 L 642 285 L 665 286 L 672 308 L 696 298 L 718 316 L 746 307 L 741 338 L 774 339 L 776 308 L 800 289 L 760 278 L 722 281 L 736 252 L 702 249 L 685 270 L 662 246 L 633 259 L 617 236 L 583 230 L 589 263 L 558 278 L 546 243 L 554 211 L 578 187 L 583 150 L 608 123 L 632 97 L 671 92 L 712 85 L 750 95 L 757 131 L 722 122 L 730 156 L 767 165 L 779 201 L 745 188 L 710 187 L 690 154 L 687 120 L 650 134 L 646 172 L 614 162 L 612 201 L 646 212 L 675 186 L 684 218 L 718 220 L 749 219 L 767 243 L 793 259 L 795 227 L 817 199 L 850 203 L 875 227 L 851 245 L 825 231 L 825 266 L 858 279 L 865 311 L 883 334 L 868 363 L 860 390 L 859 418 L 830 408 L 829 375 L 842 339 L 833 301 L 809 322 L 806 353 L 800 398 L 781 375 L 752 365 L 746 393 L 765 410 L 786 429 L 816 432 L 804 456 L 828 471 L 855 479 L 846 446 L 876 437 L 881 462 L 911 475 L 946 476 L 978 484 L 978 456 L 927 452 L 950 442 L 972 422 L 967 393 L 937 377 L 932 412 L 906 437 L 892 410 L 902 385 L 905 357 L 931 342 L 962 348 L 988 369 L 1021 378 L 1037 354 L 1001 338 L 1029 318 L 1064 335 L 1066 304 L 1060 269 L 1027 283 L 997 294 L 974 316 L 943 309 L 912 316 L 895 291 L 883 260 L 913 253 L 931 276 L 961 281 L 980 261 L 1006 250 L 1033 246 L 1062 235 L 1096 241 L 1108 211 L 1091 176 L 1090 143 L 1070 118 L 1052 141 L 1053 174 L 1068 204 L 1027 211 L 1018 175 L 992 189 L 987 221 L 956 240 L 934 223 L 905 221 L 886 195 L 900 163 L 893 130 L 861 109 L 856 140 L 866 170 L 832 167 L 800 172 L 792 141 L 822 130 L 830 97 L 788 108 L 806 80 L 822 53 L 855 72 L 865 43 L 895 53 L 888 90 L 921 68 L 950 84 L 920 108 L 954 121 L 933 150 L 924 187 L 957 193 L 972 159 L 988 133 L 1020 145 L 1015 113 L 1041 104 L 1066 87 L 1091 76 L 1074 49 L 1107 49 L 1140 50 L 1175 62 L 1210 54 L 1212 91 L 1181 105 L 1206 135 " stroke="black" stroke-width="3" fill="none"/> 
 </svg>