<?xml version="1.0" ?>
<!DOCTYPE svg PUBLIC "-//W3C//DTD SVG 1.1//EN" "http://www.w3.org/Graphics/SVG/1.1/DTD/svg11.dtd">
<svg width="1080" height="934" version="1.1" xmlns="http://www.w3.org/2000/svg">
<path d="M864 12 L 894 17 L 923 20 L 895 53 L 865 43 L 855 72 L 830 97 L 861 109 L 856 140 L 823 130 L 792 141 L 788 108 L 776 73 L 806 79 L 823 53 L 839 21 L 813 18 L 786 13 L 784 43 L 757 19 L 728 16 L 695 17 L 663 19 L 631 22 L 599 16 L 584 48 L 548 51 L 560 16 L 522 16 L 479 14 L 501 43 L 518 70 L 545 92 L 566 120 L 583 150 L 614 162 L 650 134 L 632 97 L 608 123 L 586 87 L 616 62 L 650 59 L 684 55 L 716 48 L 746 57 L 750 95 L 757 130 L 729 156 L 722 122 L 712 85 L 670 92 L 687 120 L 690 154 L 675 186 L 646 171 L 647 211 L 683 220 L 659 247 L 631 266 L 620 236 L 611 201 L 578 187 L 554 212 L 583 231 L 595 263 L 591 293 L 562 273 L 545 243 L 526 271 L 525 298 L 555 304 L 577 322 L 550 336 L 571 356 L 578 351 L 587 349 L 595 346 L 598 353 L 596 360 L 585 359 L 577 368 L 563 362 L 555 367 L 548 373 L 543 381 L 536 387 L 532 395 L 529 403 L 526 410 L 535 419 L 542 409 L 555 411 L 546 396 L 559 397 L 557 383 L 569 377 L 571 394 L 584 397 L 596 405 L 602 418 L 590 419 L 591 432 L 583 443 L 579 457 L 576 470 L 589 469 L 594 457 L 599 446 L 605 433 L 614 425 L 622 416 L 629 427 L 621 437 L 612 446 L 621 454 L 610 461 L 604 471 L 620 475 L 615 482 L 608 485 L 604 491 L 597 492 L 592 497 L 595 480 L 583 483 L 571 483 L 559 481 L 563 469 L 564 458 L 568 446 L 552 448 L 551 436 L 569 435 L 577 425 L 581 409 L 568 410 L 561 424 L 547 423 L 536 431 L 536 443 L 538 455 L 549 462 L 549 473 L 547 488 L 555 493 L 565 496 L 574 496 L 584 496 L 578 504 L 577 512 L 573 519 L 573 527 L 580 532 L 581 524 L 589 526 L 611 516 L 628 500 L 640 516 L 664 517 L 667 539 L 675 540 L 681 536 L 687 541 L 695 539 L 704 540 L 696 558 L 709 567 L 726 565 L 735 546 L 720 544 L 712 540 L 720 534 L 729 526 L 728 539 L 736 536 L 741 540 L 748 542 L 749 535 L 755 540 L 761 539 L 767 541 L 773 540 L 779 538 L 782 525 L 770 531 L 768 520 L 758 528 L 752 519 L 743 527 L 740 517 L 740 509 L 733 507 L 739 502 L 763 498 L 776 481 L 791 503 L 812 517 L 824 495 L 845 510 L 833 539 L 822 539 L 811 540 L 801 540 L 792 538 L 785 541 L 788 555 L 773 558 L 760 568 L 755 554 L 743 566 L 754 586 L 736 585 L 717 588 L 701 599 L 692 583 L 680 571 L 667 584 L 659 567 L 677 556 L 659 552 L 659 539 L 650 539 L 641 540 L 631 540 L 621 539 L 611 540 L 601 540 L 592 541 L 589 533 L 583 541 L 576 539 L 570 535 L 570 544 L 562 540 L 565 531 L 566 524 L 557 510 L 540 503 L 543 519 L 559 528 L 558 535 L 551 539 L 543 538 L 545 546 L 558 555 L 541 564 L 522 562 L 503 555 L 506 573 L 524 583 L 545 584 L 562 575 L 578 564 L 596 566 L 617 562 L 640 564 L 628 582 L 607 587 L 584 590 L 563 599 L 537 605 L 552 620 L 562 640 L 572 661 L 579 684 L 553 681 L 529 680 L 544 657 L 531 632 L 522 656 L 503 668 L 507 689 L 485 691 L 483 672 L 487 650 L 505 641 L 506 622 L 518 606 L 504 592 L 487 585 L 488 567 L 484 551 L 470 558 L 455 563 L 441 554 L 422 560 L 404 563 L 386 539 L 395 540 L 401 534 L 408 540 L 417 539 L 425 536 L 429 541 L 437 537 L 446 538 L 456 539 L 466 538 L 476 538 L 486 538 L 497 538 L 503 529 L 508 522 L 514 531 L 507 538 L 516 540 L 523 535 L 527 543 L 535 539 L 531 533 L 531 526 L 523 526 L 517 522 L 516 513 L 522 505 L 526 496 L 529 488 L 530 479 L 539 481 L 534 472 L 528 466 L 523 459 L 523 451 L 520 443 L 522 435 L 522 426 L 523 418 L 497 428 L 486 457 L 501 483 L 487 511 L 474 490 L 455 512 L 439 492 L 427 466 L 458 469 L 453 441 L 474 423 L 475 385 L 500 397 L 502 365 L 525 354 L 521 326 L 472 352 L 446 362 L 446 323 L 487 328 L 493 295 L 459 293 L 428 285 L 390 279 L 357 265 L 382 234 L 355 216 L 339 188 L 346 162 L 373 149 L 382 188 L 414 216 L 412 252 L 448 246 L 477 264 L 506 249 L 515 213 L 481 224 L 450 206 L 480 185 L 506 165 L 534 185 L 549 156 L 525 131 L 504 105 L 483 79 L 465 46 L 442 17 L 409 14 L 397 42 L 396 73 L 428 52 L 449 78 L 422 94 L 430 130 L 460 111 L 483 137 L 452 158 L 423 181 L 405 154 L 395 116 L 369 87 L 358 60 L 366 37 L 375 12 L 341 14 L 325 40 L 307 13 L 270 13 L 239 18 L 258 49 L 288 34 L 295 58 L 329 68 L 336 97 L 364 117 L 337 129 L 316 150 L 291 139 L 305 113 L 305 86 L 276 83 L 270 117 L 237 121 L 241 149 L 270 156 L 262 187 L 301 178 L 316 212 L 333 243 L 314 273 L 320 304 L 360 300 L 344 329 L 351 361 L 377 337 L 402 313 L 417 343 L 395 365 L 374 385 L 346 394 L 322 407 L 292 405 L 286 437 L 259 450 L 256 418 L 263 388 L 290 367 L 319 376 L 316 343 L 289 328 L 279 295 L 271 265 L 295 242 L 282 209 L 255 231 L 230 208 L 230 179 L 208 156 L 201 128 L 185 103 L 158 91 L 128 97 L 98 83 L 69 94 L 65 53 L 99 49 L 131 60 L 164 54 L 193 67 L 217 95 L 250 89 L 230 65 L 212 41 L 207 13 L 176 20 L 144 20 L 112 17 L 79 17 L 47 20 L 16 11 L 14 36 L 22 58 L 13 89 L 44 78 L 42 111 L 15 125 L 14 157 L 52 140 L 86 121 L 87 153 L 67 177 L 38 173 L 14 194 L 14 227 L 48 208 L 42 239 L 15 262 L 20 295 L 59 301 L 52 269 L 88 275 L 108 247 L 76 238 L 85 206 L 107 182 L 122 214 L 160 209 L 145 178 L 124 153 L 120 125 L 156 130 L 173 157 L 191 185 L 195 215 L 216 242 L 238 265 L 231 298 L 254 320 L 261 352 L 234 370 L 220 397 L 223 429 L 229 455 L 248 478 L 265 494 L 282 512 L 254 514 L 229 510 L 223 485 L 203 468 L 187 445 L 154 440 L 145 409 L 189 415 L 173 386 L 197 362 L 223 336 L 192 320 L 200 279 L 179 245 L 143 245 L 165 277 L 127 282 L 98 310 L 77 336 L 42 331 L 13 329 L 17 365 L 13 402 L 18 436 L 17 469 L 52 468 L 82 444 L 53 430 L 42 398 L 52 365 L 116 349 L 131 321 L 160 311 L 158 352 L 126 382 L 89 370 L 76 400 L 107 415 L 119 448 L 138 474 L 174 474 L 201 502 L 182 516 L 164 500 L 138 508 L 110 500 L 93 474 L 75 502 L 43 502 L 14 502 L 5 538 L 17 539 L 27 537 L 37 540 L 48 538 L 59 537 L 71 538 L 83 538 L 95 537 L 108 538 L 120 538 L 132 538 L 143 538 L 152 538 L 161 537 L 168 539 L 176 539 L 184 539 L 192 539 L 200 539 L 209 539 L 218 540 L 227 539 L 235 539 L 244 539 L 252 538 L 258 546 L 262 538 L 271 539 L 281 538 L 292 538 L 302 538 L 309 515 L 299 491 L 281 471 L 306 459 L 317 435 L 324 475 L 326 498 L 337 516 L 361 511 L 350 488 L 370 475 L 371 447 L 343 458 L 345 429 L 369 415 L 395 427 L 402 400 L 425 381 L 453 401 L 431 414 L 423 439 L 400 453 L 394 475 L 410 492 L 420 513 L 386 502 L 383 522 L 377 539 L 368 538 L 360 539 L 352 538 L 344 539 L 336 537 L 331 545 L 323 538 L 313 539 L 304 559 L 324 565 L 312 583 L 310 604 L 300 622 L 282 632 L 275 648 L 262 661 L 246 671 L 226 675 L 212 662 L 196 652 L 187 637 L 169 650 L 164 631 L 177 621 L 179 605 L 182 589 L 182 573 L 200 578 L 215 589 L 201 600 L 195 620 L 212 619 L 226 606 L 232 627 L 213 640 L 232 653 L 250 641 L 255 621 L 277 613 L 288 597 L 293 576 L 283 559 L 265 562 L 272 580 L 262 598 L 243 600 L 251 579 L 230 582 L 232 567 L 247 559 L 229 552 L 213 563 L 195 559 L 178 553 L 170 564 L 159 574 L 142 579 L 156 555 L 139 560 L 120 558 L 124 580 L 105 592 L 84 600 L 65 606 L 45 611 L 31 592 L 50 587 L 68 580 L 88 579 L 106 572 L 99 556 L 81 560 L 63 557 L 47 564 L 29 566 L 10 559 L 10 579 L 11 598 L 8 616 L 26 617 L 64 629 L 43 633 L 27 644 L 9 635 L 9 658 L 29 664 L 49 655 L 36 681 L 25 694 L 10 680 L 9 706 L 30 711 L 49 705 L 68 709 L 88 708 L 107 706 L 124 711 L 125 695 L 132 678 L 125 660 L 129 641 L 123 621 L 108 635 L 106 656 L 111 679 L 94 688 L 88 667 L 73 689 L 53 681 L 67 668 L 70 649 L 88 642 L 85 622 L 104 613 L 124 601 L 143 599 L 162 592 L 159 611 L 143 621 L 149 640 L 147 657 L 149 674 L 167 670 L 183 665 L 198 675 L 177 688 L 161 688 L 145 694 L 144 710 L 162 708 L 180 709 L 193 692 L 197 709 L 214 709 L 214 690 L 232 709 L 239 691 L 262 687 L 255 708 L 279 707 L 303 704 L 283 680 L 296 665 L 307 643 L 322 664 L 317 685 L 330 708 L 360 708 L 345 686 L 349 663 L 335 643 L 326 621 L 332 595 L 343 575 L 350 558 L 370 559 L 387 565 L 370 580 L 356 595 L 377 610 L 349 616 L 359 637 L 382 636 L 403 626 L 404 605 L 391 588 L 415 582 L 438 573 L 470 577 L 456 586 L 440 592 L 425 599 L 428 617 L 428 636 L 410 647 L 394 659 L 373 661 L 372 685 L 396 685 L 387 707 L 411 709 L 420 692 L 415 672 L 430 659 L 448 666 L 448 646 L 450 626 L 455 609 L 473 600 L 491 607 L 480 624 L 467 638 L 467 658 L 463 678 L 439 684 L 436 708 L 457 711 L 460 694 L 478 709 L 499 709 L 520 707 L 541 705 L 564 706 L 588 708 L 603 689 L 600 666 L 626 683 L 616 708 L 640 706 L 664 709 L 655 688 L 644 669 L 623 656 L 655 649 L 639 635 L 616 631 L 592 641 L 578 619 L 600 612 L 625 607 L 647 591 L 649 614 L 668 627 L 673 603 L 691 615 L 695 633 L 679 648 L 670 668 L 678 688 L 687 707 L 708 708 L 706 688 L 693 673 L 700 656 L 715 641 L 715 616 L 733 606 L 734 631 L 752 625 L 754 605 L 773 620 L 792 614 L 809 601 L 810 620 L 816 640 L 807 657 L 793 637 L 772 640 L 756 649 L 736 654 L 719 667 L 763 671 L 783 661 L 798 681 L 776 688 L 744 676 L 728 689 L 731 710 L 751 701 L 770 709 L 794 706 L 817 710 L 819 692 L 820 671 L 837 658 L 839 641 L 830 624 L 831 606 L 834 589 L 817 586 L 800 583 L 788 594 L 772 600 L 770 581 L 783 573 L 797 567 L 805 554 L 812 569 L 827 571 L 842 572 L 856 567 L 854 552 L 837 555 L 821 554 L 844 539 L 855 538 L 865 538 L 873 539 L 880 536 L 886 540 L 893 536 L 899 539 L 907 538 L 913 544 L 917 536 L 925 540 L 933 538 L 942 538 L 952 539 L 962 540 L 972 539 L 981 539 L 990 540 L 999 539 L 1008 540 L 1018 539 L 1027 539 L 1037 539 L 1046 538 L 1055 539 L 1063 540 L 1048 550 L 1039 562 L 1023 568 L 1019 551 L 1001 559 L 985 573 L 977 556 L 961 564 L 944 555 L 927 562 L 909 567 L 907 587 L 887 584 L 889 567 L 898 552 L 881 551 L 871 560 L 869 580 L 852 587 L 855 604 L 852 623 L 864 643 L 859 665 L 882 663 L 891 642 L 877 623 L 875 601 L 897 608 L 908 627 L 923 607 L 937 627 L 948 602 L 928 584 L 946 576 L 968 585 L 973 606 L 962 627 L 962 651 L 987 649 L 989 623 L 994 595 L 1007 579 L 1025 593 L 1011 610 L 1011 637 L 1014 662 L 1036 650 L 1061 646 L 1082 637 L 1093 619 L 1069 617 L 1051 628 L 1030 622 L 1047 605 L 1043 582 L 1062 589 L 1079 600 L 1096 596 L 1114 590 L 1130 592 L 1142 579 L 1128 572 L 1113 573 L 1097 577 L 1079 577 L 1059 566 L 1076 558 L 1095 558 L 1115 556 L 1132 554 L 1146 561 L 1145 539 L 1137 539 L 1131 536 L 1125 540 L 1118 538 L 1111 539 L 1103 539 L 1095 539 L 1087 537 L 1079 539 L 1071 539 L 1111 512 L 1092 495 L 1071 468 L 1066 498 L 1062 519 L 1036 506 L 1041 476 L 1040 441 L 1006 435 L 1005 405 L 973 422 L 967 393 L 939 377 L 906 386 L 889 407 L 906 436 L 932 412 L 950 441 L 926 452 L 947 476 L 978 484 L 978 456 L 1011 464 L 1010 490 L 1013 516 L 990 510 L 968 512 L 947 506 L 924 503 L 901 510 L 911 475 L 886 488 L 871 509 L 855 480 L 881 462 L 876 437 L 860 416 L 855 388 L 873 365 L 906 357 L 932 342 L 963 348 L 988 369 L 1021 378 L 1037 354 L 1071 372 L 1084 403 L 1045 405 L 1074 435 L 1112 427 L 1102 458 L 1122 480 L 1156 477 L 1139 450 L 1146 413 L 1118 393 L 1117 362 L 1096 340 L 1112 309 L 1091 279 L 1060 269 L 1066 304 L 1064 336 L 1030 317 L 1001 338 L 974 316 L 997 294 L 1028 283 L 1006 250 L 981 261 L 961 282 L 913 252 L 932 275 L 942 309 L 912 316 L 899 289 L 870 305 L 884 333 L 849 331 L 837 357 L 820 381 L 831 412 L 815 434 L 847 446 L 828 467 L 801 481 L 801 456 L 783 430 L 800 405 L 771 401 L 749 416 L 755 441 L 776 457 L 754 470 L 727 440 L 728 448 L 730 457 L 732 466 L 734 476 L 736 485 L 738 493 L 732 499 L 729 492 L 727 485 L 723 477 L 719 468 L 715 459 L 712 450 L 707 442 L 704 433 L 716 436 L 725 431 L 723 423 L 721 414 L 720 406 L 711 421 L 700 425 L 697 418 L 677 432 L 662 445 L 664 469 L 687 455 L 689 479 L 707 491 L 706 514 L 685 506 L 662 494 L 643 482 L 625 469 L 630 463 L 634 455 L 640 449 L 633 445 L 639 439 L 642 430 L 643 421 L 646 412 L 653 414 L 660 411 L 667 405 L 667 398 L 658 397 L 657 388 L 644 392 L 638 401 L 637 413 L 630 408 L 624 401 L 612 408 L 607 396 L 595 388 L 582 383 L 589 373 L 600 374 L 608 382 L 619 389 L 631 385 L 642 376 L 655 374 L 666 363 L 671 352 L 670 340 L 657 349 L 650 361 L 637 359 L 630 369 L 618 373 L 608 365 L 613 355 L 625 354 L 642 346 L 647 338 L 630 340 L 618 343 L 603 343 L 607 336 L 616 330 L 624 326 L 603 316 L 624 294 L 656 291 L 633 323 L 639 329 L 647 327 L 655 334 L 663 329 L 673 329 L 688 300 L 713 314 L 742 312 L 758 280 L 735 254 L 719 283 L 681 271 L 701 250 L 717 221 L 710 188 L 744 189 L 767 165 L 800 172 L 778 201 L 795 228 L 749 220 L 766 244 L 791 261 L 799 290 L 776 309 L 772 338 L 742 344 L 718 338 L 709 351 L 716 359 L 721 367 L 719 375 L 704 376 L 705 365 L 695 357 L 701 342 L 693 335 L 683 332 L 685 347 L 681 360 L 691 373 L 683 371 L 668 376 L 673 388 L 684 379 L 690 384 L 698 387 L 709 388 L 698 398 L 684 397 L 675 408 L 683 412 L 692 412 L 701 410 L 708 408 L 712 402 L 718 397 L 720 389 L 722 382 L 746 389 L 760 367 L 788 374 L 803 349 L 812 322 L 834 298 L 857 276 L 883 260 L 876 228 L 851 244 L 824 264 L 825 230 L 816 199 L 851 203 L 832 167 L 866 170 L 887 195 L 905 220 L 935 222 L 956 241 L 987 221 L 992 189 L 957 193 L 924 187 L 900 162 L 893 130 L 920 108 L 889 89 L 920 68 L 946 46 L 956 13 L 979 36 L 995 13 L 1026 15 L 1059 14 L 1089 17 L 1120 16 L 1151 15 L 1177 25 L 1203 14 L 1230 22 L 1256 20 L 1249 62 L 1211 54 L 1176 63 L 1141 50 L 1108 49 L 1074 49 L 1044 39 L 1042 69 L 1066 86 L 1092 76 L 1122 82 L 1152 89 L 1159 131 L 1168 167 L 1126 150 L 1125 118 L 1097 107 L 1041 105 L 1012 80 L 1012 47 L 979 65 L 982 98 L 950 84 L 954 121 L 934 150 L 971 159 L 988 133 L 1014 114 L 1020 145 L 1018 175 L 1027 210 L 1033 246 L 1062 235 L 1068 205 L 1053 174 L 1052 142 L 1070 118 L 1090 144 L 1092 177 L 1097 242 L 1109 211 L 1130 180 L 1149 206 L 1182 215 L 1218 210 L 1206 174 L 1206 135 L 1182 105 L 1213 91 L 1249 103 L 1247 141 L 1249 181 L 1252 227 L 1249 272 L 1245 312 L 1253 352 L 1252 391 L 1221 396 L 1194 368 L 1222 347 L 1186 329 L 1203 294 L 1215 251 L 1177 259 L 1143 241 L 1124 270 L 1155 294 L 1145 331 L 1154 366 L 1171 392 L 1190 413 L 1170 439 L 1186 462 L 1188 488 L 1224 486 L 1219 461 L 1213 434 L 1250 428 L 1252 460 L 1255 488 L 1252 512 L 1225 513 L 1204 508 L 1184 517 L 1164 504 L 1137 504 L 1152 523 L 1152 540 L 1160 539 L 1168 539 L 1176 539 L 1183 539 L 1191 540 L 1199 538 L 1207 539 L 1215 538 L 1224 538 L 1232 540 L 1238 536 L 1244 540 L 1251 537 L 1258 539 L 1265 537 L 1261 557 L 1246 559 L 1232 565 L 1221 552 L 1213 565 L 1196 560 L 1180 554 L 1162 555 L 1159 572 L 1176 568 L 1188 579 L 1205 580 L 1224 583 L 1195 595 L 1178 601 L 1172 586 L 1157 588 L 1145 596 L 1160 605 L 1173 618 L 1193 613 L 1212 600 L 1224 615 L 1244 615 L 1236 597 L 1245 581 L 1261 577 L 1259 601 L 1260 628 L 1257 654 L 1241 636 L 1219 637 L 1206 625 L 1186 633 L 1176 652 L 1165 637 L 1153 624 L 1143 612 L 1126 611 L 1110 609 L 1114 629 L 1101 644 L 1102 666 L 1080 661 L 1058 672 L 1039 679 L 1019 688 L 997 679 L 975 674 L 953 681 L 927 679 L 940 657 L 920 646 L 907 663 L 900 685 L 876 685 L 855 689 L 839 681 L 840 707 L 863 709 L 884 706 L 904 708 L 922 704 L 943 706 L 965 706 L 985 703 L 1009 708 L 1038 707 L 1064 703 L 1083 685 L 1092 708 L 1110 687 L 1120 709 L 1146 709 L 1135 691 L 1146 675 L 1126 669 L 1124 649 L 1134 630 L 1145 644 L 1153 658 L 1170 672 L 1161 689 L 1168 707 L 1187 709 L 1187 689 L 1191 669 L 1199 647 L 1212 664 L 1213 686 L 1207 707 L 1229 709 L 1238 691 L 1235 671 L 1231 653 L 1258 680 L 1256 706 " stroke="black" stroke-width="3" fill="none"/> 
 </svg>