<?xml version="1.0" ?>
<!DOCTYPE svg PUBLIC "-//W3C//DTD SVG 1.1//EN" "http://www.w3.org/Graphics/SVG/1.1/DTD/svg11.dtd">
<svg width="1080" height="934" version="1.1" xmlns="http://www.w3.org/2000/svg">
<path d="M864 12 L 894 17 L 923 20 L 956 13 L 979 36 L 995 13 L 1026 15 L 1059 14 L 1089 17 L 1120 16 L 1151 15 L 1177 25 L 1203 14 L 1230 22 L 1256 20 L 1249 62 L 1211 54 L 1176 63 L 1141 50 L 1108 49 L 1074 49 L 1044 39 L 1042 69 L 1012 80 L 1012 47 L 979 65 L 982 98 L 988 133 L 971 159 L 957 193 L 924 187 L 900 162 L 934 150 L 954 121 L 950 84 L 946 46 L 920 68 L 895 53 L 889 89 L 920 108 L 893 130 L 861 109 L 855 72 L 865 43 L 839 21 L 813 18 L 786 12 L 757 19 L 728 16 L 696 16 L 663 18 L 631 22 L 598 15 L 586 47 L 580 82 L 612 100 L 619 62 L 653 57 L 649 97 L 685 87 L 685 52 L 717 47 L 748 55 L 776 73 L 785 43 L 823 53 L 806 79 L 830 97 L 823 130 L 856 140 L 832 167 L 866 170 L 851 203 L 887 195 L 905 220 L 935 222 L 956 241 L 981 261 L 1006 250 L 1033 246 L 1027 210 L 987 221 L 992 189 L 1018 175 L 1020 145 L 1014 114 L 1041 105 L 1066 86 L 1092 76 L 1122 82 L 1152 89 L 1159 131 L 1182 105 L 1206 135 L 1213 91 L 1249 103 L 1247 141 L 1249 181 L 1206 174 L 1168 167 L 1130 180 L 1126 150 L 1125 118 L 1097 107 L 1070 118 L 1052 142 L 1053 174 L 1090 144 L 1092 177 L 1068 204 L 1061 235 L 1095 240 L 1110 211 L 1149 205 L 1182 215 L 1218 210 L 1252 227 L 1248 272 L 1247 310 L 1201 295 L 1215 252 L 1178 260 L 1150 288 L 1144 241 L 1121 266 L 1090 278 L 1059 269 L 1064 304 L 1072 336 L 1067 372 L 1078 404 L 1108 399 L 1107 368 L 1111 339 L 1108 307 L 1150 320 L 1150 355 L 1185 334 L 1207 371 L 1221 338 L 1252 354 L 1251 391 L 1250 429 L 1222 403 L 1188 411 L 1173 382 L 1139 390 L 1152 419 L 1173 443 L 1189 465 L 1211 435 L 1222 460 L 1252 461 L 1255 489 L 1222 486 L 1224 512 L 1203 507 L 1185 518 L 1166 506 L 1187 489 L 1157 477 L 1139 452 L 1115 428 L 1102 458 L 1121 480 L 1137 500 L 1112 512 L 1092 496 L 1065 497 L 1062 518 L 1035 507 L 1041 476 L 1071 468 L 1075 435 L 1043 407 L 1041 442 L 1007 435 L 1004 405 L 1023 378 L 1037 351 L 1001 337 L 1030 317 L 1027 282 L 997 294 L 973 316 L 961 282 L 932 275 L 913 252 L 883 261 L 876 228 L 851 244 L 826 230 L 816 199 L 800 172 L 792 141 L 789 108 L 767 164 L 756 130 L 752 96 L 719 83 L 720 120 L 730 156 L 711 190 L 692 154 L 683 121 L 651 137 L 613 133 L 611 170 L 643 172 L 674 183 L 646 212 L 609 207 L 577 188 L 557 214 L 517 214 L 483 223 L 479 185 L 535 186 L 507 166 L 484 137 L 460 111 L 449 78 L 483 78 L 504 105 L 526 130 L 549 155 L 582 151 L 570 119 L 543 94 L 519 70 L 548 51 L 560 16 L 521 16 L 501 43 L 479 14 L 465 46 L 442 17 L 428 52 L 422 94 L 395 115 L 396 73 L 397 42 L 409 14 L 375 12 L 366 37 L 358 60 L 369 87 L 364 117 L 337 97 L 329 68 L 325 40 L 341 14 L 307 13 L 295 58 L 288 34 L 270 13 L 240 17 L 258 49 L 230 65 L 219 93 L 250 88 L 277 82 L 305 86 L 272 115 L 242 120 L 237 149 L 267 153 L 291 139 L 306 114 L 337 129 L 317 151 L 296 177 L 346 161 L 374 150 L 406 152 L 430 129 L 453 157 L 428 180 L 392 187 L 361 191 L 328 187 L 313 214 L 279 211 L 265 186 L 238 178 L 233 210 L 255 234 L 236 265 L 214 240 L 180 245 L 143 247 L 110 247 L 119 215 L 156 213 L 191 212 L 207 187 L 205 156 L 210 124 L 187 96 L 157 102 L 129 93 L 98 84 L 65 53 L 99 49 L 131 59 L 163 60 L 194 62 L 216 40 L 206 13 L 176 21 L 144 20 L 113 17 L 79 17 L 47 20 L 16 11 L 14 36 L 22 58 L 13 89 L 43 78 L 69 93 L 85 121 L 121 122 L 116 152 L 149 143 L 178 134 L 174 175 L 140 181 L 106 182 L 84 204 L 77 234 L 48 207 L 38 173 L 66 177 L 84 153 L 51 141 L 42 110 L 15 125 L 14 157 L 14 193 L 14 225 L 17 259 L 43 238 L 56 266 L 36 291 L 11 289 L 15 320 L 13 352 L 44 332 L 77 336 L 62 302 L 92 299 L 88 270 L 126 284 L 165 276 L 200 280 L 232 298 L 254 320 L 223 336 L 199 363 L 193 320 L 163 308 L 136 321 L 106 325 L 126 353 L 162 351 L 173 387 L 189 415 L 186 444 L 174 474 L 203 467 L 229 456 L 223 429 L 220 397 L 235 370 L 261 352 L 291 368 L 322 370 L 313 398 L 288 410 L 264 389 L 255 419 L 259 450 L 248 478 L 282 472 L 285 440 L 315 432 L 309 459 L 323 479 L 343 464 L 345 440 L 371 448 L 367 416 L 338 416 L 345 390 L 353 360 L 374 386 L 394 366 L 414 342 L 438 319 L 461 295 L 494 290 L 429 282 L 400 311 L 377 336 L 344 329 L 316 340 L 288 328 L 279 296 L 269 267 L 293 243 L 312 275 L 320 304 L 358 298 L 361 262 L 330 249 L 348 222 L 382 228 L 391 280 L 409 251 L 417 216 L 451 207 L 447 245 L 474 263 L 507 250 L 530 271 L 548 246 L 584 239 L 621 243 L 657 251 L 689 254 L 681 218 L 714 227 L 746 218 L 745 187 L 778 201 L 796 229 L 767 242 L 740 253 L 753 287 L 715 270 L 713 299 L 727 326 L 755 344 L 763 375 L 792 353 L 810 325 L 771 317 L 795 293 L 788 263 L 822 265 L 856 276 L 832 299 L 849 331 L 833 356 L 815 380 L 791 397 L 828 410 L 853 387 L 872 365 L 906 357 L 884 333 L 870 305 L 899 289 L 912 316 L 942 309 L 932 342 L 963 348 L 989 369 L 967 393 L 973 423 L 932 412 L 939 377 L 906 386 L 889 406 L 859 415 L 876 437 L 906 435 L 926 452 L 950 442 L 947 476 L 912 476 L 903 508 L 892 528 L 899 539 L 893 541 L 886 539 L 879 537 L 873 540 L 864 538 L 855 538 L 844 539 L 833 539 L 822 539 L 821 554 L 805 554 L 797 567 L 788 555 L 773 558 L 760 568 L 756 554 L 743 565 L 726 564 L 710 567 L 713 541 L 721 541 L 729 538 L 734 545 L 739 538 L 747 534 L 746 542 L 754 540 L 761 540 L 767 539 L 774 541 L 780 534 L 784 541 L 792 539 L 801 540 L 811 540 L 810 522 L 803 503 L 826 497 L 847 510 L 873 509 L 885 487 L 882 461 L 855 478 L 825 467 L 846 445 L 813 432 L 795 455 L 794 481 L 773 505 L 754 502 L 761 514 L 784 519 L 772 524 L 760 528 L 749 522 L 743 512 L 737 500 L 727 513 L 735 525 L 722 526 L 704 540 L 696 539 L 688 539 L 681 539 L 674 540 L 667 539 L 677 556 L 696 558 L 680 571 L 693 583 L 701 599 L 717 588 L 736 584 L 754 586 L 770 581 L 783 573 L 772 600 L 787 594 L 799 582 L 812 569 L 827 570 L 842 570 L 837 555 L 854 553 L 857 568 L 868 581 L 851 587 L 855 604 L 855 624 L 863 644 L 859 666 L 837 658 L 837 639 L 834 619 L 831 602 L 834 586 L 817 586 L 807 599 L 813 615 L 816 630 L 812 646 L 807 661 L 821 672 L 839 681 L 855 690 L 876 685 L 882 664 L 891 643 L 878 623 L 876 601 L 887 583 L 871 561 L 883 552 L 891 566 L 906 555 L 906 538 L 913 541 L 918 536 L 925 540 L 934 539 L 929 561 L 910 571 L 906 590 L 897 609 L 909 627 L 920 646 L 907 663 L 900 685 L 927 679 L 953 681 L 975 674 L 987 649 L 962 651 L 940 657 L 938 628 L 963 627 L 949 601 L 923 607 L 928 584 L 947 576 L 943 548 L 957 560 L 975 561 L 969 584 L 996 594 L 974 605 L 989 623 L 1011 637 L 1030 622 L 1011 611 L 1023 592 L 1023 565 L 1008 572 L 989 575 L 995 556 L 1007 540 L 997 539 L 986 539 L 975 540 L 964 540 L 953 539 L 943 536 L 928 504 L 953 506 L 974 515 L 979 486 L 978 457 L 1011 464 L 1012 491 L 997 511 L 1016 522 L 1017 541 L 1027 540 L 1036 539 L 1046 539 L 1054 539 L 1063 540 L 1071 539 L 1079 539 L 1087 537 L 1095 539 L 1103 538 L 1111 539 L 1118 538 L 1125 540 L 1131 537 L 1138 539 L 1146 540 L 1148 519 L 1155 539 L 1163 539 L 1172 539 L 1181 539 L 1190 540 L 1198 539 L 1206 540 L 1214 537 L 1216 546 L 1223 538 L 1232 539 L 1240 529 L 1249 509 L 1264 532 L 1263 540 L 1255 538 L 1247 539 L 1239 540 L 1230 555 L 1247 560 L 1261 557 L 1261 577 L 1246 582 L 1233 570 L 1223 584 L 1212 600 L 1194 594 L 1193 613 L 1206 625 L 1224 615 L 1244 615 L 1236 597 L 1259 601 L 1260 628 L 1257 654 L 1258 680 L 1256 706 L 1238 691 L 1229 709 L 1207 707 L 1213 686 L 1235 671 L 1231 653 L 1241 636 L 1219 637 L 1212 664 L 1199 647 L 1186 633 L 1173 618 L 1178 601 L 1160 605 L 1145 596 L 1130 592 L 1114 590 L 1113 573 L 1128 572 L 1143 579 L 1157 588 L 1172 585 L 1188 578 L 1205 579 L 1214 564 L 1196 560 L 1178 554 L 1176 568 L 1159 571 L 1160 555 L 1145 561 L 1132 554 L 1115 556 L 1095 558 L 1097 577 L 1080 577 L 1076 558 L 1060 567 L 1049 552 L 1039 563 L 1043 582 L 1062 589 L 1079 600 L 1096 596 L 1110 609 L 1126 611 L 1143 612 L 1153 624 L 1165 637 L 1176 652 L 1170 672 L 1191 669 L 1187 689 L 1187 709 L 1168 707 L 1161 689 L 1146 709 L 1135 691 L 1120 709 L 1092 708 L 1083 685 L 1064 703 L 1038 707 L 1039 679 L 1058 672 L 1080 661 L 1102 666 L 1110 687 L 1126 669 L 1124 649 L 1146 675 L 1153 658 L 1145 644 L 1134 630 L 1114 629 L 1101 644 L 1082 637 L 1093 619 L 1069 617 L 1046 605 L 1051 628 L 1061 646 L 1036 650 L 1014 662 L 997 679 L 1019 688 L 1009 708 L 985 703 L 965 706 L 943 706 L 922 704 L 904 708 L 884 706 L 863 709 L 840 707 L 817 710 L 819 692 L 797 681 L 794 706 L 770 709 L 775 688 L 764 671 L 784 660 L 793 636 L 792 614 L 773 620 L 772 640 L 755 649 L 736 654 L 744 676 L 751 701 L 731 710 L 728 689 L 719 667 L 701 656 L 693 674 L 706 688 L 708 708 L 687 707 L 664 708 L 678 688 L 670 668 L 658 650 L 643 637 L 669 627 L 680 648 L 695 633 L 715 641 L 734 631 L 752 625 L 754 605 L 733 606 L 715 616 L 691 615 L 673 603 L 667 584 L 659 568 L 659 553 L 659 539 L 650 539 L 641 540 L 639 563 L 627 580 L 647 590 L 648 614 L 625 603 L 623 626 L 602 636 L 601 610 L 578 619 L 553 618 L 558 639 L 531 631 L 520 656 L 503 668 L 507 689 L 528 681 L 552 683 L 541 657 L 565 663 L 579 682 L 582 648 L 601 665 L 624 654 L 626 683 L 644 668 L 654 688 L 640 706 L 616 708 L 603 689 L 588 708 L 564 706 L 541 706 L 520 707 L 499 709 L 478 709 L 485 691 L 483 672 L 487 650 L 505 641 L 505 622 L 519 607 L 526 585 L 539 601 L 561 595 L 583 590 L 605 585 L 614 562 L 590 564 L 567 568 L 546 574 L 527 564 L 531 546 L 521 543 L 515 527 L 507 515 L 492 513 L 505 499 L 518 494 L 523 509 L 529 524 L 532 535 L 538 526 L 546 529 L 553 525 L 561 526 L 567 520 L 574 514 L 587 514 L 576 528 L 542 546 L 553 545 L 564 543 L 575 541 L 584 537 L 591 527 L 595 541 L 606 540 L 619 540 L 630 541 L 622 523 L 628 503 L 620 503 L 612 505 L 598 519 L 603 510 L 606 500 L 608 491 L 606 482 L 594 485 L 589 474 L 577 477 L 582 489 L 594 499 L 583 502 L 571 498 L 567 485 L 555 478 L 542 476 L 546 490 L 557 496 L 563 508 L 551 510 L 541 513 L 537 501 L 532 490 L 525 478 L 510 480 L 496 483 L 485 469 L 471 467 L 476 453 L 484 440 L 491 454 L 501 467 L 518 463 L 533 464 L 547 460 L 554 461 L 553 448 L 565 446 L 557 437 L 563 427 L 571 433 L 575 421 L 588 416 L 581 412 L 581 404 L 567 407 L 555 411 L 549 425 L 519 427 L 533 430 L 543 437 L 540 450 L 528 449 L 517 442 L 507 452 L 502 438 L 494 428 L 507 422 L 512 410 L 504 401 L 514 394 L 526 393 L 524 403 L 531 405 L 527 414 L 541 414 L 543 398 L 546 385 L 559 380 L 557 396 L 569 391 L 571 374 L 559 363 L 567 359 L 575 362 L 583 363 L 592 365 L 599 370 L 601 376 L 608 377 L 609 385 L 614 390 L 617 396 L 621 381 L 611 355 L 635 356 L 651 377 L 640 400 L 626 406 L 631 412 L 639 414 L 644 420 L 651 420 L 655 427 L 662 430 L 667 436 L 674 442 L 681 447 L 689 452 L 698 458 L 682 460 L 690 464 L 699 467 L 707 469 L 691 490 L 673 478 L 674 456 L 666 453 L 659 449 L 653 445 L 647 443 L 641 440 L 646 430 L 637 432 L 634 438 L 629 434 L 624 432 L 617 433 L 621 427 L 631 423 L 618 416 L 610 412 L 617 408 L 618 402 L 606 399 L 595 387 L 587 375 L 580 382 L 582 392 L 589 400 L 596 400 L 598 407 L 595 413 L 597 422 L 611 420 L 615 426 L 610 427 L 605 427 L 600 431 L 594 433 L 587 434 L 580 436 L 577 442 L 580 447 L 575 452 L 568 456 L 561 458 L 566 470 L 578 465 L 585 455 L 592 460 L 603 447 L 599 466 L 603 474 L 621 475 L 615 458 L 627 451 L 639 463 L 651 476 L 644 479 L 637 482 L 633 488 L 633 495 L 641 488 L 648 484 L 655 483 L 656 489 L 653 496 L 647 492 L 641 496 L 647 500 L 653 504 L 648 509 L 642 505 L 636 502 L 637 509 L 643 515 L 651 516 L 656 510 L 676 502 L 676 521 L 699 514 L 714 491 L 738 471 L 766 477 L 762 450 L 781 428 L 759 407 L 741 429 L 723 449 L 710 423 L 685 424 L 670 395 L 698 395 L 730 394 L 721 361 L 686 363 L 658 341 L 688 326 L 675 290 L 634 279 L 643 310 L 620 329 L 588 334 L 598 304 L 598 272 L 563 283 L 562 319 L 526 298 L 531 321 L 542 345 L 550 366 L 542 371 L 534 377 L 529 384 L 520 380 L 511 380 L 503 386 L 495 391 L 492 400 L 485 407 L 494 410 L 491 418 L 484 421 L 476 426 L 470 433 L 465 442 L 461 451 L 458 460 L 457 469 L 458 477 L 471 481 L 482 487 L 492 498 L 479 501 L 466 498 L 461 492 L 458 485 L 454 498 L 450 519 L 463 505 L 468 511 L 471 518 L 478 515 L 478 523 L 485 528 L 495 530 L 495 539 L 504 538 L 512 542 L 505 556 L 508 573 L 505 592 L 487 585 L 489 567 L 485 552 L 486 538 L 476 539 L 465 539 L 456 539 L 447 538 L 438 538 L 430 540 L 424 537 L 416 539 L 409 539 L 401 538 L 405 516 L 431 514 L 422 495 L 437 479 L 421 464 L 439 441 L 429 412 L 454 406 L 464 378 L 489 359 L 514 346 L 491 322 L 465 339 L 441 356 L 426 381 L 401 400 L 390 426 L 415 433 L 398 452 L 393 473 L 401 492 L 370 476 L 351 490 L 354 515 L 378 503 L 380 525 L 393 539 L 385 539 L 376 540 L 368 538 L 360 539 L 351 539 L 343 540 L 335 537 L 326 538 L 330 504 L 311 516 L 300 493 L 283 513 L 265 494 L 254 514 L 317 539 L 307 538 L 298 538 L 289 539 L 279 539 L 270 539 L 261 538 L 252 538 L 244 539 L 235 539 L 229 511 L 223 485 L 201 502 L 182 516 L 164 500 L 138 508 L 110 500 L 92 475 L 53 470 L 82 444 L 54 432 L 46 400 L 80 402 L 109 417 L 118 450 L 139 475 L 153 442 L 147 411 L 129 385 L 96 368 L 65 368 L 37 367 L 14 386 L 16 418 L 20 446 L 16 474 L 13 505 L 43 503 L 75 503 L 70 538 L 58 537 L 46 538 L 33 539 L 20 538 L 6 538 L 10 558 L 10 578 L 29 567 L 47 563 L 63 557 L 81 560 L 83 538 L 95 537 L 108 538 L 120 538 L 132 538 L 143 538 L 152 538 L 161 537 L 168 540 L 176 539 L 184 539 L 192 539 L 200 539 L 209 539 L 218 540 L 227 539 L 229 552 L 232 566 L 229 580 L 215 588 L 201 600 L 195 620 L 211 619 L 225 606 L 240 596 L 251 579 L 247 559 L 258 548 L 265 563 L 282 559 L 293 575 L 304 559 L 322 567 L 333 553 L 344 572 L 361 559 L 384 562 L 403 563 L 422 560 L 437 573 L 441 555 L 456 563 L 471 558 L 470 577 L 456 586 L 440 592 L 424 599 L 415 582 L 391 587 L 370 579 L 357 593 L 350 615 L 377 610 L 403 605 L 403 626 L 382 635 L 359 636 L 351 662 L 343 684 L 370 684 L 394 682 L 374 660 L 395 657 L 411 647 L 428 636 L 428 617 L 448 646 L 450 626 L 455 609 L 472 600 L 491 607 L 480 624 L 467 638 L 467 658 L 463 678 L 460 694 L 458 711 L 439 707 L 439 684 L 448 666 L 430 659 L 415 672 L 418 691 L 418 710 L 398 706 L 377 707 L 353 707 L 327 707 L 318 686 L 301 704 L 279 706 L 255 709 L 261 689 L 278 677 L 299 671 L 309 647 L 325 664 L 335 642 L 327 621 L 333 594 L 312 585 L 273 582 L 260 599 L 247 616 L 264 629 L 276 608 L 291 595 L 308 607 L 303 627 L 284 626 L 283 650 L 261 654 L 249 671 L 226 675 L 214 690 L 239 691 L 232 709 L 214 709 L 197 709 L 180 709 L 162 708 L 144 711 L 145 694 L 161 688 L 177 688 L 193 692 L 198 675 L 212 662 L 232 654 L 245 639 L 229 628 L 212 640 L 187 637 L 196 652 L 183 665 L 169 650 L 167 670 L 149 674 L 132 678 L 125 695 L 124 711 L 107 706 L 88 708 L 68 709 L 49 705 L 30 711 L 25 694 L 36 681 L 53 681 L 73 689 L 94 688 L 111 679 L 147 657 L 149 640 L 164 631 L 177 621 L 179 605 L 182 589 L 200 578 L 213 563 L 195 559 L 178 553 L 181 573 L 170 564 L 159 575 L 156 555 L 139 560 L 120 558 L 99 556 L 106 572 L 88 579 L 68 580 L 49 587 L 30 592 L 10 597 L 8 616 L 26 617 L 45 611 L 65 606 L 84 600 L 104 613 L 105 592 L 124 580 L 142 579 L 143 599 L 162 592 L 159 611 L 143 621 L 124 601 L 123 621 L 129 641 L 125 660 L 106 656 L 108 635 L 85 622 L 88 642 L 88 667 L 67 668 L 70 649 L 64 629 L 49 655 L 29 664 L 27 644 L 43 633 L 9 635 L 9 658 L 10 680 L 9 706 " stroke="black" stroke-width="3" fill="none"/> 
 </svg>