<?xml version="1.0" ?>
<!DOCTYPE svg PUBLIC "-//W3C//DTD SVG 1.1//EN" "http://www.w3.org/Graphics/SVG/1.1/DTD/svg11.dtd">
<svg width="1080" height="934" version="1.1" xmlns="http://www.w3.org/2000/svg">
<path d="M375 12 L 366 37 L 358 60 L 369 87 L 396 73 L 397 42 L 409 14 L 442 17 L 479 14 L 501 43 L 522 16 L 560 16 L 548 51 L 519 70 L 545 92 L 566 120 L 583 150 L 614 164 L 578 186 L 609 204 L 645 211 L 657 247 L 677 274 L 647 295 L 630 270 L 619 239 L 583 238 L 558 213 L 545 244 L 516 212 L 482 224 L 507 249 L 525 273 L 534 302 L 496 295 L 491 326 L 527 327 L 529 354 L 500 359 L 472 349 L 446 362 L 425 381 L 401 400 L 397 427 L 369 416 L 373 448 L 371 477 L 351 490 L 345 464 L 345 441 L 339 416 L 316 432 L 308 458 L 322 475 L 327 497 L 338 516 L 362 512 L 383 523 L 386 503 L 420 513 L 410 492 L 394 475 L 402 453 L 425 440 L 427 467 L 439 492 L 454 513 L 484 512 L 501 490 L 472 489 L 455 469 L 480 457 L 502 464 L 497 430 L 474 423 L 453 440 L 430 414 L 454 401 L 474 382 L 496 398 L 517 380 L 534 398 L 541 389 L 548 380 L 556 371 L 567 379 L 565 363 L 556 336 L 575 312 L 561 278 L 594 274 L 610 303 L 576 356 L 583 367 L 587 350 L 599 348 L 608 344 L 612 335 L 623 333 L 633 329 L 644 330 L 652 337 L 649 352 L 656 346 L 664 342 L 671 336 L 677 304 L 706 311 L 713 280 L 734 253 L 757 280 L 734 303 L 750 326 L 735 342 L 715 352 L 710 343 L 703 348 L 700 339 L 690 337 L 680 336 L 679 350 L 692 356 L 705 363 L 720 361 L 727 366 L 726 375 L 709 375 L 717 386 L 728 385 L 725 397 L 719 405 L 713 412 L 725 410 L 725 418 L 727 427 L 729 435 L 731 443 L 731 451 L 733 458 L 735 466 L 737 473 L 737 480 L 743 487 L 736 488 L 740 494 L 741 501 L 741 507 L 744 513 L 740 519 L 742 524 L 734 533 L 727 539 L 734 544 L 741 540 L 748 541 L 745 533 L 753 528 L 763 530 L 767 512 L 781 498 L 759 497 L 757 459 L 768 477 L 796 480 L 808 461 L 831 468 L 847 445 L 877 437 L 882 461 L 857 479 L 886 488 L 912 475 L 926 452 L 906 435 L 889 407 L 906 386 L 906 356 L 932 342 L 939 376 L 932 412 L 950 441 L 947 476 L 978 484 L 978 455 L 973 422 L 967 393 L 989 369 L 963 348 L 973 316 L 997 294 L 981 261 L 1006 250 L 1027 282 L 1030 317 L 1001 337 L 1037 351 L 1023 378 L 1004 404 L 1007 434 L 1011 464 L 1010 490 L 990 510 L 968 512 L 948 507 L 925 503 L 902 510 L 873 509 L 880 537 L 873 539 L 865 538 L 855 538 L 854 552 L 857 567 L 871 560 L 881 551 L 887 540 L 893 536 L 899 539 L 898 552 L 909 567 L 927 562 L 944 555 L 913 544 L 907 538 L 917 536 L 925 540 L 933 538 L 942 538 L 952 539 L 962 540 L 972 539 L 981 539 L 990 540 L 999 539 L 1008 540 L 1019 551 L 1023 568 L 1039 562 L 1037 539 L 1027 539 L 1018 539 L 1013 516 L 1036 507 L 1062 519 L 1066 498 L 1092 495 L 1111 512 L 1137 504 L 1152 523 L 1164 505 L 1184 517 L 1204 508 L 1225 512 L 1223 486 L 1220 461 L 1211 435 L 1188 411 L 1173 382 L 1150 355 L 1150 320 L 1150 288 L 1121 266 L 1090 278 L 1108 307 L 1111 339 L 1107 368 L 1078 404 L 1075 435 L 1115 428 L 1108 399 L 1139 389 L 1151 419 L 1173 442 L 1188 465 L 1187 489 L 1156 478 L 1139 452 L 1122 480 L 1102 458 L 1071 468 L 1041 476 L 1041 442 L 1043 407 L 1067 372 L 1072 336 L 1064 304 L 1059 269 L 1061 235 L 1033 246 L 1027 210 L 987 221 L 992 189 L 1018 175 L 1020 145 L 1052 142 L 1053 174 L 1068 204 L 1095 240 L 1110 211 L 1130 180 L 1092 177 L 1090 144 L 1126 150 L 1125 118 L 1097 107 L 1070 118 L 1041 105 L 1014 114 L 988 133 L 971 159 L 934 150 L 954 121 L 920 108 L 893 130 L 900 162 L 924 187 L 957 193 L 956 241 L 935 222 L 905 220 L 887 195 L 866 170 L 856 140 L 861 109 L 889 89 L 920 68 L 895 53 L 865 43 L 855 72 L 823 53 L 806 79 L 830 97 L 823 130 L 792 141 L 788 108 L 750 95 L 757 130 L 767 165 L 744 189 L 778 201 L 795 228 L 825 230 L 816 199 L 800 172 L 832 167 L 851 203 L 876 228 L 851 244 L 823 264 L 857 276 L 883 260 L 913 252 L 932 275 L 961 282 L 942 309 L 912 316 L 899 289 L 870 305 L 884 334 L 874 365 L 855 388 L 860 416 L 831 413 L 813 435 L 784 453 L 759 437 L 752 416 L 748 391 L 771 398 L 784 426 L 800 403 L 820 382 L 839 358 L 848 331 L 834 298 L 810 321 L 808 351 L 787 373 L 757 364 L 777 340 L 774 308 L 799 290 L 790 261 L 766 244 L 749 220 L 717 221 L 698 249 L 682 219 L 675 186 L 646 172 L 650 134 L 608 123 L 632 97 L 670 92 L 687 120 L 690 154 L 710 188 L 729 156 L 722 122 L 712 85 L 684 55 L 650 59 L 616 62 L 586 87 L 584 48 L 599 16 L 631 22 L 663 19 L 695 17 L 728 16 L 757 19 L 716 48 L 746 57 L 776 73 L 784 43 L 786 13 L 813 18 L 839 21 L 864 12 L 894 17 L 923 20 L 956 13 L 946 46 L 950 84 L 982 98 L 979 65 L 979 36 L 995 13 L 1026 15 L 1012 47 L 1012 80 L 1042 69 L 1066 86 L 1092 76 L 1122 82 L 1141 50 L 1108 49 L 1074 49 L 1044 39 L 1059 14 L 1089 17 L 1120 16 L 1151 15 L 1177 25 L 1203 14 L 1230 22 L 1256 20 L 1249 62 L 1211 54 L 1176 63 L 1152 89 L 1159 131 L 1168 167 L 1149 205 L 1182 215 L 1218 210 L 1206 174 L 1206 135 L 1182 105 L 1213 91 L 1249 103 L 1247 141 L 1249 181 L 1252 227 L 1215 252 L 1144 241 L 1178 260 L 1201 295 L 1248 272 L 1247 310 L 1252 354 L 1221 338 L 1185 334 L 1207 371 L 1222 403 L 1251 391 L 1250 429 L 1252 461 L 1255 488 L 1252 511 L 1240 534 L 1244 541 L 1251 538 L 1259 539 L 1265 537 L 1261 557 L 1248 561 L 1233 570 L 1223 584 L 1236 597 L 1246 582 L 1261 577 L 1259 601 L 1244 615 L 1260 628 L 1241 636 L 1257 654 L 1258 680 L 1256 706 L 1229 709 L 1207 707 L 1213 686 L 1238 691 L 1235 671 L 1231 653 L 1219 637 L 1224 615 L 1206 625 L 1193 613 L 1195 595 L 1212 600 L 1206 579 L 1188 579 L 1176 568 L 1180 554 L 1196 560 L 1214 563 L 1231 554 L 1233 539 L 1225 538 L 1218 544 L 1214 537 L 1207 540 L 1199 538 L 1191 540 L 1183 539 L 1176 539 L 1168 539 L 1160 539 L 1162 555 L 1159 572 L 1172 586 L 1178 601 L 1173 618 L 1160 605 L 1157 588 L 1145 596 L 1130 592 L 1114 590 L 1113 573 L 1128 572 L 1142 579 L 1146 561 L 1152 540 L 1145 539 L 1137 539 L 1131 536 L 1132 554 L 1125 540 L 1118 538 L 1111 539 L 1115 556 L 1095 558 L 1097 577 L 1079 577 L 1076 558 L 1103 539 L 1095 539 L 1087 537 L 1079 539 L 1071 539 L 1063 540 L 1055 539 L 1046 538 L 1048 551 L 1059 566 L 1043 582 L 1025 593 L 1011 610 L 1011 637 L 1030 622 L 1047 605 L 1062 589 L 1079 600 L 1096 596 L 1110 609 L 1126 611 L 1143 612 L 1153 624 L 1165 637 L 1176 652 L 1186 633 L 1199 647 L 1212 664 L 1191 669 L 1187 689 L 1187 709 L 1168 707 L 1161 689 L 1170 672 L 1146 675 L 1135 691 L 1146 709 L 1120 709 L 1092 708 L 1083 685 L 1064 703 L 1038 707 L 1039 679 L 1058 672 L 1080 661 L 1102 666 L 1110 687 L 1126 669 L 1124 649 L 1153 658 L 1145 644 L 1134 630 L 1114 629 L 1101 644 L 1082 637 L 1093 619 L 1069 617 L 1051 628 L 1061 646 L 1036 650 L 1019 688 L 1009 708 L 985 703 L 965 706 L 943 706 L 922 704 L 904 708 L 884 706 L 863 709 L 840 707 L 839 681 L 855 690 L 876 685 L 882 664 L 891 643 L 879 623 L 875 601 L 897 607 L 908 627 L 920 646 L 907 663 L 900 685 L 927 679 L 953 681 L 975 674 L 997 679 L 1014 662 L 987 649 L 989 623 L 962 627 L 962 651 L 940 657 L 937 627 L 923 606 L 948 602 L 968 585 L 973 606 L 994 595 L 1007 579 L 1001 559 L 985 573 L 976 556 L 961 564 L 946 576 L 928 584 L 907 587 L 887 584 L 889 567 L 869 580 L 851 587 L 842 570 L 837 555 L 821 554 L 805 554 L 797 567 L 812 569 L 827 570 L 817 586 L 834 586 L 831 602 L 834 619 L 838 639 L 854 604 L 855 624 L 864 644 L 859 666 L 837 658 L 821 672 L 819 692 L 817 710 L 794 706 L 770 709 L 751 701 L 775 688 L 764 671 L 744 676 L 728 689 L 731 710 L 708 708 L 706 688 L 719 667 L 736 654 L 755 649 L 772 640 L 784 660 L 797 681 L 807 661 L 812 646 L 816 630 L 813 615 L 807 599 L 792 614 L 793 636 L 773 620 L 772 600 L 787 594 L 799 582 L 783 573 L 770 581 L 760 568 L 773 557 L 788 555 L 779 539 L 785 540 L 792 539 L 801 540 L 811 540 L 822 539 L 833 539 L 844 539 L 847 510 L 827 496 L 804 502 L 813 520 L 787 522 L 774 529 L 773 540 L 767 540 L 761 540 L 754 539 L 753 553 L 743 565 L 720 553 L 696 558 L 709 569 L 727 567 L 717 588 L 701 599 L 692 583 L 681 571 L 677 556 L 659 552 L 659 567 L 640 563 L 628 581 L 607 586 L 617 561 L 621 539 L 631 540 L 641 540 L 650 539 L 659 539 L 667 539 L 676 540 L 681 534 L 687 540 L 695 539 L 703 540 L 711 540 L 719 538 L 703 516 L 722 519 L 737 513 L 733 506 L 733 499 L 729 494 L 727 487 L 725 480 L 722 474 L 719 467 L 716 458 L 712 450 L 719 440 L 714 426 L 700 425 L 704 433 L 708 441 L 683 450 L 663 443 L 670 419 L 673 408 L 667 400 L 666 412 L 660 418 L 651 419 L 651 404 L 648 389 L 659 389 L 671 387 L 683 388 L 679 398 L 691 397 L 689 406 L 681 412 L 688 416 L 697 417 L 705 415 L 701 405 L 711 398 L 705 389 L 699 393 L 694 387 L 690 379 L 691 371 L 678 376 L 678 363 L 664 359 L 665 374 L 652 369 L 642 379 L 638 357 L 635 343 L 623 352 L 632 368 L 619 373 L 613 361 L 600 358 L 600 368 L 592 378 L 580 383 L 570 396 L 584 396 L 582 410 L 578 425 L 569 435 L 568 447 L 564 458 L 562 470 L 576 470 L 580 457 L 590 470 L 597 458 L 584 444 L 591 433 L 592 420 L 604 415 L 616 418 L 606 430 L 600 446 L 612 444 L 618 455 L 611 464 L 604 474 L 595 482 L 583 483 L 570 483 L 576 496 L 577 504 L 585 498 L 593 496 L 601 494 L 607 490 L 614 486 L 619 479 L 625 474 L 628 467 L 632 460 L 626 444 L 622 433 L 628 423 L 627 408 L 611 401 L 596 404 L 598 390 L 609 383 L 621 393 L 629 383 L 637 397 L 635 413 L 642 419 L 641 428 L 640 437 L 639 446 L 635 453 L 655 466 L 646 491 L 672 480 L 694 473 L 706 493 L 684 503 L 663 512 L 640 515 L 620 510 L 601 517 L 583 524 L 577 512 L 573 519 L 574 526 L 566 524 L 562 529 L 548 522 L 541 509 L 557 509 L 565 496 L 555 493 L 557 481 L 545 487 L 546 473 L 548 462 L 538 456 L 536 443 L 552 449 L 552 437 L 536 431 L 548 424 L 561 423 L 568 410 L 556 408 L 557 392 L 545 400 L 543 412 L 530 407 L 522 410 L 532 417 L 523 419 L 522 427 L 522 435 L 521 444 L 523 453 L 526 463 L 530 472 L 535 481 L 530 489 L 529 498 L 525 507 L 519 513 L 517 521 L 524 525 L 531 525 L 531 533 L 535 539 L 543 538 L 545 546 L 552 539 L 558 533 L 562 539 L 569 534 L 570 544 L 576 539 L 579 532 L 588 531 L 584 541 L 592 540 L 601 540 L 611 540 L 596 565 L 577 564 L 558 555 L 562 575 L 583 590 L 563 599 L 553 619 L 530 631 L 541 657 L 520 656 L 503 668 L 507 689 L 528 681 L 552 683 L 565 664 L 558 640 L 579 620 L 601 610 L 625 603 L 623 626 L 602 637 L 582 649 L 602 666 L 624 655 L 658 650 L 643 637 L 649 614 L 648 590 L 667 584 L 673 603 L 691 615 L 715 616 L 733 606 L 736 585 L 754 586 L 753 605 L 752 625 L 734 631 L 715 641 L 701 656 L 695 633 L 669 627 L 680 648 L 670 668 L 693 674 L 678 688 L 687 707 L 664 708 L 654 688 L 644 668 L 626 683 L 640 706 L 616 708 L 603 689 L 579 682 L 588 708 L 564 706 L 541 706 L 520 707 L 499 709 L 485 691 L 483 672 L 487 650 L 505 641 L 506 622 L 517 606 L 537 605 L 545 584 L 541 564 L 522 562 L 524 583 L 504 592 L 487 585 L 472 600 L 491 607 L 480 624 L 467 638 L 467 658 L 463 678 L 460 694 L 478 709 L 458 711 L 439 707 L 439 684 L 418 691 L 418 710 L 398 706 L 377 707 L 353 707 L 343 684 L 351 662 L 335 642 L 326 621 L 309 647 L 325 664 L 318 686 L 327 707 L 301 704 L 279 706 L 255 709 L 261 689 L 278 677 L 299 671 L 283 650 L 303 627 L 284 626 L 264 629 L 247 616 L 240 596 L 251 579 L 272 582 L 260 599 L 276 608 L 291 595 L 308 607 L 312 584 L 293 575 L 304 559 L 323 567 L 332 552 L 343 575 L 332 595 L 349 615 L 360 636 L 382 635 L 403 626 L 411 647 L 395 657 L 374 660 L 370 684 L 394 682 L 415 672 L 430 659 L 448 666 L 448 646 L 450 626 L 455 609 L 428 636 L 428 617 L 425 599 L 440 592 L 456 586 L 470 577 L 438 573 L 415 582 L 391 588 L 403 605 L 377 610 L 356 595 L 370 580 L 370 559 L 387 565 L 404 563 L 422 560 L 441 554 L 455 563 L 470 558 L 484 552 L 488 567 L 506 573 L 504 555 L 507 538 L 516 540 L 527 543 L 523 535 L 514 530 L 508 522 L 503 529 L 497 538 L 486 538 L 476 538 L 466 538 L 456 539 L 446 538 L 437 538 L 429 541 L 425 536 L 417 539 L 408 540 L 401 534 L 395 540 L 386 539 L 377 539 L 368 538 L 360 539 L 352 558 L 352 538 L 344 539 L 335 538 L 326 538 L 317 539 L 307 538 L 298 538 L 289 539 L 279 538 L 282 559 L 265 563 L 258 547 L 270 539 L 261 538 L 252 538 L 244 539 L 247 559 L 232 566 L 229 580 L 215 588 L 200 578 L 181 573 L 170 564 L 178 553 L 195 559 L 213 563 L 229 552 L 235 539 L 226 539 L 218 540 L 209 539 L 200 539 L 192 539 L 184 539 L 176 539 L 168 539 L 161 537 L 152 538 L 143 538 L 132 538 L 120 538 L 108 538 L 95 537 L 83 538 L 47 564 L 63 557 L 81 560 L 99 556 L 106 572 L 88 579 L 68 580 L 50 587 L 31 592 L 45 611 L 65 606 L 84 600 L 105 592 L 124 580 L 120 558 L 139 560 L 156 555 L 159 574 L 142 579 L 143 599 L 124 601 L 123 621 L 143 621 L 159 611 L 162 592 L 182 589 L 179 605 L 177 621 L 164 631 L 169 650 L 183 665 L 167 670 L 161 688 L 177 688 L 193 692 L 214 690 L 226 675 L 212 662 L 198 675 L 196 652 L 187 637 L 195 620 L 201 600 L 225 606 L 211 619 L 212 640 L 229 628 L 245 639 L 232 654 L 261 654 L 249 671 L 239 691 L 232 709 L 214 709 L 197 709 L 180 709 L 162 708 L 144 711 L 145 694 L 149 674 L 147 657 L 149 640 L 129 641 L 125 660 L 132 678 L 125 695 L 124 711 L 107 706 L 88 708 L 73 689 L 94 688 L 111 679 L 88 667 L 106 656 L 108 635 L 104 613 L 85 622 L 88 642 L 70 649 L 67 668 L 53 681 L 68 709 L 49 705 L 36 681 L 25 694 L 30 711 L 9 706 L 10 680 L 9 658 L 29 664 L 49 655 L 64 629 L 43 633 L 27 644 L 9 635 L 26 617 L 8 616 L 11 598 L 10 579 L 29 566 L 10 559 L 5 538 L 16 539 L 27 537 L 37 540 L 48 538 L 59 537 L 71 538 L 110 501 L 93 474 L 76 503 L 53 469 L 44 502 L 14 505 L 16 473 L 20 445 L 15 416 L 16 383 L 16 352 L 51 365 L 44 399 L 54 431 L 82 444 L 107 416 L 78 400 L 89 369 L 77 336 L 98 310 L 88 275 L 53 268 L 60 301 L 43 329 L 13 320 L 21 291 L 15 261 L 14 226 L 14 193 L 48 207 L 42 239 L 76 237 L 85 206 L 107 182 L 145 178 L 160 209 L 122 214 L 108 247 L 143 245 L 179 244 L 195 215 L 191 185 L 173 157 L 157 130 L 124 153 L 120 125 L 127 97 L 158 91 L 185 103 L 201 128 L 207 157 L 217 95 L 193 67 L 164 54 L 131 60 L 98 83 L 99 49 L 65 53 L 44 78 L 69 94 L 86 121 L 52 140 L 87 153 L 67 177 L 38 173 L 14 157 L 15 125 L 42 111 L 13 89 L 22 58 L 14 36 L 16 11 L 47 20 L 79 17 L 112 17 L 144 20 L 176 20 L 207 13 L 212 41 L 230 65 L 249 89 L 271 116 L 238 121 L 239 150 L 268 153 L 291 139 L 306 114 L 305 86 L 276 82 L 258 49 L 239 18 L 270 13 L 288 34 L 295 58 L 307 13 L 341 14 L 325 40 L 329 68 L 337 97 L 364 117 L 395 115 L 422 94 L 449 78 L 460 111 L 430 129 L 406 152 L 374 150 L 392 187 L 361 191 L 382 228 L 348 222 L 330 249 L 361 263 L 359 299 L 320 303 L 311 275 L 313 215 L 327 187 L 346 161 L 337 129 L 316 151 L 295 177 L 281 209 L 260 186 L 229 179 L 230 209 L 255 232 L 293 242 L 269 266 L 278 295 L 288 328 L 316 340 L 291 368 L 264 389 L 255 419 L 229 456 L 222 429 L 220 397 L 234 370 L 261 352 L 254 320 L 231 298 L 237 265 L 216 242 L 200 279 L 165 277 L 127 282 L 131 320 L 160 311 L 192 320 L 223 336 L 197 362 L 158 352 L 117 349 L 126 382 L 145 409 L 173 386 L 188 415 L 186 445 L 203 467 L 174 474 L 154 440 L 119 448 L 138 474 L 138 508 L 164 500 L 182 516 L 201 502 L 223 485 L 229 510 L 253 514 L 282 513 L 310 515 L 299 492 L 265 494 L 248 478 L 281 472 L 259 450 L 285 439 L 288 409 L 313 398 L 322 370 L 345 390 L 354 360 L 345 329 L 378 336 L 374 386 L 395 365 L 418 343 L 446 323 L 461 294 L 477 264 L 428 284 L 403 313 L 391 281 L 409 252 L 447 246 L 417 217 L 451 207 L 428 180 L 453 157 L 484 137 L 479 185 L 507 166 L 536 186 L 549 156 L 525 131 L 504 105 L 483 79 L 465 46 L 428 52 " stroke="black" stroke-width="3" fill="none"/> 
 </svg>