<?xml version="1.0" ?>
<!DOCTYPE svg PUBLIC "-//W3C//DTD SVG 1.1//EN" "http://www.w3.org/Graphics/SVG/1.1/DTD/svg11.dtd">
<svg width="1080" height="934" version="1.1" xmlns="http://www.w3.org/2000/svg">
<path d="M786 12 L 785 43 L 776 73 L 789 108 L 806 79 L 823 53 L 813 18 L 839 21 L 864 12 L 894 17 L 923 20 L 956 13 L 946 46 L 979 36 L 995 13 L 1026 15 L 1012 47 L 1012 80 L 1042 69 L 1066 86 L 1092 76 L 1122 82 L 1141 50 L 1108 49 L 1074 49 L 1044 39 L 1059 14 L 1089 17 L 1120 16 L 1151 15 L 1177 25 L 1203 14 L 1230 22 L 1256 20 L 1249 62 L 1211 54 L 1176 63 L 1152 89 L 1159 131 L 1168 167 L 1130 180 L 1126 150 L 1125 118 L 1097 107 L 1070 118 L 1041 105 L 1014 114 L 988 133 L 971 159 L 934 150 L 954 121 L 982 98 L 979 65 L 950 84 L 920 68 L 895 53 L 865 43 L 855 72 L 830 97 L 823 130 L 792 141 L 800 172 L 832 167 L 866 170 L 856 140 L 861 109 L 889 89 L 920 108 L 893 130 L 900 162 L 924 187 L 957 193 L 992 189 L 987 221 L 956 241 L 935 222 L 905 220 L 887 195 L 851 203 L 817 199 L 779 201 L 797 228 L 769 240 L 790 262 L 800 290 L 774 307 L 776 337 L 748 343 L 758 371 L 786 373 L 806 350 L 811 321 L 834 298 L 823 264 L 826 230 L 851 244 L 876 228 L 883 260 L 857 276 L 870 305 L 848 331 L 838 358 L 820 382 L 799 402 L 769 401 L 787 427 L 783 454 L 768 476 L 753 488 L 763 503 L 743 502 L 741 495 L 739 487 L 739 480 L 738 472 L 735 464 L 735 455 L 758 456 L 763 434 L 749 420 L 745 398 L 730 394 L 729 382 L 726 371 L 719 362 L 711 353 L 701 347 L 701 318 L 726 328 L 741 305 L 757 277 L 740 249 L 719 267 L 707 291 L 674 309 L 672 277 L 691 250 L 656 245 L 681 216 L 645 209 L 608 206 L 619 241 L 583 239 L 545 244 L 528 274 L 507 248 L 516 211 L 482 223 L 481 268 L 454 285 L 425 283 L 410 251 L 449 246 L 452 206 L 479 184 L 507 166 L 484 137 L 460 111 L 449 78 L 422 94 L 396 73 L 369 87 L 358 60 L 366 37 L 397 42 L 428 52 L 465 46 L 501 43 L 519 70 L 483 78 L 504 105 L 526 130 L 549 155 L 536 185 L 557 214 L 577 187 L 611 170 L 643 171 L 674 181 L 693 154 L 720 120 L 730 156 L 711 189 L 715 225 L 747 216 L 745 187 L 767 164 L 757 130 L 752 96 L 719 83 L 685 87 L 683 121 L 651 136 L 649 97 L 619 62 L 653 57 L 685 52 L 717 47 L 748 55 L 757 19 L 728 16 L 696 16 L 663 18 L 631 22 L 598 15 L 586 47 L 580 81 L 612 100 L 613 133 L 582 151 L 570 119 L 543 94 L 548 51 L 560 16 L 521 16 L 479 14 L 442 17 L 409 14 L 375 12 L 341 14 L 325 40 L 329 68 L 306 114 L 305 86 L 295 58 L 288 34 L 307 13 L 270 13 L 240 17 L 216 40 L 206 13 L 176 21 L 144 20 L 113 17 L 79 17 L 47 20 L 16 11 L 14 36 L 22 58 L 13 89 L 42 110 L 85 121 L 51 141 L 15 125 L 14 157 L 38 173 L 66 177 L 48 207 L 14 193 L 14 225 L 17 259 L 11 289 L 36 291 L 56 266 L 43 238 L 77 234 L 84 204 L 106 182 L 84 153 L 116 152 L 121 122 L 149 143 L 178 134 L 174 175 L 205 156 L 210 124 L 219 93 L 187 96 L 157 102 L 129 93 L 98 84 L 69 93 L 43 78 L 65 53 L 99 49 L 131 59 L 163 60 L 194 62 L 230 65 L 258 49 L 250 88 L 277 82 L 272 115 L 242 120 L 237 149 L 267 152 L 291 139 L 317 151 L 337 129 L 337 97 L 364 117 L 395 115 L 407 152 L 430 129 L 453 156 L 427 180 L 418 216 L 383 224 L 367 259 L 391 283 L 401 315 L 377 338 L 352 361 L 322 372 L 314 400 L 288 409 L 285 439 L 259 450 L 255 419 L 263 389 L 290 370 L 261 353 L 234 371 L 220 398 L 223 430 L 229 456 L 203 467 L 223 485 L 201 502 L 182 516 L 161 537 L 168 539 L 176 539 L 184 539 L 192 539 L 200 539 L 209 539 L 218 540 L 226 539 L 235 539 L 244 539 L 252 538 L 247 559 L 258 547 L 261 538 L 270 539 L 279 538 L 282 513 L 253 514 L 229 510 L 248 478 L 265 494 L 281 472 L 299 492 L 310 515 L 327 497 L 351 490 L 371 477 L 373 448 L 369 417 L 345 441 L 345 464 L 322 475 L 307 458 L 316 433 L 339 416 L 346 391 L 374 386 L 394 367 L 416 346 L 438 321 L 471 313 L 504 297 L 542 305 L 565 276 L 598 276 L 633 273 L 642 303 L 609 311 L 577 313 L 555 339 L 570 368 L 561 373 L 555 381 L 548 389 L 559 396 L 553 409 L 547 422 L 543 435 L 556 437 L 548 449 L 549 464 L 565 468 L 560 456 L 568 446 L 571 434 L 583 444 L 590 457 L 576 458 L 577 472 L 589 472 L 601 470 L 604 457 L 599 445 L 613 442 L 606 430 L 591 432 L 578 424 L 561 423 L 568 410 L 582 410 L 593 419 L 596 405 L 606 415 L 617 420 L 624 430 L 633 414 L 641 420 L 646 427 L 634 435 L 626 446 L 629 456 L 616 456 L 623 466 L 614 471 L 608 482 L 596 485 L 583 487 L 570 485 L 559 479 L 549 488 L 546 478 L 538 475 L 534 468 L 530 460 L 537 455 L 527 451 L 533 444 L 526 440 L 530 432 L 532 423 L 534 414 L 538 406 L 542 397 L 502 418 L 497 445 L 479 463 L 475 423 L 454 441 L 425 439 L 432 414 L 454 399 L 478 386 L 509 392 L 500 362 L 530 365 L 525 333 L 497 330 L 470 348 L 447 362 L 425 382 L 402 401 L 397 427 L 402 453 L 427 467 L 454 471 L 438 493 L 454 512 L 473 491 L 484 513 L 502 492 L 507 470 L 529 484 L 540 484 L 536 492 L 532 500 L 527 508 L 520 514 L 525 523 L 522 529 L 522 537 L 528 545 L 530 535 L 531 528 L 536 539 L 543 538 L 545 546 L 551 538 L 559 528 L 559 536 L 563 541 L 557 550 L 570 543 L 570 535 L 566 531 L 566 524 L 573 524 L 578 531 L 576 539 L 584 540 L 592 540 L 587 530 L 581 523 L 580 513 L 559 511 L 544 514 L 555 493 L 563 497 L 572 500 L 580 503 L 589 501 L 597 500 L 605 496 L 614 492 L 621 486 L 626 479 L 632 472 L 637 464 L 640 455 L 643 446 L 645 437 L 668 445 L 687 453 L 714 455 L 711 445 L 707 435 L 713 426 L 700 427 L 689 423 L 680 414 L 676 421 L 666 424 L 656 425 L 654 409 L 672 407 L 684 399 L 693 410 L 706 415 L 706 403 L 700 397 L 697 390 L 697 381 L 686 371 L 684 384 L 672 391 L 661 395 L 647 393 L 637 402 L 621 408 L 609 401 L 621 394 L 632 386 L 643 378 L 656 380 L 671 376 L 676 361 L 661 367 L 659 355 L 646 363 L 638 353 L 632 370 L 620 377 L 607 369 L 609 386 L 597 391 L 585 397 L 573 397 L 570 383 L 583 384 L 584 373 L 596 377 L 593 362 L 579 362 L 586 353 L 597 353 L 605 348 L 608 359 L 613 364 L 625 360 L 615 352 L 623 346 L 631 339 L 642 338 L 653 338 L 663 341 L 668 349 L 679 345 L 690 344 L 691 358 L 702 366 L 712 376 L 714 389 L 718 403 L 729 406 L 727 416 L 720 420 L 729 427 L 720 438 L 731 437 L 733 446 L 724 452 L 719 464 L 722 473 L 725 480 L 727 487 L 730 494 L 733 500 L 732 507 L 737 514 L 740 508 L 745 513 L 742 519 L 740 525 L 746 525 L 744 531 L 753 534 L 765 521 L 784 516 L 781 493 L 800 479 L 808 458 L 830 468 L 857 479 L 827 497 L 803 502 L 811 520 L 802 540 L 811 540 L 822 539 L 833 539 L 844 539 L 855 538 L 865 538 L 873 539 L 880 537 L 847 510 L 873 509 L 886 488 L 902 510 L 925 503 L 948 507 L 968 512 L 990 510 L 978 484 L 947 476 L 912 475 L 882 461 L 877 437 L 847 445 L 815 434 L 831 412 L 860 416 L 855 388 L 873 365 L 884 334 L 906 356 L 932 342 L 963 348 L 989 369 L 967 393 L 939 376 L 932 412 L 906 386 L 889 407 L 906 435 L 926 452 L 950 441 L 973 422 L 978 455 L 1011 464 L 1010 490 L 1013 516 L 1036 507 L 1062 519 L 1066 498 L 1092 495 L 1111 512 L 1137 504 L 1152 523 L 1164 505 L 1183 517 L 1203 508 L 1225 512 L 1223 486 L 1220 460 L 1211 435 L 1188 411 L 1173 382 L 1139 389 L 1151 419 L 1173 442 L 1188 465 L 1187 489 L 1156 478 L 1139 452 L 1115 428 L 1102 458 L 1122 480 L 1071 468 L 1041 476 L 1041 442 L 1007 434 L 1004 404 L 1023 378 L 1043 407 L 1075 435 L 1078 404 L 1108 399 L 1107 368 L 1067 372 L 1072 336 L 1064 304 L 1027 282 L 997 294 L 1030 317 L 1037 351 L 1001 337 L 973 316 L 942 309 L 912 316 L 899 289 L 913 252 L 932 275 L 961 282 L 981 261 L 1006 250 L 1033 246 L 1027 210 L 1018 175 L 1020 145 L 1052 142 L 1090 144 L 1092 177 L 1053 174 L 1068 204 L 1061 235 L 1059 269 L 1090 278 L 1108 307 L 1111 339 L 1150 355 L 1150 320 L 1150 288 L 1177 260 L 1144 241 L 1121 266 L 1095 240 L 1110 211 L 1149 205 L 1182 215 L 1218 210 L 1206 174 L 1206 135 L 1182 105 L 1213 91 L 1249 103 L 1247 141 L 1249 181 L 1252 227 L 1248 272 L 1247 310 L 1215 252 L 1201 295 L 1185 334 L 1207 371 L 1221 338 L 1252 354 L 1251 391 L 1222 403 L 1250 429 L 1252 461 L 1255 489 L 1250 510 L 1240 533 L 1240 541 L 1247 539 L 1255 538 L 1264 533 L 1263 540 L 1261 557 L 1247 560 L 1233 570 L 1223 584 L 1236 597 L 1246 582 L 1261 577 L 1259 601 L 1244 615 L 1260 628 L 1257 654 L 1241 636 L 1219 637 L 1199 647 L 1186 633 L 1173 618 L 1160 605 L 1178 601 L 1193 613 L 1206 625 L 1224 615 L 1212 600 L 1195 595 L 1206 579 L 1188 579 L 1176 568 L 1172 586 L 1157 588 L 1145 596 L 1143 612 L 1153 624 L 1165 637 L 1176 652 L 1170 672 L 1191 669 L 1187 689 L 1213 686 L 1212 664 L 1231 653 L 1235 671 L 1258 680 L 1256 706 L 1238 691 L 1229 709 L 1207 707 L 1187 709 L 1168 707 L 1161 689 L 1146 675 L 1153 658 L 1145 644 L 1134 630 L 1126 611 L 1110 609 L 1114 590 L 1130 592 L 1142 579 L 1128 572 L 1113 573 L 1115 556 L 1132 554 L 1146 561 L 1159 572 L 1162 555 L 1180 554 L 1196 560 L 1214 563 L 1230 555 L 1232 539 L 1224 538 L 1217 544 L 1214 537 L 1206 540 L 1199 538 L 1191 540 L 1183 539 L 1176 539 L 1168 539 L 1160 539 L 1152 540 L 1145 539 L 1137 539 L 1131 536 L 1125 540 L 1118 538 L 1111 539 L 1103 539 L 1095 539 L 1087 537 L 1079 539 L 1071 539 L 1063 540 L 1055 539 L 1046 538 L 1037 539 L 1027 539 L 1018 539 L 1008 540 L 999 539 L 990 540 L 981 539 L 971 539 L 962 540 L 952 539 L 942 538 L 933 538 L 925 540 L 917 536 L 913 544 L 907 538 L 898 552 L 899 539 L 893 536 L 887 540 L 881 551 L 871 560 L 889 567 L 887 584 L 875 601 L 879 623 L 891 643 L 882 664 L 859 666 L 864 644 L 855 624 L 854 604 L 852 587 L 869 580 L 857 567 L 854 552 L 837 555 L 842 570 L 827 570 L 821 554 L 812 569 L 797 567 L 805 554 L 793 539 L 786 540 L 788 555 L 774 558 L 761 566 L 754 554 L 766 544 L 773 540 L 779 539 L 767 537 L 761 539 L 755 541 L 748 540 L 741 540 L 734 540 L 726 540 L 719 540 L 711 540 L 703 540 L 695 539 L 687 541 L 675 540 L 681 535 L 684 506 L 705 516 L 724 522 L 705 494 L 696 474 L 674 481 L 661 465 L 646 486 L 659 500 L 662 519 L 634 512 L 610 518 L 601 540 L 611 540 L 621 539 L 631 540 L 641 539 L 650 539 L 659 539 L 667 539 L 659 552 L 659 568 L 640 563 L 628 581 L 617 562 L 596 565 L 577 563 L 562 573 L 542 564 L 522 562 L 545 584 L 524 583 L 517 606 L 537 605 L 530 631 L 553 619 L 557 640 L 542 658 L 520 656 L 503 668 L 507 689 L 528 680 L 552 683 L 566 664 L 581 683 L 608 683 L 598 662 L 623 656 L 645 666 L 631 684 L 656 687 L 671 668 L 659 649 L 642 638 L 623 627 L 602 636 L 581 645 L 578 619 L 563 598 L 583 589 L 607 586 L 601 610 L 625 603 L 648 614 L 648 591 L 667 584 L 673 603 L 669 627 L 681 648 L 695 633 L 691 615 L 715 616 L 717 589 L 701 599 L 692 584 L 681 571 L 677 556 L 697 558 L 708 570 L 727 571 L 719 555 L 738 556 L 745 571 L 737 587 L 733 607 L 755 587 L 770 580 L 783 573 L 799 582 L 787 594 L 772 600 L 792 614 L 793 636 L 773 620 L 754 606 L 752 625 L 734 631 L 715 641 L 701 656 L 719 667 L 736 654 L 755 649 L 772 640 L 784 660 L 797 681 L 807 661 L 812 646 L 816 630 L 813 615 L 807 599 L 817 586 L 834 586 L 831 602 L 834 619 L 838 639 L 837 658 L 839 681 L 855 690 L 876 685 L 900 685 L 907 663 L 920 646 L 940 657 L 927 679 L 953 681 L 975 674 L 997 679 L 1019 688 L 1039 679 L 1058 672 L 1036 650 L 1014 662 L 987 649 L 962 651 L 962 627 L 937 627 L 908 627 L 897 607 L 923 606 L 948 602 L 973 606 L 968 585 L 946 576 L 928 584 L 907 587 L 909 567 L 927 562 L 944 555 L 961 564 L 976 556 L 985 573 L 1001 559 L 1019 551 L 1023 568 L 1007 579 L 994 595 L 989 623 L 1011 637 L 1030 622 L 1011 610 L 1025 593 L 1047 605 L 1062 589 L 1043 582 L 1039 562 L 1048 550 L 1059 566 L 1076 558 L 1095 558 L 1079 577 L 1097 577 L 1096 596 L 1079 600 L 1069 617 L 1051 628 L 1061 646 L 1080 661 L 1083 685 L 1102 666 L 1101 644 L 1082 637 L 1093 619 L 1114 629 L 1124 649 L 1126 669 L 1135 691 L 1146 709 L 1120 709 L 1110 687 L 1092 708 L 1064 703 L 1038 707 L 1009 708 L 985 703 L 965 706 L 943 706 L 922 704 L 904 708 L 884 706 L 863 709 L 840 707 L 821 672 L 819 692 L 817 710 L 794 706 L 770 709 L 751 701 L 775 688 L 764 671 L 744 676 L 728 689 L 731 710 L 709 708 L 706 688 L 693 674 L 678 688 L 688 707 L 666 708 L 644 707 L 622 707 L 600 706 L 579 707 L 559 706 L 539 705 L 519 707 L 498 709 L 478 709 L 485 691 L 483 672 L 487 650 L 505 641 L 505 622 L 480 624 L 467 638 L 467 658 L 463 678 L 460 694 L 458 711 L 439 707 L 439 684 L 448 666 L 430 659 L 415 672 L 418 691 L 418 710 L 398 706 L 377 707 L 353 707 L 343 684 L 370 684 L 394 682 L 374 660 L 395 657 L 411 647 L 403 626 L 404 605 L 429 617 L 428 636 L 448 646 L 450 626 L 455 609 L 472 600 L 491 607 L 504 592 L 487 585 L 470 577 L 456 586 L 438 573 L 440 592 L 425 599 L 415 582 L 392 587 L 371 581 L 377 610 L 382 635 L 360 636 L 351 662 L 335 642 L 326 621 L 349 616 L 356 595 L 332 596 L 346 575 L 326 571 L 311 585 L 307 607 L 303 628 L 309 647 L 325 664 L 318 686 L 327 707 L 301 704 L 279 706 L 255 709 L 261 689 L 278 677 L 299 671 L 283 650 L 284 626 L 264 629 L 247 616 L 260 599 L 276 608 L 290 595 L 292 576 L 302 561 L 317 556 L 333 550 L 350 557 L 369 560 L 387 565 L 404 563 L 423 560 L 441 554 L 455 563 L 470 558 L 484 552 L 488 567 L 506 573 L 504 555 L 515 540 L 513 531 L 516 521 L 507 523 L 503 530 L 506 538 L 496 539 L 486 538 L 476 538 L 466 538 L 456 539 L 446 538 L 437 537 L 429 541 L 425 536 L 417 539 L 408 540 L 401 534 L 395 540 L 386 539 L 377 539 L 368 538 L 383 523 L 420 513 L 410 492 L 394 475 L 386 503 L 362 512 L 338 516 L 360 539 L 353 538 L 345 539 L 336 538 L 326 538 L 316 538 L 307 539 L 298 538 L 288 539 L 282 559 L 265 563 L 272 582 L 251 578 L 240 596 L 225 606 L 229 628 L 212 640 L 212 662 L 232 654 L 245 639 L 261 654 L 249 671 L 239 691 L 232 709 L 214 709 L 214 690 L 226 675 L 198 675 L 196 652 L 211 619 L 201 600 L 195 620 L 187 637 L 169 650 L 183 665 L 167 670 L 161 688 L 177 688 L 193 692 L 197 709 L 180 709 L 162 708 L 145 694 L 144 710 L 124 711 L 107 706 L 88 708 L 68 709 L 49 705 L 53 681 L 36 681 L 25 694 L 30 711 L 9 706 L 10 680 L 9 658 L 29 664 L 49 655 L 70 649 L 64 629 L 43 633 L 27 644 L 9 635 L 8 616 L 26 618 L 45 611 L 65 606 L 84 600 L 105 592 L 104 613 L 85 622 L 88 642 L 108 635 L 129 641 L 125 660 L 106 656 L 88 667 L 67 668 L 73 689 L 94 688 L 111 679 L 125 695 L 132 678 L 149 674 L 147 657 L 149 640 L 164 631 L 177 621 L 179 605 L 182 589 L 182 573 L 200 578 L 215 588 L 229 580 L 232 566 L 229 552 L 213 563 L 195 559 L 178 553 L 170 564 L 159 574 L 162 592 L 159 611 L 143 621 L 123 621 L 124 601 L 143 599 L 142 579 L 124 580 L 120 558 L 139 560 L 156 555 L 152 538 L 143 538 L 132 538 L 120 538 L 108 538 L 95 537 L 83 538 L 71 538 L 59 537 L 48 538 L 37 540 L 29 566 L 47 564 L 63 557 L 81 560 L 99 556 L 106 572 L 88 579 L 68 580 L 50 587 L 31 592 L 11 598 L 10 579 L 10 559 L 5 538 L 16 539 L 27 537 L 14 505 L 16 474 L 20 446 L 16 418 L 14 386 L 46 400 L 53 432 L 83 444 L 53 469 L 44 502 L 76 503 L 92 474 L 110 500 L 138 508 L 139 475 L 164 500 L 174 474 L 186 444 L 189 415 L 173 387 L 162 351 L 126 353 L 129 385 L 147 411 L 153 442 L 118 450 L 109 417 L 80 402 L 65 368 L 96 369 L 106 325 L 136 321 L 163 308 L 193 320 L 199 363 L 223 337 L 231 298 L 200 280 L 180 245 L 143 247 L 164 276 L 126 284 L 77 336 L 37 367 L 13 352 L 15 320 L 44 332 L 62 302 L 92 299 L 88 270 L 110 247 L 119 215 L 140 181 L 156 213 L 191 211 L 207 186 L 238 179 L 265 185 L 280 210 L 255 233 L 232 210 L 214 239 L 234 264 L 266 266 L 275 297 L 253 322 L 286 330 L 314 307 L 315 343 L 343 328 L 363 302 L 337 281 L 301 274 L 292 241 L 328 248 L 349 222 L 361 191 L 392 186 L 374 149 L 346 161 L 328 187 L 313 214 L 296 176 " stroke="black" stroke-width="3" fill="none"/> 
 </svg>