<?xml version="1.0" ?>
<!DOCTYPE svg PUBLIC "-//W3C//DTD SVG 1.1//EN" "http://www.w3.org/Graphics/SVG/1.1/DTD/svg11.dtd">
<svg width="1080" height="934" version="1.1" xmlns="http://www.w3.org/2000/svg">
<path d="M864 12 L 894 17 L 923 20 L 956 13 L 946 46 L 921 68 L 895 53 L 865 43 L 839 22 L 814 18 L 787 12 L 758 18 L 729 16 L 696 16 L 663 18 L 631 22 L 599 15 L 560 16 L 521 16 L 501 43 L 518 70 L 548 51 L 586 47 L 580 82 L 619 63 L 653 57 L 686 52 L 717 47 L 748 56 L 785 43 L 777 72 L 789 108 L 806 80 L 822 53 L 855 72 L 830 97 L 822 130 L 792 141 L 800 172 L 768 165 L 746 187 L 779 201 L 797 229 L 826 230 L 817 199 L 832 167 L 866 170 L 856 140 L 861 109 L 888 90 L 920 108 L 893 130 L 900 163 L 924 187 L 934 150 L 954 121 L 988 133 L 972 159 L 957 193 L 992 189 L 987 221 L 1027 210 L 1018 175 L 1020 145 L 1015 113 L 1041 104 L 1066 87 L 1042 69 L 1012 47 L 1012 80 L 982 98 L 950 84 L 979 65 L 979 35 L 995 13 L 1026 15 L 1045 39 L 1059 13 L 1089 17 L 1119 16 L 1151 15 L 1178 25 L 1203 14 L 1230 22 L 1256 20 L 1249 62 L 1248 102 L 1247 141 L 1248 180 L 1205 174 L 1206 135 L 1181 105 L 1212 91 L 1210 54 L 1175 62 L 1140 50 L 1107 49 L 1074 49 L 1091 76 L 1122 83 L 1152 88 L 1158 130 L 1168 166 L 1130 180 L 1126 150 L 1124 118 L 1096 107 L 1070 118 L 1052 141 L 1053 174 L 1090 143 L 1091 176 L 1068 204 L 1109 211 L 1094 240 L 1061 235 L 1033 246 L 1005 250 L 980 261 L 956 240 L 934 223 L 905 221 L 886 195 L 851 203 L 876 228 L 851 244 L 823 264 L 800 290 L 788 263 L 768 241 L 747 217 L 716 225 L 691 248 L 676 277 L 675 311 L 704 324 L 712 294 L 716 266 L 740 251 L 752 282 L 773 306 L 773 336 L 738 319 L 745 351 L 714 362 L 723 370 L 730 379 L 733 389 L 734 399 L 734 409 L 729 417 L 721 403 L 719 386 L 708 376 L 710 394 L 699 390 L 699 401 L 705 409 L 713 415 L 700 421 L 689 411 L 684 398 L 670 403 L 661 392 L 673 388 L 684 382 L 695 376 L 698 364 L 706 355 L 694 352 L 684 350 L 682 366 L 669 374 L 654 377 L 641 379 L 625 382 L 629 370 L 637 360 L 648 360 L 659 363 L 665 356 L 674 352 L 667 346 L 659 341 L 651 343 L 644 340 L 637 344 L 629 340 L 628 348 L 620 348 L 623 358 L 615 356 L 612 364 L 605 358 L 596 360 L 588 363 L 579 368 L 571 372 L 564 378 L 539 360 L 522 380 L 502 363 L 471 348 L 447 361 L 426 382 L 402 401 L 397 428 L 373 448 L 369 417 L 374 387 L 394 367 L 352 361 L 346 391 L 339 417 L 346 441 L 345 464 L 351 490 L 371 477 L 394 475 L 402 454 L 410 493 L 421 513 L 457 510 L 439 493 L 428 467 L 425 440 L 432 415 L 456 402 L 476 382 L 495 403 L 518 405 L 505 434 L 478 426 L 455 441 L 458 470 L 486 459 L 477 488 L 506 487 L 536 493 L 532 502 L 525 510 L 518 517 L 521 525 L 514 531 L 510 523 L 488 510 L 503 529 L 497 538 L 486 538 L 476 538 L 466 538 L 456 539 L 446 538 L 437 537 L 429 541 L 425 536 L 417 539 L 408 540 L 405 563 L 387 565 L 369 559 L 371 581 L 392 587 L 416 582 L 423 560 L 438 573 L 442 554 L 456 562 L 470 558 L 483 551 L 488 566 L 486 584 L 503 591 L 491 607 L 480 624 L 467 639 L 467 658 L 487 650 L 504 641 L 505 622 L 517 606 L 537 604 L 544 584 L 524 583 L 506 573 L 503 555 L 507 538 L 516 540 L 523 534 L 527 542 L 522 561 L 541 563 L 558 554 L 562 574 L 577 563 L 596 565 L 617 561 L 607 585 L 601 610 L 583 589 L 563 598 L 578 620 L 552 619 L 530 631 L 558 640 L 541 657 L 520 656 L 503 669 L 507 689 L 528 681 L 552 683 L 579 682 L 565 664 L 582 649 L 602 637 L 623 626 L 626 603 L 648 590 L 649 614 L 669 627 L 673 602 L 667 583 L 681 570 L 677 555 L 660 550 L 659 566 L 629 580 L 641 563 L 641 540 L 631 540 L 621 539 L 610 540 L 601 540 L 591 540 L 583 540 L 576 538 L 571 543 L 570 534 L 565 531 L 563 540 L 558 536 L 551 539 L 545 545 L 542 538 L 535 540 L 532 533 L 529 527 L 542 519 L 553 508 L 559 528 L 566 524 L 572 519 L 579 520 L 573 526 L 579 530 L 587 530 L 609 519 L 634 516 L 651 539 L 659 538 L 667 539 L 674 540 L 681 537 L 688 540 L 695 539 L 703 540 L 711 540 L 719 539 L 734 521 L 734 515 L 731 508 L 729 501 L 726 493 L 724 485 L 721 476 L 718 467 L 714 457 L 711 447 L 705 496 L 709 518 L 688 510 L 666 515 L 650 500 L 658 478 L 675 487 L 695 476 L 686 455 L 666 457 L 644 453 L 641 458 L 643 463 L 636 465 L 639 470 L 634 473 L 634 481 L 628 478 L 626 486 L 620 492 L 612 498 L 602 501 L 591 503 L 582 510 L 579 501 L 568 498 L 558 493 L 550 487 L 540 485 L 543 478 L 537 472 L 536 463 L 534 455 L 513 463 L 531 447 L 535 441 L 533 434 L 534 427 L 537 421 L 539 414 L 543 407 L 547 399 L 552 392 L 558 385 L 563 399 L 557 411 L 550 421 L 547 433 L 547 450 L 551 465 L 561 455 L 566 468 L 558 478 L 570 484 L 583 488 L 596 488 L 609 485 L 614 473 L 601 472 L 590 474 L 578 472 L 577 458 L 570 447 L 558 440 L 572 435 L 583 444 L 590 459 L 604 459 L 615 458 L 624 466 L 630 456 L 623 447 L 610 445 L 597 446 L 619 435 L 605 431 L 590 433 L 578 423 L 563 425 L 571 410 L 584 396 L 573 390 L 584 381 L 596 389 L 597 375 L 611 372 L 610 385 L 608 399 L 595 404 L 583 409 L 593 419 L 605 415 L 615 422 L 626 424 L 633 435 L 635 446 L 645 447 L 647 441 L 647 433 L 649 425 L 641 424 L 636 418 L 632 411 L 619 408 L 621 395 L 635 396 L 648 393 L 648 408 L 660 413 L 674 412 L 656 428 L 665 429 L 672 426 L 679 421 L 687 427 L 694 433 L 703 433 L 709 437 L 716 431 L 724 426 L 732 426 L 730 435 L 728 443 L 733 449 L 732 458 L 735 466 L 736 473 L 737 480 L 736 488 L 742 487 L 740 495 L 741 501 L 742 508 L 744 515 L 746 522 L 740 522 L 739 529 L 745 530 L 741 537 L 748 537 L 749 542 L 755 539 L 761 540 L 767 541 L 772 539 L 779 540 L 785 539 L 793 539 L 801 540 L 811 540 L 810 520 L 826 497 L 796 479 L 803 501 L 784 516 L 765 523 L 762 504 L 780 493 L 764 480 L 760 459 L 783 453 L 809 460 L 831 468 L 847 445 L 813 434 L 830 412 L 818 382 L 796 399 L 785 425 L 758 432 L 764 401 L 773 372 L 802 354 L 810 323 L 834 299 L 848 331 L 837 357 L 873 365 L 884 334 L 912 316 L 899 289 L 870 305 L 857 276 L 883 261 L 913 253 L 932 274 L 961 281 L 942 309 L 973 316 L 997 294 L 1027 282 L 1030 318 L 1000 337 L 962 348 L 988 369 L 967 393 L 972 423 L 978 456 L 978 484 L 946 476 L 912 476 L 926 452 L 950 442 L 932 412 L 939 377 L 932 342 L 906 357 L 906 386 L 890 407 L 854 388 L 860 416 L 877 437 L 906 436 L 882 462 L 856 480 L 847 510 L 873 510 L 886 488 L 902 510 L 925 503 L 948 507 L 968 512 L 990 511 L 990 540 L 999 539 L 1008 540 L 1012 516 L 1010 490 L 1011 464 L 1006 435 L 1004 405 L 1022 378 L 1036 351 L 1070 336 L 1064 303 L 1059 269 L 1090 278 L 1107 307 L 1110 339 L 1108 368 L 1139 390 L 1152 420 L 1140 453 L 1156 479 L 1164 507 L 1184 518 L 1203 508 L 1187 490 L 1187 466 L 1173 443 L 1173 383 L 1151 356 L 1150 321 L 1149 288 L 1120 265 L 1144 241 L 1148 206 L 1182 215 L 1218 210 L 1252 226 L 1215 252 L 1177 260 L 1248 272 L 1246 311 L 1200 295 L 1186 333 L 1206 372 L 1221 339 L 1252 354 L 1251 391 L 1222 404 L 1188 412 L 1211 436 L 1220 461 L 1222 487 L 1250 430 L 1252 462 L 1256 490 L 1249 510 L 1224 513 L 1240 533 L 1240 541 L 1247 539 L 1254 537 L 1265 533 L 1262 540 L 1261 557 L 1247 560 L 1233 570 L 1230 554 L 1232 539 L 1224 538 L 1217 544 L 1214 537 L 1206 540 L 1199 538 L 1191 540 L 1183 539 L 1176 539 L 1168 539 L 1160 539 L 1162 556 L 1179 554 L 1176 568 L 1159 572 L 1146 561 L 1133 554 L 1115 556 L 1096 558 L 1111 539 L 1118 538 L 1125 540 L 1131 536 L 1137 539 L 1145 539 L 1152 540 L 1152 525 L 1138 505 L 1122 481 L 1102 458 L 1115 428 L 1109 399 L 1079 404 L 1067 372 L 1043 407 L 1041 443 L 1075 436 L 1071 469 L 1041 477 L 1036 507 L 1061 520 L 1066 499 L 1092 495 L 1111 512 L 1103 539 L 1095 538 L 1087 537 L 1079 539 L 1071 539 L 1063 540 L 1055 539 L 1046 538 L 1037 539 L 1027 539 L 1018 538 L 1019 548 L 1001 558 L 985 572 L 976 556 L 981 539 L 972 539 L 962 539 L 952 539 L 942 538 L 933 538 L 925 540 L 917 536 L 912 544 L 907 538 L 899 539 L 893 536 L 887 540 L 880 536 L 873 539 L 865 538 L 855 538 L 844 539 L 833 539 L 822 539 L 805 554 L 821 554 L 837 555 L 842 570 L 826 569 L 812 569 L 817 586 L 807 599 L 812 614 L 816 630 L 811 645 L 808 660 L 821 673 L 839 680 L 855 690 L 875 685 L 900 685 L 907 664 L 927 679 L 953 682 L 975 674 L 987 649 L 962 651 L 940 657 L 920 646 L 908 627 L 897 607 L 875 600 L 854 604 L 854 623 L 863 643 L 878 623 L 890 643 L 882 664 L 859 666 L 837 658 L 837 639 L 834 619 L 831 602 L 834 585 L 851 586 L 868 580 L 857 566 L 854 552 L 871 560 L 881 550 L 897 551 L 889 565 L 887 583 L 906 587 L 909 566 L 927 561 L 943 554 L 946 575 L 928 583 L 923 606 L 937 627 L 962 627 L 948 601 L 961 564 L 969 585 L 973 606 L 989 623 L 1011 637 L 1030 622 L 1047 604 L 1063 588 L 1043 582 L 1025 592 L 1012 610 L 994 595 L 1007 578 L 1023 567 L 1039 562 L 1047 548 L 1059 565 L 1076 558 L 1080 577 L 1098 577 L 1113 573 L 1129 571 L 1142 579 L 1130 592 L 1114 590 L 1110 609 L 1127 611 L 1143 611 L 1145 596 L 1157 587 L 1172 586 L 1188 579 L 1194 595 L 1212 600 L 1205 579 L 1196 560 L 1214 563 L 1223 584 L 1237 597 L 1247 582 L 1261 577 L 1259 601 L 1244 615 L 1224 615 L 1205 625 L 1193 613 L 1178 601 L 1160 605 L 1173 618 L 1186 632 L 1199 647 L 1191 668 L 1187 689 L 1213 686 L 1212 664 L 1235 671 L 1230 653 L 1219 636 L 1241 636 L 1260 628 L 1257 654 L 1258 680 L 1256 706 L 1237 691 L 1229 709 L 1206 707 L 1186 709 L 1168 707 L 1161 689 L 1170 671 L 1175 651 L 1165 636 L 1153 624 L 1134 629 L 1115 629 L 1101 643 L 1082 637 L 1094 619 L 1096 596 L 1079 600 L 1070 617 L 1051 627 L 1062 645 L 1080 662 L 1103 665 L 1126 669 L 1124 649 L 1145 644 L 1153 658 L 1146 675 L 1135 692 L 1147 709 L 1120 709 L 1110 687 L 1093 708 L 1083 685 L 1064 703 L 1038 707 L 1019 689 L 1039 679 L 1058 671 L 1036 650 L 1014 662 L 997 679 L 1008 708 L 985 702 L 965 706 L 943 706 L 922 704 L 904 708 L 884 706 L 863 709 L 840 707 L 819 692 L 817 710 L 794 706 L 798 681 L 776 688 L 770 709 L 751 701 L 731 710 L 728 689 L 744 676 L 764 671 L 784 660 L 792 636 L 792 614 L 773 619 L 772 639 L 756 649 L 752 625 L 734 631 L 736 654 L 720 667 L 701 656 L 715 640 L 716 616 L 733 606 L 754 605 L 755 586 L 770 580 L 772 600 L 787 593 L 799 582 L 783 573 L 797 567 L 788 555 L 773 557 L 760 567 L 756 553 L 740 547 L 734 540 L 727 540 L 722 555 L 727 570 L 743 566 L 737 586 L 717 589 L 709 569 L 697 558 L 692 583 L 701 599 L 691 614 L 695 633 L 680 648 L 643 638 L 624 655 L 602 666 L 626 683 L 644 669 L 658 651 L 671 668 L 678 688 L 693 674 L 706 688 L 708 708 L 687 707 L 665 709 L 655 688 L 641 706 L 616 708 L 603 690 L 588 708 L 564 706 L 541 706 L 520 707 L 499 709 L 478 709 L 485 691 L 482 673 L 463 678 L 439 684 L 460 694 L 458 711 L 439 707 L 419 710 L 419 692 L 415 672 L 430 659 L 448 666 L 448 646 L 450 626 L 455 609 L 473 600 L 470 577 L 456 585 L 440 592 L 425 599 L 429 617 L 428 636 L 412 647 L 395 657 L 370 684 L 395 682 L 398 706 L 377 707 L 353 707 L 344 684 L 352 662 L 375 660 L 360 636 L 382 635 L 404 626 L 404 605 L 377 610 L 356 594 L 349 615 L 326 621 L 335 643 L 324 664 L 309 646 L 303 627 L 307 607 L 311 585 L 332 595 L 346 574 L 326 570 L 333 548 L 318 555 L 302 561 L 282 559 L 265 562 L 251 578 L 272 582 L 292 576 L 290 595 L 276 608 L 259 599 L 240 595 L 229 580 L 215 588 L 225 606 L 211 619 L 195 619 L 187 637 L 169 650 L 167 670 L 161 688 L 177 688 L 183 665 L 198 675 L 193 692 L 214 690 L 226 675 L 212 662 L 196 652 L 212 640 L 229 628 L 247 616 L 264 629 L 284 625 L 282 649 L 261 654 L 245 639 L 232 654 L 249 671 L 261 689 L 278 677 L 298 671 L 318 686 L 327 707 L 301 704 L 278 706 L 254 709 L 238 691 L 232 709 L 214 709 L 197 709 L 180 709 L 163 708 L 144 711 L 145 694 L 125 695 L 124 711 L 107 706 L 88 708 L 68 709 L 49 705 L 53 681 L 36 681 L 25 694 L 30 711 L 9 706 L 10 680 L 9 658 L 29 664 L 49 654 L 42 633 L 26 644 L 9 635 L 26 617 L 8 616 L 11 598 L 31 592 L 50 587 L 45 611 L 65 606 L 68 580 L 47 564 L 63 557 L 81 560 L 99 556 L 106 572 L 88 579 L 84 600 L 105 592 L 104 612 L 85 622 L 64 629 L 70 649 L 88 642 L 108 635 L 129 641 L 125 660 L 106 656 L 88 667 L 67 668 L 73 689 L 94 688 L 111 679 L 132 678 L 149 674 L 147 657 L 149 640 L 164 631 L 177 621 L 179 605 L 200 600 L 200 578 L 182 589 L 181 574 L 160 574 L 162 591 L 159 611 L 143 621 L 123 621 L 124 601 L 143 598 L 142 579 L 124 580 L 121 558 L 139 560 L 156 555 L 171 563 L 178 553 L 195 559 L 213 563 L 229 552 L 232 566 L 247 559 L 257 546 L 261 538 L 270 539 L 279 538 L 288 539 L 298 538 L 307 539 L 316 538 L 326 538 L 336 538 L 345 539 L 350 556 L 353 538 L 360 539 L 368 538 L 377 539 L 386 540 L 395 540 L 401 534 L 382 526 L 386 504 L 362 512 L 338 516 L 327 497 L 322 475 L 307 459 L 316 433 L 314 400 L 289 410 L 285 440 L 282 473 L 300 493 L 310 516 L 282 513 L 265 495 L 248 478 L 259 451 L 256 419 L 264 389 L 290 369 L 321 372 L 315 344 L 314 308 L 287 330 L 261 353 L 235 371 L 221 398 L 223 430 L 229 456 L 203 468 L 223 486 L 230 510 L 254 515 L 252 538 L 244 539 L 235 539 L 227 539 L 218 540 L 209 539 L 200 539 L 192 539 L 184 539 L 176 539 L 168 539 L 161 537 L 152 538 L 143 538 L 132 538 L 120 538 L 108 538 L 95 537 L 83 538 L 71 538 L 59 537 L 48 538 L 37 540 L 29 567 L 10 579 L 10 559 L 5 538 L 17 539 L 27 537 L 14 505 L 43 503 L 75 503 L 92 475 L 111 500 L 139 508 L 164 500 L 182 516 L 201 503 L 175 475 L 186 445 L 190 416 L 174 387 L 199 363 L 162 352 L 162 308 L 193 320 L 223 337 L 253 322 L 231 298 L 200 280 L 165 276 L 180 245 L 214 239 L 234 264 L 266 266 L 275 297 L 301 274 L 292 241 L 255 232 L 232 210 L 238 179 L 266 185 L 279 209 L 313 213 L 329 248 L 348 222 L 361 191 L 391 186 L 406 152 L 373 149 L 346 161 L 327 186 L 297 176 L 267 152 L 237 149 L 210 124 L 205 156 L 207 186 L 191 211 L 156 213 L 140 181 L 174 175 L 179 134 L 149 143 L 116 152 L 121 122 L 129 94 L 157 102 L 187 96 L 194 62 L 163 59 L 132 60 L 100 50 L 65 53 L 43 78 L 69 93 L 98 85 L 85 121 L 51 140 L 84 153 L 66 177 L 84 203 L 106 182 L 119 215 L 143 247 L 126 284 L 136 321 L 106 325 L 125 353 L 96 368 L 45 400 L 80 401 L 108 417 L 128 385 L 147 411 L 153 441 L 140 475 L 118 450 L 82 445 L 54 432 L 53 469 L 16 474 L 20 446 L 16 418 L 13 386 L 13 352 L 37 367 L 64 368 L 76 336 L 44 332 L 15 320 L 61 302 L 92 299 L 88 270 L 109 247 L 77 234 L 56 265 L 36 291 L 11 290 L 17 259 L 42 238 L 48 207 L 14 226 L 14 193 L 38 173 L 14 157 L 14 125 L 41 110 L 13 89 L 22 57 L 14 36 L 16 11 L 47 20 L 79 17 L 112 17 L 144 20 L 176 21 L 206 13 L 216 40 L 240 17 L 270 13 L 258 49 L 231 65 L 219 93 L 251 89 L 277 82 L 243 120 L 272 115 L 291 139 L 306 113 L 305 85 L 295 58 L 288 34 L 308 13 L 341 14 L 325 40 L 329 68 L 336 97 L 316 150 L 337 129 L 363 116 L 395 115 L 430 129 L 452 156 L 427 180 L 418 216 L 410 251 L 383 224 L 367 259 L 336 281 L 362 302 L 343 329 L 377 339 L 401 316 L 417 346 L 438 321 L 472 314 L 455 286 L 425 283 L 392 283 L 450 246 L 481 268 L 507 248 L 545 244 L 557 214 L 583 238 L 597 274 L 564 275 L 573 308 L 539 304 L 528 273 L 503 297 L 499 331 L 526 332 L 554 336 L 576 341 L 599 330 L 608 303 L 635 317 L 647 295 L 632 272 L 619 241 L 656 246 L 645 210 L 609 206 L 611 169 L 643 171 L 674 182 L 682 215 L 711 189 L 730 156 L 720 120 L 757 130 L 752 96 L 719 83 L 685 88 L 683 121 L 693 154 L 651 136 L 649 96 L 613 100 L 613 132 L 570 119 L 543 93 L 526 131 L 504 105 L 483 79 L 465 46 L 478 14 L 441 17 L 428 52 L 398 42 L 408 14 L 375 12 L 367 37 L 357 60 L 369 87 L 396 73 L 421 94 L 449 78 L 460 111 L 484 137 L 506 166 L 478 184 L 452 206 L 483 223 L 516 212 L 536 185 L 549 155 L 582 151 L 577 187 " stroke="black" stroke-width="3" fill="none"/> 
 </svg>