<?xml version="1.0" ?>
<!DOCTYPE svg PUBLIC "-//W3C//DTD SVG 1.1//EN" "http://www.w3.org/Graphics/SVG/1.1/DTD/svg11.dtd">
<svg width="1080" height="934" version="1.1" xmlns="http://www.w3.org/2000/svg">
<path d="M864 12 L 894 17 L 923 20 L 946 46 L 956 13 L 995 13 L 1026 15 L 979 36 L 979 65 L 982 98 L 1012 80 L 1012 47 L 1042 69 L 1066 86 L 1092 76 L 1122 82 L 1141 50 L 1108 49 L 1074 49 L 1044 39 L 1059 14 L 1089 17 L 1120 16 L 1151 15 L 1177 25 L 1203 14 L 1230 22 L 1256 20 L 1249 62 L 1211 54 L 1176 63 L 1152 89 L 1159 131 L 1168 167 L 1130 180 L 1126 150 L 1125 118 L 1097 107 L 1070 118 L 1041 105 L 1014 114 L 1020 145 L 1018 175 L 992 189 L 971 159 L 988 133 L 954 121 L 934 150 L 924 187 L 935 222 L 956 241 L 957 193 L 987 221 L 1027 210 L 1033 246 L 1006 250 L 981 261 L 961 282 L 942 309 L 973 316 L 997 294 L 1027 282 L 1059 269 L 1061 235 L 1068 204 L 1053 174 L 1052 142 L 1090 144 L 1092 177 L 1110 211 L 1095 240 L 1121 266 L 1090 278 L 1064 304 L 1072 336 L 1108 307 L 1111 339 L 1107 368 L 1108 399 L 1115 428 L 1139 452 L 1156 478 L 1122 480 L 1102 458 L 1075 435 L 1078 404 L 1067 372 L 1043 407 L 1041 442 L 1071 468 L 1041 476 L 1036 507 L 1062 519 L 1065 498 L 1091 494 L 1110 510 L 1137 505 L 1152 523 L 1164 505 L 1184 518 L 1203 508 L 1187 489 L 1188 465 L 1173 442 L 1151 419 L 1139 389 L 1150 355 L 1150 320 L 1150 288 L 1178 260 L 1144 241 L 1149 205 L 1182 215 L 1218 210 L 1206 174 L 1206 135 L 1182 105 L 1213 91 L 1249 103 L 1247 141 L 1249 181 L 1252 227 L 1215 252 L 1248 272 L 1247 310 L 1201 295 L 1185 334 L 1221 338 L 1252 354 L 1207 371 L 1173 382 L 1188 411 L 1211 435 L 1222 403 L 1251 391 L 1250 429 L 1220 460 L 1223 486 L 1252 461 L 1255 489 L 1250 510 L 1225 512 L 1224 538 L 1232 539 L 1239 541 L 1240 533 L 1247 539 L 1255 538 L 1264 533 L 1263 540 L 1261 557 L 1247 560 L 1233 570 L 1223 584 L 1236 597 L 1246 582 L 1261 577 L 1259 601 L 1244 615 L 1224 615 L 1206 625 L 1193 613 L 1186 633 L 1199 647 L 1212 664 L 1231 653 L 1220 637 L 1241 636 L 1260 628 L 1257 654 L 1258 680 L 1256 706 L 1235 671 L 1238 691 L 1229 709 L 1207 707 L 1213 686 L 1188 689 L 1191 668 L 1176 652 L 1170 672 L 1161 689 L 1187 709 L 1170 706 L 1150 709 L 1126 708 L 1102 707 L 1113 685 L 1103 664 L 1101 643 L 1114 628 L 1123 648 L 1128 666 L 1136 691 L 1146 675 L 1154 658 L 1144 644 L 1134 629 L 1127 611 L 1110 609 L 1093 618 L 1083 636 L 1064 643 L 1050 628 L 1069 616 L 1079 600 L 1096 596 L 1114 591 L 1130 592 L 1145 596 L 1143 611 L 1153 624 L 1165 637 L 1173 618 L 1160 605 L 1178 601 L 1172 586 L 1157 588 L 1159 572 L 1143 579 L 1129 572 L 1113 574 L 1114 558 L 1132 554 L 1146 560 L 1162 555 L 1180 554 L 1176 568 L 1188 579 L 1195 595 L 1212 600 L 1206 579 L 1196 560 L 1214 563 L 1230 555 L 1217 544 L 1214 537 L 1206 540 L 1199 538 L 1191 540 L 1183 539 L 1176 539 L 1168 539 L 1160 539 L 1152 540 L 1145 539 L 1138 539 L 1131 537 L 1125 539 L 1118 541 L 1115 534 L 1110 540 L 1103 538 L 1095 539 L 1087 537 L 1079 540 L 1071 539 L 1063 540 L 1055 539 L 1046 538 L 1037 539 L 1027 539 L 1019 551 L 1023 568 L 1007 579 L 1001 559 L 985 573 L 976 556 L 961 564 L 944 555 L 927 562 L 909 567 L 898 552 L 881 551 L 871 560 L 869 580 L 889 567 L 887 584 L 907 587 L 897 608 L 909 627 L 923 606 L 928 584 L 946 576 L 948 601 L 938 627 L 962 627 L 973 606 L 968 585 L 994 595 L 1011 610 L 1025 593 L 1043 582 L 1039 562 L 1048 550 L 1059 566 L 1076 558 L 1095 558 L 1097 577 L 1079 577 L 1062 589 L 1047 605 L 1030 621 L 1010 636 L 989 623 L 987 649 L 962 652 L 942 656 L 922 646 L 906 662 L 890 641 L 878 622 L 875 601 L 855 604 L 851 587 L 842 570 L 857 567 L 854 552 L 837 555 L 827 570 L 812 569 L 821 554 L 805 554 L 788 555 L 773 558 L 761 568 L 756 554 L 738 555 L 745 570 L 727 571 L 719 555 L 708 570 L 697 558 L 677 556 L 659 552 L 659 568 L 640 563 L 628 581 L 618 562 L 597 563 L 575 560 L 561 573 L 544 561 L 541 581 L 523 585 L 524 563 L 507 573 L 504 555 L 489 566 L 484 551 L 470 558 L 455 563 L 441 554 L 438 573 L 440 592 L 456 586 L 470 577 L 486 584 L 502 591 L 491 607 L 473 600 L 455 609 L 450 626 L 448 646 L 467 658 L 487 650 L 504 641 L 467 638 L 480 625 L 506 622 L 515 606 L 535 606 L 530 632 L 520 656 L 541 658 L 556 640 L 554 618 L 557 595 L 578 602 L 583 582 L 606 586 L 625 603 L 601 610 L 579 625 L 581 649 L 565 664 L 552 683 L 581 682 L 600 662 L 608 683 L 631 684 L 624 656 L 603 637 L 623 627 L 643 638 L 659 649 L 681 648 L 695 633 L 691 615 L 673 603 L 669 627 L 649 614 L 648 590 L 667 584 L 681 571 L 692 584 L 701 599 L 717 589 L 737 587 L 755 587 L 771 581 L 783 573 L 797 567 L 799 582 L 787 594 L 772 600 L 773 620 L 792 614 L 793 636 L 816 630 L 813 615 L 806 599 L 817 586 L 834 586 L 831 602 L 834 619 L 837 639 L 855 623 L 863 643 L 880 661 L 858 665 L 836 657 L 812 646 L 807 661 L 820 673 L 839 679 L 851 692 L 870 685 L 890 682 L 910 686 L 930 678 L 954 681 L 977 674 L 999 681 L 1011 661 L 1033 648 L 1035 675 L 1054 662 L 1078 663 L 1088 685 L 1074 707 L 1061 686 L 1044 707 L 1022 692 L 1010 709 L 986 703 L 965 706 L 944 705 L 924 705 L 903 708 L 884 706 L 863 709 L 839 708 L 819 692 L 816 710 L 794 706 L 770 709 L 751 701 L 731 710 L 728 689 L 744 676 L 764 671 L 775 688 L 797 681 L 784 660 L 772 640 L 755 649 L 736 654 L 719 667 L 715 641 L 734 631 L 752 625 L 753 605 L 733 607 L 715 616 L 701 656 L 693 674 L 706 688 L 709 708 L 688 707 L 678 688 L 671 668 L 646 666 L 656 687 L 666 708 L 644 707 L 622 707 L 600 706 L 579 706 L 559 706 L 539 706 L 519 707 L 498 709 L 507 689 L 528 681 L 503 668 L 483 672 L 485 691 L 478 709 L 460 694 L 458 711 L 439 707 L 439 684 L 463 678 L 448 666 L 430 659 L 415 672 L 418 691 L 418 710 L 398 706 L 377 707 L 353 707 L 343 684 L 351 662 L 374 660 L 370 684 L 394 682 L 395 657 L 411 647 L 428 636 L 429 617 L 425 599 L 415 582 L 404 605 L 403 626 L 382 635 L 360 636 L 349 616 L 335 642 L 326 621 L 307 607 L 332 596 L 377 610 L 392 587 L 371 581 L 356 595 L 346 575 L 326 571 L 311 585 L 292 576 L 272 582 L 290 595 L 276 608 L 260 599 L 247 616 L 264 629 L 284 626 L 303 628 L 309 647 L 325 664 L 318 686 L 327 707 L 301 704 L 279 706 L 278 677 L 299 671 L 283 650 L 261 654 L 245 639 L 229 628 L 232 654 L 249 671 L 261 689 L 255 709 L 232 709 L 214 709 L 239 691 L 226 675 L 214 690 L 198 675 L 212 662 L 212 640 L 211 619 L 225 606 L 240 596 L 229 580 L 233 567 L 228 553 L 213 563 L 195 559 L 178 553 L 170 564 L 182 573 L 200 578 L 215 588 L 201 600 L 195 620 L 187 637 L 196 652 L 183 665 L 169 650 L 167 670 L 161 688 L 177 688 L 193 692 L 197 709 L 180 709 L 162 708 L 144 710 L 145 694 L 125 695 L 124 711 L 107 706 L 88 708 L 68 709 L 49 705 L 73 689 L 94 688 L 111 679 L 132 678 L 149 674 L 147 657 L 149 640 L 164 631 L 177 621 L 179 605 L 182 589 L 162 592 L 159 611 L 143 621 L 129 641 L 125 660 L 108 635 L 106 656 L 88 667 L 67 668 L 88 642 L 85 622 L 64 629 L 70 649 L 49 655 L 53 681 L 36 681 L 25 694 L 30 711 L 9 706 L 10 680 L 9 658 L 29 664 L 27 644 L 9 635 L 8 616 L 26 617 L 43 633 L 45 611 L 65 606 L 84 600 L 88 580 L 68 580 L 50 587 L 31 592 L 11 598 L 10 579 L 10 559 L 5 538 L 16 539 L 27 537 L 14 505 L 16 474 L 20 446 L 16 418 L 14 386 L 46 400 L 80 402 L 109 417 L 83 443 L 53 432 L 53 469 L 44 502 L 76 503 L 92 475 L 111 499 L 138 508 L 118 537 L 106 538 L 94 537 L 82 538 L 71 538 L 59 537 L 48 538 L 37 540 L 29 566 L 47 564 L 63 557 L 80 560 L 99 556 L 106 573 L 105 593 L 104 613 L 123 621 L 124 601 L 143 599 L 142 579 L 159 574 L 156 556 L 138 560 L 124 580 L 120 558 L 128 538 L 137 538 L 146 539 L 154 538 L 161 537 L 168 539 L 176 539 L 184 539 L 192 539 L 200 539 L 209 540 L 218 540 L 226 539 L 235 539 L 243 539 L 251 538 L 257 545 L 247 559 L 251 578 L 265 562 L 282 558 L 302 561 L 317 556 L 333 550 L 350 557 L 369 560 L 387 565 L 404 563 L 423 560 L 417 539 L 408 540 L 401 533 L 395 540 L 386 539 L 377 539 L 368 538 L 360 539 L 352 538 L 345 539 L 336 538 L 326 538 L 316 538 L 307 539 L 298 538 L 288 538 L 279 538 L 270 539 L 262 537 L 252 517 L 276 512 L 270 486 L 291 470 L 263 453 L 286 439 L 288 408 L 314 399 L 315 429 L 314 454 L 321 476 L 297 498 L 310 517 L 325 497 L 338 515 L 362 512 L 383 524 L 387 503 L 410 492 L 421 513 L 425 536 L 429 541 L 437 537 L 446 538 L 456 539 L 466 538 L 476 538 L 486 538 L 497 538 L 506 538 L 515 540 L 514 531 L 510 523 L 503 529 L 486 512 L 456 512 L 439 493 L 428 467 L 456 470 L 475 490 L 504 491 L 518 517 L 521 526 L 528 525 L 534 530 L 528 533 L 522 536 L 528 544 L 534 539 L 541 539 L 546 543 L 556 546 L 563 544 L 560 536 L 551 537 L 559 528 L 566 524 L 566 531 L 572 533 L 569 540 L 576 540 L 584 540 L 592 540 L 601 540 L 611 540 L 621 539 L 631 540 L 641 540 L 650 539 L 659 539 L 667 539 L 675 540 L 681 535 L 687 541 L 695 539 L 703 540 L 711 540 L 719 539 L 726 540 L 734 540 L 740 540 L 747 543 L 752 539 L 757 540 L 763 539 L 768 542 L 773 538 L 779 540 L 786 539 L 793 539 L 802 540 L 812 540 L 822 539 L 833 539 L 844 539 L 855 538 L 865 538 L 873 539 L 880 537 L 887 540 L 893 536 L 899 539 L 907 538 L 913 544 L 917 536 L 925 540 L 933 538 L 942 538 L 952 539 L 962 540 L 972 539 L 981 539 L 990 540 L 999 539 L 1008 540 L 1018 539 L 1013 516 L 1010 490 L 1011 463 L 1007 434 L 1004 404 L 1023 378 L 1037 351 L 1030 317 L 1001 337 L 989 369 L 963 348 L 932 342 L 906 357 L 906 386 L 890 407 L 860 416 L 831 412 L 855 388 L 873 365 L 884 333 L 912 316 L 899 289 L 932 275 L 913 252 L 883 260 L 851 244 L 876 228 L 905 220 L 887 195 L 851 203 L 817 199 L 826 230 L 823 263 L 789 263 L 768 243 L 796 229 L 779 200 L 751 219 L 744 188 L 767 165 L 791 141 L 800 171 L 832 167 L 867 170 L 900 162 L 893 130 L 920 108 L 950 84 L 920 68 L 895 53 L 889 89 L 861 109 L 856 140 L 823 130 L 830 97 L 855 72 L 865 43 L 839 21 L 813 18 L 786 12 L 785 43 L 823 53 L 806 79 L 789 108 L 776 73 L 748 55 L 757 19 L 728 16 L 696 16 L 663 18 L 630 21 L 598 15 L 586 47 L 618 62 L 653 57 L 685 52 L 717 47 L 719 83 L 752 96 L 757 130 L 720 120 L 730 155 L 709 186 L 719 218 L 696 243 L 682 213 L 673 181 L 692 152 L 683 120 L 685 87 L 649 96 L 651 135 L 613 133 L 612 100 L 580 81 L 570 118 L 582 151 L 611 171 L 643 168 L 643 205 L 656 238 L 670 264 L 684 286 L 691 309 L 716 324 L 720 295 L 713 269 L 736 249 L 754 279 L 802 290 L 777 305 L 745 313 L 773 336 L 758 367 L 741 344 L 715 346 L 688 332 L 661 313 L 646 289 L 631 267 L 619 238 L 605 206 L 575 186 L 558 213 L 544 243 L 583 239 L 598 273 L 604 302 L 631 313 L 646 340 L 654 342 L 662 342 L 671 347 L 675 357 L 683 357 L 687 371 L 693 357 L 701 361 L 711 365 L 720 371 L 728 379 L 734 390 L 737 402 L 736 415 L 732 426 L 759 433 L 766 399 L 787 374 L 804 350 L 811 322 L 835 299 L 857 276 L 870 305 L 849 331 L 837 357 L 821 382 L 800 403 L 784 424 L 785 450 L 796 479 L 809 461 L 814 435 L 832 468 L 857 480 L 847 445 L 877 437 L 882 461 L 906 435 L 932 412 L 939 376 L 967 393 L 973 422 L 950 441 L 926 452 L 912 475 L 947 476 L 978 456 L 978 484 L 990 510 L 968 512 L 948 507 L 925 503 L 902 510 L 886 488 L 873 509 L 847 510 L 826 496 L 810 520 L 802 501 L 782 514 L 765 519 L 778 492 L 761 488 L 766 464 L 742 474 L 742 482 L 743 490 L 744 497 L 744 503 L 748 509 L 746 515 L 747 522 L 747 528 L 746 535 L 741 531 L 740 524 L 735 520 L 736 514 L 733 508 L 732 501 L 729 495 L 729 489 L 724 483 L 704 495 L 707 517 L 682 504 L 678 476 L 696 470 L 671 456 L 659 477 L 655 496 L 662 517 L 635 513 L 610 518 L 587 529 L 579 530 L 573 524 L 579 520 L 583 510 L 584 500 L 594 499 L 603 497 L 613 494 L 622 489 L 629 483 L 635 476 L 640 469 L 644 462 L 646 455 L 649 448 L 649 439 L 648 430 L 640 423 L 651 410 L 662 421 L 660 436 L 671 436 L 679 423 L 676 414 L 685 403 L 703 398 L 699 407 L 707 414 L 696 423 L 681 432 L 690 436 L 700 441 L 710 440 L 713 448 L 716 457 L 719 467 L 722 476 L 731 475 L 739 466 L 728 460 L 739 456 L 734 447 L 733 436 L 722 437 L 715 426 L 716 416 L 721 403 L 716 389 L 706 378 L 696 384 L 684 388 L 669 391 L 665 404 L 652 394 L 637 399 L 636 414 L 622 408 L 621 393 L 631 385 L 644 380 L 657 377 L 673 377 L 667 365 L 656 359 L 643 366 L 631 370 L 643 354 L 638 343 L 632 348 L 627 354 L 620 359 L 618 366 L 617 376 L 609 386 L 609 400 L 596 404 L 596 390 L 583 382 L 594 377 L 606 372 L 609 359 L 599 361 L 589 364 L 580 368 L 572 373 L 564 378 L 557 385 L 550 391 L 545 400 L 540 406 L 549 419 L 557 410 L 562 399 L 572 391 L 583 397 L 583 410 L 571 410 L 578 424 L 593 420 L 606 414 L 614 422 L 626 423 L 619 435 L 634 435 L 637 446 L 624 448 L 632 458 L 626 469 L 617 459 L 604 458 L 611 446 L 597 445 L 605 432 L 590 433 L 582 443 L 590 458 L 576 456 L 570 434 L 562 424 L 551 435 L 548 448 L 565 445 L 561 456 L 567 467 L 579 470 L 590 472 L 602 471 L 615 473 L 609 483 L 596 485 L 584 486 L 571 482 L 559 478 L 553 467 L 545 460 L 545 479 L 549 486 L 557 491 L 566 495 L 575 497 L 562 509 L 545 513 L 526 510 L 531 502 L 535 493 L 537 484 L 539 475 L 536 468 L 534 461 L 533 453 L 531 445 L 534 438 L 532 430 L 537 424 L 537 415 L 523 417 L 501 404 L 503 437 L 508 466 L 482 459 L 454 440 L 425 439 L 432 414 L 455 399 L 477 423 L 478 383 L 471 348 L 447 361 L 425 382 L 394 367 L 374 386 L 369 417 L 373 448 L 402 400 L 397 427 L 402 453 L 395 475 L 371 477 L 350 490 L 346 465 L 345 441 L 340 416 L 346 391 L 353 360 L 377 338 L 401 315 L 417 346 L 438 321 L 472 313 L 503 296 L 527 331 L 499 330 L 502 362 L 520 384 L 536 360 L 558 339 L 585 333 L 611 332 L 571 306 L 564 273 L 539 303 L 527 273 L 507 248 L 481 268 L 455 286 L 425 283 L 391 283 L 367 259 L 383 224 L 392 186 L 361 191 L 349 222 L 328 248 L 292 241 L 313 214 L 328 187 L 346 161 L 317 151 L 337 129 L 364 117 L 374 149 L 407 152 L 430 129 L 395 115 L 422 94 L 449 78 L 483 78 L 503 105 L 460 111 L 484 137 L 453 156 L 427 180 L 451 206 L 418 216 L 409 251 L 449 246 L 482 223 L 516 211 L 536 185 L 479 184 L 507 166 L 548 154 L 526 130 L 543 94 L 519 70 L 548 51 L 560 16 L 521 16 L 501 43 L 465 46 L 479 14 L 442 17 L 409 14 L 397 42 L 428 52 L 396 73 L 369 87 L 337 97 L 306 114 L 305 86 L 329 68 L 358 60 L 366 37 L 375 12 L 341 14 L 307 13 L 325 40 L 295 58 L 288 34 L 258 49 L 270 13 L 240 17 L 206 13 L 176 21 L 144 20 L 113 17 L 79 17 L 47 20 L 16 11 L 14 36 L 22 58 L 43 78 L 65 53 L 99 49 L 131 59 L 163 60 L 194 62 L 216 40 L 230 65 L 250 88 L 277 82 L 272 115 L 242 120 L 237 149 L 267 152 L 291 139 L 296 176 L 265 185 L 238 179 L 280 210 L 255 233 L 266 266 L 301 274 L 314 307 L 337 281 L 363 302 L 343 328 L 315 343 L 322 372 L 290 369 L 262 389 L 255 421 L 223 429 L 234 455 L 246 477 L 242 498 L 224 515 L 201 504 L 181 515 L 163 499 L 141 474 L 118 451 L 150 440 L 179 477 L 216 483 L 205 456 L 178 446 L 190 417 L 174 387 L 148 410 L 129 384 L 162 352 L 126 353 L 96 369 L 77 336 L 65 368 L 37 367 L 13 352 L 15 320 L 44 332 L 62 302 L 92 299 L 106 325 L 136 321 L 126 284 L 164 276 L 143 247 L 180 245 L 200 280 L 163 308 L 193 320 L 223 337 L 199 363 L 220 398 L 234 370 L 261 353 L 286 330 L 275 297 L 253 322 L 231 298 L 234 264 L 214 239 L 232 210 L 207 186 L 191 211 L 156 213 L 140 181 L 119 215 L 110 247 L 88 270 L 56 266 L 36 291 L 11 289 L 17 259 L 14 225 L 14 193 L 14 157 L 38 173 L 48 207 L 43 238 L 77 234 L 84 204 L 106 182 L 66 177 L 84 153 L 116 152 L 121 122 L 149 143 L 178 134 L 174 175 L 205 156 L 210 124 L 219 93 L 187 96 L 157 102 L 129 93 L 98 84 L 69 93 L 85 121 L 51 141 L 42 110 L 15 125 L 13 89 " stroke="black" stroke-width="3" fill="none"/> 
 </svg>